%TF.GenerationSoftware,KiCad,Pcbnew,8.0.6*%
%TF.CreationDate,2024-11-27T08:16:23+01:00*%
%TF.ProjectId,M2SmartHome,4d32536d-6172-4744-986f-6d652e6b6963,rev?*%
%TF.SameCoordinates,Original*%
%TF.FileFunction,Legend,Top*%
%TF.FilePolarity,Positive*%
%FSLAX46Y46*%
G04 Gerber Fmt 4.6, Leading zero omitted, Abs format (unit mm)*
G04 Created by KiCad (PCBNEW 8.0.6) date 2024-11-27 08:16:23*
%MOMM*%
%LPD*%
G01*
G04 APERTURE LIST*
%ADD10C,0.150000*%
%ADD11C,0.100000*%
%ADD12C,0.200000*%
%ADD13C,0.127000*%
%ADD14C,0.120000*%
%ADD15C,0.254000*%
%ADD16C,0.152400*%
G04 APERTURE END LIST*
D10*
X95786667Y-86648276D02*
X95786667Y-87105419D01*
X95786667Y-87105419D02*
X95756190Y-87196847D01*
X95756190Y-87196847D02*
X95695238Y-87257800D01*
X95695238Y-87257800D02*
X95603809Y-87288276D01*
X95603809Y-87288276D02*
X95542857Y-87288276D01*
X96365714Y-86861609D02*
X96365714Y-87288276D01*
X96213333Y-86617800D02*
X96060952Y-87074942D01*
X96060952Y-87074942D02*
X96457143Y-87074942D01*
D11*
X83600000Y-120600000D02*
X81200000Y-120600000D01*
X81200000Y-120600000D02*
X81200000Y-124800000D01*
X83600000Y-124800000D02*
X83600000Y-120600000D01*
X81200000Y-124800000D02*
X83600000Y-124800000D01*
D10*
X88388276Y-92706666D02*
X88388276Y-93011428D01*
X88388276Y-93011428D02*
X87748276Y-93011428D01*
X87961609Y-92219047D02*
X88388276Y-92219047D01*
X87717800Y-92371428D02*
X88174942Y-92523809D01*
X88174942Y-92523809D02*
X88174942Y-92127618D01*
X98828417Y-93229266D02*
X98612918Y-93444765D01*
X98612918Y-93444765D02*
X98160370Y-92992217D01*
X98483618Y-92668968D02*
X98763767Y-92388819D01*
X98763767Y-92388819D02*
X98785317Y-92712068D01*
X98785317Y-92712068D02*
X98849967Y-92647418D01*
X98849967Y-92647418D02*
X98914617Y-92625868D01*
X98914617Y-92625868D02*
X98957717Y-92625868D01*
X98957717Y-92625868D02*
X99022366Y-92647418D01*
X99022366Y-92647418D02*
X99130116Y-92755168D01*
X99130116Y-92755168D02*
X99151666Y-92819818D01*
X99151666Y-92819818D02*
X99151666Y-92862917D01*
X99151666Y-92862917D02*
X99130116Y-92927567D01*
X99130116Y-92927567D02*
X99000816Y-93056867D01*
X99000816Y-93056867D02*
X98936167Y-93078417D01*
X98936167Y-93078417D02*
X98893067Y-93078417D01*
X94988276Y-94106666D02*
X94988276Y-94411428D01*
X94988276Y-94411428D02*
X94348276Y-94411428D01*
X94409228Y-93923809D02*
X94378752Y-93893333D01*
X94378752Y-93893333D02*
X94348276Y-93832380D01*
X94348276Y-93832380D02*
X94348276Y-93679999D01*
X94348276Y-93679999D02*
X94378752Y-93619047D01*
X94378752Y-93619047D02*
X94409228Y-93588571D01*
X94409228Y-93588571D02*
X94470180Y-93558094D01*
X94470180Y-93558094D02*
X94531133Y-93558094D01*
X94531133Y-93558094D02*
X94622561Y-93588571D01*
X94622561Y-93588571D02*
X94988276Y-93954285D01*
X94988276Y-93954285D02*
X94988276Y-93558094D01*
X102243333Y-89738276D02*
X101938571Y-89738276D01*
X101938571Y-89738276D02*
X101938571Y-89098276D01*
X102791905Y-89738276D02*
X102426190Y-89738276D01*
X102609047Y-89738276D02*
X102609047Y-89098276D01*
X102609047Y-89098276D02*
X102548095Y-89189704D01*
X102548095Y-89189704D02*
X102487143Y-89250657D01*
X102487143Y-89250657D02*
X102426190Y-89281133D01*
X92962380Y-138898276D02*
X92962380Y-139416371D01*
X92962380Y-139416371D02*
X92992857Y-139477323D01*
X92992857Y-139477323D02*
X93023333Y-139507800D01*
X93023333Y-139507800D02*
X93084285Y-139538276D01*
X93084285Y-139538276D02*
X93206190Y-139538276D01*
X93206190Y-139538276D02*
X93267142Y-139507800D01*
X93267142Y-139507800D02*
X93297619Y-139477323D01*
X93297619Y-139477323D02*
X93328095Y-139416371D01*
X93328095Y-139416371D02*
X93328095Y-138898276D01*
X93602380Y-138959228D02*
X93632856Y-138928752D01*
X93632856Y-138928752D02*
X93693809Y-138898276D01*
X93693809Y-138898276D02*
X93846190Y-138898276D01*
X93846190Y-138898276D02*
X93907142Y-138928752D01*
X93907142Y-138928752D02*
X93937618Y-138959228D01*
X93937618Y-138959228D02*
X93968095Y-139020180D01*
X93968095Y-139020180D02*
X93968095Y-139081133D01*
X93968095Y-139081133D02*
X93937618Y-139172561D01*
X93937618Y-139172561D02*
X93571904Y-139538276D01*
X93571904Y-139538276D02*
X93968095Y-139538276D01*
X101148276Y-110413332D02*
X101605419Y-110413332D01*
X101605419Y-110413332D02*
X101696847Y-110443809D01*
X101696847Y-110443809D02*
X101757800Y-110504761D01*
X101757800Y-110504761D02*
X101788276Y-110596190D01*
X101788276Y-110596190D02*
X101788276Y-110657142D01*
X101148276Y-109803809D02*
X101148276Y-110108571D01*
X101148276Y-110108571D02*
X101453038Y-110139047D01*
X101453038Y-110139047D02*
X101422561Y-110108571D01*
X101422561Y-110108571D02*
X101392085Y-110047618D01*
X101392085Y-110047618D02*
X101392085Y-109895237D01*
X101392085Y-109895237D02*
X101422561Y-109834285D01*
X101422561Y-109834285D02*
X101453038Y-109803809D01*
X101453038Y-109803809D02*
X101513990Y-109773332D01*
X101513990Y-109773332D02*
X101666371Y-109773332D01*
X101666371Y-109773332D02*
X101727323Y-109803809D01*
X101727323Y-109803809D02*
X101757800Y-109834285D01*
X101757800Y-109834285D02*
X101788276Y-109895237D01*
X101788276Y-109895237D02*
X101788276Y-110047618D01*
X101788276Y-110047618D02*
X101757800Y-110108571D01*
X101757800Y-110108571D02*
X101727323Y-110139047D01*
X83412380Y-125798276D02*
X83412380Y-126316371D01*
X83412380Y-126316371D02*
X83442857Y-126377323D01*
X83442857Y-126377323D02*
X83473333Y-126407800D01*
X83473333Y-126407800D02*
X83534285Y-126438276D01*
X83534285Y-126438276D02*
X83656190Y-126438276D01*
X83656190Y-126438276D02*
X83717142Y-126407800D01*
X83717142Y-126407800D02*
X83747619Y-126377323D01*
X83747619Y-126377323D02*
X83778095Y-126316371D01*
X83778095Y-126316371D02*
X83778095Y-125798276D01*
X84174285Y-126072561D02*
X84113333Y-126042085D01*
X84113333Y-126042085D02*
X84082856Y-126011609D01*
X84082856Y-126011609D02*
X84052380Y-125950657D01*
X84052380Y-125950657D02*
X84052380Y-125920180D01*
X84052380Y-125920180D02*
X84082856Y-125859228D01*
X84082856Y-125859228D02*
X84113333Y-125828752D01*
X84113333Y-125828752D02*
X84174285Y-125798276D01*
X84174285Y-125798276D02*
X84296190Y-125798276D01*
X84296190Y-125798276D02*
X84357142Y-125828752D01*
X84357142Y-125828752D02*
X84387618Y-125859228D01*
X84387618Y-125859228D02*
X84418095Y-125920180D01*
X84418095Y-125920180D02*
X84418095Y-125950657D01*
X84418095Y-125950657D02*
X84387618Y-126011609D01*
X84387618Y-126011609D02*
X84357142Y-126042085D01*
X84357142Y-126042085D02*
X84296190Y-126072561D01*
X84296190Y-126072561D02*
X84174285Y-126072561D01*
X84174285Y-126072561D02*
X84113333Y-126103038D01*
X84113333Y-126103038D02*
X84082856Y-126133514D01*
X84082856Y-126133514D02*
X84052380Y-126194466D01*
X84052380Y-126194466D02*
X84052380Y-126316371D01*
X84052380Y-126316371D02*
X84082856Y-126377323D01*
X84082856Y-126377323D02*
X84113333Y-126407800D01*
X84113333Y-126407800D02*
X84174285Y-126438276D01*
X84174285Y-126438276D02*
X84296190Y-126438276D01*
X84296190Y-126438276D02*
X84357142Y-126407800D01*
X84357142Y-126407800D02*
X84387618Y-126377323D01*
X84387618Y-126377323D02*
X84418095Y-126316371D01*
X84418095Y-126316371D02*
X84418095Y-126194466D01*
X84418095Y-126194466D02*
X84387618Y-126133514D01*
X84387618Y-126133514D02*
X84357142Y-126103038D01*
X84357142Y-126103038D02*
X84296190Y-126072561D01*
X94512380Y-127248276D02*
X94512380Y-127766371D01*
X94512380Y-127766371D02*
X94542857Y-127827323D01*
X94542857Y-127827323D02*
X94573333Y-127857800D01*
X94573333Y-127857800D02*
X94634285Y-127888276D01*
X94634285Y-127888276D02*
X94756190Y-127888276D01*
X94756190Y-127888276D02*
X94817142Y-127857800D01*
X94817142Y-127857800D02*
X94847619Y-127827323D01*
X94847619Y-127827323D02*
X94878095Y-127766371D01*
X94878095Y-127766371D02*
X94878095Y-127248276D01*
X95213333Y-127888276D02*
X95335237Y-127888276D01*
X95335237Y-127888276D02*
X95396190Y-127857800D01*
X95396190Y-127857800D02*
X95426666Y-127827323D01*
X95426666Y-127827323D02*
X95487618Y-127735895D01*
X95487618Y-127735895D02*
X95518095Y-127613990D01*
X95518095Y-127613990D02*
X95518095Y-127370180D01*
X95518095Y-127370180D02*
X95487618Y-127309228D01*
X95487618Y-127309228D02*
X95457142Y-127278752D01*
X95457142Y-127278752D02*
X95396190Y-127248276D01*
X95396190Y-127248276D02*
X95274285Y-127248276D01*
X95274285Y-127248276D02*
X95213333Y-127278752D01*
X95213333Y-127278752D02*
X95182856Y-127309228D01*
X95182856Y-127309228D02*
X95152380Y-127370180D01*
X95152380Y-127370180D02*
X95152380Y-127522561D01*
X95152380Y-127522561D02*
X95182856Y-127583514D01*
X95182856Y-127583514D02*
X95213333Y-127613990D01*
X95213333Y-127613990D02*
X95274285Y-127644466D01*
X95274285Y-127644466D02*
X95396190Y-127644466D01*
X95396190Y-127644466D02*
X95457142Y-127613990D01*
X95457142Y-127613990D02*
X95487618Y-127583514D01*
X95487618Y-127583514D02*
X95518095Y-127522561D01*
X100687619Y-97998276D02*
X101053333Y-97998276D01*
X100870476Y-98638276D02*
X100870476Y-97998276D01*
X101266666Y-98638276D02*
X101266666Y-97998276D01*
X101266666Y-97998276D02*
X101510476Y-97998276D01*
X101510476Y-97998276D02*
X101571428Y-98028752D01*
X101571428Y-98028752D02*
X101601905Y-98059228D01*
X101601905Y-98059228D02*
X101632381Y-98120180D01*
X101632381Y-98120180D02*
X101632381Y-98211609D01*
X101632381Y-98211609D02*
X101601905Y-98272561D01*
X101601905Y-98272561D02*
X101571428Y-98303038D01*
X101571428Y-98303038D02*
X101510476Y-98333514D01*
X101510476Y-98333514D02*
X101266666Y-98333514D01*
X102241905Y-98638276D02*
X101876190Y-98638276D01*
X102059047Y-98638276D02*
X102059047Y-97998276D01*
X102059047Y-97998276D02*
X101998095Y-98089704D01*
X101998095Y-98089704D02*
X101937143Y-98150657D01*
X101937143Y-98150657D02*
X101876190Y-98181133D01*
X102607619Y-98272561D02*
X102546667Y-98242085D01*
X102546667Y-98242085D02*
X102516190Y-98211609D01*
X102516190Y-98211609D02*
X102485714Y-98150657D01*
X102485714Y-98150657D02*
X102485714Y-98120180D01*
X102485714Y-98120180D02*
X102516190Y-98059228D01*
X102516190Y-98059228D02*
X102546667Y-98028752D01*
X102546667Y-98028752D02*
X102607619Y-97998276D01*
X102607619Y-97998276D02*
X102729524Y-97998276D01*
X102729524Y-97998276D02*
X102790476Y-98028752D01*
X102790476Y-98028752D02*
X102820952Y-98059228D01*
X102820952Y-98059228D02*
X102851429Y-98120180D01*
X102851429Y-98120180D02*
X102851429Y-98150657D01*
X102851429Y-98150657D02*
X102820952Y-98211609D01*
X102820952Y-98211609D02*
X102790476Y-98242085D01*
X102790476Y-98242085D02*
X102729524Y-98272561D01*
X102729524Y-98272561D02*
X102607619Y-98272561D01*
X102607619Y-98272561D02*
X102546667Y-98303038D01*
X102546667Y-98303038D02*
X102516190Y-98333514D01*
X102516190Y-98333514D02*
X102485714Y-98394466D01*
X102485714Y-98394466D02*
X102485714Y-98516371D01*
X102485714Y-98516371D02*
X102516190Y-98577323D01*
X102516190Y-98577323D02*
X102546667Y-98607800D01*
X102546667Y-98607800D02*
X102607619Y-98638276D01*
X102607619Y-98638276D02*
X102729524Y-98638276D01*
X102729524Y-98638276D02*
X102790476Y-98607800D01*
X102790476Y-98607800D02*
X102820952Y-98577323D01*
X102820952Y-98577323D02*
X102851429Y-98516371D01*
X102851429Y-98516371D02*
X102851429Y-98394466D01*
X102851429Y-98394466D02*
X102820952Y-98333514D01*
X102820952Y-98333514D02*
X102790476Y-98303038D01*
X102790476Y-98303038D02*
X102729524Y-98272561D01*
X99812380Y-143998276D02*
X99812380Y-144516371D01*
X99812380Y-144516371D02*
X99842857Y-144577323D01*
X99842857Y-144577323D02*
X99873333Y-144607800D01*
X99873333Y-144607800D02*
X99934285Y-144638276D01*
X99934285Y-144638276D02*
X100056190Y-144638276D01*
X100056190Y-144638276D02*
X100117142Y-144607800D01*
X100117142Y-144607800D02*
X100147619Y-144577323D01*
X100147619Y-144577323D02*
X100178095Y-144516371D01*
X100178095Y-144516371D02*
X100178095Y-143998276D01*
X100421904Y-143998276D02*
X100818095Y-143998276D01*
X100818095Y-143998276D02*
X100604761Y-144242085D01*
X100604761Y-144242085D02*
X100696190Y-144242085D01*
X100696190Y-144242085D02*
X100757142Y-144272561D01*
X100757142Y-144272561D02*
X100787618Y-144303038D01*
X100787618Y-144303038D02*
X100818095Y-144363990D01*
X100818095Y-144363990D02*
X100818095Y-144516371D01*
X100818095Y-144516371D02*
X100787618Y-144577323D01*
X100787618Y-144577323D02*
X100757142Y-144607800D01*
X100757142Y-144607800D02*
X100696190Y-144638276D01*
X100696190Y-144638276D02*
X100513333Y-144638276D01*
X100513333Y-144638276D02*
X100452380Y-144607800D01*
X100452380Y-144607800D02*
X100421904Y-144577323D01*
X99945238Y-140333513D02*
X99945238Y-140638275D01*
X99731905Y-139998275D02*
X99945238Y-140333513D01*
X99945238Y-140333513D02*
X100158572Y-139998275D01*
X100707143Y-140638275D02*
X100341428Y-140638275D01*
X100524285Y-140638275D02*
X100524285Y-139998275D01*
X100524285Y-139998275D02*
X100463333Y-140089703D01*
X100463333Y-140089703D02*
X100402381Y-140150656D01*
X100402381Y-140150656D02*
X100341428Y-140181132D01*
X95033514Y-124804761D02*
X95338276Y-124804761D01*
X94698276Y-125018094D02*
X95033514Y-124804761D01*
X95033514Y-124804761D02*
X94698276Y-124591427D01*
X94698276Y-124439047D02*
X94698276Y-124042856D01*
X94698276Y-124042856D02*
X94942085Y-124256190D01*
X94942085Y-124256190D02*
X94942085Y-124164761D01*
X94942085Y-124164761D02*
X94972561Y-124103809D01*
X94972561Y-124103809D02*
X95003038Y-124073333D01*
X95003038Y-124073333D02*
X95063990Y-124042856D01*
X95063990Y-124042856D02*
X95216371Y-124042856D01*
X95216371Y-124042856D02*
X95277323Y-124073333D01*
X95277323Y-124073333D02*
X95307800Y-124103809D01*
X95307800Y-124103809D02*
X95338276Y-124164761D01*
X95338276Y-124164761D02*
X95338276Y-124347618D01*
X95338276Y-124347618D02*
X95307800Y-124408571D01*
X95307800Y-124408571D02*
X95277323Y-124439047D01*
X82933514Y-123054761D02*
X83238276Y-123054761D01*
X82598276Y-123268094D02*
X82933514Y-123054761D01*
X82933514Y-123054761D02*
X82598276Y-122841427D01*
X82659228Y-122658571D02*
X82628752Y-122628095D01*
X82628752Y-122628095D02*
X82598276Y-122567142D01*
X82598276Y-122567142D02*
X82598276Y-122414761D01*
X82598276Y-122414761D02*
X82628752Y-122353809D01*
X82628752Y-122353809D02*
X82659228Y-122323333D01*
X82659228Y-122323333D02*
X82720180Y-122292856D01*
X82720180Y-122292856D02*
X82781133Y-122292856D01*
X82781133Y-122292856D02*
X82872561Y-122323333D01*
X82872561Y-122323333D02*
X83238276Y-122689047D01*
X83238276Y-122689047D02*
X83238276Y-122292856D01*
X101495238Y-97483514D02*
X101495238Y-97788276D01*
X101281905Y-97148276D02*
X101495238Y-97483514D01*
X101495238Y-97483514D02*
X101708572Y-97148276D01*
X102196190Y-97361609D02*
X102196190Y-97788276D01*
X102043809Y-97117800D02*
X101891428Y-97574942D01*
X101891428Y-97574942D02*
X102287619Y-97574942D01*
X98895776Y-100237619D02*
X99413871Y-100237619D01*
X99413871Y-100237619D02*
X99474823Y-100207142D01*
X99474823Y-100207142D02*
X99505300Y-100176666D01*
X99505300Y-100176666D02*
X99535776Y-100115714D01*
X99535776Y-100115714D02*
X99535776Y-99993809D01*
X99535776Y-99993809D02*
X99505300Y-99932857D01*
X99505300Y-99932857D02*
X99474823Y-99902380D01*
X99474823Y-99902380D02*
X99413871Y-99871904D01*
X99413871Y-99871904D02*
X98895776Y-99871904D01*
X98895776Y-99628095D02*
X98895776Y-99201428D01*
X98895776Y-99201428D02*
X99535776Y-99475714D01*
X92045238Y-95383514D02*
X92045238Y-95688276D01*
X91831905Y-95048276D02*
X92045238Y-95383514D01*
X92045238Y-95383514D02*
X92258572Y-95048276D01*
X92776666Y-95048276D02*
X92471904Y-95048276D01*
X92471904Y-95048276D02*
X92441428Y-95353038D01*
X92441428Y-95353038D02*
X92471904Y-95322561D01*
X92471904Y-95322561D02*
X92532857Y-95292085D01*
X92532857Y-95292085D02*
X92685238Y-95292085D01*
X92685238Y-95292085D02*
X92746190Y-95322561D01*
X92746190Y-95322561D02*
X92776666Y-95353038D01*
X92776666Y-95353038D02*
X92807143Y-95413990D01*
X92807143Y-95413990D02*
X92807143Y-95566371D01*
X92807143Y-95566371D02*
X92776666Y-95627323D01*
X92776666Y-95627323D02*
X92746190Y-95657800D01*
X92746190Y-95657800D02*
X92685238Y-95688276D01*
X92685238Y-95688276D02*
X92532857Y-95688276D01*
X92532857Y-95688276D02*
X92471904Y-95657800D01*
X92471904Y-95657800D02*
X92441428Y-95627323D01*
X101277618Y-103088276D02*
X101277618Y-102448276D01*
X101277618Y-102448276D02*
X101429999Y-102448276D01*
X101429999Y-102448276D02*
X101521428Y-102478752D01*
X101521428Y-102478752D02*
X101582380Y-102539704D01*
X101582380Y-102539704D02*
X101612857Y-102600657D01*
X101612857Y-102600657D02*
X101643333Y-102722561D01*
X101643333Y-102722561D02*
X101643333Y-102813990D01*
X101643333Y-102813990D02*
X101612857Y-102935895D01*
X101612857Y-102935895D02*
X101582380Y-102996847D01*
X101582380Y-102996847D02*
X101521428Y-103057800D01*
X101521428Y-103057800D02*
X101429999Y-103088276D01*
X101429999Y-103088276D02*
X101277618Y-103088276D01*
X101856666Y-102448276D02*
X102252857Y-102448276D01*
X102252857Y-102448276D02*
X102039523Y-102692085D01*
X102039523Y-102692085D02*
X102130952Y-102692085D01*
X102130952Y-102692085D02*
X102191904Y-102722561D01*
X102191904Y-102722561D02*
X102222380Y-102753038D01*
X102222380Y-102753038D02*
X102252857Y-102813990D01*
X102252857Y-102813990D02*
X102252857Y-102966371D01*
X102252857Y-102966371D02*
X102222380Y-103027323D01*
X102222380Y-103027323D02*
X102191904Y-103057800D01*
X102191904Y-103057800D02*
X102130952Y-103088276D01*
X102130952Y-103088276D02*
X101948095Y-103088276D01*
X101948095Y-103088276D02*
X101887142Y-103057800D01*
X101887142Y-103057800D02*
X101856666Y-103027323D01*
X84777618Y-141488276D02*
X84777618Y-140848276D01*
X84777618Y-140848276D02*
X84929999Y-140848276D01*
X84929999Y-140848276D02*
X85021428Y-140878752D01*
X85021428Y-140878752D02*
X85082380Y-140939704D01*
X85082380Y-140939704D02*
X85112857Y-141000657D01*
X85112857Y-141000657D02*
X85143333Y-141122561D01*
X85143333Y-141122561D02*
X85143333Y-141213990D01*
X85143333Y-141213990D02*
X85112857Y-141335895D01*
X85112857Y-141335895D02*
X85082380Y-141396847D01*
X85082380Y-141396847D02*
X85021428Y-141457800D01*
X85021428Y-141457800D02*
X84929999Y-141488276D01*
X84929999Y-141488276D02*
X84777618Y-141488276D01*
X85387142Y-140909228D02*
X85417618Y-140878752D01*
X85417618Y-140878752D02*
X85478571Y-140848276D01*
X85478571Y-140848276D02*
X85630952Y-140848276D01*
X85630952Y-140848276D02*
X85691904Y-140878752D01*
X85691904Y-140878752D02*
X85722380Y-140909228D01*
X85722380Y-140909228D02*
X85752857Y-140970180D01*
X85752857Y-140970180D02*
X85752857Y-141031133D01*
X85752857Y-141031133D02*
X85722380Y-141122561D01*
X85722380Y-141122561D02*
X85356666Y-141488276D01*
X85356666Y-141488276D02*
X85752857Y-141488276D01*
X92927618Y-117295776D02*
X92927618Y-116655776D01*
X92927618Y-116655776D02*
X93079999Y-116655776D01*
X93079999Y-116655776D02*
X93171428Y-116686252D01*
X93171428Y-116686252D02*
X93232380Y-116747204D01*
X93232380Y-116747204D02*
X93262857Y-116808157D01*
X93262857Y-116808157D02*
X93293333Y-116930061D01*
X93293333Y-116930061D02*
X93293333Y-117021490D01*
X93293333Y-117021490D02*
X93262857Y-117143395D01*
X93262857Y-117143395D02*
X93232380Y-117204347D01*
X93232380Y-117204347D02*
X93171428Y-117265300D01*
X93171428Y-117265300D02*
X93079999Y-117295776D01*
X93079999Y-117295776D02*
X92927618Y-117295776D01*
X93902857Y-117295776D02*
X93537142Y-117295776D01*
X93719999Y-117295776D02*
X93719999Y-116655776D01*
X93719999Y-116655776D02*
X93659047Y-116747204D01*
X93659047Y-116747204D02*
X93598095Y-116808157D01*
X93598095Y-116808157D02*
X93537142Y-116838633D01*
X82527618Y-102095776D02*
X82527618Y-101455776D01*
X82527618Y-101455776D02*
X82679999Y-101455776D01*
X82679999Y-101455776D02*
X82771428Y-101486252D01*
X82771428Y-101486252D02*
X82832380Y-101547204D01*
X82832380Y-101547204D02*
X82862857Y-101608157D01*
X82862857Y-101608157D02*
X82893333Y-101730061D01*
X82893333Y-101730061D02*
X82893333Y-101821490D01*
X82893333Y-101821490D02*
X82862857Y-101943395D01*
X82862857Y-101943395D02*
X82832380Y-102004347D01*
X82832380Y-102004347D02*
X82771428Y-102065300D01*
X82771428Y-102065300D02*
X82679999Y-102095776D01*
X82679999Y-102095776D02*
X82527618Y-102095776D01*
X83441904Y-101669109D02*
X83441904Y-102095776D01*
X83289523Y-101425300D02*
X83137142Y-101882442D01*
X83137142Y-101882442D02*
X83533333Y-101882442D01*
X84212380Y-101448276D02*
X84212380Y-101966371D01*
X84212380Y-101966371D02*
X84242857Y-102027323D01*
X84242857Y-102027323D02*
X84273333Y-102057800D01*
X84273333Y-102057800D02*
X84334285Y-102088276D01*
X84334285Y-102088276D02*
X84456190Y-102088276D01*
X84456190Y-102088276D02*
X84517142Y-102057800D01*
X84517142Y-102057800D02*
X84547619Y-102027323D01*
X84547619Y-102027323D02*
X84578095Y-101966371D01*
X84578095Y-101966371D02*
X84578095Y-101448276D01*
X85218095Y-102088276D02*
X84852380Y-102088276D01*
X85035237Y-102088276D02*
X85035237Y-101448276D01*
X85035237Y-101448276D02*
X84974285Y-101539704D01*
X84974285Y-101539704D02*
X84913333Y-101600657D01*
X84913333Y-101600657D02*
X84852380Y-101631133D01*
X101586667Y-87198276D02*
X101586667Y-87655419D01*
X101586667Y-87655419D02*
X101556190Y-87746847D01*
X101556190Y-87746847D02*
X101495238Y-87807800D01*
X101495238Y-87807800D02*
X101403809Y-87838276D01*
X101403809Y-87838276D02*
X101342857Y-87838276D01*
X101830476Y-87198276D02*
X102226667Y-87198276D01*
X102226667Y-87198276D02*
X102013333Y-87442085D01*
X102013333Y-87442085D02*
X102104762Y-87442085D01*
X102104762Y-87442085D02*
X102165714Y-87472561D01*
X102165714Y-87472561D02*
X102196190Y-87503038D01*
X102196190Y-87503038D02*
X102226667Y-87563990D01*
X102226667Y-87563990D02*
X102226667Y-87716371D01*
X102226667Y-87716371D02*
X102196190Y-87777323D01*
X102196190Y-87777323D02*
X102165714Y-87807800D01*
X102165714Y-87807800D02*
X102104762Y-87838276D01*
X102104762Y-87838276D02*
X101921905Y-87838276D01*
X101921905Y-87838276D02*
X101860952Y-87807800D01*
X101860952Y-87807800D02*
X101830476Y-87777323D01*
X82336667Y-87598276D02*
X82336667Y-88055419D01*
X82336667Y-88055419D02*
X82306190Y-88146847D01*
X82306190Y-88146847D02*
X82245238Y-88207800D01*
X82245238Y-88207800D02*
X82153809Y-88238276D01*
X82153809Y-88238276D02*
X82092857Y-88238276D01*
X82915714Y-87811609D02*
X82915714Y-88238276D01*
X82763333Y-87567800D02*
X82610952Y-88024942D01*
X82610952Y-88024942D02*
X83007143Y-88024942D01*
X101588571Y-90677323D02*
X101558095Y-90707800D01*
X101558095Y-90707800D02*
X101466666Y-90738276D01*
X101466666Y-90738276D02*
X101405714Y-90738276D01*
X101405714Y-90738276D02*
X101314285Y-90707800D01*
X101314285Y-90707800D02*
X101253333Y-90646847D01*
X101253333Y-90646847D02*
X101222856Y-90585895D01*
X101222856Y-90585895D02*
X101192380Y-90463990D01*
X101192380Y-90463990D02*
X101192380Y-90372561D01*
X101192380Y-90372561D02*
X101222856Y-90250657D01*
X101222856Y-90250657D02*
X101253333Y-90189704D01*
X101253333Y-90189704D02*
X101314285Y-90128752D01*
X101314285Y-90128752D02*
X101405714Y-90098276D01*
X101405714Y-90098276D02*
X101466666Y-90098276D01*
X101466666Y-90098276D02*
X101558095Y-90128752D01*
X101558095Y-90128752D02*
X101588571Y-90159228D01*
X102137142Y-90311609D02*
X102137142Y-90738276D01*
X101984761Y-90067800D02*
X101832380Y-90524942D01*
X101832380Y-90524942D02*
X102228571Y-90524942D01*
X102502857Y-90738276D02*
X102624761Y-90738276D01*
X102624761Y-90738276D02*
X102685714Y-90707800D01*
X102685714Y-90707800D02*
X102716190Y-90677323D01*
X102716190Y-90677323D02*
X102777142Y-90585895D01*
X102777142Y-90585895D02*
X102807619Y-90463990D01*
X102807619Y-90463990D02*
X102807619Y-90220180D01*
X102807619Y-90220180D02*
X102777142Y-90159228D01*
X102777142Y-90159228D02*
X102746666Y-90128752D01*
X102746666Y-90128752D02*
X102685714Y-90098276D01*
X102685714Y-90098276D02*
X102563809Y-90098276D01*
X102563809Y-90098276D02*
X102502857Y-90128752D01*
X102502857Y-90128752D02*
X102472380Y-90159228D01*
X102472380Y-90159228D02*
X102441904Y-90220180D01*
X102441904Y-90220180D02*
X102441904Y-90372561D01*
X102441904Y-90372561D02*
X102472380Y-90433514D01*
X102472380Y-90433514D02*
X102502857Y-90463990D01*
X102502857Y-90463990D02*
X102563809Y-90494466D01*
X102563809Y-90494466D02*
X102685714Y-90494466D01*
X102685714Y-90494466D02*
X102746666Y-90463990D01*
X102746666Y-90463990D02*
X102777142Y-90433514D01*
X102777142Y-90433514D02*
X102807619Y-90372561D01*
X82188276Y-151418928D02*
X81883514Y-151632262D01*
X82188276Y-151784643D02*
X81548276Y-151784643D01*
X81548276Y-151784643D02*
X81548276Y-151540833D01*
X81548276Y-151540833D02*
X81578752Y-151479881D01*
X81578752Y-151479881D02*
X81609228Y-151449404D01*
X81609228Y-151449404D02*
X81670180Y-151418928D01*
X81670180Y-151418928D02*
X81761609Y-151418928D01*
X81761609Y-151418928D02*
X81822561Y-151449404D01*
X81822561Y-151449404D02*
X81853038Y-151479881D01*
X81853038Y-151479881D02*
X81883514Y-151540833D01*
X81883514Y-151540833D02*
X81883514Y-151784643D01*
X81761609Y-150870357D02*
X82188276Y-150870357D01*
X81517800Y-151022738D02*
X81974942Y-151175119D01*
X81974942Y-151175119D02*
X81974942Y-150778928D01*
X82188276Y-150504642D02*
X82188276Y-150382738D01*
X82188276Y-150382738D02*
X82157800Y-150321785D01*
X82157800Y-150321785D02*
X82127323Y-150291309D01*
X82127323Y-150291309D02*
X82035895Y-150230357D01*
X82035895Y-150230357D02*
X81913990Y-150199880D01*
X81913990Y-150199880D02*
X81670180Y-150199880D01*
X81670180Y-150199880D02*
X81609228Y-150230357D01*
X81609228Y-150230357D02*
X81578752Y-150260833D01*
X81578752Y-150260833D02*
X81548276Y-150321785D01*
X81548276Y-150321785D02*
X81548276Y-150443690D01*
X81548276Y-150443690D02*
X81578752Y-150504642D01*
X81578752Y-150504642D02*
X81609228Y-150535119D01*
X81609228Y-150535119D02*
X81670180Y-150565595D01*
X81670180Y-150565595D02*
X81822561Y-150565595D01*
X81822561Y-150565595D02*
X81883514Y-150535119D01*
X81883514Y-150535119D02*
X81913990Y-150504642D01*
X81913990Y-150504642D02*
X81944466Y-150443690D01*
X81944466Y-150443690D02*
X81944466Y-150321785D01*
X81944466Y-150321785D02*
X81913990Y-150260833D01*
X81913990Y-150260833D02*
X81883514Y-150230357D01*
X81883514Y-150230357D02*
X81822561Y-150199880D01*
X91388276Y-128418928D02*
X91083514Y-128632262D01*
X91388276Y-128784643D02*
X90748276Y-128784643D01*
X90748276Y-128784643D02*
X90748276Y-128540833D01*
X90748276Y-128540833D02*
X90778752Y-128479881D01*
X90778752Y-128479881D02*
X90809228Y-128449404D01*
X90809228Y-128449404D02*
X90870180Y-128418928D01*
X90870180Y-128418928D02*
X90961609Y-128418928D01*
X90961609Y-128418928D02*
X91022561Y-128449404D01*
X91022561Y-128449404D02*
X91053038Y-128479881D01*
X91053038Y-128479881D02*
X91083514Y-128540833D01*
X91083514Y-128540833D02*
X91083514Y-128784643D01*
X91388276Y-127809404D02*
X91388276Y-128175119D01*
X91388276Y-127992262D02*
X90748276Y-127992262D01*
X90748276Y-127992262D02*
X90839704Y-128053214D01*
X90839704Y-128053214D02*
X90900657Y-128114166D01*
X90900657Y-128114166D02*
X90931133Y-128175119D01*
X90748276Y-127413214D02*
X90748276Y-127352261D01*
X90748276Y-127352261D02*
X90778752Y-127291309D01*
X90778752Y-127291309D02*
X90809228Y-127260833D01*
X90809228Y-127260833D02*
X90870180Y-127230357D01*
X90870180Y-127230357D02*
X90992085Y-127199880D01*
X90992085Y-127199880D02*
X91144466Y-127199880D01*
X91144466Y-127199880D02*
X91266371Y-127230357D01*
X91266371Y-127230357D02*
X91327323Y-127260833D01*
X91327323Y-127260833D02*
X91357800Y-127291309D01*
X91357800Y-127291309D02*
X91388276Y-127352261D01*
X91388276Y-127352261D02*
X91388276Y-127413214D01*
X91388276Y-127413214D02*
X91357800Y-127474166D01*
X91357800Y-127474166D02*
X91327323Y-127504642D01*
X91327323Y-127504642D02*
X91266371Y-127535119D01*
X91266371Y-127535119D02*
X91144466Y-127565595D01*
X91144466Y-127565595D02*
X90992085Y-127565595D01*
X90992085Y-127565595D02*
X90870180Y-127535119D01*
X90870180Y-127535119D02*
X90809228Y-127504642D01*
X90809228Y-127504642D02*
X90778752Y-127474166D01*
X90778752Y-127474166D02*
X90748276Y-127413214D01*
X102688276Y-160118928D02*
X102383514Y-160332262D01*
X102688276Y-160484643D02*
X102048276Y-160484643D01*
X102048276Y-160484643D02*
X102048276Y-160240833D01*
X102048276Y-160240833D02*
X102078752Y-160179881D01*
X102078752Y-160179881D02*
X102109228Y-160149404D01*
X102109228Y-160149404D02*
X102170180Y-160118928D01*
X102170180Y-160118928D02*
X102261609Y-160118928D01*
X102261609Y-160118928D02*
X102322561Y-160149404D01*
X102322561Y-160149404D02*
X102353038Y-160179881D01*
X102353038Y-160179881D02*
X102383514Y-160240833D01*
X102383514Y-160240833D02*
X102383514Y-160484643D01*
X102048276Y-159570357D02*
X102048276Y-159692262D01*
X102048276Y-159692262D02*
X102078752Y-159753214D01*
X102078752Y-159753214D02*
X102109228Y-159783690D01*
X102109228Y-159783690D02*
X102200657Y-159844643D01*
X102200657Y-159844643D02*
X102322561Y-159875119D01*
X102322561Y-159875119D02*
X102566371Y-159875119D01*
X102566371Y-159875119D02*
X102627323Y-159844643D01*
X102627323Y-159844643D02*
X102657800Y-159814166D01*
X102657800Y-159814166D02*
X102688276Y-159753214D01*
X102688276Y-159753214D02*
X102688276Y-159631309D01*
X102688276Y-159631309D02*
X102657800Y-159570357D01*
X102657800Y-159570357D02*
X102627323Y-159539881D01*
X102627323Y-159539881D02*
X102566371Y-159509404D01*
X102566371Y-159509404D02*
X102413990Y-159509404D01*
X102413990Y-159509404D02*
X102353038Y-159539881D01*
X102353038Y-159539881D02*
X102322561Y-159570357D01*
X102322561Y-159570357D02*
X102292085Y-159631309D01*
X102292085Y-159631309D02*
X102292085Y-159753214D01*
X102292085Y-159753214D02*
X102322561Y-159814166D01*
X102322561Y-159814166D02*
X102353038Y-159844643D01*
X102353038Y-159844643D02*
X102413990Y-159875119D01*
X102688276Y-159204642D02*
X102688276Y-159082738D01*
X102688276Y-159082738D02*
X102657800Y-159021785D01*
X102657800Y-159021785D02*
X102627323Y-158991309D01*
X102627323Y-158991309D02*
X102535895Y-158930357D01*
X102535895Y-158930357D02*
X102413990Y-158899880D01*
X102413990Y-158899880D02*
X102170180Y-158899880D01*
X102170180Y-158899880D02*
X102109228Y-158930357D01*
X102109228Y-158930357D02*
X102078752Y-158960833D01*
X102078752Y-158960833D02*
X102048276Y-159021785D01*
X102048276Y-159021785D02*
X102048276Y-159143690D01*
X102048276Y-159143690D02*
X102078752Y-159204642D01*
X102078752Y-159204642D02*
X102109228Y-159235119D01*
X102109228Y-159235119D02*
X102170180Y-159265595D01*
X102170180Y-159265595D02*
X102322561Y-159265595D01*
X102322561Y-159265595D02*
X102383514Y-159235119D01*
X102383514Y-159235119D02*
X102413990Y-159204642D01*
X102413990Y-159204642D02*
X102444466Y-159143690D01*
X102444466Y-159143690D02*
X102444466Y-159021785D01*
X102444466Y-159021785D02*
X102413990Y-158960833D01*
X102413990Y-158960833D02*
X102383514Y-158930357D01*
X102383514Y-158930357D02*
X102322561Y-158899880D01*
X101427323Y-132918928D02*
X101457800Y-132949404D01*
X101457800Y-132949404D02*
X101488276Y-133040833D01*
X101488276Y-133040833D02*
X101488276Y-133101785D01*
X101488276Y-133101785D02*
X101457800Y-133193214D01*
X101457800Y-133193214D02*
X101396847Y-133254166D01*
X101396847Y-133254166D02*
X101335895Y-133284643D01*
X101335895Y-133284643D02*
X101213990Y-133315119D01*
X101213990Y-133315119D02*
X101122561Y-133315119D01*
X101122561Y-133315119D02*
X101000657Y-133284643D01*
X101000657Y-133284643D02*
X100939704Y-133254166D01*
X100939704Y-133254166D02*
X100878752Y-133193214D01*
X100878752Y-133193214D02*
X100848276Y-133101785D01*
X100848276Y-133101785D02*
X100848276Y-133040833D01*
X100848276Y-133040833D02*
X100878752Y-132949404D01*
X100878752Y-132949404D02*
X100909228Y-132918928D01*
X100848276Y-132705595D02*
X100848276Y-132309404D01*
X100848276Y-132309404D02*
X101092085Y-132522738D01*
X101092085Y-132522738D02*
X101092085Y-132431309D01*
X101092085Y-132431309D02*
X101122561Y-132370357D01*
X101122561Y-132370357D02*
X101153038Y-132339881D01*
X101153038Y-132339881D02*
X101213990Y-132309404D01*
X101213990Y-132309404D02*
X101366371Y-132309404D01*
X101366371Y-132309404D02*
X101427323Y-132339881D01*
X101427323Y-132339881D02*
X101457800Y-132370357D01*
X101457800Y-132370357D02*
X101488276Y-132431309D01*
X101488276Y-132431309D02*
X101488276Y-132614166D01*
X101488276Y-132614166D02*
X101457800Y-132675119D01*
X101457800Y-132675119D02*
X101427323Y-132705595D01*
X100848276Y-132096071D02*
X100848276Y-131669404D01*
X100848276Y-131669404D02*
X101488276Y-131943690D01*
X82877323Y-91311428D02*
X82907800Y-91341904D01*
X82907800Y-91341904D02*
X82938276Y-91433333D01*
X82938276Y-91433333D02*
X82938276Y-91494285D01*
X82938276Y-91494285D02*
X82907800Y-91585714D01*
X82907800Y-91585714D02*
X82846847Y-91646666D01*
X82846847Y-91646666D02*
X82785895Y-91677143D01*
X82785895Y-91677143D02*
X82663990Y-91707619D01*
X82663990Y-91707619D02*
X82572561Y-91707619D01*
X82572561Y-91707619D02*
X82450657Y-91677143D01*
X82450657Y-91677143D02*
X82389704Y-91646666D01*
X82389704Y-91646666D02*
X82328752Y-91585714D01*
X82328752Y-91585714D02*
X82298276Y-91494285D01*
X82298276Y-91494285D02*
X82298276Y-91433333D01*
X82298276Y-91433333D02*
X82328752Y-91341904D01*
X82328752Y-91341904D02*
X82359228Y-91311428D01*
X82298276Y-90732381D02*
X82298276Y-91037143D01*
X82298276Y-91037143D02*
X82603038Y-91067619D01*
X82603038Y-91067619D02*
X82572561Y-91037143D01*
X82572561Y-91037143D02*
X82542085Y-90976190D01*
X82542085Y-90976190D02*
X82542085Y-90823809D01*
X82542085Y-90823809D02*
X82572561Y-90762857D01*
X82572561Y-90762857D02*
X82603038Y-90732381D01*
X82603038Y-90732381D02*
X82663990Y-90701904D01*
X82663990Y-90701904D02*
X82816371Y-90701904D01*
X82816371Y-90701904D02*
X82877323Y-90732381D01*
X82877323Y-90732381D02*
X82907800Y-90762857D01*
X82907800Y-90762857D02*
X82938276Y-90823809D01*
X82938276Y-90823809D02*
X82938276Y-90976190D01*
X82938276Y-90976190D02*
X82907800Y-91037143D01*
X82907800Y-91037143D02*
X82877323Y-91067619D01*
X82298276Y-90488571D02*
X82298276Y-90061904D01*
X82298276Y-90061904D02*
X82938276Y-90336190D01*
X91836667Y-162248276D02*
X91836667Y-162705419D01*
X91836667Y-162705419D02*
X91806190Y-162796847D01*
X91806190Y-162796847D02*
X91745238Y-162857800D01*
X91745238Y-162857800D02*
X91653809Y-162888276D01*
X91653809Y-162888276D02*
X91592857Y-162888276D01*
X92476667Y-162888276D02*
X92110952Y-162888276D01*
X92293809Y-162888276D02*
X92293809Y-162248276D01*
X92293809Y-162248276D02*
X92232857Y-162339704D01*
X92232857Y-162339704D02*
X92171905Y-162400657D01*
X92171905Y-162400657D02*
X92110952Y-162431133D01*
X81888276Y-93418928D02*
X81583514Y-93632262D01*
X81888276Y-93784643D02*
X81248276Y-93784643D01*
X81248276Y-93784643D02*
X81248276Y-93540833D01*
X81248276Y-93540833D02*
X81278752Y-93479881D01*
X81278752Y-93479881D02*
X81309228Y-93449404D01*
X81309228Y-93449404D02*
X81370180Y-93418928D01*
X81370180Y-93418928D02*
X81461609Y-93418928D01*
X81461609Y-93418928D02*
X81522561Y-93449404D01*
X81522561Y-93449404D02*
X81553038Y-93479881D01*
X81553038Y-93479881D02*
X81583514Y-93540833D01*
X81583514Y-93540833D02*
X81583514Y-93784643D01*
X81461609Y-92870357D02*
X81888276Y-92870357D01*
X81217800Y-93022738D02*
X81674942Y-93175119D01*
X81674942Y-93175119D02*
X81674942Y-92778928D01*
X81888276Y-92199880D02*
X81888276Y-92565595D01*
X81888276Y-92382738D02*
X81248276Y-92382738D01*
X81248276Y-92382738D02*
X81339704Y-92443690D01*
X81339704Y-92443690D02*
X81400657Y-92504642D01*
X81400657Y-92504642D02*
X81431133Y-92565595D01*
X97488571Y-136962323D02*
X97458095Y-136992800D01*
X97458095Y-136992800D02*
X97366666Y-137023276D01*
X97366666Y-137023276D02*
X97305714Y-137023276D01*
X97305714Y-137023276D02*
X97214285Y-136992800D01*
X97214285Y-136992800D02*
X97153333Y-136931847D01*
X97153333Y-136931847D02*
X97122856Y-136870895D01*
X97122856Y-136870895D02*
X97092380Y-136748990D01*
X97092380Y-136748990D02*
X97092380Y-136657561D01*
X97092380Y-136657561D02*
X97122856Y-136535657D01*
X97122856Y-136535657D02*
X97153333Y-136474704D01*
X97153333Y-136474704D02*
X97214285Y-136413752D01*
X97214285Y-136413752D02*
X97305714Y-136383276D01*
X97305714Y-136383276D02*
X97366666Y-136383276D01*
X97366666Y-136383276D02*
X97458095Y-136413752D01*
X97458095Y-136413752D02*
X97488571Y-136444228D01*
X97701904Y-136383276D02*
X98098095Y-136383276D01*
X98098095Y-136383276D02*
X97884761Y-136627085D01*
X97884761Y-136627085D02*
X97976190Y-136627085D01*
X97976190Y-136627085D02*
X98037142Y-136657561D01*
X98037142Y-136657561D02*
X98067618Y-136688038D01*
X98067618Y-136688038D02*
X98098095Y-136748990D01*
X98098095Y-136748990D02*
X98098095Y-136901371D01*
X98098095Y-136901371D02*
X98067618Y-136962323D01*
X98067618Y-136962323D02*
X98037142Y-136992800D01*
X98037142Y-136992800D02*
X97976190Y-137023276D01*
X97976190Y-137023276D02*
X97793333Y-137023276D01*
X97793333Y-137023276D02*
X97732380Y-136992800D01*
X97732380Y-136992800D02*
X97701904Y-136962323D01*
X98707619Y-137023276D02*
X98341904Y-137023276D01*
X98524761Y-137023276D02*
X98524761Y-136383276D01*
X98524761Y-136383276D02*
X98463809Y-136474704D01*
X98463809Y-136474704D02*
X98402857Y-136535657D01*
X98402857Y-136535657D02*
X98341904Y-136566133D01*
X98638571Y-127627323D02*
X98608095Y-127657800D01*
X98608095Y-127657800D02*
X98516666Y-127688276D01*
X98516666Y-127688276D02*
X98455714Y-127688276D01*
X98455714Y-127688276D02*
X98364285Y-127657800D01*
X98364285Y-127657800D02*
X98303333Y-127596847D01*
X98303333Y-127596847D02*
X98272856Y-127535895D01*
X98272856Y-127535895D02*
X98242380Y-127413990D01*
X98242380Y-127413990D02*
X98242380Y-127322561D01*
X98242380Y-127322561D02*
X98272856Y-127200657D01*
X98272856Y-127200657D02*
X98303333Y-127139704D01*
X98303333Y-127139704D02*
X98364285Y-127078752D01*
X98364285Y-127078752D02*
X98455714Y-127048276D01*
X98455714Y-127048276D02*
X98516666Y-127048276D01*
X98516666Y-127048276D02*
X98608095Y-127078752D01*
X98608095Y-127078752D02*
X98638571Y-127109228D01*
X98882380Y-127109228D02*
X98912856Y-127078752D01*
X98912856Y-127078752D02*
X98973809Y-127048276D01*
X98973809Y-127048276D02*
X99126190Y-127048276D01*
X99126190Y-127048276D02*
X99187142Y-127078752D01*
X99187142Y-127078752D02*
X99217618Y-127109228D01*
X99217618Y-127109228D02*
X99248095Y-127170180D01*
X99248095Y-127170180D02*
X99248095Y-127231133D01*
X99248095Y-127231133D02*
X99217618Y-127322561D01*
X99217618Y-127322561D02*
X98851904Y-127688276D01*
X98851904Y-127688276D02*
X99248095Y-127688276D01*
X99827142Y-127048276D02*
X99522380Y-127048276D01*
X99522380Y-127048276D02*
X99491904Y-127353038D01*
X99491904Y-127353038D02*
X99522380Y-127322561D01*
X99522380Y-127322561D02*
X99583333Y-127292085D01*
X99583333Y-127292085D02*
X99735714Y-127292085D01*
X99735714Y-127292085D02*
X99796666Y-127322561D01*
X99796666Y-127322561D02*
X99827142Y-127353038D01*
X99827142Y-127353038D02*
X99857619Y-127413990D01*
X99857619Y-127413990D02*
X99857619Y-127566371D01*
X99857619Y-127566371D02*
X99827142Y-127627323D01*
X99827142Y-127627323D02*
X99796666Y-127657800D01*
X99796666Y-127657800D02*
X99735714Y-127688276D01*
X99735714Y-127688276D02*
X99583333Y-127688276D01*
X99583333Y-127688276D02*
X99522380Y-127657800D01*
X99522380Y-127657800D02*
X99491904Y-127627323D01*
X99266667Y-135560538D02*
X99053333Y-135560538D01*
X99053333Y-135895776D02*
X99053333Y-135255776D01*
X99053333Y-135255776D02*
X99358095Y-135255776D01*
X99815238Y-135560538D02*
X99906666Y-135591014D01*
X99906666Y-135591014D02*
X99937143Y-135621490D01*
X99937143Y-135621490D02*
X99967619Y-135682442D01*
X99967619Y-135682442D02*
X99967619Y-135773871D01*
X99967619Y-135773871D02*
X99937143Y-135834823D01*
X99937143Y-135834823D02*
X99906666Y-135865300D01*
X99906666Y-135865300D02*
X99845714Y-135895776D01*
X99845714Y-135895776D02*
X99601904Y-135895776D01*
X99601904Y-135895776D02*
X99601904Y-135255776D01*
X99601904Y-135255776D02*
X99815238Y-135255776D01*
X99815238Y-135255776D02*
X99876190Y-135286252D01*
X99876190Y-135286252D02*
X99906666Y-135316728D01*
X99906666Y-135316728D02*
X99937143Y-135377680D01*
X99937143Y-135377680D02*
X99937143Y-135438633D01*
X99937143Y-135438633D02*
X99906666Y-135499585D01*
X99906666Y-135499585D02*
X99876190Y-135530061D01*
X99876190Y-135530061D02*
X99815238Y-135560538D01*
X99815238Y-135560538D02*
X99601904Y-135560538D01*
X100546666Y-135255776D02*
X100241904Y-135255776D01*
X100241904Y-135255776D02*
X100211428Y-135560538D01*
X100211428Y-135560538D02*
X100241904Y-135530061D01*
X100241904Y-135530061D02*
X100302857Y-135499585D01*
X100302857Y-135499585D02*
X100455238Y-135499585D01*
X100455238Y-135499585D02*
X100516190Y-135530061D01*
X100516190Y-135530061D02*
X100546666Y-135560538D01*
X100546666Y-135560538D02*
X100577143Y-135621490D01*
X100577143Y-135621490D02*
X100577143Y-135773871D01*
X100577143Y-135773871D02*
X100546666Y-135834823D01*
X100546666Y-135834823D02*
X100516190Y-135865300D01*
X100516190Y-135865300D02*
X100455238Y-135895776D01*
X100455238Y-135895776D02*
X100302857Y-135895776D01*
X100302857Y-135895776D02*
X100241904Y-135865300D01*
X100241904Y-135865300D02*
X100211428Y-135834823D01*
X89327323Y-98011428D02*
X89357800Y-98041904D01*
X89357800Y-98041904D02*
X89388276Y-98133333D01*
X89388276Y-98133333D02*
X89388276Y-98194285D01*
X89388276Y-98194285D02*
X89357800Y-98285714D01*
X89357800Y-98285714D02*
X89296847Y-98346666D01*
X89296847Y-98346666D02*
X89235895Y-98377143D01*
X89235895Y-98377143D02*
X89113990Y-98407619D01*
X89113990Y-98407619D02*
X89022561Y-98407619D01*
X89022561Y-98407619D02*
X88900657Y-98377143D01*
X88900657Y-98377143D02*
X88839704Y-98346666D01*
X88839704Y-98346666D02*
X88778752Y-98285714D01*
X88778752Y-98285714D02*
X88748276Y-98194285D01*
X88748276Y-98194285D02*
X88748276Y-98133333D01*
X88748276Y-98133333D02*
X88778752Y-98041904D01*
X88778752Y-98041904D02*
X88809228Y-98011428D01*
X88748276Y-97798095D02*
X88748276Y-97371428D01*
X88748276Y-97371428D02*
X89388276Y-97645714D01*
X88748276Y-97188571D02*
X88748276Y-96761904D01*
X88748276Y-96761904D02*
X89388276Y-97036190D01*
X93016667Y-101903038D02*
X92803333Y-101903038D01*
X92803333Y-102238276D02*
X92803333Y-101598276D01*
X92803333Y-101598276D02*
X93108095Y-101598276D01*
X93565238Y-101903038D02*
X93656666Y-101933514D01*
X93656666Y-101933514D02*
X93687143Y-101963990D01*
X93687143Y-101963990D02*
X93717619Y-102024942D01*
X93717619Y-102024942D02*
X93717619Y-102116371D01*
X93717619Y-102116371D02*
X93687143Y-102177323D01*
X93687143Y-102177323D02*
X93656666Y-102207800D01*
X93656666Y-102207800D02*
X93595714Y-102238276D01*
X93595714Y-102238276D02*
X93351904Y-102238276D01*
X93351904Y-102238276D02*
X93351904Y-101598276D01*
X93351904Y-101598276D02*
X93565238Y-101598276D01*
X93565238Y-101598276D02*
X93626190Y-101628752D01*
X93626190Y-101628752D02*
X93656666Y-101659228D01*
X93656666Y-101659228D02*
X93687143Y-101720180D01*
X93687143Y-101720180D02*
X93687143Y-101781133D01*
X93687143Y-101781133D02*
X93656666Y-101842085D01*
X93656666Y-101842085D02*
X93626190Y-101872561D01*
X93626190Y-101872561D02*
X93565238Y-101903038D01*
X93565238Y-101903038D02*
X93351904Y-101903038D01*
X94266190Y-101598276D02*
X94144285Y-101598276D01*
X94144285Y-101598276D02*
X94083333Y-101628752D01*
X94083333Y-101628752D02*
X94052857Y-101659228D01*
X94052857Y-101659228D02*
X93991904Y-101750657D01*
X93991904Y-101750657D02*
X93961428Y-101872561D01*
X93961428Y-101872561D02*
X93961428Y-102116371D01*
X93961428Y-102116371D02*
X93991904Y-102177323D01*
X93991904Y-102177323D02*
X94022381Y-102207800D01*
X94022381Y-102207800D02*
X94083333Y-102238276D01*
X94083333Y-102238276D02*
X94205238Y-102238276D01*
X94205238Y-102238276D02*
X94266190Y-102207800D01*
X94266190Y-102207800D02*
X94296666Y-102177323D01*
X94296666Y-102177323D02*
X94327143Y-102116371D01*
X94327143Y-102116371D02*
X94327143Y-101963990D01*
X94327143Y-101963990D02*
X94296666Y-101903038D01*
X94296666Y-101903038D02*
X94266190Y-101872561D01*
X94266190Y-101872561D02*
X94205238Y-101842085D01*
X94205238Y-101842085D02*
X94083333Y-101842085D01*
X94083333Y-101842085D02*
X94022381Y-101872561D01*
X94022381Y-101872561D02*
X93991904Y-101903038D01*
X93991904Y-101903038D02*
X93961428Y-101963990D01*
X83127323Y-97211428D02*
X83157800Y-97241904D01*
X83157800Y-97241904D02*
X83188276Y-97333333D01*
X83188276Y-97333333D02*
X83188276Y-97394285D01*
X83188276Y-97394285D02*
X83157800Y-97485714D01*
X83157800Y-97485714D02*
X83096847Y-97546666D01*
X83096847Y-97546666D02*
X83035895Y-97577143D01*
X83035895Y-97577143D02*
X82913990Y-97607619D01*
X82913990Y-97607619D02*
X82822561Y-97607619D01*
X82822561Y-97607619D02*
X82700657Y-97577143D01*
X82700657Y-97577143D02*
X82639704Y-97546666D01*
X82639704Y-97546666D02*
X82578752Y-97485714D01*
X82578752Y-97485714D02*
X82548276Y-97394285D01*
X82548276Y-97394285D02*
X82548276Y-97333333D01*
X82548276Y-97333333D02*
X82578752Y-97241904D01*
X82578752Y-97241904D02*
X82609228Y-97211428D01*
X82548276Y-96998095D02*
X82548276Y-96571428D01*
X82548276Y-96571428D02*
X83188276Y-96845714D01*
X82822561Y-96236190D02*
X82792085Y-96297142D01*
X82792085Y-96297142D02*
X82761609Y-96327619D01*
X82761609Y-96327619D02*
X82700657Y-96358095D01*
X82700657Y-96358095D02*
X82670180Y-96358095D01*
X82670180Y-96358095D02*
X82609228Y-96327619D01*
X82609228Y-96327619D02*
X82578752Y-96297142D01*
X82578752Y-96297142D02*
X82548276Y-96236190D01*
X82548276Y-96236190D02*
X82548276Y-96114285D01*
X82548276Y-96114285D02*
X82578752Y-96053333D01*
X82578752Y-96053333D02*
X82609228Y-96022857D01*
X82609228Y-96022857D02*
X82670180Y-95992380D01*
X82670180Y-95992380D02*
X82700657Y-95992380D01*
X82700657Y-95992380D02*
X82761609Y-96022857D01*
X82761609Y-96022857D02*
X82792085Y-96053333D01*
X82792085Y-96053333D02*
X82822561Y-96114285D01*
X82822561Y-96114285D02*
X82822561Y-96236190D01*
X82822561Y-96236190D02*
X82853038Y-96297142D01*
X82853038Y-96297142D02*
X82883514Y-96327619D01*
X82883514Y-96327619D02*
X82944466Y-96358095D01*
X82944466Y-96358095D02*
X83066371Y-96358095D01*
X83066371Y-96358095D02*
X83127323Y-96327619D01*
X83127323Y-96327619D02*
X83157800Y-96297142D01*
X83157800Y-96297142D02*
X83188276Y-96236190D01*
X83188276Y-96236190D02*
X83188276Y-96114285D01*
X83188276Y-96114285D02*
X83157800Y-96053333D01*
X83157800Y-96053333D02*
X83127323Y-96022857D01*
X83127323Y-96022857D02*
X83066371Y-95992380D01*
X83066371Y-95992380D02*
X82944466Y-95992380D01*
X82944466Y-95992380D02*
X82883514Y-96022857D01*
X82883514Y-96022857D02*
X82853038Y-96053333D01*
X82853038Y-96053333D02*
X82822561Y-96114285D01*
X86266667Y-101860538D02*
X86053333Y-101860538D01*
X86053333Y-102195776D02*
X86053333Y-101555776D01*
X86053333Y-101555776D02*
X86358095Y-101555776D01*
X86815238Y-101860538D02*
X86906666Y-101891014D01*
X86906666Y-101891014D02*
X86937143Y-101921490D01*
X86937143Y-101921490D02*
X86967619Y-101982442D01*
X86967619Y-101982442D02*
X86967619Y-102073871D01*
X86967619Y-102073871D02*
X86937143Y-102134823D01*
X86937143Y-102134823D02*
X86906666Y-102165300D01*
X86906666Y-102165300D02*
X86845714Y-102195776D01*
X86845714Y-102195776D02*
X86601904Y-102195776D01*
X86601904Y-102195776D02*
X86601904Y-101555776D01*
X86601904Y-101555776D02*
X86815238Y-101555776D01*
X86815238Y-101555776D02*
X86876190Y-101586252D01*
X86876190Y-101586252D02*
X86906666Y-101616728D01*
X86906666Y-101616728D02*
X86937143Y-101677680D01*
X86937143Y-101677680D02*
X86937143Y-101738633D01*
X86937143Y-101738633D02*
X86906666Y-101799585D01*
X86906666Y-101799585D02*
X86876190Y-101830061D01*
X86876190Y-101830061D02*
X86815238Y-101860538D01*
X86815238Y-101860538D02*
X86601904Y-101860538D01*
X87333333Y-101830061D02*
X87272381Y-101799585D01*
X87272381Y-101799585D02*
X87241904Y-101769109D01*
X87241904Y-101769109D02*
X87211428Y-101708157D01*
X87211428Y-101708157D02*
X87211428Y-101677680D01*
X87211428Y-101677680D02*
X87241904Y-101616728D01*
X87241904Y-101616728D02*
X87272381Y-101586252D01*
X87272381Y-101586252D02*
X87333333Y-101555776D01*
X87333333Y-101555776D02*
X87455238Y-101555776D01*
X87455238Y-101555776D02*
X87516190Y-101586252D01*
X87516190Y-101586252D02*
X87546666Y-101616728D01*
X87546666Y-101616728D02*
X87577143Y-101677680D01*
X87577143Y-101677680D02*
X87577143Y-101708157D01*
X87577143Y-101708157D02*
X87546666Y-101769109D01*
X87546666Y-101769109D02*
X87516190Y-101799585D01*
X87516190Y-101799585D02*
X87455238Y-101830061D01*
X87455238Y-101830061D02*
X87333333Y-101830061D01*
X87333333Y-101830061D02*
X87272381Y-101860538D01*
X87272381Y-101860538D02*
X87241904Y-101891014D01*
X87241904Y-101891014D02*
X87211428Y-101951966D01*
X87211428Y-101951966D02*
X87211428Y-102073871D01*
X87211428Y-102073871D02*
X87241904Y-102134823D01*
X87241904Y-102134823D02*
X87272381Y-102165300D01*
X87272381Y-102165300D02*
X87333333Y-102195776D01*
X87333333Y-102195776D02*
X87455238Y-102195776D01*
X87455238Y-102195776D02*
X87516190Y-102165300D01*
X87516190Y-102165300D02*
X87546666Y-102134823D01*
X87546666Y-102134823D02*
X87577143Y-102073871D01*
X87577143Y-102073871D02*
X87577143Y-101951966D01*
X87577143Y-101951966D02*
X87546666Y-101891014D01*
X87546666Y-101891014D02*
X87516190Y-101860538D01*
X87516190Y-101860538D02*
X87455238Y-101830061D01*
X100390776Y-100311428D02*
X100086014Y-100524762D01*
X100390776Y-100677143D02*
X99750776Y-100677143D01*
X99750776Y-100677143D02*
X99750776Y-100433333D01*
X99750776Y-100433333D02*
X99781252Y-100372381D01*
X99781252Y-100372381D02*
X99811728Y-100341904D01*
X99811728Y-100341904D02*
X99872680Y-100311428D01*
X99872680Y-100311428D02*
X99964109Y-100311428D01*
X99964109Y-100311428D02*
X100025061Y-100341904D01*
X100025061Y-100341904D02*
X100055538Y-100372381D01*
X100055538Y-100372381D02*
X100086014Y-100433333D01*
X100086014Y-100433333D02*
X100086014Y-100677143D01*
X99964109Y-99762857D02*
X100390776Y-99762857D01*
X99720300Y-99915238D02*
X100177442Y-100067619D01*
X100177442Y-100067619D02*
X100177442Y-99671428D01*
X99750776Y-99305714D02*
X99750776Y-99244761D01*
X99750776Y-99244761D02*
X99781252Y-99183809D01*
X99781252Y-99183809D02*
X99811728Y-99153333D01*
X99811728Y-99153333D02*
X99872680Y-99122857D01*
X99872680Y-99122857D02*
X99994585Y-99092380D01*
X99994585Y-99092380D02*
X100146966Y-99092380D01*
X100146966Y-99092380D02*
X100268871Y-99122857D01*
X100268871Y-99122857D02*
X100329823Y-99153333D01*
X100329823Y-99153333D02*
X100360300Y-99183809D01*
X100360300Y-99183809D02*
X100390776Y-99244761D01*
X100390776Y-99244761D02*
X100390776Y-99305714D01*
X100390776Y-99305714D02*
X100360300Y-99366666D01*
X100360300Y-99366666D02*
X100329823Y-99397142D01*
X100329823Y-99397142D02*
X100268871Y-99427619D01*
X100268871Y-99427619D02*
X100146966Y-99458095D01*
X100146966Y-99458095D02*
X99994585Y-99458095D01*
X99994585Y-99458095D02*
X99872680Y-99427619D01*
X99872680Y-99427619D02*
X99811728Y-99397142D01*
X99811728Y-99397142D02*
X99781252Y-99366666D01*
X99781252Y-99366666D02*
X99750776Y-99305714D01*
X99077323Y-124211428D02*
X99107800Y-124241904D01*
X99107800Y-124241904D02*
X99138276Y-124333333D01*
X99138276Y-124333333D02*
X99138276Y-124394285D01*
X99138276Y-124394285D02*
X99107800Y-124485714D01*
X99107800Y-124485714D02*
X99046847Y-124546666D01*
X99046847Y-124546666D02*
X98985895Y-124577143D01*
X98985895Y-124577143D02*
X98863990Y-124607619D01*
X98863990Y-124607619D02*
X98772561Y-124607619D01*
X98772561Y-124607619D02*
X98650657Y-124577143D01*
X98650657Y-124577143D02*
X98589704Y-124546666D01*
X98589704Y-124546666D02*
X98528752Y-124485714D01*
X98528752Y-124485714D02*
X98498276Y-124394285D01*
X98498276Y-124394285D02*
X98498276Y-124333333D01*
X98498276Y-124333333D02*
X98528752Y-124241904D01*
X98528752Y-124241904D02*
X98559228Y-124211428D01*
X98559228Y-123967619D02*
X98528752Y-123937143D01*
X98528752Y-123937143D02*
X98498276Y-123876190D01*
X98498276Y-123876190D02*
X98498276Y-123723809D01*
X98498276Y-123723809D02*
X98528752Y-123662857D01*
X98528752Y-123662857D02*
X98559228Y-123632381D01*
X98559228Y-123632381D02*
X98620180Y-123601904D01*
X98620180Y-123601904D02*
X98681133Y-123601904D01*
X98681133Y-123601904D02*
X98772561Y-123632381D01*
X98772561Y-123632381D02*
X99138276Y-123998095D01*
X99138276Y-123998095D02*
X99138276Y-123601904D01*
X98498276Y-123205714D02*
X98498276Y-123144761D01*
X98498276Y-123144761D02*
X98528752Y-123083809D01*
X98528752Y-123083809D02*
X98559228Y-123053333D01*
X98559228Y-123053333D02*
X98620180Y-123022857D01*
X98620180Y-123022857D02*
X98742085Y-122992380D01*
X98742085Y-122992380D02*
X98894466Y-122992380D01*
X98894466Y-122992380D02*
X99016371Y-123022857D01*
X99016371Y-123022857D02*
X99077323Y-123053333D01*
X99077323Y-123053333D02*
X99107800Y-123083809D01*
X99107800Y-123083809D02*
X99138276Y-123144761D01*
X99138276Y-123144761D02*
X99138276Y-123205714D01*
X99138276Y-123205714D02*
X99107800Y-123266666D01*
X99107800Y-123266666D02*
X99077323Y-123297142D01*
X99077323Y-123297142D02*
X99016371Y-123327619D01*
X99016371Y-123327619D02*
X98894466Y-123358095D01*
X98894466Y-123358095D02*
X98742085Y-123358095D01*
X98742085Y-123358095D02*
X98620180Y-123327619D01*
X98620180Y-123327619D02*
X98559228Y-123297142D01*
X98559228Y-123297142D02*
X98528752Y-123266666D01*
X98528752Y-123266666D02*
X98498276Y-123205714D01*
X95593333Y-118588276D02*
X95379999Y-118283514D01*
X95227618Y-118588276D02*
X95227618Y-117948276D01*
X95227618Y-117948276D02*
X95471428Y-117948276D01*
X95471428Y-117948276D02*
X95532380Y-117978752D01*
X95532380Y-117978752D02*
X95562857Y-118009228D01*
X95562857Y-118009228D02*
X95593333Y-118070180D01*
X95593333Y-118070180D02*
X95593333Y-118161609D01*
X95593333Y-118161609D02*
X95562857Y-118222561D01*
X95562857Y-118222561D02*
X95532380Y-118253038D01*
X95532380Y-118253038D02*
X95471428Y-118283514D01*
X95471428Y-118283514D02*
X95227618Y-118283514D01*
X95898095Y-118588276D02*
X96019999Y-118588276D01*
X96019999Y-118588276D02*
X96080952Y-118557800D01*
X96080952Y-118557800D02*
X96111428Y-118527323D01*
X96111428Y-118527323D02*
X96172380Y-118435895D01*
X96172380Y-118435895D02*
X96202857Y-118313990D01*
X96202857Y-118313990D02*
X96202857Y-118070180D01*
X96202857Y-118070180D02*
X96172380Y-118009228D01*
X96172380Y-118009228D02*
X96141904Y-117978752D01*
X96141904Y-117978752D02*
X96080952Y-117948276D01*
X96080952Y-117948276D02*
X95959047Y-117948276D01*
X95959047Y-117948276D02*
X95898095Y-117978752D01*
X95898095Y-117978752D02*
X95867618Y-118009228D01*
X95867618Y-118009228D02*
X95837142Y-118070180D01*
X95837142Y-118070180D02*
X95837142Y-118222561D01*
X95837142Y-118222561D02*
X95867618Y-118283514D01*
X95867618Y-118283514D02*
X95898095Y-118313990D01*
X95898095Y-118313990D02*
X95959047Y-118344466D01*
X95959047Y-118344466D02*
X96080952Y-118344466D01*
X96080952Y-118344466D02*
X96141904Y-118313990D01*
X96141904Y-118313990D02*
X96172380Y-118283514D01*
X96172380Y-118283514D02*
X96202857Y-118222561D01*
X99166667Y-159760538D02*
X98953333Y-159760538D01*
X98953333Y-160095776D02*
X98953333Y-159455776D01*
X98953333Y-159455776D02*
X99258095Y-159455776D01*
X99715238Y-159760538D02*
X99806666Y-159791014D01*
X99806666Y-159791014D02*
X99837143Y-159821490D01*
X99837143Y-159821490D02*
X99867619Y-159882442D01*
X99867619Y-159882442D02*
X99867619Y-159973871D01*
X99867619Y-159973871D02*
X99837143Y-160034823D01*
X99837143Y-160034823D02*
X99806666Y-160065300D01*
X99806666Y-160065300D02*
X99745714Y-160095776D01*
X99745714Y-160095776D02*
X99501904Y-160095776D01*
X99501904Y-160095776D02*
X99501904Y-159455776D01*
X99501904Y-159455776D02*
X99715238Y-159455776D01*
X99715238Y-159455776D02*
X99776190Y-159486252D01*
X99776190Y-159486252D02*
X99806666Y-159516728D01*
X99806666Y-159516728D02*
X99837143Y-159577680D01*
X99837143Y-159577680D02*
X99837143Y-159638633D01*
X99837143Y-159638633D02*
X99806666Y-159699585D01*
X99806666Y-159699585D02*
X99776190Y-159730061D01*
X99776190Y-159730061D02*
X99715238Y-159760538D01*
X99715238Y-159760538D02*
X99501904Y-159760538D01*
X100172381Y-160095776D02*
X100294285Y-160095776D01*
X100294285Y-160095776D02*
X100355238Y-160065300D01*
X100355238Y-160065300D02*
X100385714Y-160034823D01*
X100385714Y-160034823D02*
X100446666Y-159943395D01*
X100446666Y-159943395D02*
X100477143Y-159821490D01*
X100477143Y-159821490D02*
X100477143Y-159577680D01*
X100477143Y-159577680D02*
X100446666Y-159516728D01*
X100446666Y-159516728D02*
X100416190Y-159486252D01*
X100416190Y-159486252D02*
X100355238Y-159455776D01*
X100355238Y-159455776D02*
X100233333Y-159455776D01*
X100233333Y-159455776D02*
X100172381Y-159486252D01*
X100172381Y-159486252D02*
X100141904Y-159516728D01*
X100141904Y-159516728D02*
X100111428Y-159577680D01*
X100111428Y-159577680D02*
X100111428Y-159730061D01*
X100111428Y-159730061D02*
X100141904Y-159791014D01*
X100141904Y-159791014D02*
X100172381Y-159821490D01*
X100172381Y-159821490D02*
X100233333Y-159851966D01*
X100233333Y-159851966D02*
X100355238Y-159851966D01*
X100355238Y-159851966D02*
X100416190Y-159821490D01*
X100416190Y-159821490D02*
X100446666Y-159791014D01*
X100446666Y-159791014D02*
X100477143Y-159730061D01*
X82077323Y-97261428D02*
X82107800Y-97291904D01*
X82107800Y-97291904D02*
X82138276Y-97383333D01*
X82138276Y-97383333D02*
X82138276Y-97444285D01*
X82138276Y-97444285D02*
X82107800Y-97535714D01*
X82107800Y-97535714D02*
X82046847Y-97596666D01*
X82046847Y-97596666D02*
X81985895Y-97627143D01*
X81985895Y-97627143D02*
X81863990Y-97657619D01*
X81863990Y-97657619D02*
X81772561Y-97657619D01*
X81772561Y-97657619D02*
X81650657Y-97627143D01*
X81650657Y-97627143D02*
X81589704Y-97596666D01*
X81589704Y-97596666D02*
X81528752Y-97535714D01*
X81528752Y-97535714D02*
X81498276Y-97444285D01*
X81498276Y-97444285D02*
X81498276Y-97383333D01*
X81498276Y-97383333D02*
X81528752Y-97291904D01*
X81528752Y-97291904D02*
X81559228Y-97261428D01*
X81498276Y-97048095D02*
X81498276Y-96621428D01*
X81498276Y-96621428D02*
X82138276Y-96895714D01*
X81498276Y-96072857D02*
X81498276Y-96377619D01*
X81498276Y-96377619D02*
X81803038Y-96408095D01*
X81803038Y-96408095D02*
X81772561Y-96377619D01*
X81772561Y-96377619D02*
X81742085Y-96316666D01*
X81742085Y-96316666D02*
X81742085Y-96164285D01*
X81742085Y-96164285D02*
X81772561Y-96103333D01*
X81772561Y-96103333D02*
X81803038Y-96072857D01*
X81803038Y-96072857D02*
X81863990Y-96042380D01*
X81863990Y-96042380D02*
X82016371Y-96042380D01*
X82016371Y-96042380D02*
X82077323Y-96072857D01*
X82077323Y-96072857D02*
X82107800Y-96103333D01*
X82107800Y-96103333D02*
X82138276Y-96164285D01*
X82138276Y-96164285D02*
X82138276Y-96316666D01*
X82138276Y-96316666D02*
X82107800Y-96377619D01*
X82107800Y-96377619D02*
X82077323Y-96408095D01*
X99985317Y-142636166D02*
X99985317Y-142679266D01*
X99985317Y-142679266D02*
X99942217Y-142765466D01*
X99942217Y-142765466D02*
X99899117Y-142808566D01*
X99899117Y-142808566D02*
X99812918Y-142851666D01*
X99812918Y-142851666D02*
X99726718Y-142851666D01*
X99726718Y-142851666D02*
X99662068Y-142830116D01*
X99662068Y-142830116D02*
X99554318Y-142765466D01*
X99554318Y-142765466D02*
X99489669Y-142700816D01*
X99489669Y-142700816D02*
X99425019Y-142593067D01*
X99425019Y-142593067D02*
X99403469Y-142528417D01*
X99403469Y-142528417D02*
X99403469Y-142442217D01*
X99403469Y-142442217D02*
X99446569Y-142356018D01*
X99446569Y-142356018D02*
X99489669Y-142312918D01*
X99489669Y-142312918D02*
X99575868Y-142269818D01*
X99575868Y-142269818D02*
X99618968Y-142269818D01*
X99791368Y-142097418D02*
X99791368Y-142054319D01*
X99791368Y-142054319D02*
X99812918Y-141989669D01*
X99812918Y-141989669D02*
X99920667Y-141881919D01*
X99920667Y-141881919D02*
X99985317Y-141860369D01*
X99985317Y-141860369D02*
X100028417Y-141860369D01*
X100028417Y-141860369D02*
X100093067Y-141881919D01*
X100093067Y-141881919D02*
X100136166Y-141925019D01*
X100136166Y-141925019D02*
X100179266Y-142011219D01*
X100179266Y-142011219D02*
X100179266Y-142528417D01*
X100179266Y-142528417D02*
X100459415Y-142248268D01*
X88712380Y-89248276D02*
X88712380Y-89766371D01*
X88712380Y-89766371D02*
X88742857Y-89827323D01*
X88742857Y-89827323D02*
X88773333Y-89857800D01*
X88773333Y-89857800D02*
X88834285Y-89888276D01*
X88834285Y-89888276D02*
X88956190Y-89888276D01*
X88956190Y-89888276D02*
X89017142Y-89857800D01*
X89017142Y-89857800D02*
X89047619Y-89827323D01*
X89047619Y-89827323D02*
X89078095Y-89766371D01*
X89078095Y-89766371D02*
X89078095Y-89248276D01*
X89687618Y-89248276D02*
X89382856Y-89248276D01*
X89382856Y-89248276D02*
X89352380Y-89553038D01*
X89352380Y-89553038D02*
X89382856Y-89522561D01*
X89382856Y-89522561D02*
X89443809Y-89492085D01*
X89443809Y-89492085D02*
X89596190Y-89492085D01*
X89596190Y-89492085D02*
X89657142Y-89522561D01*
X89657142Y-89522561D02*
X89687618Y-89553038D01*
X89687618Y-89553038D02*
X89718095Y-89613990D01*
X89718095Y-89613990D02*
X89718095Y-89766371D01*
X89718095Y-89766371D02*
X89687618Y-89827323D01*
X89687618Y-89827323D02*
X89657142Y-89857800D01*
X89657142Y-89857800D02*
X89596190Y-89888276D01*
X89596190Y-89888276D02*
X89443809Y-89888276D01*
X89443809Y-89888276D02*
X89382856Y-89857800D01*
X89382856Y-89857800D02*
X89352380Y-89827323D01*
X87638276Y-139261428D02*
X87333514Y-139474762D01*
X87638276Y-139627143D02*
X86998276Y-139627143D01*
X86998276Y-139627143D02*
X86998276Y-139383333D01*
X86998276Y-139383333D02*
X87028752Y-139322381D01*
X87028752Y-139322381D02*
X87059228Y-139291904D01*
X87059228Y-139291904D02*
X87120180Y-139261428D01*
X87120180Y-139261428D02*
X87211609Y-139261428D01*
X87211609Y-139261428D02*
X87272561Y-139291904D01*
X87272561Y-139291904D02*
X87303038Y-139322381D01*
X87303038Y-139322381D02*
X87333514Y-139383333D01*
X87333514Y-139383333D02*
X87333514Y-139627143D01*
X86998276Y-138682381D02*
X86998276Y-138987143D01*
X86998276Y-138987143D02*
X87303038Y-139017619D01*
X87303038Y-139017619D02*
X87272561Y-138987143D01*
X87272561Y-138987143D02*
X87242085Y-138926190D01*
X87242085Y-138926190D02*
X87242085Y-138773809D01*
X87242085Y-138773809D02*
X87272561Y-138712857D01*
X87272561Y-138712857D02*
X87303038Y-138682381D01*
X87303038Y-138682381D02*
X87363990Y-138651904D01*
X87363990Y-138651904D02*
X87516371Y-138651904D01*
X87516371Y-138651904D02*
X87577323Y-138682381D01*
X87577323Y-138682381D02*
X87607800Y-138712857D01*
X87607800Y-138712857D02*
X87638276Y-138773809D01*
X87638276Y-138773809D02*
X87638276Y-138926190D01*
X87638276Y-138926190D02*
X87607800Y-138987143D01*
X87607800Y-138987143D02*
X87577323Y-139017619D01*
X86998276Y-138438571D02*
X86998276Y-138011904D01*
X86998276Y-138011904D02*
X87638276Y-138286190D01*
X89127323Y-101761428D02*
X89157800Y-101791904D01*
X89157800Y-101791904D02*
X89188276Y-101883333D01*
X89188276Y-101883333D02*
X89188276Y-101944285D01*
X89188276Y-101944285D02*
X89157800Y-102035714D01*
X89157800Y-102035714D02*
X89096847Y-102096666D01*
X89096847Y-102096666D02*
X89035895Y-102127143D01*
X89035895Y-102127143D02*
X88913990Y-102157619D01*
X88913990Y-102157619D02*
X88822561Y-102157619D01*
X88822561Y-102157619D02*
X88700657Y-102127143D01*
X88700657Y-102127143D02*
X88639704Y-102096666D01*
X88639704Y-102096666D02*
X88578752Y-102035714D01*
X88578752Y-102035714D02*
X88548276Y-101944285D01*
X88548276Y-101944285D02*
X88548276Y-101883333D01*
X88548276Y-101883333D02*
X88578752Y-101791904D01*
X88578752Y-101791904D02*
X88609228Y-101761428D01*
X88548276Y-101182381D02*
X88548276Y-101487143D01*
X88548276Y-101487143D02*
X88853038Y-101517619D01*
X88853038Y-101517619D02*
X88822561Y-101487143D01*
X88822561Y-101487143D02*
X88792085Y-101426190D01*
X88792085Y-101426190D02*
X88792085Y-101273809D01*
X88792085Y-101273809D02*
X88822561Y-101212857D01*
X88822561Y-101212857D02*
X88853038Y-101182381D01*
X88853038Y-101182381D02*
X88913990Y-101151904D01*
X88913990Y-101151904D02*
X89066371Y-101151904D01*
X89066371Y-101151904D02*
X89127323Y-101182381D01*
X89127323Y-101182381D02*
X89157800Y-101212857D01*
X89157800Y-101212857D02*
X89188276Y-101273809D01*
X89188276Y-101273809D02*
X89188276Y-101426190D01*
X89188276Y-101426190D02*
X89157800Y-101487143D01*
X89157800Y-101487143D02*
X89127323Y-101517619D01*
X88548276Y-100603333D02*
X88548276Y-100725238D01*
X88548276Y-100725238D02*
X88578752Y-100786190D01*
X88578752Y-100786190D02*
X88609228Y-100816666D01*
X88609228Y-100816666D02*
X88700657Y-100877619D01*
X88700657Y-100877619D02*
X88822561Y-100908095D01*
X88822561Y-100908095D02*
X89066371Y-100908095D01*
X89066371Y-100908095D02*
X89127323Y-100877619D01*
X89127323Y-100877619D02*
X89157800Y-100847142D01*
X89157800Y-100847142D02*
X89188276Y-100786190D01*
X89188276Y-100786190D02*
X89188276Y-100664285D01*
X89188276Y-100664285D02*
X89157800Y-100603333D01*
X89157800Y-100603333D02*
X89127323Y-100572857D01*
X89127323Y-100572857D02*
X89066371Y-100542380D01*
X89066371Y-100542380D02*
X88913990Y-100542380D01*
X88913990Y-100542380D02*
X88853038Y-100572857D01*
X88853038Y-100572857D02*
X88822561Y-100603333D01*
X88822561Y-100603333D02*
X88792085Y-100664285D01*
X88792085Y-100664285D02*
X88792085Y-100786190D01*
X88792085Y-100786190D02*
X88822561Y-100847142D01*
X88822561Y-100847142D02*
X88853038Y-100877619D01*
X88853038Y-100877619D02*
X88913990Y-100908095D01*
X85638276Y-160411428D02*
X85333514Y-160624762D01*
X85638276Y-160777143D02*
X84998276Y-160777143D01*
X84998276Y-160777143D02*
X84998276Y-160533333D01*
X84998276Y-160533333D02*
X85028752Y-160472381D01*
X85028752Y-160472381D02*
X85059228Y-160441904D01*
X85059228Y-160441904D02*
X85120180Y-160411428D01*
X85120180Y-160411428D02*
X85211609Y-160411428D01*
X85211609Y-160411428D02*
X85272561Y-160441904D01*
X85272561Y-160441904D02*
X85303038Y-160472381D01*
X85303038Y-160472381D02*
X85333514Y-160533333D01*
X85333514Y-160533333D02*
X85333514Y-160777143D01*
X84998276Y-159862857D02*
X84998276Y-159984762D01*
X84998276Y-159984762D02*
X85028752Y-160045714D01*
X85028752Y-160045714D02*
X85059228Y-160076190D01*
X85059228Y-160076190D02*
X85150657Y-160137143D01*
X85150657Y-160137143D02*
X85272561Y-160167619D01*
X85272561Y-160167619D02*
X85516371Y-160167619D01*
X85516371Y-160167619D02*
X85577323Y-160137143D01*
X85577323Y-160137143D02*
X85607800Y-160106666D01*
X85607800Y-160106666D02*
X85638276Y-160045714D01*
X85638276Y-160045714D02*
X85638276Y-159923809D01*
X85638276Y-159923809D02*
X85607800Y-159862857D01*
X85607800Y-159862857D02*
X85577323Y-159832381D01*
X85577323Y-159832381D02*
X85516371Y-159801904D01*
X85516371Y-159801904D02*
X85363990Y-159801904D01*
X85363990Y-159801904D02*
X85303038Y-159832381D01*
X85303038Y-159832381D02*
X85272561Y-159862857D01*
X85272561Y-159862857D02*
X85242085Y-159923809D01*
X85242085Y-159923809D02*
X85242085Y-160045714D01*
X85242085Y-160045714D02*
X85272561Y-160106666D01*
X85272561Y-160106666D02*
X85303038Y-160137143D01*
X85303038Y-160137143D02*
X85363990Y-160167619D01*
X84998276Y-159588571D02*
X84998276Y-159161904D01*
X84998276Y-159161904D02*
X85638276Y-159436190D01*
X100588571Y-127738276D02*
X100375237Y-127433514D01*
X100222856Y-127738276D02*
X100222856Y-127098276D01*
X100222856Y-127098276D02*
X100466666Y-127098276D01*
X100466666Y-127098276D02*
X100527618Y-127128752D01*
X100527618Y-127128752D02*
X100558095Y-127159228D01*
X100558095Y-127159228D02*
X100588571Y-127220180D01*
X100588571Y-127220180D02*
X100588571Y-127311609D01*
X100588571Y-127311609D02*
X100558095Y-127372561D01*
X100558095Y-127372561D02*
X100527618Y-127403038D01*
X100527618Y-127403038D02*
X100466666Y-127433514D01*
X100466666Y-127433514D02*
X100222856Y-127433514D01*
X100801904Y-127098276D02*
X101198095Y-127098276D01*
X101198095Y-127098276D02*
X100984761Y-127342085D01*
X100984761Y-127342085D02*
X101076190Y-127342085D01*
X101076190Y-127342085D02*
X101137142Y-127372561D01*
X101137142Y-127372561D02*
X101167618Y-127403038D01*
X101167618Y-127403038D02*
X101198095Y-127463990D01*
X101198095Y-127463990D02*
X101198095Y-127616371D01*
X101198095Y-127616371D02*
X101167618Y-127677323D01*
X101167618Y-127677323D02*
X101137142Y-127707800D01*
X101137142Y-127707800D02*
X101076190Y-127738276D01*
X101076190Y-127738276D02*
X100893333Y-127738276D01*
X100893333Y-127738276D02*
X100832380Y-127707800D01*
X100832380Y-127707800D02*
X100801904Y-127677323D01*
X101777142Y-127098276D02*
X101472380Y-127098276D01*
X101472380Y-127098276D02*
X101441904Y-127403038D01*
X101441904Y-127403038D02*
X101472380Y-127372561D01*
X101472380Y-127372561D02*
X101533333Y-127342085D01*
X101533333Y-127342085D02*
X101685714Y-127342085D01*
X101685714Y-127342085D02*
X101746666Y-127372561D01*
X101746666Y-127372561D02*
X101777142Y-127403038D01*
X101777142Y-127403038D02*
X101807619Y-127463990D01*
X101807619Y-127463990D02*
X101807619Y-127616371D01*
X101807619Y-127616371D02*
X101777142Y-127677323D01*
X101777142Y-127677323D02*
X101746666Y-127707800D01*
X101746666Y-127707800D02*
X101685714Y-127738276D01*
X101685714Y-127738276D02*
X101533333Y-127738276D01*
X101533333Y-127738276D02*
X101472380Y-127707800D01*
X101472380Y-127707800D02*
X101441904Y-127677323D01*
X100188571Y-159095776D02*
X99975237Y-158791014D01*
X99822856Y-159095776D02*
X99822856Y-158455776D01*
X99822856Y-158455776D02*
X100066666Y-158455776D01*
X100066666Y-158455776D02*
X100127618Y-158486252D01*
X100127618Y-158486252D02*
X100158095Y-158516728D01*
X100158095Y-158516728D02*
X100188571Y-158577680D01*
X100188571Y-158577680D02*
X100188571Y-158669109D01*
X100188571Y-158669109D02*
X100158095Y-158730061D01*
X100158095Y-158730061D02*
X100127618Y-158760538D01*
X100127618Y-158760538D02*
X100066666Y-158791014D01*
X100066666Y-158791014D02*
X99822856Y-158791014D01*
X100737142Y-158455776D02*
X100615237Y-158455776D01*
X100615237Y-158455776D02*
X100554285Y-158486252D01*
X100554285Y-158486252D02*
X100523809Y-158516728D01*
X100523809Y-158516728D02*
X100462856Y-158608157D01*
X100462856Y-158608157D02*
X100432380Y-158730061D01*
X100432380Y-158730061D02*
X100432380Y-158973871D01*
X100432380Y-158973871D02*
X100462856Y-159034823D01*
X100462856Y-159034823D02*
X100493333Y-159065300D01*
X100493333Y-159065300D02*
X100554285Y-159095776D01*
X100554285Y-159095776D02*
X100676190Y-159095776D01*
X100676190Y-159095776D02*
X100737142Y-159065300D01*
X100737142Y-159065300D02*
X100767618Y-159034823D01*
X100767618Y-159034823D02*
X100798095Y-158973871D01*
X100798095Y-158973871D02*
X100798095Y-158821490D01*
X100798095Y-158821490D02*
X100767618Y-158760538D01*
X100767618Y-158760538D02*
X100737142Y-158730061D01*
X100737142Y-158730061D02*
X100676190Y-158699585D01*
X100676190Y-158699585D02*
X100554285Y-158699585D01*
X100554285Y-158699585D02*
X100493333Y-158730061D01*
X100493333Y-158730061D02*
X100462856Y-158760538D01*
X100462856Y-158760538D02*
X100432380Y-158821490D01*
X101163809Y-158730061D02*
X101102857Y-158699585D01*
X101102857Y-158699585D02*
X101072380Y-158669109D01*
X101072380Y-158669109D02*
X101041904Y-158608157D01*
X101041904Y-158608157D02*
X101041904Y-158577680D01*
X101041904Y-158577680D02*
X101072380Y-158516728D01*
X101072380Y-158516728D02*
X101102857Y-158486252D01*
X101102857Y-158486252D02*
X101163809Y-158455776D01*
X101163809Y-158455776D02*
X101285714Y-158455776D01*
X101285714Y-158455776D02*
X101346666Y-158486252D01*
X101346666Y-158486252D02*
X101377142Y-158516728D01*
X101377142Y-158516728D02*
X101407619Y-158577680D01*
X101407619Y-158577680D02*
X101407619Y-158608157D01*
X101407619Y-158608157D02*
X101377142Y-158669109D01*
X101377142Y-158669109D02*
X101346666Y-158699585D01*
X101346666Y-158699585D02*
X101285714Y-158730061D01*
X101285714Y-158730061D02*
X101163809Y-158730061D01*
X101163809Y-158730061D02*
X101102857Y-158760538D01*
X101102857Y-158760538D02*
X101072380Y-158791014D01*
X101072380Y-158791014D02*
X101041904Y-158851966D01*
X101041904Y-158851966D02*
X101041904Y-158973871D01*
X101041904Y-158973871D02*
X101072380Y-159034823D01*
X101072380Y-159034823D02*
X101102857Y-159065300D01*
X101102857Y-159065300D02*
X101163809Y-159095776D01*
X101163809Y-159095776D02*
X101285714Y-159095776D01*
X101285714Y-159095776D02*
X101346666Y-159065300D01*
X101346666Y-159065300D02*
X101377142Y-159034823D01*
X101377142Y-159034823D02*
X101407619Y-158973871D01*
X101407619Y-158973871D02*
X101407619Y-158851966D01*
X101407619Y-158851966D02*
X101377142Y-158791014D01*
X101377142Y-158791014D02*
X101346666Y-158760538D01*
X101346666Y-158760538D02*
X101285714Y-158730061D01*
X83227323Y-121506666D02*
X83257800Y-121537142D01*
X83257800Y-121537142D02*
X83288276Y-121628571D01*
X83288276Y-121628571D02*
X83288276Y-121689523D01*
X83288276Y-121689523D02*
X83257800Y-121780952D01*
X83257800Y-121780952D02*
X83196847Y-121841904D01*
X83196847Y-121841904D02*
X83135895Y-121872381D01*
X83135895Y-121872381D02*
X83013990Y-121902857D01*
X83013990Y-121902857D02*
X82922561Y-121902857D01*
X82922561Y-121902857D02*
X82800657Y-121872381D01*
X82800657Y-121872381D02*
X82739704Y-121841904D01*
X82739704Y-121841904D02*
X82678752Y-121780952D01*
X82678752Y-121780952D02*
X82648276Y-121689523D01*
X82648276Y-121689523D02*
X82648276Y-121628571D01*
X82648276Y-121628571D02*
X82678752Y-121537142D01*
X82678752Y-121537142D02*
X82709228Y-121506666D01*
X82861609Y-120958095D02*
X83288276Y-120958095D01*
X82617800Y-121110476D02*
X83074942Y-121262857D01*
X83074942Y-121262857D02*
X83074942Y-120866666D01*
X82098571Y-146618276D02*
X81885237Y-146313514D01*
X81732856Y-146618276D02*
X81732856Y-145978276D01*
X81732856Y-145978276D02*
X81976666Y-145978276D01*
X81976666Y-145978276D02*
X82037618Y-146008752D01*
X82037618Y-146008752D02*
X82068095Y-146039228D01*
X82068095Y-146039228D02*
X82098571Y-146100180D01*
X82098571Y-146100180D02*
X82098571Y-146191609D01*
X82098571Y-146191609D02*
X82068095Y-146252561D01*
X82068095Y-146252561D02*
X82037618Y-146283038D01*
X82037618Y-146283038D02*
X81976666Y-146313514D01*
X81976666Y-146313514D02*
X81732856Y-146313514D01*
X82677618Y-145978276D02*
X82372856Y-145978276D01*
X82372856Y-145978276D02*
X82342380Y-146283038D01*
X82342380Y-146283038D02*
X82372856Y-146252561D01*
X82372856Y-146252561D02*
X82433809Y-146222085D01*
X82433809Y-146222085D02*
X82586190Y-146222085D01*
X82586190Y-146222085D02*
X82647142Y-146252561D01*
X82647142Y-146252561D02*
X82677618Y-146283038D01*
X82677618Y-146283038D02*
X82708095Y-146343990D01*
X82708095Y-146343990D02*
X82708095Y-146496371D01*
X82708095Y-146496371D02*
X82677618Y-146557323D01*
X82677618Y-146557323D02*
X82647142Y-146587800D01*
X82647142Y-146587800D02*
X82586190Y-146618276D01*
X82586190Y-146618276D02*
X82433809Y-146618276D01*
X82433809Y-146618276D02*
X82372856Y-146587800D01*
X82372856Y-146587800D02*
X82342380Y-146557323D01*
X83104285Y-145978276D02*
X83165238Y-145978276D01*
X83165238Y-145978276D02*
X83226190Y-146008752D01*
X83226190Y-146008752D02*
X83256666Y-146039228D01*
X83256666Y-146039228D02*
X83287142Y-146100180D01*
X83287142Y-146100180D02*
X83317619Y-146222085D01*
X83317619Y-146222085D02*
X83317619Y-146374466D01*
X83317619Y-146374466D02*
X83287142Y-146496371D01*
X83287142Y-146496371D02*
X83256666Y-146557323D01*
X83256666Y-146557323D02*
X83226190Y-146587800D01*
X83226190Y-146587800D02*
X83165238Y-146618276D01*
X83165238Y-146618276D02*
X83104285Y-146618276D01*
X83104285Y-146618276D02*
X83043333Y-146587800D01*
X83043333Y-146587800D02*
X83012857Y-146557323D01*
X83012857Y-146557323D02*
X82982380Y-146496371D01*
X82982380Y-146496371D02*
X82951904Y-146374466D01*
X82951904Y-146374466D02*
X82951904Y-146222085D01*
X82951904Y-146222085D02*
X82982380Y-146100180D01*
X82982380Y-146100180D02*
X83012857Y-146039228D01*
X83012857Y-146039228D02*
X83043333Y-146008752D01*
X83043333Y-146008752D02*
X83104285Y-145978276D01*
X83777323Y-91661428D02*
X83807800Y-91691904D01*
X83807800Y-91691904D02*
X83838276Y-91783333D01*
X83838276Y-91783333D02*
X83838276Y-91844285D01*
X83838276Y-91844285D02*
X83807800Y-91935714D01*
X83807800Y-91935714D02*
X83746847Y-91996666D01*
X83746847Y-91996666D02*
X83685895Y-92027143D01*
X83685895Y-92027143D02*
X83563990Y-92057619D01*
X83563990Y-92057619D02*
X83472561Y-92057619D01*
X83472561Y-92057619D02*
X83350657Y-92027143D01*
X83350657Y-92027143D02*
X83289704Y-91996666D01*
X83289704Y-91996666D02*
X83228752Y-91935714D01*
X83228752Y-91935714D02*
X83198276Y-91844285D01*
X83198276Y-91844285D02*
X83198276Y-91783333D01*
X83198276Y-91783333D02*
X83228752Y-91691904D01*
X83228752Y-91691904D02*
X83259228Y-91661428D01*
X83198276Y-91082381D02*
X83198276Y-91387143D01*
X83198276Y-91387143D02*
X83503038Y-91417619D01*
X83503038Y-91417619D02*
X83472561Y-91387143D01*
X83472561Y-91387143D02*
X83442085Y-91326190D01*
X83442085Y-91326190D02*
X83442085Y-91173809D01*
X83442085Y-91173809D02*
X83472561Y-91112857D01*
X83472561Y-91112857D02*
X83503038Y-91082381D01*
X83503038Y-91082381D02*
X83563990Y-91051904D01*
X83563990Y-91051904D02*
X83716371Y-91051904D01*
X83716371Y-91051904D02*
X83777323Y-91082381D01*
X83777323Y-91082381D02*
X83807800Y-91112857D01*
X83807800Y-91112857D02*
X83838276Y-91173809D01*
X83838276Y-91173809D02*
X83838276Y-91326190D01*
X83838276Y-91326190D02*
X83807800Y-91387143D01*
X83807800Y-91387143D02*
X83777323Y-91417619D01*
X83472561Y-90686190D02*
X83442085Y-90747142D01*
X83442085Y-90747142D02*
X83411609Y-90777619D01*
X83411609Y-90777619D02*
X83350657Y-90808095D01*
X83350657Y-90808095D02*
X83320180Y-90808095D01*
X83320180Y-90808095D02*
X83259228Y-90777619D01*
X83259228Y-90777619D02*
X83228752Y-90747142D01*
X83228752Y-90747142D02*
X83198276Y-90686190D01*
X83198276Y-90686190D02*
X83198276Y-90564285D01*
X83198276Y-90564285D02*
X83228752Y-90503333D01*
X83228752Y-90503333D02*
X83259228Y-90472857D01*
X83259228Y-90472857D02*
X83320180Y-90442380D01*
X83320180Y-90442380D02*
X83350657Y-90442380D01*
X83350657Y-90442380D02*
X83411609Y-90472857D01*
X83411609Y-90472857D02*
X83442085Y-90503333D01*
X83442085Y-90503333D02*
X83472561Y-90564285D01*
X83472561Y-90564285D02*
X83472561Y-90686190D01*
X83472561Y-90686190D02*
X83503038Y-90747142D01*
X83503038Y-90747142D02*
X83533514Y-90777619D01*
X83533514Y-90777619D02*
X83594466Y-90808095D01*
X83594466Y-90808095D02*
X83716371Y-90808095D01*
X83716371Y-90808095D02*
X83777323Y-90777619D01*
X83777323Y-90777619D02*
X83807800Y-90747142D01*
X83807800Y-90747142D02*
X83838276Y-90686190D01*
X83838276Y-90686190D02*
X83838276Y-90564285D01*
X83838276Y-90564285D02*
X83807800Y-90503333D01*
X83807800Y-90503333D02*
X83777323Y-90472857D01*
X83777323Y-90472857D02*
X83716371Y-90442380D01*
X83716371Y-90442380D02*
X83594466Y-90442380D01*
X83594466Y-90442380D02*
X83533514Y-90472857D01*
X83533514Y-90472857D02*
X83503038Y-90503333D01*
X83503038Y-90503333D02*
X83472561Y-90564285D01*
X101827323Y-142718928D02*
X101857800Y-142749404D01*
X101857800Y-142749404D02*
X101888276Y-142840833D01*
X101888276Y-142840833D02*
X101888276Y-142901785D01*
X101888276Y-142901785D02*
X101857800Y-142993214D01*
X101857800Y-142993214D02*
X101796847Y-143054166D01*
X101796847Y-143054166D02*
X101735895Y-143084643D01*
X101735895Y-143084643D02*
X101613990Y-143115119D01*
X101613990Y-143115119D02*
X101522561Y-143115119D01*
X101522561Y-143115119D02*
X101400657Y-143084643D01*
X101400657Y-143084643D02*
X101339704Y-143054166D01*
X101339704Y-143054166D02*
X101278752Y-142993214D01*
X101278752Y-142993214D02*
X101248276Y-142901785D01*
X101248276Y-142901785D02*
X101248276Y-142840833D01*
X101248276Y-142840833D02*
X101278752Y-142749404D01*
X101278752Y-142749404D02*
X101309228Y-142718928D01*
X101248276Y-142170357D02*
X101248276Y-142292262D01*
X101248276Y-142292262D02*
X101278752Y-142353214D01*
X101278752Y-142353214D02*
X101309228Y-142383690D01*
X101309228Y-142383690D02*
X101400657Y-142444643D01*
X101400657Y-142444643D02*
X101522561Y-142475119D01*
X101522561Y-142475119D02*
X101766371Y-142475119D01*
X101766371Y-142475119D02*
X101827323Y-142444643D01*
X101827323Y-142444643D02*
X101857800Y-142414166D01*
X101857800Y-142414166D02*
X101888276Y-142353214D01*
X101888276Y-142353214D02*
X101888276Y-142231309D01*
X101888276Y-142231309D02*
X101857800Y-142170357D01*
X101857800Y-142170357D02*
X101827323Y-142139881D01*
X101827323Y-142139881D02*
X101766371Y-142109404D01*
X101766371Y-142109404D02*
X101613990Y-142109404D01*
X101613990Y-142109404D02*
X101553038Y-142139881D01*
X101553038Y-142139881D02*
X101522561Y-142170357D01*
X101522561Y-142170357D02*
X101492085Y-142231309D01*
X101492085Y-142231309D02*
X101492085Y-142353214D01*
X101492085Y-142353214D02*
X101522561Y-142414166D01*
X101522561Y-142414166D02*
X101553038Y-142444643D01*
X101553038Y-142444643D02*
X101613990Y-142475119D01*
X101461609Y-141560833D02*
X101888276Y-141560833D01*
X101217800Y-141713214D02*
X101674942Y-141865595D01*
X101674942Y-141865595D02*
X101674942Y-141469404D01*
X98293333Y-117934823D02*
X98262857Y-117965300D01*
X98262857Y-117965300D02*
X98171428Y-117995776D01*
X98171428Y-117995776D02*
X98110476Y-117995776D01*
X98110476Y-117995776D02*
X98019047Y-117965300D01*
X98019047Y-117965300D02*
X97958095Y-117904347D01*
X97958095Y-117904347D02*
X97927618Y-117843395D01*
X97927618Y-117843395D02*
X97897142Y-117721490D01*
X97897142Y-117721490D02*
X97897142Y-117630061D01*
X97897142Y-117630061D02*
X97927618Y-117508157D01*
X97927618Y-117508157D02*
X97958095Y-117447204D01*
X97958095Y-117447204D02*
X98019047Y-117386252D01*
X98019047Y-117386252D02*
X98110476Y-117355776D01*
X98110476Y-117355776D02*
X98171428Y-117355776D01*
X98171428Y-117355776D02*
X98262857Y-117386252D01*
X98262857Y-117386252D02*
X98293333Y-117416728D01*
X98872380Y-117355776D02*
X98567618Y-117355776D01*
X98567618Y-117355776D02*
X98537142Y-117660538D01*
X98537142Y-117660538D02*
X98567618Y-117630061D01*
X98567618Y-117630061D02*
X98628571Y-117599585D01*
X98628571Y-117599585D02*
X98780952Y-117599585D01*
X98780952Y-117599585D02*
X98841904Y-117630061D01*
X98841904Y-117630061D02*
X98872380Y-117660538D01*
X98872380Y-117660538D02*
X98902857Y-117721490D01*
X98902857Y-117721490D02*
X98902857Y-117873871D01*
X98902857Y-117873871D02*
X98872380Y-117934823D01*
X98872380Y-117934823D02*
X98841904Y-117965300D01*
X98841904Y-117965300D02*
X98780952Y-117995776D01*
X98780952Y-117995776D02*
X98628571Y-117995776D01*
X98628571Y-117995776D02*
X98567618Y-117965300D01*
X98567618Y-117965300D02*
X98537142Y-117934823D01*
X91588276Y-139311428D02*
X91283514Y-139524762D01*
X91588276Y-139677143D02*
X90948276Y-139677143D01*
X90948276Y-139677143D02*
X90948276Y-139433333D01*
X90948276Y-139433333D02*
X90978752Y-139372381D01*
X90978752Y-139372381D02*
X91009228Y-139341904D01*
X91009228Y-139341904D02*
X91070180Y-139311428D01*
X91070180Y-139311428D02*
X91161609Y-139311428D01*
X91161609Y-139311428D02*
X91222561Y-139341904D01*
X91222561Y-139341904D02*
X91253038Y-139372381D01*
X91253038Y-139372381D02*
X91283514Y-139433333D01*
X91283514Y-139433333D02*
X91283514Y-139677143D01*
X90948276Y-138762857D02*
X90948276Y-138884762D01*
X90948276Y-138884762D02*
X90978752Y-138945714D01*
X90978752Y-138945714D02*
X91009228Y-138976190D01*
X91009228Y-138976190D02*
X91100657Y-139037143D01*
X91100657Y-139037143D02*
X91222561Y-139067619D01*
X91222561Y-139067619D02*
X91466371Y-139067619D01*
X91466371Y-139067619D02*
X91527323Y-139037143D01*
X91527323Y-139037143D02*
X91557800Y-139006666D01*
X91557800Y-139006666D02*
X91588276Y-138945714D01*
X91588276Y-138945714D02*
X91588276Y-138823809D01*
X91588276Y-138823809D02*
X91557800Y-138762857D01*
X91557800Y-138762857D02*
X91527323Y-138732381D01*
X91527323Y-138732381D02*
X91466371Y-138701904D01*
X91466371Y-138701904D02*
X91313990Y-138701904D01*
X91313990Y-138701904D02*
X91253038Y-138732381D01*
X91253038Y-138732381D02*
X91222561Y-138762857D01*
X91222561Y-138762857D02*
X91192085Y-138823809D01*
X91192085Y-138823809D02*
X91192085Y-138945714D01*
X91192085Y-138945714D02*
X91222561Y-139006666D01*
X91222561Y-139006666D02*
X91253038Y-139037143D01*
X91253038Y-139037143D02*
X91313990Y-139067619D01*
X91009228Y-138458095D02*
X90978752Y-138427619D01*
X90978752Y-138427619D02*
X90948276Y-138366666D01*
X90948276Y-138366666D02*
X90948276Y-138214285D01*
X90948276Y-138214285D02*
X90978752Y-138153333D01*
X90978752Y-138153333D02*
X91009228Y-138122857D01*
X91009228Y-138122857D02*
X91070180Y-138092380D01*
X91070180Y-138092380D02*
X91131133Y-138092380D01*
X91131133Y-138092380D02*
X91222561Y-138122857D01*
X91222561Y-138122857D02*
X91588276Y-138488571D01*
X91588276Y-138488571D02*
X91588276Y-138092380D01*
X101062380Y-119148276D02*
X101062380Y-119666371D01*
X101062380Y-119666371D02*
X101092857Y-119727323D01*
X101092857Y-119727323D02*
X101123333Y-119757800D01*
X101123333Y-119757800D02*
X101184285Y-119788276D01*
X101184285Y-119788276D02*
X101306190Y-119788276D01*
X101306190Y-119788276D02*
X101367142Y-119757800D01*
X101367142Y-119757800D02*
X101397619Y-119727323D01*
X101397619Y-119727323D02*
X101428095Y-119666371D01*
X101428095Y-119666371D02*
X101428095Y-119148276D01*
X102007142Y-119148276D02*
X101885237Y-119148276D01*
X101885237Y-119148276D02*
X101824285Y-119178752D01*
X101824285Y-119178752D02*
X101793809Y-119209228D01*
X101793809Y-119209228D02*
X101732856Y-119300657D01*
X101732856Y-119300657D02*
X101702380Y-119422561D01*
X101702380Y-119422561D02*
X101702380Y-119666371D01*
X101702380Y-119666371D02*
X101732856Y-119727323D01*
X101732856Y-119727323D02*
X101763333Y-119757800D01*
X101763333Y-119757800D02*
X101824285Y-119788276D01*
X101824285Y-119788276D02*
X101946190Y-119788276D01*
X101946190Y-119788276D02*
X102007142Y-119757800D01*
X102007142Y-119757800D02*
X102037618Y-119727323D01*
X102037618Y-119727323D02*
X102068095Y-119666371D01*
X102068095Y-119666371D02*
X102068095Y-119513990D01*
X102068095Y-119513990D02*
X102037618Y-119453038D01*
X102037618Y-119453038D02*
X102007142Y-119422561D01*
X102007142Y-119422561D02*
X101946190Y-119392085D01*
X101946190Y-119392085D02*
X101824285Y-119392085D01*
X101824285Y-119392085D02*
X101763333Y-119422561D01*
X101763333Y-119422561D02*
X101732856Y-119453038D01*
X101732856Y-119453038D02*
X101702380Y-119513990D01*
X101827323Y-144618928D02*
X101857800Y-144649404D01*
X101857800Y-144649404D02*
X101888276Y-144740833D01*
X101888276Y-144740833D02*
X101888276Y-144801785D01*
X101888276Y-144801785D02*
X101857800Y-144893214D01*
X101857800Y-144893214D02*
X101796847Y-144954166D01*
X101796847Y-144954166D02*
X101735895Y-144984643D01*
X101735895Y-144984643D02*
X101613990Y-145015119D01*
X101613990Y-145015119D02*
X101522561Y-145015119D01*
X101522561Y-145015119D02*
X101400657Y-144984643D01*
X101400657Y-144984643D02*
X101339704Y-144954166D01*
X101339704Y-144954166D02*
X101278752Y-144893214D01*
X101278752Y-144893214D02*
X101248276Y-144801785D01*
X101248276Y-144801785D02*
X101248276Y-144740833D01*
X101248276Y-144740833D02*
X101278752Y-144649404D01*
X101278752Y-144649404D02*
X101309228Y-144618928D01*
X101248276Y-144070357D02*
X101248276Y-144192262D01*
X101248276Y-144192262D02*
X101278752Y-144253214D01*
X101278752Y-144253214D02*
X101309228Y-144283690D01*
X101309228Y-144283690D02*
X101400657Y-144344643D01*
X101400657Y-144344643D02*
X101522561Y-144375119D01*
X101522561Y-144375119D02*
X101766371Y-144375119D01*
X101766371Y-144375119D02*
X101827323Y-144344643D01*
X101827323Y-144344643D02*
X101857800Y-144314166D01*
X101857800Y-144314166D02*
X101888276Y-144253214D01*
X101888276Y-144253214D02*
X101888276Y-144131309D01*
X101888276Y-144131309D02*
X101857800Y-144070357D01*
X101857800Y-144070357D02*
X101827323Y-144039881D01*
X101827323Y-144039881D02*
X101766371Y-144009404D01*
X101766371Y-144009404D02*
X101613990Y-144009404D01*
X101613990Y-144009404D02*
X101553038Y-144039881D01*
X101553038Y-144039881D02*
X101522561Y-144070357D01*
X101522561Y-144070357D02*
X101492085Y-144131309D01*
X101492085Y-144131309D02*
X101492085Y-144253214D01*
X101492085Y-144253214D02*
X101522561Y-144314166D01*
X101522561Y-144314166D02*
X101553038Y-144344643D01*
X101553038Y-144344643D02*
X101613990Y-144375119D01*
X101248276Y-143430357D02*
X101248276Y-143735119D01*
X101248276Y-143735119D02*
X101553038Y-143765595D01*
X101553038Y-143765595D02*
X101522561Y-143735119D01*
X101522561Y-143735119D02*
X101492085Y-143674166D01*
X101492085Y-143674166D02*
X101492085Y-143521785D01*
X101492085Y-143521785D02*
X101522561Y-143460833D01*
X101522561Y-143460833D02*
X101553038Y-143430357D01*
X101553038Y-143430357D02*
X101613990Y-143399880D01*
X101613990Y-143399880D02*
X101766371Y-143399880D01*
X101766371Y-143399880D02*
X101827323Y-143430357D01*
X101827323Y-143430357D02*
X101857800Y-143460833D01*
X101857800Y-143460833D02*
X101888276Y-143521785D01*
X101888276Y-143521785D02*
X101888276Y-143674166D01*
X101888276Y-143674166D02*
X101857800Y-143735119D01*
X101857800Y-143735119D02*
X101827323Y-143765595D01*
X82038276Y-158106666D02*
X81733514Y-158320000D01*
X82038276Y-158472381D02*
X81398276Y-158472381D01*
X81398276Y-158472381D02*
X81398276Y-158228571D01*
X81398276Y-158228571D02*
X81428752Y-158167619D01*
X81428752Y-158167619D02*
X81459228Y-158137142D01*
X81459228Y-158137142D02*
X81520180Y-158106666D01*
X81520180Y-158106666D02*
X81611609Y-158106666D01*
X81611609Y-158106666D02*
X81672561Y-158137142D01*
X81672561Y-158137142D02*
X81703038Y-158167619D01*
X81703038Y-158167619D02*
X81733514Y-158228571D01*
X81733514Y-158228571D02*
X81733514Y-158472381D01*
X81398276Y-157893333D02*
X81398276Y-157497142D01*
X81398276Y-157497142D02*
X81642085Y-157710476D01*
X81642085Y-157710476D02*
X81642085Y-157619047D01*
X81642085Y-157619047D02*
X81672561Y-157558095D01*
X81672561Y-157558095D02*
X81703038Y-157527619D01*
X81703038Y-157527619D02*
X81763990Y-157497142D01*
X81763990Y-157497142D02*
X81916371Y-157497142D01*
X81916371Y-157497142D02*
X81977323Y-157527619D01*
X81977323Y-157527619D02*
X82007800Y-157558095D01*
X82007800Y-157558095D02*
X82038276Y-157619047D01*
X82038276Y-157619047D02*
X82038276Y-157801904D01*
X82038276Y-157801904D02*
X82007800Y-157862857D01*
X82007800Y-157862857D02*
X81977323Y-157893333D01*
X88838276Y-139261428D02*
X88533514Y-139474762D01*
X88838276Y-139627143D02*
X88198276Y-139627143D01*
X88198276Y-139627143D02*
X88198276Y-139383333D01*
X88198276Y-139383333D02*
X88228752Y-139322381D01*
X88228752Y-139322381D02*
X88259228Y-139291904D01*
X88259228Y-139291904D02*
X88320180Y-139261428D01*
X88320180Y-139261428D02*
X88411609Y-139261428D01*
X88411609Y-139261428D02*
X88472561Y-139291904D01*
X88472561Y-139291904D02*
X88503038Y-139322381D01*
X88503038Y-139322381D02*
X88533514Y-139383333D01*
X88533514Y-139383333D02*
X88533514Y-139627143D01*
X88198276Y-138712857D02*
X88198276Y-138834762D01*
X88198276Y-138834762D02*
X88228752Y-138895714D01*
X88228752Y-138895714D02*
X88259228Y-138926190D01*
X88259228Y-138926190D02*
X88350657Y-138987143D01*
X88350657Y-138987143D02*
X88472561Y-139017619D01*
X88472561Y-139017619D02*
X88716371Y-139017619D01*
X88716371Y-139017619D02*
X88777323Y-138987143D01*
X88777323Y-138987143D02*
X88807800Y-138956666D01*
X88807800Y-138956666D02*
X88838276Y-138895714D01*
X88838276Y-138895714D02*
X88838276Y-138773809D01*
X88838276Y-138773809D02*
X88807800Y-138712857D01*
X88807800Y-138712857D02*
X88777323Y-138682381D01*
X88777323Y-138682381D02*
X88716371Y-138651904D01*
X88716371Y-138651904D02*
X88563990Y-138651904D01*
X88563990Y-138651904D02*
X88503038Y-138682381D01*
X88503038Y-138682381D02*
X88472561Y-138712857D01*
X88472561Y-138712857D02*
X88442085Y-138773809D01*
X88442085Y-138773809D02*
X88442085Y-138895714D01*
X88442085Y-138895714D02*
X88472561Y-138956666D01*
X88472561Y-138956666D02*
X88503038Y-138987143D01*
X88503038Y-138987143D02*
X88563990Y-139017619D01*
X88838276Y-138042380D02*
X88838276Y-138408095D01*
X88838276Y-138225238D02*
X88198276Y-138225238D01*
X88198276Y-138225238D02*
X88289704Y-138286190D01*
X88289704Y-138286190D02*
X88350657Y-138347142D01*
X88350657Y-138347142D02*
X88381133Y-138408095D01*
X101588571Y-126695776D02*
X101375237Y-126391014D01*
X101222856Y-126695776D02*
X101222856Y-126055776D01*
X101222856Y-126055776D02*
X101466666Y-126055776D01*
X101466666Y-126055776D02*
X101527618Y-126086252D01*
X101527618Y-126086252D02*
X101558095Y-126116728D01*
X101558095Y-126116728D02*
X101588571Y-126177680D01*
X101588571Y-126177680D02*
X101588571Y-126269109D01*
X101588571Y-126269109D02*
X101558095Y-126330061D01*
X101558095Y-126330061D02*
X101527618Y-126360538D01*
X101527618Y-126360538D02*
X101466666Y-126391014D01*
X101466666Y-126391014D02*
X101222856Y-126391014D01*
X101832380Y-126116728D02*
X101862856Y-126086252D01*
X101862856Y-126086252D02*
X101923809Y-126055776D01*
X101923809Y-126055776D02*
X102076190Y-126055776D01*
X102076190Y-126055776D02*
X102137142Y-126086252D01*
X102137142Y-126086252D02*
X102167618Y-126116728D01*
X102167618Y-126116728D02*
X102198095Y-126177680D01*
X102198095Y-126177680D02*
X102198095Y-126238633D01*
X102198095Y-126238633D02*
X102167618Y-126330061D01*
X102167618Y-126330061D02*
X101801904Y-126695776D01*
X101801904Y-126695776D02*
X102198095Y-126695776D01*
X102746666Y-126055776D02*
X102624761Y-126055776D01*
X102624761Y-126055776D02*
X102563809Y-126086252D01*
X102563809Y-126086252D02*
X102533333Y-126116728D01*
X102533333Y-126116728D02*
X102472380Y-126208157D01*
X102472380Y-126208157D02*
X102441904Y-126330061D01*
X102441904Y-126330061D02*
X102441904Y-126573871D01*
X102441904Y-126573871D02*
X102472380Y-126634823D01*
X102472380Y-126634823D02*
X102502857Y-126665300D01*
X102502857Y-126665300D02*
X102563809Y-126695776D01*
X102563809Y-126695776D02*
X102685714Y-126695776D01*
X102685714Y-126695776D02*
X102746666Y-126665300D01*
X102746666Y-126665300D02*
X102777142Y-126634823D01*
X102777142Y-126634823D02*
X102807619Y-126573871D01*
X102807619Y-126573871D02*
X102807619Y-126421490D01*
X102807619Y-126421490D02*
X102777142Y-126360538D01*
X102777142Y-126360538D02*
X102746666Y-126330061D01*
X102746666Y-126330061D02*
X102685714Y-126299585D01*
X102685714Y-126299585D02*
X102563809Y-126299585D01*
X102563809Y-126299585D02*
X102502857Y-126330061D01*
X102502857Y-126330061D02*
X102472380Y-126360538D01*
X102472380Y-126360538D02*
X102441904Y-126421490D01*
X101188571Y-118777323D02*
X101158095Y-118807800D01*
X101158095Y-118807800D02*
X101066666Y-118838276D01*
X101066666Y-118838276D02*
X101005714Y-118838276D01*
X101005714Y-118838276D02*
X100914285Y-118807800D01*
X100914285Y-118807800D02*
X100853333Y-118746847D01*
X100853333Y-118746847D02*
X100822856Y-118685895D01*
X100822856Y-118685895D02*
X100792380Y-118563990D01*
X100792380Y-118563990D02*
X100792380Y-118472561D01*
X100792380Y-118472561D02*
X100822856Y-118350657D01*
X100822856Y-118350657D02*
X100853333Y-118289704D01*
X100853333Y-118289704D02*
X100914285Y-118228752D01*
X100914285Y-118228752D02*
X101005714Y-118198276D01*
X101005714Y-118198276D02*
X101066666Y-118198276D01*
X101066666Y-118198276D02*
X101158095Y-118228752D01*
X101158095Y-118228752D02*
X101188571Y-118259228D01*
X101432380Y-118259228D02*
X101462856Y-118228752D01*
X101462856Y-118228752D02*
X101523809Y-118198276D01*
X101523809Y-118198276D02*
X101676190Y-118198276D01*
X101676190Y-118198276D02*
X101737142Y-118228752D01*
X101737142Y-118228752D02*
X101767618Y-118259228D01*
X101767618Y-118259228D02*
X101798095Y-118320180D01*
X101798095Y-118320180D02*
X101798095Y-118381133D01*
X101798095Y-118381133D02*
X101767618Y-118472561D01*
X101767618Y-118472561D02*
X101401904Y-118838276D01*
X101401904Y-118838276D02*
X101798095Y-118838276D01*
X102346666Y-118411609D02*
X102346666Y-118838276D01*
X102194285Y-118167800D02*
X102041904Y-118624942D01*
X102041904Y-118624942D02*
X102438095Y-118624942D01*
X101538571Y-125538276D02*
X101325237Y-125233514D01*
X101172856Y-125538276D02*
X101172856Y-124898276D01*
X101172856Y-124898276D02*
X101416666Y-124898276D01*
X101416666Y-124898276D02*
X101477618Y-124928752D01*
X101477618Y-124928752D02*
X101508095Y-124959228D01*
X101508095Y-124959228D02*
X101538571Y-125020180D01*
X101538571Y-125020180D02*
X101538571Y-125111609D01*
X101538571Y-125111609D02*
X101508095Y-125172561D01*
X101508095Y-125172561D02*
X101477618Y-125203038D01*
X101477618Y-125203038D02*
X101416666Y-125233514D01*
X101416666Y-125233514D02*
X101172856Y-125233514D01*
X101782380Y-124959228D02*
X101812856Y-124928752D01*
X101812856Y-124928752D02*
X101873809Y-124898276D01*
X101873809Y-124898276D02*
X102026190Y-124898276D01*
X102026190Y-124898276D02*
X102087142Y-124928752D01*
X102087142Y-124928752D02*
X102117618Y-124959228D01*
X102117618Y-124959228D02*
X102148095Y-125020180D01*
X102148095Y-125020180D02*
X102148095Y-125081133D01*
X102148095Y-125081133D02*
X102117618Y-125172561D01*
X102117618Y-125172561D02*
X101751904Y-125538276D01*
X101751904Y-125538276D02*
X102148095Y-125538276D01*
X102361428Y-124898276D02*
X102757619Y-124898276D01*
X102757619Y-124898276D02*
X102544285Y-125142085D01*
X102544285Y-125142085D02*
X102635714Y-125142085D01*
X102635714Y-125142085D02*
X102696666Y-125172561D01*
X102696666Y-125172561D02*
X102727142Y-125203038D01*
X102727142Y-125203038D02*
X102757619Y-125263990D01*
X102757619Y-125263990D02*
X102757619Y-125416371D01*
X102757619Y-125416371D02*
X102727142Y-125477323D01*
X102727142Y-125477323D02*
X102696666Y-125507800D01*
X102696666Y-125507800D02*
X102635714Y-125538276D01*
X102635714Y-125538276D02*
X102452857Y-125538276D01*
X102452857Y-125538276D02*
X102391904Y-125507800D01*
X102391904Y-125507800D02*
X102361428Y-125477323D01*
X84627323Y-91611428D02*
X84657800Y-91641904D01*
X84657800Y-91641904D02*
X84688276Y-91733333D01*
X84688276Y-91733333D02*
X84688276Y-91794285D01*
X84688276Y-91794285D02*
X84657800Y-91885714D01*
X84657800Y-91885714D02*
X84596847Y-91946666D01*
X84596847Y-91946666D02*
X84535895Y-91977143D01*
X84535895Y-91977143D02*
X84413990Y-92007619D01*
X84413990Y-92007619D02*
X84322561Y-92007619D01*
X84322561Y-92007619D02*
X84200657Y-91977143D01*
X84200657Y-91977143D02*
X84139704Y-91946666D01*
X84139704Y-91946666D02*
X84078752Y-91885714D01*
X84078752Y-91885714D02*
X84048276Y-91794285D01*
X84048276Y-91794285D02*
X84048276Y-91733333D01*
X84048276Y-91733333D02*
X84078752Y-91641904D01*
X84078752Y-91641904D02*
X84109228Y-91611428D01*
X84048276Y-91032381D02*
X84048276Y-91337143D01*
X84048276Y-91337143D02*
X84353038Y-91367619D01*
X84353038Y-91367619D02*
X84322561Y-91337143D01*
X84322561Y-91337143D02*
X84292085Y-91276190D01*
X84292085Y-91276190D02*
X84292085Y-91123809D01*
X84292085Y-91123809D02*
X84322561Y-91062857D01*
X84322561Y-91062857D02*
X84353038Y-91032381D01*
X84353038Y-91032381D02*
X84413990Y-91001904D01*
X84413990Y-91001904D02*
X84566371Y-91001904D01*
X84566371Y-91001904D02*
X84627323Y-91032381D01*
X84627323Y-91032381D02*
X84657800Y-91062857D01*
X84657800Y-91062857D02*
X84688276Y-91123809D01*
X84688276Y-91123809D02*
X84688276Y-91276190D01*
X84688276Y-91276190D02*
X84657800Y-91337143D01*
X84657800Y-91337143D02*
X84627323Y-91367619D01*
X84688276Y-90697142D02*
X84688276Y-90575238D01*
X84688276Y-90575238D02*
X84657800Y-90514285D01*
X84657800Y-90514285D02*
X84627323Y-90483809D01*
X84627323Y-90483809D02*
X84535895Y-90422857D01*
X84535895Y-90422857D02*
X84413990Y-90392380D01*
X84413990Y-90392380D02*
X84170180Y-90392380D01*
X84170180Y-90392380D02*
X84109228Y-90422857D01*
X84109228Y-90422857D02*
X84078752Y-90453333D01*
X84078752Y-90453333D02*
X84048276Y-90514285D01*
X84048276Y-90514285D02*
X84048276Y-90636190D01*
X84048276Y-90636190D02*
X84078752Y-90697142D01*
X84078752Y-90697142D02*
X84109228Y-90727619D01*
X84109228Y-90727619D02*
X84170180Y-90758095D01*
X84170180Y-90758095D02*
X84322561Y-90758095D01*
X84322561Y-90758095D02*
X84383514Y-90727619D01*
X84383514Y-90727619D02*
X84413990Y-90697142D01*
X84413990Y-90697142D02*
X84444466Y-90636190D01*
X84444466Y-90636190D02*
X84444466Y-90514285D01*
X84444466Y-90514285D02*
X84413990Y-90453333D01*
X84413990Y-90453333D02*
X84383514Y-90422857D01*
X84383514Y-90422857D02*
X84322561Y-90392380D01*
X83338276Y-143611428D02*
X83033514Y-143824762D01*
X83338276Y-143977143D02*
X82698276Y-143977143D01*
X82698276Y-143977143D02*
X82698276Y-143733333D01*
X82698276Y-143733333D02*
X82728752Y-143672381D01*
X82728752Y-143672381D02*
X82759228Y-143641904D01*
X82759228Y-143641904D02*
X82820180Y-143611428D01*
X82820180Y-143611428D02*
X82911609Y-143611428D01*
X82911609Y-143611428D02*
X82972561Y-143641904D01*
X82972561Y-143641904D02*
X83003038Y-143672381D01*
X83003038Y-143672381D02*
X83033514Y-143733333D01*
X83033514Y-143733333D02*
X83033514Y-143977143D01*
X82759228Y-143367619D02*
X82728752Y-143337143D01*
X82728752Y-143337143D02*
X82698276Y-143276190D01*
X82698276Y-143276190D02*
X82698276Y-143123809D01*
X82698276Y-143123809D02*
X82728752Y-143062857D01*
X82728752Y-143062857D02*
X82759228Y-143032381D01*
X82759228Y-143032381D02*
X82820180Y-143001904D01*
X82820180Y-143001904D02*
X82881133Y-143001904D01*
X82881133Y-143001904D02*
X82972561Y-143032381D01*
X82972561Y-143032381D02*
X83338276Y-143398095D01*
X83338276Y-143398095D02*
X83338276Y-143001904D01*
X82972561Y-142636190D02*
X82942085Y-142697142D01*
X82942085Y-142697142D02*
X82911609Y-142727619D01*
X82911609Y-142727619D02*
X82850657Y-142758095D01*
X82850657Y-142758095D02*
X82820180Y-142758095D01*
X82820180Y-142758095D02*
X82759228Y-142727619D01*
X82759228Y-142727619D02*
X82728752Y-142697142D01*
X82728752Y-142697142D02*
X82698276Y-142636190D01*
X82698276Y-142636190D02*
X82698276Y-142514285D01*
X82698276Y-142514285D02*
X82728752Y-142453333D01*
X82728752Y-142453333D02*
X82759228Y-142422857D01*
X82759228Y-142422857D02*
X82820180Y-142392380D01*
X82820180Y-142392380D02*
X82850657Y-142392380D01*
X82850657Y-142392380D02*
X82911609Y-142422857D01*
X82911609Y-142422857D02*
X82942085Y-142453333D01*
X82942085Y-142453333D02*
X82972561Y-142514285D01*
X82972561Y-142514285D02*
X82972561Y-142636190D01*
X82972561Y-142636190D02*
X83003038Y-142697142D01*
X83003038Y-142697142D02*
X83033514Y-142727619D01*
X83033514Y-142727619D02*
X83094466Y-142758095D01*
X83094466Y-142758095D02*
X83216371Y-142758095D01*
X83216371Y-142758095D02*
X83277323Y-142727619D01*
X83277323Y-142727619D02*
X83307800Y-142697142D01*
X83307800Y-142697142D02*
X83338276Y-142636190D01*
X83338276Y-142636190D02*
X83338276Y-142514285D01*
X83338276Y-142514285D02*
X83307800Y-142453333D01*
X83307800Y-142453333D02*
X83277323Y-142422857D01*
X83277323Y-142422857D02*
X83216371Y-142392380D01*
X83216371Y-142392380D02*
X83094466Y-142392380D01*
X83094466Y-142392380D02*
X83033514Y-142422857D01*
X83033514Y-142422857D02*
X83003038Y-142453333D01*
X83003038Y-142453333D02*
X82972561Y-142514285D01*
X82393333Y-154695776D02*
X82179999Y-154391014D01*
X82027618Y-154695776D02*
X82027618Y-154055776D01*
X82027618Y-154055776D02*
X82271428Y-154055776D01*
X82271428Y-154055776D02*
X82332380Y-154086252D01*
X82332380Y-154086252D02*
X82362857Y-154116728D01*
X82362857Y-154116728D02*
X82393333Y-154177680D01*
X82393333Y-154177680D02*
X82393333Y-154269109D01*
X82393333Y-154269109D02*
X82362857Y-154330061D01*
X82362857Y-154330061D02*
X82332380Y-154360538D01*
X82332380Y-154360538D02*
X82271428Y-154391014D01*
X82271428Y-154391014D02*
X82027618Y-154391014D01*
X83002857Y-154695776D02*
X82637142Y-154695776D01*
X82819999Y-154695776D02*
X82819999Y-154055776D01*
X82819999Y-154055776D02*
X82759047Y-154147204D01*
X82759047Y-154147204D02*
X82698095Y-154208157D01*
X82698095Y-154208157D02*
X82637142Y-154238633D01*
X95488571Y-101627323D02*
X95458095Y-101657800D01*
X95458095Y-101657800D02*
X95366666Y-101688276D01*
X95366666Y-101688276D02*
X95305714Y-101688276D01*
X95305714Y-101688276D02*
X95214285Y-101657800D01*
X95214285Y-101657800D02*
X95153333Y-101596847D01*
X95153333Y-101596847D02*
X95122856Y-101535895D01*
X95122856Y-101535895D02*
X95092380Y-101413990D01*
X95092380Y-101413990D02*
X95092380Y-101322561D01*
X95092380Y-101322561D02*
X95122856Y-101200657D01*
X95122856Y-101200657D02*
X95153333Y-101139704D01*
X95153333Y-101139704D02*
X95214285Y-101078752D01*
X95214285Y-101078752D02*
X95305714Y-101048276D01*
X95305714Y-101048276D02*
X95366666Y-101048276D01*
X95366666Y-101048276D02*
X95458095Y-101078752D01*
X95458095Y-101078752D02*
X95488571Y-101109228D01*
X96037142Y-101261609D02*
X96037142Y-101688276D01*
X95884761Y-101017800D02*
X95732380Y-101474942D01*
X95732380Y-101474942D02*
X96128571Y-101474942D01*
X96311428Y-101048276D02*
X96707619Y-101048276D01*
X96707619Y-101048276D02*
X96494285Y-101292085D01*
X96494285Y-101292085D02*
X96585714Y-101292085D01*
X96585714Y-101292085D02*
X96646666Y-101322561D01*
X96646666Y-101322561D02*
X96677142Y-101353038D01*
X96677142Y-101353038D02*
X96707619Y-101413990D01*
X96707619Y-101413990D02*
X96707619Y-101566371D01*
X96707619Y-101566371D02*
X96677142Y-101627323D01*
X96677142Y-101627323D02*
X96646666Y-101657800D01*
X96646666Y-101657800D02*
X96585714Y-101688276D01*
X96585714Y-101688276D02*
X96402857Y-101688276D01*
X96402857Y-101688276D02*
X96341904Y-101657800D01*
X96341904Y-101657800D02*
X96311428Y-101627323D01*
X91238571Y-136938276D02*
X91025237Y-136633514D01*
X90872856Y-136938276D02*
X90872856Y-136298276D01*
X90872856Y-136298276D02*
X91116666Y-136298276D01*
X91116666Y-136298276D02*
X91177618Y-136328752D01*
X91177618Y-136328752D02*
X91208095Y-136359228D01*
X91208095Y-136359228D02*
X91238571Y-136420180D01*
X91238571Y-136420180D02*
X91238571Y-136511609D01*
X91238571Y-136511609D02*
X91208095Y-136572561D01*
X91208095Y-136572561D02*
X91177618Y-136603038D01*
X91177618Y-136603038D02*
X91116666Y-136633514D01*
X91116666Y-136633514D02*
X90872856Y-136633514D01*
X91787142Y-136298276D02*
X91665237Y-136298276D01*
X91665237Y-136298276D02*
X91604285Y-136328752D01*
X91604285Y-136328752D02*
X91573809Y-136359228D01*
X91573809Y-136359228D02*
X91512856Y-136450657D01*
X91512856Y-136450657D02*
X91482380Y-136572561D01*
X91482380Y-136572561D02*
X91482380Y-136816371D01*
X91482380Y-136816371D02*
X91512856Y-136877323D01*
X91512856Y-136877323D02*
X91543333Y-136907800D01*
X91543333Y-136907800D02*
X91604285Y-136938276D01*
X91604285Y-136938276D02*
X91726190Y-136938276D01*
X91726190Y-136938276D02*
X91787142Y-136907800D01*
X91787142Y-136907800D02*
X91817618Y-136877323D01*
X91817618Y-136877323D02*
X91848095Y-136816371D01*
X91848095Y-136816371D02*
X91848095Y-136663990D01*
X91848095Y-136663990D02*
X91817618Y-136603038D01*
X91817618Y-136603038D02*
X91787142Y-136572561D01*
X91787142Y-136572561D02*
X91726190Y-136542085D01*
X91726190Y-136542085D02*
X91604285Y-136542085D01*
X91604285Y-136542085D02*
X91543333Y-136572561D01*
X91543333Y-136572561D02*
X91512856Y-136603038D01*
X91512856Y-136603038D02*
X91482380Y-136663990D01*
X92061428Y-136298276D02*
X92457619Y-136298276D01*
X92457619Y-136298276D02*
X92244285Y-136542085D01*
X92244285Y-136542085D02*
X92335714Y-136542085D01*
X92335714Y-136542085D02*
X92396666Y-136572561D01*
X92396666Y-136572561D02*
X92427142Y-136603038D01*
X92427142Y-136603038D02*
X92457619Y-136663990D01*
X92457619Y-136663990D02*
X92457619Y-136816371D01*
X92457619Y-136816371D02*
X92427142Y-136877323D01*
X92427142Y-136877323D02*
X92396666Y-136907800D01*
X92396666Y-136907800D02*
X92335714Y-136938276D01*
X92335714Y-136938276D02*
X92152857Y-136938276D01*
X92152857Y-136938276D02*
X92091904Y-136907800D01*
X92091904Y-136907800D02*
X92061428Y-136877323D01*
X101527323Y-89361428D02*
X101557800Y-89391904D01*
X101557800Y-89391904D02*
X101588276Y-89483333D01*
X101588276Y-89483333D02*
X101588276Y-89544285D01*
X101588276Y-89544285D02*
X101557800Y-89635714D01*
X101557800Y-89635714D02*
X101496847Y-89696666D01*
X101496847Y-89696666D02*
X101435895Y-89727143D01*
X101435895Y-89727143D02*
X101313990Y-89757619D01*
X101313990Y-89757619D02*
X101222561Y-89757619D01*
X101222561Y-89757619D02*
X101100657Y-89727143D01*
X101100657Y-89727143D02*
X101039704Y-89696666D01*
X101039704Y-89696666D02*
X100978752Y-89635714D01*
X100978752Y-89635714D02*
X100948276Y-89544285D01*
X100948276Y-89544285D02*
X100948276Y-89483333D01*
X100948276Y-89483333D02*
X100978752Y-89391904D01*
X100978752Y-89391904D02*
X101009228Y-89361428D01*
X100948276Y-88782381D02*
X100948276Y-89087143D01*
X100948276Y-89087143D02*
X101253038Y-89117619D01*
X101253038Y-89117619D02*
X101222561Y-89087143D01*
X101222561Y-89087143D02*
X101192085Y-89026190D01*
X101192085Y-89026190D02*
X101192085Y-88873809D01*
X101192085Y-88873809D02*
X101222561Y-88812857D01*
X101222561Y-88812857D02*
X101253038Y-88782381D01*
X101253038Y-88782381D02*
X101313990Y-88751904D01*
X101313990Y-88751904D02*
X101466371Y-88751904D01*
X101466371Y-88751904D02*
X101527323Y-88782381D01*
X101527323Y-88782381D02*
X101557800Y-88812857D01*
X101557800Y-88812857D02*
X101588276Y-88873809D01*
X101588276Y-88873809D02*
X101588276Y-89026190D01*
X101588276Y-89026190D02*
X101557800Y-89087143D01*
X101557800Y-89087143D02*
X101527323Y-89117619D01*
X101588276Y-88142380D02*
X101588276Y-88508095D01*
X101588276Y-88325238D02*
X100948276Y-88325238D01*
X100948276Y-88325238D02*
X101039704Y-88386190D01*
X101039704Y-88386190D02*
X101100657Y-88447142D01*
X101100657Y-88447142D02*
X101131133Y-88508095D01*
X82188276Y-123406666D02*
X81883514Y-123620000D01*
X82188276Y-123772381D02*
X81548276Y-123772381D01*
X81548276Y-123772381D02*
X81548276Y-123528571D01*
X81548276Y-123528571D02*
X81578752Y-123467619D01*
X81578752Y-123467619D02*
X81609228Y-123437142D01*
X81609228Y-123437142D02*
X81670180Y-123406666D01*
X81670180Y-123406666D02*
X81761609Y-123406666D01*
X81761609Y-123406666D02*
X81822561Y-123437142D01*
X81822561Y-123437142D02*
X81853038Y-123467619D01*
X81853038Y-123467619D02*
X81883514Y-123528571D01*
X81883514Y-123528571D02*
X81883514Y-123772381D01*
X81822561Y-123040952D02*
X81792085Y-123101904D01*
X81792085Y-123101904D02*
X81761609Y-123132381D01*
X81761609Y-123132381D02*
X81700657Y-123162857D01*
X81700657Y-123162857D02*
X81670180Y-123162857D01*
X81670180Y-123162857D02*
X81609228Y-123132381D01*
X81609228Y-123132381D02*
X81578752Y-123101904D01*
X81578752Y-123101904D02*
X81548276Y-123040952D01*
X81548276Y-123040952D02*
X81548276Y-122919047D01*
X81548276Y-122919047D02*
X81578752Y-122858095D01*
X81578752Y-122858095D02*
X81609228Y-122827619D01*
X81609228Y-122827619D02*
X81670180Y-122797142D01*
X81670180Y-122797142D02*
X81700657Y-122797142D01*
X81700657Y-122797142D02*
X81761609Y-122827619D01*
X81761609Y-122827619D02*
X81792085Y-122858095D01*
X81792085Y-122858095D02*
X81822561Y-122919047D01*
X81822561Y-122919047D02*
X81822561Y-123040952D01*
X81822561Y-123040952D02*
X81853038Y-123101904D01*
X81853038Y-123101904D02*
X81883514Y-123132381D01*
X81883514Y-123132381D02*
X81944466Y-123162857D01*
X81944466Y-123162857D02*
X82066371Y-123162857D01*
X82066371Y-123162857D02*
X82127323Y-123132381D01*
X82127323Y-123132381D02*
X82157800Y-123101904D01*
X82157800Y-123101904D02*
X82188276Y-123040952D01*
X82188276Y-123040952D02*
X82188276Y-122919047D01*
X82188276Y-122919047D02*
X82157800Y-122858095D01*
X82157800Y-122858095D02*
X82127323Y-122827619D01*
X82127323Y-122827619D02*
X82066371Y-122797142D01*
X82066371Y-122797142D02*
X81944466Y-122797142D01*
X81944466Y-122797142D02*
X81883514Y-122827619D01*
X81883514Y-122827619D02*
X81853038Y-122858095D01*
X81853038Y-122858095D02*
X81822561Y-122919047D01*
X92488276Y-128518928D02*
X92183514Y-128732262D01*
X92488276Y-128884643D02*
X91848276Y-128884643D01*
X91848276Y-128884643D02*
X91848276Y-128640833D01*
X91848276Y-128640833D02*
X91878752Y-128579881D01*
X91878752Y-128579881D02*
X91909228Y-128549404D01*
X91909228Y-128549404D02*
X91970180Y-128518928D01*
X91970180Y-128518928D02*
X92061609Y-128518928D01*
X92061609Y-128518928D02*
X92122561Y-128549404D01*
X92122561Y-128549404D02*
X92153038Y-128579881D01*
X92153038Y-128579881D02*
X92183514Y-128640833D01*
X92183514Y-128640833D02*
X92183514Y-128884643D01*
X91848276Y-128305595D02*
X91848276Y-127909404D01*
X91848276Y-127909404D02*
X92092085Y-128122738D01*
X92092085Y-128122738D02*
X92092085Y-128031309D01*
X92092085Y-128031309D02*
X92122561Y-127970357D01*
X92122561Y-127970357D02*
X92153038Y-127939881D01*
X92153038Y-127939881D02*
X92213990Y-127909404D01*
X92213990Y-127909404D02*
X92366371Y-127909404D01*
X92366371Y-127909404D02*
X92427323Y-127939881D01*
X92427323Y-127939881D02*
X92457800Y-127970357D01*
X92457800Y-127970357D02*
X92488276Y-128031309D01*
X92488276Y-128031309D02*
X92488276Y-128214166D01*
X92488276Y-128214166D02*
X92457800Y-128275119D01*
X92457800Y-128275119D02*
X92427323Y-128305595D01*
X91848276Y-127360833D02*
X91848276Y-127482738D01*
X91848276Y-127482738D02*
X91878752Y-127543690D01*
X91878752Y-127543690D02*
X91909228Y-127574166D01*
X91909228Y-127574166D02*
X92000657Y-127635119D01*
X92000657Y-127635119D02*
X92122561Y-127665595D01*
X92122561Y-127665595D02*
X92366371Y-127665595D01*
X92366371Y-127665595D02*
X92427323Y-127635119D01*
X92427323Y-127635119D02*
X92457800Y-127604642D01*
X92457800Y-127604642D02*
X92488276Y-127543690D01*
X92488276Y-127543690D02*
X92488276Y-127421785D01*
X92488276Y-127421785D02*
X92457800Y-127360833D01*
X92457800Y-127360833D02*
X92427323Y-127330357D01*
X92427323Y-127330357D02*
X92366371Y-127299880D01*
X92366371Y-127299880D02*
X92213990Y-127299880D01*
X92213990Y-127299880D02*
X92153038Y-127330357D01*
X92153038Y-127330357D02*
X92122561Y-127360833D01*
X92122561Y-127360833D02*
X92092085Y-127421785D01*
X92092085Y-127421785D02*
X92092085Y-127543690D01*
X92092085Y-127543690D02*
X92122561Y-127604642D01*
X92122561Y-127604642D02*
X92153038Y-127635119D01*
X92153038Y-127635119D02*
X92213990Y-127665595D01*
X96962380Y-119248276D02*
X96962380Y-119766371D01*
X96962380Y-119766371D02*
X96992857Y-119827323D01*
X96992857Y-119827323D02*
X97023333Y-119857800D01*
X97023333Y-119857800D02*
X97084285Y-119888276D01*
X97084285Y-119888276D02*
X97206190Y-119888276D01*
X97206190Y-119888276D02*
X97267142Y-119857800D01*
X97267142Y-119857800D02*
X97297619Y-119827323D01*
X97297619Y-119827323D02*
X97328095Y-119766371D01*
X97328095Y-119766371D02*
X97328095Y-119248276D01*
X97907142Y-119461609D02*
X97907142Y-119888276D01*
X97754761Y-119217800D02*
X97602380Y-119674942D01*
X97602380Y-119674942D02*
X97998571Y-119674942D01*
X93827323Y-96361428D02*
X93857800Y-96391904D01*
X93857800Y-96391904D02*
X93888276Y-96483333D01*
X93888276Y-96483333D02*
X93888276Y-96544285D01*
X93888276Y-96544285D02*
X93857800Y-96635714D01*
X93857800Y-96635714D02*
X93796847Y-96696666D01*
X93796847Y-96696666D02*
X93735895Y-96727143D01*
X93735895Y-96727143D02*
X93613990Y-96757619D01*
X93613990Y-96757619D02*
X93522561Y-96757619D01*
X93522561Y-96757619D02*
X93400657Y-96727143D01*
X93400657Y-96727143D02*
X93339704Y-96696666D01*
X93339704Y-96696666D02*
X93278752Y-96635714D01*
X93278752Y-96635714D02*
X93248276Y-96544285D01*
X93248276Y-96544285D02*
X93248276Y-96483333D01*
X93248276Y-96483333D02*
X93278752Y-96391904D01*
X93278752Y-96391904D02*
X93309228Y-96361428D01*
X93461609Y-95812857D02*
X93888276Y-95812857D01*
X93217800Y-95965238D02*
X93674942Y-96117619D01*
X93674942Y-96117619D02*
X93674942Y-95721428D01*
X93461609Y-95203333D02*
X93888276Y-95203333D01*
X93217800Y-95355714D02*
X93674942Y-95508095D01*
X93674942Y-95508095D02*
X93674942Y-95111904D01*
X81927323Y-91361428D02*
X81957800Y-91391904D01*
X81957800Y-91391904D02*
X81988276Y-91483333D01*
X81988276Y-91483333D02*
X81988276Y-91544285D01*
X81988276Y-91544285D02*
X81957800Y-91635714D01*
X81957800Y-91635714D02*
X81896847Y-91696666D01*
X81896847Y-91696666D02*
X81835895Y-91727143D01*
X81835895Y-91727143D02*
X81713990Y-91757619D01*
X81713990Y-91757619D02*
X81622561Y-91757619D01*
X81622561Y-91757619D02*
X81500657Y-91727143D01*
X81500657Y-91727143D02*
X81439704Y-91696666D01*
X81439704Y-91696666D02*
X81378752Y-91635714D01*
X81378752Y-91635714D02*
X81348276Y-91544285D01*
X81348276Y-91544285D02*
X81348276Y-91483333D01*
X81348276Y-91483333D02*
X81378752Y-91391904D01*
X81378752Y-91391904D02*
X81409228Y-91361428D01*
X81348276Y-90782381D02*
X81348276Y-91087143D01*
X81348276Y-91087143D02*
X81653038Y-91117619D01*
X81653038Y-91117619D02*
X81622561Y-91087143D01*
X81622561Y-91087143D02*
X81592085Y-91026190D01*
X81592085Y-91026190D02*
X81592085Y-90873809D01*
X81592085Y-90873809D02*
X81622561Y-90812857D01*
X81622561Y-90812857D02*
X81653038Y-90782381D01*
X81653038Y-90782381D02*
X81713990Y-90751904D01*
X81713990Y-90751904D02*
X81866371Y-90751904D01*
X81866371Y-90751904D02*
X81927323Y-90782381D01*
X81927323Y-90782381D02*
X81957800Y-90812857D01*
X81957800Y-90812857D02*
X81988276Y-90873809D01*
X81988276Y-90873809D02*
X81988276Y-91026190D01*
X81988276Y-91026190D02*
X81957800Y-91087143D01*
X81957800Y-91087143D02*
X81927323Y-91117619D01*
X81348276Y-90172857D02*
X81348276Y-90477619D01*
X81348276Y-90477619D02*
X81653038Y-90508095D01*
X81653038Y-90508095D02*
X81622561Y-90477619D01*
X81622561Y-90477619D02*
X81592085Y-90416666D01*
X81592085Y-90416666D02*
X81592085Y-90264285D01*
X81592085Y-90264285D02*
X81622561Y-90203333D01*
X81622561Y-90203333D02*
X81653038Y-90172857D01*
X81653038Y-90172857D02*
X81713990Y-90142380D01*
X81713990Y-90142380D02*
X81866371Y-90142380D01*
X81866371Y-90142380D02*
X81927323Y-90172857D01*
X81927323Y-90172857D02*
X81957800Y-90203333D01*
X81957800Y-90203333D02*
X81988276Y-90264285D01*
X81988276Y-90264285D02*
X81988276Y-90416666D01*
X81988276Y-90416666D02*
X81957800Y-90477619D01*
X81957800Y-90477619D02*
X81927323Y-90508095D01*
X92477323Y-139261428D02*
X92507800Y-139291904D01*
X92507800Y-139291904D02*
X92538276Y-139383333D01*
X92538276Y-139383333D02*
X92538276Y-139444285D01*
X92538276Y-139444285D02*
X92507800Y-139535714D01*
X92507800Y-139535714D02*
X92446847Y-139596666D01*
X92446847Y-139596666D02*
X92385895Y-139627143D01*
X92385895Y-139627143D02*
X92263990Y-139657619D01*
X92263990Y-139657619D02*
X92172561Y-139657619D01*
X92172561Y-139657619D02*
X92050657Y-139627143D01*
X92050657Y-139627143D02*
X91989704Y-139596666D01*
X91989704Y-139596666D02*
X91928752Y-139535714D01*
X91928752Y-139535714D02*
X91898276Y-139444285D01*
X91898276Y-139444285D02*
X91898276Y-139383333D01*
X91898276Y-139383333D02*
X91928752Y-139291904D01*
X91928752Y-139291904D02*
X91959228Y-139261428D01*
X92172561Y-138895714D02*
X92142085Y-138956666D01*
X92142085Y-138956666D02*
X92111609Y-138987143D01*
X92111609Y-138987143D02*
X92050657Y-139017619D01*
X92050657Y-139017619D02*
X92020180Y-139017619D01*
X92020180Y-139017619D02*
X91959228Y-138987143D01*
X91959228Y-138987143D02*
X91928752Y-138956666D01*
X91928752Y-138956666D02*
X91898276Y-138895714D01*
X91898276Y-138895714D02*
X91898276Y-138773809D01*
X91898276Y-138773809D02*
X91928752Y-138712857D01*
X91928752Y-138712857D02*
X91959228Y-138682381D01*
X91959228Y-138682381D02*
X92020180Y-138651904D01*
X92020180Y-138651904D02*
X92050657Y-138651904D01*
X92050657Y-138651904D02*
X92111609Y-138682381D01*
X92111609Y-138682381D02*
X92142085Y-138712857D01*
X92142085Y-138712857D02*
X92172561Y-138773809D01*
X92172561Y-138773809D02*
X92172561Y-138895714D01*
X92172561Y-138895714D02*
X92203038Y-138956666D01*
X92203038Y-138956666D02*
X92233514Y-138987143D01*
X92233514Y-138987143D02*
X92294466Y-139017619D01*
X92294466Y-139017619D02*
X92416371Y-139017619D01*
X92416371Y-139017619D02*
X92477323Y-138987143D01*
X92477323Y-138987143D02*
X92507800Y-138956666D01*
X92507800Y-138956666D02*
X92538276Y-138895714D01*
X92538276Y-138895714D02*
X92538276Y-138773809D01*
X92538276Y-138773809D02*
X92507800Y-138712857D01*
X92507800Y-138712857D02*
X92477323Y-138682381D01*
X92477323Y-138682381D02*
X92416371Y-138651904D01*
X92416371Y-138651904D02*
X92294466Y-138651904D01*
X92294466Y-138651904D02*
X92233514Y-138682381D01*
X92233514Y-138682381D02*
X92203038Y-138712857D01*
X92203038Y-138712857D02*
X92172561Y-138773809D01*
X92538276Y-138042380D02*
X92538276Y-138408095D01*
X92538276Y-138225238D02*
X91898276Y-138225238D01*
X91898276Y-138225238D02*
X91989704Y-138286190D01*
X91989704Y-138286190D02*
X92050657Y-138347142D01*
X92050657Y-138347142D02*
X92081133Y-138408095D01*
X102027323Y-155411428D02*
X102057800Y-155441904D01*
X102057800Y-155441904D02*
X102088276Y-155533333D01*
X102088276Y-155533333D02*
X102088276Y-155594285D01*
X102088276Y-155594285D02*
X102057800Y-155685714D01*
X102057800Y-155685714D02*
X101996847Y-155746666D01*
X101996847Y-155746666D02*
X101935895Y-155777143D01*
X101935895Y-155777143D02*
X101813990Y-155807619D01*
X101813990Y-155807619D02*
X101722561Y-155807619D01*
X101722561Y-155807619D02*
X101600657Y-155777143D01*
X101600657Y-155777143D02*
X101539704Y-155746666D01*
X101539704Y-155746666D02*
X101478752Y-155685714D01*
X101478752Y-155685714D02*
X101448276Y-155594285D01*
X101448276Y-155594285D02*
X101448276Y-155533333D01*
X101448276Y-155533333D02*
X101478752Y-155441904D01*
X101478752Y-155441904D02*
X101509228Y-155411428D01*
X101448276Y-154862857D02*
X101448276Y-154984762D01*
X101448276Y-154984762D02*
X101478752Y-155045714D01*
X101478752Y-155045714D02*
X101509228Y-155076190D01*
X101509228Y-155076190D02*
X101600657Y-155137143D01*
X101600657Y-155137143D02*
X101722561Y-155167619D01*
X101722561Y-155167619D02*
X101966371Y-155167619D01*
X101966371Y-155167619D02*
X102027323Y-155137143D01*
X102027323Y-155137143D02*
X102057800Y-155106666D01*
X102057800Y-155106666D02*
X102088276Y-155045714D01*
X102088276Y-155045714D02*
X102088276Y-154923809D01*
X102088276Y-154923809D02*
X102057800Y-154862857D01*
X102057800Y-154862857D02*
X102027323Y-154832381D01*
X102027323Y-154832381D02*
X101966371Y-154801904D01*
X101966371Y-154801904D02*
X101813990Y-154801904D01*
X101813990Y-154801904D02*
X101753038Y-154832381D01*
X101753038Y-154832381D02*
X101722561Y-154862857D01*
X101722561Y-154862857D02*
X101692085Y-154923809D01*
X101692085Y-154923809D02*
X101692085Y-155045714D01*
X101692085Y-155045714D02*
X101722561Y-155106666D01*
X101722561Y-155106666D02*
X101753038Y-155137143D01*
X101753038Y-155137143D02*
X101813990Y-155167619D01*
X101448276Y-154588571D02*
X101448276Y-154192380D01*
X101448276Y-154192380D02*
X101692085Y-154405714D01*
X101692085Y-154405714D02*
X101692085Y-154314285D01*
X101692085Y-154314285D02*
X101722561Y-154253333D01*
X101722561Y-154253333D02*
X101753038Y-154222857D01*
X101753038Y-154222857D02*
X101813990Y-154192380D01*
X101813990Y-154192380D02*
X101966371Y-154192380D01*
X101966371Y-154192380D02*
X102027323Y-154222857D01*
X102027323Y-154222857D02*
X102057800Y-154253333D01*
X102057800Y-154253333D02*
X102088276Y-154314285D01*
X102088276Y-154314285D02*
X102088276Y-154497142D01*
X102088276Y-154497142D02*
X102057800Y-154558095D01*
X102057800Y-154558095D02*
X102027323Y-154588571D01*
X90388571Y-102027323D02*
X90358095Y-102057800D01*
X90358095Y-102057800D02*
X90266666Y-102088276D01*
X90266666Y-102088276D02*
X90205714Y-102088276D01*
X90205714Y-102088276D02*
X90114285Y-102057800D01*
X90114285Y-102057800D02*
X90053333Y-101996847D01*
X90053333Y-101996847D02*
X90022856Y-101935895D01*
X90022856Y-101935895D02*
X89992380Y-101813990D01*
X89992380Y-101813990D02*
X89992380Y-101722561D01*
X89992380Y-101722561D02*
X90022856Y-101600657D01*
X90022856Y-101600657D02*
X90053333Y-101539704D01*
X90053333Y-101539704D02*
X90114285Y-101478752D01*
X90114285Y-101478752D02*
X90205714Y-101448276D01*
X90205714Y-101448276D02*
X90266666Y-101448276D01*
X90266666Y-101448276D02*
X90358095Y-101478752D01*
X90358095Y-101478752D02*
X90388571Y-101509228D01*
X90937142Y-101448276D02*
X90815237Y-101448276D01*
X90815237Y-101448276D02*
X90754285Y-101478752D01*
X90754285Y-101478752D02*
X90723809Y-101509228D01*
X90723809Y-101509228D02*
X90662856Y-101600657D01*
X90662856Y-101600657D02*
X90632380Y-101722561D01*
X90632380Y-101722561D02*
X90632380Y-101966371D01*
X90632380Y-101966371D02*
X90662856Y-102027323D01*
X90662856Y-102027323D02*
X90693333Y-102057800D01*
X90693333Y-102057800D02*
X90754285Y-102088276D01*
X90754285Y-102088276D02*
X90876190Y-102088276D01*
X90876190Y-102088276D02*
X90937142Y-102057800D01*
X90937142Y-102057800D02*
X90967618Y-102027323D01*
X90967618Y-102027323D02*
X90998095Y-101966371D01*
X90998095Y-101966371D02*
X90998095Y-101813990D01*
X90998095Y-101813990D02*
X90967618Y-101753038D01*
X90967618Y-101753038D02*
X90937142Y-101722561D01*
X90937142Y-101722561D02*
X90876190Y-101692085D01*
X90876190Y-101692085D02*
X90754285Y-101692085D01*
X90754285Y-101692085D02*
X90693333Y-101722561D01*
X90693333Y-101722561D02*
X90662856Y-101753038D01*
X90662856Y-101753038D02*
X90632380Y-101813990D01*
X91211428Y-101448276D02*
X91638095Y-101448276D01*
X91638095Y-101448276D02*
X91363809Y-102088276D01*
X101438571Y-101688276D02*
X101225237Y-101383514D01*
X101072856Y-101688276D02*
X101072856Y-101048276D01*
X101072856Y-101048276D02*
X101316666Y-101048276D01*
X101316666Y-101048276D02*
X101377618Y-101078752D01*
X101377618Y-101078752D02*
X101408095Y-101109228D01*
X101408095Y-101109228D02*
X101438571Y-101170180D01*
X101438571Y-101170180D02*
X101438571Y-101261609D01*
X101438571Y-101261609D02*
X101408095Y-101322561D01*
X101408095Y-101322561D02*
X101377618Y-101353038D01*
X101377618Y-101353038D02*
X101316666Y-101383514D01*
X101316666Y-101383514D02*
X101072856Y-101383514D01*
X101682380Y-101109228D02*
X101712856Y-101078752D01*
X101712856Y-101078752D02*
X101773809Y-101048276D01*
X101773809Y-101048276D02*
X101926190Y-101048276D01*
X101926190Y-101048276D02*
X101987142Y-101078752D01*
X101987142Y-101078752D02*
X102017618Y-101109228D01*
X102017618Y-101109228D02*
X102048095Y-101170180D01*
X102048095Y-101170180D02*
X102048095Y-101231133D01*
X102048095Y-101231133D02*
X102017618Y-101322561D01*
X102017618Y-101322561D02*
X101651904Y-101688276D01*
X101651904Y-101688276D02*
X102048095Y-101688276D01*
X102261428Y-101048276D02*
X102688095Y-101048276D01*
X102688095Y-101048276D02*
X102413809Y-101688276D01*
X91427323Y-161811428D02*
X91457800Y-161841904D01*
X91457800Y-161841904D02*
X91488276Y-161933333D01*
X91488276Y-161933333D02*
X91488276Y-161994285D01*
X91488276Y-161994285D02*
X91457800Y-162085714D01*
X91457800Y-162085714D02*
X91396847Y-162146666D01*
X91396847Y-162146666D02*
X91335895Y-162177143D01*
X91335895Y-162177143D02*
X91213990Y-162207619D01*
X91213990Y-162207619D02*
X91122561Y-162207619D01*
X91122561Y-162207619D02*
X91000657Y-162177143D01*
X91000657Y-162177143D02*
X90939704Y-162146666D01*
X90939704Y-162146666D02*
X90878752Y-162085714D01*
X90878752Y-162085714D02*
X90848276Y-161994285D01*
X90848276Y-161994285D02*
X90848276Y-161933333D01*
X90848276Y-161933333D02*
X90878752Y-161841904D01*
X90878752Y-161841904D02*
X90909228Y-161811428D01*
X91122561Y-161445714D02*
X91092085Y-161506666D01*
X91092085Y-161506666D02*
X91061609Y-161537143D01*
X91061609Y-161537143D02*
X91000657Y-161567619D01*
X91000657Y-161567619D02*
X90970180Y-161567619D01*
X90970180Y-161567619D02*
X90909228Y-161537143D01*
X90909228Y-161537143D02*
X90878752Y-161506666D01*
X90878752Y-161506666D02*
X90848276Y-161445714D01*
X90848276Y-161445714D02*
X90848276Y-161323809D01*
X90848276Y-161323809D02*
X90878752Y-161262857D01*
X90878752Y-161262857D02*
X90909228Y-161232381D01*
X90909228Y-161232381D02*
X90970180Y-161201904D01*
X90970180Y-161201904D02*
X91000657Y-161201904D01*
X91000657Y-161201904D02*
X91061609Y-161232381D01*
X91061609Y-161232381D02*
X91092085Y-161262857D01*
X91092085Y-161262857D02*
X91122561Y-161323809D01*
X91122561Y-161323809D02*
X91122561Y-161445714D01*
X91122561Y-161445714D02*
X91153038Y-161506666D01*
X91153038Y-161506666D02*
X91183514Y-161537143D01*
X91183514Y-161537143D02*
X91244466Y-161567619D01*
X91244466Y-161567619D02*
X91366371Y-161567619D01*
X91366371Y-161567619D02*
X91427323Y-161537143D01*
X91427323Y-161537143D02*
X91457800Y-161506666D01*
X91457800Y-161506666D02*
X91488276Y-161445714D01*
X91488276Y-161445714D02*
X91488276Y-161323809D01*
X91488276Y-161323809D02*
X91457800Y-161262857D01*
X91457800Y-161262857D02*
X91427323Y-161232381D01*
X91427323Y-161232381D02*
X91366371Y-161201904D01*
X91366371Y-161201904D02*
X91244466Y-161201904D01*
X91244466Y-161201904D02*
X91183514Y-161232381D01*
X91183514Y-161232381D02*
X91153038Y-161262857D01*
X91153038Y-161262857D02*
X91122561Y-161323809D01*
X90848276Y-160805714D02*
X90848276Y-160744761D01*
X90848276Y-160744761D02*
X90878752Y-160683809D01*
X90878752Y-160683809D02*
X90909228Y-160653333D01*
X90909228Y-160653333D02*
X90970180Y-160622857D01*
X90970180Y-160622857D02*
X91092085Y-160592380D01*
X91092085Y-160592380D02*
X91244466Y-160592380D01*
X91244466Y-160592380D02*
X91366371Y-160622857D01*
X91366371Y-160622857D02*
X91427323Y-160653333D01*
X91427323Y-160653333D02*
X91457800Y-160683809D01*
X91457800Y-160683809D02*
X91488276Y-160744761D01*
X91488276Y-160744761D02*
X91488276Y-160805714D01*
X91488276Y-160805714D02*
X91457800Y-160866666D01*
X91457800Y-160866666D02*
X91427323Y-160897142D01*
X91427323Y-160897142D02*
X91366371Y-160927619D01*
X91366371Y-160927619D02*
X91244466Y-160958095D01*
X91244466Y-160958095D02*
X91092085Y-160958095D01*
X91092085Y-160958095D02*
X90970180Y-160927619D01*
X90970180Y-160927619D02*
X90909228Y-160897142D01*
X90909228Y-160897142D02*
X90878752Y-160866666D01*
X90878752Y-160866666D02*
X90848276Y-160805714D01*
X93127323Y-161718928D02*
X93157800Y-161749404D01*
X93157800Y-161749404D02*
X93188276Y-161840833D01*
X93188276Y-161840833D02*
X93188276Y-161901785D01*
X93188276Y-161901785D02*
X93157800Y-161993214D01*
X93157800Y-161993214D02*
X93096847Y-162054166D01*
X93096847Y-162054166D02*
X93035895Y-162084643D01*
X93035895Y-162084643D02*
X92913990Y-162115119D01*
X92913990Y-162115119D02*
X92822561Y-162115119D01*
X92822561Y-162115119D02*
X92700657Y-162084643D01*
X92700657Y-162084643D02*
X92639704Y-162054166D01*
X92639704Y-162054166D02*
X92578752Y-161993214D01*
X92578752Y-161993214D02*
X92548276Y-161901785D01*
X92548276Y-161901785D02*
X92548276Y-161840833D01*
X92548276Y-161840833D02*
X92578752Y-161749404D01*
X92578752Y-161749404D02*
X92609228Y-161718928D01*
X92548276Y-161170357D02*
X92548276Y-161292262D01*
X92548276Y-161292262D02*
X92578752Y-161353214D01*
X92578752Y-161353214D02*
X92609228Y-161383690D01*
X92609228Y-161383690D02*
X92700657Y-161444643D01*
X92700657Y-161444643D02*
X92822561Y-161475119D01*
X92822561Y-161475119D02*
X93066371Y-161475119D01*
X93066371Y-161475119D02*
X93127323Y-161444643D01*
X93127323Y-161444643D02*
X93157800Y-161414166D01*
X93157800Y-161414166D02*
X93188276Y-161353214D01*
X93188276Y-161353214D02*
X93188276Y-161231309D01*
X93188276Y-161231309D02*
X93157800Y-161170357D01*
X93157800Y-161170357D02*
X93127323Y-161139881D01*
X93127323Y-161139881D02*
X93066371Y-161109404D01*
X93066371Y-161109404D02*
X92913990Y-161109404D01*
X92913990Y-161109404D02*
X92853038Y-161139881D01*
X92853038Y-161139881D02*
X92822561Y-161170357D01*
X92822561Y-161170357D02*
X92792085Y-161231309D01*
X92792085Y-161231309D02*
X92792085Y-161353214D01*
X92792085Y-161353214D02*
X92822561Y-161414166D01*
X92822561Y-161414166D02*
X92853038Y-161444643D01*
X92853038Y-161444643D02*
X92913990Y-161475119D01*
X92548276Y-160560833D02*
X92548276Y-160682738D01*
X92548276Y-160682738D02*
X92578752Y-160743690D01*
X92578752Y-160743690D02*
X92609228Y-160774166D01*
X92609228Y-160774166D02*
X92700657Y-160835119D01*
X92700657Y-160835119D02*
X92822561Y-160865595D01*
X92822561Y-160865595D02*
X93066371Y-160865595D01*
X93066371Y-160865595D02*
X93127323Y-160835119D01*
X93127323Y-160835119D02*
X93157800Y-160804642D01*
X93157800Y-160804642D02*
X93188276Y-160743690D01*
X93188276Y-160743690D02*
X93188276Y-160621785D01*
X93188276Y-160621785D02*
X93157800Y-160560833D01*
X93157800Y-160560833D02*
X93127323Y-160530357D01*
X93127323Y-160530357D02*
X93066371Y-160499880D01*
X93066371Y-160499880D02*
X92913990Y-160499880D01*
X92913990Y-160499880D02*
X92853038Y-160530357D01*
X92853038Y-160530357D02*
X92822561Y-160560833D01*
X92822561Y-160560833D02*
X92792085Y-160621785D01*
X92792085Y-160621785D02*
X92792085Y-160743690D01*
X92792085Y-160743690D02*
X92822561Y-160804642D01*
X92822561Y-160804642D02*
X92853038Y-160835119D01*
X92853038Y-160835119D02*
X92913990Y-160865595D01*
X87088571Y-91477323D02*
X87058095Y-91507800D01*
X87058095Y-91507800D02*
X86966666Y-91538276D01*
X86966666Y-91538276D02*
X86905714Y-91538276D01*
X86905714Y-91538276D02*
X86814285Y-91507800D01*
X86814285Y-91507800D02*
X86753333Y-91446847D01*
X86753333Y-91446847D02*
X86722856Y-91385895D01*
X86722856Y-91385895D02*
X86692380Y-91263990D01*
X86692380Y-91263990D02*
X86692380Y-91172561D01*
X86692380Y-91172561D02*
X86722856Y-91050657D01*
X86722856Y-91050657D02*
X86753333Y-90989704D01*
X86753333Y-90989704D02*
X86814285Y-90928752D01*
X86814285Y-90928752D02*
X86905714Y-90898276D01*
X86905714Y-90898276D02*
X86966666Y-90898276D01*
X86966666Y-90898276D02*
X87058095Y-90928752D01*
X87058095Y-90928752D02*
X87088571Y-90959228D01*
X87301904Y-90898276D02*
X87728571Y-90898276D01*
X87728571Y-90898276D02*
X87454285Y-91538276D01*
X88246666Y-90898276D02*
X88124761Y-90898276D01*
X88124761Y-90898276D02*
X88063809Y-90928752D01*
X88063809Y-90928752D02*
X88033333Y-90959228D01*
X88033333Y-90959228D02*
X87972380Y-91050657D01*
X87972380Y-91050657D02*
X87941904Y-91172561D01*
X87941904Y-91172561D02*
X87941904Y-91416371D01*
X87941904Y-91416371D02*
X87972380Y-91477323D01*
X87972380Y-91477323D02*
X88002857Y-91507800D01*
X88002857Y-91507800D02*
X88063809Y-91538276D01*
X88063809Y-91538276D02*
X88185714Y-91538276D01*
X88185714Y-91538276D02*
X88246666Y-91507800D01*
X88246666Y-91507800D02*
X88277142Y-91477323D01*
X88277142Y-91477323D02*
X88307619Y-91416371D01*
X88307619Y-91416371D02*
X88307619Y-91263990D01*
X88307619Y-91263990D02*
X88277142Y-91203038D01*
X88277142Y-91203038D02*
X88246666Y-91172561D01*
X88246666Y-91172561D02*
X88185714Y-91142085D01*
X88185714Y-91142085D02*
X88063809Y-91142085D01*
X88063809Y-91142085D02*
X88002857Y-91172561D01*
X88002857Y-91172561D02*
X87972380Y-91203038D01*
X87972380Y-91203038D02*
X87941904Y-91263990D01*
X101888276Y-146418928D02*
X101583514Y-146632262D01*
X101888276Y-146784643D02*
X101248276Y-146784643D01*
X101248276Y-146784643D02*
X101248276Y-146540833D01*
X101248276Y-146540833D02*
X101278752Y-146479881D01*
X101278752Y-146479881D02*
X101309228Y-146449404D01*
X101309228Y-146449404D02*
X101370180Y-146418928D01*
X101370180Y-146418928D02*
X101461609Y-146418928D01*
X101461609Y-146418928D02*
X101522561Y-146449404D01*
X101522561Y-146449404D02*
X101553038Y-146479881D01*
X101553038Y-146479881D02*
X101583514Y-146540833D01*
X101583514Y-146540833D02*
X101583514Y-146784643D01*
X101248276Y-145839881D02*
X101248276Y-146144643D01*
X101248276Y-146144643D02*
X101553038Y-146175119D01*
X101553038Y-146175119D02*
X101522561Y-146144643D01*
X101522561Y-146144643D02*
X101492085Y-146083690D01*
X101492085Y-146083690D02*
X101492085Y-145931309D01*
X101492085Y-145931309D02*
X101522561Y-145870357D01*
X101522561Y-145870357D02*
X101553038Y-145839881D01*
X101553038Y-145839881D02*
X101613990Y-145809404D01*
X101613990Y-145809404D02*
X101766371Y-145809404D01*
X101766371Y-145809404D02*
X101827323Y-145839881D01*
X101827323Y-145839881D02*
X101857800Y-145870357D01*
X101857800Y-145870357D02*
X101888276Y-145931309D01*
X101888276Y-145931309D02*
X101888276Y-146083690D01*
X101888276Y-146083690D02*
X101857800Y-146144643D01*
X101857800Y-146144643D02*
X101827323Y-146175119D01*
X101888276Y-145199880D02*
X101888276Y-145565595D01*
X101888276Y-145382738D02*
X101248276Y-145382738D01*
X101248276Y-145382738D02*
X101339704Y-145443690D01*
X101339704Y-145443690D02*
X101400657Y-145504642D01*
X101400657Y-145504642D02*
X101431133Y-145565595D01*
X93663833Y-140335317D02*
X93620733Y-140335317D01*
X93620733Y-140335317D02*
X93534533Y-140292217D01*
X93534533Y-140292217D02*
X93491433Y-140249117D01*
X93491433Y-140249117D02*
X93448333Y-140162918D01*
X93448333Y-140162918D02*
X93448333Y-140076718D01*
X93448333Y-140076718D02*
X93469883Y-140012068D01*
X93469883Y-140012068D02*
X93534533Y-139904318D01*
X93534533Y-139904318D02*
X93599183Y-139839669D01*
X93599183Y-139839669D02*
X93706932Y-139775019D01*
X93706932Y-139775019D02*
X93771582Y-139753469D01*
X93771582Y-139753469D02*
X93857782Y-139753469D01*
X93857782Y-139753469D02*
X93943981Y-139796569D01*
X93943981Y-139796569D02*
X93987081Y-139839669D01*
X93987081Y-139839669D02*
X94030181Y-139925868D01*
X94030181Y-139925868D02*
X94030181Y-139968968D01*
X94051731Y-140809415D02*
X93793132Y-140550816D01*
X93922432Y-140680116D02*
X94374980Y-140227567D01*
X94374980Y-140227567D02*
X94267230Y-140249117D01*
X94267230Y-140249117D02*
X94181031Y-140249117D01*
X94181031Y-140249117D02*
X94116381Y-140227567D01*
X93088571Y-125734823D02*
X93058095Y-125765300D01*
X93058095Y-125765300D02*
X92966666Y-125795776D01*
X92966666Y-125795776D02*
X92905714Y-125795776D01*
X92905714Y-125795776D02*
X92814285Y-125765300D01*
X92814285Y-125765300D02*
X92753333Y-125704347D01*
X92753333Y-125704347D02*
X92722856Y-125643395D01*
X92722856Y-125643395D02*
X92692380Y-125521490D01*
X92692380Y-125521490D02*
X92692380Y-125430061D01*
X92692380Y-125430061D02*
X92722856Y-125308157D01*
X92722856Y-125308157D02*
X92753333Y-125247204D01*
X92753333Y-125247204D02*
X92814285Y-125186252D01*
X92814285Y-125186252D02*
X92905714Y-125155776D01*
X92905714Y-125155776D02*
X92966666Y-125155776D01*
X92966666Y-125155776D02*
X93058095Y-125186252D01*
X93058095Y-125186252D02*
X93088571Y-125216728D01*
X93698095Y-125795776D02*
X93332380Y-125795776D01*
X93515237Y-125795776D02*
X93515237Y-125155776D01*
X93515237Y-125155776D02*
X93454285Y-125247204D01*
X93454285Y-125247204D02*
X93393333Y-125308157D01*
X93393333Y-125308157D02*
X93332380Y-125338633D01*
X94094285Y-125155776D02*
X94155238Y-125155776D01*
X94155238Y-125155776D02*
X94216190Y-125186252D01*
X94216190Y-125186252D02*
X94246666Y-125216728D01*
X94246666Y-125216728D02*
X94277142Y-125277680D01*
X94277142Y-125277680D02*
X94307619Y-125399585D01*
X94307619Y-125399585D02*
X94307619Y-125551966D01*
X94307619Y-125551966D02*
X94277142Y-125673871D01*
X94277142Y-125673871D02*
X94246666Y-125734823D01*
X94246666Y-125734823D02*
X94216190Y-125765300D01*
X94216190Y-125765300D02*
X94155238Y-125795776D01*
X94155238Y-125795776D02*
X94094285Y-125795776D01*
X94094285Y-125795776D02*
X94033333Y-125765300D01*
X94033333Y-125765300D02*
X94002857Y-125734823D01*
X94002857Y-125734823D02*
X93972380Y-125673871D01*
X93972380Y-125673871D02*
X93941904Y-125551966D01*
X93941904Y-125551966D02*
X93941904Y-125399585D01*
X93941904Y-125399585D02*
X93972380Y-125277680D01*
X93972380Y-125277680D02*
X94002857Y-125216728D01*
X94002857Y-125216728D02*
X94033333Y-125186252D01*
X94033333Y-125186252D02*
X94094285Y-125155776D01*
X81793333Y-122377323D02*
X81762857Y-122407800D01*
X81762857Y-122407800D02*
X81671428Y-122438276D01*
X81671428Y-122438276D02*
X81610476Y-122438276D01*
X81610476Y-122438276D02*
X81519047Y-122407800D01*
X81519047Y-122407800D02*
X81458095Y-122346847D01*
X81458095Y-122346847D02*
X81427618Y-122285895D01*
X81427618Y-122285895D02*
X81397142Y-122163990D01*
X81397142Y-122163990D02*
X81397142Y-122072561D01*
X81397142Y-122072561D02*
X81427618Y-121950657D01*
X81427618Y-121950657D02*
X81458095Y-121889704D01*
X81458095Y-121889704D02*
X81519047Y-121828752D01*
X81519047Y-121828752D02*
X81610476Y-121798276D01*
X81610476Y-121798276D02*
X81671428Y-121798276D01*
X81671428Y-121798276D02*
X81762857Y-121828752D01*
X81762857Y-121828752D02*
X81793333Y-121859228D01*
X82098095Y-122438276D02*
X82219999Y-122438276D01*
X82219999Y-122438276D02*
X82280952Y-122407800D01*
X82280952Y-122407800D02*
X82311428Y-122377323D01*
X82311428Y-122377323D02*
X82372380Y-122285895D01*
X82372380Y-122285895D02*
X82402857Y-122163990D01*
X82402857Y-122163990D02*
X82402857Y-121920180D01*
X82402857Y-121920180D02*
X82372380Y-121859228D01*
X82372380Y-121859228D02*
X82341904Y-121828752D01*
X82341904Y-121828752D02*
X82280952Y-121798276D01*
X82280952Y-121798276D02*
X82159047Y-121798276D01*
X82159047Y-121798276D02*
X82098095Y-121828752D01*
X82098095Y-121828752D02*
X82067618Y-121859228D01*
X82067618Y-121859228D02*
X82037142Y-121920180D01*
X82037142Y-121920180D02*
X82037142Y-122072561D01*
X82037142Y-122072561D02*
X82067618Y-122133514D01*
X82067618Y-122133514D02*
X82098095Y-122163990D01*
X82098095Y-122163990D02*
X82159047Y-122194466D01*
X82159047Y-122194466D02*
X82280952Y-122194466D01*
X82280952Y-122194466D02*
X82341904Y-122163990D01*
X82341904Y-122163990D02*
X82372380Y-122133514D01*
X82372380Y-122133514D02*
X82402857Y-122072561D01*
X97388571Y-101627323D02*
X97358095Y-101657800D01*
X97358095Y-101657800D02*
X97266666Y-101688276D01*
X97266666Y-101688276D02*
X97205714Y-101688276D01*
X97205714Y-101688276D02*
X97114285Y-101657800D01*
X97114285Y-101657800D02*
X97053333Y-101596847D01*
X97053333Y-101596847D02*
X97022856Y-101535895D01*
X97022856Y-101535895D02*
X96992380Y-101413990D01*
X96992380Y-101413990D02*
X96992380Y-101322561D01*
X96992380Y-101322561D02*
X97022856Y-101200657D01*
X97022856Y-101200657D02*
X97053333Y-101139704D01*
X97053333Y-101139704D02*
X97114285Y-101078752D01*
X97114285Y-101078752D02*
X97205714Y-101048276D01*
X97205714Y-101048276D02*
X97266666Y-101048276D01*
X97266666Y-101048276D02*
X97358095Y-101078752D01*
X97358095Y-101078752D02*
X97388571Y-101109228D01*
X97937142Y-101261609D02*
X97937142Y-101688276D01*
X97784761Y-101017800D02*
X97632380Y-101474942D01*
X97632380Y-101474942D02*
X98028571Y-101474942D01*
X98577142Y-101048276D02*
X98272380Y-101048276D01*
X98272380Y-101048276D02*
X98241904Y-101353038D01*
X98241904Y-101353038D02*
X98272380Y-101322561D01*
X98272380Y-101322561D02*
X98333333Y-101292085D01*
X98333333Y-101292085D02*
X98485714Y-101292085D01*
X98485714Y-101292085D02*
X98546666Y-101322561D01*
X98546666Y-101322561D02*
X98577142Y-101353038D01*
X98577142Y-101353038D02*
X98607619Y-101413990D01*
X98607619Y-101413990D02*
X98607619Y-101566371D01*
X98607619Y-101566371D02*
X98577142Y-101627323D01*
X98577142Y-101627323D02*
X98546666Y-101657800D01*
X98546666Y-101657800D02*
X98485714Y-101688276D01*
X98485714Y-101688276D02*
X98333333Y-101688276D01*
X98333333Y-101688276D02*
X98272380Y-101657800D01*
X98272380Y-101657800D02*
X98241904Y-101627323D01*
X85688276Y-144011428D02*
X85383514Y-144224762D01*
X85688276Y-144377143D02*
X85048276Y-144377143D01*
X85048276Y-144377143D02*
X85048276Y-144133333D01*
X85048276Y-144133333D02*
X85078752Y-144072381D01*
X85078752Y-144072381D02*
X85109228Y-144041904D01*
X85109228Y-144041904D02*
X85170180Y-144011428D01*
X85170180Y-144011428D02*
X85261609Y-144011428D01*
X85261609Y-144011428D02*
X85322561Y-144041904D01*
X85322561Y-144041904D02*
X85353038Y-144072381D01*
X85353038Y-144072381D02*
X85383514Y-144133333D01*
X85383514Y-144133333D02*
X85383514Y-144377143D01*
X85261609Y-143462857D02*
X85688276Y-143462857D01*
X85017800Y-143615238D02*
X85474942Y-143767619D01*
X85474942Y-143767619D02*
X85474942Y-143371428D01*
X85322561Y-143036190D02*
X85292085Y-143097142D01*
X85292085Y-143097142D02*
X85261609Y-143127619D01*
X85261609Y-143127619D02*
X85200657Y-143158095D01*
X85200657Y-143158095D02*
X85170180Y-143158095D01*
X85170180Y-143158095D02*
X85109228Y-143127619D01*
X85109228Y-143127619D02*
X85078752Y-143097142D01*
X85078752Y-143097142D02*
X85048276Y-143036190D01*
X85048276Y-143036190D02*
X85048276Y-142914285D01*
X85048276Y-142914285D02*
X85078752Y-142853333D01*
X85078752Y-142853333D02*
X85109228Y-142822857D01*
X85109228Y-142822857D02*
X85170180Y-142792380D01*
X85170180Y-142792380D02*
X85200657Y-142792380D01*
X85200657Y-142792380D02*
X85261609Y-142822857D01*
X85261609Y-142822857D02*
X85292085Y-142853333D01*
X85292085Y-142853333D02*
X85322561Y-142914285D01*
X85322561Y-142914285D02*
X85322561Y-143036190D01*
X85322561Y-143036190D02*
X85353038Y-143097142D01*
X85353038Y-143097142D02*
X85383514Y-143127619D01*
X85383514Y-143127619D02*
X85444466Y-143158095D01*
X85444466Y-143158095D02*
X85566371Y-143158095D01*
X85566371Y-143158095D02*
X85627323Y-143127619D01*
X85627323Y-143127619D02*
X85657800Y-143097142D01*
X85657800Y-143097142D02*
X85688276Y-143036190D01*
X85688276Y-143036190D02*
X85688276Y-142914285D01*
X85688276Y-142914285D02*
X85657800Y-142853333D01*
X85657800Y-142853333D02*
X85627323Y-142822857D01*
X85627323Y-142822857D02*
X85566371Y-142792380D01*
X85566371Y-142792380D02*
X85444466Y-142792380D01*
X85444466Y-142792380D02*
X85383514Y-142822857D01*
X85383514Y-142822857D02*
X85353038Y-142853333D01*
X85353038Y-142853333D02*
X85322561Y-142914285D01*
X81843333Y-121538276D02*
X81629999Y-121233514D01*
X81477618Y-121538276D02*
X81477618Y-120898276D01*
X81477618Y-120898276D02*
X81721428Y-120898276D01*
X81721428Y-120898276D02*
X81782380Y-120928752D01*
X81782380Y-120928752D02*
X81812857Y-120959228D01*
X81812857Y-120959228D02*
X81843333Y-121020180D01*
X81843333Y-121020180D02*
X81843333Y-121111609D01*
X81843333Y-121111609D02*
X81812857Y-121172561D01*
X81812857Y-121172561D02*
X81782380Y-121203038D01*
X81782380Y-121203038D02*
X81721428Y-121233514D01*
X81721428Y-121233514D02*
X81477618Y-121233514D01*
X82056666Y-120898276D02*
X82483333Y-120898276D01*
X82483333Y-120898276D02*
X82209047Y-121538276D01*
X96188276Y-88711428D02*
X95883514Y-88924762D01*
X96188276Y-89077143D02*
X95548276Y-89077143D01*
X95548276Y-89077143D02*
X95548276Y-88833333D01*
X95548276Y-88833333D02*
X95578752Y-88772381D01*
X95578752Y-88772381D02*
X95609228Y-88741904D01*
X95609228Y-88741904D02*
X95670180Y-88711428D01*
X95670180Y-88711428D02*
X95761609Y-88711428D01*
X95761609Y-88711428D02*
X95822561Y-88741904D01*
X95822561Y-88741904D02*
X95853038Y-88772381D01*
X95853038Y-88772381D02*
X95883514Y-88833333D01*
X95883514Y-88833333D02*
X95883514Y-89077143D01*
X95548276Y-88498095D02*
X95548276Y-88071428D01*
X95548276Y-88071428D02*
X96188276Y-88345714D01*
X95548276Y-87888571D02*
X95548276Y-87492380D01*
X95548276Y-87492380D02*
X95792085Y-87705714D01*
X95792085Y-87705714D02*
X95792085Y-87614285D01*
X95792085Y-87614285D02*
X95822561Y-87553333D01*
X95822561Y-87553333D02*
X95853038Y-87522857D01*
X95853038Y-87522857D02*
X95913990Y-87492380D01*
X95913990Y-87492380D02*
X96066371Y-87492380D01*
X96066371Y-87492380D02*
X96127323Y-87522857D01*
X96127323Y-87522857D02*
X96157800Y-87553333D01*
X96157800Y-87553333D02*
X96188276Y-87614285D01*
X96188276Y-87614285D02*
X96188276Y-87797142D01*
X96188276Y-87797142D02*
X96157800Y-87858095D01*
X96157800Y-87858095D02*
X96127323Y-87888571D01*
X89227323Y-91811428D02*
X89257800Y-91841904D01*
X89257800Y-91841904D02*
X89288276Y-91933333D01*
X89288276Y-91933333D02*
X89288276Y-91994285D01*
X89288276Y-91994285D02*
X89257800Y-92085714D01*
X89257800Y-92085714D02*
X89196847Y-92146666D01*
X89196847Y-92146666D02*
X89135895Y-92177143D01*
X89135895Y-92177143D02*
X89013990Y-92207619D01*
X89013990Y-92207619D02*
X88922561Y-92207619D01*
X88922561Y-92207619D02*
X88800657Y-92177143D01*
X88800657Y-92177143D02*
X88739704Y-92146666D01*
X88739704Y-92146666D02*
X88678752Y-92085714D01*
X88678752Y-92085714D02*
X88648276Y-91994285D01*
X88648276Y-91994285D02*
X88648276Y-91933333D01*
X88648276Y-91933333D02*
X88678752Y-91841904D01*
X88678752Y-91841904D02*
X88709228Y-91811428D01*
X88861609Y-91262857D02*
X89288276Y-91262857D01*
X88617800Y-91415238D02*
X89074942Y-91567619D01*
X89074942Y-91567619D02*
X89074942Y-91171428D01*
X89288276Y-90592380D02*
X89288276Y-90958095D01*
X89288276Y-90775238D02*
X88648276Y-90775238D01*
X88648276Y-90775238D02*
X88739704Y-90836190D01*
X88739704Y-90836190D02*
X88800657Y-90897142D01*
X88800657Y-90897142D02*
X88831133Y-90958095D01*
X81988276Y-160411428D02*
X81683514Y-160624762D01*
X81988276Y-160777143D02*
X81348276Y-160777143D01*
X81348276Y-160777143D02*
X81348276Y-160533333D01*
X81348276Y-160533333D02*
X81378752Y-160472381D01*
X81378752Y-160472381D02*
X81409228Y-160441904D01*
X81409228Y-160441904D02*
X81470180Y-160411428D01*
X81470180Y-160411428D02*
X81561609Y-160411428D01*
X81561609Y-160411428D02*
X81622561Y-160441904D01*
X81622561Y-160441904D02*
X81653038Y-160472381D01*
X81653038Y-160472381D02*
X81683514Y-160533333D01*
X81683514Y-160533333D02*
X81683514Y-160777143D01*
X81348276Y-160198095D02*
X81348276Y-159771428D01*
X81348276Y-159771428D02*
X81988276Y-160045714D01*
X81348276Y-159405714D02*
X81348276Y-159344761D01*
X81348276Y-159344761D02*
X81378752Y-159283809D01*
X81378752Y-159283809D02*
X81409228Y-159253333D01*
X81409228Y-159253333D02*
X81470180Y-159222857D01*
X81470180Y-159222857D02*
X81592085Y-159192380D01*
X81592085Y-159192380D02*
X81744466Y-159192380D01*
X81744466Y-159192380D02*
X81866371Y-159222857D01*
X81866371Y-159222857D02*
X81927323Y-159253333D01*
X81927323Y-159253333D02*
X81957800Y-159283809D01*
X81957800Y-159283809D02*
X81988276Y-159344761D01*
X81988276Y-159344761D02*
X81988276Y-159405714D01*
X81988276Y-159405714D02*
X81957800Y-159466666D01*
X81957800Y-159466666D02*
X81927323Y-159497142D01*
X81927323Y-159497142D02*
X81866371Y-159527619D01*
X81866371Y-159527619D02*
X81744466Y-159558095D01*
X81744466Y-159558095D02*
X81592085Y-159558095D01*
X81592085Y-159558095D02*
X81470180Y-159527619D01*
X81470180Y-159527619D02*
X81409228Y-159497142D01*
X81409228Y-159497142D02*
X81378752Y-159466666D01*
X81378752Y-159466666D02*
X81348276Y-159405714D01*
X95088571Y-162295776D02*
X94875237Y-161991014D01*
X94722856Y-162295776D02*
X94722856Y-161655776D01*
X94722856Y-161655776D02*
X94966666Y-161655776D01*
X94966666Y-161655776D02*
X95027618Y-161686252D01*
X95027618Y-161686252D02*
X95058095Y-161716728D01*
X95058095Y-161716728D02*
X95088571Y-161777680D01*
X95088571Y-161777680D02*
X95088571Y-161869109D01*
X95088571Y-161869109D02*
X95058095Y-161930061D01*
X95058095Y-161930061D02*
X95027618Y-161960538D01*
X95027618Y-161960538D02*
X94966666Y-161991014D01*
X94966666Y-161991014D02*
X94722856Y-161991014D01*
X95637142Y-161869109D02*
X95637142Y-162295776D01*
X95484761Y-161625300D02*
X95332380Y-162082442D01*
X95332380Y-162082442D02*
X95728571Y-162082442D01*
X96246666Y-161869109D02*
X96246666Y-162295776D01*
X96094285Y-161625300D02*
X95941904Y-162082442D01*
X95941904Y-162082442D02*
X96338095Y-162082442D01*
X91288571Y-137838276D02*
X91075237Y-137533514D01*
X90922856Y-137838276D02*
X90922856Y-137198276D01*
X90922856Y-137198276D02*
X91166666Y-137198276D01*
X91166666Y-137198276D02*
X91227618Y-137228752D01*
X91227618Y-137228752D02*
X91258095Y-137259228D01*
X91258095Y-137259228D02*
X91288571Y-137320180D01*
X91288571Y-137320180D02*
X91288571Y-137411609D01*
X91288571Y-137411609D02*
X91258095Y-137472561D01*
X91258095Y-137472561D02*
X91227618Y-137503038D01*
X91227618Y-137503038D02*
X91166666Y-137533514D01*
X91166666Y-137533514D02*
X90922856Y-137533514D01*
X91867618Y-137198276D02*
X91562856Y-137198276D01*
X91562856Y-137198276D02*
X91532380Y-137503038D01*
X91532380Y-137503038D02*
X91562856Y-137472561D01*
X91562856Y-137472561D02*
X91623809Y-137442085D01*
X91623809Y-137442085D02*
X91776190Y-137442085D01*
X91776190Y-137442085D02*
X91837142Y-137472561D01*
X91837142Y-137472561D02*
X91867618Y-137503038D01*
X91867618Y-137503038D02*
X91898095Y-137563990D01*
X91898095Y-137563990D02*
X91898095Y-137716371D01*
X91898095Y-137716371D02*
X91867618Y-137777323D01*
X91867618Y-137777323D02*
X91837142Y-137807800D01*
X91837142Y-137807800D02*
X91776190Y-137838276D01*
X91776190Y-137838276D02*
X91623809Y-137838276D01*
X91623809Y-137838276D02*
X91562856Y-137807800D01*
X91562856Y-137807800D02*
X91532380Y-137777323D01*
X92202857Y-137838276D02*
X92324761Y-137838276D01*
X92324761Y-137838276D02*
X92385714Y-137807800D01*
X92385714Y-137807800D02*
X92416190Y-137777323D01*
X92416190Y-137777323D02*
X92477142Y-137685895D01*
X92477142Y-137685895D02*
X92507619Y-137563990D01*
X92507619Y-137563990D02*
X92507619Y-137320180D01*
X92507619Y-137320180D02*
X92477142Y-137259228D01*
X92477142Y-137259228D02*
X92446666Y-137228752D01*
X92446666Y-137228752D02*
X92385714Y-137198276D01*
X92385714Y-137198276D02*
X92263809Y-137198276D01*
X92263809Y-137198276D02*
X92202857Y-137228752D01*
X92202857Y-137228752D02*
X92172380Y-137259228D01*
X92172380Y-137259228D02*
X92141904Y-137320180D01*
X92141904Y-137320180D02*
X92141904Y-137472561D01*
X92141904Y-137472561D02*
X92172380Y-137533514D01*
X92172380Y-137533514D02*
X92202857Y-137563990D01*
X92202857Y-137563990D02*
X92263809Y-137594466D01*
X92263809Y-137594466D02*
X92385714Y-137594466D01*
X92385714Y-137594466D02*
X92446666Y-137563990D01*
X92446666Y-137563990D02*
X92477142Y-137533514D01*
X92477142Y-137533514D02*
X92507619Y-137472561D01*
X99988571Y-114595776D02*
X99775237Y-114291014D01*
X99622856Y-114595776D02*
X99622856Y-113955776D01*
X99622856Y-113955776D02*
X99866666Y-113955776D01*
X99866666Y-113955776D02*
X99927618Y-113986252D01*
X99927618Y-113986252D02*
X99958095Y-114016728D01*
X99958095Y-114016728D02*
X99988571Y-114077680D01*
X99988571Y-114077680D02*
X99988571Y-114169109D01*
X99988571Y-114169109D02*
X99958095Y-114230061D01*
X99958095Y-114230061D02*
X99927618Y-114260538D01*
X99927618Y-114260538D02*
X99866666Y-114291014D01*
X99866666Y-114291014D02*
X99622856Y-114291014D01*
X100537142Y-113955776D02*
X100415237Y-113955776D01*
X100415237Y-113955776D02*
X100354285Y-113986252D01*
X100354285Y-113986252D02*
X100323809Y-114016728D01*
X100323809Y-114016728D02*
X100262856Y-114108157D01*
X100262856Y-114108157D02*
X100232380Y-114230061D01*
X100232380Y-114230061D02*
X100232380Y-114473871D01*
X100232380Y-114473871D02*
X100262856Y-114534823D01*
X100262856Y-114534823D02*
X100293333Y-114565300D01*
X100293333Y-114565300D02*
X100354285Y-114595776D01*
X100354285Y-114595776D02*
X100476190Y-114595776D01*
X100476190Y-114595776D02*
X100537142Y-114565300D01*
X100537142Y-114565300D02*
X100567618Y-114534823D01*
X100567618Y-114534823D02*
X100598095Y-114473871D01*
X100598095Y-114473871D02*
X100598095Y-114321490D01*
X100598095Y-114321490D02*
X100567618Y-114260538D01*
X100567618Y-114260538D02*
X100537142Y-114230061D01*
X100537142Y-114230061D02*
X100476190Y-114199585D01*
X100476190Y-114199585D02*
X100354285Y-114199585D01*
X100354285Y-114199585D02*
X100293333Y-114230061D01*
X100293333Y-114230061D02*
X100262856Y-114260538D01*
X100262856Y-114260538D02*
X100232380Y-114321490D01*
X101146666Y-114169109D02*
X101146666Y-114595776D01*
X100994285Y-113925300D02*
X100841904Y-114382442D01*
X100841904Y-114382442D02*
X101238095Y-114382442D01*
X99988571Y-115495776D02*
X99775237Y-115191014D01*
X99622856Y-115495776D02*
X99622856Y-114855776D01*
X99622856Y-114855776D02*
X99866666Y-114855776D01*
X99866666Y-114855776D02*
X99927618Y-114886252D01*
X99927618Y-114886252D02*
X99958095Y-114916728D01*
X99958095Y-114916728D02*
X99988571Y-114977680D01*
X99988571Y-114977680D02*
X99988571Y-115069109D01*
X99988571Y-115069109D02*
X99958095Y-115130061D01*
X99958095Y-115130061D02*
X99927618Y-115160538D01*
X99927618Y-115160538D02*
X99866666Y-115191014D01*
X99866666Y-115191014D02*
X99622856Y-115191014D01*
X100537142Y-114855776D02*
X100415237Y-114855776D01*
X100415237Y-114855776D02*
X100354285Y-114886252D01*
X100354285Y-114886252D02*
X100323809Y-114916728D01*
X100323809Y-114916728D02*
X100262856Y-115008157D01*
X100262856Y-115008157D02*
X100232380Y-115130061D01*
X100232380Y-115130061D02*
X100232380Y-115373871D01*
X100232380Y-115373871D02*
X100262856Y-115434823D01*
X100262856Y-115434823D02*
X100293333Y-115465300D01*
X100293333Y-115465300D02*
X100354285Y-115495776D01*
X100354285Y-115495776D02*
X100476190Y-115495776D01*
X100476190Y-115495776D02*
X100537142Y-115465300D01*
X100537142Y-115465300D02*
X100567618Y-115434823D01*
X100567618Y-115434823D02*
X100598095Y-115373871D01*
X100598095Y-115373871D02*
X100598095Y-115221490D01*
X100598095Y-115221490D02*
X100567618Y-115160538D01*
X100567618Y-115160538D02*
X100537142Y-115130061D01*
X100537142Y-115130061D02*
X100476190Y-115099585D01*
X100476190Y-115099585D02*
X100354285Y-115099585D01*
X100354285Y-115099585D02*
X100293333Y-115130061D01*
X100293333Y-115130061D02*
X100262856Y-115160538D01*
X100262856Y-115160538D02*
X100232380Y-115221490D01*
X100994285Y-114855776D02*
X101055238Y-114855776D01*
X101055238Y-114855776D02*
X101116190Y-114886252D01*
X101116190Y-114886252D02*
X101146666Y-114916728D01*
X101146666Y-114916728D02*
X101177142Y-114977680D01*
X101177142Y-114977680D02*
X101207619Y-115099585D01*
X101207619Y-115099585D02*
X101207619Y-115251966D01*
X101207619Y-115251966D02*
X101177142Y-115373871D01*
X101177142Y-115373871D02*
X101146666Y-115434823D01*
X101146666Y-115434823D02*
X101116190Y-115465300D01*
X101116190Y-115465300D02*
X101055238Y-115495776D01*
X101055238Y-115495776D02*
X100994285Y-115495776D01*
X100994285Y-115495776D02*
X100933333Y-115465300D01*
X100933333Y-115465300D02*
X100902857Y-115434823D01*
X100902857Y-115434823D02*
X100872380Y-115373871D01*
X100872380Y-115373871D02*
X100841904Y-115251966D01*
X100841904Y-115251966D02*
X100841904Y-115099585D01*
X100841904Y-115099585D02*
X100872380Y-114977680D01*
X100872380Y-114977680D02*
X100902857Y-114916728D01*
X100902857Y-114916728D02*
X100933333Y-114886252D01*
X100933333Y-114886252D02*
X100994285Y-114855776D01*
X90338276Y-139261428D02*
X90033514Y-139474762D01*
X90338276Y-139627143D02*
X89698276Y-139627143D01*
X89698276Y-139627143D02*
X89698276Y-139383333D01*
X89698276Y-139383333D02*
X89728752Y-139322381D01*
X89728752Y-139322381D02*
X89759228Y-139291904D01*
X89759228Y-139291904D02*
X89820180Y-139261428D01*
X89820180Y-139261428D02*
X89911609Y-139261428D01*
X89911609Y-139261428D02*
X89972561Y-139291904D01*
X89972561Y-139291904D02*
X90003038Y-139322381D01*
X90003038Y-139322381D02*
X90033514Y-139383333D01*
X90033514Y-139383333D02*
X90033514Y-139627143D01*
X89698276Y-138682381D02*
X89698276Y-138987143D01*
X89698276Y-138987143D02*
X90003038Y-139017619D01*
X90003038Y-139017619D02*
X89972561Y-138987143D01*
X89972561Y-138987143D02*
X89942085Y-138926190D01*
X89942085Y-138926190D02*
X89942085Y-138773809D01*
X89942085Y-138773809D02*
X89972561Y-138712857D01*
X89972561Y-138712857D02*
X90003038Y-138682381D01*
X90003038Y-138682381D02*
X90063990Y-138651904D01*
X90063990Y-138651904D02*
X90216371Y-138651904D01*
X90216371Y-138651904D02*
X90277323Y-138682381D01*
X90277323Y-138682381D02*
X90307800Y-138712857D01*
X90307800Y-138712857D02*
X90338276Y-138773809D01*
X90338276Y-138773809D02*
X90338276Y-138926190D01*
X90338276Y-138926190D02*
X90307800Y-138987143D01*
X90307800Y-138987143D02*
X90277323Y-139017619D01*
X89972561Y-138286190D02*
X89942085Y-138347142D01*
X89942085Y-138347142D02*
X89911609Y-138377619D01*
X89911609Y-138377619D02*
X89850657Y-138408095D01*
X89850657Y-138408095D02*
X89820180Y-138408095D01*
X89820180Y-138408095D02*
X89759228Y-138377619D01*
X89759228Y-138377619D02*
X89728752Y-138347142D01*
X89728752Y-138347142D02*
X89698276Y-138286190D01*
X89698276Y-138286190D02*
X89698276Y-138164285D01*
X89698276Y-138164285D02*
X89728752Y-138103333D01*
X89728752Y-138103333D02*
X89759228Y-138072857D01*
X89759228Y-138072857D02*
X89820180Y-138042380D01*
X89820180Y-138042380D02*
X89850657Y-138042380D01*
X89850657Y-138042380D02*
X89911609Y-138072857D01*
X89911609Y-138072857D02*
X89942085Y-138103333D01*
X89942085Y-138103333D02*
X89972561Y-138164285D01*
X89972561Y-138164285D02*
X89972561Y-138286190D01*
X89972561Y-138286190D02*
X90003038Y-138347142D01*
X90003038Y-138347142D02*
X90033514Y-138377619D01*
X90033514Y-138377619D02*
X90094466Y-138408095D01*
X90094466Y-138408095D02*
X90216371Y-138408095D01*
X90216371Y-138408095D02*
X90277323Y-138377619D01*
X90277323Y-138377619D02*
X90307800Y-138347142D01*
X90307800Y-138347142D02*
X90338276Y-138286190D01*
X90338276Y-138286190D02*
X90338276Y-138164285D01*
X90338276Y-138164285D02*
X90307800Y-138103333D01*
X90307800Y-138103333D02*
X90277323Y-138072857D01*
X90277323Y-138072857D02*
X90216371Y-138042380D01*
X90216371Y-138042380D02*
X90094466Y-138042380D01*
X90094466Y-138042380D02*
X90033514Y-138072857D01*
X90033514Y-138072857D02*
X90003038Y-138103333D01*
X90003038Y-138103333D02*
X89972561Y-138164285D01*
X91288571Y-136027323D02*
X91258095Y-136057800D01*
X91258095Y-136057800D02*
X91166666Y-136088276D01*
X91166666Y-136088276D02*
X91105714Y-136088276D01*
X91105714Y-136088276D02*
X91014285Y-136057800D01*
X91014285Y-136057800D02*
X90953333Y-135996847D01*
X90953333Y-135996847D02*
X90922856Y-135935895D01*
X90922856Y-135935895D02*
X90892380Y-135813990D01*
X90892380Y-135813990D02*
X90892380Y-135722561D01*
X90892380Y-135722561D02*
X90922856Y-135600657D01*
X90922856Y-135600657D02*
X90953333Y-135539704D01*
X90953333Y-135539704D02*
X91014285Y-135478752D01*
X91014285Y-135478752D02*
X91105714Y-135448276D01*
X91105714Y-135448276D02*
X91166666Y-135448276D01*
X91166666Y-135448276D02*
X91258095Y-135478752D01*
X91258095Y-135478752D02*
X91288571Y-135509228D01*
X91501904Y-135448276D02*
X91898095Y-135448276D01*
X91898095Y-135448276D02*
X91684761Y-135692085D01*
X91684761Y-135692085D02*
X91776190Y-135692085D01*
X91776190Y-135692085D02*
X91837142Y-135722561D01*
X91837142Y-135722561D02*
X91867618Y-135753038D01*
X91867618Y-135753038D02*
X91898095Y-135813990D01*
X91898095Y-135813990D02*
X91898095Y-135966371D01*
X91898095Y-135966371D02*
X91867618Y-136027323D01*
X91867618Y-136027323D02*
X91837142Y-136057800D01*
X91837142Y-136057800D02*
X91776190Y-136088276D01*
X91776190Y-136088276D02*
X91593333Y-136088276D01*
X91593333Y-136088276D02*
X91532380Y-136057800D01*
X91532380Y-136057800D02*
X91501904Y-136027323D01*
X92111428Y-135448276D02*
X92507619Y-135448276D01*
X92507619Y-135448276D02*
X92294285Y-135692085D01*
X92294285Y-135692085D02*
X92385714Y-135692085D01*
X92385714Y-135692085D02*
X92446666Y-135722561D01*
X92446666Y-135722561D02*
X92477142Y-135753038D01*
X92477142Y-135753038D02*
X92507619Y-135813990D01*
X92507619Y-135813990D02*
X92507619Y-135966371D01*
X92507619Y-135966371D02*
X92477142Y-136027323D01*
X92477142Y-136027323D02*
X92446666Y-136057800D01*
X92446666Y-136057800D02*
X92385714Y-136088276D01*
X92385714Y-136088276D02*
X92202857Y-136088276D01*
X92202857Y-136088276D02*
X92141904Y-136057800D01*
X92141904Y-136057800D02*
X92111428Y-136027323D01*
X97177323Y-91311428D02*
X97207800Y-91341904D01*
X97207800Y-91341904D02*
X97238276Y-91433333D01*
X97238276Y-91433333D02*
X97238276Y-91494285D01*
X97238276Y-91494285D02*
X97207800Y-91585714D01*
X97207800Y-91585714D02*
X97146847Y-91646666D01*
X97146847Y-91646666D02*
X97085895Y-91677143D01*
X97085895Y-91677143D02*
X96963990Y-91707619D01*
X96963990Y-91707619D02*
X96872561Y-91707619D01*
X96872561Y-91707619D02*
X96750657Y-91677143D01*
X96750657Y-91677143D02*
X96689704Y-91646666D01*
X96689704Y-91646666D02*
X96628752Y-91585714D01*
X96628752Y-91585714D02*
X96598276Y-91494285D01*
X96598276Y-91494285D02*
X96598276Y-91433333D01*
X96598276Y-91433333D02*
X96628752Y-91341904D01*
X96628752Y-91341904D02*
X96659228Y-91311428D01*
X96598276Y-90732381D02*
X96598276Y-91037143D01*
X96598276Y-91037143D02*
X96903038Y-91067619D01*
X96903038Y-91067619D02*
X96872561Y-91037143D01*
X96872561Y-91037143D02*
X96842085Y-90976190D01*
X96842085Y-90976190D02*
X96842085Y-90823809D01*
X96842085Y-90823809D02*
X96872561Y-90762857D01*
X96872561Y-90762857D02*
X96903038Y-90732381D01*
X96903038Y-90732381D02*
X96963990Y-90701904D01*
X96963990Y-90701904D02*
X97116371Y-90701904D01*
X97116371Y-90701904D02*
X97177323Y-90732381D01*
X97177323Y-90732381D02*
X97207800Y-90762857D01*
X97207800Y-90762857D02*
X97238276Y-90823809D01*
X97238276Y-90823809D02*
X97238276Y-90976190D01*
X97238276Y-90976190D02*
X97207800Y-91037143D01*
X97207800Y-91037143D02*
X97177323Y-91067619D01*
X96598276Y-90488571D02*
X96598276Y-90092380D01*
X96598276Y-90092380D02*
X96842085Y-90305714D01*
X96842085Y-90305714D02*
X96842085Y-90214285D01*
X96842085Y-90214285D02*
X96872561Y-90153333D01*
X96872561Y-90153333D02*
X96903038Y-90122857D01*
X96903038Y-90122857D02*
X96963990Y-90092380D01*
X96963990Y-90092380D02*
X97116371Y-90092380D01*
X97116371Y-90092380D02*
X97177323Y-90122857D01*
X97177323Y-90122857D02*
X97207800Y-90153333D01*
X97207800Y-90153333D02*
X97238276Y-90214285D01*
X97238276Y-90214285D02*
X97238276Y-90397142D01*
X97238276Y-90397142D02*
X97207800Y-90458095D01*
X97207800Y-90458095D02*
X97177323Y-90488571D01*
X88027323Y-161811428D02*
X88057800Y-161841904D01*
X88057800Y-161841904D02*
X88088276Y-161933333D01*
X88088276Y-161933333D02*
X88088276Y-161994285D01*
X88088276Y-161994285D02*
X88057800Y-162085714D01*
X88057800Y-162085714D02*
X87996847Y-162146666D01*
X87996847Y-162146666D02*
X87935895Y-162177143D01*
X87935895Y-162177143D02*
X87813990Y-162207619D01*
X87813990Y-162207619D02*
X87722561Y-162207619D01*
X87722561Y-162207619D02*
X87600657Y-162177143D01*
X87600657Y-162177143D02*
X87539704Y-162146666D01*
X87539704Y-162146666D02*
X87478752Y-162085714D01*
X87478752Y-162085714D02*
X87448276Y-161994285D01*
X87448276Y-161994285D02*
X87448276Y-161933333D01*
X87448276Y-161933333D02*
X87478752Y-161841904D01*
X87478752Y-161841904D02*
X87509228Y-161811428D01*
X87448276Y-161598095D02*
X87448276Y-161171428D01*
X87448276Y-161171428D02*
X88088276Y-161445714D01*
X88088276Y-160897142D02*
X88088276Y-160775238D01*
X88088276Y-160775238D02*
X88057800Y-160714285D01*
X88057800Y-160714285D02*
X88027323Y-160683809D01*
X88027323Y-160683809D02*
X87935895Y-160622857D01*
X87935895Y-160622857D02*
X87813990Y-160592380D01*
X87813990Y-160592380D02*
X87570180Y-160592380D01*
X87570180Y-160592380D02*
X87509228Y-160622857D01*
X87509228Y-160622857D02*
X87478752Y-160653333D01*
X87478752Y-160653333D02*
X87448276Y-160714285D01*
X87448276Y-160714285D02*
X87448276Y-160836190D01*
X87448276Y-160836190D02*
X87478752Y-160897142D01*
X87478752Y-160897142D02*
X87509228Y-160927619D01*
X87509228Y-160927619D02*
X87570180Y-160958095D01*
X87570180Y-160958095D02*
X87722561Y-160958095D01*
X87722561Y-160958095D02*
X87783514Y-160927619D01*
X87783514Y-160927619D02*
X87813990Y-160897142D01*
X87813990Y-160897142D02*
X87844466Y-160836190D01*
X87844466Y-160836190D02*
X87844466Y-160714285D01*
X87844466Y-160714285D02*
X87813990Y-160653333D01*
X87813990Y-160653333D02*
X87783514Y-160622857D01*
X87783514Y-160622857D02*
X87722561Y-160592380D01*
%TO.C,U2*%
D12*
X83417500Y-129587500D02*
G75*
G02*
X83217500Y-129587500I-100000J0D01*
G01*
X83217500Y-129587500D02*
G75*
G02*
X83417500Y-129587500I100000J0D01*
G01*
D13*
X92767500Y-139887500D02*
X92767500Y-126887500D01*
X92767500Y-139887500D02*
X81267500Y-139887500D01*
X92767500Y-126887500D02*
X81267500Y-126887500D01*
X81267500Y-139887500D02*
X81267500Y-126887500D01*
%TO.C,J5*%
X81625000Y-102382500D02*
X95555000Y-102382500D01*
X81625000Y-104162500D02*
X81625000Y-102382500D01*
X81625000Y-116232500D02*
X81625000Y-115852500D01*
X85105000Y-116232500D02*
X81625000Y-116232500D01*
X94625000Y-116232500D02*
X93025000Y-116232500D01*
X97775000Y-115312500D02*
X97775000Y-103602500D01*
D12*
%TO.C,U8*%
X90737500Y-119962750D02*
X90737500Y-120562750D01*
X90137500Y-119962750D02*
X90737500Y-119962750D01*
%TO.C,U9*%
X93850000Y-128482500D02*
X94450000Y-128482500D01*
X93850000Y-129082500D02*
X93850000Y-128482500D01*
D14*
%TO.C,TP18*%
X102647499Y-99650000D02*
G75*
G02*
X101047501Y-99650000I-799999J0D01*
G01*
X101047501Y-99650000D02*
G75*
G02*
X102647499Y-99650000I799999J0D01*
G01*
D13*
%TO.C,U3*%
X85300000Y-144530000D02*
X85665000Y-144530000D01*
X85300000Y-144530000D02*
X85300000Y-144895000D01*
%TO.C,Y1*%
X95988837Y-140756604D02*
X96243396Y-141011163D01*
X97756604Y-138988837D02*
X98011163Y-139243396D01*
%TO.C,Y4*%
X102350000Y-95130000D02*
X102350000Y-94770000D01*
X99850000Y-95130000D02*
X99850000Y-94770000D01*
%TO.C,U7*%
X98800000Y-98192500D02*
X98630000Y-98192500D01*
X98800000Y-98192500D02*
X98800000Y-98022500D01*
%TO.C,Y5*%
X90050000Y-97770000D02*
X90050000Y-98130000D01*
X92550000Y-97770000D02*
X92550000Y-98130000D01*
%TO.C,U1*%
X88000000Y-98907500D02*
X87800000Y-98907500D01*
X88000000Y-98707500D02*
X88000000Y-98907500D01*
D12*
%TO.C,J3*%
X99650000Y-90350000D02*
G75*
G02*
X99450000Y-90350000I-100000J0D01*
G01*
X99450000Y-90350000D02*
G75*
G02*
X99650000Y-90350000I100000J0D01*
G01*
%TO.C,J4*%
X86550000Y-90350000D02*
G75*
G02*
X86350000Y-90350000I-100000J0D01*
G01*
X86350000Y-90350000D02*
G75*
G02*
X86550000Y-90350000I100000J0D01*
G01*
D14*
%TO.C,FB5*%
X99962742Y-136085000D02*
X100437258Y-136085000D01*
X99962742Y-137130000D02*
X100437258Y-137130000D01*
%TO.C,FB6*%
X93837258Y-100327500D02*
X93362742Y-100327500D01*
X93837258Y-101372500D02*
X93362742Y-101372500D01*
%TO.C,FB8*%
X87087258Y-100235000D02*
X86612742Y-100235000D01*
X87087258Y-101280000D02*
X86612742Y-101280000D01*
%TO.C,FB9*%
X98962742Y-160485000D02*
X99437258Y-160485000D01*
X98962742Y-161530000D02*
X99437258Y-161530000D01*
%TO.C,U5*%
D15*
X90022000Y-90545000D02*
G75*
G02*
X89768000Y-90545000I-127000J0D01*
G01*
X89768000Y-90545000D02*
G75*
G02*
X90022000Y-90545000I127000J0D01*
G01*
D16*
%TO.C,U6*%
X99150600Y-121522500D02*
X99150600Y-121852700D01*
X99150600Y-121852700D02*
X99150600Y-122462300D01*
X99150600Y-122462300D02*
X99150600Y-122792500D01*
X99150600Y-121852700D02*
G75*
G02*
X99150600Y-122462300I0J-304800D01*
G01*
%TO.C,U4*%
X95400600Y-121522500D02*
X95400600Y-121852700D01*
X95400600Y-121852700D02*
X95400600Y-122462300D01*
X95400600Y-122462300D02*
X95400600Y-122792500D01*
X95400600Y-121852700D02*
G75*
G02*
X95400600Y-122462300I0J-304800D01*
G01*
%TD*%
M02*
