%TF.GenerationSoftware,KiCad,Pcbnew,8.0.6*%
%TF.CreationDate,2024-11-27T08:16:30+01:00*%
%TF.ProjectId,M2SmartHome,4d32536d-6172-4744-986f-6d652e6b6963,rev?*%
%TF.SameCoordinates,Original*%
%TF.FileFunction,Drillmap*%
%TF.FilePolarity,Positive*%
%FSLAX45Y45*%
G04 Gerber Fmt 4.5, Leading zero omitted, Abs format (unit mm)*
G04 Created by KiCad (PCBNEW 8.0.6) date 2024-11-27 08:16:30*
%MOMM*%
%LPD*%
G01*
G04 APERTURE LIST*
%ADD10C,0.050000*%
%ADD11C,0.200000*%
%ADD12C,0.100000*%
G04 APERTURE END LIST*
D10*
X9375000Y-8600000D02*
G75*
G02*
X9025000Y-8600000I-175000J0D01*
G01*
X10300000Y-8600000D02*
X9375000Y-8600000D01*
X8100000Y-8600000D02*
X9025000Y-8600000D01*
X10300000Y-16200000D02*
X10300000Y-8600000D01*
X8100000Y-16200000D02*
X8100000Y-8600000D01*
X8100000Y-16200000D02*
X8157500Y-16200000D01*
X8207500Y-16250000D02*
X8207500Y-16600000D01*
X8207500Y-16600000D02*
X8527500Y-16600000D01*
X8527500Y-16600000D02*
X8527500Y-16310000D01*
X8647500Y-16310000D02*
X8647500Y-16600000D01*
X8647500Y-16600000D02*
X9200000Y-16600000D01*
X9200000Y-16600000D02*
X10192500Y-16600000D01*
X10192500Y-16600000D02*
X10192500Y-16250000D01*
X10242500Y-16200000D02*
X10300000Y-16200000D01*
X8157500Y-16200000D02*
G75*
G02*
X8207500Y-16250000I0J-50000D01*
G01*
X8527500Y-16310000D02*
G75*
G02*
X8647500Y-16310000I60000J0D01*
G01*
X10192500Y-16250000D02*
G75*
G02*
X10242500Y-16200000I50000J0D01*
G01*
D11*
D12*
X8165000Y-11656716D02*
X8185000Y-11676716D01*
X8185000Y-11656716D02*
X8165000Y-11676716D01*
X8165000Y-14865000D02*
X8185000Y-14885000D01*
X8185000Y-14865000D02*
X8165000Y-14885000D01*
X8170000Y-14020000D02*
X8190000Y-14040000D01*
X8190000Y-14020000D02*
X8170000Y-14040000D01*
X8190000Y-8690000D02*
X8210000Y-8710000D01*
X8210000Y-8690000D02*
X8190000Y-8710000D01*
X8190000Y-8790000D02*
X8210000Y-8810000D01*
X8210000Y-8790000D02*
X8190000Y-8810000D01*
X8190000Y-8890000D02*
X8210000Y-8910000D01*
X8210000Y-8890000D02*
X8190000Y-8910000D01*
X8190000Y-8990000D02*
X8210000Y-9010000D01*
X8210000Y-8990000D02*
X8190000Y-9010000D01*
X8190000Y-15065750D02*
X8210000Y-15085750D01*
X8210000Y-15065750D02*
X8190000Y-15085750D01*
X8196500Y-15530750D02*
X8216500Y-15550750D01*
X8216500Y-15530750D02*
X8196500Y-15550750D01*
X8200000Y-14354250D02*
X8220000Y-14374250D01*
X8220000Y-14354250D02*
X8200000Y-14374250D01*
X8215000Y-15415750D02*
X8235000Y-15435750D01*
X8235000Y-15415750D02*
X8215000Y-15435750D01*
X8215000Y-15640750D02*
X8235000Y-15660750D01*
X8235000Y-15640750D02*
X8215000Y-15660750D01*
X8220000Y-11713284D02*
X8240000Y-11733284D01*
X8240000Y-11713284D02*
X8220000Y-11733284D01*
X8275000Y-9640750D02*
X8295000Y-9660750D01*
X8295000Y-9640750D02*
X8275000Y-9660750D01*
X8275000Y-9720750D02*
X8295000Y-9740750D01*
X8295000Y-9720750D02*
X8275000Y-9740750D01*
X8285000Y-11668431D02*
X8305000Y-11688431D01*
X8305000Y-11668431D02*
X8285000Y-11688431D01*
X8290000Y-8690000D02*
X8310000Y-8710000D01*
X8310000Y-8690000D02*
X8290000Y-8710000D01*
X8290000Y-12895000D02*
X8310000Y-12915000D01*
X8310000Y-12895000D02*
X8290000Y-12915000D01*
X8290000Y-14020000D02*
X8310000Y-14040000D01*
X8310000Y-14020000D02*
X8290000Y-14040000D01*
X8290000Y-14640000D02*
X8310000Y-14660000D01*
X8310000Y-14640000D02*
X8290000Y-14660000D01*
X8290000Y-15115750D02*
X8310000Y-15135750D01*
X8310000Y-15115750D02*
X8290000Y-15135750D01*
X8300000Y-9800750D02*
X8320000Y-9820750D01*
X8320000Y-9800750D02*
X8300000Y-9820750D01*
X8300000Y-16250000D02*
X8320000Y-16270000D01*
X8320000Y-16250000D02*
X8300000Y-16270000D01*
X8300000Y-16310000D02*
X8320000Y-16330000D01*
X8320000Y-16310000D02*
X8300000Y-16330000D01*
X8305000Y-13155000D02*
X8325000Y-13175000D01*
X8325000Y-13155000D02*
X8305000Y-13175000D01*
X8310000Y-9535000D02*
X8330000Y-9555000D01*
X8330000Y-9535000D02*
X8310000Y-9555000D01*
X8310000Y-13440000D02*
X8330000Y-13460000D01*
X8330000Y-13440000D02*
X8310000Y-13460000D01*
X8310000Y-13515000D02*
X8330000Y-13535000D01*
X8330000Y-13515000D02*
X8310000Y-13535000D01*
X8315000Y-12795000D02*
X8335000Y-12815000D01*
X8335000Y-12795000D02*
X8315000Y-12815000D01*
X8317750Y-14963000D02*
X8337750Y-14983000D01*
X8337750Y-14963000D02*
X8317750Y-14983000D01*
X8320000Y-11931500D02*
X8340000Y-11951500D01*
X8340000Y-11931500D02*
X8320000Y-11951500D01*
X8320000Y-12018500D02*
X8340000Y-12038500D01*
X8340000Y-12018500D02*
X8320000Y-12038500D01*
X8320000Y-14860750D02*
X8340000Y-14880750D01*
X8340000Y-14860750D02*
X8320000Y-14880750D01*
X8320000Y-15330750D02*
X8340000Y-15350750D01*
X8340000Y-15330750D02*
X8320000Y-15350750D01*
X8325000Y-12156500D02*
X8345000Y-12176500D01*
X8345000Y-12156500D02*
X8325000Y-12176500D01*
X8325000Y-12450000D02*
X8345000Y-12470000D01*
X8345000Y-12450000D02*
X8325000Y-12470000D01*
X8330000Y-15770000D02*
X8350000Y-15790000D01*
X8350000Y-15770000D02*
X8330000Y-15790000D01*
X8340000Y-9140000D02*
X8360000Y-9160000D01*
X8360000Y-9140000D02*
X8340000Y-9160000D01*
X8340000Y-15950000D02*
X8360000Y-15970000D01*
X8360000Y-15950000D02*
X8340000Y-15970000D01*
X8341569Y-11725000D02*
X8361569Y-11745000D01*
X8361569Y-11725000D02*
X8341569Y-11745000D01*
X8360000Y-9870750D02*
X8380000Y-9890750D01*
X8380000Y-9870750D02*
X8360000Y-9890750D01*
X8365000Y-10265000D02*
X8385000Y-10285000D01*
X8385000Y-10265000D02*
X8365000Y-10285000D01*
X8365000Y-10390000D02*
X8385000Y-10410000D01*
X8385000Y-10390000D02*
X8365000Y-10410000D01*
X8367500Y-13105000D02*
X8387500Y-13125000D01*
X8387500Y-13105000D02*
X8367500Y-13125000D01*
X8370000Y-9270750D02*
X8390000Y-9290750D01*
X8390000Y-9270750D02*
X8370000Y-9290750D01*
X8370000Y-13650750D02*
X8390000Y-13670750D01*
X8390000Y-13650750D02*
X8370000Y-13670750D01*
X8371500Y-9965000D02*
X8391500Y-9985000D01*
X8391500Y-9965000D02*
X8371500Y-9985000D01*
X8372000Y-12316750D02*
X8392000Y-12336750D01*
X8392000Y-12316750D02*
X8372000Y-12336750D01*
X8385000Y-11420000D02*
X8405000Y-11440000D01*
X8405000Y-11420000D02*
X8385000Y-11440000D01*
X8390000Y-8690000D02*
X8410000Y-8710000D01*
X8410000Y-8690000D02*
X8390000Y-8710000D01*
X8390000Y-11080750D02*
X8410000Y-11100750D01*
X8410000Y-11080750D02*
X8390000Y-11100750D01*
X8390000Y-11245750D02*
X8410000Y-11265750D01*
X8410000Y-11245750D02*
X8390000Y-11265750D01*
X8390000Y-12235000D02*
X8410000Y-12255000D01*
X8410000Y-12235000D02*
X8390000Y-12255000D01*
X8390000Y-14020000D02*
X8410000Y-14040000D01*
X8410000Y-14020000D02*
X8390000Y-14040000D01*
X8390000Y-16220000D02*
X8410000Y-16240000D01*
X8410000Y-16220000D02*
X8390000Y-16240000D01*
X8390000Y-16290000D02*
X8410000Y-16310000D01*
X8410000Y-16290000D02*
X8390000Y-16310000D01*
X8391500Y-10680750D02*
X8411500Y-10700750D01*
X8411500Y-10680750D02*
X8391500Y-10700750D01*
X8391500Y-10810750D02*
X8411500Y-10830750D01*
X8411500Y-10810750D02*
X8391500Y-10830750D01*
X8395000Y-10540000D02*
X8415000Y-10560000D01*
X8415000Y-10540000D02*
X8395000Y-10560000D01*
X8400000Y-9485250D02*
X8420000Y-9505250D01*
X8420000Y-9485250D02*
X8400000Y-9505250D01*
X8410000Y-12950000D02*
X8430000Y-12970000D01*
X8430000Y-12950000D02*
X8410000Y-12970000D01*
X8410000Y-14210000D02*
X8430000Y-14230000D01*
X8430000Y-14210000D02*
X8410000Y-14230000D01*
X8420000Y-11716750D02*
X8440000Y-11736750D01*
X8440000Y-11716750D02*
X8420000Y-11736750D01*
X8420000Y-11803750D02*
X8440000Y-11823750D01*
X8440000Y-11803750D02*
X8420000Y-11823750D01*
X8430000Y-13710750D02*
X8450000Y-13730750D01*
X8450000Y-13710750D02*
X8430000Y-13730750D01*
X8440000Y-9140000D02*
X8460000Y-9160000D01*
X8460000Y-9140000D02*
X8440000Y-9160000D01*
X8440000Y-11615000D02*
X8460000Y-11635000D01*
X8460000Y-11615000D02*
X8440000Y-11635000D01*
X8445000Y-11540000D02*
X8465000Y-11560000D01*
X8465000Y-11540000D02*
X8445000Y-11560000D01*
X8473500Y-11420750D02*
X8493500Y-11440750D01*
X8493500Y-11420750D02*
X8473500Y-11440750D01*
X8478500Y-10680750D02*
X8498500Y-10700750D01*
X8498500Y-10680750D02*
X8478500Y-10700750D01*
X8478500Y-10825750D02*
X8498500Y-10845750D01*
X8498500Y-10825750D02*
X8478500Y-10845750D01*
X8478500Y-11080750D02*
X8498500Y-11100750D01*
X8498500Y-11080750D02*
X8478500Y-11100750D01*
X8478500Y-11245750D02*
X8498500Y-11265750D01*
X8498500Y-11245750D02*
X8478500Y-11265750D01*
X8483500Y-10540750D02*
X8503500Y-10560750D01*
X8503500Y-10540750D02*
X8483500Y-10560750D01*
X8490000Y-9270750D02*
X8510000Y-9290750D01*
X8510000Y-9270750D02*
X8490000Y-9290750D01*
X8495000Y-12530000D02*
X8515000Y-12550000D01*
X8515000Y-12530000D02*
X8495000Y-12550000D01*
X8495000Y-12618500D02*
X8515000Y-12638500D01*
X8515000Y-12618500D02*
X8495000Y-12638500D01*
X8512373Y-9172627D02*
X8532373Y-9192627D01*
X8532373Y-9172627D02*
X8512373Y-9192627D01*
X8516750Y-13710750D02*
X8536750Y-13730750D01*
X8536750Y-13710750D02*
X8516750Y-13730750D01*
X8520000Y-13170000D02*
X8540000Y-13190000D01*
X8540000Y-13170000D02*
X8520000Y-13190000D01*
X8520000Y-15930750D02*
X8540000Y-15950750D01*
X8540000Y-15930750D02*
X8520000Y-15950750D01*
X8520000Y-16000750D02*
X8540000Y-16020750D01*
X8540000Y-16000750D02*
X8520000Y-16020750D01*
X8520000Y-16080750D02*
X8540000Y-16100750D01*
X8540000Y-16080750D02*
X8520000Y-16100750D01*
X8520000Y-16170000D02*
X8540000Y-16190000D01*
X8540000Y-16170000D02*
X8520000Y-16190000D01*
X8525000Y-13360000D02*
X8545000Y-13380000D01*
X8545000Y-13360000D02*
X8525000Y-13380000D01*
X8530000Y-11716750D02*
X8550000Y-11736750D01*
X8550000Y-11716750D02*
X8530000Y-11736750D01*
X8530000Y-11800750D02*
X8550000Y-11820750D01*
X8550000Y-11800750D02*
X8530000Y-11820750D01*
X8530000Y-15850750D02*
X8550000Y-15870750D01*
X8550000Y-15850750D02*
X8530000Y-15870750D01*
X8531500Y-10960750D02*
X8551500Y-10980750D01*
X8551500Y-10960750D02*
X8531500Y-10980750D01*
X8540000Y-8690000D02*
X8560000Y-8710000D01*
X8560000Y-8690000D02*
X8540000Y-8710000D01*
X8540000Y-10030750D02*
X8560000Y-10050750D01*
X8560000Y-10030750D02*
X8540000Y-10050750D01*
X8540000Y-10100750D02*
X8560000Y-10120750D01*
X8560000Y-10100750D02*
X8540000Y-10120750D01*
X8540000Y-14380000D02*
X8560000Y-14400000D01*
X8560000Y-14380000D02*
X8540000Y-14400000D01*
X8550000Y-9643500D02*
X8570000Y-9663500D01*
X8570000Y-9643500D02*
X8550000Y-9663500D01*
X8550000Y-9715000D02*
X8570000Y-9735000D01*
X8570000Y-9715000D02*
X8550000Y-9735000D01*
X8560000Y-9960750D02*
X8580000Y-9980750D01*
X8580000Y-9960750D02*
X8560000Y-9980750D01*
X8570000Y-9400750D02*
X8590000Y-9420750D01*
X8590000Y-9400750D02*
X8570000Y-9420750D01*
X8570000Y-14550000D02*
X8590000Y-14570000D01*
X8590000Y-14550000D02*
X8570000Y-14570000D01*
X8580000Y-15480750D02*
X8600000Y-15500750D01*
X8600000Y-15480750D02*
X8580000Y-15500750D01*
X8590000Y-14765000D02*
X8610000Y-14785000D01*
X8610000Y-14765000D02*
X8590000Y-14785000D01*
X8590000Y-14960750D02*
X8610000Y-14980750D01*
X8610000Y-14960750D02*
X8590000Y-14980750D01*
X8590000Y-15190750D02*
X8610000Y-15210750D01*
X8610000Y-15190750D02*
X8590000Y-15210750D01*
X8590000Y-15290750D02*
X8610000Y-15310750D01*
X8610000Y-15290750D02*
X8590000Y-15310750D01*
X8590000Y-15600000D02*
X8610000Y-15620000D01*
X8610000Y-15600000D02*
X8590000Y-15620000D01*
X8592500Y-11480000D02*
X8612500Y-11500000D01*
X8612500Y-11480000D02*
X8592500Y-11500000D01*
X8595000Y-11165750D02*
X8615000Y-11185750D01*
X8615000Y-11165750D02*
X8595000Y-11185750D01*
X8600000Y-10030750D02*
X8620000Y-10050750D01*
X8620000Y-10030750D02*
X8600000Y-10050750D01*
X8600000Y-10100750D02*
X8620000Y-10120750D01*
X8620000Y-10100750D02*
X8600000Y-10120750D01*
X8600000Y-13710750D02*
X8620000Y-13730750D01*
X8620000Y-13710750D02*
X8600000Y-13730750D01*
X8610000Y-9230750D02*
X8630000Y-9250750D01*
X8630000Y-9230750D02*
X8610000Y-9250750D01*
X8610000Y-9324250D02*
X8630000Y-9344250D01*
X8630000Y-9324250D02*
X8610000Y-9344250D01*
X8615000Y-9640000D02*
X8635000Y-9660000D01*
X8635000Y-9640000D02*
X8615000Y-9660000D01*
X8615000Y-9715000D02*
X8635000Y-9735000D01*
X8635000Y-9715000D02*
X8615000Y-9735000D01*
X8615000Y-10960750D02*
X8635000Y-10980750D01*
X8635000Y-10960750D02*
X8615000Y-10980750D01*
X8620000Y-9960750D02*
X8640000Y-9980750D01*
X8640000Y-9960750D02*
X8620000Y-9980750D01*
X8620000Y-10645000D02*
X8640000Y-10665000D01*
X8640000Y-10645000D02*
X8620000Y-10665000D01*
X8621500Y-10695750D02*
X8641500Y-10715750D01*
X8641500Y-10695750D02*
X8621500Y-10715750D01*
X8630000Y-13256500D02*
X8650000Y-13276500D01*
X8650000Y-13256500D02*
X8630000Y-13276500D01*
X8630000Y-13344250D02*
X8650000Y-13364250D01*
X8650000Y-13344250D02*
X8630000Y-13364250D01*
X8634000Y-13399750D02*
X8654000Y-13419750D01*
X8654000Y-13399750D02*
X8634000Y-13419750D01*
X8635000Y-12710000D02*
X8655000Y-12730000D01*
X8655000Y-12710000D02*
X8635000Y-12730000D01*
X8640000Y-8690000D02*
X8660000Y-8710000D01*
X8660000Y-8690000D02*
X8640000Y-8710000D01*
X8640000Y-11717250D02*
X8660000Y-11737250D01*
X8660000Y-11717250D02*
X8640000Y-11737250D01*
X8640000Y-11800750D02*
X8660000Y-11820750D01*
X8660000Y-11800750D02*
X8640000Y-11820750D01*
X8640000Y-14040000D02*
X8660000Y-14060000D01*
X8660000Y-14040000D02*
X8640000Y-14060000D01*
X8640000Y-15040750D02*
X8660000Y-15060750D01*
X8660000Y-15040750D02*
X8640000Y-15060750D01*
X8656500Y-15780000D02*
X8676500Y-15800000D01*
X8676500Y-15780000D02*
X8656500Y-15800000D01*
X8660000Y-12930750D02*
X8680000Y-12950750D01*
X8680000Y-12930750D02*
X8660000Y-12950750D01*
X8666250Y-13103750D02*
X8686250Y-13123750D01*
X8686250Y-13103750D02*
X8666250Y-13123750D01*
X8680000Y-14250000D02*
X8700000Y-14270000D01*
X8700000Y-14250000D02*
X8680000Y-14270000D01*
X8680000Y-15380750D02*
X8700000Y-15400750D01*
X8700000Y-15380750D02*
X8680000Y-15400750D01*
X8688000Y-13722750D02*
X8708000Y-13742750D01*
X8708000Y-13722750D02*
X8688000Y-13742750D01*
X8690000Y-16120000D02*
X8710000Y-16140000D01*
X8710000Y-16120000D02*
X8690000Y-16140000D01*
X8710000Y-12680750D02*
X8730000Y-12700750D01*
X8730000Y-12680750D02*
X8710000Y-12700750D01*
X8710000Y-13260000D02*
X8730000Y-13280000D01*
X8730000Y-13260000D02*
X8710000Y-13280000D01*
X8710000Y-16300000D02*
X8730000Y-16320000D01*
X8730000Y-16300000D02*
X8710000Y-16320000D01*
X8715000Y-9040000D02*
X8735000Y-9060000D01*
X8735000Y-9040000D02*
X8715000Y-9060000D01*
X8715000Y-15090750D02*
X8735000Y-15110750D01*
X8735000Y-15090750D02*
X8715000Y-15110750D01*
X8715716Y-16039466D02*
X8735716Y-16059466D01*
X8735716Y-16039466D02*
X8715716Y-16059466D01*
X8720000Y-12250750D02*
X8740000Y-12270750D01*
X8740000Y-12250750D02*
X8720000Y-12270750D01*
X8720000Y-12330750D02*
X8740000Y-12350750D01*
X8740000Y-12330750D02*
X8720000Y-12350750D01*
X8740000Y-8690000D02*
X8760000Y-8710000D01*
X8760000Y-8690000D02*
X8740000Y-8710000D01*
X8740000Y-12900750D02*
X8760000Y-12920750D01*
X8760000Y-12900750D02*
X8740000Y-12920750D01*
X8740000Y-15565000D02*
X8760000Y-15585000D01*
X8760000Y-15565000D02*
X8740000Y-15585000D01*
X8743500Y-15780000D02*
X8763500Y-15800000D01*
X8763500Y-15780000D02*
X8743500Y-15800000D01*
X8745000Y-13355250D02*
X8765000Y-13375250D01*
X8765000Y-13355250D02*
X8745000Y-13375250D01*
X8745000Y-13500000D02*
X8765000Y-13520000D01*
X8765000Y-13500000D02*
X8745000Y-13520000D01*
X8755000Y-11716500D02*
X8775000Y-11736500D01*
X8775000Y-11716500D02*
X8755000Y-11736500D01*
X8755000Y-11803500D02*
X8775000Y-11823500D01*
X8775000Y-11803500D02*
X8755000Y-11823500D01*
X8765000Y-11545000D02*
X8785000Y-11565000D01*
X8785000Y-11545000D02*
X8765000Y-11565000D01*
X8772284Y-16096034D02*
X8792284Y-16116034D01*
X8792284Y-16096034D02*
X8772284Y-16116034D01*
X8780000Y-12694250D02*
X8800000Y-12714250D01*
X8800000Y-12694250D02*
X8780000Y-12714250D01*
X8782000Y-9360000D02*
X8802000Y-9380000D01*
X8802000Y-9360000D02*
X8782000Y-9380000D01*
X8790000Y-14715000D02*
X8810000Y-14735000D01*
X8810000Y-14715000D02*
X8790000Y-14735000D01*
X8800000Y-12250750D02*
X8820000Y-12270750D01*
X8820000Y-12250750D02*
X8800000Y-12270750D01*
X8800000Y-12330750D02*
X8820000Y-12350750D01*
X8820000Y-12330750D02*
X8800000Y-12350750D01*
X8800000Y-14950750D02*
X8820000Y-14970750D01*
X8820000Y-14950750D02*
X8800000Y-14970750D01*
X8807500Y-9190000D02*
X8827500Y-9210000D01*
X8827500Y-9190000D02*
X8807500Y-9210000D01*
X8815000Y-15465000D02*
X8835000Y-15485000D01*
X8835000Y-15465000D02*
X8815000Y-15485000D01*
X8820000Y-13455000D02*
X8840000Y-13475000D01*
X8840000Y-13455000D02*
X8820000Y-13475000D01*
X8840000Y-8690000D02*
X8860000Y-8710000D01*
X8860000Y-8690000D02*
X8840000Y-8710000D01*
X8840000Y-8790000D02*
X8860000Y-8810000D01*
X8860000Y-8790000D02*
X8840000Y-8810000D01*
X8840000Y-8890000D02*
X8860000Y-8910000D01*
X8860000Y-8890000D02*
X8840000Y-8910000D01*
X8840000Y-8990000D02*
X8860000Y-9010000D01*
X8860000Y-8990000D02*
X8840000Y-9010000D01*
X8840000Y-9090000D02*
X8860000Y-9110000D01*
X8860000Y-9090000D02*
X8840000Y-9110000D01*
X8840000Y-10290000D02*
X8860000Y-10310000D01*
X8860000Y-10290000D02*
X8840000Y-10310000D01*
X8840000Y-14490750D02*
X8860000Y-14510750D01*
X8860000Y-14490750D02*
X8840000Y-14510750D01*
X8840000Y-15090000D02*
X8860000Y-15110000D01*
X8860000Y-15090000D02*
X8840000Y-15110000D01*
X8860000Y-10130000D02*
X8880000Y-10150000D01*
X8880000Y-10130000D02*
X8860000Y-10150000D01*
X8860000Y-16260000D02*
X8880000Y-16280000D01*
X8880000Y-16260000D02*
X8860000Y-16280000D01*
X8862000Y-13353750D02*
X8882000Y-13373750D01*
X8882000Y-13353750D02*
X8862000Y-13373750D01*
X8875000Y-11676500D02*
X8895000Y-11696500D01*
X8895000Y-11676500D02*
X8875000Y-11696500D01*
X8875000Y-11763500D02*
X8895000Y-11783500D01*
X8895000Y-11763500D02*
X8875000Y-11783500D01*
X8876500Y-9405000D02*
X8896500Y-9425000D01*
X8896500Y-9405000D02*
X8876500Y-9425000D01*
X8885000Y-9245000D02*
X8905000Y-9265000D01*
X8905000Y-9245000D02*
X8885000Y-9265000D01*
X8885000Y-9325000D02*
X8905000Y-9345000D01*
X8905000Y-9325000D02*
X8885000Y-9345000D01*
X8885000Y-9892250D02*
X8905000Y-9912250D01*
X8905000Y-9892250D02*
X8885000Y-9912250D01*
X8885000Y-9979250D02*
X8905000Y-9999250D01*
X8905000Y-9979250D02*
X8885000Y-9999250D01*
X8890000Y-12900750D02*
X8910000Y-12920750D01*
X8910000Y-12900750D02*
X8890000Y-12920750D01*
X8895000Y-9520000D02*
X8915000Y-9540000D01*
X8915000Y-9520000D02*
X8895000Y-9540000D01*
X8895000Y-9608500D02*
X8915000Y-9628500D01*
X8915000Y-9608500D02*
X8895000Y-9628500D01*
X8896500Y-14600750D02*
X8916500Y-14620750D01*
X8916500Y-14600750D02*
X8896500Y-14620750D01*
X8896500Y-12690750D02*
X8916500Y-12710750D01*
X8916500Y-12690750D02*
X8896500Y-12710750D01*
X8900000Y-15790750D02*
X8920000Y-15810750D01*
X8920000Y-15790750D02*
X8900000Y-15810750D01*
X8905000Y-10695750D02*
X8925000Y-10715750D01*
X8925000Y-10695750D02*
X8905000Y-10715750D01*
X8915000Y-8990000D02*
X8935000Y-9010000D01*
X8935000Y-8990000D02*
X8915000Y-9010000D01*
X8920000Y-10130000D02*
X8940000Y-10150000D01*
X8940000Y-10130000D02*
X8920000Y-10150000D01*
X8920000Y-14050000D02*
X8940000Y-14070000D01*
X8940000Y-14050000D02*
X8920000Y-14070000D01*
X8920000Y-14190000D02*
X8940000Y-14210000D01*
X8940000Y-14190000D02*
X8920000Y-14210000D01*
X8930000Y-9180000D02*
X8950000Y-9200000D01*
X8950000Y-9180000D02*
X8930000Y-9200000D01*
X8930000Y-11505000D02*
X8950000Y-11525000D01*
X8950000Y-11505000D02*
X8930000Y-11525000D01*
X8950000Y-15470750D02*
X8970000Y-15490750D01*
X8970000Y-15470750D02*
X8950000Y-15490750D01*
X8960000Y-12860750D02*
X8980000Y-12880750D01*
X8980000Y-12860750D02*
X8960000Y-12880750D01*
X8968500Y-9400000D02*
X8988500Y-9420000D01*
X8988500Y-9400000D02*
X8968500Y-9420000D01*
X8970000Y-14250750D02*
X8990000Y-14270750D01*
X8990000Y-14250750D02*
X8970000Y-14270750D01*
X8983500Y-14600750D02*
X9003500Y-14620750D01*
X9003500Y-14600750D02*
X8983500Y-14620750D01*
X8985000Y-10130000D02*
X9005000Y-10150000D01*
X9005000Y-10130000D02*
X8985000Y-10150000D01*
X9001500Y-11760750D02*
X9021500Y-11780750D01*
X9021500Y-11760750D02*
X9001500Y-11780750D01*
X9020000Y-12540750D02*
X9040000Y-12560750D01*
X9040000Y-12540750D02*
X9020000Y-12560750D01*
X9020000Y-12620750D02*
X9040000Y-12640750D01*
X9040000Y-12620750D02*
X9020000Y-12640750D01*
X9020000Y-16260000D02*
X9040000Y-16280000D01*
X9040000Y-16260000D02*
X9020000Y-16280000D01*
X9030000Y-9040000D02*
X9050000Y-9060000D01*
X9050000Y-9040000D02*
X9030000Y-9060000D01*
X9030000Y-15470750D02*
X9050000Y-15490750D01*
X9050000Y-15470750D02*
X9030000Y-15490750D01*
X9032500Y-9900000D02*
X9052500Y-9920000D01*
X9052500Y-9900000D02*
X9032500Y-9920000D01*
X9041005Y-13811716D02*
X9061005Y-13831716D01*
X9061005Y-13811716D02*
X9041005Y-13831716D01*
X9045000Y-10130000D02*
X9065000Y-10150000D01*
X9065000Y-10130000D02*
X9045000Y-10150000D01*
X9050000Y-12020750D02*
X9070000Y-12040750D01*
X9070000Y-12020750D02*
X9050000Y-12040750D01*
X9070000Y-15790750D02*
X9090000Y-15810750D01*
X9090000Y-15790750D02*
X9070000Y-15810750D01*
X9078128Y-13778128D02*
X9098128Y-13798128D01*
X9098128Y-13778128D02*
X9078128Y-13798128D01*
X9080000Y-13540000D02*
X9100000Y-13560000D01*
X9100000Y-13540000D02*
X9080000Y-13560000D01*
X9088500Y-11760750D02*
X9108500Y-11780750D01*
X9108500Y-11760750D02*
X9088500Y-11780750D01*
X9096500Y-14600750D02*
X9116500Y-14620750D01*
X9116500Y-14600750D02*
X9096500Y-14620750D01*
X9100000Y-12550750D02*
X9120000Y-12570750D01*
X9120000Y-12550750D02*
X9100000Y-12570750D01*
X9100000Y-14890750D02*
X9120000Y-14910750D01*
X9120000Y-14890750D02*
X9100000Y-14910750D01*
X9105000Y-12685750D02*
X9125000Y-12705750D01*
X9125000Y-12685750D02*
X9105000Y-12705750D01*
X9110000Y-10130000D02*
X9130000Y-10150000D01*
X9130000Y-10130000D02*
X9110000Y-10150000D01*
X9110000Y-15470750D02*
X9130000Y-15490750D01*
X9130000Y-15470750D02*
X9110000Y-15490750D01*
X9111716Y-13741005D02*
X9131716Y-13761005D01*
X9131716Y-13741005D02*
X9111716Y-13761005D01*
X9120000Y-12850750D02*
X9140000Y-12870750D01*
X9140000Y-12850750D02*
X9120000Y-12870750D01*
X9120000Y-12940750D02*
X9140000Y-12960750D01*
X9140000Y-12940750D02*
X9120000Y-12960750D01*
X9130000Y-14250000D02*
X9150000Y-14270000D01*
X9150000Y-14250000D02*
X9130000Y-14270000D01*
X9135000Y-9195000D02*
X9155000Y-9215000D01*
X9155000Y-9195000D02*
X9135000Y-9215000D01*
X9135000Y-9275000D02*
X9155000Y-9295000D01*
X9155000Y-9275000D02*
X9135000Y-9295000D01*
X9140000Y-10540000D02*
X9160000Y-10560000D01*
X9160000Y-10540000D02*
X9140000Y-10560000D01*
X9150000Y-12420750D02*
X9170000Y-12440750D01*
X9170000Y-12420750D02*
X9150000Y-12440750D01*
X9150000Y-15790750D02*
X9170000Y-15810750D01*
X9170000Y-15790750D02*
X9150000Y-15810750D01*
X9161213Y-13946066D02*
X9181213Y-13966066D01*
X9181213Y-13946066D02*
X9161213Y-13966066D01*
X9170000Y-10130000D02*
X9190000Y-10150000D01*
X9190000Y-10130000D02*
X9170000Y-10150000D01*
X9180000Y-14020000D02*
X9200000Y-14040000D01*
X9200000Y-14020000D02*
X9180000Y-14040000D01*
X9180000Y-14717250D02*
X9200000Y-14737250D01*
X9200000Y-14717250D02*
X9180000Y-14737250D01*
X9183500Y-14600750D02*
X9203500Y-14620750D01*
X9203500Y-14600750D02*
X9183500Y-14620750D01*
X9198336Y-13912478D02*
X9218336Y-13932478D01*
X9218336Y-13912478D02*
X9198336Y-13932478D01*
X9200000Y-16040750D02*
X9220000Y-16060750D01*
X9220000Y-16040750D02*
X9200000Y-16060750D01*
X9200000Y-16120750D02*
X9220000Y-16140750D01*
X9220000Y-16120750D02*
X9200000Y-16140750D01*
X9207500Y-9670000D02*
X9227500Y-9690000D01*
X9227500Y-9670000D02*
X9207500Y-9690000D01*
X9210000Y-14220750D02*
X9230000Y-14240750D01*
X9230000Y-14220750D02*
X9210000Y-14240750D01*
X9215000Y-9195000D02*
X9235000Y-9215000D01*
X9235000Y-9195000D02*
X9215000Y-9215000D01*
X9215000Y-9275000D02*
X9235000Y-9295000D01*
X9235000Y-9275000D02*
X9215000Y-9295000D01*
X9220000Y-14500750D02*
X9240000Y-14520750D01*
X9240000Y-14500750D02*
X9220000Y-14520750D01*
X9220000Y-15620000D02*
X9240000Y-15640000D01*
X9240000Y-15620000D02*
X9220000Y-15640000D01*
X9220000Y-15790750D02*
X9240000Y-15810750D01*
X9240000Y-15790750D02*
X9220000Y-15810750D01*
X9225000Y-9545000D02*
X9245000Y-9565000D01*
X9245000Y-9545000D02*
X9225000Y-9565000D01*
X9230000Y-13800000D02*
X9250000Y-13820000D01*
X9250000Y-13800000D02*
X9230000Y-13820000D01*
X9231924Y-13875355D02*
X9251924Y-13895355D01*
X9251924Y-13875355D02*
X9231924Y-13895355D01*
X9240000Y-13600000D02*
X9260000Y-13620000D01*
X9260000Y-13600000D02*
X9240000Y-13620000D01*
X9255000Y-9475000D02*
X9275000Y-9495000D01*
X9275000Y-9475000D02*
X9255000Y-9495000D01*
X9255000Y-13093250D02*
X9275000Y-13113250D01*
X9275000Y-13093250D02*
X9255000Y-13113250D01*
X9255000Y-13188250D02*
X9275000Y-13208250D01*
X9275000Y-13188250D02*
X9255000Y-13208250D01*
X9255000Y-13288250D02*
X9275000Y-13308250D01*
X9275000Y-13288250D02*
X9255000Y-13308250D01*
X9265000Y-10265000D02*
X9285000Y-10285000D01*
X9285000Y-10265000D02*
X9265000Y-10285000D01*
X9280000Y-14080750D02*
X9300000Y-14100750D01*
X9300000Y-14080750D02*
X9280000Y-14100750D01*
X9280000Y-16080750D02*
X9300000Y-16100750D01*
X9300000Y-16080750D02*
X9280000Y-16100750D01*
X9290000Y-15490000D02*
X9310000Y-15510000D01*
X9310000Y-15490000D02*
X9290000Y-15510000D01*
X9300000Y-15620000D02*
X9320000Y-15640000D01*
X9320000Y-15620000D02*
X9300000Y-15640000D01*
X9300000Y-16240000D02*
X9320000Y-16260000D01*
X9320000Y-16240000D02*
X9300000Y-16260000D01*
X9310000Y-12880750D02*
X9330000Y-12900750D01*
X9330000Y-12880750D02*
X9310000Y-12900750D01*
X9310000Y-13388250D02*
X9330000Y-13408250D01*
X9330000Y-13388250D02*
X9310000Y-13408250D01*
X9310000Y-15020750D02*
X9330000Y-15040750D01*
X9330000Y-15020750D02*
X9310000Y-15040750D01*
X9320000Y-9030000D02*
X9340000Y-9050000D01*
X9340000Y-9030000D02*
X9320000Y-9050000D01*
X9320000Y-9595000D02*
X9340000Y-9615000D01*
X9340000Y-9595000D02*
X9320000Y-9615000D01*
X9320000Y-12240750D02*
X9340000Y-12260750D01*
X9340000Y-12240750D02*
X9320000Y-12260750D01*
X9320000Y-13470750D02*
X9340000Y-13490750D01*
X9340000Y-13470750D02*
X9320000Y-13490750D01*
X9320000Y-16300000D02*
X9340000Y-16320000D01*
X9340000Y-16300000D02*
X9320000Y-16320000D01*
X9325000Y-9509250D02*
X9345000Y-9529250D01*
X9345000Y-9509250D02*
X9325000Y-9529250D01*
X9335000Y-9665000D02*
X9355000Y-9685000D01*
X9355000Y-9665000D02*
X9335000Y-9685000D01*
X9340000Y-10700000D02*
X9360000Y-10720000D01*
X9360000Y-10700000D02*
X9340000Y-10720000D01*
X9340000Y-14550750D02*
X9360000Y-14570750D01*
X9360000Y-14550750D02*
X9340000Y-14570750D01*
X9340000Y-14698250D02*
X9360000Y-14718250D01*
X9360000Y-14698250D02*
X9340000Y-14718250D01*
X9350000Y-9741500D02*
X9370000Y-9761500D01*
X9370000Y-9741500D02*
X9350000Y-9761500D01*
X9350000Y-11000000D02*
X9370000Y-11020000D01*
X9370000Y-11000000D02*
X9350000Y-11020000D01*
X9370000Y-9442500D02*
X9390000Y-9462500D01*
X9390000Y-9442500D02*
X9370000Y-9462500D01*
X9370000Y-15330750D02*
X9390000Y-15350750D01*
X9390000Y-15330750D02*
X9370000Y-15350750D01*
X9371250Y-9945000D02*
X9391250Y-9965000D01*
X9391250Y-9945000D02*
X9371250Y-9965000D01*
X9380000Y-15620000D02*
X9400000Y-15640000D01*
X9400000Y-15620000D02*
X9380000Y-15640000D01*
X9390000Y-12634750D02*
X9410000Y-12654750D01*
X9410000Y-12634750D02*
X9390000Y-12654750D01*
X9395000Y-9600000D02*
X9415000Y-9620000D01*
X9415000Y-9600000D02*
X9395000Y-9620000D01*
X9400000Y-12847250D02*
X9420000Y-12867250D01*
X9420000Y-12847250D02*
X9400000Y-12867250D01*
X9400000Y-13440750D02*
X9420000Y-13460750D01*
X9420000Y-13440750D02*
X9400000Y-13460750D01*
X9410000Y-11600750D02*
X9430000Y-11620750D01*
X9430000Y-11600750D02*
X9410000Y-11620750D01*
X9410000Y-14240750D02*
X9430000Y-14260750D01*
X9430000Y-14240750D02*
X9410000Y-14260750D01*
X9410000Y-15720000D02*
X9430000Y-15740000D01*
X9430000Y-15720000D02*
X9410000Y-15740000D01*
X9420000Y-12320750D02*
X9440000Y-12340750D01*
X9440000Y-12320750D02*
X9420000Y-12340750D01*
X9440000Y-9078500D02*
X9460000Y-9098500D01*
X9460000Y-9078500D02*
X9440000Y-9098500D01*
X9440000Y-12037250D02*
X9460000Y-12057250D01*
X9460000Y-12037250D02*
X9440000Y-12057250D01*
X9450000Y-15620000D02*
X9470000Y-15640000D01*
X9470000Y-15620000D02*
X9450000Y-15640000D01*
X9459241Y-14094241D02*
X9479241Y-14114241D01*
X9479241Y-14094241D02*
X9459241Y-14114241D01*
X9460000Y-14500750D02*
X9480000Y-14520750D01*
X9480000Y-14500750D02*
X9460000Y-14520750D01*
X9465000Y-9940000D02*
X9485000Y-9960000D01*
X9485000Y-9940000D02*
X9465000Y-9960000D01*
X9470000Y-16300000D02*
X9490000Y-16320000D01*
X9490000Y-16300000D02*
X9470000Y-16320000D01*
X9480000Y-14697250D02*
X9500000Y-14717250D01*
X9500000Y-14697250D02*
X9480000Y-14717250D01*
X9480000Y-14780750D02*
X9500000Y-14800750D01*
X9500000Y-14780750D02*
X9480000Y-14800750D01*
X9480000Y-15780000D02*
X9500000Y-15800000D01*
X9500000Y-15780000D02*
X9480000Y-15800000D01*
X9490000Y-15490000D02*
X9510000Y-15510000D01*
X9510000Y-15490000D02*
X9490000Y-15510000D01*
X9495000Y-13562250D02*
X9515000Y-13582250D01*
X9515000Y-13562250D02*
X9495000Y-13582250D01*
X9500000Y-8966500D02*
X9520000Y-8986500D01*
X9520000Y-8966500D02*
X9500000Y-8986500D01*
X9520000Y-14600750D02*
X9540000Y-14620750D01*
X9540000Y-14600750D02*
X9520000Y-14620750D01*
X9530000Y-13180750D02*
X9550000Y-13200750D01*
X9550000Y-13180750D02*
X9530000Y-13200750D01*
X9535000Y-12725750D02*
X9555000Y-12745750D01*
X9555000Y-12725750D02*
X9535000Y-12745750D01*
X9540000Y-8690000D02*
X9560000Y-8710000D01*
X9560000Y-8690000D02*
X9540000Y-8710000D01*
X9540000Y-8790000D02*
X9560000Y-8810000D01*
X9560000Y-8790000D02*
X9540000Y-8810000D01*
X9540000Y-8890000D02*
X9560000Y-8910000D01*
X9560000Y-8890000D02*
X9540000Y-8910000D01*
X9554750Y-10120000D02*
X9574750Y-10140000D01*
X9574750Y-10120000D02*
X9554750Y-10140000D01*
X9569625Y-9130375D02*
X9589625Y-9150375D01*
X9589625Y-9130375D02*
X9569625Y-9150375D01*
X9574750Y-10025000D02*
X9594750Y-10045000D01*
X9594750Y-10025000D02*
X9574750Y-10045000D01*
X9580000Y-13110750D02*
X9600000Y-13130750D01*
X9600000Y-13110750D02*
X9580000Y-13130750D01*
X9580000Y-15690000D02*
X9600000Y-15710000D01*
X9600000Y-15690000D02*
X9580000Y-15710000D01*
X9580000Y-15774250D02*
X9600000Y-15794250D01*
X9600000Y-15774250D02*
X9580000Y-15794250D01*
X9585000Y-13545750D02*
X9605000Y-13565750D01*
X9605000Y-13545750D02*
X9585000Y-13565750D01*
X9590000Y-14670750D02*
X9610000Y-14690750D01*
X9610000Y-14670750D02*
X9590000Y-14690750D01*
X9600000Y-10870000D02*
X9620000Y-10890000D01*
X9620000Y-10870000D02*
X9600000Y-10890000D01*
X9600500Y-12504750D02*
X9620500Y-12524750D01*
X9620500Y-12504750D02*
X9600500Y-12524750D01*
X9614750Y-10120000D02*
X9634750Y-10140000D01*
X9634750Y-10120000D02*
X9614750Y-10140000D01*
X9620000Y-11600750D02*
X9640000Y-11620750D01*
X9640000Y-11600750D02*
X9620000Y-11620750D01*
X9634750Y-9575000D02*
X9654750Y-9595000D01*
X9654750Y-9575000D02*
X9634750Y-9595000D01*
X9634750Y-9655000D02*
X9654750Y-9675000D01*
X9654750Y-9655000D02*
X9634750Y-9675000D01*
X9640000Y-8690000D02*
X9660000Y-8710000D01*
X9660000Y-8690000D02*
X9640000Y-8710000D01*
X9640000Y-9305000D02*
X9660000Y-9325000D01*
X9660000Y-9305000D02*
X9640000Y-9325000D01*
X9660000Y-14570750D02*
X9680000Y-14590750D01*
X9680000Y-14570750D02*
X9660000Y-14590750D01*
X9670555Y-13846811D02*
X9690555Y-13866811D01*
X9690555Y-13846811D02*
X9670555Y-13866811D01*
X9677373Y-9247373D02*
X9697373Y-9267373D01*
X9697373Y-9247373D02*
X9677373Y-9267373D01*
X9680000Y-9026250D02*
X9700000Y-9046250D01*
X9700000Y-9026250D02*
X9680000Y-9046250D01*
X9684750Y-10120000D02*
X9704750Y-10140000D01*
X9704750Y-10120000D02*
X9684750Y-10140000D01*
X9685000Y-12342910D02*
X9705000Y-12362910D01*
X9705000Y-12342910D02*
X9685000Y-12362910D01*
X9690000Y-8840000D02*
X9710000Y-8860000D01*
X9710000Y-8840000D02*
X9690000Y-8860000D01*
X9690000Y-9140000D02*
X9710000Y-9160000D01*
X9710000Y-9140000D02*
X9690000Y-9160000D01*
X9690000Y-15315000D02*
X9710000Y-15335000D01*
X9710000Y-15315000D02*
X9690000Y-15335000D01*
X9694750Y-10023500D02*
X9714750Y-10043500D01*
X9714750Y-10023500D02*
X9694750Y-10043500D01*
X9695000Y-13562250D02*
X9715000Y-13582250D01*
X9715000Y-13562250D02*
X9695000Y-13582250D01*
X9700000Y-16077250D02*
X9720000Y-16097250D01*
X9720000Y-16077250D02*
X9700000Y-16097250D01*
X9705500Y-12579750D02*
X9725500Y-12599750D01*
X9725500Y-12579750D02*
X9705500Y-12599750D01*
X9709445Y-14133189D02*
X9729445Y-14153189D01*
X9729445Y-14133189D02*
X9709445Y-14153189D01*
X9714750Y-9575000D02*
X9734750Y-9595000D01*
X9734750Y-9575000D02*
X9714750Y-9595000D01*
X9714750Y-9655000D02*
X9734750Y-9675000D01*
X9734750Y-9655000D02*
X9714750Y-9675000D01*
X9716500Y-11845750D02*
X9736500Y-11865750D01*
X9736500Y-11845750D02*
X9716500Y-11865750D01*
X9720000Y-14630750D02*
X9740000Y-14650750D01*
X9740000Y-14630750D02*
X9720000Y-14650750D01*
X9721000Y-15027000D02*
X9741000Y-15047000D01*
X9741000Y-15027000D02*
X9721000Y-15047000D01*
X9740000Y-8690000D02*
X9760000Y-8710000D01*
X9760000Y-8690000D02*
X9740000Y-8710000D01*
X9740000Y-12137250D02*
X9760000Y-12157250D01*
X9760000Y-12137250D02*
X9740000Y-12157250D01*
X9740000Y-12224250D02*
X9760000Y-12244250D01*
X9760000Y-12224250D02*
X9740000Y-12244250D01*
X9744750Y-10120000D02*
X9764750Y-10140000D01*
X9764750Y-10120000D02*
X9744750Y-10140000D01*
X9745000Y-11932250D02*
X9765000Y-11952250D01*
X9765000Y-11932250D02*
X9745000Y-11952250D01*
X9746500Y-15790000D02*
X9766500Y-15810000D01*
X9766500Y-15790000D02*
X9746500Y-15810000D01*
X9760000Y-16300000D02*
X9780000Y-16320000D01*
X9780000Y-16300000D02*
X9760000Y-16320000D01*
X9775000Y-11025000D02*
X9795000Y-11045000D01*
X9795000Y-11025000D02*
X9775000Y-11045000D01*
X9777500Y-14535750D02*
X9797500Y-14555750D01*
X9797500Y-14535750D02*
X9777500Y-14555750D01*
X9780000Y-16040750D02*
X9800000Y-16060750D01*
X9800000Y-16040750D02*
X9780000Y-16060750D01*
X9780000Y-16110000D02*
X9800000Y-16130000D01*
X9800000Y-16110000D02*
X9780000Y-16130000D01*
X9783000Y-9110000D02*
X9803000Y-9130000D01*
X9803000Y-9110000D02*
X9783000Y-9130000D01*
X9790000Y-14621000D02*
X9810000Y-14641000D01*
X9810000Y-14621000D02*
X9790000Y-14641000D01*
X9790000Y-15565000D02*
X9810000Y-15585000D01*
X9810000Y-15565000D02*
X9790000Y-15585000D01*
X9800000Y-13690750D02*
X9820000Y-13710750D01*
X9820000Y-13690750D02*
X9800000Y-13710750D01*
X9814750Y-10023500D02*
X9834750Y-10043500D01*
X9834750Y-10023500D02*
X9814750Y-10043500D01*
X9821500Y-13542250D02*
X9841500Y-13562250D01*
X9841500Y-13542250D02*
X9821500Y-13562250D01*
X9825000Y-9290000D02*
X9845000Y-9310000D01*
X9845000Y-9290000D02*
X9825000Y-9310000D01*
X9830000Y-13190750D02*
X9850000Y-13210750D01*
X9850000Y-13190750D02*
X9830000Y-13210750D01*
X9830000Y-14797250D02*
X9850000Y-14817250D01*
X9850000Y-14797250D02*
X9830000Y-14817250D01*
X9830000Y-14884250D02*
X9850000Y-14904250D01*
X9850000Y-14884250D02*
X9830000Y-14904250D01*
X9833500Y-15740000D02*
X9853500Y-15760000D01*
X9853500Y-15740000D02*
X9833500Y-15760000D01*
X9835000Y-12991750D02*
X9855000Y-13011750D01*
X9855000Y-12991750D02*
X9835000Y-13011750D01*
X9838000Y-15072000D02*
X9858000Y-15092000D01*
X9858000Y-15072000D02*
X9838000Y-15092000D01*
X9840000Y-12591750D02*
X9860000Y-12611750D01*
X9860000Y-12591750D02*
X9840000Y-12611750D01*
X9840000Y-16040000D02*
X9860000Y-16060000D01*
X9860000Y-16040000D02*
X9840000Y-16060000D01*
X9840000Y-16290000D02*
X9860000Y-16310000D01*
X9860000Y-16290000D02*
X9840000Y-16310000D01*
X9841000Y-14994000D02*
X9861000Y-15014000D01*
X9861000Y-14994000D02*
X9841000Y-15014000D01*
X9845000Y-8692500D02*
X9865000Y-8712500D01*
X9865000Y-8692500D02*
X9845000Y-8712500D01*
X9845000Y-16110000D02*
X9865000Y-16130000D01*
X9865000Y-16110000D02*
X9845000Y-16130000D01*
X9850000Y-13890750D02*
X9870000Y-13910750D01*
X9870000Y-13890750D02*
X9850000Y-13910750D01*
X9851000Y-14728000D02*
X9871000Y-14748000D01*
X9871000Y-14728000D02*
X9851000Y-14748000D01*
X9860000Y-12738250D02*
X9880000Y-12758250D01*
X9880000Y-12738250D02*
X9860000Y-12758250D01*
X9865000Y-11590000D02*
X9885000Y-11610000D01*
X9885000Y-11590000D02*
X9865000Y-11610000D01*
X9880000Y-11320750D02*
X9900000Y-11340750D01*
X9900000Y-11320750D02*
X9880000Y-11340750D01*
X9880000Y-11370750D02*
X9900000Y-11390750D01*
X9900000Y-11370750D02*
X9880000Y-11390750D01*
X9884750Y-9410000D02*
X9904750Y-9430000D01*
X9904750Y-9410000D02*
X9884750Y-9430000D01*
X9884750Y-9825000D02*
X9904750Y-9845000D01*
X9904750Y-9825000D02*
X9884750Y-9845000D01*
X9890000Y-15800000D02*
X9910000Y-15820000D01*
X9910000Y-15800000D02*
X9890000Y-15820000D01*
X9908500Y-13422250D02*
X9928500Y-13442250D01*
X9928500Y-13422250D02*
X9908500Y-13442250D01*
X9910000Y-14370750D02*
X9930000Y-14390750D01*
X9930000Y-14370750D02*
X9910000Y-14390750D01*
X9915000Y-12190000D02*
X9935000Y-12210000D01*
X9935000Y-12190000D02*
X9915000Y-12210000D01*
X9920000Y-16300000D02*
X9940000Y-16320000D01*
X9940000Y-16300000D02*
X9920000Y-16320000D01*
X9920759Y-14129991D02*
X9940759Y-14149991D01*
X9940759Y-14129991D02*
X9920759Y-14149991D01*
X9927500Y-13670750D02*
X9947500Y-13690750D01*
X9947500Y-13670750D02*
X9927500Y-13690750D01*
X9930000Y-13620750D02*
X9950000Y-13640750D01*
X9950000Y-13620750D02*
X9930000Y-13640750D01*
X9941500Y-10130000D02*
X9961500Y-10150000D01*
X9961500Y-10130000D02*
X9941500Y-10150000D01*
X9950000Y-15860750D02*
X9970000Y-15880750D01*
X9970000Y-15860750D02*
X9950000Y-15880750D01*
X9960000Y-16030750D02*
X9980000Y-16050750D01*
X9980000Y-16030750D02*
X9960000Y-16050750D01*
X9965000Y-10015000D02*
X9985000Y-10035000D01*
X9985000Y-10015000D02*
X9965000Y-10035000D01*
X9966020Y-12068590D02*
X9986020Y-12088590D01*
X9986020Y-12068590D02*
X9966020Y-12088590D01*
X9970000Y-12840750D02*
X9990000Y-12860750D01*
X9990000Y-12840750D02*
X9970000Y-12860750D01*
X9975000Y-9131500D02*
X9995000Y-9151500D01*
X9995000Y-9131500D02*
X9975000Y-9151500D01*
X9990000Y-8690000D02*
X10010000Y-8710000D01*
X10010000Y-8690000D02*
X9990000Y-8710000D01*
X9990000Y-8840000D02*
X10010000Y-8860000D01*
X10010000Y-8840000D02*
X9990000Y-8860000D01*
X9990000Y-9040000D02*
X10010000Y-9060000D01*
X10010000Y-9040000D02*
X9990000Y-9060000D01*
X9990000Y-13750750D02*
X10010000Y-13770750D01*
X10010000Y-13750750D02*
X9990000Y-13770750D01*
X9990000Y-14370750D02*
X10010000Y-14390750D01*
X10010000Y-14370750D02*
X9990000Y-14390750D01*
X9992500Y-16090750D02*
X10012500Y-16110750D01*
X10012500Y-16090750D02*
X9992500Y-16110750D01*
X9998500Y-11880750D02*
X10018500Y-11900750D01*
X10018500Y-11880750D02*
X9998500Y-11900750D01*
X10000000Y-16260000D02*
X10020000Y-16280000D01*
X10020000Y-16260000D02*
X10000000Y-16280000D01*
X10010000Y-14455000D02*
X10030000Y-14475000D01*
X10030000Y-14455000D02*
X10010000Y-14475000D01*
X10012500Y-9600000D02*
X10032500Y-9620000D01*
X10032500Y-9600000D02*
X10012500Y-9620000D01*
X10030000Y-12720750D02*
X10050000Y-12740750D01*
X10050000Y-12720750D02*
X10030000Y-12740750D01*
X10030000Y-16200750D02*
X10050000Y-16220750D01*
X10050000Y-16200750D02*
X10030000Y-16220750D01*
X10040000Y-13188250D02*
X10060000Y-13208250D01*
X10060000Y-13188250D02*
X10040000Y-13208250D01*
X10040000Y-16030750D02*
X10060000Y-16050750D01*
X10060000Y-16030750D02*
X10040000Y-16050750D01*
X10052500Y-13098250D02*
X10072500Y-13118250D01*
X10072500Y-13098250D02*
X10052500Y-13118250D01*
X10055000Y-13018250D02*
X10075000Y-13038250D01*
X10075000Y-13018250D02*
X10055000Y-13038250D01*
X10055000Y-13280750D02*
X10075000Y-13300750D01*
X10075000Y-13280750D02*
X10055000Y-13300750D01*
X10070000Y-16150000D02*
X10090000Y-16170000D01*
X10090000Y-16150000D02*
X10070000Y-16170000D01*
X10070000Y-16300000D02*
X10090000Y-16320000D01*
X10090000Y-16300000D02*
X10070000Y-16320000D01*
X10090000Y-8690000D02*
X10110000Y-8710000D01*
X10110000Y-8690000D02*
X10090000Y-8710000D01*
X10090000Y-8990000D02*
X10110000Y-9010000D01*
X10110000Y-8990000D02*
X10090000Y-9010000D01*
X10090000Y-13600750D02*
X10110000Y-13620750D01*
X10110000Y-13600750D02*
X10090000Y-13620750D01*
X10090000Y-13700750D02*
X10110000Y-13720750D01*
X10110000Y-13700750D02*
X10090000Y-13720750D01*
X10092500Y-13650750D02*
X10112500Y-13670750D01*
X10112500Y-13650750D02*
X10092500Y-13670750D01*
X10115000Y-10565000D02*
X10135000Y-10585000D01*
X10135000Y-10565000D02*
X10115000Y-10585000D01*
X10115000Y-10831667D02*
X10135000Y-10851667D01*
X10135000Y-10831667D02*
X10115000Y-10851667D01*
X10115000Y-11098333D02*
X10135000Y-11118333D01*
X10135000Y-11098333D02*
X10115000Y-11118333D01*
X10115000Y-11365000D02*
X10135000Y-11385000D01*
X10135000Y-11365000D02*
X10115000Y-11385000D01*
X10165000Y-9765000D02*
X10185000Y-9785000D01*
X10185000Y-9765000D02*
X10165000Y-9785000D01*
X10165000Y-10140000D02*
X10185000Y-10160000D01*
X10185000Y-10140000D02*
X10165000Y-10160000D01*
X10165000Y-10265000D02*
X10185000Y-10285000D01*
X10185000Y-10265000D02*
X10165000Y-10285000D01*
X10187500Y-9370000D02*
X10207500Y-9390000D01*
X10207500Y-9370000D02*
X10187500Y-9390000D01*
X10188250Y-9204250D02*
X10208250Y-9224250D01*
X10208250Y-9204250D02*
X10188250Y-9224250D01*
X10190000Y-8690000D02*
X10210000Y-8710000D01*
X10210000Y-8690000D02*
X10190000Y-8710000D01*
X10190000Y-8790000D02*
X10210000Y-8810000D01*
X10210000Y-8790000D02*
X10190000Y-8810000D01*
X10190000Y-8890000D02*
X10210000Y-8910000D01*
X10210000Y-8890000D02*
X10190000Y-8910000D01*
X10190000Y-8990000D02*
X10210000Y-9010000D01*
X10210000Y-8990000D02*
X10190000Y-9010000D01*
X10205000Y-9115000D02*
X10225000Y-9135000D01*
X10225000Y-9115000D02*
X10205000Y-9135000D01*
D11*
X8358277Y-16913984D02*
X8358277Y-16713984D01*
X8358277Y-16713984D02*
X8405896Y-16713984D01*
X8405896Y-16713984D02*
X8434467Y-16723508D01*
X8434467Y-16723508D02*
X8453515Y-16742555D01*
X8453515Y-16742555D02*
X8463039Y-16761603D01*
X8463039Y-16761603D02*
X8472563Y-16799698D01*
X8472563Y-16799698D02*
X8472563Y-16828270D01*
X8472563Y-16828270D02*
X8463039Y-16866365D01*
X8463039Y-16866365D02*
X8453515Y-16885412D01*
X8453515Y-16885412D02*
X8434467Y-16904460D01*
X8434467Y-16904460D02*
X8405896Y-16913984D01*
X8405896Y-16913984D02*
X8358277Y-16913984D01*
X8558277Y-16913984D02*
X8558277Y-16780650D01*
X8558277Y-16818746D02*
X8567801Y-16799698D01*
X8567801Y-16799698D02*
X8577324Y-16790174D01*
X8577324Y-16790174D02*
X8596372Y-16780650D01*
X8596372Y-16780650D02*
X8615420Y-16780650D01*
X8682086Y-16913984D02*
X8682086Y-16780650D01*
X8682086Y-16713984D02*
X8672563Y-16723508D01*
X8672563Y-16723508D02*
X8682086Y-16733031D01*
X8682086Y-16733031D02*
X8691610Y-16723508D01*
X8691610Y-16723508D02*
X8682086Y-16713984D01*
X8682086Y-16713984D02*
X8682086Y-16733031D01*
X8805896Y-16913984D02*
X8786848Y-16904460D01*
X8786848Y-16904460D02*
X8777324Y-16885412D01*
X8777324Y-16885412D02*
X8777324Y-16713984D01*
X8910658Y-16913984D02*
X8891610Y-16904460D01*
X8891610Y-16904460D02*
X8882086Y-16885412D01*
X8882086Y-16885412D02*
X8882086Y-16713984D01*
X9139229Y-16913984D02*
X9139229Y-16713984D01*
X9139229Y-16713984D02*
X9205896Y-16856841D01*
X9205896Y-16856841D02*
X9272563Y-16713984D01*
X9272563Y-16713984D02*
X9272563Y-16913984D01*
X9453515Y-16913984D02*
X9453515Y-16809222D01*
X9453515Y-16809222D02*
X9443991Y-16790174D01*
X9443991Y-16790174D02*
X9424944Y-16780650D01*
X9424944Y-16780650D02*
X9386848Y-16780650D01*
X9386848Y-16780650D02*
X9367801Y-16790174D01*
X9453515Y-16904460D02*
X9434467Y-16913984D01*
X9434467Y-16913984D02*
X9386848Y-16913984D01*
X9386848Y-16913984D02*
X9367801Y-16904460D01*
X9367801Y-16904460D02*
X9358277Y-16885412D01*
X9358277Y-16885412D02*
X9358277Y-16866365D01*
X9358277Y-16866365D02*
X9367801Y-16847317D01*
X9367801Y-16847317D02*
X9386848Y-16837793D01*
X9386848Y-16837793D02*
X9434467Y-16837793D01*
X9434467Y-16837793D02*
X9453515Y-16828270D01*
X9548753Y-16780650D02*
X9548753Y-16980650D01*
X9548753Y-16790174D02*
X9567801Y-16780650D01*
X9567801Y-16780650D02*
X9605896Y-16780650D01*
X9605896Y-16780650D02*
X9624944Y-16790174D01*
X9624944Y-16790174D02*
X9634467Y-16799698D01*
X9634467Y-16799698D02*
X9643991Y-16818746D01*
X9643991Y-16818746D02*
X9643991Y-16875889D01*
X9643991Y-16875889D02*
X9634467Y-16894936D01*
X9634467Y-16894936D02*
X9624944Y-16904460D01*
X9624944Y-16904460D02*
X9605896Y-16913984D01*
X9605896Y-16913984D02*
X9567801Y-16913984D01*
X9567801Y-16913984D02*
X9548753Y-16904460D01*
X9729705Y-16894936D02*
X9739229Y-16904460D01*
X9739229Y-16904460D02*
X9729705Y-16913984D01*
X9729705Y-16913984D02*
X9720182Y-16904460D01*
X9720182Y-16904460D02*
X9729705Y-16894936D01*
X9729705Y-16894936D02*
X9729705Y-16913984D01*
X9729705Y-16790174D02*
X9739229Y-16799698D01*
X9739229Y-16799698D02*
X9729705Y-16809222D01*
X9729705Y-16809222D02*
X9720182Y-16799698D01*
X9720182Y-16799698D02*
X9729705Y-16790174D01*
X9729705Y-16790174D02*
X9729705Y-16809222D01*
D12*
X8077500Y-17232500D02*
X8097500Y-17252500D01*
X8097500Y-17232500D02*
X8077500Y-17252500D01*
D11*
X8396372Y-17133984D02*
X8415420Y-17133984D01*
X8415420Y-17133984D02*
X8434467Y-17143508D01*
X8434467Y-17143508D02*
X8443991Y-17153031D01*
X8443991Y-17153031D02*
X8453515Y-17172079D01*
X8453515Y-17172079D02*
X8463039Y-17210174D01*
X8463039Y-17210174D02*
X8463039Y-17257793D01*
X8463039Y-17257793D02*
X8453515Y-17295889D01*
X8453515Y-17295889D02*
X8443991Y-17314936D01*
X8443991Y-17314936D02*
X8434467Y-17324460D01*
X8434467Y-17324460D02*
X8415420Y-17333984D01*
X8415420Y-17333984D02*
X8396372Y-17333984D01*
X8396372Y-17333984D02*
X8377324Y-17324460D01*
X8377324Y-17324460D02*
X8367801Y-17314936D01*
X8367801Y-17314936D02*
X8358277Y-17295889D01*
X8358277Y-17295889D02*
X8348753Y-17257793D01*
X8348753Y-17257793D02*
X8348753Y-17210174D01*
X8348753Y-17210174D02*
X8358277Y-17172079D01*
X8358277Y-17172079D02*
X8367801Y-17153031D01*
X8367801Y-17153031D02*
X8377324Y-17143508D01*
X8377324Y-17143508D02*
X8396372Y-17133984D01*
X8548753Y-17314936D02*
X8558277Y-17324460D01*
X8558277Y-17324460D02*
X8548753Y-17333984D01*
X8548753Y-17333984D02*
X8539229Y-17324460D01*
X8539229Y-17324460D02*
X8548753Y-17314936D01*
X8548753Y-17314936D02*
X8548753Y-17333984D01*
X8634467Y-17153031D02*
X8643991Y-17143508D01*
X8643991Y-17143508D02*
X8663039Y-17133984D01*
X8663039Y-17133984D02*
X8710658Y-17133984D01*
X8710658Y-17133984D02*
X8729705Y-17143508D01*
X8729705Y-17143508D02*
X8739229Y-17153031D01*
X8739229Y-17153031D02*
X8748753Y-17172079D01*
X8748753Y-17172079D02*
X8748753Y-17191127D01*
X8748753Y-17191127D02*
X8739229Y-17219698D01*
X8739229Y-17219698D02*
X8624944Y-17333984D01*
X8624944Y-17333984D02*
X8748753Y-17333984D01*
X8872563Y-17133984D02*
X8891610Y-17133984D01*
X8891610Y-17133984D02*
X8910658Y-17143508D01*
X8910658Y-17143508D02*
X8920182Y-17153031D01*
X8920182Y-17153031D02*
X8929705Y-17172079D01*
X8929705Y-17172079D02*
X8939229Y-17210174D01*
X8939229Y-17210174D02*
X8939229Y-17257793D01*
X8939229Y-17257793D02*
X8929705Y-17295889D01*
X8929705Y-17295889D02*
X8920182Y-17314936D01*
X8920182Y-17314936D02*
X8910658Y-17324460D01*
X8910658Y-17324460D02*
X8891610Y-17333984D01*
X8891610Y-17333984D02*
X8872563Y-17333984D01*
X8872563Y-17333984D02*
X8853515Y-17324460D01*
X8853515Y-17324460D02*
X8843991Y-17314936D01*
X8843991Y-17314936D02*
X8834467Y-17295889D01*
X8834467Y-17295889D02*
X8824944Y-17257793D01*
X8824944Y-17257793D02*
X8824944Y-17210174D01*
X8824944Y-17210174D02*
X8834467Y-17172079D01*
X8834467Y-17172079D02*
X8843991Y-17153031D01*
X8843991Y-17153031D02*
X8853515Y-17143508D01*
X8853515Y-17143508D02*
X8872563Y-17133984D01*
X9063039Y-17133984D02*
X9082086Y-17133984D01*
X9082086Y-17133984D02*
X9101134Y-17143508D01*
X9101134Y-17143508D02*
X9110658Y-17153031D01*
X9110658Y-17153031D02*
X9120182Y-17172079D01*
X9120182Y-17172079D02*
X9129705Y-17210174D01*
X9129705Y-17210174D02*
X9129705Y-17257793D01*
X9129705Y-17257793D02*
X9120182Y-17295889D01*
X9120182Y-17295889D02*
X9110658Y-17314936D01*
X9110658Y-17314936D02*
X9101134Y-17324460D01*
X9101134Y-17324460D02*
X9082086Y-17333984D01*
X9082086Y-17333984D02*
X9063039Y-17333984D01*
X9063039Y-17333984D02*
X9043991Y-17324460D01*
X9043991Y-17324460D02*
X9034467Y-17314936D01*
X9034467Y-17314936D02*
X9024944Y-17295889D01*
X9024944Y-17295889D02*
X9015420Y-17257793D01*
X9015420Y-17257793D02*
X9015420Y-17210174D01*
X9015420Y-17210174D02*
X9024944Y-17172079D01*
X9024944Y-17172079D02*
X9034467Y-17153031D01*
X9034467Y-17153031D02*
X9043991Y-17143508D01*
X9043991Y-17143508D02*
X9063039Y-17133984D01*
X9215420Y-17333984D02*
X9215420Y-17200650D01*
X9215420Y-17219698D02*
X9224944Y-17210174D01*
X9224944Y-17210174D02*
X9243991Y-17200650D01*
X9243991Y-17200650D02*
X9272563Y-17200650D01*
X9272563Y-17200650D02*
X9291610Y-17210174D01*
X9291610Y-17210174D02*
X9301134Y-17229222D01*
X9301134Y-17229222D02*
X9301134Y-17333984D01*
X9301134Y-17229222D02*
X9310658Y-17210174D01*
X9310658Y-17210174D02*
X9329705Y-17200650D01*
X9329705Y-17200650D02*
X9358277Y-17200650D01*
X9358277Y-17200650D02*
X9377325Y-17210174D01*
X9377325Y-17210174D02*
X9386848Y-17229222D01*
X9386848Y-17229222D02*
X9386848Y-17333984D01*
X9482086Y-17333984D02*
X9482086Y-17200650D01*
X9482086Y-17219698D02*
X9491610Y-17210174D01*
X9491610Y-17210174D02*
X9510658Y-17200650D01*
X9510658Y-17200650D02*
X9539229Y-17200650D01*
X9539229Y-17200650D02*
X9558277Y-17210174D01*
X9558277Y-17210174D02*
X9567801Y-17229222D01*
X9567801Y-17229222D02*
X9567801Y-17333984D01*
X9567801Y-17229222D02*
X9577325Y-17210174D01*
X9577325Y-17210174D02*
X9596372Y-17200650D01*
X9596372Y-17200650D02*
X9624944Y-17200650D01*
X9624944Y-17200650D02*
X9643991Y-17210174D01*
X9643991Y-17210174D02*
X9653515Y-17229222D01*
X9653515Y-17229222D02*
X9653515Y-17333984D01*
X10043991Y-17124460D02*
X9872563Y-17381603D01*
X10301134Y-17133984D02*
X10320182Y-17133984D01*
X10320182Y-17133984D02*
X10339229Y-17143508D01*
X10339229Y-17143508D02*
X10348753Y-17153031D01*
X10348753Y-17153031D02*
X10358277Y-17172079D01*
X10358277Y-17172079D02*
X10367801Y-17210174D01*
X10367801Y-17210174D02*
X10367801Y-17257793D01*
X10367801Y-17257793D02*
X10358277Y-17295889D01*
X10358277Y-17295889D02*
X10348753Y-17314936D01*
X10348753Y-17314936D02*
X10339229Y-17324460D01*
X10339229Y-17324460D02*
X10320182Y-17333984D01*
X10320182Y-17333984D02*
X10301134Y-17333984D01*
X10301134Y-17333984D02*
X10282087Y-17324460D01*
X10282087Y-17324460D02*
X10272563Y-17314936D01*
X10272563Y-17314936D02*
X10263039Y-17295889D01*
X10263039Y-17295889D02*
X10253515Y-17257793D01*
X10253515Y-17257793D02*
X10253515Y-17210174D01*
X10253515Y-17210174D02*
X10263039Y-17172079D01*
X10263039Y-17172079D02*
X10272563Y-17153031D01*
X10272563Y-17153031D02*
X10282087Y-17143508D01*
X10282087Y-17143508D02*
X10301134Y-17133984D01*
X10453515Y-17314936D02*
X10463039Y-17324460D01*
X10463039Y-17324460D02*
X10453515Y-17333984D01*
X10453515Y-17333984D02*
X10443991Y-17324460D01*
X10443991Y-17324460D02*
X10453515Y-17314936D01*
X10453515Y-17314936D02*
X10453515Y-17333984D01*
X10586848Y-17133984D02*
X10605896Y-17133984D01*
X10605896Y-17133984D02*
X10624944Y-17143508D01*
X10624944Y-17143508D02*
X10634468Y-17153031D01*
X10634468Y-17153031D02*
X10643991Y-17172079D01*
X10643991Y-17172079D02*
X10653515Y-17210174D01*
X10653515Y-17210174D02*
X10653515Y-17257793D01*
X10653515Y-17257793D02*
X10643991Y-17295889D01*
X10643991Y-17295889D02*
X10634468Y-17314936D01*
X10634468Y-17314936D02*
X10624944Y-17324460D01*
X10624944Y-17324460D02*
X10605896Y-17333984D01*
X10605896Y-17333984D02*
X10586848Y-17333984D01*
X10586848Y-17333984D02*
X10567801Y-17324460D01*
X10567801Y-17324460D02*
X10558277Y-17314936D01*
X10558277Y-17314936D02*
X10548753Y-17295889D01*
X10548753Y-17295889D02*
X10539229Y-17257793D01*
X10539229Y-17257793D02*
X10539229Y-17210174D01*
X10539229Y-17210174D02*
X10548753Y-17172079D01*
X10548753Y-17172079D02*
X10558277Y-17153031D01*
X10558277Y-17153031D02*
X10567801Y-17143508D01*
X10567801Y-17143508D02*
X10586848Y-17133984D01*
X10777325Y-17133984D02*
X10796372Y-17133984D01*
X10796372Y-17133984D02*
X10815420Y-17143508D01*
X10815420Y-17143508D02*
X10824944Y-17153031D01*
X10824944Y-17153031D02*
X10834468Y-17172079D01*
X10834468Y-17172079D02*
X10843991Y-17210174D01*
X10843991Y-17210174D02*
X10843991Y-17257793D01*
X10843991Y-17257793D02*
X10834468Y-17295889D01*
X10834468Y-17295889D02*
X10824944Y-17314936D01*
X10824944Y-17314936D02*
X10815420Y-17324460D01*
X10815420Y-17324460D02*
X10796372Y-17333984D01*
X10796372Y-17333984D02*
X10777325Y-17333984D01*
X10777325Y-17333984D02*
X10758277Y-17324460D01*
X10758277Y-17324460D02*
X10748753Y-17314936D01*
X10748753Y-17314936D02*
X10739229Y-17295889D01*
X10739229Y-17295889D02*
X10729706Y-17257793D01*
X10729706Y-17257793D02*
X10729706Y-17210174D01*
X10729706Y-17210174D02*
X10739229Y-17172079D01*
X10739229Y-17172079D02*
X10748753Y-17153031D01*
X10748753Y-17153031D02*
X10758277Y-17143508D01*
X10758277Y-17143508D02*
X10777325Y-17133984D01*
X10910658Y-17133984D02*
X11043991Y-17133984D01*
X11043991Y-17133984D02*
X10958277Y-17333984D01*
X11129706Y-17333984D02*
X11167801Y-17333984D01*
X11167801Y-17333984D02*
X11186848Y-17324460D01*
X11186848Y-17324460D02*
X11196372Y-17314936D01*
X11196372Y-17314936D02*
X11215420Y-17286365D01*
X11215420Y-17286365D02*
X11224944Y-17248270D01*
X11224944Y-17248270D02*
X11224944Y-17172079D01*
X11224944Y-17172079D02*
X11215420Y-17153031D01*
X11215420Y-17153031D02*
X11205896Y-17143508D01*
X11205896Y-17143508D02*
X11186848Y-17133984D01*
X11186848Y-17133984D02*
X11148753Y-17133984D01*
X11148753Y-17133984D02*
X11129706Y-17143508D01*
X11129706Y-17143508D02*
X11120182Y-17153031D01*
X11120182Y-17153031D02*
X11110658Y-17172079D01*
X11110658Y-17172079D02*
X11110658Y-17219698D01*
X11110658Y-17219698D02*
X11120182Y-17238746D01*
X11120182Y-17238746D02*
X11129706Y-17248270D01*
X11129706Y-17248270D02*
X11148753Y-17257793D01*
X11148753Y-17257793D02*
X11186848Y-17257793D01*
X11186848Y-17257793D02*
X11205896Y-17248270D01*
X11205896Y-17248270D02*
X11215420Y-17238746D01*
X11215420Y-17238746D02*
X11224944Y-17219698D01*
X11301134Y-17133984D02*
X11301134Y-17172079D01*
X11377325Y-17133984D02*
X11377325Y-17172079D01*
X11672563Y-17410174D02*
X11663039Y-17400650D01*
X11663039Y-17400650D02*
X11643991Y-17372079D01*
X11643991Y-17372079D02*
X11634468Y-17353031D01*
X11634468Y-17353031D02*
X11624944Y-17324460D01*
X11624944Y-17324460D02*
X11615420Y-17276841D01*
X11615420Y-17276841D02*
X11615420Y-17238746D01*
X11615420Y-17238746D02*
X11624944Y-17191127D01*
X11624944Y-17191127D02*
X11634468Y-17162555D01*
X11634468Y-17162555D02*
X11643991Y-17143508D01*
X11643991Y-17143508D02*
X11663039Y-17114936D01*
X11663039Y-17114936D02*
X11672563Y-17105412D01*
X11834468Y-17200650D02*
X11834468Y-17333984D01*
X11786848Y-17124460D02*
X11739229Y-17267317D01*
X11739229Y-17267317D02*
X11863039Y-17267317D01*
X11929706Y-17153031D02*
X11939229Y-17143508D01*
X11939229Y-17143508D02*
X11958277Y-17133984D01*
X11958277Y-17133984D02*
X12005896Y-17133984D01*
X12005896Y-17133984D02*
X12024944Y-17143508D01*
X12024944Y-17143508D02*
X12034468Y-17153031D01*
X12034468Y-17153031D02*
X12043991Y-17172079D01*
X12043991Y-17172079D02*
X12043991Y-17191127D01*
X12043991Y-17191127D02*
X12034468Y-17219698D01*
X12034468Y-17219698D02*
X11920182Y-17333984D01*
X11920182Y-17333984D02*
X12043991Y-17333984D01*
X12110658Y-17133984D02*
X12243991Y-17133984D01*
X12243991Y-17133984D02*
X12158277Y-17333984D01*
X12472563Y-17333984D02*
X12472563Y-17133984D01*
X12558277Y-17333984D02*
X12558277Y-17229222D01*
X12558277Y-17229222D02*
X12548753Y-17210174D01*
X12548753Y-17210174D02*
X12529706Y-17200650D01*
X12529706Y-17200650D02*
X12501134Y-17200650D01*
X12501134Y-17200650D02*
X12482087Y-17210174D01*
X12482087Y-17210174D02*
X12472563Y-17219698D01*
X12682087Y-17333984D02*
X12663039Y-17324460D01*
X12663039Y-17324460D02*
X12653515Y-17314936D01*
X12653515Y-17314936D02*
X12643991Y-17295889D01*
X12643991Y-17295889D02*
X12643991Y-17238746D01*
X12643991Y-17238746D02*
X12653515Y-17219698D01*
X12653515Y-17219698D02*
X12663039Y-17210174D01*
X12663039Y-17210174D02*
X12682087Y-17200650D01*
X12682087Y-17200650D02*
X12710658Y-17200650D01*
X12710658Y-17200650D02*
X12729706Y-17210174D01*
X12729706Y-17210174D02*
X12739230Y-17219698D01*
X12739230Y-17219698D02*
X12748753Y-17238746D01*
X12748753Y-17238746D02*
X12748753Y-17295889D01*
X12748753Y-17295889D02*
X12739230Y-17314936D01*
X12739230Y-17314936D02*
X12729706Y-17324460D01*
X12729706Y-17324460D02*
X12710658Y-17333984D01*
X12710658Y-17333984D02*
X12682087Y-17333984D01*
X12863039Y-17333984D02*
X12843991Y-17324460D01*
X12843991Y-17324460D02*
X12834468Y-17305412D01*
X12834468Y-17305412D02*
X12834468Y-17133984D01*
X13015420Y-17324460D02*
X12996372Y-17333984D01*
X12996372Y-17333984D02*
X12958277Y-17333984D01*
X12958277Y-17333984D02*
X12939230Y-17324460D01*
X12939230Y-17324460D02*
X12929706Y-17305412D01*
X12929706Y-17305412D02*
X12929706Y-17229222D01*
X12929706Y-17229222D02*
X12939230Y-17210174D01*
X12939230Y-17210174D02*
X12958277Y-17200650D01*
X12958277Y-17200650D02*
X12996372Y-17200650D01*
X12996372Y-17200650D02*
X13015420Y-17210174D01*
X13015420Y-17210174D02*
X13024944Y-17229222D01*
X13024944Y-17229222D02*
X13024944Y-17248270D01*
X13024944Y-17248270D02*
X12929706Y-17267317D01*
X13101134Y-17324460D02*
X13120182Y-17333984D01*
X13120182Y-17333984D02*
X13158277Y-17333984D01*
X13158277Y-17333984D02*
X13177325Y-17324460D01*
X13177325Y-17324460D02*
X13186849Y-17305412D01*
X13186849Y-17305412D02*
X13186849Y-17295889D01*
X13186849Y-17295889D02*
X13177325Y-17276841D01*
X13177325Y-17276841D02*
X13158277Y-17267317D01*
X13158277Y-17267317D02*
X13129706Y-17267317D01*
X13129706Y-17267317D02*
X13110658Y-17257793D01*
X13110658Y-17257793D02*
X13101134Y-17238746D01*
X13101134Y-17238746D02*
X13101134Y-17229222D01*
X13101134Y-17229222D02*
X13110658Y-17210174D01*
X13110658Y-17210174D02*
X13129706Y-17200650D01*
X13129706Y-17200650D02*
X13158277Y-17200650D01*
X13158277Y-17200650D02*
X13177325Y-17210174D01*
X13253515Y-17410174D02*
X13263039Y-17400650D01*
X13263039Y-17400650D02*
X13282087Y-17372079D01*
X13282087Y-17372079D02*
X13291611Y-17353031D01*
X13291611Y-17353031D02*
X13301134Y-17324460D01*
X13301134Y-17324460D02*
X13310658Y-17276841D01*
X13310658Y-17276841D02*
X13310658Y-17238746D01*
X13310658Y-17238746D02*
X13301134Y-17191127D01*
X13301134Y-17191127D02*
X13291611Y-17162555D01*
X13291611Y-17162555D02*
X13282087Y-17143508D01*
X13282087Y-17143508D02*
X13263039Y-17114936D01*
X13263039Y-17114936D02*
X13253515Y-17105412D01*
M02*
