%TF.GenerationSoftware,KiCad,Pcbnew,8.0.6*%
%TF.CreationDate,2024-11-27T08:16:30+01:00*%
%TF.ProjectId,M2SmartHome,4d32536d-6172-4744-986f-6d652e6b6963,rev?*%
%TF.SameCoordinates,Original*%
%TF.FileFunction,Drillmap*%
%TF.FilePolarity,Positive*%
%FSLAX45Y45*%
G04 Gerber Fmt 4.5, Leading zero omitted, Abs format (unit mm)*
G04 Created by KiCad (PCBNEW 8.0.6) date 2024-11-27 08:16:30*
%MOMM*%
%LPD*%
G01*
G04 APERTURE LIST*
%ADD10C,0.050000*%
%ADD11C,0.200000*%
G04 APERTURE END LIST*
D10*
X9375000Y-8600000D02*
G75*
G02*
X9025000Y-8600000I-175000J0D01*
G01*
X10300000Y-8600000D02*
X9375000Y-8600000D01*
X8100000Y-8600000D02*
X9025000Y-8600000D01*
X10300000Y-16200000D02*
X10300000Y-8600000D01*
X8100000Y-16200000D02*
X8100000Y-8600000D01*
X8100000Y-16200000D02*
X8157500Y-16200000D01*
X8207500Y-16250000D02*
X8207500Y-16600000D01*
X8207500Y-16600000D02*
X8527500Y-16600000D01*
X8527500Y-16600000D02*
X8527500Y-16310000D01*
X8647500Y-16310000D02*
X8647500Y-16600000D01*
X8647500Y-16600000D02*
X9200000Y-16600000D01*
X9200000Y-16600000D02*
X10192500Y-16600000D01*
X10192500Y-16600000D02*
X10192500Y-16250000D01*
X10242500Y-16200000D02*
X10300000Y-16200000D01*
X8157500Y-16200000D02*
G75*
G02*
X8207500Y-16250000I0J-50000D01*
G01*
X8527500Y-16310000D02*
G75*
G02*
X8647500Y-16310000I60000J0D01*
G01*
X10192500Y-16250000D02*
G75*
G02*
X10242500Y-16200000I50000J0D01*
G01*
D11*
X8358277Y-16913984D02*
X8358277Y-16713984D01*
X8358277Y-16713984D02*
X8405896Y-16713984D01*
X8405896Y-16713984D02*
X8434467Y-16723508D01*
X8434467Y-16723508D02*
X8453515Y-16742555D01*
X8453515Y-16742555D02*
X8463039Y-16761603D01*
X8463039Y-16761603D02*
X8472563Y-16799698D01*
X8472563Y-16799698D02*
X8472563Y-16828270D01*
X8472563Y-16828270D02*
X8463039Y-16866365D01*
X8463039Y-16866365D02*
X8453515Y-16885412D01*
X8453515Y-16885412D02*
X8434467Y-16904460D01*
X8434467Y-16904460D02*
X8405896Y-16913984D01*
X8405896Y-16913984D02*
X8358277Y-16913984D01*
X8558277Y-16913984D02*
X8558277Y-16780650D01*
X8558277Y-16818746D02*
X8567801Y-16799698D01*
X8567801Y-16799698D02*
X8577324Y-16790174D01*
X8577324Y-16790174D02*
X8596372Y-16780650D01*
X8596372Y-16780650D02*
X8615420Y-16780650D01*
X8682086Y-16913984D02*
X8682086Y-16780650D01*
X8682086Y-16713984D02*
X8672563Y-16723508D01*
X8672563Y-16723508D02*
X8682086Y-16733031D01*
X8682086Y-16733031D02*
X8691610Y-16723508D01*
X8691610Y-16723508D02*
X8682086Y-16713984D01*
X8682086Y-16713984D02*
X8682086Y-16733031D01*
X8805896Y-16913984D02*
X8786848Y-16904460D01*
X8786848Y-16904460D02*
X8777324Y-16885412D01*
X8777324Y-16885412D02*
X8777324Y-16713984D01*
X8910658Y-16913984D02*
X8891610Y-16904460D01*
X8891610Y-16904460D02*
X8882086Y-16885412D01*
X8882086Y-16885412D02*
X8882086Y-16713984D01*
X9139229Y-16913984D02*
X9139229Y-16713984D01*
X9139229Y-16713984D02*
X9205896Y-16856841D01*
X9205896Y-16856841D02*
X9272563Y-16713984D01*
X9272563Y-16713984D02*
X9272563Y-16913984D01*
X9453515Y-16913984D02*
X9453515Y-16809222D01*
X9453515Y-16809222D02*
X9443991Y-16790174D01*
X9443991Y-16790174D02*
X9424944Y-16780650D01*
X9424944Y-16780650D02*
X9386848Y-16780650D01*
X9386848Y-16780650D02*
X9367801Y-16790174D01*
X9453515Y-16904460D02*
X9434467Y-16913984D01*
X9434467Y-16913984D02*
X9386848Y-16913984D01*
X9386848Y-16913984D02*
X9367801Y-16904460D01*
X9367801Y-16904460D02*
X9358277Y-16885412D01*
X9358277Y-16885412D02*
X9358277Y-16866365D01*
X9358277Y-16866365D02*
X9367801Y-16847317D01*
X9367801Y-16847317D02*
X9386848Y-16837793D01*
X9386848Y-16837793D02*
X9434467Y-16837793D01*
X9434467Y-16837793D02*
X9453515Y-16828270D01*
X9548753Y-16780650D02*
X9548753Y-16980650D01*
X9548753Y-16790174D02*
X9567801Y-16780650D01*
X9567801Y-16780650D02*
X9605896Y-16780650D01*
X9605896Y-16780650D02*
X9624944Y-16790174D01*
X9624944Y-16790174D02*
X9634467Y-16799698D01*
X9634467Y-16799698D02*
X9643991Y-16818746D01*
X9643991Y-16818746D02*
X9643991Y-16875889D01*
X9643991Y-16875889D02*
X9634467Y-16894936D01*
X9634467Y-16894936D02*
X9624944Y-16904460D01*
X9624944Y-16904460D02*
X9605896Y-16913984D01*
X9605896Y-16913984D02*
X9567801Y-16913984D01*
X9567801Y-16913984D02*
X9548753Y-16904460D01*
X9729705Y-16894936D02*
X9739229Y-16904460D01*
X9739229Y-16904460D02*
X9729705Y-16913984D01*
X9729705Y-16913984D02*
X9720182Y-16904460D01*
X9720182Y-16904460D02*
X9729705Y-16894936D01*
X9729705Y-16894936D02*
X9729705Y-16913984D01*
X9729705Y-16790174D02*
X9739229Y-16799698D01*
X9739229Y-16799698D02*
X9729705Y-16809222D01*
X9729705Y-16809222D02*
X9720182Y-16799698D01*
X9720182Y-16799698D02*
X9729705Y-16790174D01*
X9729705Y-16790174D02*
X9729705Y-16809222D01*
M02*
