%TF.GenerationSoftware,KiCad,Pcbnew,8.0.6*%
%TF.CreationDate,2024-11-23T18:19:37+01:00*%
%TF.ProjectId,M2SmartHome,4d32536d-6172-4744-986f-6d652e6b6963,rev?*%
%TF.SameCoordinates,Original*%
%TF.FileFunction,Copper,L2,Inr*%
%TF.FilePolarity,Positive*%
%FSLAX46Y46*%
G04 Gerber Fmt 4.6, Leading zero omitted, Abs format (unit mm)*
G04 Created by KiCad (PCBNEW 8.0.6) date 2024-11-23 18:19:37*
%MOMM*%
%LPD*%
G01*
G04 APERTURE LIST*
%TA.AperFunction,ViaPad*%
%ADD10C,0.400000*%
%TD*%
%TA.AperFunction,Conductor*%
%ADD11C,0.200000*%
%TD*%
%TA.AperFunction,Conductor*%
%ADD12C,0.400000*%
%TD*%
G04 APERTURE END LIST*
D10*
%TO.N,Net-(U2-VDDI)*%
X83800000Y-131000000D03*
%TO.N,+3V3_eMMC*%
X86762500Y-131137500D03*
X86400000Y-132665001D03*
%TO.N,GND*%
X87200000Y-132700000D03*
%TO.N,Net-(U2-RST_N)*%
X90700000Y-134100000D03*
%TO.N,GND*%
X84200000Y-142200000D03*
%TO.N,+3V3_Bridge*%
X85500000Y-143900000D03*
%TO.N,GND*%
X85267500Y-137207500D03*
X92300000Y-90607500D03*
X93100000Y-162500000D03*
X97700000Y-163100000D03*
X94300000Y-123307500D03*
X97200000Y-96107500D03*
X93300000Y-163100000D03*
X91500000Y-90607500D03*
X95900000Y-131207500D03*
X82100000Y-143607500D03*
X94500000Y-120472501D03*
X98400000Y-148072501D03*
X86980000Y-137327500D03*
X96950000Y-123529100D03*
X91975052Y-96207500D03*
X102200000Y-93207500D03*
X85300000Y-159407500D03*
X89500000Y-92457500D03*
X90300000Y-162700000D03*
X84000000Y-163000000D03*
X84150000Y-103807500D03*
X90430000Y-111200000D03*
X89150000Y-107057500D03*
X99450000Y-100807500D03*
X88720000Y-133637500D03*
X85000000Y-92807500D03*
X93200000Y-150307500D03*
X98500000Y-126017500D03*
X83800000Y-92807500D03*
X87300000Y-122607500D03*
X86440000Y-134097500D03*
X86250000Y-109707500D03*
X96700000Y-145807500D03*
X92300000Y-156300000D03*
X99760200Y-120785900D03*
X94600000Y-156300000D03*
X95850000Y-91457500D03*
X85700000Y-91007500D03*
X94200000Y-116107500D03*
X95900000Y-157000000D03*
X92900000Y-114007500D03*
X91500000Y-91407500D03*
X83400000Y-157800000D03*
X100300000Y-95607500D03*
X83277500Y-149730000D03*
X91100000Y-125607500D03*
X92900000Y-160907500D03*
X98200002Y-99792499D03*
X93800000Y-153407500D03*
X96300000Y-116107500D03*
X89415001Y-93507498D03*
X86000000Y-156100000D03*
X83300000Y-148707500D03*
X85800000Y-96607500D03*
X98450000Y-130017499D03*
X83700000Y-98807500D03*
X83300000Y-153407500D03*
X94800000Y-163100000D03*
X93765003Y-99007500D03*
X97155000Y-125897500D03*
X91100000Y-149007500D03*
X97920000Y-135722500D03*
X94300000Y-141107500D03*
X98600000Y-139007500D03*
X84550000Y-103407500D03*
X95400000Y-131907500D03*
X95350000Y-90257500D03*
X99300000Y-163100000D03*
X99000000Y-141407500D03*
X88100000Y-123407500D03*
X97672500Y-92562500D03*
X89800000Y-142607500D03*
X98400000Y-132007500D03*
X85300000Y-161800000D03*
X94200000Y-142507500D03*
X84000000Y-162300000D03*
X83800000Y-136607500D03*
X97265001Y-118557500D03*
X92890000Y-111280000D03*
X88400000Y-90667500D03*
X94200000Y-157300000D03*
X90225000Y-98507500D03*
X92300000Y-91407500D03*
X85300000Y-131800000D03*
X93250000Y-108757500D03*
X93300000Y-134807500D03*
X93599998Y-96972500D03*
X98700000Y-150707500D03*
X94650000Y-91457500D03*
X92900000Y-140907500D03*
X86300000Y-113857500D03*
X96700000Y-141407500D03*
X89065000Y-146107500D03*
X88100000Y-149607500D03*
X86000000Y-114707500D03*
X86900000Y-142507500D03*
X83500000Y-159600000D03*
X96432500Y-90362500D03*
X91200000Y-107357500D03*
X95050000Y-135722500D03*
X96400000Y-96107500D03*
X91900000Y-147272501D03*
X96105000Y-125147500D03*
X82630000Y-92582501D03*
X85700000Y-99707500D03*
X86400000Y-133542500D03*
X101000000Y-91507500D03*
X87200000Y-163100000D03*
X100000000Y-137607500D03*
X90950000Y-108707500D03*
X93200000Y-128907500D03*
X83300000Y-138907500D03*
X83000000Y-95307500D03*
X87000000Y-161300000D03*
X86700000Y-129407500D03*
X99800000Y-128507500D03*
X94000000Y-126447501D03*
X81700000Y-139707500D03*
X88100000Y-122607500D03*
X87534999Y-157900000D03*
X95800000Y-99807500D03*
X90800000Y-158007500D03*
X87550000Y-133652500D03*
X93300000Y-122507500D03*
X97000000Y-99792501D03*
X94900000Y-147907500D03*
X86050000Y-111757500D03*
X89850000Y-107907500D03*
X88900000Y-113907500D03*
X96300000Y-138607500D03*
X97200000Y-95307500D03*
X82340000Y-96377500D03*
X88420000Y-93007500D03*
X96400000Y-95307500D03*
X87300000Y-123407500D03*
X86200000Y-92407500D03*
X94700000Y-145107500D03*
X93500000Y-145607500D03*
X89350000Y-90357506D03*
X86300000Y-99707500D03*
X88700000Y-162700000D03*
X100800000Y-163100000D03*
%TO.N,+3V3_eMMC*%
X91100000Y-138407500D03*
X87700000Y-117307500D03*
X90300000Y-125507500D03*
X85400000Y-117267500D03*
X87200000Y-126907500D03*
X90434999Y-117707500D03*
X97500000Y-121472501D03*
X98134999Y-118557500D03*
X91125000Y-137907500D03*
X84400000Y-137207500D03*
X86600000Y-117307500D03*
X90600000Y-120307500D03*
X91100000Y-137407500D03*
X84300000Y-117267500D03*
X86100000Y-137207500D03*
X83820000Y-123267500D03*
%TO.N,Net-(U8-VDD18)*%
X84200000Y-122462750D03*
%TO.N,+3V3_uSD*%
X99400000Y-136307500D03*
X100084999Y-118907500D03*
X84015001Y-106907500D03*
X99375000Y-136807500D03*
X84000000Y-112557500D03*
X97050000Y-135722500D03*
X84015001Y-108207500D03*
X100400000Y-127307500D03*
X100500000Y-131982500D03*
X92650000Y-132982500D03*
X94100000Y-128572501D03*
X84000000Y-110907500D03*
%TO.N,/sd-card/~{reset}*%
X99185000Y-134322500D03*
%TO.N,Net-(U9-VDD18)*%
X95950000Y-135557500D03*
%TO.N,Net-(U9-VDD18PLL)*%
X95400000Y-127307500D03*
%TO.N,/sd-card/DET*%
X98100000Y-137007500D03*
%TO.N,/sd-card/CRD_PWR*%
X100650000Y-132907500D03*
X98900000Y-113307500D03*
X91500000Y-105907500D03*
X98900000Y-113807500D03*
X86315001Y-107057500D03*
X85415001Y-109707500D03*
%TO.N,+3V3_Thread*%
X97500000Y-100757500D03*
X95600000Y-100757500D03*
X90284976Y-93507546D03*
X96900000Y-100757500D03*
X96200000Y-100757500D03*
X95950000Y-86207500D03*
X101300000Y-90507500D03*
%TO.N,+3V3_wifi*%
X85500000Y-101107500D03*
X86100000Y-100407500D03*
X88950000Y-99022503D03*
X85500000Y-100407500D03*
X83100000Y-98107500D03*
X86100000Y-101107500D03*
%TO.N,+3V3_Bridge*%
X94900000Y-157900000D03*
X97900000Y-161007500D03*
X86100000Y-149000000D03*
X98700000Y-147207500D03*
X88300000Y-145107500D03*
X98400000Y-160507500D03*
X97565001Y-158000000D03*
X85400000Y-158607500D03*
X92300000Y-145107500D03*
X95300000Y-146107500D03*
X91065000Y-146107500D03*
X97900000Y-160507500D03*
X90400000Y-154807500D03*
X99200000Y-143807500D03*
X98375000Y-161007500D03*
X89600000Y-154807500D03*
X91200000Y-154807500D03*
%TO.N,+1V0_core*%
X97300000Y-146407500D03*
X91600000Y-158007500D03*
X86665001Y-157900000D03*
X94900000Y-147072501D03*
X95900000Y-157842499D03*
X97400000Y-150507500D03*
X89100000Y-158007500D03*
X93500000Y-147082500D03*
X92300000Y-158007500D03*
%TO.N,Net-(D2-A)*%
X86000000Y-140607500D03*
X91100000Y-136307500D03*
%TO.N,Net-(D4-A)*%
X83900000Y-99607500D03*
%TO.N,+3V3*%
X83100000Y-163200000D03*
X92900000Y-138507500D03*
X89950000Y-101107500D03*
X92925000Y-138007500D03*
X100500000Y-160407500D03*
X90550000Y-101107500D03*
X91800000Y-101107500D03*
X91200000Y-101107500D03*
X101000000Y-136107500D03*
X101025000Y-136607500D03*
X100800000Y-161600000D03*
X100400000Y-162107500D03*
X101000000Y-137107500D03*
X99700000Y-160407500D03*
X100100000Y-162700000D03*
X98500000Y-163000000D03*
X100025000Y-161007500D03*
X92900000Y-137507500D03*
X89300000Y-101107500D03*
X83100000Y-162600000D03*
X88700000Y-101107500D03*
%TO.N,/pcie-usb-bridge/PERST_L*%
X96000000Y-146807500D03*
%TO.N,Net-(U8-SD_WP)*%
X91600000Y-124307500D03*
%TO.N,/emmc/SCK*%
X97550000Y-119422501D03*
%TO.N,/emmc/SDA*%
X90300000Y-126307500D03*
X97500000Y-122342499D03*
X91150000Y-126957500D03*
%TO.N,Net-(U2-DAT0)*%
X88000000Y-118042500D03*
X91300000Y-128607500D03*
%TO.N,Net-(U2-DAT1)*%
X91300000Y-129507500D03*
X89565001Y-117707500D03*
%TO.N,Net-(U2-DAT2)*%
X89065001Y-127007500D03*
X87500000Y-129107500D03*
%TO.N,Net-(U2-DAT3)*%
X87900000Y-127042499D03*
%TO.N,Net-(U2-DAT4)*%
X83900000Y-124107500D03*
X83900000Y-128507500D03*
%TO.N,Net-(U2-DAT5)*%
X83800000Y-120742499D03*
X83200000Y-130400000D03*
%TO.N,Net-(U2-DAT6)*%
X85400000Y-118107500D03*
X89700000Y-128707500D03*
%TO.N,Net-(U2-DAT7)*%
X86500000Y-118107500D03*
X89000000Y-129107500D03*
%TO.N,Net-(U2-CLK)*%
X84300000Y-118137500D03*
X83400000Y-134507500D03*
%TO.N,/sd-card/uSD.D1*%
X84834999Y-114307500D03*
X92650000Y-131032500D03*
%TO.N,/sd-card/uSD.CLK*%
X93200000Y-133982500D03*
X84884999Y-110907500D03*
%TO.N,/sd-card/uSD.CMD*%
X94100000Y-134507500D03*
X84884999Y-108357500D03*
%TO.N,/sd-card/uSD.D0*%
X84884999Y-112557500D03*
X92650000Y-131982500D03*
%TO.N,Net-(U5-RSTB)*%
X92450000Y-93457500D03*
%TO.N,Net-(U5-VBUS)*%
X91650000Y-93507500D03*
X95700000Y-88757500D03*
%TO.N,/sd-card/uSD.D3*%
X100625000Y-131082500D03*
X84884999Y-106907500D03*
%TO.N,/sd-card/uSD.D2*%
X100650000Y-130282500D03*
X84934999Y-105507500D03*
%TO.N,Net-(U9-SD_WP)*%
X98700000Y-127482500D03*
%TO.N,/thread-or-zigbee/RESET*%
X98900000Y-93657500D03*
X98900000Y-97807500D03*
%TO.N,Net-(U1-CHIP_EN)*%
X85800000Y-94107500D03*
%TO.N,Net-(U3-RREF[4])*%
X98400000Y-148942499D03*
%TO.N,Net-(U3-RREF[3])*%
X98100000Y-146407500D03*
%TO.N,Net-(U3-RREF[2])*%
X89935000Y-146107500D03*
%TO.N,Net-(U3-TEST5)*%
X91935000Y-146107500D03*
%TO.N,Net-(U3-TEST3)*%
X99000000Y-158100000D03*
%TO.N,Net-(U3-TEST6)*%
X98434999Y-157500000D03*
%TO.N,/pcie-usb-bridge/EEPD*%
X100000000Y-143807500D03*
%TO.N,/pcie-usb-bridge/EECLK*%
X97875000Y-145457500D03*
%TO.N,Net-(U2-RST_N)*%
X88500000Y-127600000D03*
%TO.N,Net-(U3-IO_HIT_I)*%
X85800000Y-145600000D03*
%TO.N,Net-(U3-LEG_EMU_EN)*%
X86000000Y-153007500D03*
%TO.N,Net-(U3-PME_L)*%
X92200000Y-142307500D03*
%TO.N,Net-(U3-IRQ12_O)*%
X82000000Y-150757500D03*
%TO.N,Net-(U3-IRQ12_I)*%
X86000000Y-152007500D03*
%TO.N,Net-(U3-SMBDATA)*%
X99600000Y-158707500D03*
%TO.N,Net-(U3-SCAN_EN)*%
X86500000Y-150507500D03*
%TO.N,Net-(U3-SMBCLK)*%
X86900000Y-153907500D03*
%TO.N,Net-(U3-IRQ1_I)*%
X87250000Y-151007500D03*
%TO.N,Net-(U3-TDI)*%
X82250000Y-156507500D03*
%TO.N,Net-(U3-SMI_O)*%
X86000000Y-149707500D03*
%TO.N,Net-(U3-TDO)*%
X82250000Y-154257500D03*
%TO.N,Net-(U3-IRQ1_O)*%
X83000000Y-151257500D03*
%TO.N,Net-(U3-TCK)*%
X85900000Y-154907500D03*
%TO.N,/thread-or-zigbee/UART_TX*%
X93300000Y-96057500D03*
X93950000Y-89357500D03*
%TO.N,/thread-or-zigbee/UART_RX*%
X94000000Y-95607500D03*
X94400000Y-90257500D03*
%TO.N,/thread-or-zigbee/SWDIO*%
X92600006Y-95007500D03*
%TO.N,/thread-or-zigbee/SWCLK*%
X92885218Y-94149799D03*
%TO.N,Net-(J5-B)*%
X84550000Y-115457500D03*
%TO.N,/pcie-usb-bridge/USB_3_DP*%
X88400000Y-91307500D03*
%TO.N,/pcie-usb-bridge/USB_4_DP*%
X83100000Y-96507500D03*
%TO.N,/pcie-usb-bridge/USB_3_DN*%
X88400000Y-92107500D03*
%TO.N,/pcie-usb-bridge/USB_4_DN*%
X83100000Y-97307500D03*
%TO.N,/PCIE.REFCLKN*%
X85300000Y-160107501D03*
%TO.N,/PCIE.REFCLKP*%
X85300000Y-160907500D03*
%TO.N,/PCIE.PERP*%
X87257157Y-160494657D03*
X92100000Y-160507499D03*
%TO.N,/PCIE.PERN*%
X92100000Y-161307500D03*
X87822843Y-161060343D03*
%TO.N,/pcie-usb-bridge/PCIE.REFCLK2N*%
X93900000Y-156300000D03*
%TO.N,/pcie-usb-bridge/PCIE.REFCLK2P*%
X93100000Y-156300000D03*
%TO.N,+3V3_eMMC*%
X88200000Y-134522500D03*
%TO.N,Net-(U2-DAT3)*%
X83900000Y-129407500D03*
%TD*%
D11*
%TO.N,GND*%
X94000000Y-145107500D02*
X93500000Y-145607500D01*
X94700000Y-145107500D02*
X94000000Y-145107500D01*
D12*
%TO.N,+3V3_uSD*%
X97050000Y-135722500D02*
X96985000Y-135722500D01*
X92800000Y-135807500D02*
X93800000Y-135807500D01*
X97635000Y-136307500D02*
X97050000Y-135722500D01*
X99820000Y-132587500D02*
X99820000Y-133507500D01*
X99400000Y-136307500D02*
X99400000Y-136782500D01*
X92650000Y-132982500D02*
X92650000Y-133057500D01*
X100600000Y-120007500D02*
X100600000Y-127107500D01*
X92400000Y-135407500D02*
X92800000Y-135807500D01*
X100084999Y-119492499D02*
X100600000Y-120007500D01*
X93800000Y-135807500D02*
X95000000Y-134607500D01*
X92400000Y-133307500D02*
X92400000Y-135407500D01*
X99820000Y-132587500D02*
X100425000Y-131982500D01*
X100425000Y-131982500D02*
X100500000Y-131982500D01*
X97050000Y-135117500D02*
X97050000Y-135722500D01*
X100084999Y-118907500D02*
X100084999Y-119492499D01*
X97100000Y-134607500D02*
X97050000Y-134657500D01*
X95000000Y-134607500D02*
X97100000Y-134607500D01*
X99400000Y-136307500D02*
X97635000Y-136307500D01*
X100600000Y-127107500D02*
X100400000Y-127307500D01*
X98660000Y-133507500D02*
X97050000Y-135117500D01*
X100925000Y-131982500D02*
X100500000Y-131982500D01*
X100400000Y-127307500D02*
X101400000Y-128307500D01*
X92650000Y-133057500D02*
X92400000Y-133307500D01*
X101400000Y-131507500D02*
X100925000Y-131982500D01*
X101400000Y-128307500D02*
X101400000Y-131507500D01*
X99400000Y-136782500D02*
X99375000Y-136807500D01*
X97050000Y-134657500D02*
X97050000Y-135117500D01*
X97050000Y-135257500D02*
X97050000Y-135722500D01*
X99820000Y-133507500D02*
X98660000Y-133507500D01*
%TD*%
%TA.AperFunction,Conductor*%
%TO.N,GND*%
G36*
X89542378Y-86522174D02*
G01*
X89561902Y-86556791D01*
X89608356Y-86745265D01*
X89715625Y-87028109D01*
X89715627Y-87028113D01*
X89856207Y-87295966D01*
X89856210Y-87295970D01*
X90028046Y-87544919D01*
X90028052Y-87544927D01*
X90228647Y-87771351D01*
X90228648Y-87771352D01*
X90455072Y-87971947D01*
X90455076Y-87971950D01*
X90704033Y-88143792D01*
X90971887Y-88284373D01*
X91254734Y-88391643D01*
X91548449Y-88464037D01*
X91848748Y-88500500D01*
X92151252Y-88500500D01*
X92451551Y-88464037D01*
X92745266Y-88391643D01*
X93028113Y-88284373D01*
X93295967Y-88143792D01*
X93544924Y-87971950D01*
X93771352Y-87771352D01*
X93971950Y-87544924D01*
X94143792Y-87295967D01*
X94284373Y-87028113D01*
X94391643Y-86745266D01*
X94409541Y-86672649D01*
X94438098Y-86556791D01*
X94471665Y-86511172D01*
X94509948Y-86500500D01*
X95645956Y-86500500D01*
X95698282Y-86522174D01*
X95711658Y-86535550D01*
X95824696Y-86593146D01*
X95950000Y-86612992D01*
X96075304Y-86593146D01*
X96188342Y-86535550D01*
X96201718Y-86522174D01*
X96254044Y-86500500D01*
X102425500Y-86500500D01*
X102477826Y-86522174D01*
X102499500Y-86574500D01*
X102499500Y-161425500D01*
X102477826Y-161477826D01*
X102425500Y-161499500D01*
X102337464Y-161499500D01*
X102165062Y-161529898D01*
X102000558Y-161589773D01*
X101848945Y-161677308D01*
X101714837Y-161789837D01*
X101602308Y-161923945D01*
X101514773Y-162075558D01*
X101454898Y-162240062D01*
X101424500Y-162412464D01*
X101424500Y-165425500D01*
X101402826Y-165477826D01*
X101350500Y-165499500D01*
X87049500Y-165499500D01*
X86997174Y-165477826D01*
X86975500Y-165425500D01*
X86975500Y-163000000D01*
X98094508Y-163000000D01*
X98114353Y-163125301D01*
X98114353Y-163125302D01*
X98114354Y-163125304D01*
X98171950Y-163238342D01*
X98261658Y-163328050D01*
X98374696Y-163385646D01*
X98500000Y-163405492D01*
X98625304Y-163385646D01*
X98738342Y-163328050D01*
X98828050Y-163238342D01*
X98885646Y-163125304D01*
X98905492Y-163000000D01*
X98885646Y-162874696D01*
X98828050Y-162761658D01*
X98766392Y-162700000D01*
X99694508Y-162700000D01*
X99714353Y-162825301D01*
X99714353Y-162825302D01*
X99714354Y-162825304D01*
X99771950Y-162938342D01*
X99861658Y-163028050D01*
X99974696Y-163085646D01*
X100100000Y-163105492D01*
X100225304Y-163085646D01*
X100338342Y-163028050D01*
X100428050Y-162938342D01*
X100485646Y-162825304D01*
X100505492Y-162700000D01*
X100485646Y-162574696D01*
X100485645Y-162574695D01*
X100485066Y-162571035D01*
X100498288Y-162515963D01*
X100524560Y-162493524D01*
X100525300Y-162493146D01*
X100525304Y-162493146D01*
X100638342Y-162435550D01*
X100728050Y-162345842D01*
X100785646Y-162232804D01*
X100805492Y-162107500D01*
X100801172Y-162080227D01*
X100814393Y-162025157D01*
X100862681Y-161995564D01*
X100925304Y-161985646D01*
X101038342Y-161928050D01*
X101128050Y-161838342D01*
X101185646Y-161725304D01*
X101205492Y-161600000D01*
X101185646Y-161474696D01*
X101128050Y-161361658D01*
X101038342Y-161271950D01*
X100925304Y-161214354D01*
X100925302Y-161214353D01*
X100925301Y-161214353D01*
X100800000Y-161194508D01*
X100674698Y-161214353D01*
X100561656Y-161271951D01*
X100471951Y-161361656D01*
X100414353Y-161474698D01*
X100394508Y-161600000D01*
X100394508Y-161600001D01*
X100398827Y-161627272D01*
X100385605Y-161682344D01*
X100337314Y-161711936D01*
X100274698Y-161721853D01*
X100161656Y-161779451D01*
X100071951Y-161869156D01*
X100014353Y-161982198D01*
X99994508Y-162107500D01*
X100014933Y-162236464D01*
X100001711Y-162291537D01*
X99975440Y-162313974D01*
X99861657Y-162371950D01*
X99771951Y-162461656D01*
X99714353Y-162574698D01*
X99694508Y-162700000D01*
X98766392Y-162700000D01*
X98738342Y-162671950D01*
X98625304Y-162614354D01*
X98625302Y-162614353D01*
X98625301Y-162614353D01*
X98500000Y-162594508D01*
X98374698Y-162614353D01*
X98261656Y-162671951D01*
X98171951Y-162761656D01*
X98114353Y-162874698D01*
X98094508Y-163000000D01*
X86975500Y-163000000D01*
X86975500Y-162998025D01*
X86975499Y-162998020D01*
X86973705Y-162988422D01*
X86938024Y-162797544D01*
X86864348Y-162607363D01*
X86756981Y-162433959D01*
X86756980Y-162433957D01*
X86634861Y-162299999D01*
X88400000Y-162299999D01*
X90600000Y-162300000D01*
X90600001Y-160507499D01*
X91694508Y-160507499D01*
X91714353Y-160632800D01*
X91714353Y-160632801D01*
X91714354Y-160632803D01*
X91771950Y-160745841D01*
X91861658Y-160835549D01*
X91873464Y-160841564D01*
X91910248Y-160884630D01*
X91905805Y-160941093D01*
X91873467Y-160973433D01*
X91861657Y-160979450D01*
X91771951Y-161069156D01*
X91714353Y-161182198D01*
X91694508Y-161307500D01*
X91714353Y-161432801D01*
X91714353Y-161432802D01*
X91714354Y-161432804D01*
X91771950Y-161545842D01*
X91861658Y-161635550D01*
X91974696Y-161693146D01*
X92100000Y-161712992D01*
X92225304Y-161693146D01*
X92338342Y-161635550D01*
X92428050Y-161545842D01*
X92485646Y-161432804D01*
X92505492Y-161307500D01*
X92485646Y-161182196D01*
X92428050Y-161069158D01*
X92338342Y-160979450D01*
X92326532Y-160973432D01*
X92289751Y-160930366D01*
X92294195Y-160873903D01*
X92326535Y-160841564D01*
X92338342Y-160835549D01*
X92428050Y-160745841D01*
X92485646Y-160632803D01*
X92505492Y-160507500D01*
X97494508Y-160507500D01*
X97514353Y-160632801D01*
X97514353Y-160632802D01*
X97514354Y-160632804D01*
X97560773Y-160723906D01*
X97565216Y-160780367D01*
X97560775Y-160791089D01*
X97518580Y-160873903D01*
X97514353Y-160882198D01*
X97494508Y-161007500D01*
X97514353Y-161132801D01*
X97514353Y-161132802D01*
X97514354Y-161132804D01*
X97571950Y-161245842D01*
X97661658Y-161335550D01*
X97774696Y-161393146D01*
X97900000Y-161412992D01*
X98025304Y-161393146D01*
X98103906Y-161353095D01*
X98160367Y-161348652D01*
X98171084Y-161353091D01*
X98249696Y-161393146D01*
X98249695Y-161393146D01*
X98266827Y-161395859D01*
X98375000Y-161412992D01*
X98500304Y-161393146D01*
X98613342Y-161335550D01*
X98703050Y-161245842D01*
X98760646Y-161132804D01*
X98780492Y-161007500D01*
X98760646Y-160882196D01*
X98726726Y-160815626D01*
X98722283Y-160759167D01*
X98726727Y-160748437D01*
X98728048Y-160745843D01*
X98728050Y-160745842D01*
X98785646Y-160632804D01*
X98805492Y-160507500D01*
X98789654Y-160407500D01*
X99294508Y-160407500D01*
X99314353Y-160532801D01*
X99314353Y-160532802D01*
X99314354Y-160532804D01*
X99371950Y-160645842D01*
X99461658Y-160735550D01*
X99504737Y-160757500D01*
X99574693Y-160793145D01*
X99574695Y-160793146D01*
X99578440Y-160793739D01*
X99626731Y-160823331D01*
X99639954Y-160878403D01*
X99639954Y-160878404D01*
X99619508Y-161007499D01*
X99639353Y-161132801D01*
X99639353Y-161132802D01*
X99639354Y-161132804D01*
X99696950Y-161245842D01*
X99786658Y-161335550D01*
X99899696Y-161393146D01*
X100025000Y-161412992D01*
X100150304Y-161393146D01*
X100263342Y-161335550D01*
X100353050Y-161245842D01*
X100410646Y-161132804D01*
X100430492Y-161007500D01*
X100413037Y-160897292D01*
X100426259Y-160842221D01*
X100474550Y-160812628D01*
X100497702Y-160812628D01*
X100500000Y-160812992D01*
X100625304Y-160793146D01*
X100738342Y-160735550D01*
X100828050Y-160645842D01*
X100885646Y-160532804D01*
X100905492Y-160407500D01*
X100885646Y-160282196D01*
X100828050Y-160169158D01*
X100738342Y-160079450D01*
X100625304Y-160021854D01*
X100625302Y-160021853D01*
X100625301Y-160021853D01*
X100500000Y-160002008D01*
X100374698Y-160021853D01*
X100261656Y-160079451D01*
X100171950Y-160169157D01*
X100165934Y-160180965D01*
X100122867Y-160217747D01*
X100066404Y-160213303D01*
X100034066Y-160180965D01*
X100033294Y-160179450D01*
X100028050Y-160169158D01*
X99938342Y-160079450D01*
X99825304Y-160021854D01*
X99825302Y-160021853D01*
X99825301Y-160021853D01*
X99700000Y-160002008D01*
X99574698Y-160021853D01*
X99461656Y-160079451D01*
X99371951Y-160169156D01*
X99314353Y-160282198D01*
X99294508Y-160407500D01*
X98789654Y-160407500D01*
X98785646Y-160382196D01*
X98728050Y-160269158D01*
X98638342Y-160179450D01*
X98525304Y-160121854D01*
X98525302Y-160121853D01*
X98525301Y-160121853D01*
X98400000Y-160102008D01*
X98274698Y-160121853D01*
X98274696Y-160121853D01*
X98274696Y-160121854D01*
X98183593Y-160168273D01*
X98127133Y-160172716D01*
X98116410Y-160168275D01*
X98025304Y-160121854D01*
X98025302Y-160121853D01*
X98025301Y-160121853D01*
X97900000Y-160102008D01*
X97774698Y-160121853D01*
X97661656Y-160179451D01*
X97571951Y-160269156D01*
X97514353Y-160382198D01*
X97494508Y-160507500D01*
X92505492Y-160507500D01*
X92505492Y-160507499D01*
X92485646Y-160382195D01*
X92428050Y-160269157D01*
X92338342Y-160179449D01*
X92225304Y-160121853D01*
X92225302Y-160121852D01*
X92225301Y-160121852D01*
X92100000Y-160102007D01*
X91974698Y-160121852D01*
X91861656Y-160179450D01*
X91771951Y-160269155D01*
X91714353Y-160382197D01*
X91694508Y-160507499D01*
X90600001Y-160507499D01*
X90600001Y-160300000D01*
X88400000Y-160300000D01*
X88400000Y-162299999D01*
X86634861Y-162299999D01*
X86619579Y-162283235D01*
X86619578Y-162283234D01*
X86456825Y-162160329D01*
X86456822Y-162160328D01*
X86456821Y-162160327D01*
X86274250Y-162069418D01*
X86274246Y-162069417D01*
X86274244Y-162069416D01*
X86078082Y-162013602D01*
X86078076Y-162013601D01*
X85875003Y-161994785D01*
X85874997Y-161994785D01*
X85671923Y-162013601D01*
X85671917Y-162013602D01*
X85475755Y-162069416D01*
X85475750Y-162069418D01*
X85293177Y-162160328D01*
X85293174Y-162160329D01*
X85274095Y-162174738D01*
X85219276Y-162188975D01*
X85170447Y-162160280D01*
X85155500Y-162115685D01*
X85155500Y-162097045D01*
X85150002Y-162069407D01*
X85143663Y-162037537D01*
X85133749Y-162013602D01*
X85121990Y-161985213D01*
X85119975Y-161982198D01*
X85113509Y-161972520D01*
X85109104Y-161965004D01*
X85069407Y-161887096D01*
X85062252Y-161865075D01*
X85058018Y-161838343D01*
X85053779Y-161811572D01*
X85053779Y-161788424D01*
X85055200Y-161779451D01*
X85062253Y-161734919D01*
X85069405Y-161712907D01*
X85109112Y-161634979D01*
X85113520Y-161627461D01*
X85121986Y-161614794D01*
X85121987Y-161614791D01*
X85121989Y-161614789D01*
X85143663Y-161562463D01*
X85155500Y-161502956D01*
X85155500Y-161376748D01*
X85177174Y-161324422D01*
X85229500Y-161302748D01*
X85241069Y-161303658D01*
X85300000Y-161312992D01*
X85425304Y-161293146D01*
X85538342Y-161235550D01*
X85628050Y-161145842D01*
X85685646Y-161032804D01*
X85705492Y-160907500D01*
X85685646Y-160782196D01*
X85628050Y-160669158D01*
X85538342Y-160579450D01*
X85526535Y-160573434D01*
X85489753Y-160530367D01*
X85492564Y-160494657D01*
X86851665Y-160494657D01*
X86871510Y-160619958D01*
X86871510Y-160619959D01*
X86871511Y-160619961D01*
X86929107Y-160732999D01*
X87018815Y-160822707D01*
X87131853Y-160880303D01*
X87257157Y-160900149D01*
X87346900Y-160885935D01*
X87401971Y-160899157D01*
X87431564Y-160947448D01*
X87431564Y-160970599D01*
X87417351Y-161060341D01*
X87417351Y-161060342D01*
X87437196Y-161185644D01*
X87437196Y-161185645D01*
X87437197Y-161185647D01*
X87494793Y-161298685D01*
X87584501Y-161388393D01*
X87697539Y-161445989D01*
X87822843Y-161465835D01*
X87948147Y-161445989D01*
X88061185Y-161388393D01*
X88150893Y-161298685D01*
X88208489Y-161185647D01*
X88228335Y-161060343D01*
X88208489Y-160935039D01*
X88150893Y-160822001D01*
X88061185Y-160732293D01*
X87948147Y-160674697D01*
X87948145Y-160674696D01*
X87948144Y-160674696D01*
X87822843Y-160654851D01*
X87822842Y-160654851D01*
X87733099Y-160669064D01*
X87678027Y-160655842D01*
X87648435Y-160607550D01*
X87648435Y-160584399D01*
X87650172Y-160573434D01*
X87662649Y-160494657D01*
X87642803Y-160369353D01*
X87585207Y-160256315D01*
X87495499Y-160166607D01*
X87382461Y-160109011D01*
X87382459Y-160109010D01*
X87382458Y-160109010D01*
X87257157Y-160089165D01*
X87131855Y-160109010D01*
X87018813Y-160166608D01*
X86929108Y-160256313D01*
X86871510Y-160369355D01*
X86851665Y-160494657D01*
X85492564Y-160494657D01*
X85494197Y-160473904D01*
X85526535Y-160441566D01*
X85538342Y-160435551D01*
X85628050Y-160345843D01*
X85685646Y-160232805D01*
X85705492Y-160107501D01*
X85685646Y-159982197D01*
X85628050Y-159869159D01*
X85538342Y-159779451D01*
X85425304Y-159721855D01*
X85425302Y-159721854D01*
X85425301Y-159721854D01*
X85300000Y-159702009D01*
X85299999Y-159702009D01*
X85229696Y-159713143D01*
X85174624Y-159699921D01*
X85145543Y-159654488D01*
X85143663Y-159645037D01*
X85121989Y-159592711D01*
X85113509Y-159580020D01*
X85109104Y-159572504D01*
X85069407Y-159494596D01*
X85062252Y-159472575D01*
X85060995Y-159464640D01*
X85053779Y-159419072D01*
X85053779Y-159395924D01*
X85054084Y-159394000D01*
X85062253Y-159342419D01*
X85069405Y-159320407D01*
X85109112Y-159242479D01*
X85113520Y-159234961D01*
X85121986Y-159222294D01*
X85121987Y-159222291D01*
X85121989Y-159222289D01*
X85143663Y-159169963D01*
X85155500Y-159110456D01*
X85155500Y-159053169D01*
X85177174Y-159000843D01*
X85229500Y-158979169D01*
X85263094Y-158987234D01*
X85274696Y-158993146D01*
X85274695Y-158993146D01*
X85294541Y-158996289D01*
X85400000Y-159012992D01*
X85469688Y-159001954D01*
X85524760Y-159015175D01*
X85547157Y-159043569D01*
X85547985Y-159043162D01*
X85549060Y-159045343D01*
X85569349Y-159080486D01*
X85569351Y-159080488D01*
X85569352Y-159080489D01*
X85633211Y-159129489D01*
X85685537Y-159151163D01*
X85745044Y-159163000D01*
X85745046Y-159163000D01*
X99182608Y-159163000D01*
X99182610Y-159163000D01*
X99218912Y-159158703D01*
X99252508Y-159150637D01*
X99268114Y-159146014D01*
X99334450Y-159100422D01*
X99343417Y-159089922D01*
X99393879Y-159064207D01*
X99433282Y-159072044D01*
X99474696Y-159093146D01*
X99474695Y-159093146D01*
X99491827Y-159095859D01*
X99600000Y-159112992D01*
X99725304Y-159093146D01*
X99838342Y-159035550D01*
X99928050Y-158945842D01*
X99985646Y-158832804D01*
X100005492Y-158707500D01*
X99994454Y-158637809D01*
X100007676Y-158582739D01*
X100036077Y-158560358D01*
X100035662Y-158559515D01*
X100037819Y-158558450D01*
X100037833Y-158558445D01*
X100072989Y-158538148D01*
X100121989Y-158474289D01*
X100143663Y-158421963D01*
X100155500Y-158362456D01*
X100155500Y-145081500D01*
X100143663Y-145021993D01*
X100121989Y-144969667D01*
X100121983Y-144969656D01*
X100101694Y-144934513D01*
X100101692Y-144934511D01*
X100037835Y-144885512D01*
X100037831Y-144885510D01*
X99985511Y-144863838D01*
X99985501Y-144863835D01*
X99944681Y-144855716D01*
X99926000Y-144852000D01*
X98170044Y-144852000D01*
X98153175Y-144855355D01*
X98110542Y-144863835D01*
X98110532Y-144863838D01*
X98058217Y-144885508D01*
X98058200Y-144885516D01*
X98023057Y-144905805D01*
X98023055Y-144905807D01*
X97974056Y-144969664D01*
X97974055Y-144969666D01*
X97958274Y-145007765D01*
X97918225Y-145047813D01*
X97878336Y-145052536D01*
X97875001Y-145052008D01*
X97874997Y-145052008D01*
X97871662Y-145052536D01*
X97869463Y-145052008D01*
X97869176Y-145052008D01*
X97869176Y-145051938D01*
X97816591Y-145039310D01*
X97791725Y-145007764D01*
X97789213Y-145001699D01*
X97775945Y-144969667D01*
X97775939Y-144969656D01*
X97755650Y-144934513D01*
X97755648Y-144934511D01*
X97691791Y-144885512D01*
X97691787Y-144885510D01*
X97639467Y-144863838D01*
X97639457Y-144863835D01*
X97598637Y-144855716D01*
X97579956Y-144852000D01*
X95176297Y-144852000D01*
X95176296Y-144852000D01*
X95164104Y-144852478D01*
X95152516Y-144853390D01*
X95083482Y-144875821D01*
X95083481Y-144875822D01*
X95035185Y-144905415D01*
X95003637Y-144930959D01*
X94965227Y-145001699D01*
X94952005Y-145056768D01*
X94950828Y-145086700D01*
X94949974Y-145095369D01*
X94937745Y-145172577D01*
X94930591Y-145194595D01*
X94906000Y-145242858D01*
X94892391Y-145261589D01*
X94854089Y-145299891D01*
X94835358Y-145313500D01*
X94787095Y-145338091D01*
X94765077Y-145345245D01*
X94711576Y-145353719D01*
X94688422Y-145353719D01*
X94634921Y-145345245D01*
X94612903Y-145338091D01*
X94564640Y-145313500D01*
X94545909Y-145299891D01*
X94515736Y-145269718D01*
X94465288Y-145236010D01*
X94412967Y-145214338D01*
X94412957Y-145214335D01*
X94373110Y-145206409D01*
X94353456Y-145202500D01*
X94134412Y-145202500D01*
X94117543Y-145205855D01*
X94074910Y-145214335D01*
X94074900Y-145214338D01*
X94022579Y-145236010D01*
X93972131Y-145269718D01*
X93972130Y-145269720D01*
X93815184Y-145426665D01*
X93806895Y-145435633D01*
X93799354Y-145444463D01*
X93766401Y-145509143D01*
X93762621Y-145524890D01*
X93753886Y-145561279D01*
X93753181Y-145564214D01*
X93752782Y-145574363D01*
X93751928Y-145583030D01*
X93737745Y-145672577D01*
X93730590Y-145694597D01*
X93705999Y-145742859D01*
X93692391Y-145761589D01*
X93654089Y-145799891D01*
X93635358Y-145813500D01*
X93587095Y-145838091D01*
X93565077Y-145845245D01*
X93511576Y-145853719D01*
X93488422Y-145853719D01*
X93434921Y-145845245D01*
X93412903Y-145838091D01*
X93364640Y-145813500D01*
X93345909Y-145799891D01*
X93307605Y-145761587D01*
X93293998Y-145742859D01*
X93269405Y-145694592D01*
X93262252Y-145672575D01*
X93260529Y-145661698D01*
X93253779Y-145619072D01*
X93253779Y-145595924D01*
X93258801Y-145564214D01*
X93262252Y-145542421D01*
X93269407Y-145520403D01*
X93273184Y-145512992D01*
X93294000Y-145472136D01*
X93307605Y-145453410D01*
X93345910Y-145415105D01*
X93364635Y-145401500D01*
X93412907Y-145376905D01*
X93434922Y-145369752D01*
X93496969Y-145359926D01*
X93505643Y-145359073D01*
X93506357Y-145359045D01*
X93514055Y-145357825D01*
X93578066Y-145347688D01*
X93630392Y-145326014D01*
X93680839Y-145292307D01*
X93729365Y-145243782D01*
X93729364Y-145243781D01*
X93738925Y-145234221D01*
X93744658Y-145217334D01*
X93746959Y-145214335D01*
X93763075Y-145193333D01*
X93784749Y-145141007D01*
X93795256Y-145101797D01*
X93784749Y-145021993D01*
X93763075Y-144969667D01*
X93763069Y-144969656D01*
X93742780Y-144934513D01*
X93742778Y-144934511D01*
X93678921Y-144885512D01*
X93678917Y-144885510D01*
X93626597Y-144863838D01*
X93626587Y-144863835D01*
X93585767Y-144855716D01*
X93567086Y-144852000D01*
X92776297Y-144852000D01*
X92776296Y-144852000D01*
X92764104Y-144852478D01*
X92752516Y-144853390D01*
X92689801Y-144873768D01*
X92633338Y-144869324D01*
X92614608Y-144855716D01*
X92538343Y-144779451D01*
X92538342Y-144779450D01*
X92425304Y-144721854D01*
X92425302Y-144721853D01*
X92425301Y-144721853D01*
X92300000Y-144702008D01*
X92174698Y-144721853D01*
X92061656Y-144779451D01*
X91971951Y-144869156D01*
X91914353Y-144982198D01*
X91894508Y-145107500D01*
X91914354Y-145232804D01*
X91914355Y-145232808D01*
X91933847Y-145271063D01*
X91938291Y-145327525D01*
X91926621Y-145349706D01*
X91878012Y-145413054D01*
X91878010Y-145413058D01*
X91856338Y-145465378D01*
X91856335Y-145465388D01*
X91844500Y-145524891D01*
X91844500Y-145649099D01*
X91844728Y-145651997D01*
X91842908Y-145652140D01*
X91830910Y-145702011D01*
X91804659Y-145724420D01*
X91696659Y-145779448D01*
X91606948Y-145869159D01*
X91565934Y-145949655D01*
X91522867Y-145986438D01*
X91466405Y-145981994D01*
X91434066Y-145949655D01*
X91393051Y-145869159D01*
X91303343Y-145779451D01*
X91303342Y-145779450D01*
X91190304Y-145721854D01*
X91190302Y-145721853D01*
X91190301Y-145721853D01*
X91065000Y-145702008D01*
X90939698Y-145721853D01*
X90826656Y-145779451D01*
X90736951Y-145869156D01*
X90679353Y-145982198D01*
X90659508Y-146107500D01*
X90679353Y-146232801D01*
X90679353Y-146232802D01*
X90679354Y-146232804D01*
X90736950Y-146345842D01*
X90826658Y-146435550D01*
X90939696Y-146493146D01*
X91065000Y-146512992D01*
X91190304Y-146493146D01*
X91303342Y-146435550D01*
X91393050Y-146345842D01*
X91434066Y-146265342D01*
X91477133Y-146228561D01*
X91533595Y-146233004D01*
X91565933Y-146265342D01*
X91606950Y-146345842D01*
X91606951Y-146345843D01*
X91696659Y-146435551D01*
X91804661Y-146490581D01*
X91841444Y-146533648D01*
X91844710Y-146563765D01*
X91844500Y-146565898D01*
X91844500Y-146828614D01*
X91846414Y-146852935D01*
X91850041Y-146875834D01*
X91850726Y-146879823D01*
X91850727Y-146879824D01*
X91885378Y-146952471D01*
X91922155Y-146995532D01*
X91922159Y-146995536D01*
X91922162Y-146995539D01*
X91969810Y-147033101D01*
X92035359Y-147066499D01*
X92054088Y-147080107D01*
X92092391Y-147118410D01*
X92106000Y-147137141D01*
X92130591Y-147185404D01*
X92137649Y-147206833D01*
X92137662Y-147206911D01*
X92137758Y-147207501D01*
X92146219Y-147260924D01*
X92146219Y-147284077D01*
X92137745Y-147337578D01*
X92130591Y-147359596D01*
X92106000Y-147407859D01*
X92092391Y-147426590D01*
X92054087Y-147464894D01*
X92035357Y-147478502D01*
X91969808Y-147511901D01*
X91969808Y-147511902D01*
X91949005Y-147524649D01*
X91949003Y-147524650D01*
X91930302Y-147538237D01*
X91927011Y-147540694D01*
X91878010Y-147604555D01*
X91856338Y-147656875D01*
X91856335Y-147656885D01*
X91852353Y-147676906D01*
X91844500Y-147716387D01*
X91844500Y-147933500D01*
X91848409Y-147953154D01*
X91856335Y-147993001D01*
X91856338Y-147993011D01*
X91878008Y-148045326D01*
X91878016Y-148045343D01*
X91898305Y-148080486D01*
X91898307Y-148080488D01*
X91898308Y-148080489D01*
X91902984Y-148084077D01*
X91936228Y-148109586D01*
X91962167Y-148129489D01*
X92014493Y-148151163D01*
X92074000Y-148163000D01*
X92074002Y-148163000D01*
X94423704Y-148163000D01*
X94424812Y-148162956D01*
X94435905Y-148162521D01*
X94447479Y-148161610D01*
X94447481Y-148161609D01*
X94447483Y-148161609D01*
X94485815Y-148149154D01*
X94516521Y-148139177D01*
X94564813Y-148109586D01*
X94596362Y-148084040D01*
X94634772Y-148013302D01*
X94647995Y-147958230D01*
X94649171Y-147928287D01*
X94650022Y-147919640D01*
X94662252Y-147842421D01*
X94669406Y-147820405D01*
X94669451Y-147820317D01*
X94694000Y-147772135D01*
X94707607Y-147753409D01*
X94745910Y-147715105D01*
X94764637Y-147701500D01*
X94764645Y-147701496D01*
X94812905Y-147676906D01*
X94834921Y-147669752D01*
X94888425Y-147661279D01*
X94911573Y-147661279D01*
X94965077Y-147669752D01*
X94987092Y-147676905D01*
X95035360Y-147701499D01*
X95054087Y-147715105D01*
X95092391Y-147753409D01*
X95106000Y-147772140D01*
X95130590Y-147820401D01*
X95137744Y-147842419D01*
X95146889Y-147900155D01*
X95147572Y-147917536D01*
X95147275Y-147921298D01*
X95158634Y-147993007D01*
X95158635Y-147993011D01*
X95180304Y-148045324D01*
X95180307Y-148045332D01*
X95189309Y-148060923D01*
X95195993Y-148072500D01*
X95200604Y-148080488D01*
X95200607Y-148080491D01*
X95264461Y-148129487D01*
X95264464Y-148129489D01*
X95316790Y-148151163D01*
X95376297Y-148163000D01*
X96770500Y-148163000D01*
X96822826Y-148184674D01*
X96844500Y-148237000D01*
X96844500Y-156778000D01*
X96822826Y-156830326D01*
X96770500Y-156852000D01*
X96367505Y-156852000D01*
X96319453Y-156859611D01*
X96319446Y-156859612D01*
X96275949Y-156873746D01*
X96249818Y-156884973D01*
X96249812Y-156884977D01*
X96191426Y-156940381D01*
X96191424Y-156940383D01*
X96161832Y-156988672D01*
X96161831Y-156988674D01*
X96140833Y-157045592D01*
X96140829Y-157045608D01*
X96137744Y-157065080D01*
X96130591Y-157087095D01*
X96106000Y-157135358D01*
X96092391Y-157154089D01*
X96054089Y-157192391D01*
X96035358Y-157206000D01*
X95987095Y-157230591D01*
X95965077Y-157237745D01*
X95911576Y-157246219D01*
X95888422Y-157246219D01*
X95834921Y-157237745D01*
X95812903Y-157230591D01*
X95764640Y-157206000D01*
X95745909Y-157192391D01*
X95707605Y-157154087D01*
X95693997Y-157135357D01*
X95669406Y-157087094D01*
X95662253Y-157065079D01*
X95661002Y-157057176D01*
X95661001Y-157057169D01*
X95659167Y-157045592D01*
X95644134Y-156999329D01*
X95623372Y-156958580D01*
X95608186Y-156934511D01*
X95544327Y-156885511D01*
X95543038Y-156884977D01*
X95492005Y-156863838D01*
X95491995Y-156863835D01*
X95452148Y-156855909D01*
X95432494Y-156852000D01*
X94621212Y-156852000D01*
X94616618Y-156852543D01*
X94584923Y-156856294D01*
X94584919Y-156856295D01*
X94584916Y-156856295D01*
X94584913Y-156856296D01*
X94571227Y-156859581D01*
X94551307Y-156864363D01*
X94535707Y-156868985D01*
X94469374Y-156914574D01*
X94432595Y-156957637D01*
X94432590Y-156957644D01*
X94410484Y-156991684D01*
X94410483Y-156991686D01*
X94395813Y-157070828D01*
X94400254Y-157127289D01*
X94416725Y-157185691D01*
X94430591Y-157212905D01*
X94437745Y-157234922D01*
X94446219Y-157288423D01*
X94446219Y-157311576D01*
X94437745Y-157365078D01*
X94430592Y-157387094D01*
X94422912Y-157402167D01*
X94417803Y-157413248D01*
X94413360Y-157423975D01*
X94413359Y-157423979D01*
X94411972Y-157432734D01*
X94382376Y-157481023D01*
X94372478Y-157487087D01*
X94369585Y-157488561D01*
X94369541Y-157488583D01*
X94367281Y-157489732D01*
X94367014Y-157489871D01*
X94347140Y-157499998D01*
X94347137Y-157499999D01*
X94287094Y-157530591D01*
X94265077Y-157537745D01*
X94211576Y-157546219D01*
X94188422Y-157546219D01*
X94134921Y-157537745D01*
X94112903Y-157530591D01*
X94064640Y-157506000D01*
X94045909Y-157492391D01*
X94007605Y-157454087D01*
X93993999Y-157435360D01*
X93969405Y-157387092D01*
X93962252Y-157365075D01*
X93953779Y-157311574D01*
X93953779Y-157288423D01*
X93960173Y-157248053D01*
X93962253Y-157234921D01*
X93969404Y-157212910D01*
X93978072Y-157195901D01*
X93978080Y-157195886D01*
X93983282Y-157185674D01*
X93995926Y-157151394D01*
X94003991Y-157117802D01*
X94006958Y-157101797D01*
X93996451Y-157021993D01*
X93974777Y-156969667D01*
X93974771Y-156969656D01*
X93954482Y-156934513D01*
X93954480Y-156934511D01*
X93890623Y-156885512D01*
X93890619Y-156885510D01*
X93838299Y-156863838D01*
X93838289Y-156863835D01*
X93798442Y-156855909D01*
X93778788Y-156852000D01*
X93115244Y-156852000D01*
X93101841Y-156846448D01*
X93084756Y-156852000D01*
X85229500Y-156852000D01*
X85212631Y-156855355D01*
X85169998Y-156863835D01*
X85169988Y-156863838D01*
X85117661Y-156885513D01*
X85116270Y-156886199D01*
X85115956Y-156886219D01*
X85115429Y-156886438D01*
X85115354Y-156886258D01*
X85059753Y-156889889D01*
X85042044Y-156880420D01*
X85042035Y-156880437D01*
X85041525Y-156880142D01*
X85038511Y-156878531D01*
X85037834Y-156878012D01*
X85037833Y-156878011D01*
X85037831Y-156878010D01*
X84985511Y-156856338D01*
X84985501Y-156856335D01*
X84945654Y-156848409D01*
X84926000Y-156844500D01*
X84925998Y-156844500D01*
X82648538Y-156844500D01*
X82596212Y-156822826D01*
X82574538Y-156770500D01*
X82582604Y-156736905D01*
X82598905Y-156704911D01*
X82635646Y-156632804D01*
X82655492Y-156507500D01*
X82635646Y-156382196D01*
X82593765Y-156300000D01*
X92694508Y-156300000D01*
X92714353Y-156425301D01*
X92714353Y-156425302D01*
X92714354Y-156425304D01*
X92771950Y-156538342D01*
X92861658Y-156628050D01*
X92974696Y-156685646D01*
X93096332Y-156704911D01*
X93099662Y-156706951D01*
X93103668Y-156704911D01*
X93225304Y-156685646D01*
X93338342Y-156628050D01*
X93428050Y-156538342D01*
X93434065Y-156526535D01*
X93477131Y-156489752D01*
X93533594Y-156494195D01*
X93565934Y-156526535D01*
X93571950Y-156538342D01*
X93661658Y-156628050D01*
X93774696Y-156685646D01*
X93900000Y-156705492D01*
X94025304Y-156685646D01*
X94138342Y-156628050D01*
X94228050Y-156538342D01*
X94285646Y-156425304D01*
X94305492Y-156300000D01*
X94285646Y-156174696D01*
X94228050Y-156061658D01*
X94138342Y-155971950D01*
X94025304Y-155914354D01*
X94025302Y-155914353D01*
X94025301Y-155914353D01*
X93900000Y-155894508D01*
X93774698Y-155914353D01*
X93661656Y-155971951D01*
X93571950Y-156061657D01*
X93565934Y-156073465D01*
X93522867Y-156110247D01*
X93466404Y-156105803D01*
X93434066Y-156073465D01*
X93428049Y-156061657D01*
X93338343Y-155971951D01*
X93338342Y-155971950D01*
X93225304Y-155914354D01*
X93225302Y-155914353D01*
X93225301Y-155914353D01*
X93100000Y-155894508D01*
X92974698Y-155914353D01*
X92861656Y-155971951D01*
X92771951Y-156061656D01*
X92714353Y-156174698D01*
X92694508Y-156300000D01*
X82593765Y-156300000D01*
X82578050Y-156269158D01*
X82488342Y-156179450D01*
X82375304Y-156121854D01*
X82375302Y-156121853D01*
X82375301Y-156121853D01*
X82250000Y-156102008D01*
X82124698Y-156121853D01*
X82011656Y-156179451D01*
X81921951Y-156269156D01*
X81864353Y-156382198D01*
X81844508Y-156507500D01*
X81864354Y-156632804D01*
X81917396Y-156736905D01*
X81921840Y-156793367D01*
X81885057Y-156836434D01*
X81851462Y-156844500D01*
X81574500Y-156844500D01*
X81522174Y-156822826D01*
X81500500Y-156770500D01*
X81500500Y-154907500D01*
X85494508Y-154907500D01*
X85514353Y-155032801D01*
X85514353Y-155032802D01*
X85514354Y-155032804D01*
X85571950Y-155145842D01*
X85661658Y-155235550D01*
X85774696Y-155293146D01*
X85900000Y-155312992D01*
X86025304Y-155293146D01*
X86138342Y-155235550D01*
X86228050Y-155145842D01*
X86285646Y-155032804D01*
X86305492Y-154907500D01*
X86289654Y-154807500D01*
X89194508Y-154807500D01*
X89214353Y-154932801D01*
X89214353Y-154932802D01*
X89214354Y-154932804D01*
X89271950Y-155045842D01*
X89361658Y-155135550D01*
X89474696Y-155193146D01*
X89600000Y-155212992D01*
X89725304Y-155193146D01*
X89838342Y-155135550D01*
X89928050Y-155045842D01*
X89934065Y-155034035D01*
X89977131Y-154997252D01*
X90033594Y-155001695D01*
X90065934Y-155034035D01*
X90071950Y-155045842D01*
X90161658Y-155135550D01*
X90274696Y-155193146D01*
X90400000Y-155212992D01*
X90525304Y-155193146D01*
X90638342Y-155135550D01*
X90728050Y-155045842D01*
X90734065Y-155034035D01*
X90777131Y-154997252D01*
X90833594Y-155001695D01*
X90865934Y-155034035D01*
X90871950Y-155045842D01*
X90961658Y-155135550D01*
X91074696Y-155193146D01*
X91200000Y-155212992D01*
X91325304Y-155193146D01*
X91438342Y-155135550D01*
X91528050Y-155045842D01*
X91585646Y-154932804D01*
X91605492Y-154807500D01*
X91585646Y-154682196D01*
X91528050Y-154569158D01*
X91438342Y-154479450D01*
X91325304Y-154421854D01*
X91325302Y-154421853D01*
X91325301Y-154421853D01*
X91200000Y-154402008D01*
X91074698Y-154421853D01*
X90961656Y-154479451D01*
X90871950Y-154569157D01*
X90865934Y-154580965D01*
X90822867Y-154617747D01*
X90766404Y-154613303D01*
X90734066Y-154580965D01*
X90728049Y-154569157D01*
X90638343Y-154479451D01*
X90638342Y-154479450D01*
X90525304Y-154421854D01*
X90525302Y-154421853D01*
X90525301Y-154421853D01*
X90400000Y-154402008D01*
X90274698Y-154421853D01*
X90161656Y-154479451D01*
X90071950Y-154569157D01*
X90065934Y-154580965D01*
X90022867Y-154617747D01*
X89966404Y-154613303D01*
X89934066Y-154580965D01*
X89928049Y-154569157D01*
X89838343Y-154479451D01*
X89838342Y-154479450D01*
X89725304Y-154421854D01*
X89725302Y-154421853D01*
X89725301Y-154421853D01*
X89600000Y-154402008D01*
X89474698Y-154421853D01*
X89361656Y-154479451D01*
X89271951Y-154569156D01*
X89214353Y-154682198D01*
X89194508Y-154807500D01*
X86289654Y-154807500D01*
X86285646Y-154782196D01*
X86228050Y-154669158D01*
X86138342Y-154579450D01*
X86025304Y-154521854D01*
X86025302Y-154521853D01*
X86025301Y-154521853D01*
X85900000Y-154502008D01*
X85774698Y-154521853D01*
X85661656Y-154579451D01*
X85571951Y-154669156D01*
X85514353Y-154782198D01*
X85494508Y-154907500D01*
X81500500Y-154907500D01*
X81500500Y-154257500D01*
X81844508Y-154257500D01*
X81864353Y-154382801D01*
X81864353Y-154382802D01*
X81864354Y-154382804D01*
X81921950Y-154495842D01*
X82011658Y-154585550D01*
X82124696Y-154643146D01*
X82250000Y-154662992D01*
X82375304Y-154643146D01*
X82488342Y-154585550D01*
X82578050Y-154495842D01*
X82635646Y-154382804D01*
X82655492Y-154257500D01*
X82635646Y-154132196D01*
X82578050Y-154019158D01*
X82488342Y-153929450D01*
X82445263Y-153907500D01*
X86494508Y-153907500D01*
X86514353Y-154032801D01*
X86514353Y-154032802D01*
X86514354Y-154032804D01*
X86571950Y-154145842D01*
X86661658Y-154235550D01*
X86774696Y-154293146D01*
X86900000Y-154312992D01*
X87025304Y-154293146D01*
X87138342Y-154235550D01*
X87228050Y-154145842D01*
X87285646Y-154032804D01*
X87305492Y-153907500D01*
X87285646Y-153782196D01*
X87228050Y-153669158D01*
X87138342Y-153579450D01*
X87025304Y-153521854D01*
X87025302Y-153521853D01*
X87025301Y-153521853D01*
X86900000Y-153502008D01*
X86774698Y-153521853D01*
X86661656Y-153579451D01*
X86571951Y-153669156D01*
X86514353Y-153782198D01*
X86494508Y-153907500D01*
X82445263Y-153907500D01*
X82375304Y-153871854D01*
X82375302Y-153871853D01*
X82375301Y-153871853D01*
X82250000Y-153852008D01*
X82124698Y-153871853D01*
X82011656Y-153929451D01*
X81921951Y-154019156D01*
X81864353Y-154132198D01*
X81844508Y-154257500D01*
X81500500Y-154257500D01*
X81500500Y-153007500D01*
X85594508Y-153007500D01*
X85614353Y-153132801D01*
X85614353Y-153132802D01*
X85614354Y-153132804D01*
X85671950Y-153245842D01*
X85761658Y-153335550D01*
X85874696Y-153393146D01*
X86000000Y-153412992D01*
X86125304Y-153393146D01*
X86238342Y-153335550D01*
X86328050Y-153245842D01*
X86385646Y-153132804D01*
X86405492Y-153007500D01*
X86385646Y-152882196D01*
X86328050Y-152769158D01*
X86238342Y-152679450D01*
X86125304Y-152621854D01*
X86125302Y-152621853D01*
X86125301Y-152621853D01*
X86000000Y-152602008D01*
X85874698Y-152621853D01*
X85761656Y-152679451D01*
X85671951Y-152769156D01*
X85614353Y-152882198D01*
X85594508Y-153007500D01*
X81500500Y-153007500D01*
X81500500Y-152007500D01*
X85594508Y-152007500D01*
X85614353Y-152132801D01*
X85614353Y-152132802D01*
X85614354Y-152132804D01*
X85671950Y-152245842D01*
X85761658Y-152335550D01*
X85874696Y-152393146D01*
X86000000Y-152412992D01*
X86125304Y-152393146D01*
X86238342Y-152335550D01*
X86328050Y-152245842D01*
X86385646Y-152132804D01*
X86405492Y-152007500D01*
X86385646Y-151882196D01*
X86328050Y-151769158D01*
X86238342Y-151679450D01*
X86125304Y-151621854D01*
X86125302Y-151621853D01*
X86125301Y-151621853D01*
X86000000Y-151602008D01*
X85874698Y-151621853D01*
X85761656Y-151679451D01*
X85671951Y-151769156D01*
X85614353Y-151882198D01*
X85594508Y-152007500D01*
X81500500Y-152007500D01*
X81500500Y-151257500D01*
X82594508Y-151257500D01*
X82614353Y-151382801D01*
X82614353Y-151382802D01*
X82614354Y-151382804D01*
X82671950Y-151495842D01*
X82761658Y-151585550D01*
X82874696Y-151643146D01*
X83000000Y-151662992D01*
X83125304Y-151643146D01*
X83238342Y-151585550D01*
X83328050Y-151495842D01*
X83385646Y-151382804D01*
X83405492Y-151257500D01*
X83385646Y-151132196D01*
X83328050Y-151019158D01*
X83238342Y-150929450D01*
X83125304Y-150871854D01*
X83125302Y-150871853D01*
X83125301Y-150871853D01*
X83000000Y-150852008D01*
X82874698Y-150871853D01*
X82761656Y-150929451D01*
X82671951Y-151019156D01*
X82614353Y-151132198D01*
X82594508Y-151257500D01*
X81500500Y-151257500D01*
X81500500Y-150967584D01*
X81522174Y-150915258D01*
X81574500Y-150893584D01*
X81626826Y-150915258D01*
X81640432Y-150933985D01*
X81671950Y-150995842D01*
X81761658Y-151085550D01*
X81874696Y-151143146D01*
X82000000Y-151162992D01*
X82125304Y-151143146D01*
X82238342Y-151085550D01*
X82328050Y-150995842D01*
X82385646Y-150882804D01*
X82405492Y-150757500D01*
X82385646Y-150632196D01*
X82328050Y-150519158D01*
X82316392Y-150507500D01*
X86094508Y-150507500D01*
X86114353Y-150632801D01*
X86114353Y-150632802D01*
X86114354Y-150632804D01*
X86171950Y-150745842D01*
X86261658Y-150835550D01*
X86374696Y-150893146D01*
X86500000Y-150912992D01*
X86625304Y-150893146D01*
X86738342Y-150835550D01*
X86738345Y-150835547D01*
X86743055Y-150832126D01*
X86744710Y-150834405D01*
X86788106Y-150816414D01*
X86840438Y-150838072D01*
X86862129Y-150890391D01*
X86861218Y-150901989D01*
X86846354Y-150995842D01*
X86844508Y-151007500D01*
X86849108Y-151036545D01*
X86864353Y-151132801D01*
X86864353Y-151132802D01*
X86864354Y-151132804D01*
X86921950Y-151245842D01*
X87011658Y-151335550D01*
X87124696Y-151393146D01*
X87250000Y-151412992D01*
X87375304Y-151393146D01*
X87488342Y-151335550D01*
X87578050Y-151245842D01*
X87635646Y-151132804D01*
X87655492Y-151007500D01*
X87635646Y-150882196D01*
X87578050Y-150769158D01*
X87488342Y-150679450D01*
X87375304Y-150621854D01*
X87375302Y-150621853D01*
X87375301Y-150621853D01*
X87250000Y-150602008D01*
X87124698Y-150621853D01*
X87011654Y-150679452D01*
X87006945Y-150682874D01*
X87005295Y-150680603D01*
X86961847Y-150698585D01*
X86909528Y-150676894D01*
X86887870Y-150624562D01*
X86888781Y-150613009D01*
X86905492Y-150507500D01*
X86885646Y-150382196D01*
X86828050Y-150269158D01*
X86738342Y-150179450D01*
X86625304Y-150121854D01*
X86625302Y-150121853D01*
X86625301Y-150121853D01*
X86500000Y-150102008D01*
X86374696Y-150121853D01*
X86337023Y-150141049D01*
X86280561Y-150145492D01*
X86264510Y-150131783D01*
X86266948Y-150162751D01*
X86248896Y-150192211D01*
X86171951Y-150269156D01*
X86114353Y-150382198D01*
X86094508Y-150507500D01*
X82316392Y-150507500D01*
X82238342Y-150429450D01*
X82125304Y-150371854D01*
X82125302Y-150371853D01*
X82125301Y-150371853D01*
X82000000Y-150352008D01*
X81874698Y-150371853D01*
X81761656Y-150429451D01*
X81671950Y-150519157D01*
X81640434Y-150581011D01*
X81597367Y-150617793D01*
X81540904Y-150613349D01*
X81504122Y-150570282D01*
X81500500Y-150547415D01*
X81500500Y-149707500D01*
X85594508Y-149707500D01*
X85614353Y-149832801D01*
X85614353Y-149832802D01*
X85614354Y-149832804D01*
X85671950Y-149945842D01*
X85761658Y-150035550D01*
X85874696Y-150093146D01*
X86000000Y-150112992D01*
X86125304Y-150093146D01*
X86162976Y-150073950D01*
X86219436Y-150069507D01*
X86235488Y-150083216D01*
X86233051Y-150052246D01*
X86251101Y-150022790D01*
X86328050Y-149945842D01*
X86385646Y-149832804D01*
X86405492Y-149707500D01*
X86385646Y-149582196D01*
X86328050Y-149469158D01*
X86310066Y-149451174D01*
X86288392Y-149398848D01*
X86310066Y-149346522D01*
X86328798Y-149332913D01*
X86330500Y-149332045D01*
X86338342Y-149328050D01*
X86428050Y-149238342D01*
X86485646Y-149125304D01*
X86505492Y-149000000D01*
X86485646Y-148874696D01*
X86428050Y-148761658D01*
X86338342Y-148671950D01*
X86225304Y-148614354D01*
X86225302Y-148614353D01*
X86225301Y-148614353D01*
X86100000Y-148594508D01*
X85974698Y-148614353D01*
X85861656Y-148671951D01*
X85771951Y-148761656D01*
X85714353Y-148874698D01*
X85694508Y-149000000D01*
X85714353Y-149125301D01*
X85714353Y-149125302D01*
X85714354Y-149125304D01*
X85771950Y-149238342D01*
X85771951Y-149238343D01*
X85789933Y-149256325D01*
X85811607Y-149308651D01*
X85789933Y-149360977D01*
X85771208Y-149374582D01*
X85761662Y-149379446D01*
X85761658Y-149379449D01*
X85671951Y-149469156D01*
X85614353Y-149582198D01*
X85594508Y-149707500D01*
X81500500Y-149707500D01*
X81500500Y-146107500D01*
X89529508Y-146107500D01*
X89549353Y-146232801D01*
X89549353Y-146232802D01*
X89549354Y-146232804D01*
X89606950Y-146345842D01*
X89696658Y-146435550D01*
X89809696Y-146493146D01*
X89935000Y-146512992D01*
X90060304Y-146493146D01*
X90173342Y-146435550D01*
X90263050Y-146345842D01*
X90320646Y-146232804D01*
X90340492Y-146107500D01*
X90320646Y-145982196D01*
X90263050Y-145869158D01*
X90173342Y-145779450D01*
X90060304Y-145721854D01*
X90060302Y-145721853D01*
X90060301Y-145721853D01*
X89935000Y-145702008D01*
X89809698Y-145721853D01*
X89696656Y-145779451D01*
X89606951Y-145869156D01*
X89549353Y-145982198D01*
X89529508Y-146107500D01*
X81500500Y-146107500D01*
X81500500Y-145600000D01*
X85394508Y-145600000D01*
X85414353Y-145725301D01*
X85414353Y-145725302D01*
X85414354Y-145725304D01*
X85471950Y-145838342D01*
X85561658Y-145928050D01*
X85674696Y-145985646D01*
X85800000Y-146005492D01*
X85925304Y-145985646D01*
X86038342Y-145928050D01*
X86128050Y-145838342D01*
X86185646Y-145725304D01*
X86205492Y-145600000D01*
X86185646Y-145474696D01*
X86128050Y-145361658D01*
X86038342Y-145271950D01*
X85925304Y-145214354D01*
X85925302Y-145214353D01*
X85925301Y-145214353D01*
X85800000Y-145194508D01*
X85674698Y-145214353D01*
X85561656Y-145271951D01*
X85471951Y-145361656D01*
X85414353Y-145474698D01*
X85394508Y-145600000D01*
X81500500Y-145600000D01*
X81500500Y-145107500D01*
X87894508Y-145107500D01*
X87914353Y-145232801D01*
X87914353Y-145232802D01*
X87914354Y-145232804D01*
X87971950Y-145345842D01*
X88061658Y-145435550D01*
X88174696Y-145493146D01*
X88300000Y-145512992D01*
X88425304Y-145493146D01*
X88538342Y-145435550D01*
X88628050Y-145345842D01*
X88685646Y-145232804D01*
X88705492Y-145107500D01*
X88685646Y-144982196D01*
X88628050Y-144869158D01*
X88538342Y-144779450D01*
X88425304Y-144721854D01*
X88425302Y-144721853D01*
X88425301Y-144721853D01*
X88300000Y-144702008D01*
X88174698Y-144721853D01*
X88061656Y-144779451D01*
X87971951Y-144869156D01*
X87914353Y-144982198D01*
X87894508Y-145107500D01*
X81500500Y-145107500D01*
X81500500Y-143900000D01*
X85094508Y-143900000D01*
X85114353Y-144025301D01*
X85114353Y-144025302D01*
X85114354Y-144025304D01*
X85171950Y-144138342D01*
X85261658Y-144228050D01*
X85374696Y-144285646D01*
X85500000Y-144305492D01*
X85625304Y-144285646D01*
X85738342Y-144228050D01*
X85828050Y-144138342D01*
X85885646Y-144025304D01*
X85905492Y-143900000D01*
X85890842Y-143807500D01*
X98794508Y-143807500D01*
X98814353Y-143932801D01*
X98814353Y-143932802D01*
X98814354Y-143932804D01*
X98871950Y-144045842D01*
X98961658Y-144135550D01*
X99074696Y-144193146D01*
X99200000Y-144212992D01*
X99325304Y-144193146D01*
X99438342Y-144135550D01*
X99528050Y-144045842D01*
X99534065Y-144034035D01*
X99577131Y-143997252D01*
X99633594Y-144001695D01*
X99665934Y-144034035D01*
X99671950Y-144045842D01*
X99761658Y-144135550D01*
X99874696Y-144193146D01*
X100000000Y-144212992D01*
X100125304Y-144193146D01*
X100238342Y-144135550D01*
X100328050Y-144045842D01*
X100385646Y-143932804D01*
X100405492Y-143807500D01*
X100385646Y-143682196D01*
X100328050Y-143569158D01*
X100238342Y-143479450D01*
X100125304Y-143421854D01*
X100125302Y-143421853D01*
X100125301Y-143421853D01*
X100000000Y-143402008D01*
X99874698Y-143421853D01*
X99761656Y-143479451D01*
X99671950Y-143569157D01*
X99665934Y-143580965D01*
X99622867Y-143617747D01*
X99566404Y-143613303D01*
X99534066Y-143580965D01*
X99529473Y-143571951D01*
X99528050Y-143569158D01*
X99438342Y-143479450D01*
X99325304Y-143421854D01*
X99325302Y-143421853D01*
X99325301Y-143421853D01*
X99200000Y-143402008D01*
X99074698Y-143421853D01*
X98961656Y-143479451D01*
X98871951Y-143569156D01*
X98814353Y-143682198D01*
X98794508Y-143807500D01*
X85890842Y-143807500D01*
X85885646Y-143774696D01*
X85828050Y-143661658D01*
X85738342Y-143571950D01*
X85625304Y-143514354D01*
X85625302Y-143514353D01*
X85625301Y-143514353D01*
X85500000Y-143494508D01*
X85374698Y-143514353D01*
X85261656Y-143571951D01*
X85171951Y-143661656D01*
X85114353Y-143774698D01*
X85094508Y-143900000D01*
X81500500Y-143900000D01*
X81500500Y-142307500D01*
X91794508Y-142307500D01*
X91814353Y-142432801D01*
X91814353Y-142432802D01*
X91814354Y-142432804D01*
X91871950Y-142545842D01*
X91961658Y-142635550D01*
X92074696Y-142693146D01*
X92200000Y-142712992D01*
X92325304Y-142693146D01*
X92438342Y-142635550D01*
X92528050Y-142545842D01*
X92585646Y-142432804D01*
X92605492Y-142307500D01*
X92585646Y-142182196D01*
X92528050Y-142069158D01*
X92438342Y-141979450D01*
X92325304Y-141921854D01*
X92325302Y-141921853D01*
X92325301Y-141921853D01*
X92200000Y-141902008D01*
X92074698Y-141921853D01*
X91961656Y-141979451D01*
X91871951Y-142069156D01*
X91814353Y-142182198D01*
X91794508Y-142307500D01*
X81500500Y-142307500D01*
X81500500Y-140607500D01*
X85594508Y-140607500D01*
X85614353Y-140732801D01*
X85614353Y-140732802D01*
X85614354Y-140732804D01*
X85671950Y-140845842D01*
X85761658Y-140935550D01*
X85874696Y-140993146D01*
X86000000Y-141012992D01*
X86125304Y-140993146D01*
X86238342Y-140935550D01*
X86328050Y-140845842D01*
X86385646Y-140732804D01*
X86405492Y-140607500D01*
X86385646Y-140482196D01*
X86328050Y-140369158D01*
X86238342Y-140279450D01*
X86125304Y-140221854D01*
X86125302Y-140221853D01*
X86125301Y-140221853D01*
X86000000Y-140202008D01*
X85874698Y-140221853D01*
X85761656Y-140279451D01*
X85671951Y-140369156D01*
X85614353Y-140482198D01*
X85594508Y-140607500D01*
X81500500Y-140607500D01*
X81500500Y-137207500D01*
X83994508Y-137207500D01*
X84014353Y-137332801D01*
X84014353Y-137332802D01*
X84014354Y-137332804D01*
X84071950Y-137445842D01*
X84161658Y-137535550D01*
X84274696Y-137593146D01*
X84400000Y-137612992D01*
X84525304Y-137593146D01*
X84638342Y-137535550D01*
X84728050Y-137445842D01*
X84785646Y-137332804D01*
X84805492Y-137207500D01*
X85694508Y-137207500D01*
X85714353Y-137332801D01*
X85714353Y-137332802D01*
X85714354Y-137332804D01*
X85771950Y-137445842D01*
X85861658Y-137535550D01*
X85974696Y-137593146D01*
X86100000Y-137612992D01*
X86225304Y-137593146D01*
X86338342Y-137535550D01*
X86428050Y-137445842D01*
X86447586Y-137407500D01*
X90694508Y-137407500D01*
X90714353Y-137532801D01*
X90714353Y-137532802D01*
X90714354Y-137532804D01*
X90771950Y-137645842D01*
X90773272Y-137648436D01*
X90777715Y-137704898D01*
X90773272Y-137715626D01*
X90739354Y-137782195D01*
X90719508Y-137907500D01*
X90739354Y-138032804D01*
X90739355Y-138032809D01*
X90773271Y-138099372D01*
X90777715Y-138155834D01*
X90773272Y-138166562D01*
X90714353Y-138282198D01*
X90694508Y-138407500D01*
X90714353Y-138532801D01*
X90714353Y-138532802D01*
X90714354Y-138532804D01*
X90771950Y-138645842D01*
X90861658Y-138735550D01*
X90974696Y-138793146D01*
X91100000Y-138812992D01*
X91225304Y-138793146D01*
X91338342Y-138735550D01*
X91428050Y-138645842D01*
X91485646Y-138532804D01*
X91505492Y-138407500D01*
X91485646Y-138282196D01*
X91451726Y-138215626D01*
X91447283Y-138159167D01*
X91451727Y-138148437D01*
X91453048Y-138145843D01*
X91453050Y-138145842D01*
X91510646Y-138032804D01*
X91530492Y-137907500D01*
X91510646Y-137782196D01*
X91453050Y-137669158D01*
X91451727Y-137666561D01*
X91447283Y-137610099D01*
X91451720Y-137599384D01*
X91485646Y-137532804D01*
X91489654Y-137507500D01*
X92494508Y-137507500D01*
X92514353Y-137632801D01*
X92514353Y-137632802D01*
X92514354Y-137632804D01*
X92571950Y-137745842D01*
X92573272Y-137748436D01*
X92577715Y-137804898D01*
X92573272Y-137815626D01*
X92539354Y-137882195D01*
X92519508Y-138007500D01*
X92539354Y-138132804D01*
X92539355Y-138132809D01*
X92573271Y-138199372D01*
X92577715Y-138255834D01*
X92573272Y-138266562D01*
X92514353Y-138382198D01*
X92494508Y-138507500D01*
X92514353Y-138632801D01*
X92514353Y-138632802D01*
X92514354Y-138632804D01*
X92571950Y-138745842D01*
X92661658Y-138835550D01*
X92774696Y-138893146D01*
X92900000Y-138912992D01*
X93025304Y-138893146D01*
X93138342Y-138835550D01*
X93228050Y-138745842D01*
X93285646Y-138632804D01*
X93305492Y-138507500D01*
X93285646Y-138382196D01*
X93251726Y-138315626D01*
X93247283Y-138259167D01*
X93251727Y-138248437D01*
X93253048Y-138245843D01*
X93253050Y-138245842D01*
X93310646Y-138132804D01*
X93330492Y-138007500D01*
X93310646Y-137882196D01*
X93253050Y-137769158D01*
X93251727Y-137766561D01*
X93247283Y-137710099D01*
X93251720Y-137699384D01*
X93285646Y-137632804D01*
X93305492Y-137507500D01*
X93285646Y-137382196D01*
X93228050Y-137269158D01*
X93138342Y-137179450D01*
X93025304Y-137121854D01*
X93025302Y-137121853D01*
X93025301Y-137121853D01*
X92900000Y-137102008D01*
X92774698Y-137121853D01*
X92661656Y-137179451D01*
X92571951Y-137269156D01*
X92514353Y-137382198D01*
X92494508Y-137507500D01*
X91489654Y-137507500D01*
X91505492Y-137407500D01*
X91485646Y-137282196D01*
X91428050Y-137169158D01*
X91338342Y-137079450D01*
X91225304Y-137021854D01*
X91225302Y-137021853D01*
X91225301Y-137021853D01*
X91100000Y-137002008D01*
X90974698Y-137021853D01*
X90861656Y-137079451D01*
X90771951Y-137169156D01*
X90714353Y-137282198D01*
X90694508Y-137407500D01*
X86447586Y-137407500D01*
X86485646Y-137332804D01*
X86505492Y-137207500D01*
X86485646Y-137082196D01*
X86428050Y-136969158D01*
X86338342Y-136879450D01*
X86225304Y-136821854D01*
X86225302Y-136821853D01*
X86225301Y-136821853D01*
X86100000Y-136802008D01*
X85974698Y-136821853D01*
X85861656Y-136879451D01*
X85771951Y-136969156D01*
X85714353Y-137082198D01*
X85694508Y-137207500D01*
X84805492Y-137207500D01*
X84785646Y-137082196D01*
X84728050Y-136969158D01*
X84638342Y-136879450D01*
X84525304Y-136821854D01*
X84525302Y-136821853D01*
X84525301Y-136821853D01*
X84400000Y-136802008D01*
X84274698Y-136821853D01*
X84161656Y-136879451D01*
X84071951Y-136969156D01*
X84014353Y-137082198D01*
X83994508Y-137207500D01*
X81500500Y-137207500D01*
X81500500Y-136307500D01*
X90694508Y-136307500D01*
X90714353Y-136432801D01*
X90714353Y-136432802D01*
X90714354Y-136432804D01*
X90771950Y-136545842D01*
X90861658Y-136635550D01*
X90974696Y-136693146D01*
X91100000Y-136712992D01*
X91225304Y-136693146D01*
X91338342Y-136635550D01*
X91428050Y-136545842D01*
X91485646Y-136432804D01*
X91505492Y-136307500D01*
X91485646Y-136182196D01*
X91428050Y-136069158D01*
X91338342Y-135979450D01*
X91225304Y-135921854D01*
X91225302Y-135921853D01*
X91225301Y-135921853D01*
X91100000Y-135902008D01*
X90974698Y-135921853D01*
X90861656Y-135979451D01*
X90771951Y-136069156D01*
X90714353Y-136182198D01*
X90694508Y-136307500D01*
X81500500Y-136307500D01*
X81500500Y-134507500D01*
X82994508Y-134507500D01*
X83014353Y-134632801D01*
X83014353Y-134632802D01*
X83014354Y-134632804D01*
X83071950Y-134745842D01*
X83161658Y-134835550D01*
X83274696Y-134893146D01*
X83400000Y-134912992D01*
X83525304Y-134893146D01*
X83638342Y-134835550D01*
X83728050Y-134745842D01*
X83785646Y-134632804D01*
X83803116Y-134522500D01*
X87794508Y-134522500D01*
X87814353Y-134647801D01*
X87814353Y-134647802D01*
X87814354Y-134647804D01*
X87871950Y-134760842D01*
X87961658Y-134850550D01*
X88074696Y-134908146D01*
X88200000Y-134927992D01*
X88325304Y-134908146D01*
X88438342Y-134850550D01*
X88528050Y-134760842D01*
X88585646Y-134647804D01*
X88605492Y-134522500D01*
X88585646Y-134397196D01*
X88528050Y-134284158D01*
X88438342Y-134194450D01*
X88325304Y-134136854D01*
X88325302Y-134136853D01*
X88325301Y-134136853D01*
X88200000Y-134117008D01*
X88074698Y-134136853D01*
X87961656Y-134194451D01*
X87871951Y-134284156D01*
X87814353Y-134397198D01*
X87794508Y-134522500D01*
X83803116Y-134522500D01*
X83805492Y-134507500D01*
X83785646Y-134382196D01*
X83728050Y-134269158D01*
X83638342Y-134179450D01*
X83525304Y-134121854D01*
X83525302Y-134121853D01*
X83525301Y-134121853D01*
X83400000Y-134102008D01*
X83274698Y-134121853D01*
X83161656Y-134179451D01*
X83071951Y-134269156D01*
X83014353Y-134382198D01*
X82994508Y-134507500D01*
X81500500Y-134507500D01*
X81500500Y-134100000D01*
X90294508Y-134100000D01*
X90314353Y-134225301D01*
X90314353Y-134225302D01*
X90314354Y-134225304D01*
X90371950Y-134338342D01*
X90461658Y-134428050D01*
X90574696Y-134485646D01*
X90700000Y-134505492D01*
X90825304Y-134485646D01*
X90938342Y-134428050D01*
X91028050Y-134338342D01*
X91085646Y-134225304D01*
X91105492Y-134100000D01*
X91085646Y-133974696D01*
X91028050Y-133861658D01*
X90938342Y-133771950D01*
X90825304Y-133714354D01*
X90825302Y-133714353D01*
X90825301Y-133714353D01*
X90700000Y-133694508D01*
X90574698Y-133714353D01*
X90461656Y-133771951D01*
X90371951Y-133861656D01*
X90314353Y-133974698D01*
X90294508Y-134100000D01*
X81500500Y-134100000D01*
X81500500Y-133261353D01*
X92049500Y-133261353D01*
X92049500Y-135453646D01*
X92063873Y-135507286D01*
X92063873Y-135507287D01*
X92073384Y-135542783D01*
X92073386Y-135542788D01*
X92119530Y-135622712D01*
X92519531Y-136022712D01*
X92584788Y-136087969D01*
X92584790Y-136087970D01*
X92584791Y-136087971D01*
X92624711Y-136111019D01*
X92664712Y-136134114D01*
X92664713Y-136134114D01*
X92664715Y-136134115D01*
X92709284Y-136146057D01*
X92753853Y-136157999D01*
X92753854Y-136158000D01*
X92753856Y-136158000D01*
X93846146Y-136158000D01*
X93846146Y-136157999D01*
X93935288Y-136134114D01*
X94015212Y-136087970D01*
X94545681Y-135557500D01*
X95544508Y-135557500D01*
X95564353Y-135682801D01*
X95564353Y-135682802D01*
X95564354Y-135682804D01*
X95621950Y-135795842D01*
X95711658Y-135885550D01*
X95824696Y-135943146D01*
X95950000Y-135962992D01*
X96075304Y-135943146D01*
X96188342Y-135885550D01*
X96278050Y-135795842D01*
X96335646Y-135682804D01*
X96355492Y-135557500D01*
X96335646Y-135432196D01*
X96278050Y-135319158D01*
X96188342Y-135229450D01*
X96075304Y-135171854D01*
X96075302Y-135171853D01*
X96075301Y-135171853D01*
X95950000Y-135152008D01*
X95824698Y-135171853D01*
X95711656Y-135229451D01*
X95621951Y-135319156D01*
X95564353Y-135432198D01*
X95544508Y-135557500D01*
X94545681Y-135557500D01*
X95123507Y-134979673D01*
X95175833Y-134958000D01*
X96625500Y-134958000D01*
X96677826Y-134979674D01*
X96699500Y-135032000D01*
X96699500Y-135496172D01*
X96689586Y-135533172D01*
X96658386Y-135587210D01*
X96658384Y-135587215D01*
X96634500Y-135676353D01*
X96634500Y-135768646D01*
X96658384Y-135857784D01*
X96658386Y-135857789D01*
X96695375Y-135921854D01*
X96704531Y-135937712D01*
X96707733Y-135940914D01*
X96721335Y-135959636D01*
X96721948Y-135960840D01*
X96721950Y-135960842D01*
X96811658Y-136050550D01*
X96848174Y-136069156D01*
X96924693Y-136108145D01*
X96930233Y-136109945D01*
X96929370Y-136112600D01*
X96959838Y-136128020D01*
X97419788Y-136587970D01*
X97478477Y-136621854D01*
X97499712Y-136634114D01*
X97499713Y-136634114D01*
X97499715Y-136634115D01*
X97505071Y-136635550D01*
X97588853Y-136657999D01*
X97588854Y-136658000D01*
X97588856Y-136658000D01*
X97707831Y-136658000D01*
X97760157Y-136679674D01*
X97781831Y-136732000D01*
X97773766Y-136765595D01*
X97771951Y-136769156D01*
X97771950Y-136769158D01*
X97731555Y-136848437D01*
X97714353Y-136882198D01*
X97694508Y-137007500D01*
X97714353Y-137132801D01*
X97714353Y-137132802D01*
X97714354Y-137132804D01*
X97771950Y-137245842D01*
X97861658Y-137335550D01*
X97974696Y-137393146D01*
X98100000Y-137412992D01*
X98225304Y-137393146D01*
X98338342Y-137335550D01*
X98428050Y-137245842D01*
X98485646Y-137132804D01*
X98505492Y-137007500D01*
X98485646Y-136882196D01*
X98428050Y-136769158D01*
X98428048Y-136769156D01*
X98426234Y-136765595D01*
X98421791Y-136709133D01*
X98458574Y-136666065D01*
X98492169Y-136658000D01*
X98906543Y-136658000D01*
X98958869Y-136679674D01*
X98980543Y-136732000D01*
X98979632Y-136743576D01*
X98970795Y-136799372D01*
X98969508Y-136807500D01*
X98974108Y-136836545D01*
X98989353Y-136932801D01*
X98989353Y-136932802D01*
X98989354Y-136932804D01*
X99046950Y-137045842D01*
X99136658Y-137135550D01*
X99249696Y-137193146D01*
X99375000Y-137212992D01*
X99500304Y-137193146D01*
X99613342Y-137135550D01*
X99703050Y-137045842D01*
X99760646Y-136932804D01*
X99780492Y-136807500D01*
X99760646Y-136682196D01*
X99760644Y-136682193D01*
X99760644Y-136682189D01*
X99758565Y-136678109D01*
X99750500Y-136644516D01*
X99750500Y-136519546D01*
X99758566Y-136485950D01*
X99760479Y-136482196D01*
X99785646Y-136432804D01*
X99805492Y-136307500D01*
X99785646Y-136182196D01*
X99747586Y-136107500D01*
X100594508Y-136107500D01*
X100614353Y-136232801D01*
X100614353Y-136232802D01*
X100614354Y-136232804D01*
X100671950Y-136345842D01*
X100673272Y-136348436D01*
X100677715Y-136404898D01*
X100673272Y-136415626D01*
X100639354Y-136482195D01*
X100619508Y-136607500D01*
X100639354Y-136732804D01*
X100639355Y-136732809D01*
X100673271Y-136799372D01*
X100677715Y-136855834D01*
X100673272Y-136866562D01*
X100614353Y-136982198D01*
X100594508Y-137107500D01*
X100614353Y-137232801D01*
X100614353Y-137232802D01*
X100614354Y-137232804D01*
X100671950Y-137345842D01*
X100761658Y-137435550D01*
X100874696Y-137493146D01*
X101000000Y-137512992D01*
X101125304Y-137493146D01*
X101238342Y-137435550D01*
X101328050Y-137345842D01*
X101385646Y-137232804D01*
X101405492Y-137107500D01*
X101385646Y-136982196D01*
X101351726Y-136915626D01*
X101347283Y-136859167D01*
X101351727Y-136848437D01*
X101353048Y-136845843D01*
X101353050Y-136845842D01*
X101410646Y-136732804D01*
X101430492Y-136607500D01*
X101410646Y-136482196D01*
X101353050Y-136369158D01*
X101351727Y-136366561D01*
X101347283Y-136310099D01*
X101351720Y-136299384D01*
X101385646Y-136232804D01*
X101405492Y-136107500D01*
X101385646Y-135982196D01*
X101328050Y-135869158D01*
X101238342Y-135779450D01*
X101125304Y-135721854D01*
X101125302Y-135721853D01*
X101125301Y-135721853D01*
X101000000Y-135702008D01*
X100874698Y-135721853D01*
X100761656Y-135779451D01*
X100671951Y-135869156D01*
X100614353Y-135982198D01*
X100594508Y-136107500D01*
X99747586Y-136107500D01*
X99728050Y-136069158D01*
X99638342Y-135979450D01*
X99525304Y-135921854D01*
X99525302Y-135921853D01*
X99525301Y-135921853D01*
X99400000Y-135902008D01*
X99274695Y-135921854D01*
X99221546Y-135948935D01*
X99187951Y-135957000D01*
X97810834Y-135957000D01*
X97758508Y-135935326D01*
X97455520Y-135632338D01*
X97440100Y-135601870D01*
X97437445Y-135602733D01*
X97435646Y-135597196D01*
X97408565Y-135544046D01*
X97400500Y-135510451D01*
X97400500Y-135293334D01*
X97422174Y-135241008D01*
X98783508Y-133879674D01*
X98835834Y-133858000D01*
X98906717Y-133858000D01*
X98959043Y-133879674D01*
X98980717Y-133932000D01*
X98959043Y-133984326D01*
X98950212Y-133991868D01*
X98946658Y-133994449D01*
X98856951Y-134084156D01*
X98799353Y-134197198D01*
X98779508Y-134322500D01*
X98799353Y-134447801D01*
X98799353Y-134447802D01*
X98799354Y-134447804D01*
X98856950Y-134560842D01*
X98946658Y-134650550D01*
X99059696Y-134708146D01*
X99185000Y-134727992D01*
X99310304Y-134708146D01*
X99423342Y-134650550D01*
X99513050Y-134560842D01*
X99570646Y-134447804D01*
X99590492Y-134322500D01*
X99570646Y-134197196D01*
X99513050Y-134084158D01*
X99423342Y-133994450D01*
X99423341Y-133994449D01*
X99419788Y-133991868D01*
X99390194Y-133943578D01*
X99403415Y-133888505D01*
X99451705Y-133858911D01*
X99463283Y-133858000D01*
X99866146Y-133858000D01*
X99866146Y-133857999D01*
X99955288Y-133834114D01*
X100035212Y-133787969D01*
X100100469Y-133722712D01*
X100146614Y-133642788D01*
X100170499Y-133553646D01*
X100170500Y-133553646D01*
X100170500Y-133156836D01*
X100192174Y-133104510D01*
X100244500Y-133082836D01*
X100296826Y-133104510D01*
X100310432Y-133123237D01*
X100321950Y-133145842D01*
X100411658Y-133235550D01*
X100524696Y-133293146D01*
X100650000Y-133312992D01*
X100775304Y-133293146D01*
X100888342Y-133235550D01*
X100978050Y-133145842D01*
X101035646Y-133032804D01*
X101055492Y-132907500D01*
X101035646Y-132782196D01*
X100978050Y-132669158D01*
X100888342Y-132579450D01*
X100775304Y-132521854D01*
X100775302Y-132521853D01*
X100775301Y-132521853D01*
X100655686Y-132502908D01*
X100607395Y-132473315D01*
X100594173Y-132418243D01*
X100623766Y-132369952D01*
X100633664Y-132363885D01*
X100647472Y-132356850D01*
X100678455Y-132341065D01*
X100712049Y-132333000D01*
X100971146Y-132333000D01*
X100971146Y-132332999D01*
X101060288Y-132309114D01*
X101063896Y-132307031D01*
X101140212Y-132262970D01*
X101680469Y-131722713D01*
X101726614Y-131642788D01*
X101730675Y-131627631D01*
X101750500Y-131553644D01*
X101750500Y-128261356D01*
X101750500Y-128261354D01*
X101750499Y-128261353D01*
X101745970Y-128244452D01*
X101726614Y-128172212D01*
X101715309Y-128152631D01*
X101680470Y-128092288D01*
X100931756Y-127343574D01*
X100910082Y-127291248D01*
X100919997Y-127254246D01*
X100926614Y-127242788D01*
X100939527Y-127194595D01*
X100950500Y-127153644D01*
X100950500Y-119961356D01*
X100950500Y-119961354D01*
X100950499Y-119961353D01*
X100926615Y-119872215D01*
X100926613Y-119872210D01*
X100880471Y-119792291D01*
X100880470Y-119792290D01*
X100880469Y-119792288D01*
X100815212Y-119727031D01*
X100715964Y-119627783D01*
X100457173Y-119368991D01*
X100435499Y-119316665D01*
X100435499Y-119119546D01*
X100443565Y-119085950D01*
X100470645Y-119032804D01*
X100490491Y-118907500D01*
X100470645Y-118782196D01*
X100413049Y-118669158D01*
X100323341Y-118579450D01*
X100210303Y-118521854D01*
X100210301Y-118521853D01*
X100210300Y-118521853D01*
X100084999Y-118502008D01*
X99959697Y-118521853D01*
X99959695Y-118521853D01*
X99959695Y-118521854D01*
X99918210Y-118542992D01*
X99846655Y-118579451D01*
X99756950Y-118669156D01*
X99699352Y-118782198D01*
X99679507Y-118907500D01*
X99699352Y-119032802D01*
X99726433Y-119085950D01*
X99734499Y-119119546D01*
X99734499Y-119538645D01*
X99758383Y-119627783D01*
X99758385Y-119627788D01*
X99777470Y-119660844D01*
X99804529Y-119707711D01*
X100018672Y-119921854D01*
X100227826Y-120131007D01*
X100249500Y-120183333D01*
X100249500Y-126889345D01*
X100227826Y-126941671D01*
X100209096Y-126955279D01*
X100161657Y-126979450D01*
X100071951Y-127069156D01*
X100014353Y-127182198D01*
X99994508Y-127307500D01*
X100014353Y-127432801D01*
X100014353Y-127432802D01*
X100014354Y-127432804D01*
X100071950Y-127545842D01*
X100161658Y-127635550D01*
X100216061Y-127663270D01*
X100274693Y-127693145D01*
X100280233Y-127694945D01*
X100279370Y-127697600D01*
X100309838Y-127713020D01*
X101027826Y-128431008D01*
X101049500Y-128483334D01*
X101049500Y-129936956D01*
X101027826Y-129989282D01*
X100975500Y-130010956D01*
X100923174Y-129989282D01*
X100888343Y-129954451D01*
X100888342Y-129954450D01*
X100775304Y-129896854D01*
X100775302Y-129896853D01*
X100775301Y-129896853D01*
X100650000Y-129877008D01*
X100524698Y-129896853D01*
X100524696Y-129896853D01*
X100524696Y-129896854D01*
X100493024Y-129912992D01*
X100411656Y-129954451D01*
X100321951Y-130044156D01*
X100264353Y-130157198D01*
X100244508Y-130282500D01*
X100264353Y-130407801D01*
X100264353Y-130407802D01*
X100264354Y-130407804D01*
X100321950Y-130520842D01*
X100321951Y-130520843D01*
X100411658Y-130610550D01*
X100416368Y-130613972D01*
X100415364Y-130615352D01*
X100447744Y-130653252D01*
X100443308Y-130709716D01*
X100410966Y-130742064D01*
X100386657Y-130754450D01*
X100296951Y-130844156D01*
X100239353Y-130957198D01*
X100219508Y-131082500D01*
X100239353Y-131207801D01*
X100239353Y-131207802D01*
X100239354Y-131207804D01*
X100296950Y-131320842D01*
X100296951Y-131320843D01*
X100386659Y-131410551D01*
X100459831Y-131447834D01*
X100496614Y-131490901D01*
X100492170Y-131547363D01*
X100449103Y-131584146D01*
X100437813Y-131586857D01*
X100374698Y-131596853D01*
X100261659Y-131654449D01*
X100226822Y-131689284D01*
X100211507Y-131701037D01*
X100209788Y-131702029D01*
X99539530Y-132372287D01*
X99508139Y-132426659D01*
X99493386Y-132452210D01*
X99493384Y-132452215D01*
X99469500Y-132541353D01*
X99469500Y-133083000D01*
X99447826Y-133135326D01*
X99395500Y-133157000D01*
X98613854Y-133157000D01*
X98524715Y-133180884D01*
X98524710Y-133180886D01*
X98444787Y-133227030D01*
X97374113Y-134297704D01*
X97321787Y-134319378D01*
X97284787Y-134309464D01*
X97235289Y-134280886D01*
X97235284Y-134280884D01*
X97146146Y-134257000D01*
X97146144Y-134257000D01*
X94953856Y-134257000D01*
X94953854Y-134257000D01*
X94864715Y-134280884D01*
X94864710Y-134280886D01*
X94784789Y-134327029D01*
X94621699Y-134490118D01*
X94569373Y-134511792D01*
X94517047Y-134490118D01*
X94496285Y-134449369D01*
X94485646Y-134382196D01*
X94428050Y-134269158D01*
X94338342Y-134179450D01*
X94225304Y-134121854D01*
X94225302Y-134121853D01*
X94225301Y-134121853D01*
X94100000Y-134102008D01*
X93974698Y-134121853D01*
X93861656Y-134179451D01*
X93771951Y-134269156D01*
X93714353Y-134382198D01*
X93694508Y-134507500D01*
X93714353Y-134632801D01*
X93714353Y-134632802D01*
X93714354Y-134632804D01*
X93771950Y-134745842D01*
X93861658Y-134835550D01*
X93974696Y-134893146D01*
X94041867Y-134903784D01*
X94090158Y-134933376D01*
X94103380Y-134988448D01*
X94082617Y-135029199D01*
X93676492Y-135435326D01*
X93624166Y-135457000D01*
X92975833Y-135457000D01*
X92923507Y-135435326D01*
X92772174Y-135283992D01*
X92750500Y-135231666D01*
X92750500Y-134278044D01*
X92772174Y-134225718D01*
X92824500Y-134204044D01*
X92876826Y-134225718D01*
X92961658Y-134310550D01*
X93074696Y-134368146D01*
X93200000Y-134387992D01*
X93325304Y-134368146D01*
X93438342Y-134310550D01*
X93528050Y-134220842D01*
X93585646Y-134107804D01*
X93605492Y-133982500D01*
X93585646Y-133857196D01*
X93528050Y-133744158D01*
X93438342Y-133654450D01*
X93325304Y-133596854D01*
X93325302Y-133596853D01*
X93325301Y-133596853D01*
X93200000Y-133577008D01*
X93074698Y-133596853D01*
X92961656Y-133654451D01*
X92876826Y-133739282D01*
X92824500Y-133760956D01*
X92772174Y-133739282D01*
X92750500Y-133686956D01*
X92750500Y-133483333D01*
X92772174Y-133431007D01*
X92930469Y-133272712D01*
X92931453Y-133271007D01*
X92943213Y-133255678D01*
X92978050Y-133220842D01*
X93035646Y-133107804D01*
X93055492Y-132982500D01*
X93035646Y-132857196D01*
X92978050Y-132744158D01*
X92888342Y-132654450D01*
X92775304Y-132596854D01*
X92775302Y-132596853D01*
X92775301Y-132596853D01*
X92650000Y-132577008D01*
X92524698Y-132596853D01*
X92411656Y-132654451D01*
X92321951Y-132744156D01*
X92264353Y-132857198D01*
X92264353Y-132857199D01*
X92251127Y-132940703D01*
X92230364Y-132981451D01*
X92119532Y-133092284D01*
X92119531Y-133092285D01*
X92105790Y-133116087D01*
X92073386Y-133172210D01*
X92073384Y-133172215D01*
X92049500Y-133261353D01*
X81500500Y-133261353D01*
X81500500Y-132665001D01*
X85994508Y-132665001D01*
X86014353Y-132790302D01*
X86014353Y-132790303D01*
X86014354Y-132790305D01*
X86071950Y-132903343D01*
X86161658Y-132993051D01*
X86274696Y-133050647D01*
X86400000Y-133070493D01*
X86525304Y-133050647D01*
X86638342Y-132993051D01*
X86728050Y-132903343D01*
X86785646Y-132790305D01*
X86805492Y-132665001D01*
X86785646Y-132539697D01*
X86728050Y-132426659D01*
X86638342Y-132336951D01*
X86525304Y-132279355D01*
X86525302Y-132279354D01*
X86525301Y-132279354D01*
X86400000Y-132259509D01*
X86274698Y-132279354D01*
X86161656Y-132336952D01*
X86071951Y-132426657D01*
X86014353Y-132539699D01*
X85994508Y-132665001D01*
X81500500Y-132665001D01*
X81500500Y-131982500D01*
X92244508Y-131982500D01*
X92264353Y-132107801D01*
X92264353Y-132107802D01*
X92264354Y-132107804D01*
X92321950Y-132220842D01*
X92411658Y-132310550D01*
X92524696Y-132368146D01*
X92650000Y-132387992D01*
X92775304Y-132368146D01*
X92888342Y-132310550D01*
X92978050Y-132220842D01*
X93035646Y-132107804D01*
X93055492Y-131982500D01*
X93035646Y-131857196D01*
X92978050Y-131744158D01*
X92888342Y-131654450D01*
X92775304Y-131596854D01*
X92775302Y-131596853D01*
X92775301Y-131596853D01*
X92692103Y-131583676D01*
X92672608Y-131580588D01*
X92654371Y-131569412D01*
X92627390Y-131580589D01*
X92524698Y-131596853D01*
X92411656Y-131654451D01*
X92321951Y-131744156D01*
X92264353Y-131857198D01*
X92244508Y-131982500D01*
X81500500Y-131982500D01*
X81500500Y-130400000D01*
X82794508Y-130400000D01*
X82814353Y-130525301D01*
X82814353Y-130525302D01*
X82814354Y-130525304D01*
X82871950Y-130638342D01*
X82961658Y-130728050D01*
X83074696Y-130785646D01*
X83200000Y-130805492D01*
X83325304Y-130785646D01*
X83325306Y-130785644D01*
X83330514Y-130784820D01*
X83385586Y-130798042D01*
X83415179Y-130846333D01*
X83415179Y-130869485D01*
X83394508Y-130999999D01*
X83414353Y-131125301D01*
X83414353Y-131125302D01*
X83414354Y-131125304D01*
X83471950Y-131238342D01*
X83561658Y-131328050D01*
X83674696Y-131385646D01*
X83800000Y-131405492D01*
X83925304Y-131385646D01*
X84038342Y-131328050D01*
X84128050Y-131238342D01*
X84179432Y-131137500D01*
X86357008Y-131137500D01*
X86376853Y-131262801D01*
X86376853Y-131262802D01*
X86376854Y-131262804D01*
X86434450Y-131375842D01*
X86524158Y-131465550D01*
X86637196Y-131523146D01*
X86762500Y-131542992D01*
X86887804Y-131523146D01*
X87000842Y-131465550D01*
X87090550Y-131375842D01*
X87148146Y-131262804D01*
X87167992Y-131137500D01*
X87151362Y-131032500D01*
X92244508Y-131032500D01*
X92264353Y-131157801D01*
X92264353Y-131157802D01*
X92264354Y-131157804D01*
X92321950Y-131270842D01*
X92411658Y-131360550D01*
X92524696Y-131418146D01*
X92617066Y-131432775D01*
X92627390Y-131434411D01*
X92645627Y-131445587D01*
X92672608Y-131434411D01*
X92775304Y-131418146D01*
X92888342Y-131360550D01*
X92978050Y-131270842D01*
X93035646Y-131157804D01*
X93055492Y-131032500D01*
X93035646Y-130907196D01*
X92978050Y-130794158D01*
X92888342Y-130704450D01*
X92775304Y-130646854D01*
X92775302Y-130646853D01*
X92775301Y-130646853D01*
X92650000Y-130627008D01*
X92524698Y-130646853D01*
X92411656Y-130704451D01*
X92321951Y-130794156D01*
X92264353Y-130907198D01*
X92244508Y-131032500D01*
X87151362Y-131032500D01*
X87148146Y-131012196D01*
X87090550Y-130899158D01*
X87000842Y-130809450D01*
X86887804Y-130751854D01*
X86887802Y-130751853D01*
X86887801Y-130751853D01*
X86762500Y-130732008D01*
X86637198Y-130751853D01*
X86524156Y-130809451D01*
X86434451Y-130899156D01*
X86376853Y-131012198D01*
X86357008Y-131137500D01*
X84179432Y-131137500D01*
X84185646Y-131125304D01*
X84205492Y-131000000D01*
X84185646Y-130874696D01*
X84128050Y-130761658D01*
X84038342Y-130671950D01*
X83925304Y-130614354D01*
X83925302Y-130614353D01*
X83925301Y-130614353D01*
X83800000Y-130594508D01*
X83669485Y-130615179D01*
X83614413Y-130601957D01*
X83584820Y-130553666D01*
X83584820Y-130530514D01*
X83585644Y-130525306D01*
X83585646Y-130525304D01*
X83605492Y-130400000D01*
X83585646Y-130274696D01*
X83528050Y-130161658D01*
X83438342Y-130071950D01*
X83325304Y-130014354D01*
X83325302Y-130014353D01*
X83325301Y-130014353D01*
X83200000Y-129994508D01*
X83074698Y-130014353D01*
X82961656Y-130071951D01*
X82871951Y-130161656D01*
X82814353Y-130274698D01*
X82794508Y-130400000D01*
X81500500Y-130400000D01*
X81500500Y-128507500D01*
X83494508Y-128507500D01*
X83514353Y-128632801D01*
X83514353Y-128632802D01*
X83514354Y-128632804D01*
X83565307Y-128732804D01*
X83571951Y-128745843D01*
X83661659Y-128835551D01*
X83771594Y-128891566D01*
X83808377Y-128934633D01*
X83803933Y-128991095D01*
X83771594Y-129023434D01*
X83661659Y-129079448D01*
X83571951Y-129169156D01*
X83514353Y-129282198D01*
X83494508Y-129407500D01*
X83514353Y-129532801D01*
X83514353Y-129532802D01*
X83514354Y-129532804D01*
X83571950Y-129645842D01*
X83661658Y-129735550D01*
X83774696Y-129793146D01*
X83900000Y-129812992D01*
X84025304Y-129793146D01*
X84138342Y-129735550D01*
X84228050Y-129645842D01*
X84285646Y-129532804D01*
X84305492Y-129407500D01*
X84285646Y-129282196D01*
X84228050Y-129169158D01*
X84166392Y-129107500D01*
X87094508Y-129107500D01*
X87114353Y-129232801D01*
X87114353Y-129232802D01*
X87114354Y-129232804D01*
X87171950Y-129345842D01*
X87261658Y-129435550D01*
X87374696Y-129493146D01*
X87500000Y-129512992D01*
X87625304Y-129493146D01*
X87738342Y-129435550D01*
X87828050Y-129345842D01*
X87885646Y-129232804D01*
X87905492Y-129107500D01*
X88594508Y-129107500D01*
X88614353Y-129232801D01*
X88614353Y-129232802D01*
X88614354Y-129232804D01*
X88671950Y-129345842D01*
X88761658Y-129435550D01*
X88874696Y-129493146D01*
X89000000Y-129512992D01*
X89125304Y-129493146D01*
X89238342Y-129435550D01*
X89328050Y-129345842D01*
X89385646Y-129232804D01*
X89404298Y-129115038D01*
X89433889Y-129066749D01*
X89488962Y-129053527D01*
X89510978Y-129060680D01*
X89574696Y-129093146D01*
X89700000Y-129112992D01*
X89825304Y-129093146D01*
X89938342Y-129035550D01*
X90028050Y-128945842D01*
X90085646Y-128832804D01*
X90105492Y-128707500D01*
X90089654Y-128607500D01*
X90894508Y-128607500D01*
X90914353Y-128732801D01*
X90914353Y-128732802D01*
X90914354Y-128732804D01*
X90971950Y-128845842D01*
X90971951Y-128845843D01*
X91061659Y-128935551D01*
X91171594Y-128991566D01*
X91208377Y-129034633D01*
X91203933Y-129091095D01*
X91171594Y-129123434D01*
X91061659Y-129179448D01*
X90971951Y-129269156D01*
X90914353Y-129382198D01*
X90894508Y-129507500D01*
X90914353Y-129632801D01*
X90914353Y-129632802D01*
X90914354Y-129632804D01*
X90971950Y-129745842D01*
X91061658Y-129835550D01*
X91174696Y-129893146D01*
X91300000Y-129912992D01*
X91425304Y-129893146D01*
X91538342Y-129835550D01*
X91628050Y-129745842D01*
X91685646Y-129632804D01*
X91705492Y-129507500D01*
X91685646Y-129382196D01*
X91628050Y-129269158D01*
X91538342Y-129179450D01*
X91428403Y-129123433D01*
X91391622Y-129080367D01*
X91396065Y-129023905D01*
X91428403Y-128991566D01*
X91538342Y-128935550D01*
X91628050Y-128845842D01*
X91685646Y-128732804D01*
X91705492Y-128607500D01*
X91699949Y-128572501D01*
X93694508Y-128572501D01*
X93714353Y-128697802D01*
X93714353Y-128697803D01*
X93714354Y-128697805D01*
X93771950Y-128810843D01*
X93861658Y-128900551D01*
X93974696Y-128958147D01*
X94100000Y-128977993D01*
X94225304Y-128958147D01*
X94338342Y-128900551D01*
X94428050Y-128810843D01*
X94485646Y-128697805D01*
X94505492Y-128572501D01*
X94485646Y-128447197D01*
X94428050Y-128334159D01*
X94338342Y-128244451D01*
X94225304Y-128186855D01*
X94225302Y-128186854D01*
X94225301Y-128186854D01*
X94100000Y-128167009D01*
X93974698Y-128186854D01*
X93861656Y-128244452D01*
X93771951Y-128334157D01*
X93714353Y-128447199D01*
X93694508Y-128572501D01*
X91699949Y-128572501D01*
X91685646Y-128482196D01*
X91628050Y-128369158D01*
X91538342Y-128279450D01*
X91425304Y-128221854D01*
X91425302Y-128221853D01*
X91425301Y-128221853D01*
X91300000Y-128202008D01*
X91174698Y-128221853D01*
X91061656Y-128279451D01*
X90971951Y-128369156D01*
X90914353Y-128482198D01*
X90894508Y-128607500D01*
X90089654Y-128607500D01*
X90085646Y-128582196D01*
X90028050Y-128469158D01*
X89938342Y-128379450D01*
X89825304Y-128321854D01*
X89825302Y-128321853D01*
X89825301Y-128321853D01*
X89700000Y-128302008D01*
X89574698Y-128321853D01*
X89461656Y-128379451D01*
X89371951Y-128469156D01*
X89314353Y-128582198D01*
X89295702Y-128699959D01*
X89266109Y-128748250D01*
X89211037Y-128761472D01*
X89189018Y-128754318D01*
X89146794Y-128732804D01*
X89125304Y-128721854D01*
X89125302Y-128721853D01*
X89125301Y-128721853D01*
X89000000Y-128702008D01*
X88874698Y-128721853D01*
X88761656Y-128779451D01*
X88671951Y-128869156D01*
X88614353Y-128982198D01*
X88594508Y-129107500D01*
X87905492Y-129107500D01*
X87885646Y-128982196D01*
X87828050Y-128869158D01*
X87738342Y-128779450D01*
X87625304Y-128721854D01*
X87625302Y-128721853D01*
X87625301Y-128721853D01*
X87500000Y-128702008D01*
X87374698Y-128721853D01*
X87261656Y-128779451D01*
X87171951Y-128869156D01*
X87114353Y-128982198D01*
X87094508Y-129107500D01*
X84166392Y-129107500D01*
X84138342Y-129079450D01*
X84028403Y-129023433D01*
X83991622Y-128980367D01*
X83996065Y-128923905D01*
X84028403Y-128891566D01*
X84138342Y-128835550D01*
X84228050Y-128745842D01*
X84285646Y-128632804D01*
X84305492Y-128507500D01*
X84285646Y-128382196D01*
X84228050Y-128269158D01*
X84138342Y-128179450D01*
X84025304Y-128121854D01*
X84025302Y-128121853D01*
X84025301Y-128121853D01*
X83900000Y-128102008D01*
X83774698Y-128121853D01*
X83661656Y-128179451D01*
X83571951Y-128269156D01*
X83514353Y-128382198D01*
X83494508Y-128507500D01*
X81500500Y-128507500D01*
X81500500Y-126907500D01*
X86794508Y-126907500D01*
X86814353Y-127032801D01*
X86814353Y-127032802D01*
X86814354Y-127032804D01*
X86871950Y-127145842D01*
X86961658Y-127235550D01*
X87074696Y-127293146D01*
X87200000Y-127312992D01*
X87325304Y-127293146D01*
X87438342Y-127235550D01*
X87439540Y-127234351D01*
X87440591Y-127233916D01*
X87443055Y-127232126D01*
X87443484Y-127232717D01*
X87491863Y-127212673D01*
X87544191Y-127234342D01*
X87557801Y-127253073D01*
X87571950Y-127280841D01*
X87661658Y-127370549D01*
X87774696Y-127428145D01*
X87900000Y-127447991D01*
X88023610Y-127428413D01*
X88078681Y-127441635D01*
X88108274Y-127489926D01*
X88108274Y-127513077D01*
X88094508Y-127599998D01*
X88094508Y-127599999D01*
X88114353Y-127725301D01*
X88114353Y-127725302D01*
X88114354Y-127725304D01*
X88171950Y-127838342D01*
X88261658Y-127928050D01*
X88374696Y-127985646D01*
X88500000Y-128005492D01*
X88625304Y-127985646D01*
X88738342Y-127928050D01*
X88828050Y-127838342D01*
X88885646Y-127725304D01*
X88905492Y-127600000D01*
X88886939Y-127482862D01*
X88900161Y-127427792D01*
X88948452Y-127398199D01*
X88971601Y-127398199D01*
X89065001Y-127412992D01*
X89190305Y-127393146D01*
X89303343Y-127335550D01*
X89393051Y-127245842D01*
X89450647Y-127132804D01*
X89470493Y-127007500D01*
X89462574Y-126957500D01*
X90744508Y-126957500D01*
X90764353Y-127082801D01*
X90764353Y-127082802D01*
X90764354Y-127082804D01*
X90821950Y-127195842D01*
X90911658Y-127285550D01*
X91024696Y-127343146D01*
X91150000Y-127362992D01*
X91275304Y-127343146D01*
X91345263Y-127307500D01*
X94994508Y-127307500D01*
X95014353Y-127432801D01*
X95014353Y-127432802D01*
X95014354Y-127432804D01*
X95071950Y-127545842D01*
X95161658Y-127635550D01*
X95274696Y-127693146D01*
X95400000Y-127712992D01*
X95525304Y-127693146D01*
X95638342Y-127635550D01*
X95728050Y-127545842D01*
X95760325Y-127482500D01*
X98294508Y-127482500D01*
X98314353Y-127607801D01*
X98314353Y-127607802D01*
X98314354Y-127607804D01*
X98371950Y-127720842D01*
X98461658Y-127810550D01*
X98574696Y-127868146D01*
X98700000Y-127887992D01*
X98825304Y-127868146D01*
X98938342Y-127810550D01*
X99028050Y-127720842D01*
X99085646Y-127607804D01*
X99105492Y-127482500D01*
X99085646Y-127357196D01*
X99028050Y-127244158D01*
X98938342Y-127154450D01*
X98825304Y-127096854D01*
X98825302Y-127096853D01*
X98825301Y-127096853D01*
X98700000Y-127077008D01*
X98574698Y-127096853D01*
X98461656Y-127154451D01*
X98371951Y-127244156D01*
X98314353Y-127357198D01*
X98294508Y-127482500D01*
X95760325Y-127482500D01*
X95785646Y-127432804D01*
X95805492Y-127307500D01*
X95785646Y-127182196D01*
X95728050Y-127069158D01*
X95638342Y-126979450D01*
X95525304Y-126921854D01*
X95525302Y-126921853D01*
X95525301Y-126921853D01*
X95400000Y-126902008D01*
X95274698Y-126921853D01*
X95161656Y-126979451D01*
X95071951Y-127069156D01*
X95014353Y-127182198D01*
X94994508Y-127307500D01*
X91345263Y-127307500D01*
X91388342Y-127285550D01*
X91478050Y-127195842D01*
X91535646Y-127082804D01*
X91555492Y-126957500D01*
X91535646Y-126832196D01*
X91478050Y-126719158D01*
X91388342Y-126629450D01*
X91275304Y-126571854D01*
X91275302Y-126571853D01*
X91275301Y-126571853D01*
X91150000Y-126552008D01*
X91024698Y-126571853D01*
X90911656Y-126629451D01*
X90821951Y-126719156D01*
X90764353Y-126832198D01*
X90744508Y-126957500D01*
X89462574Y-126957500D01*
X89450647Y-126882196D01*
X89393051Y-126769158D01*
X89303343Y-126679450D01*
X89190305Y-126621854D01*
X89190303Y-126621853D01*
X89190302Y-126621853D01*
X89065001Y-126602008D01*
X88939699Y-126621853D01*
X88826657Y-126679451D01*
X88736952Y-126769156D01*
X88679354Y-126882198D01*
X88659509Y-127007500D01*
X88678061Y-127124635D01*
X88664839Y-127179707D01*
X88616548Y-127209300D01*
X88593396Y-127209300D01*
X88500000Y-127194508D01*
X88376390Y-127214085D01*
X88321317Y-127200863D01*
X88291725Y-127152572D01*
X88291725Y-127129420D01*
X88299108Y-127082804D01*
X88305492Y-127042499D01*
X88285646Y-126917195D01*
X88228050Y-126804157D01*
X88138342Y-126714449D01*
X88025304Y-126656853D01*
X88025302Y-126656852D01*
X88025301Y-126656852D01*
X87900000Y-126637007D01*
X87774695Y-126656852D01*
X87774695Y-126656853D01*
X87661660Y-126714447D01*
X87661656Y-126714450D01*
X87660451Y-126715656D01*
X87659396Y-126716092D01*
X87656946Y-126717873D01*
X87656518Y-126717284D01*
X87608123Y-126737325D01*
X87555799Y-126715646D01*
X87542196Y-126696920D01*
X87528051Y-126669159D01*
X87438343Y-126579451D01*
X87438342Y-126579450D01*
X87325304Y-126521854D01*
X87325302Y-126521853D01*
X87325301Y-126521853D01*
X87200000Y-126502008D01*
X87074698Y-126521853D01*
X86961656Y-126579451D01*
X86871951Y-126669156D01*
X86814353Y-126782198D01*
X86794508Y-126907500D01*
X81500500Y-126907500D01*
X81500500Y-125507500D01*
X89894508Y-125507500D01*
X89914353Y-125632801D01*
X89914353Y-125632802D01*
X89914354Y-125632804D01*
X89971950Y-125745842D01*
X90061658Y-125835550D01*
X90073331Y-125841497D01*
X90073465Y-125841566D01*
X90110247Y-125884633D01*
X90105803Y-125941096D01*
X90073465Y-125973434D01*
X90061657Y-125979450D01*
X89971951Y-126069156D01*
X89914353Y-126182198D01*
X89894508Y-126307500D01*
X89914353Y-126432801D01*
X89914353Y-126432802D01*
X89914354Y-126432804D01*
X89971950Y-126545842D01*
X90061658Y-126635550D01*
X90174696Y-126693146D01*
X90300000Y-126712992D01*
X90425304Y-126693146D01*
X90538342Y-126635550D01*
X90628050Y-126545842D01*
X90685646Y-126432804D01*
X90705492Y-126307500D01*
X90685646Y-126182196D01*
X90628050Y-126069158D01*
X90538342Y-125979450D01*
X90526535Y-125973434D01*
X90489752Y-125930369D01*
X90494195Y-125873906D01*
X90526535Y-125841565D01*
X90538342Y-125835550D01*
X90628050Y-125745842D01*
X90685646Y-125632804D01*
X90705492Y-125507500D01*
X90685646Y-125382196D01*
X90628050Y-125269158D01*
X90538342Y-125179450D01*
X90425304Y-125121854D01*
X90425302Y-125121853D01*
X90425301Y-125121853D01*
X90300000Y-125102008D01*
X90174698Y-125121853D01*
X90061656Y-125179451D01*
X89971951Y-125269156D01*
X89914353Y-125382198D01*
X89894508Y-125507500D01*
X81500500Y-125507500D01*
X81500500Y-123267500D01*
X83414508Y-123267500D01*
X83434353Y-123392801D01*
X83434353Y-123392802D01*
X83434354Y-123392804D01*
X83491950Y-123505842D01*
X83581658Y-123595550D01*
X83672718Y-123641947D01*
X83709499Y-123685012D01*
X83705056Y-123741475D01*
X83672720Y-123773812D01*
X83661661Y-123779447D01*
X83661658Y-123779449D01*
X83571951Y-123869156D01*
X83514353Y-123982198D01*
X83494508Y-124107500D01*
X83514353Y-124232801D01*
X83514353Y-124232802D01*
X83514354Y-124232804D01*
X83571950Y-124345842D01*
X83661658Y-124435550D01*
X83774696Y-124493146D01*
X83900000Y-124512992D01*
X84025304Y-124493146D01*
X84138342Y-124435550D01*
X84228050Y-124345842D01*
X84247586Y-124307500D01*
X91194508Y-124307500D01*
X91214353Y-124432801D01*
X91214353Y-124432802D01*
X91214354Y-124432804D01*
X91271950Y-124545842D01*
X91361658Y-124635550D01*
X91474696Y-124693146D01*
X91600000Y-124712992D01*
X91725304Y-124693146D01*
X91838342Y-124635550D01*
X91928050Y-124545842D01*
X91985646Y-124432804D01*
X92005492Y-124307500D01*
X91985646Y-124182196D01*
X91928050Y-124069158D01*
X91838342Y-123979450D01*
X91725304Y-123921854D01*
X91725302Y-123921853D01*
X91725301Y-123921853D01*
X91600000Y-123902008D01*
X91474698Y-123921853D01*
X91361656Y-123979451D01*
X91271951Y-124069156D01*
X91214353Y-124182198D01*
X91194508Y-124307500D01*
X84247586Y-124307500D01*
X84285646Y-124232804D01*
X84305492Y-124107500D01*
X84285646Y-123982196D01*
X84228050Y-123869158D01*
X84138342Y-123779450D01*
X84047281Y-123733052D01*
X84010500Y-123689986D01*
X84014943Y-123633524D01*
X84047283Y-123601184D01*
X84058342Y-123595550D01*
X84148050Y-123505842D01*
X84205646Y-123392804D01*
X84225492Y-123267500D01*
X84205646Y-123142196D01*
X84148050Y-123029158D01*
X84108117Y-122989225D01*
X84086443Y-122936899D01*
X84108117Y-122884573D01*
X84160443Y-122862899D01*
X84172014Y-122863809D01*
X84200000Y-122868242D01*
X84325304Y-122848396D01*
X84438342Y-122790800D01*
X84528050Y-122701092D01*
X84585646Y-122588054D01*
X84605492Y-122462750D01*
X84585646Y-122337446D01*
X84528050Y-122224408D01*
X84438342Y-122134700D01*
X84325304Y-122077104D01*
X84325302Y-122077103D01*
X84325301Y-122077103D01*
X84200000Y-122057258D01*
X84074698Y-122077103D01*
X83961656Y-122134701D01*
X83871951Y-122224406D01*
X83814353Y-122337448D01*
X83794508Y-122462750D01*
X83814353Y-122588051D01*
X83814353Y-122588052D01*
X83814354Y-122588054D01*
X83871950Y-122701092D01*
X83871951Y-122701093D01*
X83911882Y-122741024D01*
X83933556Y-122793350D01*
X83911882Y-122845676D01*
X83859556Y-122867350D01*
X83847981Y-122866439D01*
X83820001Y-122862008D01*
X83820000Y-122862008D01*
X83694698Y-122881853D01*
X83581656Y-122939451D01*
X83491951Y-123029156D01*
X83434353Y-123142198D01*
X83414508Y-123267500D01*
X81500500Y-123267500D01*
X81500500Y-121472501D01*
X97094508Y-121472501D01*
X97114353Y-121597802D01*
X97114353Y-121597803D01*
X97114354Y-121597805D01*
X97171950Y-121710843D01*
X97171951Y-121710844D01*
X97261659Y-121800552D01*
X97342153Y-121841566D01*
X97378936Y-121884633D01*
X97374492Y-121941095D01*
X97342153Y-121973434D01*
X97261659Y-122014447D01*
X97171951Y-122104155D01*
X97114353Y-122217197D01*
X97094508Y-122342499D01*
X97114353Y-122467800D01*
X97114353Y-122467801D01*
X97114354Y-122467803D01*
X97171950Y-122580841D01*
X97261658Y-122670549D01*
X97374696Y-122728145D01*
X97500000Y-122747991D01*
X97625304Y-122728145D01*
X97738342Y-122670549D01*
X97828050Y-122580841D01*
X97885646Y-122467803D01*
X97905492Y-122342499D01*
X97885646Y-122217195D01*
X97828050Y-122104157D01*
X97738342Y-122014449D01*
X97657844Y-121973433D01*
X97621063Y-121930367D01*
X97625506Y-121873905D01*
X97657844Y-121841566D01*
X97738342Y-121800551D01*
X97828050Y-121710843D01*
X97885646Y-121597805D01*
X97905492Y-121472501D01*
X97885646Y-121347197D01*
X97828050Y-121234159D01*
X97738342Y-121144451D01*
X97625304Y-121086855D01*
X97625302Y-121086854D01*
X97625301Y-121086854D01*
X97500000Y-121067009D01*
X97374698Y-121086854D01*
X97261656Y-121144452D01*
X97171951Y-121234157D01*
X97114353Y-121347199D01*
X97094508Y-121472501D01*
X81500500Y-121472501D01*
X81500500Y-120742499D01*
X83394508Y-120742499D01*
X83414353Y-120867800D01*
X83414353Y-120867801D01*
X83414354Y-120867803D01*
X83471950Y-120980841D01*
X83561658Y-121070549D01*
X83674696Y-121128145D01*
X83800000Y-121147991D01*
X83925304Y-121128145D01*
X84038342Y-121070549D01*
X84128050Y-120980841D01*
X84185646Y-120867803D01*
X84205492Y-120742499D01*
X84185646Y-120617195D01*
X84128050Y-120504157D01*
X84038342Y-120414449D01*
X83925304Y-120356853D01*
X83925302Y-120356852D01*
X83925301Y-120356852D01*
X83800000Y-120337007D01*
X83674698Y-120356852D01*
X83561656Y-120414450D01*
X83471951Y-120504155D01*
X83414353Y-120617197D01*
X83394508Y-120742499D01*
X81500500Y-120742499D01*
X81500500Y-120307500D01*
X90194508Y-120307500D01*
X90214353Y-120432801D01*
X90214353Y-120432802D01*
X90214354Y-120432804D01*
X90271950Y-120545842D01*
X90361658Y-120635550D01*
X90474696Y-120693146D01*
X90600000Y-120712992D01*
X90725304Y-120693146D01*
X90838342Y-120635550D01*
X90928050Y-120545842D01*
X90985646Y-120432804D01*
X91005492Y-120307500D01*
X90985646Y-120182196D01*
X90928050Y-120069158D01*
X90838342Y-119979450D01*
X90725304Y-119921854D01*
X90725302Y-119921853D01*
X90725301Y-119921853D01*
X90600000Y-119902008D01*
X90474698Y-119921853D01*
X90361656Y-119979451D01*
X90271951Y-120069156D01*
X90214353Y-120182198D01*
X90194508Y-120307500D01*
X81500500Y-120307500D01*
X81500500Y-119422501D01*
X97144508Y-119422501D01*
X97164353Y-119547802D01*
X97164353Y-119547803D01*
X97164354Y-119547805D01*
X97221950Y-119660843D01*
X97311658Y-119750551D01*
X97424696Y-119808147D01*
X97550000Y-119827993D01*
X97675304Y-119808147D01*
X97788342Y-119750551D01*
X97878050Y-119660843D01*
X97935646Y-119547805D01*
X97955492Y-119422501D01*
X97935646Y-119297197D01*
X97878050Y-119184159D01*
X97788342Y-119094451D01*
X97675304Y-119036855D01*
X97675302Y-119036854D01*
X97675301Y-119036854D01*
X97550000Y-119017009D01*
X97424698Y-119036854D01*
X97311656Y-119094452D01*
X97221951Y-119184157D01*
X97164353Y-119297199D01*
X97144508Y-119422501D01*
X81500500Y-119422501D01*
X81500500Y-118557500D01*
X97729507Y-118557500D01*
X97749352Y-118682801D01*
X97749352Y-118682802D01*
X97749353Y-118682804D01*
X97806949Y-118795842D01*
X97896657Y-118885550D01*
X98009695Y-118943146D01*
X98134999Y-118962992D01*
X98260303Y-118943146D01*
X98373341Y-118885550D01*
X98463049Y-118795842D01*
X98520645Y-118682804D01*
X98540491Y-118557500D01*
X98520645Y-118432196D01*
X98463049Y-118319158D01*
X98373341Y-118229450D01*
X98260303Y-118171854D01*
X98260301Y-118171853D01*
X98260300Y-118171853D01*
X98134999Y-118152008D01*
X98009697Y-118171853D01*
X97896655Y-118229451D01*
X97806950Y-118319156D01*
X97749352Y-118432198D01*
X97729507Y-118557500D01*
X81500500Y-118557500D01*
X81500500Y-117267500D01*
X83894508Y-117267500D01*
X83914353Y-117392801D01*
X83914353Y-117392802D01*
X83914354Y-117392804D01*
X83953259Y-117469159D01*
X83971951Y-117505843D01*
X84061659Y-117595551D01*
X84142155Y-117636566D01*
X84178938Y-117679633D01*
X84174494Y-117736095D01*
X84142155Y-117768434D01*
X84061659Y-117809448D01*
X83971951Y-117899156D01*
X83914353Y-118012198D01*
X83894508Y-118137500D01*
X83914353Y-118262801D01*
X83914353Y-118262802D01*
X83914354Y-118262804D01*
X83971950Y-118375842D01*
X84061658Y-118465550D01*
X84174696Y-118523146D01*
X84300000Y-118542992D01*
X84425304Y-118523146D01*
X84538342Y-118465550D01*
X84628050Y-118375842D01*
X84685646Y-118262804D01*
X84705492Y-118137500D01*
X84685646Y-118012196D01*
X84628050Y-117899158D01*
X84538342Y-117809450D01*
X84457842Y-117768433D01*
X84421061Y-117725367D01*
X84425504Y-117668905D01*
X84457842Y-117636566D01*
X84538342Y-117595550D01*
X84628050Y-117505842D01*
X84685646Y-117392804D01*
X84705492Y-117267500D01*
X84994508Y-117267500D01*
X85014353Y-117392801D01*
X85014353Y-117392802D01*
X85014354Y-117392804D01*
X85053259Y-117469159D01*
X85071951Y-117505843D01*
X85161659Y-117595551D01*
X85212716Y-117621566D01*
X85249499Y-117664633D01*
X85245055Y-117721095D01*
X85212716Y-117753434D01*
X85161659Y-117779448D01*
X85071951Y-117869156D01*
X85014353Y-117982198D01*
X84994508Y-118107500D01*
X85014353Y-118232801D01*
X85014353Y-118232802D01*
X85014354Y-118232804D01*
X85071950Y-118345842D01*
X85161658Y-118435550D01*
X85274696Y-118493146D01*
X85400000Y-118512992D01*
X85525304Y-118493146D01*
X85638342Y-118435550D01*
X85728050Y-118345842D01*
X85785646Y-118232804D01*
X85805492Y-118107500D01*
X86094508Y-118107500D01*
X86114353Y-118232801D01*
X86114353Y-118232802D01*
X86114354Y-118232804D01*
X86171950Y-118345842D01*
X86261658Y-118435550D01*
X86374696Y-118493146D01*
X86500000Y-118512992D01*
X86625304Y-118493146D01*
X86738342Y-118435550D01*
X86828050Y-118345842D01*
X86885646Y-118232804D01*
X86905492Y-118107500D01*
X86885646Y-117982196D01*
X86828050Y-117869158D01*
X86748788Y-117789896D01*
X86727114Y-117737570D01*
X86748788Y-117685244D01*
X86767513Y-117671639D01*
X86838342Y-117635550D01*
X86928050Y-117545842D01*
X86985646Y-117432804D01*
X87005492Y-117307500D01*
X87294508Y-117307500D01*
X87314353Y-117432801D01*
X87314353Y-117432802D01*
X87314354Y-117432804D01*
X87371950Y-117545842D01*
X87461658Y-117635550D01*
X87574696Y-117693146D01*
X87616428Y-117699755D01*
X87664719Y-117729347D01*
X87677941Y-117784419D01*
X87670787Y-117806439D01*
X87614353Y-117917198D01*
X87594508Y-118042500D01*
X87614353Y-118167801D01*
X87614353Y-118167802D01*
X87614354Y-118167804D01*
X87671950Y-118280842D01*
X87761658Y-118370550D01*
X87874696Y-118428146D01*
X88000000Y-118447992D01*
X88125304Y-118428146D01*
X88238342Y-118370550D01*
X88328050Y-118280842D01*
X88385646Y-118167804D01*
X88405492Y-118042500D01*
X88385646Y-117917196D01*
X88328050Y-117804158D01*
X88238342Y-117714450D01*
X88224702Y-117707500D01*
X89159509Y-117707500D01*
X89179354Y-117832801D01*
X89179354Y-117832802D01*
X89179355Y-117832804D01*
X89236951Y-117945842D01*
X89326659Y-118035550D01*
X89439697Y-118093146D01*
X89565001Y-118112992D01*
X89690305Y-118093146D01*
X89803343Y-118035550D01*
X89893051Y-117945842D01*
X89934066Y-117865344D01*
X89977133Y-117828563D01*
X90033595Y-117833006D01*
X90065933Y-117865344D01*
X90106949Y-117945842D01*
X90196657Y-118035550D01*
X90309695Y-118093146D01*
X90434999Y-118112992D01*
X90560303Y-118093146D01*
X90673341Y-118035550D01*
X90763049Y-117945842D01*
X90820645Y-117832804D01*
X90840491Y-117707500D01*
X90820645Y-117582196D01*
X90763049Y-117469158D01*
X90673341Y-117379450D01*
X90560303Y-117321854D01*
X90560301Y-117321853D01*
X90560300Y-117321853D01*
X90434999Y-117302008D01*
X90309697Y-117321853D01*
X90196655Y-117379451D01*
X90106947Y-117469159D01*
X90065934Y-117549653D01*
X90022867Y-117586436D01*
X89966405Y-117581992D01*
X89934066Y-117549653D01*
X89893052Y-117469159D01*
X89803344Y-117379451D01*
X89803343Y-117379450D01*
X89690305Y-117321854D01*
X89690303Y-117321853D01*
X89690302Y-117321853D01*
X89565001Y-117302008D01*
X89439699Y-117321853D01*
X89326657Y-117379451D01*
X89236952Y-117469156D01*
X89179354Y-117582198D01*
X89159509Y-117707500D01*
X88224702Y-117707500D01*
X88125304Y-117656854D01*
X88125302Y-117656853D01*
X88125301Y-117656853D01*
X88083571Y-117650244D01*
X88035280Y-117620651D01*
X88022058Y-117565579D01*
X88029213Y-117543560D01*
X88040773Y-117520871D01*
X88085646Y-117432804D01*
X88105492Y-117307500D01*
X88085646Y-117182196D01*
X88028050Y-117069158D01*
X87938342Y-116979450D01*
X87825304Y-116921854D01*
X87825302Y-116921853D01*
X87825301Y-116921853D01*
X87700000Y-116902008D01*
X87574698Y-116921853D01*
X87461656Y-116979451D01*
X87371951Y-117069156D01*
X87314353Y-117182198D01*
X87294508Y-117307500D01*
X87005492Y-117307500D01*
X86985646Y-117182196D01*
X86928050Y-117069158D01*
X86838342Y-116979450D01*
X86725304Y-116921854D01*
X86725302Y-116921853D01*
X86725301Y-116921853D01*
X86600000Y-116902008D01*
X86474698Y-116921853D01*
X86361656Y-116979451D01*
X86271951Y-117069156D01*
X86214353Y-117182198D01*
X86194508Y-117307500D01*
X86214353Y-117432801D01*
X86214353Y-117432802D01*
X86214354Y-117432804D01*
X86271950Y-117545842D01*
X86271951Y-117545843D01*
X86351211Y-117625103D01*
X86372885Y-117677429D01*
X86351211Y-117729755D01*
X86332481Y-117743363D01*
X86261657Y-117779450D01*
X86171951Y-117869156D01*
X86114353Y-117982198D01*
X86094508Y-118107500D01*
X85805492Y-118107500D01*
X85785646Y-117982196D01*
X85728050Y-117869158D01*
X85638342Y-117779450D01*
X85587281Y-117753433D01*
X85550500Y-117710368D01*
X85554943Y-117653905D01*
X85587281Y-117621566D01*
X85638342Y-117595550D01*
X85728050Y-117505842D01*
X85785646Y-117392804D01*
X85805492Y-117267500D01*
X85785646Y-117142196D01*
X85728050Y-117029158D01*
X85638342Y-116939450D01*
X85525304Y-116881854D01*
X85525302Y-116881853D01*
X85525301Y-116881853D01*
X85400000Y-116862008D01*
X85274698Y-116881853D01*
X85161656Y-116939451D01*
X85071951Y-117029156D01*
X85014353Y-117142198D01*
X84994508Y-117267500D01*
X84705492Y-117267500D01*
X84685646Y-117142196D01*
X84628050Y-117029158D01*
X84538342Y-116939450D01*
X84425304Y-116881854D01*
X84425302Y-116881853D01*
X84425301Y-116881853D01*
X84300000Y-116862008D01*
X84174698Y-116881853D01*
X84061656Y-116939451D01*
X83971951Y-117029156D01*
X83914353Y-117142198D01*
X83894508Y-117267500D01*
X81500500Y-117267500D01*
X81500500Y-115457500D01*
X84144508Y-115457500D01*
X84164353Y-115582801D01*
X84164353Y-115582802D01*
X84164354Y-115582804D01*
X84221950Y-115695842D01*
X84311658Y-115785550D01*
X84424696Y-115843146D01*
X84550000Y-115862992D01*
X84675304Y-115843146D01*
X84788342Y-115785550D01*
X84878050Y-115695842D01*
X84935646Y-115582804D01*
X84955492Y-115457500D01*
X84935646Y-115332196D01*
X84878050Y-115219158D01*
X84788342Y-115129450D01*
X84675304Y-115071854D01*
X84675302Y-115071853D01*
X84675301Y-115071853D01*
X84550000Y-115052008D01*
X84424698Y-115071853D01*
X84311656Y-115129451D01*
X84221951Y-115219156D01*
X84164353Y-115332198D01*
X84144508Y-115457500D01*
X81500500Y-115457500D01*
X81500500Y-114307500D01*
X84429507Y-114307500D01*
X84449352Y-114432801D01*
X84449352Y-114432802D01*
X84449353Y-114432804D01*
X84506949Y-114545842D01*
X84596657Y-114635550D01*
X84709695Y-114693146D01*
X84834999Y-114712992D01*
X84960303Y-114693146D01*
X85073341Y-114635550D01*
X85163049Y-114545842D01*
X85220645Y-114432804D01*
X85240491Y-114307500D01*
X85220645Y-114182196D01*
X85163049Y-114069158D01*
X85073341Y-113979450D01*
X84960303Y-113921854D01*
X84960301Y-113921853D01*
X84960300Y-113921853D01*
X84834999Y-113902008D01*
X84709697Y-113921853D01*
X84596655Y-113979451D01*
X84506950Y-114069156D01*
X84449352Y-114182198D01*
X84429507Y-114307500D01*
X81500500Y-114307500D01*
X81500500Y-113307500D01*
X98494508Y-113307500D01*
X98514353Y-113432801D01*
X98514353Y-113432802D01*
X98514354Y-113432804D01*
X98560773Y-113523906D01*
X98565216Y-113580367D01*
X98560775Y-113591089D01*
X98560772Y-113591096D01*
X98514353Y-113682198D01*
X98494508Y-113807500D01*
X98514353Y-113932801D01*
X98514353Y-113932802D01*
X98514354Y-113932804D01*
X98571950Y-114045842D01*
X98661658Y-114135550D01*
X98774696Y-114193146D01*
X98900000Y-114212992D01*
X99025304Y-114193146D01*
X99138342Y-114135550D01*
X99228050Y-114045842D01*
X99285646Y-113932804D01*
X99305492Y-113807500D01*
X99285646Y-113682196D01*
X99239226Y-113591093D01*
X99234783Y-113534633D01*
X99239222Y-113523914D01*
X99285646Y-113432804D01*
X99305492Y-113307500D01*
X99285646Y-113182196D01*
X99228050Y-113069158D01*
X99138342Y-112979450D01*
X99025304Y-112921854D01*
X99025302Y-112921853D01*
X99025301Y-112921853D01*
X98900000Y-112902008D01*
X98774698Y-112921853D01*
X98661656Y-112979451D01*
X98571951Y-113069156D01*
X98514353Y-113182198D01*
X98494508Y-113307500D01*
X81500500Y-113307500D01*
X81500500Y-112557500D01*
X83594508Y-112557500D01*
X83614353Y-112682801D01*
X83614353Y-112682802D01*
X83614354Y-112682804D01*
X83671950Y-112795842D01*
X83761658Y-112885550D01*
X83874696Y-112943146D01*
X84000000Y-112962992D01*
X84125304Y-112943146D01*
X84238342Y-112885550D01*
X84328050Y-112795842D01*
X84376567Y-112700622D01*
X84419631Y-112663842D01*
X84476094Y-112668285D01*
X84508433Y-112700625D01*
X84556947Y-112795840D01*
X84556949Y-112795842D01*
X84646657Y-112885550D01*
X84759695Y-112943146D01*
X84884999Y-112962992D01*
X85010303Y-112943146D01*
X85123341Y-112885550D01*
X85213049Y-112795842D01*
X85270645Y-112682804D01*
X85290491Y-112557500D01*
X85270645Y-112432196D01*
X85213049Y-112319158D01*
X85123341Y-112229450D01*
X85010303Y-112171854D01*
X85010301Y-112171853D01*
X85010300Y-112171853D01*
X84884999Y-112152008D01*
X84759697Y-112171853D01*
X84646655Y-112229451D01*
X84556949Y-112319157D01*
X84508433Y-112414375D01*
X84465366Y-112451157D01*
X84408903Y-112446713D01*
X84376566Y-112414376D01*
X84328050Y-112319158D01*
X84238342Y-112229450D01*
X84125304Y-112171854D01*
X84125302Y-112171853D01*
X84125301Y-112171853D01*
X84000000Y-112152008D01*
X83874698Y-112171853D01*
X83761656Y-112229451D01*
X83671951Y-112319156D01*
X83614353Y-112432198D01*
X83594508Y-112557500D01*
X81500500Y-112557500D01*
X81500500Y-110907500D01*
X83594508Y-110907500D01*
X83614353Y-111032801D01*
X83614353Y-111032802D01*
X83614354Y-111032804D01*
X83671950Y-111145842D01*
X83761658Y-111235550D01*
X83874696Y-111293146D01*
X84000000Y-111312992D01*
X84125304Y-111293146D01*
X84238342Y-111235550D01*
X84328050Y-111145842D01*
X84376567Y-111050622D01*
X84419631Y-111013842D01*
X84476094Y-111018285D01*
X84508433Y-111050625D01*
X84556947Y-111145840D01*
X84556949Y-111145842D01*
X84646657Y-111235550D01*
X84759695Y-111293146D01*
X84884999Y-111312992D01*
X85010303Y-111293146D01*
X85123341Y-111235550D01*
X85213049Y-111145842D01*
X85270645Y-111032804D01*
X85290491Y-110907500D01*
X85270645Y-110782196D01*
X85213049Y-110669158D01*
X85123341Y-110579450D01*
X85010303Y-110521854D01*
X85010301Y-110521853D01*
X85010300Y-110521853D01*
X84884999Y-110502008D01*
X84759697Y-110521853D01*
X84646655Y-110579451D01*
X84556949Y-110669157D01*
X84508433Y-110764375D01*
X84465366Y-110801157D01*
X84408903Y-110796713D01*
X84376566Y-110764376D01*
X84328050Y-110669158D01*
X84238342Y-110579450D01*
X84125304Y-110521854D01*
X84125302Y-110521853D01*
X84125301Y-110521853D01*
X84000000Y-110502008D01*
X83874698Y-110521853D01*
X83761656Y-110579451D01*
X83671951Y-110669156D01*
X83614353Y-110782198D01*
X83594508Y-110907500D01*
X81500500Y-110907500D01*
X81500500Y-109707500D01*
X85009509Y-109707500D01*
X85029354Y-109832801D01*
X85029354Y-109832802D01*
X85029355Y-109832804D01*
X85086951Y-109945842D01*
X85176659Y-110035550D01*
X85289697Y-110093146D01*
X85415001Y-110112992D01*
X85540305Y-110093146D01*
X85653343Y-110035550D01*
X85743051Y-109945842D01*
X85800647Y-109832804D01*
X85820493Y-109707500D01*
X85800647Y-109582196D01*
X85743051Y-109469158D01*
X85653343Y-109379450D01*
X85540305Y-109321854D01*
X85540303Y-109321853D01*
X85540302Y-109321853D01*
X85415001Y-109302008D01*
X85289699Y-109321853D01*
X85176657Y-109379451D01*
X85086952Y-109469156D01*
X85029354Y-109582198D01*
X85009509Y-109707500D01*
X81500500Y-109707500D01*
X81500500Y-108207500D01*
X83609509Y-108207500D01*
X83629354Y-108332801D01*
X83629354Y-108332802D01*
X83629355Y-108332804D01*
X83686951Y-108445842D01*
X83776659Y-108535550D01*
X83889697Y-108593146D01*
X84015001Y-108612992D01*
X84140305Y-108593146D01*
X84253343Y-108535550D01*
X84343051Y-108445842D01*
X84354427Y-108423514D01*
X84397493Y-108386732D01*
X84453955Y-108391175D01*
X84490739Y-108434242D01*
X84493450Y-108445534D01*
X84499352Y-108482801D01*
X84499352Y-108482802D01*
X84499353Y-108482804D01*
X84556949Y-108595842D01*
X84646657Y-108685550D01*
X84759695Y-108743146D01*
X84884999Y-108762992D01*
X85010303Y-108743146D01*
X85123341Y-108685550D01*
X85213049Y-108595842D01*
X85270645Y-108482804D01*
X85290491Y-108357500D01*
X85270645Y-108232196D01*
X85213049Y-108119158D01*
X85123341Y-108029450D01*
X85010303Y-107971854D01*
X85010301Y-107971853D01*
X85010300Y-107971853D01*
X84884999Y-107952008D01*
X84759697Y-107971853D01*
X84646655Y-108029451D01*
X84556949Y-108119157D01*
X84545572Y-108141486D01*
X84502503Y-108178268D01*
X84446041Y-108173823D01*
X84409259Y-108130754D01*
X84406550Y-108119471D01*
X84400647Y-108082196D01*
X84343051Y-107969158D01*
X84253343Y-107879450D01*
X84140305Y-107821854D01*
X84140303Y-107821853D01*
X84140302Y-107821853D01*
X84015001Y-107802008D01*
X83889699Y-107821853D01*
X83776657Y-107879451D01*
X83686952Y-107969156D01*
X83629354Y-108082198D01*
X83609509Y-108207500D01*
X81500500Y-108207500D01*
X81500500Y-106907500D01*
X83609509Y-106907500D01*
X83629354Y-107032801D01*
X83629354Y-107032802D01*
X83629355Y-107032804D01*
X83686951Y-107145842D01*
X83776659Y-107235550D01*
X83889697Y-107293146D01*
X84015001Y-107312992D01*
X84140305Y-107293146D01*
X84253343Y-107235550D01*
X84343051Y-107145842D01*
X84384066Y-107065344D01*
X84427133Y-107028563D01*
X84483595Y-107033006D01*
X84515933Y-107065344D01*
X84556949Y-107145842D01*
X84646657Y-107235550D01*
X84759695Y-107293146D01*
X84884999Y-107312992D01*
X85010303Y-107293146D01*
X85123341Y-107235550D01*
X85213049Y-107145842D01*
X85258062Y-107057500D01*
X85909509Y-107057500D01*
X85929354Y-107182801D01*
X85929354Y-107182802D01*
X85929355Y-107182804D01*
X85986951Y-107295842D01*
X86076659Y-107385550D01*
X86189697Y-107443146D01*
X86315001Y-107462992D01*
X86440305Y-107443146D01*
X86553343Y-107385550D01*
X86643051Y-107295842D01*
X86700647Y-107182804D01*
X86720493Y-107057500D01*
X86700647Y-106932196D01*
X86643051Y-106819158D01*
X86553343Y-106729450D01*
X86440305Y-106671854D01*
X86440303Y-106671853D01*
X86440302Y-106671853D01*
X86315001Y-106652008D01*
X86189699Y-106671853D01*
X86076657Y-106729451D01*
X85986952Y-106819156D01*
X85929354Y-106932198D01*
X85909509Y-107057500D01*
X85258062Y-107057500D01*
X85270645Y-107032804D01*
X85290491Y-106907500D01*
X85270645Y-106782196D01*
X85213049Y-106669158D01*
X85123341Y-106579450D01*
X85010303Y-106521854D01*
X85010301Y-106521853D01*
X85010300Y-106521853D01*
X84884999Y-106502008D01*
X84759697Y-106521853D01*
X84646655Y-106579451D01*
X84556947Y-106669159D01*
X84515934Y-106749653D01*
X84472867Y-106786436D01*
X84416405Y-106781992D01*
X84384066Y-106749653D01*
X84343052Y-106669159D01*
X84253344Y-106579451D01*
X84253343Y-106579450D01*
X84140305Y-106521854D01*
X84140303Y-106521853D01*
X84140302Y-106521853D01*
X84015001Y-106502008D01*
X83889699Y-106521853D01*
X83776657Y-106579451D01*
X83686952Y-106669156D01*
X83629354Y-106782198D01*
X83609509Y-106907500D01*
X81500500Y-106907500D01*
X81500500Y-105507500D01*
X84529507Y-105507500D01*
X84549352Y-105632801D01*
X84549352Y-105632802D01*
X84549353Y-105632804D01*
X84606949Y-105745842D01*
X84696657Y-105835550D01*
X84809695Y-105893146D01*
X84934999Y-105912992D01*
X84969674Y-105907500D01*
X91094508Y-105907500D01*
X91114353Y-106032801D01*
X91114353Y-106032802D01*
X91114354Y-106032804D01*
X91171950Y-106145842D01*
X91261658Y-106235550D01*
X91374696Y-106293146D01*
X91500000Y-106312992D01*
X91625304Y-106293146D01*
X91738342Y-106235550D01*
X91828050Y-106145842D01*
X91885646Y-106032804D01*
X91905492Y-105907500D01*
X91885646Y-105782196D01*
X91828050Y-105669158D01*
X91738342Y-105579450D01*
X91625304Y-105521854D01*
X91625302Y-105521853D01*
X91625301Y-105521853D01*
X91500000Y-105502008D01*
X91374698Y-105521853D01*
X91261656Y-105579451D01*
X91171951Y-105669156D01*
X91114353Y-105782198D01*
X91094508Y-105907500D01*
X84969674Y-105907500D01*
X85060303Y-105893146D01*
X85173341Y-105835550D01*
X85263049Y-105745842D01*
X85320645Y-105632804D01*
X85340491Y-105507500D01*
X85320645Y-105382196D01*
X85263049Y-105269158D01*
X85173341Y-105179450D01*
X85060303Y-105121854D01*
X85060301Y-105121853D01*
X85060300Y-105121853D01*
X84934999Y-105102008D01*
X84809697Y-105121853D01*
X84696655Y-105179451D01*
X84606950Y-105269156D01*
X84549352Y-105382198D01*
X84529507Y-105507500D01*
X81500500Y-105507500D01*
X81500500Y-100407500D01*
X85094508Y-100407500D01*
X85114353Y-100532801D01*
X85114353Y-100532802D01*
X85114354Y-100532804D01*
X85129351Y-100562237D01*
X85171951Y-100645843D01*
X85231282Y-100705174D01*
X85252956Y-100757500D01*
X85231282Y-100809826D01*
X85171951Y-100869156D01*
X85114353Y-100982198D01*
X85094508Y-101107500D01*
X85114353Y-101232801D01*
X85114353Y-101232802D01*
X85114354Y-101232804D01*
X85171950Y-101345842D01*
X85261658Y-101435550D01*
X85374696Y-101493146D01*
X85500000Y-101512992D01*
X85625304Y-101493146D01*
X85738342Y-101435550D01*
X85747674Y-101426218D01*
X85800000Y-101404544D01*
X85852326Y-101426218D01*
X85861658Y-101435550D01*
X85974696Y-101493146D01*
X86100000Y-101512992D01*
X86225304Y-101493146D01*
X86338342Y-101435550D01*
X86428050Y-101345842D01*
X86485646Y-101232804D01*
X86505492Y-101107500D01*
X88294508Y-101107500D01*
X88314353Y-101232801D01*
X88314353Y-101232802D01*
X88314354Y-101232804D01*
X88371950Y-101345842D01*
X88461658Y-101435550D01*
X88574696Y-101493146D01*
X88700000Y-101512992D01*
X88825304Y-101493146D01*
X88938342Y-101435550D01*
X88947674Y-101426218D01*
X89000000Y-101404544D01*
X89052326Y-101426218D01*
X89061658Y-101435550D01*
X89174696Y-101493146D01*
X89300000Y-101512992D01*
X89425304Y-101493146D01*
X89538342Y-101435550D01*
X89572674Y-101401218D01*
X89625000Y-101379544D01*
X89677326Y-101401218D01*
X89711658Y-101435550D01*
X89824696Y-101493146D01*
X89950000Y-101512992D01*
X90075304Y-101493146D01*
X90188342Y-101435550D01*
X90197674Y-101426218D01*
X90250000Y-101404544D01*
X90302326Y-101426218D01*
X90311658Y-101435550D01*
X90424696Y-101493146D01*
X90550000Y-101512992D01*
X90675304Y-101493146D01*
X90788342Y-101435550D01*
X90822674Y-101401218D01*
X90875000Y-101379544D01*
X90927326Y-101401218D01*
X90961658Y-101435550D01*
X91074696Y-101493146D01*
X91200000Y-101512992D01*
X91325304Y-101493146D01*
X91438342Y-101435550D01*
X91447674Y-101426218D01*
X91500000Y-101404544D01*
X91552326Y-101426218D01*
X91561658Y-101435550D01*
X91674696Y-101493146D01*
X91800000Y-101512992D01*
X91925304Y-101493146D01*
X92038342Y-101435550D01*
X92128050Y-101345842D01*
X92185646Y-101232804D01*
X92205492Y-101107500D01*
X92185646Y-100982196D01*
X92128050Y-100869158D01*
X92038342Y-100779450D01*
X91995263Y-100757500D01*
X95194508Y-100757500D01*
X95214353Y-100882801D01*
X95214353Y-100882802D01*
X95214354Y-100882804D01*
X95271950Y-100995842D01*
X95361658Y-101085550D01*
X95474696Y-101143146D01*
X95600000Y-101162992D01*
X95725304Y-101143146D01*
X95838342Y-101085550D01*
X95847674Y-101076218D01*
X95900000Y-101054544D01*
X95952326Y-101076218D01*
X95961658Y-101085550D01*
X96074696Y-101143146D01*
X96200000Y-101162992D01*
X96325304Y-101143146D01*
X96438342Y-101085550D01*
X96497674Y-101026218D01*
X96550000Y-101004544D01*
X96602326Y-101026218D01*
X96661658Y-101085550D01*
X96774696Y-101143146D01*
X96900000Y-101162992D01*
X97025304Y-101143146D01*
X97138342Y-101085550D01*
X97147674Y-101076218D01*
X97200000Y-101054544D01*
X97252326Y-101076218D01*
X97261658Y-101085550D01*
X97374696Y-101143146D01*
X97500000Y-101162992D01*
X97625304Y-101143146D01*
X97738342Y-101085550D01*
X97828050Y-100995842D01*
X97885646Y-100882804D01*
X97905492Y-100757500D01*
X97885646Y-100632196D01*
X97828050Y-100519158D01*
X97738342Y-100429450D01*
X97625304Y-100371854D01*
X97625302Y-100371853D01*
X97625301Y-100371853D01*
X97500000Y-100352008D01*
X97374698Y-100371853D01*
X97261656Y-100429451D01*
X97252326Y-100438782D01*
X97200000Y-100460456D01*
X97147674Y-100438782D01*
X97138343Y-100429451D01*
X97138342Y-100429450D01*
X97025304Y-100371854D01*
X97025302Y-100371853D01*
X97025301Y-100371853D01*
X96900000Y-100352008D01*
X96774698Y-100371853D01*
X96661656Y-100429451D01*
X96602326Y-100488782D01*
X96550000Y-100510456D01*
X96497674Y-100488782D01*
X96438343Y-100429451D01*
X96438342Y-100429450D01*
X96325304Y-100371854D01*
X96325302Y-100371853D01*
X96325301Y-100371853D01*
X96200000Y-100352008D01*
X96074698Y-100371853D01*
X95961656Y-100429451D01*
X95952326Y-100438782D01*
X95900000Y-100460456D01*
X95847674Y-100438782D01*
X95838343Y-100429451D01*
X95838342Y-100429450D01*
X95725304Y-100371854D01*
X95725302Y-100371853D01*
X95725301Y-100371853D01*
X95600000Y-100352008D01*
X95474698Y-100371853D01*
X95361656Y-100429451D01*
X95271951Y-100519156D01*
X95214353Y-100632198D01*
X95194508Y-100757500D01*
X91995263Y-100757500D01*
X91925304Y-100721854D01*
X91925302Y-100721853D01*
X91925301Y-100721853D01*
X91800000Y-100702008D01*
X91674698Y-100721853D01*
X91561656Y-100779451D01*
X91552326Y-100788782D01*
X91500000Y-100810456D01*
X91447674Y-100788782D01*
X91438343Y-100779451D01*
X91438342Y-100779450D01*
X91325304Y-100721854D01*
X91325302Y-100721853D01*
X91325301Y-100721853D01*
X91200000Y-100702008D01*
X91074698Y-100721853D01*
X90961656Y-100779451D01*
X90927326Y-100813782D01*
X90875000Y-100835456D01*
X90822674Y-100813782D01*
X90788343Y-100779451D01*
X90788342Y-100779450D01*
X90675304Y-100721854D01*
X90675302Y-100721853D01*
X90675301Y-100721853D01*
X90550000Y-100702008D01*
X90424698Y-100721853D01*
X90311656Y-100779451D01*
X90302326Y-100788782D01*
X90250000Y-100810456D01*
X90197674Y-100788782D01*
X90188343Y-100779451D01*
X90188342Y-100779450D01*
X90075304Y-100721854D01*
X90075302Y-100721853D01*
X90075301Y-100721853D01*
X89950000Y-100702008D01*
X89824698Y-100721853D01*
X89711656Y-100779451D01*
X89677326Y-100813782D01*
X89625000Y-100835456D01*
X89572674Y-100813782D01*
X89538343Y-100779451D01*
X89538342Y-100779450D01*
X89425304Y-100721854D01*
X89425302Y-100721853D01*
X89425301Y-100721853D01*
X89300000Y-100702008D01*
X89174698Y-100721853D01*
X89061656Y-100779451D01*
X89052326Y-100788782D01*
X89000000Y-100810456D01*
X88947674Y-100788782D01*
X88938343Y-100779451D01*
X88938342Y-100779450D01*
X88825304Y-100721854D01*
X88825302Y-100721853D01*
X88825301Y-100721853D01*
X88700000Y-100702008D01*
X88574698Y-100721853D01*
X88461656Y-100779451D01*
X88371951Y-100869156D01*
X88314353Y-100982198D01*
X88294508Y-101107500D01*
X86505492Y-101107500D01*
X86485646Y-100982196D01*
X86428050Y-100869158D01*
X86368718Y-100809826D01*
X86347044Y-100757500D01*
X86368718Y-100705174D01*
X86371884Y-100702008D01*
X86428050Y-100645842D01*
X86485646Y-100532804D01*
X86505492Y-100407500D01*
X86485646Y-100282196D01*
X86428050Y-100169158D01*
X86338342Y-100079450D01*
X86225304Y-100021854D01*
X86225302Y-100021853D01*
X86225301Y-100021853D01*
X86100000Y-100002008D01*
X85974698Y-100021853D01*
X85861656Y-100079451D01*
X85852326Y-100088782D01*
X85800000Y-100110456D01*
X85747674Y-100088782D01*
X85738343Y-100079451D01*
X85738342Y-100079450D01*
X85625304Y-100021854D01*
X85625302Y-100021853D01*
X85625301Y-100021853D01*
X85500000Y-100002008D01*
X85374698Y-100021853D01*
X85261656Y-100079451D01*
X85171951Y-100169156D01*
X85114353Y-100282198D01*
X85094508Y-100407500D01*
X81500500Y-100407500D01*
X81500500Y-99607500D01*
X83494508Y-99607500D01*
X83514353Y-99732801D01*
X83514353Y-99732802D01*
X83514354Y-99732804D01*
X83571950Y-99845842D01*
X83661658Y-99935550D01*
X83774696Y-99993146D01*
X83900000Y-100012992D01*
X84025304Y-99993146D01*
X84138342Y-99935550D01*
X84228050Y-99845842D01*
X84285646Y-99732804D01*
X84305492Y-99607500D01*
X84285646Y-99482196D01*
X84228050Y-99369158D01*
X84138342Y-99279450D01*
X84025304Y-99221854D01*
X84025302Y-99221853D01*
X84025301Y-99221853D01*
X83900000Y-99202008D01*
X83774698Y-99221853D01*
X83661656Y-99279451D01*
X83571951Y-99369156D01*
X83514353Y-99482198D01*
X83494508Y-99607500D01*
X81500500Y-99607500D01*
X81500500Y-99022503D01*
X88544508Y-99022503D01*
X88564353Y-99147804D01*
X88564353Y-99147805D01*
X88564354Y-99147807D01*
X88621950Y-99260845D01*
X88711658Y-99350553D01*
X88824696Y-99408149D01*
X88950000Y-99427995D01*
X89075304Y-99408149D01*
X89188342Y-99350553D01*
X89278050Y-99260845D01*
X89335646Y-99147807D01*
X89355492Y-99022503D01*
X89335646Y-98897199D01*
X89278050Y-98784161D01*
X89188342Y-98694453D01*
X89075304Y-98636857D01*
X89075302Y-98636856D01*
X89075301Y-98636856D01*
X88950000Y-98617011D01*
X88824698Y-98636856D01*
X88711656Y-98694454D01*
X88621951Y-98784159D01*
X88564353Y-98897201D01*
X88544508Y-99022503D01*
X81500500Y-99022503D01*
X81500500Y-96507500D01*
X82694508Y-96507500D01*
X82714353Y-96632801D01*
X82714353Y-96632802D01*
X82714354Y-96632804D01*
X82771950Y-96745842D01*
X82861658Y-96835550D01*
X82873331Y-96841497D01*
X82873465Y-96841566D01*
X82910247Y-96884633D01*
X82905803Y-96941096D01*
X82873465Y-96973434D01*
X82861657Y-96979450D01*
X82771951Y-97069156D01*
X82714353Y-97182198D01*
X82694508Y-97307500D01*
X82714353Y-97432801D01*
X82714353Y-97432802D01*
X82714354Y-97432804D01*
X82771950Y-97545842D01*
X82861658Y-97635550D01*
X82873331Y-97641497D01*
X82873465Y-97641566D01*
X82910247Y-97684633D01*
X82905803Y-97741096D01*
X82873465Y-97773434D01*
X82861657Y-97779450D01*
X82771951Y-97869156D01*
X82714353Y-97982198D01*
X82694508Y-98107500D01*
X82714353Y-98232801D01*
X82714353Y-98232802D01*
X82714354Y-98232804D01*
X82771950Y-98345842D01*
X82861658Y-98435550D01*
X82974696Y-98493146D01*
X83100000Y-98512992D01*
X83225304Y-98493146D01*
X83338342Y-98435550D01*
X83428050Y-98345842D01*
X83485646Y-98232804D01*
X83505492Y-98107500D01*
X83485646Y-97982196D01*
X83428050Y-97869158D01*
X83366392Y-97807500D01*
X98494508Y-97807500D01*
X98514353Y-97932801D01*
X98514353Y-97932802D01*
X98514354Y-97932804D01*
X98571950Y-98045842D01*
X98661658Y-98135550D01*
X98774696Y-98193146D01*
X98900000Y-98212992D01*
X99025304Y-98193146D01*
X99138342Y-98135550D01*
X99228050Y-98045842D01*
X99285646Y-97932804D01*
X99305492Y-97807500D01*
X99285646Y-97682196D01*
X99228050Y-97569158D01*
X99138342Y-97479450D01*
X99025304Y-97421854D01*
X99025302Y-97421853D01*
X99025301Y-97421853D01*
X98900000Y-97402008D01*
X98774698Y-97421853D01*
X98661656Y-97479451D01*
X98571951Y-97569156D01*
X98514353Y-97682198D01*
X98494508Y-97807500D01*
X83366392Y-97807500D01*
X83338342Y-97779450D01*
X83326535Y-97773434D01*
X83289752Y-97730369D01*
X83294195Y-97673906D01*
X83326535Y-97641565D01*
X83338342Y-97635550D01*
X83428050Y-97545842D01*
X83485646Y-97432804D01*
X83505492Y-97307500D01*
X83485646Y-97182196D01*
X83428050Y-97069158D01*
X83338342Y-96979450D01*
X83326535Y-96973434D01*
X83289752Y-96930369D01*
X83294195Y-96873906D01*
X83326535Y-96841565D01*
X83338342Y-96835550D01*
X83428050Y-96745842D01*
X83485646Y-96632804D01*
X83505492Y-96507500D01*
X83485646Y-96382196D01*
X83428050Y-96269158D01*
X83338342Y-96179450D01*
X83225304Y-96121854D01*
X83225302Y-96121853D01*
X83225301Y-96121853D01*
X83100000Y-96102008D01*
X82974698Y-96121853D01*
X82861656Y-96179451D01*
X82771951Y-96269156D01*
X82714353Y-96382198D01*
X82694508Y-96507500D01*
X81500500Y-96507500D01*
X81500500Y-96057500D01*
X92894508Y-96057500D01*
X92914353Y-96182801D01*
X92914353Y-96182802D01*
X92914354Y-96182804D01*
X92971950Y-96295842D01*
X93061658Y-96385550D01*
X93174696Y-96443146D01*
X93300000Y-96462992D01*
X93425304Y-96443146D01*
X93538342Y-96385550D01*
X93628050Y-96295842D01*
X93685646Y-96182804D01*
X93705492Y-96057500D01*
X93702270Y-96037158D01*
X93715491Y-95982088D01*
X93763782Y-95952494D01*
X93808952Y-95959647D01*
X93874696Y-95993146D01*
X94000000Y-96012992D01*
X94125304Y-95993146D01*
X94238342Y-95935550D01*
X94328050Y-95845842D01*
X94385646Y-95732804D01*
X94405492Y-95607500D01*
X94385646Y-95482196D01*
X94328050Y-95369158D01*
X94238342Y-95279450D01*
X94125304Y-95221854D01*
X94125302Y-95221853D01*
X94125301Y-95221853D01*
X94000000Y-95202008D01*
X93874698Y-95221853D01*
X93761656Y-95279451D01*
X93671951Y-95369156D01*
X93614353Y-95482198D01*
X93594508Y-95607500D01*
X93594508Y-95607501D01*
X93597729Y-95627841D01*
X93584506Y-95682913D01*
X93536215Y-95712505D01*
X93491045Y-95705351D01*
X93447008Y-95682913D01*
X93425304Y-95671854D01*
X93425302Y-95671853D01*
X93425301Y-95671853D01*
X93300000Y-95652008D01*
X93174698Y-95671853D01*
X93061656Y-95729451D01*
X92971951Y-95819156D01*
X92914353Y-95932198D01*
X92894508Y-96057500D01*
X81500500Y-96057500D01*
X81500500Y-94107500D01*
X85394508Y-94107500D01*
X85414353Y-94232801D01*
X85414353Y-94232802D01*
X85414354Y-94232804D01*
X85471950Y-94345842D01*
X85561658Y-94435550D01*
X85674696Y-94493146D01*
X85800000Y-94512992D01*
X85925304Y-94493146D01*
X86038342Y-94435550D01*
X86128050Y-94345842D01*
X86185646Y-94232804D01*
X86205492Y-94107500D01*
X86185646Y-93982196D01*
X86128050Y-93869158D01*
X86038342Y-93779450D01*
X85925304Y-93721854D01*
X85925302Y-93721853D01*
X85925301Y-93721853D01*
X85800000Y-93702008D01*
X85674698Y-93721853D01*
X85561656Y-93779451D01*
X85471951Y-93869156D01*
X85414353Y-93982198D01*
X85394508Y-94107500D01*
X81500500Y-94107500D01*
X81500500Y-93507546D01*
X89879484Y-93507546D01*
X89899329Y-93632847D01*
X89899329Y-93632848D01*
X89899330Y-93632850D01*
X89956926Y-93745888D01*
X90046634Y-93835596D01*
X90159672Y-93893192D01*
X90284976Y-93913038D01*
X90410280Y-93893192D01*
X90523318Y-93835596D01*
X90613026Y-93745888D01*
X90670622Y-93632850D01*
X90690468Y-93507546D01*
X90690461Y-93507500D01*
X91244508Y-93507500D01*
X91264353Y-93632801D01*
X91264353Y-93632802D01*
X91264354Y-93632804D01*
X91321950Y-93745842D01*
X91411658Y-93835550D01*
X91524696Y-93893146D01*
X91650000Y-93912992D01*
X91775304Y-93893146D01*
X91888342Y-93835550D01*
X91978050Y-93745842D01*
X91997520Y-93707628D01*
X92040586Y-93670847D01*
X92097049Y-93675290D01*
X92117120Y-93692435D01*
X92117832Y-93691724D01*
X92121950Y-93695842D01*
X92211658Y-93785550D01*
X92324696Y-93843146D01*
X92450000Y-93862992D01*
X92455824Y-93862992D01*
X92455824Y-93864394D01*
X92505062Y-93876213D01*
X92534656Y-93924503D01*
X92527503Y-93969676D01*
X92499571Y-94024495D01*
X92479726Y-94149799D01*
X92499571Y-94275100D01*
X92499571Y-94275101D01*
X92499572Y-94275103D01*
X92535616Y-94345843D01*
X92557169Y-94388142D01*
X92644954Y-94475927D01*
X92666628Y-94528253D01*
X92644954Y-94580579D01*
X92604205Y-94601342D01*
X92474704Y-94621853D01*
X92361662Y-94679451D01*
X92271957Y-94769156D01*
X92214359Y-94882198D01*
X92194514Y-95007500D01*
X92214359Y-95132801D01*
X92214359Y-95132802D01*
X92214360Y-95132804D01*
X92271956Y-95245842D01*
X92361664Y-95335550D01*
X92474702Y-95393146D01*
X92600006Y-95412992D01*
X92725310Y-95393146D01*
X92838348Y-95335550D01*
X92928056Y-95245842D01*
X92985652Y-95132804D01*
X93005498Y-95007500D01*
X92985652Y-94882196D01*
X92928056Y-94769158D01*
X92840269Y-94681371D01*
X92818595Y-94629045D01*
X92840269Y-94576719D01*
X92881019Y-94555956D01*
X92885218Y-94555291D01*
X93010522Y-94535445D01*
X93123560Y-94477849D01*
X93213268Y-94388141D01*
X93270864Y-94275103D01*
X93290710Y-94149799D01*
X93270864Y-94024495D01*
X93213268Y-93911457D01*
X93123560Y-93821749D01*
X93010522Y-93764153D01*
X93010520Y-93764152D01*
X93010519Y-93764152D01*
X92885218Y-93744307D01*
X92879394Y-93744307D01*
X92879394Y-93742908D01*
X92830144Y-93731076D01*
X92800558Y-93682781D01*
X92804564Y-93657500D01*
X98494508Y-93657500D01*
X98514353Y-93782801D01*
X98514353Y-93782802D01*
X98514354Y-93782804D01*
X98571950Y-93895842D01*
X98661658Y-93985550D01*
X98774696Y-94043146D01*
X98900000Y-94062992D01*
X99025304Y-94043146D01*
X99138342Y-93985550D01*
X99228050Y-93895842D01*
X99285646Y-93782804D01*
X99305492Y-93657500D01*
X99285646Y-93532196D01*
X99228050Y-93419158D01*
X99138342Y-93329450D01*
X99025304Y-93271854D01*
X99025302Y-93271853D01*
X99025301Y-93271853D01*
X98900000Y-93252008D01*
X98774698Y-93271853D01*
X98661656Y-93329451D01*
X98571951Y-93419156D01*
X98514353Y-93532198D01*
X98494508Y-93657500D01*
X92804564Y-93657500D01*
X92807714Y-93637622D01*
X92835646Y-93582804D01*
X92855492Y-93457500D01*
X92835646Y-93332196D01*
X92778050Y-93219158D01*
X92688342Y-93129450D01*
X92575304Y-93071854D01*
X92575302Y-93071853D01*
X92575301Y-93071853D01*
X92450000Y-93052008D01*
X92324698Y-93071853D01*
X92211656Y-93129451D01*
X92121950Y-93219157D01*
X92102479Y-93257371D01*
X92059411Y-93294153D01*
X92002948Y-93289708D01*
X91982879Y-93272564D01*
X91982168Y-93273276D01*
X91888343Y-93179451D01*
X91888342Y-93179450D01*
X91775304Y-93121854D01*
X91775302Y-93121853D01*
X91775301Y-93121853D01*
X91650000Y-93102008D01*
X91524698Y-93121853D01*
X91411656Y-93179451D01*
X91321951Y-93269156D01*
X91264353Y-93382198D01*
X91244508Y-93507500D01*
X90690461Y-93507500D01*
X90670622Y-93382242D01*
X90613026Y-93269204D01*
X90523318Y-93179496D01*
X90410280Y-93121900D01*
X90410278Y-93121899D01*
X90410277Y-93121899D01*
X90284976Y-93102054D01*
X90159674Y-93121899D01*
X90046632Y-93179497D01*
X89956927Y-93269202D01*
X89899329Y-93382244D01*
X89879484Y-93507546D01*
X81500500Y-93507546D01*
X81500500Y-91307500D01*
X87994508Y-91307500D01*
X88014353Y-91432801D01*
X88014353Y-91432802D01*
X88014354Y-91432804D01*
X88071950Y-91545842D01*
X88161658Y-91635550D01*
X88173331Y-91641497D01*
X88173465Y-91641566D01*
X88210247Y-91684633D01*
X88205803Y-91741096D01*
X88173465Y-91773434D01*
X88161657Y-91779450D01*
X88071951Y-91869156D01*
X88014353Y-91982198D01*
X87994508Y-92107500D01*
X88014353Y-92232801D01*
X88014353Y-92232802D01*
X88014354Y-92232804D01*
X88071950Y-92345842D01*
X88161658Y-92435550D01*
X88274696Y-92493146D01*
X88400000Y-92512992D01*
X88525304Y-92493146D01*
X88638342Y-92435550D01*
X88728050Y-92345842D01*
X88785646Y-92232804D01*
X88805492Y-92107500D01*
X88785646Y-91982196D01*
X88728050Y-91869158D01*
X88638342Y-91779450D01*
X88626535Y-91773434D01*
X88589752Y-91730369D01*
X88594195Y-91673906D01*
X88626535Y-91641565D01*
X88638342Y-91635550D01*
X88728050Y-91545842D01*
X88785646Y-91432804D01*
X88805492Y-91307500D01*
X88785646Y-91182196D01*
X88728050Y-91069158D01*
X88638342Y-90979450D01*
X88525304Y-90921854D01*
X88525302Y-90921853D01*
X88525301Y-90921853D01*
X88400000Y-90902008D01*
X88274698Y-90921853D01*
X88161656Y-90979451D01*
X88071951Y-91069156D01*
X88014353Y-91182198D01*
X87994508Y-91307500D01*
X81500500Y-91307500D01*
X81500500Y-90257500D01*
X93994508Y-90257500D01*
X94014353Y-90382801D01*
X94014353Y-90382802D01*
X94014354Y-90382804D01*
X94071950Y-90495842D01*
X94161658Y-90585550D01*
X94274696Y-90643146D01*
X94400000Y-90662992D01*
X94525304Y-90643146D01*
X94638342Y-90585550D01*
X94716392Y-90507500D01*
X100894508Y-90507500D01*
X100914353Y-90632801D01*
X100914353Y-90632802D01*
X100914354Y-90632804D01*
X100971950Y-90745842D01*
X101061658Y-90835550D01*
X101174696Y-90893146D01*
X101300000Y-90912992D01*
X101425304Y-90893146D01*
X101538342Y-90835550D01*
X101628050Y-90745842D01*
X101685646Y-90632804D01*
X101705492Y-90507500D01*
X101685646Y-90382196D01*
X101628050Y-90269158D01*
X101538342Y-90179450D01*
X101425304Y-90121854D01*
X101425302Y-90121853D01*
X101425301Y-90121853D01*
X101300000Y-90102008D01*
X101174698Y-90121853D01*
X101061656Y-90179451D01*
X100971951Y-90269156D01*
X100914353Y-90382198D01*
X100894508Y-90507500D01*
X94716392Y-90507500D01*
X94728050Y-90495842D01*
X94785646Y-90382804D01*
X94805492Y-90257500D01*
X94785646Y-90132196D01*
X94728050Y-90019158D01*
X94638342Y-89929450D01*
X94525304Y-89871854D01*
X94525302Y-89871853D01*
X94525301Y-89871853D01*
X94400000Y-89852008D01*
X94274698Y-89871853D01*
X94161656Y-89929451D01*
X94071951Y-90019156D01*
X94014353Y-90132198D01*
X93994508Y-90257500D01*
X81500500Y-90257500D01*
X81500500Y-89357500D01*
X93544508Y-89357500D01*
X93564353Y-89482801D01*
X93564353Y-89482802D01*
X93564354Y-89482804D01*
X93621950Y-89595842D01*
X93711658Y-89685550D01*
X93824696Y-89743146D01*
X93950000Y-89762992D01*
X94075304Y-89743146D01*
X94188342Y-89685550D01*
X94278050Y-89595842D01*
X94335646Y-89482804D01*
X94355492Y-89357500D01*
X94335646Y-89232196D01*
X94278050Y-89119158D01*
X94188342Y-89029450D01*
X94075304Y-88971854D01*
X94075302Y-88971853D01*
X94075301Y-88971853D01*
X93950000Y-88952008D01*
X93824698Y-88971853D01*
X93711656Y-89029451D01*
X93621951Y-89119156D01*
X93564353Y-89232198D01*
X93544508Y-89357500D01*
X81500500Y-89357500D01*
X81500500Y-88757500D01*
X95294508Y-88757500D01*
X95314353Y-88882801D01*
X95314353Y-88882802D01*
X95314354Y-88882804D01*
X95371950Y-88995842D01*
X95461658Y-89085550D01*
X95574696Y-89143146D01*
X95700000Y-89162992D01*
X95825304Y-89143146D01*
X95938342Y-89085550D01*
X96028050Y-88995842D01*
X96085646Y-88882804D01*
X96105492Y-88757500D01*
X96085646Y-88632196D01*
X96028050Y-88519158D01*
X95938342Y-88429450D01*
X95825304Y-88371854D01*
X95825302Y-88371853D01*
X95825301Y-88371853D01*
X95700000Y-88352008D01*
X95574698Y-88371853D01*
X95461656Y-88429451D01*
X95371951Y-88519156D01*
X95314353Y-88632198D01*
X95294508Y-88757500D01*
X81500500Y-88757500D01*
X81500500Y-86574500D01*
X81522174Y-86522174D01*
X81574500Y-86500500D01*
X89490052Y-86500500D01*
X89542378Y-86522174D01*
G37*
%TD.AperFunction*%
%TA.AperFunction,Conductor*%
G36*
X84065077Y-162062252D02*
G01*
X84087092Y-162069405D01*
X84135360Y-162093999D01*
X84154087Y-162107605D01*
X84192391Y-162145909D01*
X84206000Y-162164640D01*
X84230591Y-162212903D01*
X84237745Y-162234921D01*
X84246219Y-162288422D01*
X84246219Y-162311576D01*
X84237745Y-162365077D01*
X84230591Y-162387095D01*
X84206000Y-162435358D01*
X84192392Y-162454087D01*
X84158769Y-162487711D01*
X84158762Y-162487719D01*
X84125054Y-162538167D01*
X84103385Y-162590481D01*
X84103380Y-162590496D01*
X84092874Y-162629700D01*
X84092874Y-162629703D01*
X84103380Y-162709505D01*
X84103381Y-162709509D01*
X84125054Y-162761832D01*
X84158762Y-162812280D01*
X84192391Y-162845909D01*
X84206000Y-162864640D01*
X84230591Y-162912903D01*
X84237745Y-162934921D01*
X84246219Y-162988422D01*
X84246219Y-163011576D01*
X84237745Y-163065077D01*
X84230591Y-163087095D01*
X84206000Y-163135358D01*
X84192391Y-163154089D01*
X84154089Y-163192391D01*
X84135358Y-163206000D01*
X84087095Y-163230591D01*
X84065077Y-163237745D01*
X84011576Y-163246219D01*
X83988422Y-163246219D01*
X83934921Y-163237745D01*
X83912903Y-163230591D01*
X83864640Y-163206000D01*
X83845909Y-163192391D01*
X83807605Y-163154087D01*
X83793999Y-163135360D01*
X83769405Y-163087092D01*
X83762252Y-163065075D01*
X83756388Y-163028050D01*
X83753779Y-163011572D01*
X83753779Y-162988424D01*
X83762252Y-162934921D01*
X83769404Y-162912909D01*
X83794001Y-162864634D01*
X83807607Y-162845909D01*
X83841236Y-162812282D01*
X83874945Y-162761833D01*
X83896619Y-162709507D01*
X83907126Y-162670297D01*
X83896619Y-162590493D01*
X83874945Y-162538167D01*
X83841237Y-162487719D01*
X83807605Y-162454087D01*
X83793999Y-162435360D01*
X83769405Y-162387092D01*
X83762252Y-162365075D01*
X83753779Y-162311574D01*
X83753779Y-162288424D01*
X83762252Y-162234921D01*
X83769407Y-162212903D01*
X83779454Y-162193186D01*
X83794000Y-162164636D01*
X83807607Y-162145909D01*
X83845910Y-162107605D01*
X83864637Y-162094000D01*
X83891664Y-162080229D01*
X83912905Y-162069406D01*
X83934921Y-162062252D01*
X83988425Y-162053779D01*
X84011573Y-162053779D01*
X84065077Y-162062252D01*
G37*
%TD.AperFunction*%
%TA.AperFunction,Conductor*%
G36*
X83565077Y-159362252D02*
G01*
X83587092Y-159369405D01*
X83635360Y-159393999D01*
X83654087Y-159407605D01*
X83692391Y-159445909D01*
X83706000Y-159464640D01*
X83730591Y-159512903D01*
X83737745Y-159534921D01*
X83746219Y-159588422D01*
X83746219Y-159611576D01*
X83737745Y-159665077D01*
X83730591Y-159687095D01*
X83706000Y-159735358D01*
X83692391Y-159754089D01*
X83654089Y-159792391D01*
X83635358Y-159806000D01*
X83587095Y-159830591D01*
X83565077Y-159837745D01*
X83511576Y-159846219D01*
X83488422Y-159846219D01*
X83434921Y-159837745D01*
X83412903Y-159830591D01*
X83364640Y-159806000D01*
X83345909Y-159792391D01*
X83307605Y-159754087D01*
X83293999Y-159735360D01*
X83269405Y-159687092D01*
X83262252Y-159665075D01*
X83253779Y-159611574D01*
X83253779Y-159588424D01*
X83262252Y-159534921D01*
X83269407Y-159512903D01*
X83293999Y-159464640D01*
X83294000Y-159464636D01*
X83307607Y-159445909D01*
X83345910Y-159407605D01*
X83364637Y-159394000D01*
X83364645Y-159393996D01*
X83412905Y-159369406D01*
X83434921Y-159362252D01*
X83488425Y-159353779D01*
X83511573Y-159353779D01*
X83565077Y-159362252D01*
G37*
%TD.AperFunction*%
%TA.AperFunction,Conductor*%
G36*
X90865077Y-157769752D02*
G01*
X90887092Y-157776905D01*
X90935360Y-157801499D01*
X90954087Y-157815105D01*
X90992391Y-157853409D01*
X91005999Y-157872139D01*
X91020194Y-157899998D01*
X91030590Y-157920401D01*
X91037745Y-157942421D01*
X91046219Y-157995923D01*
X91046219Y-158019076D01*
X91037745Y-158072577D01*
X91030591Y-158094595D01*
X91006000Y-158142858D01*
X90992391Y-158161589D01*
X90954089Y-158199891D01*
X90935358Y-158213500D01*
X90887095Y-158238091D01*
X90865077Y-158245245D01*
X90811576Y-158253719D01*
X90788422Y-158253719D01*
X90734921Y-158245245D01*
X90712903Y-158238091D01*
X90664640Y-158213500D01*
X90645909Y-158199891D01*
X90607605Y-158161587D01*
X90593999Y-158142860D01*
X90569405Y-158094592D01*
X90562252Y-158072575D01*
X90558368Y-158048053D01*
X90553779Y-158019072D01*
X90553779Y-157995924D01*
X90554339Y-157992391D01*
X90562252Y-157942421D01*
X90569407Y-157920403D01*
X90579804Y-157899999D01*
X90594000Y-157872136D01*
X90607607Y-157853409D01*
X90645910Y-157815105D01*
X90664637Y-157801500D01*
X90690304Y-157788422D01*
X90712905Y-157776906D01*
X90734921Y-157769752D01*
X90788425Y-157761279D01*
X90811573Y-157761279D01*
X90865077Y-157769752D01*
G37*
%TD.AperFunction*%
%TA.AperFunction,Conductor*%
G36*
X87600076Y-157662252D02*
G01*
X87622091Y-157669405D01*
X87670359Y-157693999D01*
X87689086Y-157707605D01*
X87727390Y-157745909D01*
X87740999Y-157764640D01*
X87765590Y-157812903D01*
X87772744Y-157834921D01*
X87781218Y-157888422D01*
X87781218Y-157911576D01*
X87772744Y-157965077D01*
X87765592Y-157987091D01*
X87755198Y-158007494D01*
X87755195Y-158007499D01*
X87741000Y-158035357D01*
X87727392Y-158054087D01*
X87689088Y-158092391D01*
X87670357Y-158106000D01*
X87622094Y-158130591D01*
X87600076Y-158137745D01*
X87546575Y-158146219D01*
X87523421Y-158146219D01*
X87469920Y-158137745D01*
X87447902Y-158130591D01*
X87399639Y-158106000D01*
X87380908Y-158092391D01*
X87342604Y-158054087D01*
X87328996Y-158035357D01*
X87304404Y-157987092D01*
X87297251Y-157965075D01*
X87293663Y-157942421D01*
X87288778Y-157911572D01*
X87288778Y-157888424D01*
X87297251Y-157834921D01*
X87304406Y-157812903D01*
X87305083Y-157811576D01*
X87328999Y-157764636D01*
X87342606Y-157745909D01*
X87380909Y-157707605D01*
X87399636Y-157694000D01*
X87399644Y-157693996D01*
X87447904Y-157669406D01*
X87469920Y-157662252D01*
X87523424Y-157653779D01*
X87546572Y-157653779D01*
X87600076Y-157662252D01*
G37*
%TD.AperFunction*%
%TA.AperFunction,Conductor*%
G36*
X83465077Y-157562252D02*
G01*
X83487092Y-157569405D01*
X83535360Y-157593999D01*
X83554087Y-157607605D01*
X83592391Y-157645909D01*
X83606000Y-157664640D01*
X83630591Y-157712903D01*
X83637745Y-157734921D01*
X83646219Y-157788422D01*
X83646219Y-157811576D01*
X83637745Y-157865077D01*
X83630591Y-157887095D01*
X83606000Y-157935358D01*
X83592391Y-157954089D01*
X83554089Y-157992391D01*
X83535358Y-158006000D01*
X83487095Y-158030591D01*
X83465077Y-158037745D01*
X83411576Y-158046219D01*
X83388422Y-158046219D01*
X83334921Y-158037745D01*
X83312903Y-158030591D01*
X83264640Y-158006000D01*
X83245909Y-157992391D01*
X83207605Y-157954087D01*
X83193999Y-157935360D01*
X83169405Y-157887092D01*
X83162252Y-157865075D01*
X83161717Y-157861698D01*
X83153779Y-157811572D01*
X83153779Y-157788424D01*
X83162252Y-157734921D01*
X83169407Y-157712903D01*
X83172107Y-157707605D01*
X83194000Y-157664636D01*
X83207607Y-157645909D01*
X83245910Y-157607605D01*
X83264637Y-157594000D01*
X83264645Y-157593996D01*
X83312905Y-157569406D01*
X83334921Y-157562252D01*
X83388425Y-157553779D01*
X83411573Y-157553779D01*
X83465077Y-157562252D01*
G37*
%TD.AperFunction*%
%TA.AperFunction,Conductor*%
G36*
X98765077Y-150469752D02*
G01*
X98787092Y-150476905D01*
X98835360Y-150501499D01*
X98854087Y-150515105D01*
X98892391Y-150553409D01*
X98906000Y-150572140D01*
X98930591Y-150620403D01*
X98937745Y-150642421D01*
X98946219Y-150695922D01*
X98946219Y-150719076D01*
X98937745Y-150772577D01*
X98930591Y-150794595D01*
X98906000Y-150842858D01*
X98892391Y-150861589D01*
X98854089Y-150899891D01*
X98835358Y-150913500D01*
X98787095Y-150938091D01*
X98765077Y-150945245D01*
X98711576Y-150953719D01*
X98688422Y-150953719D01*
X98634921Y-150945245D01*
X98612903Y-150938091D01*
X98564640Y-150913500D01*
X98545909Y-150899891D01*
X98507605Y-150861587D01*
X98493999Y-150842860D01*
X98469405Y-150794592D01*
X98462252Y-150772575D01*
X98458018Y-150745843D01*
X98453779Y-150719072D01*
X98453779Y-150695924D01*
X98462252Y-150642421D01*
X98469407Y-150620403D01*
X98473002Y-150613349D01*
X98494000Y-150572136D01*
X98507607Y-150553409D01*
X98545910Y-150515105D01*
X98564637Y-150501500D01*
X98564645Y-150501496D01*
X98612905Y-150476906D01*
X98634921Y-150469752D01*
X98688425Y-150461279D01*
X98711573Y-150461279D01*
X98765077Y-150469752D01*
G37*
%TD.AperFunction*%
%TA.AperFunction,Conductor*%
G36*
X98498097Y-147826693D02*
G01*
X98521501Y-147846681D01*
X98524267Y-147850286D01*
X98592391Y-147918410D01*
X98606000Y-147937141D01*
X98630591Y-147985404D01*
X98637745Y-148007422D01*
X98646219Y-148060923D01*
X98646219Y-148084077D01*
X98637745Y-148137578D01*
X98630591Y-148159596D01*
X98606000Y-148207859D01*
X98592391Y-148226590D01*
X98554088Y-148264893D01*
X98535358Y-148278501D01*
X98487248Y-148303014D01*
X98487246Y-148303016D01*
X98447883Y-148331614D01*
X98446607Y-148332705D01*
X98446202Y-148332836D01*
X98445534Y-148333322D01*
X98445376Y-148333104D01*
X98392740Y-148350200D01*
X98352743Y-148334543D01*
X98312752Y-148303017D01*
X98312747Y-148303014D01*
X98264642Y-148278503D01*
X98245912Y-148264895D01*
X98207606Y-148226589D01*
X98193998Y-148207859D01*
X98169407Y-148159597D01*
X98162252Y-148137576D01*
X98160971Y-148129489D01*
X98153779Y-148084073D01*
X98153779Y-148060925D01*
X98162252Y-148007422D01*
X98169407Y-147985404D01*
X98183250Y-147958237D01*
X98194000Y-147937137D01*
X98207607Y-147918410D01*
X98245910Y-147880106D01*
X98264635Y-147866501D01*
X98312907Y-147841906D01*
X98334921Y-147834753D01*
X98400703Y-147824334D01*
X98412279Y-147823424D01*
X98428922Y-147823424D01*
X98428948Y-147823424D01*
X98433016Y-147823371D01*
X98441771Y-147820777D01*
X98498097Y-147826693D01*
G37*
%TD.AperFunction*%
%TA.AperFunction,Conductor*%
G36*
X96765077Y-145569752D02*
G01*
X96787092Y-145576905D01*
X96835360Y-145601499D01*
X96854087Y-145615105D01*
X96892391Y-145653409D01*
X96906000Y-145672140D01*
X96930591Y-145720403D01*
X96937745Y-145742421D01*
X96946219Y-145795922D01*
X96946219Y-145819076D01*
X96937745Y-145872577D01*
X96930591Y-145894595D01*
X96906000Y-145942858D01*
X96892391Y-145961589D01*
X96854089Y-145999891D01*
X96835358Y-146013500D01*
X96787095Y-146038091D01*
X96765077Y-146045245D01*
X96711576Y-146053719D01*
X96688422Y-146053719D01*
X96634921Y-146045245D01*
X96612903Y-146038091D01*
X96564640Y-146013500D01*
X96545909Y-145999891D01*
X96507605Y-145961587D01*
X96493999Y-145942860D01*
X96469405Y-145894592D01*
X96462252Y-145872575D01*
X96459556Y-145855553D01*
X96453779Y-145819072D01*
X96453779Y-145795924D01*
X96462252Y-145742421D01*
X96469407Y-145720403D01*
X96478779Y-145702011D01*
X96494000Y-145672136D01*
X96507607Y-145653409D01*
X96545910Y-145615105D01*
X96564637Y-145601500D01*
X96567581Y-145600000D01*
X96612905Y-145576906D01*
X96634921Y-145569752D01*
X96688425Y-145561279D01*
X96711573Y-145561279D01*
X96765077Y-145569752D01*
G37*
%TD.AperFunction*%
%TD*%
%TA.AperFunction,Conductor*%
%TO.N,+3V3*%
G36*
X84978326Y-157021674D02*
G01*
X85000000Y-157074000D01*
X85000000Y-158566999D01*
X84999089Y-158578575D01*
X84994508Y-158607499D01*
X84999089Y-158636423D01*
X85000000Y-158647999D01*
X85000000Y-159110456D01*
X84978326Y-159162782D01*
X84971951Y-159169156D01*
X84914353Y-159282198D01*
X84894508Y-159407500D01*
X84914353Y-159532801D01*
X84914353Y-159532802D01*
X84914354Y-159532804D01*
X84971950Y-159645842D01*
X84971951Y-159645843D01*
X84978326Y-159652218D01*
X85000000Y-159704544D01*
X85000000Y-159810457D01*
X84978326Y-159862783D01*
X84971951Y-159869157D01*
X84914353Y-159982199D01*
X84894508Y-160107501D01*
X84914353Y-160232802D01*
X84914353Y-160232803D01*
X84914354Y-160232805D01*
X84971950Y-160345843D01*
X84971951Y-160345844D01*
X84978326Y-160352219D01*
X85000000Y-160404545D01*
X85000000Y-160610456D01*
X84978326Y-160662782D01*
X84971951Y-160669156D01*
X84914353Y-160782198D01*
X84894508Y-160907500D01*
X84914353Y-161032801D01*
X84914353Y-161032802D01*
X84914354Y-161032804D01*
X84971950Y-161145842D01*
X84971951Y-161145843D01*
X84978326Y-161152218D01*
X85000000Y-161204544D01*
X85000000Y-161502956D01*
X84978326Y-161555282D01*
X84971951Y-161561656D01*
X84914353Y-161674698D01*
X84894508Y-161800000D01*
X84914353Y-161925301D01*
X84914353Y-161925302D01*
X84914354Y-161925304D01*
X84971950Y-162038342D01*
X84971951Y-162038343D01*
X84978326Y-162044718D01*
X85000000Y-162097044D01*
X85000000Y-162401629D01*
X84988916Y-162440585D01*
X84885655Y-162607358D01*
X84885650Y-162607368D01*
X84811977Y-162797540D01*
X84774500Y-162998020D01*
X84774500Y-165425500D01*
X84752826Y-165477826D01*
X84700500Y-165499500D01*
X82649500Y-165499500D01*
X82597174Y-165477826D01*
X82575500Y-165425500D01*
X82575500Y-162412472D01*
X82575499Y-162412464D01*
X82555669Y-162300000D01*
X83594508Y-162300000D01*
X83614353Y-162425301D01*
X83614353Y-162425302D01*
X83614354Y-162425304D01*
X83671950Y-162538342D01*
X83671951Y-162538343D01*
X83731282Y-162597674D01*
X83752956Y-162650000D01*
X83731282Y-162702326D01*
X83671951Y-162761656D01*
X83614353Y-162874698D01*
X83594508Y-163000000D01*
X83614353Y-163125301D01*
X83614353Y-163125302D01*
X83614354Y-163125304D01*
X83671950Y-163238342D01*
X83761658Y-163328050D01*
X83874696Y-163385646D01*
X84000000Y-163405492D01*
X84125304Y-163385646D01*
X84238342Y-163328050D01*
X84328050Y-163238342D01*
X84385646Y-163125304D01*
X84405492Y-163000000D01*
X84385646Y-162874696D01*
X84328050Y-162761658D01*
X84268718Y-162702326D01*
X84247044Y-162650000D01*
X84268718Y-162597674D01*
X84328050Y-162538342D01*
X84385646Y-162425304D01*
X84405492Y-162300000D01*
X84385646Y-162174696D01*
X84328050Y-162061658D01*
X84238342Y-161971950D01*
X84125304Y-161914354D01*
X84125302Y-161914353D01*
X84125301Y-161914353D01*
X84000000Y-161894508D01*
X83874698Y-161914353D01*
X83761656Y-161971951D01*
X83671951Y-162061656D01*
X83614353Y-162174698D01*
X83594508Y-162300000D01*
X82555669Y-162300000D01*
X82552713Y-162283236D01*
X82545101Y-162240062D01*
X82485225Y-162075555D01*
X82397692Y-161923945D01*
X82285163Y-161789837D01*
X82151055Y-161677308D01*
X81999445Y-161589775D01*
X81999443Y-161589774D01*
X81999441Y-161589773D01*
X81834937Y-161529898D01*
X81662535Y-161499500D01*
X81662532Y-161499500D01*
X81640892Y-161499500D01*
X81574500Y-161499500D01*
X81522174Y-161477826D01*
X81500500Y-161425500D01*
X81500500Y-159600000D01*
X83094508Y-159600000D01*
X83114353Y-159725301D01*
X83114353Y-159725302D01*
X83114354Y-159725304D01*
X83171950Y-159838342D01*
X83261658Y-159928050D01*
X83374696Y-159985646D01*
X83500000Y-160005492D01*
X83625304Y-159985646D01*
X83738342Y-159928050D01*
X83828050Y-159838342D01*
X83885646Y-159725304D01*
X83905492Y-159600000D01*
X83885646Y-159474696D01*
X83828050Y-159361658D01*
X83738342Y-159271950D01*
X83625304Y-159214354D01*
X83625302Y-159214353D01*
X83625301Y-159214353D01*
X83500000Y-159194508D01*
X83374698Y-159214353D01*
X83261656Y-159271951D01*
X83171951Y-159361656D01*
X83114353Y-159474698D01*
X83094508Y-159600000D01*
X81500500Y-159600000D01*
X81500500Y-157800000D01*
X82994508Y-157800000D01*
X83014353Y-157925301D01*
X83014353Y-157925302D01*
X83014354Y-157925304D01*
X83071950Y-158038342D01*
X83161658Y-158128050D01*
X83274696Y-158185646D01*
X83400000Y-158205492D01*
X83525304Y-158185646D01*
X83638342Y-158128050D01*
X83728050Y-158038342D01*
X83785646Y-157925304D01*
X83805492Y-157800000D01*
X83785646Y-157674696D01*
X83728050Y-157561658D01*
X83638342Y-157471950D01*
X83525304Y-157414354D01*
X83525302Y-157414353D01*
X83525301Y-157414353D01*
X83400000Y-157394508D01*
X83274698Y-157414353D01*
X83161656Y-157471951D01*
X83071951Y-157561656D01*
X83014353Y-157674698D01*
X82994508Y-157800000D01*
X81500500Y-157800000D01*
X81500500Y-157074000D01*
X81522174Y-157021674D01*
X81574500Y-157000000D01*
X84926000Y-157000000D01*
X84978326Y-157021674D01*
G37*
%TD.AperFunction*%
%TD*%
%TA.AperFunction,Conductor*%
%TO.N,+1V0_core*%
G36*
X93619412Y-145029174D02*
G01*
X93641086Y-145081500D01*
X93619412Y-145133826D01*
X93619411Y-145133826D01*
X93570885Y-145182351D01*
X93518559Y-145204025D01*
X93506986Y-145203114D01*
X93500002Y-145202008D01*
X93500000Y-145202008D01*
X93374698Y-145221853D01*
X93261656Y-145279451D01*
X93171951Y-145369156D01*
X93114353Y-145482198D01*
X93094508Y-145607500D01*
X93114353Y-145732801D01*
X93114353Y-145732802D01*
X93114354Y-145732804D01*
X93171950Y-145845842D01*
X93261658Y-145935550D01*
X93374696Y-145993146D01*
X93500000Y-146012992D01*
X93625304Y-145993146D01*
X93738342Y-145935550D01*
X93828050Y-145845842D01*
X93885646Y-145732804D01*
X93905492Y-145607500D01*
X93904385Y-145600513D01*
X93917606Y-145545442D01*
X93925142Y-145536617D01*
X94082086Y-145379674D01*
X94134412Y-145358000D01*
X94353456Y-145358000D01*
X94405782Y-145379674D01*
X94461658Y-145435550D01*
X94574696Y-145493146D01*
X94700000Y-145512992D01*
X94825304Y-145493146D01*
X94938342Y-145435550D01*
X95028050Y-145345842D01*
X95085646Y-145232804D01*
X95105492Y-145107500D01*
X95105492Y-145107497D01*
X95103208Y-145093074D01*
X95116431Y-145038002D01*
X95164723Y-145008411D01*
X95176297Y-145007500D01*
X97579956Y-145007500D01*
X97632282Y-145029174D01*
X97653956Y-145081500D01*
X97632282Y-145133826D01*
X97546951Y-145219156D01*
X97489353Y-145332198D01*
X97469508Y-145457500D01*
X97489353Y-145582801D01*
X97489353Y-145582802D01*
X97489354Y-145582804D01*
X97546950Y-145695842D01*
X97636658Y-145785550D01*
X97749696Y-145843146D01*
X97875000Y-145862992D01*
X98000304Y-145843146D01*
X98113342Y-145785550D01*
X98203050Y-145695842D01*
X98260646Y-145582804D01*
X98280492Y-145457500D01*
X98260646Y-145332196D01*
X98203050Y-145219158D01*
X98117718Y-145133826D01*
X98096044Y-145081500D01*
X98117718Y-145029174D01*
X98170044Y-145007500D01*
X99926000Y-145007500D01*
X99978326Y-145029174D01*
X100000000Y-145081500D01*
X100000000Y-158362456D01*
X99978326Y-158414782D01*
X99926000Y-158436456D01*
X99873674Y-158414782D01*
X99838343Y-158379451D01*
X99838342Y-158379450D01*
X99725304Y-158321854D01*
X99725302Y-158321853D01*
X99725301Y-158321853D01*
X99600000Y-158302008D01*
X99468944Y-158322765D01*
X99468499Y-158319958D01*
X99421720Y-158316275D01*
X99384939Y-158273207D01*
X99384941Y-158231088D01*
X99384735Y-158231056D01*
X99384941Y-158229749D01*
X99384942Y-158227468D01*
X99385642Y-158225311D01*
X99385646Y-158225304D01*
X99405492Y-158100000D01*
X99385646Y-157974696D01*
X99328050Y-157861658D01*
X99238342Y-157771950D01*
X99125304Y-157714354D01*
X99125302Y-157714353D01*
X99125301Y-157714353D01*
X99000000Y-157694508D01*
X98905385Y-157709493D01*
X98850313Y-157696271D01*
X98820720Y-157647980D01*
X98820720Y-157624828D01*
X98821191Y-157621854D01*
X98840491Y-157500000D01*
X98820645Y-157374696D01*
X98763049Y-157261658D01*
X98673341Y-157171950D01*
X98560303Y-157114354D01*
X98560301Y-157114353D01*
X98560300Y-157114353D01*
X98434999Y-157094508D01*
X98309697Y-157114353D01*
X98196655Y-157171951D01*
X98106950Y-157261656D01*
X98049352Y-157374698D01*
X98029507Y-157500000D01*
X98049352Y-157625301D01*
X98049352Y-157625302D01*
X98049353Y-157625304D01*
X98106949Y-157738342D01*
X98196657Y-157828050D01*
X98309695Y-157885646D01*
X98434999Y-157905492D01*
X98529614Y-157890506D01*
X98584685Y-157903727D01*
X98614278Y-157952018D01*
X98614278Y-157975171D01*
X98594508Y-158099999D01*
X98614353Y-158225301D01*
X98614353Y-158225302D01*
X98614354Y-158225304D01*
X98671950Y-158338342D01*
X98761658Y-158428050D01*
X98874696Y-158485646D01*
X99000000Y-158505492D01*
X99125304Y-158485646D01*
X99125304Y-158485645D01*
X99131056Y-158484735D01*
X99131502Y-158487551D01*
X99178240Y-158491204D01*
X99215047Y-158534251D01*
X99215058Y-158576411D01*
X99215265Y-158576444D01*
X99215059Y-158577742D01*
X99215060Y-158580020D01*
X99214354Y-158582190D01*
X99194508Y-158707500D01*
X99214353Y-158832802D01*
X99214353Y-158832803D01*
X99214354Y-158832804D01*
X99248544Y-158899905D01*
X99252988Y-158956367D01*
X99216206Y-158999434D01*
X99182610Y-159007500D01*
X85745044Y-159007500D01*
X85692718Y-158985826D01*
X85671044Y-158933500D01*
X85692718Y-158881174D01*
X85728050Y-158845842D01*
X85785646Y-158732804D01*
X85805492Y-158607500D01*
X85785646Y-158482196D01*
X85728050Y-158369158D01*
X85638342Y-158279450D01*
X85525304Y-158221854D01*
X85525302Y-158221853D01*
X85525301Y-158221853D01*
X85400000Y-158202008D01*
X85274696Y-158221853D01*
X85263092Y-158227766D01*
X85206630Y-158232207D01*
X85163564Y-158195422D01*
X85155500Y-158161830D01*
X85155500Y-157900000D01*
X87129507Y-157900000D01*
X87149352Y-158025301D01*
X87149352Y-158025302D01*
X87149353Y-158025304D01*
X87206949Y-158138342D01*
X87296657Y-158228050D01*
X87409695Y-158285646D01*
X87534999Y-158305492D01*
X87660303Y-158285646D01*
X87773341Y-158228050D01*
X87863049Y-158138342D01*
X87920645Y-158025304D01*
X87923465Y-158007500D01*
X90394508Y-158007500D01*
X90414353Y-158132801D01*
X90414353Y-158132802D01*
X90414354Y-158132804D01*
X90471950Y-158245842D01*
X90561658Y-158335550D01*
X90674696Y-158393146D01*
X90800000Y-158412992D01*
X90925304Y-158393146D01*
X91038342Y-158335550D01*
X91128050Y-158245842D01*
X91185646Y-158132804D01*
X91205492Y-158007500D01*
X91185646Y-157882196D01*
X91128050Y-157769158D01*
X91038342Y-157679450D01*
X90925304Y-157621854D01*
X90925302Y-157621853D01*
X90925301Y-157621853D01*
X90800000Y-157602008D01*
X90674698Y-157621853D01*
X90561656Y-157679451D01*
X90471951Y-157769156D01*
X90414353Y-157882198D01*
X90394508Y-158007500D01*
X87923465Y-158007500D01*
X87940491Y-157900000D01*
X87920645Y-157774696D01*
X87863049Y-157661658D01*
X87773341Y-157571950D01*
X87660303Y-157514354D01*
X87660301Y-157514353D01*
X87660300Y-157514353D01*
X87534999Y-157494508D01*
X87409697Y-157514353D01*
X87296655Y-157571951D01*
X87206950Y-157661656D01*
X87149352Y-157774698D01*
X87129507Y-157900000D01*
X85155500Y-157900000D01*
X85155500Y-157081500D01*
X85177174Y-157029174D01*
X85229500Y-157007500D01*
X93778788Y-157007500D01*
X93831114Y-157029174D01*
X93852788Y-157081500D01*
X93844723Y-157115092D01*
X93839521Y-157125304D01*
X93814353Y-157174698D01*
X93794508Y-157300000D01*
X93814353Y-157425301D01*
X93814353Y-157425302D01*
X93814354Y-157425304D01*
X93871950Y-157538342D01*
X93961658Y-157628050D01*
X94074696Y-157685646D01*
X94200000Y-157705492D01*
X94325304Y-157685646D01*
X94438342Y-157628050D01*
X94438343Y-157628048D01*
X94439002Y-157627713D01*
X94495465Y-157623269D01*
X94538532Y-157660051D01*
X94542976Y-157716514D01*
X94538533Y-157727241D01*
X94514353Y-157774696D01*
X94494508Y-157900000D01*
X94514353Y-158025301D01*
X94514353Y-158025302D01*
X94514354Y-158025304D01*
X94571950Y-158138342D01*
X94661658Y-158228050D01*
X94774696Y-158285646D01*
X94900000Y-158305492D01*
X95025304Y-158285646D01*
X95138342Y-158228050D01*
X95228050Y-158138342D01*
X95285646Y-158025304D01*
X95289654Y-158000000D01*
X97159509Y-158000000D01*
X97179354Y-158125301D01*
X97179354Y-158125302D01*
X97179355Y-158125304D01*
X97236951Y-158238342D01*
X97326659Y-158328050D01*
X97439697Y-158385646D01*
X97565001Y-158405492D01*
X97690305Y-158385646D01*
X97803343Y-158328050D01*
X97893051Y-158238342D01*
X97950647Y-158125304D01*
X97970493Y-158000000D01*
X97950647Y-157874696D01*
X97893051Y-157761658D01*
X97803343Y-157671950D01*
X97690305Y-157614354D01*
X97690303Y-157614353D01*
X97690302Y-157614353D01*
X97565001Y-157594508D01*
X97439699Y-157614353D01*
X97439697Y-157614353D01*
X97439697Y-157614354D01*
X97422200Y-157623269D01*
X97326657Y-157671951D01*
X97236952Y-157761656D01*
X97179354Y-157874698D01*
X97159509Y-158000000D01*
X95289654Y-158000000D01*
X95305492Y-157900000D01*
X95285646Y-157774696D01*
X95228050Y-157661658D01*
X95138342Y-157571950D01*
X95025304Y-157514354D01*
X95025302Y-157514353D01*
X95025301Y-157514353D01*
X94900000Y-157494508D01*
X94774698Y-157514353D01*
X94660996Y-157572287D01*
X94604533Y-157576730D01*
X94561466Y-157539947D01*
X94557023Y-157483484D01*
X94561463Y-157472765D01*
X94585646Y-157425304D01*
X94605492Y-157300000D01*
X94585646Y-157174696D01*
X94555276Y-157115093D01*
X94550834Y-157058633D01*
X94587617Y-157015565D01*
X94621212Y-157007500D01*
X95432494Y-157007500D01*
X95484820Y-157029174D01*
X95505582Y-157069923D01*
X95507416Y-157081500D01*
X95514353Y-157125301D01*
X95514353Y-157125302D01*
X95514354Y-157125304D01*
X95571950Y-157238342D01*
X95661658Y-157328050D01*
X95774696Y-157385646D01*
X95900000Y-157405492D01*
X96025304Y-157385646D01*
X96138342Y-157328050D01*
X96228050Y-157238342D01*
X96285646Y-157125304D01*
X96294417Y-157069923D01*
X96324010Y-157021633D01*
X96367506Y-157007500D01*
X97000000Y-157007500D01*
X97000000Y-150707500D01*
X98294508Y-150707500D01*
X98314353Y-150832801D01*
X98314353Y-150832802D01*
X98314354Y-150832804D01*
X98371950Y-150945842D01*
X98461658Y-151035550D01*
X98574696Y-151093146D01*
X98700000Y-151112992D01*
X98825304Y-151093146D01*
X98938342Y-151035550D01*
X99028050Y-150945842D01*
X99085646Y-150832804D01*
X99105492Y-150707500D01*
X99085646Y-150582196D01*
X99028050Y-150469158D01*
X98938342Y-150379450D01*
X98825304Y-150321854D01*
X98825302Y-150321853D01*
X98825301Y-150321853D01*
X98700000Y-150302008D01*
X98574698Y-150321853D01*
X98461656Y-150379451D01*
X98371951Y-150469156D01*
X98314353Y-150582198D01*
X98294508Y-150707500D01*
X97000000Y-150707500D01*
X97000000Y-148072501D01*
X97994508Y-148072501D01*
X98014353Y-148197802D01*
X98014353Y-148197803D01*
X98014354Y-148197805D01*
X98062933Y-148293146D01*
X98071951Y-148310844D01*
X98161659Y-148400552D01*
X98242153Y-148441566D01*
X98278936Y-148484633D01*
X98274492Y-148541095D01*
X98242153Y-148573434D01*
X98161659Y-148614447D01*
X98071951Y-148704155D01*
X98014353Y-148817197D01*
X97994508Y-148942499D01*
X98014353Y-149067800D01*
X98014353Y-149067801D01*
X98014354Y-149067803D01*
X98071950Y-149180841D01*
X98161658Y-149270549D01*
X98274696Y-149328145D01*
X98400000Y-149347991D01*
X98525304Y-149328145D01*
X98638342Y-149270549D01*
X98728050Y-149180841D01*
X98785646Y-149067803D01*
X98805492Y-148942499D01*
X98785646Y-148817195D01*
X98728050Y-148704157D01*
X98638342Y-148614449D01*
X98557844Y-148573433D01*
X98521063Y-148530367D01*
X98525506Y-148473905D01*
X98557844Y-148441566D01*
X98638342Y-148400551D01*
X98728050Y-148310843D01*
X98785646Y-148197805D01*
X98805492Y-148072501D01*
X98785646Y-147947197D01*
X98728050Y-147834159D01*
X98638342Y-147744451D01*
X98634224Y-147740333D01*
X98635487Y-147739069D01*
X98609548Y-147696740D01*
X98622770Y-147641667D01*
X98671061Y-147612075D01*
X98694210Y-147612075D01*
X98700000Y-147612992D01*
X98825304Y-147593146D01*
X98938342Y-147535550D01*
X99028050Y-147445842D01*
X99085646Y-147332804D01*
X99105492Y-147207500D01*
X99085646Y-147082196D01*
X99028050Y-146969158D01*
X98938342Y-146879450D01*
X98825304Y-146821854D01*
X98825302Y-146821853D01*
X98825301Y-146821853D01*
X98700000Y-146802008D01*
X98574698Y-146821853D01*
X98461656Y-146879451D01*
X98371951Y-146969156D01*
X98314353Y-147082198D01*
X98294508Y-147207500D01*
X98314353Y-147332801D01*
X98314353Y-147332802D01*
X98314354Y-147332804D01*
X98347474Y-147397805D01*
X98371951Y-147445843D01*
X98465776Y-147539668D01*
X98464511Y-147540932D01*
X98490450Y-147583257D01*
X98477231Y-147638330D01*
X98428941Y-147667924D01*
X98405789Y-147667925D01*
X98400004Y-147667009D01*
X98400000Y-147667009D01*
X98274698Y-147686854D01*
X98161656Y-147744452D01*
X98071951Y-147834157D01*
X98014353Y-147947199D01*
X97994508Y-148072501D01*
X97000000Y-148072501D01*
X97000000Y-148007500D01*
X95376297Y-148007500D01*
X95323971Y-147985826D01*
X95302297Y-147933500D01*
X95303208Y-147921926D01*
X95305492Y-147907502D01*
X95305492Y-147907500D01*
X95285646Y-147782198D01*
X95285646Y-147782196D01*
X95228050Y-147669158D01*
X95138342Y-147579450D01*
X95025304Y-147521854D01*
X95025302Y-147521853D01*
X95025301Y-147521853D01*
X94900000Y-147502008D01*
X94774698Y-147521853D01*
X94661656Y-147579451D01*
X94571951Y-147669156D01*
X94514353Y-147782198D01*
X94494508Y-147907500D01*
X94494508Y-147907502D01*
X94496792Y-147921926D01*
X94483569Y-147976998D01*
X94435277Y-148006589D01*
X94423703Y-148007500D01*
X92074000Y-148007500D01*
X92021674Y-147985826D01*
X92000000Y-147933500D01*
X92000000Y-147716387D01*
X92021674Y-147664061D01*
X92040405Y-147650453D01*
X92138340Y-147600552D01*
X92138339Y-147600552D01*
X92138342Y-147600551D01*
X92228050Y-147510843D01*
X92285646Y-147397805D01*
X92305492Y-147272501D01*
X92285646Y-147147197D01*
X92228050Y-147034159D01*
X92138342Y-146944451D01*
X92138340Y-146944449D01*
X92040405Y-146894549D01*
X92003622Y-146851482D01*
X92000000Y-146828615D01*
X92000000Y-146807500D01*
X95594508Y-146807500D01*
X95614353Y-146932801D01*
X95614353Y-146932802D01*
X95614354Y-146932804D01*
X95671950Y-147045842D01*
X95761658Y-147135550D01*
X95874696Y-147193146D01*
X96000000Y-147212992D01*
X96125304Y-147193146D01*
X96238342Y-147135550D01*
X96328050Y-147045842D01*
X96385646Y-146932804D01*
X96405492Y-146807500D01*
X96385646Y-146682196D01*
X96328050Y-146569158D01*
X96238342Y-146479450D01*
X96125304Y-146421854D01*
X96125302Y-146421853D01*
X96125301Y-146421853D01*
X96034676Y-146407500D01*
X97694508Y-146407500D01*
X97714353Y-146532801D01*
X97714353Y-146532802D01*
X97714354Y-146532804D01*
X97771950Y-146645842D01*
X97861658Y-146735550D01*
X97974696Y-146793146D01*
X98100000Y-146812992D01*
X98225304Y-146793146D01*
X98338342Y-146735550D01*
X98428050Y-146645842D01*
X98485646Y-146532804D01*
X98505492Y-146407500D01*
X98485646Y-146282196D01*
X98428050Y-146169158D01*
X98338342Y-146079450D01*
X98225304Y-146021854D01*
X98225302Y-146021853D01*
X98225301Y-146021853D01*
X98100000Y-146002008D01*
X97974698Y-146021853D01*
X97861656Y-146079451D01*
X97771951Y-146169156D01*
X97714353Y-146282198D01*
X97694508Y-146407500D01*
X96034676Y-146407500D01*
X96000000Y-146402008D01*
X95874698Y-146421853D01*
X95761656Y-146479451D01*
X95671951Y-146569156D01*
X95614353Y-146682198D01*
X95594508Y-146807500D01*
X92000000Y-146807500D01*
X92000000Y-146565899D01*
X92021674Y-146513573D01*
X92055254Y-146496464D01*
X92054762Y-146494947D01*
X92060298Y-146493147D01*
X92060298Y-146493146D01*
X92060304Y-146493146D01*
X92173342Y-146435550D01*
X92263050Y-146345842D01*
X92320646Y-146232804D01*
X92340492Y-146107500D01*
X94894508Y-146107500D01*
X94914353Y-146232801D01*
X94914353Y-146232802D01*
X94914354Y-146232804D01*
X94971950Y-146345842D01*
X95061658Y-146435550D01*
X95174696Y-146493146D01*
X95300000Y-146512992D01*
X95425304Y-146493146D01*
X95538342Y-146435550D01*
X95628050Y-146345842D01*
X95685646Y-146232804D01*
X95705492Y-146107500D01*
X95685646Y-145982196D01*
X95628050Y-145869158D01*
X95566392Y-145807500D01*
X96294508Y-145807500D01*
X96314353Y-145932801D01*
X96314353Y-145932802D01*
X96314354Y-145932804D01*
X96371950Y-146045842D01*
X96461658Y-146135550D01*
X96574696Y-146193146D01*
X96700000Y-146212992D01*
X96825304Y-146193146D01*
X96938342Y-146135550D01*
X97028050Y-146045842D01*
X97085646Y-145932804D01*
X97105492Y-145807500D01*
X97085646Y-145682196D01*
X97028050Y-145569158D01*
X96938342Y-145479450D01*
X96825304Y-145421854D01*
X96825302Y-145421853D01*
X96825301Y-145421853D01*
X96700000Y-145402008D01*
X96574698Y-145421853D01*
X96461656Y-145479451D01*
X96371951Y-145569156D01*
X96314353Y-145682198D01*
X96294508Y-145807500D01*
X95566392Y-145807500D01*
X95538342Y-145779450D01*
X95425304Y-145721854D01*
X95425302Y-145721853D01*
X95425301Y-145721853D01*
X95300000Y-145702008D01*
X95174698Y-145721853D01*
X95061656Y-145779451D01*
X94971951Y-145869156D01*
X94914353Y-145982198D01*
X94894508Y-146107500D01*
X92340492Y-146107500D01*
X92320646Y-145982196D01*
X92263050Y-145869158D01*
X92173342Y-145779450D01*
X92060304Y-145721854D01*
X92060302Y-145721853D01*
X92060301Y-145721853D01*
X92054761Y-145720053D01*
X92055453Y-145717921D01*
X92014126Y-145692587D01*
X92000000Y-145649100D01*
X92000000Y-145524890D01*
X92021674Y-145472564D01*
X92074000Y-145450890D01*
X92107593Y-145458955D01*
X92174696Y-145493146D01*
X92174695Y-145493146D01*
X92191827Y-145495859D01*
X92300000Y-145512992D01*
X92425304Y-145493146D01*
X92538342Y-145435550D01*
X92628050Y-145345842D01*
X92685646Y-145232804D01*
X92705492Y-145107500D01*
X92705492Y-145107497D01*
X92703208Y-145093074D01*
X92716431Y-145038002D01*
X92764723Y-145008411D01*
X92776297Y-145007500D01*
X93567086Y-145007500D01*
X93619412Y-145029174D01*
G37*
%TD.AperFunction*%
%TD*%
M02*
