%TF.GenerationSoftware,KiCad,Pcbnew,8.0.6*%
%TF.CreationDate,2024-11-25T22:35:05+01:00*%
%TF.ProjectId,M2SmartHome,4d32536d-6172-4744-986f-6d652e6b6963,rev?*%
%TF.SameCoordinates,Original*%
%TF.FileFunction,Legend,Top*%
%TF.FilePolarity,Positive*%
%FSLAX46Y46*%
G04 Gerber Fmt 4.6, Leading zero omitted, Abs format (unit mm)*
G04 Created by KiCad (PCBNEW 8.0.6) date 2024-11-25 22:35:05*
%MOMM*%
%LPD*%
G01*
G04 APERTURE LIST*
%ADD10C,0.100000*%
%ADD11C,0.150000*%
%ADD12C,0.127000*%
%ADD13C,0.200000*%
%ADD14C,0.120000*%
%ADD15C,0.254000*%
%ADD16C,0.152400*%
G04 APERTURE END LIST*
D10*
X83600000Y-120600000D02*
X81200000Y-120600000D01*
X81200000Y-120600000D02*
X81200000Y-124800000D01*
X101000000Y-93300000D02*
X99200000Y-93300000D01*
X83500000Y-125450000D02*
X83300000Y-125750000D01*
X81800000Y-125450000D02*
X83500000Y-125450000D01*
X83600000Y-124800000D02*
X83600000Y-120600000D01*
X83500000Y-125450000D02*
X83300000Y-125150000D01*
X81200000Y-124800000D02*
X83600000Y-124800000D01*
D11*
X76397306Y-113932602D02*
X76854449Y-113932602D01*
X76854449Y-113932602D02*
X76945877Y-113963079D01*
X76945877Y-113963079D02*
X77006830Y-114024031D01*
X77006830Y-114024031D02*
X77037306Y-114115460D01*
X77037306Y-114115460D02*
X77037306Y-114176412D01*
X76397306Y-113323079D02*
X76397306Y-113627841D01*
X76397306Y-113627841D02*
X76702068Y-113658317D01*
X76702068Y-113658317D02*
X76671591Y-113627841D01*
X76671591Y-113627841D02*
X76641115Y-113566888D01*
X76641115Y-113566888D02*
X76641115Y-113414507D01*
X76641115Y-113414507D02*
X76671591Y-113353555D01*
X76671591Y-113353555D02*
X76702068Y-113323079D01*
X76702068Y-113323079D02*
X76763020Y-113292602D01*
X76763020Y-113292602D02*
X76915401Y-113292602D01*
X76915401Y-113292602D02*
X76976353Y-113323079D01*
X76976353Y-113323079D02*
X77006830Y-113353555D01*
X77006830Y-113353555D02*
X77037306Y-113414507D01*
X77037306Y-113414507D02*
X77037306Y-113566888D01*
X77037306Y-113566888D02*
X77006830Y-113627841D01*
X77006830Y-113627841D02*
X76976353Y-113658317D01*
X101277618Y-103088276D02*
X101277618Y-102448276D01*
X101277618Y-102448276D02*
X101429999Y-102448276D01*
X101429999Y-102448276D02*
X101521428Y-102478752D01*
X101521428Y-102478752D02*
X101582380Y-102539704D01*
X101582380Y-102539704D02*
X101612857Y-102600657D01*
X101612857Y-102600657D02*
X101643333Y-102722561D01*
X101643333Y-102722561D02*
X101643333Y-102813990D01*
X101643333Y-102813990D02*
X101612857Y-102935895D01*
X101612857Y-102935895D02*
X101582380Y-102996847D01*
X101582380Y-102996847D02*
X101521428Y-103057800D01*
X101521428Y-103057800D02*
X101429999Y-103088276D01*
X101429999Y-103088276D02*
X101277618Y-103088276D01*
X101856666Y-102448276D02*
X102252857Y-102448276D01*
X102252857Y-102448276D02*
X102039523Y-102692085D01*
X102039523Y-102692085D02*
X102130952Y-102692085D01*
X102130952Y-102692085D02*
X102191904Y-102722561D01*
X102191904Y-102722561D02*
X102222380Y-102753038D01*
X102222380Y-102753038D02*
X102252857Y-102813990D01*
X102252857Y-102813990D02*
X102252857Y-102966371D01*
X102252857Y-102966371D02*
X102222380Y-103027323D01*
X102222380Y-103027323D02*
X102191904Y-103057800D01*
X102191904Y-103057800D02*
X102130952Y-103088276D01*
X102130952Y-103088276D02*
X101948095Y-103088276D01*
X101948095Y-103088276D02*
X101887142Y-103057800D01*
X101887142Y-103057800D02*
X101856666Y-103027323D01*
X102688571Y-92177323D02*
X102658095Y-92207800D01*
X102658095Y-92207800D02*
X102566666Y-92238276D01*
X102566666Y-92238276D02*
X102505714Y-92238276D01*
X102505714Y-92238276D02*
X102414285Y-92207800D01*
X102414285Y-92207800D02*
X102353333Y-92146847D01*
X102353333Y-92146847D02*
X102322856Y-92085895D01*
X102322856Y-92085895D02*
X102292380Y-91963990D01*
X102292380Y-91963990D02*
X102292380Y-91872561D01*
X102292380Y-91872561D02*
X102322856Y-91750657D01*
X102322856Y-91750657D02*
X102353333Y-91689704D01*
X102353333Y-91689704D02*
X102414285Y-91628752D01*
X102414285Y-91628752D02*
X102505714Y-91598276D01*
X102505714Y-91598276D02*
X102566666Y-91598276D01*
X102566666Y-91598276D02*
X102658095Y-91628752D01*
X102658095Y-91628752D02*
X102688571Y-91659228D01*
X103237142Y-91811609D02*
X103237142Y-92238276D01*
X103084761Y-91567800D02*
X102932380Y-92024942D01*
X102932380Y-92024942D02*
X103328571Y-92024942D01*
X103602857Y-92238276D02*
X103724761Y-92238276D01*
X103724761Y-92238276D02*
X103785714Y-92207800D01*
X103785714Y-92207800D02*
X103816190Y-92177323D01*
X103816190Y-92177323D02*
X103877142Y-92085895D01*
X103877142Y-92085895D02*
X103907619Y-91963990D01*
X103907619Y-91963990D02*
X103907619Y-91720180D01*
X103907619Y-91720180D02*
X103877142Y-91659228D01*
X103877142Y-91659228D02*
X103846666Y-91628752D01*
X103846666Y-91628752D02*
X103785714Y-91598276D01*
X103785714Y-91598276D02*
X103663809Y-91598276D01*
X103663809Y-91598276D02*
X103602857Y-91628752D01*
X103602857Y-91628752D02*
X103572380Y-91659228D01*
X103572380Y-91659228D02*
X103541904Y-91720180D01*
X103541904Y-91720180D02*
X103541904Y-91872561D01*
X103541904Y-91872561D02*
X103572380Y-91933514D01*
X103572380Y-91933514D02*
X103602857Y-91963990D01*
X103602857Y-91963990D02*
X103663809Y-91994466D01*
X103663809Y-91994466D02*
X103785714Y-91994466D01*
X103785714Y-91994466D02*
X103846666Y-91963990D01*
X103846666Y-91963990D02*
X103877142Y-91933514D01*
X103877142Y-91933514D02*
X103907619Y-91872561D01*
X98274823Y-101961428D02*
X98305300Y-101991904D01*
X98305300Y-101991904D02*
X98335776Y-102083333D01*
X98335776Y-102083333D02*
X98335776Y-102144285D01*
X98335776Y-102144285D02*
X98305300Y-102235714D01*
X98305300Y-102235714D02*
X98244347Y-102296666D01*
X98244347Y-102296666D02*
X98183395Y-102327143D01*
X98183395Y-102327143D02*
X98061490Y-102357619D01*
X98061490Y-102357619D02*
X97970061Y-102357619D01*
X97970061Y-102357619D02*
X97848157Y-102327143D01*
X97848157Y-102327143D02*
X97787204Y-102296666D01*
X97787204Y-102296666D02*
X97726252Y-102235714D01*
X97726252Y-102235714D02*
X97695776Y-102144285D01*
X97695776Y-102144285D02*
X97695776Y-102083333D01*
X97695776Y-102083333D02*
X97726252Y-101991904D01*
X97726252Y-101991904D02*
X97756728Y-101961428D01*
X97909109Y-101412857D02*
X98335776Y-101412857D01*
X97665300Y-101565238D02*
X98122442Y-101717619D01*
X98122442Y-101717619D02*
X98122442Y-101321428D01*
X97695776Y-100803333D02*
X97695776Y-100925238D01*
X97695776Y-100925238D02*
X97726252Y-100986190D01*
X97726252Y-100986190D02*
X97756728Y-101016666D01*
X97756728Y-101016666D02*
X97848157Y-101077619D01*
X97848157Y-101077619D02*
X97970061Y-101108095D01*
X97970061Y-101108095D02*
X98213871Y-101108095D01*
X98213871Y-101108095D02*
X98274823Y-101077619D01*
X98274823Y-101077619D02*
X98305300Y-101047142D01*
X98305300Y-101047142D02*
X98335776Y-100986190D01*
X98335776Y-100986190D02*
X98335776Y-100864285D01*
X98335776Y-100864285D02*
X98305300Y-100803333D01*
X98305300Y-100803333D02*
X98274823Y-100772857D01*
X98274823Y-100772857D02*
X98213871Y-100742380D01*
X98213871Y-100742380D02*
X98061490Y-100742380D01*
X98061490Y-100742380D02*
X98000538Y-100772857D01*
X98000538Y-100772857D02*
X97970061Y-100803333D01*
X97970061Y-100803333D02*
X97939585Y-100864285D01*
X97939585Y-100864285D02*
X97939585Y-100986190D01*
X97939585Y-100986190D02*
X97970061Y-101047142D01*
X97970061Y-101047142D02*
X98000538Y-101077619D01*
X98000538Y-101077619D02*
X98061490Y-101108095D01*
X82188276Y-151418928D02*
X81883514Y-151632262D01*
X82188276Y-151784643D02*
X81548276Y-151784643D01*
X81548276Y-151784643D02*
X81548276Y-151540833D01*
X81548276Y-151540833D02*
X81578752Y-151479881D01*
X81578752Y-151479881D02*
X81609228Y-151449404D01*
X81609228Y-151449404D02*
X81670180Y-151418928D01*
X81670180Y-151418928D02*
X81761609Y-151418928D01*
X81761609Y-151418928D02*
X81822561Y-151449404D01*
X81822561Y-151449404D02*
X81853038Y-151479881D01*
X81853038Y-151479881D02*
X81883514Y-151540833D01*
X81883514Y-151540833D02*
X81883514Y-151784643D01*
X81761609Y-150870357D02*
X82188276Y-150870357D01*
X81517800Y-151022738D02*
X81974942Y-151175119D01*
X81974942Y-151175119D02*
X81974942Y-150778928D01*
X82188276Y-150504642D02*
X82188276Y-150382738D01*
X82188276Y-150382738D02*
X82157800Y-150321785D01*
X82157800Y-150321785D02*
X82127323Y-150291309D01*
X82127323Y-150291309D02*
X82035895Y-150230357D01*
X82035895Y-150230357D02*
X81913990Y-150199880D01*
X81913990Y-150199880D02*
X81670180Y-150199880D01*
X81670180Y-150199880D02*
X81609228Y-150230357D01*
X81609228Y-150230357D02*
X81578752Y-150260833D01*
X81578752Y-150260833D02*
X81548276Y-150321785D01*
X81548276Y-150321785D02*
X81548276Y-150443690D01*
X81548276Y-150443690D02*
X81578752Y-150504642D01*
X81578752Y-150504642D02*
X81609228Y-150535119D01*
X81609228Y-150535119D02*
X81670180Y-150565595D01*
X81670180Y-150565595D02*
X81822561Y-150565595D01*
X81822561Y-150565595D02*
X81883514Y-150535119D01*
X81883514Y-150535119D02*
X81913990Y-150504642D01*
X81913990Y-150504642D02*
X81944466Y-150443690D01*
X81944466Y-150443690D02*
X81944466Y-150321785D01*
X81944466Y-150321785D02*
X81913990Y-150260833D01*
X81913990Y-150260833D02*
X81883514Y-150230357D01*
X81883514Y-150230357D02*
X81822561Y-150199880D01*
X91388276Y-128418928D02*
X91083514Y-128632262D01*
X91388276Y-128784643D02*
X90748276Y-128784643D01*
X90748276Y-128784643D02*
X90748276Y-128540833D01*
X90748276Y-128540833D02*
X90778752Y-128479881D01*
X90778752Y-128479881D02*
X90809228Y-128449404D01*
X90809228Y-128449404D02*
X90870180Y-128418928D01*
X90870180Y-128418928D02*
X90961609Y-128418928D01*
X90961609Y-128418928D02*
X91022561Y-128449404D01*
X91022561Y-128449404D02*
X91053038Y-128479881D01*
X91053038Y-128479881D02*
X91083514Y-128540833D01*
X91083514Y-128540833D02*
X91083514Y-128784643D01*
X91388276Y-127809404D02*
X91388276Y-128175119D01*
X91388276Y-127992262D02*
X90748276Y-127992262D01*
X90748276Y-127992262D02*
X90839704Y-128053214D01*
X90839704Y-128053214D02*
X90900657Y-128114166D01*
X90900657Y-128114166D02*
X90931133Y-128175119D01*
X90748276Y-127413214D02*
X90748276Y-127352261D01*
X90748276Y-127352261D02*
X90778752Y-127291309D01*
X90778752Y-127291309D02*
X90809228Y-127260833D01*
X90809228Y-127260833D02*
X90870180Y-127230357D01*
X90870180Y-127230357D02*
X90992085Y-127199880D01*
X90992085Y-127199880D02*
X91144466Y-127199880D01*
X91144466Y-127199880D02*
X91266371Y-127230357D01*
X91266371Y-127230357D02*
X91327323Y-127260833D01*
X91327323Y-127260833D02*
X91357800Y-127291309D01*
X91357800Y-127291309D02*
X91388276Y-127352261D01*
X91388276Y-127352261D02*
X91388276Y-127413214D01*
X91388276Y-127413214D02*
X91357800Y-127474166D01*
X91357800Y-127474166D02*
X91327323Y-127504642D01*
X91327323Y-127504642D02*
X91266371Y-127535119D01*
X91266371Y-127535119D02*
X91144466Y-127565595D01*
X91144466Y-127565595D02*
X90992085Y-127565595D01*
X90992085Y-127565595D02*
X90870180Y-127535119D01*
X90870180Y-127535119D02*
X90809228Y-127504642D01*
X90809228Y-127504642D02*
X90778752Y-127474166D01*
X90778752Y-127474166D02*
X90748276Y-127413214D01*
X102688276Y-160118928D02*
X102383514Y-160332262D01*
X102688276Y-160484643D02*
X102048276Y-160484643D01*
X102048276Y-160484643D02*
X102048276Y-160240833D01*
X102048276Y-160240833D02*
X102078752Y-160179881D01*
X102078752Y-160179881D02*
X102109228Y-160149404D01*
X102109228Y-160149404D02*
X102170180Y-160118928D01*
X102170180Y-160118928D02*
X102261609Y-160118928D01*
X102261609Y-160118928D02*
X102322561Y-160149404D01*
X102322561Y-160149404D02*
X102353038Y-160179881D01*
X102353038Y-160179881D02*
X102383514Y-160240833D01*
X102383514Y-160240833D02*
X102383514Y-160484643D01*
X102048276Y-159570357D02*
X102048276Y-159692262D01*
X102048276Y-159692262D02*
X102078752Y-159753214D01*
X102078752Y-159753214D02*
X102109228Y-159783690D01*
X102109228Y-159783690D02*
X102200657Y-159844643D01*
X102200657Y-159844643D02*
X102322561Y-159875119D01*
X102322561Y-159875119D02*
X102566371Y-159875119D01*
X102566371Y-159875119D02*
X102627323Y-159844643D01*
X102627323Y-159844643D02*
X102657800Y-159814166D01*
X102657800Y-159814166D02*
X102688276Y-159753214D01*
X102688276Y-159753214D02*
X102688276Y-159631309D01*
X102688276Y-159631309D02*
X102657800Y-159570357D01*
X102657800Y-159570357D02*
X102627323Y-159539881D01*
X102627323Y-159539881D02*
X102566371Y-159509404D01*
X102566371Y-159509404D02*
X102413990Y-159509404D01*
X102413990Y-159509404D02*
X102353038Y-159539881D01*
X102353038Y-159539881D02*
X102322561Y-159570357D01*
X102322561Y-159570357D02*
X102292085Y-159631309D01*
X102292085Y-159631309D02*
X102292085Y-159753214D01*
X102292085Y-159753214D02*
X102322561Y-159814166D01*
X102322561Y-159814166D02*
X102353038Y-159844643D01*
X102353038Y-159844643D02*
X102413990Y-159875119D01*
X102688276Y-159204642D02*
X102688276Y-159082738D01*
X102688276Y-159082738D02*
X102657800Y-159021785D01*
X102657800Y-159021785D02*
X102627323Y-158991309D01*
X102627323Y-158991309D02*
X102535895Y-158930357D01*
X102535895Y-158930357D02*
X102413990Y-158899880D01*
X102413990Y-158899880D02*
X102170180Y-158899880D01*
X102170180Y-158899880D02*
X102109228Y-158930357D01*
X102109228Y-158930357D02*
X102078752Y-158960833D01*
X102078752Y-158960833D02*
X102048276Y-159021785D01*
X102048276Y-159021785D02*
X102048276Y-159143690D01*
X102048276Y-159143690D02*
X102078752Y-159204642D01*
X102078752Y-159204642D02*
X102109228Y-159235119D01*
X102109228Y-159235119D02*
X102170180Y-159265595D01*
X102170180Y-159265595D02*
X102322561Y-159265595D01*
X102322561Y-159265595D02*
X102383514Y-159235119D01*
X102383514Y-159235119D02*
X102413990Y-159204642D01*
X102413990Y-159204642D02*
X102444466Y-159143690D01*
X102444466Y-159143690D02*
X102444466Y-159021785D01*
X102444466Y-159021785D02*
X102413990Y-158960833D01*
X102413990Y-158960833D02*
X102383514Y-158930357D01*
X102383514Y-158930357D02*
X102322561Y-158899880D01*
X101236667Y-88298276D02*
X101236667Y-88755419D01*
X101236667Y-88755419D02*
X101206190Y-88846847D01*
X101206190Y-88846847D02*
X101145238Y-88907800D01*
X101145238Y-88907800D02*
X101053809Y-88938276D01*
X101053809Y-88938276D02*
X100992857Y-88938276D01*
X101480476Y-88298276D02*
X101876667Y-88298276D01*
X101876667Y-88298276D02*
X101663333Y-88542085D01*
X101663333Y-88542085D02*
X101754762Y-88542085D01*
X101754762Y-88542085D02*
X101815714Y-88572561D01*
X101815714Y-88572561D02*
X101846190Y-88603038D01*
X101846190Y-88603038D02*
X101876667Y-88663990D01*
X101876667Y-88663990D02*
X101876667Y-88816371D01*
X101876667Y-88816371D02*
X101846190Y-88877323D01*
X101846190Y-88877323D02*
X101815714Y-88907800D01*
X101815714Y-88907800D02*
X101754762Y-88938276D01*
X101754762Y-88938276D02*
X101571905Y-88938276D01*
X101571905Y-88938276D02*
X101510952Y-88907800D01*
X101510952Y-88907800D02*
X101480476Y-88877323D01*
X98895776Y-100230119D02*
X99413871Y-100230119D01*
X99413871Y-100230119D02*
X99474823Y-100199642D01*
X99474823Y-100199642D02*
X99505300Y-100169166D01*
X99505300Y-100169166D02*
X99535776Y-100108214D01*
X99535776Y-100108214D02*
X99535776Y-99986309D01*
X99535776Y-99986309D02*
X99505300Y-99925357D01*
X99505300Y-99925357D02*
X99474823Y-99894880D01*
X99474823Y-99894880D02*
X99413871Y-99864404D01*
X99413871Y-99864404D02*
X98895776Y-99864404D01*
X98895776Y-99620595D02*
X98895776Y-99193928D01*
X98895776Y-99193928D02*
X99535776Y-99468214D01*
X101427323Y-132918928D02*
X101457800Y-132949404D01*
X101457800Y-132949404D02*
X101488276Y-133040833D01*
X101488276Y-133040833D02*
X101488276Y-133101785D01*
X101488276Y-133101785D02*
X101457800Y-133193214D01*
X101457800Y-133193214D02*
X101396847Y-133254166D01*
X101396847Y-133254166D02*
X101335895Y-133284643D01*
X101335895Y-133284643D02*
X101213990Y-133315119D01*
X101213990Y-133315119D02*
X101122561Y-133315119D01*
X101122561Y-133315119D02*
X101000657Y-133284643D01*
X101000657Y-133284643D02*
X100939704Y-133254166D01*
X100939704Y-133254166D02*
X100878752Y-133193214D01*
X100878752Y-133193214D02*
X100848276Y-133101785D01*
X100848276Y-133101785D02*
X100848276Y-133040833D01*
X100848276Y-133040833D02*
X100878752Y-132949404D01*
X100878752Y-132949404D02*
X100909228Y-132918928D01*
X100848276Y-132705595D02*
X100848276Y-132309404D01*
X100848276Y-132309404D02*
X101092085Y-132522738D01*
X101092085Y-132522738D02*
X101092085Y-132431309D01*
X101092085Y-132431309D02*
X101122561Y-132370357D01*
X101122561Y-132370357D02*
X101153038Y-132339881D01*
X101153038Y-132339881D02*
X101213990Y-132309404D01*
X101213990Y-132309404D02*
X101366371Y-132309404D01*
X101366371Y-132309404D02*
X101427323Y-132339881D01*
X101427323Y-132339881D02*
X101457800Y-132370357D01*
X101457800Y-132370357D02*
X101488276Y-132431309D01*
X101488276Y-132431309D02*
X101488276Y-132614166D01*
X101488276Y-132614166D02*
X101457800Y-132675119D01*
X101457800Y-132675119D02*
X101427323Y-132705595D01*
X100848276Y-132096071D02*
X100848276Y-131669404D01*
X100848276Y-131669404D02*
X101488276Y-131943690D01*
X84127323Y-91718928D02*
X84157800Y-91749404D01*
X84157800Y-91749404D02*
X84188276Y-91840833D01*
X84188276Y-91840833D02*
X84188276Y-91901785D01*
X84188276Y-91901785D02*
X84157800Y-91993214D01*
X84157800Y-91993214D02*
X84096847Y-92054166D01*
X84096847Y-92054166D02*
X84035895Y-92084643D01*
X84035895Y-92084643D02*
X83913990Y-92115119D01*
X83913990Y-92115119D02*
X83822561Y-92115119D01*
X83822561Y-92115119D02*
X83700657Y-92084643D01*
X83700657Y-92084643D02*
X83639704Y-92054166D01*
X83639704Y-92054166D02*
X83578752Y-91993214D01*
X83578752Y-91993214D02*
X83548276Y-91901785D01*
X83548276Y-91901785D02*
X83548276Y-91840833D01*
X83548276Y-91840833D02*
X83578752Y-91749404D01*
X83578752Y-91749404D02*
X83609228Y-91718928D01*
X83548276Y-91139881D02*
X83548276Y-91444643D01*
X83548276Y-91444643D02*
X83853038Y-91475119D01*
X83853038Y-91475119D02*
X83822561Y-91444643D01*
X83822561Y-91444643D02*
X83792085Y-91383690D01*
X83792085Y-91383690D02*
X83792085Y-91231309D01*
X83792085Y-91231309D02*
X83822561Y-91170357D01*
X83822561Y-91170357D02*
X83853038Y-91139881D01*
X83853038Y-91139881D02*
X83913990Y-91109404D01*
X83913990Y-91109404D02*
X84066371Y-91109404D01*
X84066371Y-91109404D02*
X84127323Y-91139881D01*
X84127323Y-91139881D02*
X84157800Y-91170357D01*
X84157800Y-91170357D02*
X84188276Y-91231309D01*
X84188276Y-91231309D02*
X84188276Y-91383690D01*
X84188276Y-91383690D02*
X84157800Y-91444643D01*
X84157800Y-91444643D02*
X84127323Y-91475119D01*
X83548276Y-90896071D02*
X83548276Y-90469404D01*
X83548276Y-90469404D02*
X84188276Y-90743690D01*
X91786667Y-169648276D02*
X91786667Y-170105419D01*
X91786667Y-170105419D02*
X91756190Y-170196847D01*
X91756190Y-170196847D02*
X91695238Y-170257800D01*
X91695238Y-170257800D02*
X91603809Y-170288276D01*
X91603809Y-170288276D02*
X91542857Y-170288276D01*
X92426667Y-170288276D02*
X92060952Y-170288276D01*
X92243809Y-170288276D02*
X92243809Y-169648276D01*
X92243809Y-169648276D02*
X92182857Y-169739704D01*
X92182857Y-169739704D02*
X92121905Y-169800657D01*
X92121905Y-169800657D02*
X92060952Y-169831133D01*
X81888276Y-93418928D02*
X81583514Y-93632262D01*
X81888276Y-93784643D02*
X81248276Y-93784643D01*
X81248276Y-93784643D02*
X81248276Y-93540833D01*
X81248276Y-93540833D02*
X81278752Y-93479881D01*
X81278752Y-93479881D02*
X81309228Y-93449404D01*
X81309228Y-93449404D02*
X81370180Y-93418928D01*
X81370180Y-93418928D02*
X81461609Y-93418928D01*
X81461609Y-93418928D02*
X81522561Y-93449404D01*
X81522561Y-93449404D02*
X81553038Y-93479881D01*
X81553038Y-93479881D02*
X81583514Y-93540833D01*
X81583514Y-93540833D02*
X81583514Y-93784643D01*
X81461609Y-92870357D02*
X81888276Y-92870357D01*
X81217800Y-93022738D02*
X81674942Y-93175119D01*
X81674942Y-93175119D02*
X81674942Y-92778928D01*
X81888276Y-92199880D02*
X81888276Y-92565595D01*
X81888276Y-92382738D02*
X81248276Y-92382738D01*
X81248276Y-92382738D02*
X81339704Y-92443690D01*
X81339704Y-92443690D02*
X81400657Y-92504642D01*
X81400657Y-92504642D02*
X81431133Y-92565595D01*
X97488571Y-136962323D02*
X97458095Y-136992800D01*
X97458095Y-136992800D02*
X97366666Y-137023276D01*
X97366666Y-137023276D02*
X97305714Y-137023276D01*
X97305714Y-137023276D02*
X97214285Y-136992800D01*
X97214285Y-136992800D02*
X97153333Y-136931847D01*
X97153333Y-136931847D02*
X97122856Y-136870895D01*
X97122856Y-136870895D02*
X97092380Y-136748990D01*
X97092380Y-136748990D02*
X97092380Y-136657561D01*
X97092380Y-136657561D02*
X97122856Y-136535657D01*
X97122856Y-136535657D02*
X97153333Y-136474704D01*
X97153333Y-136474704D02*
X97214285Y-136413752D01*
X97214285Y-136413752D02*
X97305714Y-136383276D01*
X97305714Y-136383276D02*
X97366666Y-136383276D01*
X97366666Y-136383276D02*
X97458095Y-136413752D01*
X97458095Y-136413752D02*
X97488571Y-136444228D01*
X97701904Y-136383276D02*
X98098095Y-136383276D01*
X98098095Y-136383276D02*
X97884761Y-136627085D01*
X97884761Y-136627085D02*
X97976190Y-136627085D01*
X97976190Y-136627085D02*
X98037142Y-136657561D01*
X98037142Y-136657561D02*
X98067618Y-136688038D01*
X98067618Y-136688038D02*
X98098095Y-136748990D01*
X98098095Y-136748990D02*
X98098095Y-136901371D01*
X98098095Y-136901371D02*
X98067618Y-136962323D01*
X98067618Y-136962323D02*
X98037142Y-136992800D01*
X98037142Y-136992800D02*
X97976190Y-137023276D01*
X97976190Y-137023276D02*
X97793333Y-137023276D01*
X97793333Y-137023276D02*
X97732380Y-136992800D01*
X97732380Y-136992800D02*
X97701904Y-136962323D01*
X98707619Y-137023276D02*
X98341904Y-137023276D01*
X98524761Y-137023276D02*
X98524761Y-136383276D01*
X98524761Y-136383276D02*
X98463809Y-136474704D01*
X98463809Y-136474704D02*
X98402857Y-136535657D01*
X98402857Y-136535657D02*
X98341904Y-136566133D01*
X98388571Y-127927323D02*
X98358095Y-127957800D01*
X98358095Y-127957800D02*
X98266666Y-127988276D01*
X98266666Y-127988276D02*
X98205714Y-127988276D01*
X98205714Y-127988276D02*
X98114285Y-127957800D01*
X98114285Y-127957800D02*
X98053333Y-127896847D01*
X98053333Y-127896847D02*
X98022856Y-127835895D01*
X98022856Y-127835895D02*
X97992380Y-127713990D01*
X97992380Y-127713990D02*
X97992380Y-127622561D01*
X97992380Y-127622561D02*
X98022856Y-127500657D01*
X98022856Y-127500657D02*
X98053333Y-127439704D01*
X98053333Y-127439704D02*
X98114285Y-127378752D01*
X98114285Y-127378752D02*
X98205714Y-127348276D01*
X98205714Y-127348276D02*
X98266666Y-127348276D01*
X98266666Y-127348276D02*
X98358095Y-127378752D01*
X98358095Y-127378752D02*
X98388571Y-127409228D01*
X98632380Y-127409228D02*
X98662856Y-127378752D01*
X98662856Y-127378752D02*
X98723809Y-127348276D01*
X98723809Y-127348276D02*
X98876190Y-127348276D01*
X98876190Y-127348276D02*
X98937142Y-127378752D01*
X98937142Y-127378752D02*
X98967618Y-127409228D01*
X98967618Y-127409228D02*
X98998095Y-127470180D01*
X98998095Y-127470180D02*
X98998095Y-127531133D01*
X98998095Y-127531133D02*
X98967618Y-127622561D01*
X98967618Y-127622561D02*
X98601904Y-127988276D01*
X98601904Y-127988276D02*
X98998095Y-127988276D01*
X99577142Y-127348276D02*
X99272380Y-127348276D01*
X99272380Y-127348276D02*
X99241904Y-127653038D01*
X99241904Y-127653038D02*
X99272380Y-127622561D01*
X99272380Y-127622561D02*
X99333333Y-127592085D01*
X99333333Y-127592085D02*
X99485714Y-127592085D01*
X99485714Y-127592085D02*
X99546666Y-127622561D01*
X99546666Y-127622561D02*
X99577142Y-127653038D01*
X99577142Y-127653038D02*
X99607619Y-127713990D01*
X99607619Y-127713990D02*
X99607619Y-127866371D01*
X99607619Y-127866371D02*
X99577142Y-127927323D01*
X99577142Y-127927323D02*
X99546666Y-127957800D01*
X99546666Y-127957800D02*
X99485714Y-127988276D01*
X99485714Y-127988276D02*
X99333333Y-127988276D01*
X99333333Y-127988276D02*
X99272380Y-127957800D01*
X99272380Y-127957800D02*
X99241904Y-127927323D01*
X100635119Y-98098276D02*
X101000833Y-98098276D01*
X100817976Y-98738276D02*
X100817976Y-98098276D01*
X101214166Y-98738276D02*
X101214166Y-98098276D01*
X101214166Y-98098276D02*
X101457976Y-98098276D01*
X101457976Y-98098276D02*
X101518928Y-98128752D01*
X101518928Y-98128752D02*
X101549405Y-98159228D01*
X101549405Y-98159228D02*
X101579881Y-98220180D01*
X101579881Y-98220180D02*
X101579881Y-98311609D01*
X101579881Y-98311609D02*
X101549405Y-98372561D01*
X101549405Y-98372561D02*
X101518928Y-98403038D01*
X101518928Y-98403038D02*
X101457976Y-98433514D01*
X101457976Y-98433514D02*
X101214166Y-98433514D01*
X102189405Y-98738276D02*
X101823690Y-98738276D01*
X102006547Y-98738276D02*
X102006547Y-98098276D01*
X102006547Y-98098276D02*
X101945595Y-98189704D01*
X101945595Y-98189704D02*
X101884643Y-98250657D01*
X101884643Y-98250657D02*
X101823690Y-98281133D01*
X102555119Y-98372561D02*
X102494167Y-98342085D01*
X102494167Y-98342085D02*
X102463690Y-98311609D01*
X102463690Y-98311609D02*
X102433214Y-98250657D01*
X102433214Y-98250657D02*
X102433214Y-98220180D01*
X102433214Y-98220180D02*
X102463690Y-98159228D01*
X102463690Y-98159228D02*
X102494167Y-98128752D01*
X102494167Y-98128752D02*
X102555119Y-98098276D01*
X102555119Y-98098276D02*
X102677024Y-98098276D01*
X102677024Y-98098276D02*
X102737976Y-98128752D01*
X102737976Y-98128752D02*
X102768452Y-98159228D01*
X102768452Y-98159228D02*
X102798929Y-98220180D01*
X102798929Y-98220180D02*
X102798929Y-98250657D01*
X102798929Y-98250657D02*
X102768452Y-98311609D01*
X102768452Y-98311609D02*
X102737976Y-98342085D01*
X102737976Y-98342085D02*
X102677024Y-98372561D01*
X102677024Y-98372561D02*
X102555119Y-98372561D01*
X102555119Y-98372561D02*
X102494167Y-98403038D01*
X102494167Y-98403038D02*
X102463690Y-98433514D01*
X102463690Y-98433514D02*
X102433214Y-98494466D01*
X102433214Y-98494466D02*
X102433214Y-98616371D01*
X102433214Y-98616371D02*
X102463690Y-98677323D01*
X102463690Y-98677323D02*
X102494167Y-98707800D01*
X102494167Y-98707800D02*
X102555119Y-98738276D01*
X102555119Y-98738276D02*
X102677024Y-98738276D01*
X102677024Y-98738276D02*
X102737976Y-98707800D01*
X102737976Y-98707800D02*
X102768452Y-98677323D01*
X102768452Y-98677323D02*
X102798929Y-98616371D01*
X102798929Y-98616371D02*
X102798929Y-98494466D01*
X102798929Y-98494466D02*
X102768452Y-98433514D01*
X102768452Y-98433514D02*
X102737976Y-98403038D01*
X102737976Y-98403038D02*
X102677024Y-98372561D01*
X99266667Y-135560538D02*
X99053333Y-135560538D01*
X99053333Y-135895776D02*
X99053333Y-135255776D01*
X99053333Y-135255776D02*
X99358095Y-135255776D01*
X99815238Y-135560538D02*
X99906666Y-135591014D01*
X99906666Y-135591014D02*
X99937143Y-135621490D01*
X99937143Y-135621490D02*
X99967619Y-135682442D01*
X99967619Y-135682442D02*
X99967619Y-135773871D01*
X99967619Y-135773871D02*
X99937143Y-135834823D01*
X99937143Y-135834823D02*
X99906666Y-135865300D01*
X99906666Y-135865300D02*
X99845714Y-135895776D01*
X99845714Y-135895776D02*
X99601904Y-135895776D01*
X99601904Y-135895776D02*
X99601904Y-135255776D01*
X99601904Y-135255776D02*
X99815238Y-135255776D01*
X99815238Y-135255776D02*
X99876190Y-135286252D01*
X99876190Y-135286252D02*
X99906666Y-135316728D01*
X99906666Y-135316728D02*
X99937143Y-135377680D01*
X99937143Y-135377680D02*
X99937143Y-135438633D01*
X99937143Y-135438633D02*
X99906666Y-135499585D01*
X99906666Y-135499585D02*
X99876190Y-135530061D01*
X99876190Y-135530061D02*
X99815238Y-135560538D01*
X99815238Y-135560538D02*
X99601904Y-135560538D01*
X100546666Y-135255776D02*
X100241904Y-135255776D01*
X100241904Y-135255776D02*
X100211428Y-135560538D01*
X100211428Y-135560538D02*
X100241904Y-135530061D01*
X100241904Y-135530061D02*
X100302857Y-135499585D01*
X100302857Y-135499585D02*
X100455238Y-135499585D01*
X100455238Y-135499585D02*
X100516190Y-135530061D01*
X100516190Y-135530061D02*
X100546666Y-135560538D01*
X100546666Y-135560538D02*
X100577143Y-135621490D01*
X100577143Y-135621490D02*
X100577143Y-135773871D01*
X100577143Y-135773871D02*
X100546666Y-135834823D01*
X100546666Y-135834823D02*
X100516190Y-135865300D01*
X100516190Y-135865300D02*
X100455238Y-135895776D01*
X100455238Y-135895776D02*
X100302857Y-135895776D01*
X100302857Y-135895776D02*
X100241904Y-135865300D01*
X100241904Y-135865300D02*
X100211428Y-135834823D01*
X90433723Y-97193428D02*
X90464200Y-97223904D01*
X90464200Y-97223904D02*
X90494676Y-97315333D01*
X90494676Y-97315333D02*
X90494676Y-97376285D01*
X90494676Y-97376285D02*
X90464200Y-97467714D01*
X90464200Y-97467714D02*
X90403247Y-97528666D01*
X90403247Y-97528666D02*
X90342295Y-97559143D01*
X90342295Y-97559143D02*
X90220390Y-97589619D01*
X90220390Y-97589619D02*
X90128961Y-97589619D01*
X90128961Y-97589619D02*
X90007057Y-97559143D01*
X90007057Y-97559143D02*
X89946104Y-97528666D01*
X89946104Y-97528666D02*
X89885152Y-97467714D01*
X89885152Y-97467714D02*
X89854676Y-97376285D01*
X89854676Y-97376285D02*
X89854676Y-97315333D01*
X89854676Y-97315333D02*
X89885152Y-97223904D01*
X89885152Y-97223904D02*
X89915628Y-97193428D01*
X89854676Y-96980095D02*
X89854676Y-96553428D01*
X89854676Y-96553428D02*
X90494676Y-96827714D01*
X89854676Y-96370571D02*
X89854676Y-95943904D01*
X89854676Y-95943904D02*
X90494676Y-96218190D01*
X93016667Y-102003038D02*
X92803333Y-102003038D01*
X92803333Y-102338276D02*
X92803333Y-101698276D01*
X92803333Y-101698276D02*
X93108095Y-101698276D01*
X93565238Y-102003038D02*
X93656666Y-102033514D01*
X93656666Y-102033514D02*
X93687143Y-102063990D01*
X93687143Y-102063990D02*
X93717619Y-102124942D01*
X93717619Y-102124942D02*
X93717619Y-102216371D01*
X93717619Y-102216371D02*
X93687143Y-102277323D01*
X93687143Y-102277323D02*
X93656666Y-102307800D01*
X93656666Y-102307800D02*
X93595714Y-102338276D01*
X93595714Y-102338276D02*
X93351904Y-102338276D01*
X93351904Y-102338276D02*
X93351904Y-101698276D01*
X93351904Y-101698276D02*
X93565238Y-101698276D01*
X93565238Y-101698276D02*
X93626190Y-101728752D01*
X93626190Y-101728752D02*
X93656666Y-101759228D01*
X93656666Y-101759228D02*
X93687143Y-101820180D01*
X93687143Y-101820180D02*
X93687143Y-101881133D01*
X93687143Y-101881133D02*
X93656666Y-101942085D01*
X93656666Y-101942085D02*
X93626190Y-101972561D01*
X93626190Y-101972561D02*
X93565238Y-102003038D01*
X93565238Y-102003038D02*
X93351904Y-102003038D01*
X94266190Y-101698276D02*
X94144285Y-101698276D01*
X94144285Y-101698276D02*
X94083333Y-101728752D01*
X94083333Y-101728752D02*
X94052857Y-101759228D01*
X94052857Y-101759228D02*
X93991904Y-101850657D01*
X93991904Y-101850657D02*
X93961428Y-101972561D01*
X93961428Y-101972561D02*
X93961428Y-102216371D01*
X93961428Y-102216371D02*
X93991904Y-102277323D01*
X93991904Y-102277323D02*
X94022381Y-102307800D01*
X94022381Y-102307800D02*
X94083333Y-102338276D01*
X94083333Y-102338276D02*
X94205238Y-102338276D01*
X94205238Y-102338276D02*
X94266190Y-102307800D01*
X94266190Y-102307800D02*
X94296666Y-102277323D01*
X94296666Y-102277323D02*
X94327143Y-102216371D01*
X94327143Y-102216371D02*
X94327143Y-102063990D01*
X94327143Y-102063990D02*
X94296666Y-102003038D01*
X94296666Y-102003038D02*
X94266190Y-101972561D01*
X94266190Y-101972561D02*
X94205238Y-101942085D01*
X94205238Y-101942085D02*
X94083333Y-101942085D01*
X94083333Y-101942085D02*
X94022381Y-101972561D01*
X94022381Y-101972561D02*
X93991904Y-102003038D01*
X93991904Y-102003038D02*
X93961428Y-102063990D01*
X83227323Y-97118928D02*
X83257800Y-97149404D01*
X83257800Y-97149404D02*
X83288276Y-97240833D01*
X83288276Y-97240833D02*
X83288276Y-97301785D01*
X83288276Y-97301785D02*
X83257800Y-97393214D01*
X83257800Y-97393214D02*
X83196847Y-97454166D01*
X83196847Y-97454166D02*
X83135895Y-97484643D01*
X83135895Y-97484643D02*
X83013990Y-97515119D01*
X83013990Y-97515119D02*
X82922561Y-97515119D01*
X82922561Y-97515119D02*
X82800657Y-97484643D01*
X82800657Y-97484643D02*
X82739704Y-97454166D01*
X82739704Y-97454166D02*
X82678752Y-97393214D01*
X82678752Y-97393214D02*
X82648276Y-97301785D01*
X82648276Y-97301785D02*
X82648276Y-97240833D01*
X82648276Y-97240833D02*
X82678752Y-97149404D01*
X82678752Y-97149404D02*
X82709228Y-97118928D01*
X82648276Y-96905595D02*
X82648276Y-96478928D01*
X82648276Y-96478928D02*
X83288276Y-96753214D01*
X82922561Y-96143690D02*
X82892085Y-96204642D01*
X82892085Y-96204642D02*
X82861609Y-96235119D01*
X82861609Y-96235119D02*
X82800657Y-96265595D01*
X82800657Y-96265595D02*
X82770180Y-96265595D01*
X82770180Y-96265595D02*
X82709228Y-96235119D01*
X82709228Y-96235119D02*
X82678752Y-96204642D01*
X82678752Y-96204642D02*
X82648276Y-96143690D01*
X82648276Y-96143690D02*
X82648276Y-96021785D01*
X82648276Y-96021785D02*
X82678752Y-95960833D01*
X82678752Y-95960833D02*
X82709228Y-95930357D01*
X82709228Y-95930357D02*
X82770180Y-95899880D01*
X82770180Y-95899880D02*
X82800657Y-95899880D01*
X82800657Y-95899880D02*
X82861609Y-95930357D01*
X82861609Y-95930357D02*
X82892085Y-95960833D01*
X82892085Y-95960833D02*
X82922561Y-96021785D01*
X82922561Y-96021785D02*
X82922561Y-96143690D01*
X82922561Y-96143690D02*
X82953038Y-96204642D01*
X82953038Y-96204642D02*
X82983514Y-96235119D01*
X82983514Y-96235119D02*
X83044466Y-96265595D01*
X83044466Y-96265595D02*
X83166371Y-96265595D01*
X83166371Y-96265595D02*
X83227323Y-96235119D01*
X83227323Y-96235119D02*
X83257800Y-96204642D01*
X83257800Y-96204642D02*
X83288276Y-96143690D01*
X83288276Y-96143690D02*
X83288276Y-96021785D01*
X83288276Y-96021785D02*
X83257800Y-95960833D01*
X83257800Y-95960833D02*
X83227323Y-95930357D01*
X83227323Y-95930357D02*
X83166371Y-95899880D01*
X83166371Y-95899880D02*
X83044466Y-95899880D01*
X83044466Y-95899880D02*
X82983514Y-95930357D01*
X82983514Y-95930357D02*
X82953038Y-95960833D01*
X82953038Y-95960833D02*
X82922561Y-96021785D01*
X86266667Y-101860538D02*
X86053333Y-101860538D01*
X86053333Y-102195776D02*
X86053333Y-101555776D01*
X86053333Y-101555776D02*
X86358095Y-101555776D01*
X86815238Y-101860538D02*
X86906666Y-101891014D01*
X86906666Y-101891014D02*
X86937143Y-101921490D01*
X86937143Y-101921490D02*
X86967619Y-101982442D01*
X86967619Y-101982442D02*
X86967619Y-102073871D01*
X86967619Y-102073871D02*
X86937143Y-102134823D01*
X86937143Y-102134823D02*
X86906666Y-102165300D01*
X86906666Y-102165300D02*
X86845714Y-102195776D01*
X86845714Y-102195776D02*
X86601904Y-102195776D01*
X86601904Y-102195776D02*
X86601904Y-101555776D01*
X86601904Y-101555776D02*
X86815238Y-101555776D01*
X86815238Y-101555776D02*
X86876190Y-101586252D01*
X86876190Y-101586252D02*
X86906666Y-101616728D01*
X86906666Y-101616728D02*
X86937143Y-101677680D01*
X86937143Y-101677680D02*
X86937143Y-101738633D01*
X86937143Y-101738633D02*
X86906666Y-101799585D01*
X86906666Y-101799585D02*
X86876190Y-101830061D01*
X86876190Y-101830061D02*
X86815238Y-101860538D01*
X86815238Y-101860538D02*
X86601904Y-101860538D01*
X87333333Y-101830061D02*
X87272381Y-101799585D01*
X87272381Y-101799585D02*
X87241904Y-101769109D01*
X87241904Y-101769109D02*
X87211428Y-101708157D01*
X87211428Y-101708157D02*
X87211428Y-101677680D01*
X87211428Y-101677680D02*
X87241904Y-101616728D01*
X87241904Y-101616728D02*
X87272381Y-101586252D01*
X87272381Y-101586252D02*
X87333333Y-101555776D01*
X87333333Y-101555776D02*
X87455238Y-101555776D01*
X87455238Y-101555776D02*
X87516190Y-101586252D01*
X87516190Y-101586252D02*
X87546666Y-101616728D01*
X87546666Y-101616728D02*
X87577143Y-101677680D01*
X87577143Y-101677680D02*
X87577143Y-101708157D01*
X87577143Y-101708157D02*
X87546666Y-101769109D01*
X87546666Y-101769109D02*
X87516190Y-101799585D01*
X87516190Y-101799585D02*
X87455238Y-101830061D01*
X87455238Y-101830061D02*
X87333333Y-101830061D01*
X87333333Y-101830061D02*
X87272381Y-101860538D01*
X87272381Y-101860538D02*
X87241904Y-101891014D01*
X87241904Y-101891014D02*
X87211428Y-101951966D01*
X87211428Y-101951966D02*
X87211428Y-102073871D01*
X87211428Y-102073871D02*
X87241904Y-102134823D01*
X87241904Y-102134823D02*
X87272381Y-102165300D01*
X87272381Y-102165300D02*
X87333333Y-102195776D01*
X87333333Y-102195776D02*
X87455238Y-102195776D01*
X87455238Y-102195776D02*
X87516190Y-102165300D01*
X87516190Y-102165300D02*
X87546666Y-102134823D01*
X87546666Y-102134823D02*
X87577143Y-102073871D01*
X87577143Y-102073871D02*
X87577143Y-101951966D01*
X87577143Y-101951966D02*
X87546666Y-101891014D01*
X87546666Y-101891014D02*
X87516190Y-101860538D01*
X87516190Y-101860538D02*
X87455238Y-101830061D01*
X92804071Y-100883723D02*
X92773595Y-100914200D01*
X92773595Y-100914200D02*
X92682166Y-100944676D01*
X92682166Y-100944676D02*
X92621214Y-100944676D01*
X92621214Y-100944676D02*
X92529785Y-100914200D01*
X92529785Y-100914200D02*
X92468833Y-100853247D01*
X92468833Y-100853247D02*
X92438356Y-100792295D01*
X92438356Y-100792295D02*
X92407880Y-100670390D01*
X92407880Y-100670390D02*
X92407880Y-100578961D01*
X92407880Y-100578961D02*
X92438356Y-100457057D01*
X92438356Y-100457057D02*
X92468833Y-100396104D01*
X92468833Y-100396104D02*
X92529785Y-100335152D01*
X92529785Y-100335152D02*
X92621214Y-100304676D01*
X92621214Y-100304676D02*
X92682166Y-100304676D01*
X92682166Y-100304676D02*
X92773595Y-100335152D01*
X92773595Y-100335152D02*
X92804071Y-100365628D01*
X93352642Y-100518009D02*
X93352642Y-100944676D01*
X93200261Y-100274200D02*
X93047880Y-100731342D01*
X93047880Y-100731342D02*
X93444071Y-100731342D01*
X93657404Y-100365628D02*
X93687880Y-100335152D01*
X93687880Y-100335152D02*
X93748833Y-100304676D01*
X93748833Y-100304676D02*
X93901214Y-100304676D01*
X93901214Y-100304676D02*
X93962166Y-100335152D01*
X93962166Y-100335152D02*
X93992642Y-100365628D01*
X93992642Y-100365628D02*
X94023119Y-100426580D01*
X94023119Y-100426580D02*
X94023119Y-100487533D01*
X94023119Y-100487533D02*
X93992642Y-100578961D01*
X93992642Y-100578961D02*
X93626928Y-100944676D01*
X93626928Y-100944676D02*
X94023119Y-100944676D01*
X100535776Y-100361428D02*
X100231014Y-100574762D01*
X100535776Y-100727143D02*
X99895776Y-100727143D01*
X99895776Y-100727143D02*
X99895776Y-100483333D01*
X99895776Y-100483333D02*
X99926252Y-100422381D01*
X99926252Y-100422381D02*
X99956728Y-100391904D01*
X99956728Y-100391904D02*
X100017680Y-100361428D01*
X100017680Y-100361428D02*
X100109109Y-100361428D01*
X100109109Y-100361428D02*
X100170061Y-100391904D01*
X100170061Y-100391904D02*
X100200538Y-100422381D01*
X100200538Y-100422381D02*
X100231014Y-100483333D01*
X100231014Y-100483333D02*
X100231014Y-100727143D01*
X100109109Y-99812857D02*
X100535776Y-99812857D01*
X99865300Y-99965238D02*
X100322442Y-100117619D01*
X100322442Y-100117619D02*
X100322442Y-99721428D01*
X99895776Y-99355714D02*
X99895776Y-99294761D01*
X99895776Y-99294761D02*
X99926252Y-99233809D01*
X99926252Y-99233809D02*
X99956728Y-99203333D01*
X99956728Y-99203333D02*
X100017680Y-99172857D01*
X100017680Y-99172857D02*
X100139585Y-99142380D01*
X100139585Y-99142380D02*
X100291966Y-99142380D01*
X100291966Y-99142380D02*
X100413871Y-99172857D01*
X100413871Y-99172857D02*
X100474823Y-99203333D01*
X100474823Y-99203333D02*
X100505300Y-99233809D01*
X100505300Y-99233809D02*
X100535776Y-99294761D01*
X100535776Y-99294761D02*
X100535776Y-99355714D01*
X100535776Y-99355714D02*
X100505300Y-99416666D01*
X100505300Y-99416666D02*
X100474823Y-99447142D01*
X100474823Y-99447142D02*
X100413871Y-99477619D01*
X100413871Y-99477619D02*
X100291966Y-99508095D01*
X100291966Y-99508095D02*
X100139585Y-99508095D01*
X100139585Y-99508095D02*
X100017680Y-99477619D01*
X100017680Y-99477619D02*
X99956728Y-99447142D01*
X99956728Y-99447142D02*
X99926252Y-99416666D01*
X99926252Y-99416666D02*
X99895776Y-99355714D01*
X89256571Y-96733723D02*
X89226095Y-96764200D01*
X89226095Y-96764200D02*
X89134666Y-96794676D01*
X89134666Y-96794676D02*
X89073714Y-96794676D01*
X89073714Y-96794676D02*
X88982285Y-96764200D01*
X88982285Y-96764200D02*
X88921333Y-96703247D01*
X88921333Y-96703247D02*
X88890856Y-96642295D01*
X88890856Y-96642295D02*
X88860380Y-96520390D01*
X88860380Y-96520390D02*
X88860380Y-96428961D01*
X88860380Y-96428961D02*
X88890856Y-96307057D01*
X88890856Y-96307057D02*
X88921333Y-96246104D01*
X88921333Y-96246104D02*
X88982285Y-96185152D01*
X88982285Y-96185152D02*
X89073714Y-96154676D01*
X89073714Y-96154676D02*
X89134666Y-96154676D01*
X89134666Y-96154676D02*
X89226095Y-96185152D01*
X89226095Y-96185152D02*
X89256571Y-96215628D01*
X89805142Y-96154676D02*
X89683237Y-96154676D01*
X89683237Y-96154676D02*
X89622285Y-96185152D01*
X89622285Y-96185152D02*
X89591809Y-96215628D01*
X89591809Y-96215628D02*
X89530856Y-96307057D01*
X89530856Y-96307057D02*
X89500380Y-96428961D01*
X89500380Y-96428961D02*
X89500380Y-96672771D01*
X89500380Y-96672771D02*
X89530856Y-96733723D01*
X89530856Y-96733723D02*
X89561333Y-96764200D01*
X89561333Y-96764200D02*
X89622285Y-96794676D01*
X89622285Y-96794676D02*
X89744190Y-96794676D01*
X89744190Y-96794676D02*
X89805142Y-96764200D01*
X89805142Y-96764200D02*
X89835618Y-96733723D01*
X89835618Y-96733723D02*
X89866095Y-96672771D01*
X89866095Y-96672771D02*
X89866095Y-96520390D01*
X89866095Y-96520390D02*
X89835618Y-96459438D01*
X89835618Y-96459438D02*
X89805142Y-96428961D01*
X89805142Y-96428961D02*
X89744190Y-96398485D01*
X89744190Y-96398485D02*
X89622285Y-96398485D01*
X89622285Y-96398485D02*
X89561333Y-96428961D01*
X89561333Y-96428961D02*
X89530856Y-96459438D01*
X89530856Y-96459438D02*
X89500380Y-96520390D01*
X90231809Y-96428961D02*
X90170857Y-96398485D01*
X90170857Y-96398485D02*
X90140380Y-96368009D01*
X90140380Y-96368009D02*
X90109904Y-96307057D01*
X90109904Y-96307057D02*
X90109904Y-96276580D01*
X90109904Y-96276580D02*
X90140380Y-96215628D01*
X90140380Y-96215628D02*
X90170857Y-96185152D01*
X90170857Y-96185152D02*
X90231809Y-96154676D01*
X90231809Y-96154676D02*
X90353714Y-96154676D01*
X90353714Y-96154676D02*
X90414666Y-96185152D01*
X90414666Y-96185152D02*
X90445142Y-96215628D01*
X90445142Y-96215628D02*
X90475619Y-96276580D01*
X90475619Y-96276580D02*
X90475619Y-96307057D01*
X90475619Y-96307057D02*
X90445142Y-96368009D01*
X90445142Y-96368009D02*
X90414666Y-96398485D01*
X90414666Y-96398485D02*
X90353714Y-96428961D01*
X90353714Y-96428961D02*
X90231809Y-96428961D01*
X90231809Y-96428961D02*
X90170857Y-96459438D01*
X90170857Y-96459438D02*
X90140380Y-96489914D01*
X90140380Y-96489914D02*
X90109904Y-96550866D01*
X90109904Y-96550866D02*
X90109904Y-96672771D01*
X90109904Y-96672771D02*
X90140380Y-96733723D01*
X90140380Y-96733723D02*
X90170857Y-96764200D01*
X90170857Y-96764200D02*
X90231809Y-96794676D01*
X90231809Y-96794676D02*
X90353714Y-96794676D01*
X90353714Y-96794676D02*
X90414666Y-96764200D01*
X90414666Y-96764200D02*
X90445142Y-96733723D01*
X90445142Y-96733723D02*
X90475619Y-96672771D01*
X90475619Y-96672771D02*
X90475619Y-96550866D01*
X90475619Y-96550866D02*
X90445142Y-96489914D01*
X90445142Y-96489914D02*
X90414666Y-96459438D01*
X90414666Y-96459438D02*
X90353714Y-96428961D01*
X98927323Y-124018928D02*
X98957800Y-124049404D01*
X98957800Y-124049404D02*
X98988276Y-124140833D01*
X98988276Y-124140833D02*
X98988276Y-124201785D01*
X98988276Y-124201785D02*
X98957800Y-124293214D01*
X98957800Y-124293214D02*
X98896847Y-124354166D01*
X98896847Y-124354166D02*
X98835895Y-124384643D01*
X98835895Y-124384643D02*
X98713990Y-124415119D01*
X98713990Y-124415119D02*
X98622561Y-124415119D01*
X98622561Y-124415119D02*
X98500657Y-124384643D01*
X98500657Y-124384643D02*
X98439704Y-124354166D01*
X98439704Y-124354166D02*
X98378752Y-124293214D01*
X98378752Y-124293214D02*
X98348276Y-124201785D01*
X98348276Y-124201785D02*
X98348276Y-124140833D01*
X98348276Y-124140833D02*
X98378752Y-124049404D01*
X98378752Y-124049404D02*
X98409228Y-124018928D01*
X98409228Y-123775119D02*
X98378752Y-123744643D01*
X98378752Y-123744643D02*
X98348276Y-123683690D01*
X98348276Y-123683690D02*
X98348276Y-123531309D01*
X98348276Y-123531309D02*
X98378752Y-123470357D01*
X98378752Y-123470357D02*
X98409228Y-123439881D01*
X98409228Y-123439881D02*
X98470180Y-123409404D01*
X98470180Y-123409404D02*
X98531133Y-123409404D01*
X98531133Y-123409404D02*
X98622561Y-123439881D01*
X98622561Y-123439881D02*
X98988276Y-123805595D01*
X98988276Y-123805595D02*
X98988276Y-123409404D01*
X98348276Y-123013214D02*
X98348276Y-122952261D01*
X98348276Y-122952261D02*
X98378752Y-122891309D01*
X98378752Y-122891309D02*
X98409228Y-122860833D01*
X98409228Y-122860833D02*
X98470180Y-122830357D01*
X98470180Y-122830357D02*
X98592085Y-122799880D01*
X98592085Y-122799880D02*
X98744466Y-122799880D01*
X98744466Y-122799880D02*
X98866371Y-122830357D01*
X98866371Y-122830357D02*
X98927323Y-122860833D01*
X98927323Y-122860833D02*
X98957800Y-122891309D01*
X98957800Y-122891309D02*
X98988276Y-122952261D01*
X98988276Y-122952261D02*
X98988276Y-123013214D01*
X98988276Y-123013214D02*
X98957800Y-123074166D01*
X98957800Y-123074166D02*
X98927323Y-123104642D01*
X98927323Y-123104642D02*
X98866371Y-123135119D01*
X98866371Y-123135119D02*
X98744466Y-123165595D01*
X98744466Y-123165595D02*
X98592085Y-123165595D01*
X98592085Y-123165595D02*
X98470180Y-123135119D01*
X98470180Y-123135119D02*
X98409228Y-123104642D01*
X98409228Y-123104642D02*
X98378752Y-123074166D01*
X98378752Y-123074166D02*
X98348276Y-123013214D01*
X88316093Y-92353113D02*
X88316093Y-92657875D01*
X88316093Y-92657875D02*
X87676093Y-92657875D01*
X87889426Y-91865494D02*
X88316093Y-91865494D01*
X87645617Y-92017875D02*
X88102759Y-92170256D01*
X88102759Y-92170256D02*
X88102759Y-91774065D01*
X95593333Y-118688276D02*
X95379999Y-118383514D01*
X95227618Y-118688276D02*
X95227618Y-118048276D01*
X95227618Y-118048276D02*
X95471428Y-118048276D01*
X95471428Y-118048276D02*
X95532380Y-118078752D01*
X95532380Y-118078752D02*
X95562857Y-118109228D01*
X95562857Y-118109228D02*
X95593333Y-118170180D01*
X95593333Y-118170180D02*
X95593333Y-118261609D01*
X95593333Y-118261609D02*
X95562857Y-118322561D01*
X95562857Y-118322561D02*
X95532380Y-118353038D01*
X95532380Y-118353038D02*
X95471428Y-118383514D01*
X95471428Y-118383514D02*
X95227618Y-118383514D01*
X95898095Y-118688276D02*
X96019999Y-118688276D01*
X96019999Y-118688276D02*
X96080952Y-118657800D01*
X96080952Y-118657800D02*
X96111428Y-118627323D01*
X96111428Y-118627323D02*
X96172380Y-118535895D01*
X96172380Y-118535895D02*
X96202857Y-118413990D01*
X96202857Y-118413990D02*
X96202857Y-118170180D01*
X96202857Y-118170180D02*
X96172380Y-118109228D01*
X96172380Y-118109228D02*
X96141904Y-118078752D01*
X96141904Y-118078752D02*
X96080952Y-118048276D01*
X96080952Y-118048276D02*
X95959047Y-118048276D01*
X95959047Y-118048276D02*
X95898095Y-118078752D01*
X95898095Y-118078752D02*
X95867618Y-118109228D01*
X95867618Y-118109228D02*
X95837142Y-118170180D01*
X95837142Y-118170180D02*
X95837142Y-118322561D01*
X95837142Y-118322561D02*
X95867618Y-118383514D01*
X95867618Y-118383514D02*
X95898095Y-118413990D01*
X95898095Y-118413990D02*
X95959047Y-118444466D01*
X95959047Y-118444466D02*
X96080952Y-118444466D01*
X96080952Y-118444466D02*
X96141904Y-118413990D01*
X96141904Y-118413990D02*
X96172380Y-118383514D01*
X96172380Y-118383514D02*
X96202857Y-118322561D01*
X99166667Y-159760538D02*
X98953333Y-159760538D01*
X98953333Y-160095776D02*
X98953333Y-159455776D01*
X98953333Y-159455776D02*
X99258095Y-159455776D01*
X99715238Y-159760538D02*
X99806666Y-159791014D01*
X99806666Y-159791014D02*
X99837143Y-159821490D01*
X99837143Y-159821490D02*
X99867619Y-159882442D01*
X99867619Y-159882442D02*
X99867619Y-159973871D01*
X99867619Y-159973871D02*
X99837143Y-160034823D01*
X99837143Y-160034823D02*
X99806666Y-160065300D01*
X99806666Y-160065300D02*
X99745714Y-160095776D01*
X99745714Y-160095776D02*
X99501904Y-160095776D01*
X99501904Y-160095776D02*
X99501904Y-159455776D01*
X99501904Y-159455776D02*
X99715238Y-159455776D01*
X99715238Y-159455776D02*
X99776190Y-159486252D01*
X99776190Y-159486252D02*
X99806666Y-159516728D01*
X99806666Y-159516728D02*
X99837143Y-159577680D01*
X99837143Y-159577680D02*
X99837143Y-159638633D01*
X99837143Y-159638633D02*
X99806666Y-159699585D01*
X99806666Y-159699585D02*
X99776190Y-159730061D01*
X99776190Y-159730061D02*
X99715238Y-159760538D01*
X99715238Y-159760538D02*
X99501904Y-159760538D01*
X100172381Y-160095776D02*
X100294285Y-160095776D01*
X100294285Y-160095776D02*
X100355238Y-160065300D01*
X100355238Y-160065300D02*
X100385714Y-160034823D01*
X100385714Y-160034823D02*
X100446666Y-159943395D01*
X100446666Y-159943395D02*
X100477143Y-159821490D01*
X100477143Y-159821490D02*
X100477143Y-159577680D01*
X100477143Y-159577680D02*
X100446666Y-159516728D01*
X100446666Y-159516728D02*
X100416190Y-159486252D01*
X100416190Y-159486252D02*
X100355238Y-159455776D01*
X100355238Y-159455776D02*
X100233333Y-159455776D01*
X100233333Y-159455776D02*
X100172381Y-159486252D01*
X100172381Y-159486252D02*
X100141904Y-159516728D01*
X100141904Y-159516728D02*
X100111428Y-159577680D01*
X100111428Y-159577680D02*
X100111428Y-159730061D01*
X100111428Y-159730061D02*
X100141904Y-159791014D01*
X100141904Y-159791014D02*
X100172381Y-159821490D01*
X100172381Y-159821490D02*
X100233333Y-159851966D01*
X100233333Y-159851966D02*
X100355238Y-159851966D01*
X100355238Y-159851966D02*
X100416190Y-159821490D01*
X100416190Y-159821490D02*
X100446666Y-159791014D01*
X100446666Y-159791014D02*
X100477143Y-159730061D01*
X82082323Y-97118928D02*
X82112800Y-97149404D01*
X82112800Y-97149404D02*
X82143276Y-97240833D01*
X82143276Y-97240833D02*
X82143276Y-97301785D01*
X82143276Y-97301785D02*
X82112800Y-97393214D01*
X82112800Y-97393214D02*
X82051847Y-97454166D01*
X82051847Y-97454166D02*
X81990895Y-97484643D01*
X81990895Y-97484643D02*
X81868990Y-97515119D01*
X81868990Y-97515119D02*
X81777561Y-97515119D01*
X81777561Y-97515119D02*
X81655657Y-97484643D01*
X81655657Y-97484643D02*
X81594704Y-97454166D01*
X81594704Y-97454166D02*
X81533752Y-97393214D01*
X81533752Y-97393214D02*
X81503276Y-97301785D01*
X81503276Y-97301785D02*
X81503276Y-97240833D01*
X81503276Y-97240833D02*
X81533752Y-97149404D01*
X81533752Y-97149404D02*
X81564228Y-97118928D01*
X81503276Y-96905595D02*
X81503276Y-96478928D01*
X81503276Y-96478928D02*
X82143276Y-96753214D01*
X81503276Y-95930357D02*
X81503276Y-96235119D01*
X81503276Y-96235119D02*
X81808038Y-96265595D01*
X81808038Y-96265595D02*
X81777561Y-96235119D01*
X81777561Y-96235119D02*
X81747085Y-96174166D01*
X81747085Y-96174166D02*
X81747085Y-96021785D01*
X81747085Y-96021785D02*
X81777561Y-95960833D01*
X81777561Y-95960833D02*
X81808038Y-95930357D01*
X81808038Y-95930357D02*
X81868990Y-95899880D01*
X81868990Y-95899880D02*
X82021371Y-95899880D01*
X82021371Y-95899880D02*
X82082323Y-95930357D01*
X82082323Y-95930357D02*
X82112800Y-95960833D01*
X82112800Y-95960833D02*
X82143276Y-96021785D01*
X82143276Y-96021785D02*
X82143276Y-96174166D01*
X82143276Y-96174166D02*
X82112800Y-96235119D01*
X82112800Y-96235119D02*
X82082323Y-96265595D01*
X80427618Y-141888276D02*
X80427618Y-141248276D01*
X80427618Y-141248276D02*
X80579999Y-141248276D01*
X80579999Y-141248276D02*
X80671428Y-141278752D01*
X80671428Y-141278752D02*
X80732380Y-141339704D01*
X80732380Y-141339704D02*
X80762857Y-141400657D01*
X80762857Y-141400657D02*
X80793333Y-141522561D01*
X80793333Y-141522561D02*
X80793333Y-141613990D01*
X80793333Y-141613990D02*
X80762857Y-141735895D01*
X80762857Y-141735895D02*
X80732380Y-141796847D01*
X80732380Y-141796847D02*
X80671428Y-141857800D01*
X80671428Y-141857800D02*
X80579999Y-141888276D01*
X80579999Y-141888276D02*
X80427618Y-141888276D01*
X81037142Y-141309228D02*
X81067618Y-141278752D01*
X81067618Y-141278752D02*
X81128571Y-141248276D01*
X81128571Y-141248276D02*
X81280952Y-141248276D01*
X81280952Y-141248276D02*
X81341904Y-141278752D01*
X81341904Y-141278752D02*
X81372380Y-141309228D01*
X81372380Y-141309228D02*
X81402857Y-141370180D01*
X81402857Y-141370180D02*
X81402857Y-141431133D01*
X81402857Y-141431133D02*
X81372380Y-141522561D01*
X81372380Y-141522561D02*
X81006666Y-141888276D01*
X81006666Y-141888276D02*
X81402857Y-141888276D01*
X100185317Y-142543666D02*
X100185317Y-142586766D01*
X100185317Y-142586766D02*
X100142217Y-142672966D01*
X100142217Y-142672966D02*
X100099117Y-142716066D01*
X100099117Y-142716066D02*
X100012918Y-142759166D01*
X100012918Y-142759166D02*
X99926718Y-142759166D01*
X99926718Y-142759166D02*
X99862068Y-142737616D01*
X99862068Y-142737616D02*
X99754318Y-142672966D01*
X99754318Y-142672966D02*
X99689669Y-142608316D01*
X99689669Y-142608316D02*
X99625019Y-142500567D01*
X99625019Y-142500567D02*
X99603469Y-142435917D01*
X99603469Y-142435917D02*
X99603469Y-142349717D01*
X99603469Y-142349717D02*
X99646569Y-142263518D01*
X99646569Y-142263518D02*
X99689669Y-142220418D01*
X99689669Y-142220418D02*
X99775868Y-142177318D01*
X99775868Y-142177318D02*
X99818968Y-142177318D01*
X99991368Y-142004918D02*
X99991368Y-141961819D01*
X99991368Y-141961819D02*
X100012918Y-141897169D01*
X100012918Y-141897169D02*
X100120667Y-141789419D01*
X100120667Y-141789419D02*
X100185317Y-141767869D01*
X100185317Y-141767869D02*
X100228417Y-141767869D01*
X100228417Y-141767869D02*
X100293067Y-141789419D01*
X100293067Y-141789419D02*
X100336166Y-141832519D01*
X100336166Y-141832519D02*
X100379266Y-141918719D01*
X100379266Y-141918719D02*
X100379266Y-142435917D01*
X100379266Y-142435917D02*
X100659415Y-142155768D01*
X88212380Y-90698276D02*
X88212380Y-91216371D01*
X88212380Y-91216371D02*
X88242857Y-91277323D01*
X88242857Y-91277323D02*
X88273333Y-91307800D01*
X88273333Y-91307800D02*
X88334285Y-91338276D01*
X88334285Y-91338276D02*
X88456190Y-91338276D01*
X88456190Y-91338276D02*
X88517142Y-91307800D01*
X88517142Y-91307800D02*
X88547619Y-91277323D01*
X88547619Y-91277323D02*
X88578095Y-91216371D01*
X88578095Y-91216371D02*
X88578095Y-90698276D01*
X89187618Y-90698276D02*
X88882856Y-90698276D01*
X88882856Y-90698276D02*
X88852380Y-91003038D01*
X88852380Y-91003038D02*
X88882856Y-90972561D01*
X88882856Y-90972561D02*
X88943809Y-90942085D01*
X88943809Y-90942085D02*
X89096190Y-90942085D01*
X89096190Y-90942085D02*
X89157142Y-90972561D01*
X89157142Y-90972561D02*
X89187618Y-91003038D01*
X89187618Y-91003038D02*
X89218095Y-91063990D01*
X89218095Y-91063990D02*
X89218095Y-91216371D01*
X89218095Y-91216371D02*
X89187618Y-91277323D01*
X89187618Y-91277323D02*
X89157142Y-91307800D01*
X89157142Y-91307800D02*
X89096190Y-91338276D01*
X89096190Y-91338276D02*
X88943809Y-91338276D01*
X88943809Y-91338276D02*
X88882856Y-91307800D01*
X88882856Y-91307800D02*
X88852380Y-91277323D01*
X86188571Y-142795776D02*
X85975237Y-142491014D01*
X85822856Y-142795776D02*
X85822856Y-142155776D01*
X85822856Y-142155776D02*
X86066666Y-142155776D01*
X86066666Y-142155776D02*
X86127618Y-142186252D01*
X86127618Y-142186252D02*
X86158095Y-142216728D01*
X86158095Y-142216728D02*
X86188571Y-142277680D01*
X86188571Y-142277680D02*
X86188571Y-142369109D01*
X86188571Y-142369109D02*
X86158095Y-142430061D01*
X86158095Y-142430061D02*
X86127618Y-142460538D01*
X86127618Y-142460538D02*
X86066666Y-142491014D01*
X86066666Y-142491014D02*
X85822856Y-142491014D01*
X86767618Y-142155776D02*
X86462856Y-142155776D01*
X86462856Y-142155776D02*
X86432380Y-142460538D01*
X86432380Y-142460538D02*
X86462856Y-142430061D01*
X86462856Y-142430061D02*
X86523809Y-142399585D01*
X86523809Y-142399585D02*
X86676190Y-142399585D01*
X86676190Y-142399585D02*
X86737142Y-142430061D01*
X86737142Y-142430061D02*
X86767618Y-142460538D01*
X86767618Y-142460538D02*
X86798095Y-142521490D01*
X86798095Y-142521490D02*
X86798095Y-142673871D01*
X86798095Y-142673871D02*
X86767618Y-142734823D01*
X86767618Y-142734823D02*
X86737142Y-142765300D01*
X86737142Y-142765300D02*
X86676190Y-142795776D01*
X86676190Y-142795776D02*
X86523809Y-142795776D01*
X86523809Y-142795776D02*
X86462856Y-142765300D01*
X86462856Y-142765300D02*
X86432380Y-142734823D01*
X87011428Y-142155776D02*
X87438095Y-142155776D01*
X87438095Y-142155776D02*
X87163809Y-142795776D01*
X87312380Y-99455776D02*
X87312380Y-99973871D01*
X87312380Y-99973871D02*
X87342857Y-100034823D01*
X87342857Y-100034823D02*
X87373333Y-100065300D01*
X87373333Y-100065300D02*
X87434285Y-100095776D01*
X87434285Y-100095776D02*
X87556190Y-100095776D01*
X87556190Y-100095776D02*
X87617142Y-100065300D01*
X87617142Y-100065300D02*
X87647619Y-100034823D01*
X87647619Y-100034823D02*
X87678095Y-99973871D01*
X87678095Y-99973871D02*
X87678095Y-99455776D01*
X88318095Y-100095776D02*
X87952380Y-100095776D01*
X88135237Y-100095776D02*
X88135237Y-99455776D01*
X88135237Y-99455776D02*
X88074285Y-99547204D01*
X88074285Y-99547204D02*
X88013333Y-99608157D01*
X88013333Y-99608157D02*
X87952380Y-99638633D01*
X94795238Y-124591014D02*
X94795238Y-124895776D01*
X94581905Y-124255776D02*
X94795238Y-124591014D01*
X94795238Y-124591014D02*
X95008572Y-124255776D01*
X95160952Y-124255776D02*
X95557143Y-124255776D01*
X95557143Y-124255776D02*
X95343809Y-124499585D01*
X95343809Y-124499585D02*
X95435238Y-124499585D01*
X95435238Y-124499585D02*
X95496190Y-124530061D01*
X95496190Y-124530061D02*
X95526666Y-124560538D01*
X95526666Y-124560538D02*
X95557143Y-124621490D01*
X95557143Y-124621490D02*
X95557143Y-124773871D01*
X95557143Y-124773871D02*
X95526666Y-124834823D01*
X95526666Y-124834823D02*
X95496190Y-124865300D01*
X95496190Y-124865300D02*
X95435238Y-124895776D01*
X95435238Y-124895776D02*
X95252381Y-124895776D01*
X95252381Y-124895776D02*
X95191428Y-124865300D01*
X95191428Y-124865300D02*
X95160952Y-124834823D01*
X89127323Y-101818928D02*
X89157800Y-101849404D01*
X89157800Y-101849404D02*
X89188276Y-101940833D01*
X89188276Y-101940833D02*
X89188276Y-102001785D01*
X89188276Y-102001785D02*
X89157800Y-102093214D01*
X89157800Y-102093214D02*
X89096847Y-102154166D01*
X89096847Y-102154166D02*
X89035895Y-102184643D01*
X89035895Y-102184643D02*
X88913990Y-102215119D01*
X88913990Y-102215119D02*
X88822561Y-102215119D01*
X88822561Y-102215119D02*
X88700657Y-102184643D01*
X88700657Y-102184643D02*
X88639704Y-102154166D01*
X88639704Y-102154166D02*
X88578752Y-102093214D01*
X88578752Y-102093214D02*
X88548276Y-102001785D01*
X88548276Y-102001785D02*
X88548276Y-101940833D01*
X88548276Y-101940833D02*
X88578752Y-101849404D01*
X88578752Y-101849404D02*
X88609228Y-101818928D01*
X88548276Y-101239881D02*
X88548276Y-101544643D01*
X88548276Y-101544643D02*
X88853038Y-101575119D01*
X88853038Y-101575119D02*
X88822561Y-101544643D01*
X88822561Y-101544643D02*
X88792085Y-101483690D01*
X88792085Y-101483690D02*
X88792085Y-101331309D01*
X88792085Y-101331309D02*
X88822561Y-101270357D01*
X88822561Y-101270357D02*
X88853038Y-101239881D01*
X88853038Y-101239881D02*
X88913990Y-101209404D01*
X88913990Y-101209404D02*
X89066371Y-101209404D01*
X89066371Y-101209404D02*
X89127323Y-101239881D01*
X89127323Y-101239881D02*
X89157800Y-101270357D01*
X89157800Y-101270357D02*
X89188276Y-101331309D01*
X89188276Y-101331309D02*
X89188276Y-101483690D01*
X89188276Y-101483690D02*
X89157800Y-101544643D01*
X89157800Y-101544643D02*
X89127323Y-101575119D01*
X88548276Y-100660833D02*
X88548276Y-100782738D01*
X88548276Y-100782738D02*
X88578752Y-100843690D01*
X88578752Y-100843690D02*
X88609228Y-100874166D01*
X88609228Y-100874166D02*
X88700657Y-100935119D01*
X88700657Y-100935119D02*
X88822561Y-100965595D01*
X88822561Y-100965595D02*
X89066371Y-100965595D01*
X89066371Y-100965595D02*
X89127323Y-100935119D01*
X89127323Y-100935119D02*
X89157800Y-100904642D01*
X89157800Y-100904642D02*
X89188276Y-100843690D01*
X89188276Y-100843690D02*
X89188276Y-100721785D01*
X89188276Y-100721785D02*
X89157800Y-100660833D01*
X89157800Y-100660833D02*
X89127323Y-100630357D01*
X89127323Y-100630357D02*
X89066371Y-100599880D01*
X89066371Y-100599880D02*
X88913990Y-100599880D01*
X88913990Y-100599880D02*
X88853038Y-100630357D01*
X88853038Y-100630357D02*
X88822561Y-100660833D01*
X88822561Y-100660833D02*
X88792085Y-100721785D01*
X88792085Y-100721785D02*
X88792085Y-100843690D01*
X88792085Y-100843690D02*
X88822561Y-100904642D01*
X88822561Y-100904642D02*
X88853038Y-100935119D01*
X88853038Y-100935119D02*
X88913990Y-100965595D01*
X92395238Y-95483514D02*
X92395238Y-95788276D01*
X92181905Y-95148276D02*
X92395238Y-95483514D01*
X92395238Y-95483514D02*
X92608572Y-95148276D01*
X93126666Y-95148276D02*
X92821904Y-95148276D01*
X92821904Y-95148276D02*
X92791428Y-95453038D01*
X92791428Y-95453038D02*
X92821904Y-95422561D01*
X92821904Y-95422561D02*
X92882857Y-95392085D01*
X92882857Y-95392085D02*
X93035238Y-95392085D01*
X93035238Y-95392085D02*
X93096190Y-95422561D01*
X93096190Y-95422561D02*
X93126666Y-95453038D01*
X93126666Y-95453038D02*
X93157143Y-95513990D01*
X93157143Y-95513990D02*
X93157143Y-95666371D01*
X93157143Y-95666371D02*
X93126666Y-95727323D01*
X93126666Y-95727323D02*
X93096190Y-95757800D01*
X93096190Y-95757800D02*
X93035238Y-95788276D01*
X93035238Y-95788276D02*
X92882857Y-95788276D01*
X92882857Y-95788276D02*
X92821904Y-95757800D01*
X92821904Y-95757800D02*
X92791428Y-95727323D01*
X82712380Y-125755776D02*
X82712380Y-126273871D01*
X82712380Y-126273871D02*
X82742857Y-126334823D01*
X82742857Y-126334823D02*
X82773333Y-126365300D01*
X82773333Y-126365300D02*
X82834285Y-126395776D01*
X82834285Y-126395776D02*
X82956190Y-126395776D01*
X82956190Y-126395776D02*
X83017142Y-126365300D01*
X83017142Y-126365300D02*
X83047619Y-126334823D01*
X83047619Y-126334823D02*
X83078095Y-126273871D01*
X83078095Y-126273871D02*
X83078095Y-125755776D01*
X83474285Y-126030061D02*
X83413333Y-125999585D01*
X83413333Y-125999585D02*
X83382856Y-125969109D01*
X83382856Y-125969109D02*
X83352380Y-125908157D01*
X83352380Y-125908157D02*
X83352380Y-125877680D01*
X83352380Y-125877680D02*
X83382856Y-125816728D01*
X83382856Y-125816728D02*
X83413333Y-125786252D01*
X83413333Y-125786252D02*
X83474285Y-125755776D01*
X83474285Y-125755776D02*
X83596190Y-125755776D01*
X83596190Y-125755776D02*
X83657142Y-125786252D01*
X83657142Y-125786252D02*
X83687618Y-125816728D01*
X83687618Y-125816728D02*
X83718095Y-125877680D01*
X83718095Y-125877680D02*
X83718095Y-125908157D01*
X83718095Y-125908157D02*
X83687618Y-125969109D01*
X83687618Y-125969109D02*
X83657142Y-125999585D01*
X83657142Y-125999585D02*
X83596190Y-126030061D01*
X83596190Y-126030061D02*
X83474285Y-126030061D01*
X83474285Y-126030061D02*
X83413333Y-126060538D01*
X83413333Y-126060538D02*
X83382856Y-126091014D01*
X83382856Y-126091014D02*
X83352380Y-126151966D01*
X83352380Y-126151966D02*
X83352380Y-126273871D01*
X83352380Y-126273871D02*
X83382856Y-126334823D01*
X83382856Y-126334823D02*
X83413333Y-126365300D01*
X83413333Y-126365300D02*
X83474285Y-126395776D01*
X83474285Y-126395776D02*
X83596190Y-126395776D01*
X83596190Y-126395776D02*
X83657142Y-126365300D01*
X83657142Y-126365300D02*
X83687618Y-126334823D01*
X83687618Y-126334823D02*
X83718095Y-126273871D01*
X83718095Y-126273871D02*
X83718095Y-126151966D01*
X83718095Y-126151966D02*
X83687618Y-126091014D01*
X83687618Y-126091014D02*
X83657142Y-126060538D01*
X83657142Y-126060538D02*
X83596190Y-126030061D01*
X85488276Y-158418928D02*
X85183514Y-158632262D01*
X85488276Y-158784643D02*
X84848276Y-158784643D01*
X84848276Y-158784643D02*
X84848276Y-158540833D01*
X84848276Y-158540833D02*
X84878752Y-158479881D01*
X84878752Y-158479881D02*
X84909228Y-158449404D01*
X84909228Y-158449404D02*
X84970180Y-158418928D01*
X84970180Y-158418928D02*
X85061609Y-158418928D01*
X85061609Y-158418928D02*
X85122561Y-158449404D01*
X85122561Y-158449404D02*
X85153038Y-158479881D01*
X85153038Y-158479881D02*
X85183514Y-158540833D01*
X85183514Y-158540833D02*
X85183514Y-158784643D01*
X84848276Y-157870357D02*
X84848276Y-157992262D01*
X84848276Y-157992262D02*
X84878752Y-158053214D01*
X84878752Y-158053214D02*
X84909228Y-158083690D01*
X84909228Y-158083690D02*
X85000657Y-158144643D01*
X85000657Y-158144643D02*
X85122561Y-158175119D01*
X85122561Y-158175119D02*
X85366371Y-158175119D01*
X85366371Y-158175119D02*
X85427323Y-158144643D01*
X85427323Y-158144643D02*
X85457800Y-158114166D01*
X85457800Y-158114166D02*
X85488276Y-158053214D01*
X85488276Y-158053214D02*
X85488276Y-157931309D01*
X85488276Y-157931309D02*
X85457800Y-157870357D01*
X85457800Y-157870357D02*
X85427323Y-157839881D01*
X85427323Y-157839881D02*
X85366371Y-157809404D01*
X85366371Y-157809404D02*
X85213990Y-157809404D01*
X85213990Y-157809404D02*
X85153038Y-157839881D01*
X85153038Y-157839881D02*
X85122561Y-157870357D01*
X85122561Y-157870357D02*
X85092085Y-157931309D01*
X85092085Y-157931309D02*
X85092085Y-158053214D01*
X85092085Y-158053214D02*
X85122561Y-158114166D01*
X85122561Y-158114166D02*
X85153038Y-158144643D01*
X85153038Y-158144643D02*
X85213990Y-158175119D01*
X84848276Y-157596071D02*
X84848276Y-157169404D01*
X84848276Y-157169404D02*
X85488276Y-157443690D01*
X92740833Y-94493276D02*
X92436071Y-94493276D01*
X92436071Y-94493276D02*
X92436071Y-93853276D01*
X92923690Y-93914228D02*
X92954166Y-93883752D01*
X92954166Y-93883752D02*
X93015119Y-93853276D01*
X93015119Y-93853276D02*
X93167500Y-93853276D01*
X93167500Y-93853276D02*
X93228452Y-93883752D01*
X93228452Y-93883752D02*
X93258928Y-93914228D01*
X93258928Y-93914228D02*
X93289405Y-93975180D01*
X93289405Y-93975180D02*
X93289405Y-94036133D01*
X93289405Y-94036133D02*
X93258928Y-94127561D01*
X93258928Y-94127561D02*
X92893214Y-94493276D01*
X92893214Y-94493276D02*
X93289405Y-94493276D01*
X100188571Y-127795776D02*
X99975237Y-127491014D01*
X99822856Y-127795776D02*
X99822856Y-127155776D01*
X99822856Y-127155776D02*
X100066666Y-127155776D01*
X100066666Y-127155776D02*
X100127618Y-127186252D01*
X100127618Y-127186252D02*
X100158095Y-127216728D01*
X100158095Y-127216728D02*
X100188571Y-127277680D01*
X100188571Y-127277680D02*
X100188571Y-127369109D01*
X100188571Y-127369109D02*
X100158095Y-127430061D01*
X100158095Y-127430061D02*
X100127618Y-127460538D01*
X100127618Y-127460538D02*
X100066666Y-127491014D01*
X100066666Y-127491014D02*
X99822856Y-127491014D01*
X100401904Y-127155776D02*
X100798095Y-127155776D01*
X100798095Y-127155776D02*
X100584761Y-127399585D01*
X100584761Y-127399585D02*
X100676190Y-127399585D01*
X100676190Y-127399585D02*
X100737142Y-127430061D01*
X100737142Y-127430061D02*
X100767618Y-127460538D01*
X100767618Y-127460538D02*
X100798095Y-127521490D01*
X100798095Y-127521490D02*
X100798095Y-127673871D01*
X100798095Y-127673871D02*
X100767618Y-127734823D01*
X100767618Y-127734823D02*
X100737142Y-127765300D01*
X100737142Y-127765300D02*
X100676190Y-127795776D01*
X100676190Y-127795776D02*
X100493333Y-127795776D01*
X100493333Y-127795776D02*
X100432380Y-127765300D01*
X100432380Y-127765300D02*
X100401904Y-127734823D01*
X101377142Y-127155776D02*
X101072380Y-127155776D01*
X101072380Y-127155776D02*
X101041904Y-127460538D01*
X101041904Y-127460538D02*
X101072380Y-127430061D01*
X101072380Y-127430061D02*
X101133333Y-127399585D01*
X101133333Y-127399585D02*
X101285714Y-127399585D01*
X101285714Y-127399585D02*
X101346666Y-127430061D01*
X101346666Y-127430061D02*
X101377142Y-127460538D01*
X101377142Y-127460538D02*
X101407619Y-127521490D01*
X101407619Y-127521490D02*
X101407619Y-127673871D01*
X101407619Y-127673871D02*
X101377142Y-127734823D01*
X101377142Y-127734823D02*
X101346666Y-127765300D01*
X101346666Y-127765300D02*
X101285714Y-127795776D01*
X101285714Y-127795776D02*
X101133333Y-127795776D01*
X101133333Y-127795776D02*
X101072380Y-127765300D01*
X101072380Y-127765300D02*
X101041904Y-127734823D01*
X100188571Y-159095776D02*
X99975237Y-158791014D01*
X99822856Y-159095776D02*
X99822856Y-158455776D01*
X99822856Y-158455776D02*
X100066666Y-158455776D01*
X100066666Y-158455776D02*
X100127618Y-158486252D01*
X100127618Y-158486252D02*
X100158095Y-158516728D01*
X100158095Y-158516728D02*
X100188571Y-158577680D01*
X100188571Y-158577680D02*
X100188571Y-158669109D01*
X100188571Y-158669109D02*
X100158095Y-158730061D01*
X100158095Y-158730061D02*
X100127618Y-158760538D01*
X100127618Y-158760538D02*
X100066666Y-158791014D01*
X100066666Y-158791014D02*
X99822856Y-158791014D01*
X100737142Y-158455776D02*
X100615237Y-158455776D01*
X100615237Y-158455776D02*
X100554285Y-158486252D01*
X100554285Y-158486252D02*
X100523809Y-158516728D01*
X100523809Y-158516728D02*
X100462856Y-158608157D01*
X100462856Y-158608157D02*
X100432380Y-158730061D01*
X100432380Y-158730061D02*
X100432380Y-158973871D01*
X100432380Y-158973871D02*
X100462856Y-159034823D01*
X100462856Y-159034823D02*
X100493333Y-159065300D01*
X100493333Y-159065300D02*
X100554285Y-159095776D01*
X100554285Y-159095776D02*
X100676190Y-159095776D01*
X100676190Y-159095776D02*
X100737142Y-159065300D01*
X100737142Y-159065300D02*
X100767618Y-159034823D01*
X100767618Y-159034823D02*
X100798095Y-158973871D01*
X100798095Y-158973871D02*
X100798095Y-158821490D01*
X100798095Y-158821490D02*
X100767618Y-158760538D01*
X100767618Y-158760538D02*
X100737142Y-158730061D01*
X100737142Y-158730061D02*
X100676190Y-158699585D01*
X100676190Y-158699585D02*
X100554285Y-158699585D01*
X100554285Y-158699585D02*
X100493333Y-158730061D01*
X100493333Y-158730061D02*
X100462856Y-158760538D01*
X100462856Y-158760538D02*
X100432380Y-158821490D01*
X101163809Y-158730061D02*
X101102857Y-158699585D01*
X101102857Y-158699585D02*
X101072380Y-158669109D01*
X101072380Y-158669109D02*
X101041904Y-158608157D01*
X101041904Y-158608157D02*
X101041904Y-158577680D01*
X101041904Y-158577680D02*
X101072380Y-158516728D01*
X101072380Y-158516728D02*
X101102857Y-158486252D01*
X101102857Y-158486252D02*
X101163809Y-158455776D01*
X101163809Y-158455776D02*
X101285714Y-158455776D01*
X101285714Y-158455776D02*
X101346666Y-158486252D01*
X101346666Y-158486252D02*
X101377142Y-158516728D01*
X101377142Y-158516728D02*
X101407619Y-158577680D01*
X101407619Y-158577680D02*
X101407619Y-158608157D01*
X101407619Y-158608157D02*
X101377142Y-158669109D01*
X101377142Y-158669109D02*
X101346666Y-158699585D01*
X101346666Y-158699585D02*
X101285714Y-158730061D01*
X101285714Y-158730061D02*
X101163809Y-158730061D01*
X101163809Y-158730061D02*
X101102857Y-158760538D01*
X101102857Y-158760538D02*
X101072380Y-158791014D01*
X101072380Y-158791014D02*
X101041904Y-158851966D01*
X101041904Y-158851966D02*
X101041904Y-158973871D01*
X101041904Y-158973871D02*
X101072380Y-159034823D01*
X101072380Y-159034823D02*
X101102857Y-159065300D01*
X101102857Y-159065300D02*
X101163809Y-159095776D01*
X101163809Y-159095776D02*
X101285714Y-159095776D01*
X101285714Y-159095776D02*
X101346666Y-159065300D01*
X101346666Y-159065300D02*
X101377142Y-159034823D01*
X101377142Y-159034823D02*
X101407619Y-158973871D01*
X101407619Y-158973871D02*
X101407619Y-158851966D01*
X101407619Y-158851966D02*
X101377142Y-158791014D01*
X101377142Y-158791014D02*
X101346666Y-158760538D01*
X101346666Y-158760538D02*
X101285714Y-158730061D01*
X83327323Y-121214166D02*
X83357800Y-121244642D01*
X83357800Y-121244642D02*
X83388276Y-121336071D01*
X83388276Y-121336071D02*
X83388276Y-121397023D01*
X83388276Y-121397023D02*
X83357800Y-121488452D01*
X83357800Y-121488452D02*
X83296847Y-121549404D01*
X83296847Y-121549404D02*
X83235895Y-121579881D01*
X83235895Y-121579881D02*
X83113990Y-121610357D01*
X83113990Y-121610357D02*
X83022561Y-121610357D01*
X83022561Y-121610357D02*
X82900657Y-121579881D01*
X82900657Y-121579881D02*
X82839704Y-121549404D01*
X82839704Y-121549404D02*
X82778752Y-121488452D01*
X82778752Y-121488452D02*
X82748276Y-121397023D01*
X82748276Y-121397023D02*
X82748276Y-121336071D01*
X82748276Y-121336071D02*
X82778752Y-121244642D01*
X82778752Y-121244642D02*
X82809228Y-121214166D01*
X82961609Y-120665595D02*
X83388276Y-120665595D01*
X82717800Y-120817976D02*
X83174942Y-120970357D01*
X83174942Y-120970357D02*
X83174942Y-120574166D01*
X82098571Y-146618276D02*
X81885237Y-146313514D01*
X81732856Y-146618276D02*
X81732856Y-145978276D01*
X81732856Y-145978276D02*
X81976666Y-145978276D01*
X81976666Y-145978276D02*
X82037618Y-146008752D01*
X82037618Y-146008752D02*
X82068095Y-146039228D01*
X82068095Y-146039228D02*
X82098571Y-146100180D01*
X82098571Y-146100180D02*
X82098571Y-146191609D01*
X82098571Y-146191609D02*
X82068095Y-146252561D01*
X82068095Y-146252561D02*
X82037618Y-146283038D01*
X82037618Y-146283038D02*
X81976666Y-146313514D01*
X81976666Y-146313514D02*
X81732856Y-146313514D01*
X82677618Y-145978276D02*
X82372856Y-145978276D01*
X82372856Y-145978276D02*
X82342380Y-146283038D01*
X82342380Y-146283038D02*
X82372856Y-146252561D01*
X82372856Y-146252561D02*
X82433809Y-146222085D01*
X82433809Y-146222085D02*
X82586190Y-146222085D01*
X82586190Y-146222085D02*
X82647142Y-146252561D01*
X82647142Y-146252561D02*
X82677618Y-146283038D01*
X82677618Y-146283038D02*
X82708095Y-146343990D01*
X82708095Y-146343990D02*
X82708095Y-146496371D01*
X82708095Y-146496371D02*
X82677618Y-146557323D01*
X82677618Y-146557323D02*
X82647142Y-146587800D01*
X82647142Y-146587800D02*
X82586190Y-146618276D01*
X82586190Y-146618276D02*
X82433809Y-146618276D01*
X82433809Y-146618276D02*
X82372856Y-146587800D01*
X82372856Y-146587800D02*
X82342380Y-146557323D01*
X83104285Y-145978276D02*
X83165238Y-145978276D01*
X83165238Y-145978276D02*
X83226190Y-146008752D01*
X83226190Y-146008752D02*
X83256666Y-146039228D01*
X83256666Y-146039228D02*
X83287142Y-146100180D01*
X83287142Y-146100180D02*
X83317619Y-146222085D01*
X83317619Y-146222085D02*
X83317619Y-146374466D01*
X83317619Y-146374466D02*
X83287142Y-146496371D01*
X83287142Y-146496371D02*
X83256666Y-146557323D01*
X83256666Y-146557323D02*
X83226190Y-146587800D01*
X83226190Y-146587800D02*
X83165238Y-146618276D01*
X83165238Y-146618276D02*
X83104285Y-146618276D01*
X83104285Y-146618276D02*
X83043333Y-146587800D01*
X83043333Y-146587800D02*
X83012857Y-146557323D01*
X83012857Y-146557323D02*
X82982380Y-146496371D01*
X82982380Y-146496371D02*
X82951904Y-146374466D01*
X82951904Y-146374466D02*
X82951904Y-146222085D01*
X82951904Y-146222085D02*
X82982380Y-146100180D01*
X82982380Y-146100180D02*
X83012857Y-146039228D01*
X83012857Y-146039228D02*
X83043333Y-146008752D01*
X83043333Y-146008752D02*
X83104285Y-145978276D01*
X85227323Y-91818928D02*
X85257800Y-91849404D01*
X85257800Y-91849404D02*
X85288276Y-91940833D01*
X85288276Y-91940833D02*
X85288276Y-92001785D01*
X85288276Y-92001785D02*
X85257800Y-92093214D01*
X85257800Y-92093214D02*
X85196847Y-92154166D01*
X85196847Y-92154166D02*
X85135895Y-92184643D01*
X85135895Y-92184643D02*
X85013990Y-92215119D01*
X85013990Y-92215119D02*
X84922561Y-92215119D01*
X84922561Y-92215119D02*
X84800657Y-92184643D01*
X84800657Y-92184643D02*
X84739704Y-92154166D01*
X84739704Y-92154166D02*
X84678752Y-92093214D01*
X84678752Y-92093214D02*
X84648276Y-92001785D01*
X84648276Y-92001785D02*
X84648276Y-91940833D01*
X84648276Y-91940833D02*
X84678752Y-91849404D01*
X84678752Y-91849404D02*
X84709228Y-91818928D01*
X84648276Y-91239881D02*
X84648276Y-91544643D01*
X84648276Y-91544643D02*
X84953038Y-91575119D01*
X84953038Y-91575119D02*
X84922561Y-91544643D01*
X84922561Y-91544643D02*
X84892085Y-91483690D01*
X84892085Y-91483690D02*
X84892085Y-91331309D01*
X84892085Y-91331309D02*
X84922561Y-91270357D01*
X84922561Y-91270357D02*
X84953038Y-91239881D01*
X84953038Y-91239881D02*
X85013990Y-91209404D01*
X85013990Y-91209404D02*
X85166371Y-91209404D01*
X85166371Y-91209404D02*
X85227323Y-91239881D01*
X85227323Y-91239881D02*
X85257800Y-91270357D01*
X85257800Y-91270357D02*
X85288276Y-91331309D01*
X85288276Y-91331309D02*
X85288276Y-91483690D01*
X85288276Y-91483690D02*
X85257800Y-91544643D01*
X85257800Y-91544643D02*
X85227323Y-91575119D01*
X84922561Y-90843690D02*
X84892085Y-90904642D01*
X84892085Y-90904642D02*
X84861609Y-90935119D01*
X84861609Y-90935119D02*
X84800657Y-90965595D01*
X84800657Y-90965595D02*
X84770180Y-90965595D01*
X84770180Y-90965595D02*
X84709228Y-90935119D01*
X84709228Y-90935119D02*
X84678752Y-90904642D01*
X84678752Y-90904642D02*
X84648276Y-90843690D01*
X84648276Y-90843690D02*
X84648276Y-90721785D01*
X84648276Y-90721785D02*
X84678752Y-90660833D01*
X84678752Y-90660833D02*
X84709228Y-90630357D01*
X84709228Y-90630357D02*
X84770180Y-90599880D01*
X84770180Y-90599880D02*
X84800657Y-90599880D01*
X84800657Y-90599880D02*
X84861609Y-90630357D01*
X84861609Y-90630357D02*
X84892085Y-90660833D01*
X84892085Y-90660833D02*
X84922561Y-90721785D01*
X84922561Y-90721785D02*
X84922561Y-90843690D01*
X84922561Y-90843690D02*
X84953038Y-90904642D01*
X84953038Y-90904642D02*
X84983514Y-90935119D01*
X84983514Y-90935119D02*
X85044466Y-90965595D01*
X85044466Y-90965595D02*
X85166371Y-90965595D01*
X85166371Y-90965595D02*
X85227323Y-90935119D01*
X85227323Y-90935119D02*
X85257800Y-90904642D01*
X85257800Y-90904642D02*
X85288276Y-90843690D01*
X85288276Y-90843690D02*
X85288276Y-90721785D01*
X85288276Y-90721785D02*
X85257800Y-90660833D01*
X85257800Y-90660833D02*
X85227323Y-90630357D01*
X85227323Y-90630357D02*
X85166371Y-90599880D01*
X85166371Y-90599880D02*
X85044466Y-90599880D01*
X85044466Y-90599880D02*
X84983514Y-90630357D01*
X84983514Y-90630357D02*
X84953038Y-90660833D01*
X84953038Y-90660833D02*
X84922561Y-90721785D01*
X101827323Y-142718928D02*
X101857800Y-142749404D01*
X101857800Y-142749404D02*
X101888276Y-142840833D01*
X101888276Y-142840833D02*
X101888276Y-142901785D01*
X101888276Y-142901785D02*
X101857800Y-142993214D01*
X101857800Y-142993214D02*
X101796847Y-143054166D01*
X101796847Y-143054166D02*
X101735895Y-143084643D01*
X101735895Y-143084643D02*
X101613990Y-143115119D01*
X101613990Y-143115119D02*
X101522561Y-143115119D01*
X101522561Y-143115119D02*
X101400657Y-143084643D01*
X101400657Y-143084643D02*
X101339704Y-143054166D01*
X101339704Y-143054166D02*
X101278752Y-142993214D01*
X101278752Y-142993214D02*
X101248276Y-142901785D01*
X101248276Y-142901785D02*
X101248276Y-142840833D01*
X101248276Y-142840833D02*
X101278752Y-142749404D01*
X101278752Y-142749404D02*
X101309228Y-142718928D01*
X101248276Y-142170357D02*
X101248276Y-142292262D01*
X101248276Y-142292262D02*
X101278752Y-142353214D01*
X101278752Y-142353214D02*
X101309228Y-142383690D01*
X101309228Y-142383690D02*
X101400657Y-142444643D01*
X101400657Y-142444643D02*
X101522561Y-142475119D01*
X101522561Y-142475119D02*
X101766371Y-142475119D01*
X101766371Y-142475119D02*
X101827323Y-142444643D01*
X101827323Y-142444643D02*
X101857800Y-142414166D01*
X101857800Y-142414166D02*
X101888276Y-142353214D01*
X101888276Y-142353214D02*
X101888276Y-142231309D01*
X101888276Y-142231309D02*
X101857800Y-142170357D01*
X101857800Y-142170357D02*
X101827323Y-142139881D01*
X101827323Y-142139881D02*
X101766371Y-142109404D01*
X101766371Y-142109404D02*
X101613990Y-142109404D01*
X101613990Y-142109404D02*
X101553038Y-142139881D01*
X101553038Y-142139881D02*
X101522561Y-142170357D01*
X101522561Y-142170357D02*
X101492085Y-142231309D01*
X101492085Y-142231309D02*
X101492085Y-142353214D01*
X101492085Y-142353214D02*
X101522561Y-142414166D01*
X101522561Y-142414166D02*
X101553038Y-142444643D01*
X101553038Y-142444643D02*
X101613990Y-142475119D01*
X101461609Y-141560833D02*
X101888276Y-141560833D01*
X101217800Y-141713214D02*
X101674942Y-141865595D01*
X101674942Y-141865595D02*
X101674942Y-141469404D01*
X98293333Y-117934823D02*
X98262857Y-117965300D01*
X98262857Y-117965300D02*
X98171428Y-117995776D01*
X98171428Y-117995776D02*
X98110476Y-117995776D01*
X98110476Y-117995776D02*
X98019047Y-117965300D01*
X98019047Y-117965300D02*
X97958095Y-117904347D01*
X97958095Y-117904347D02*
X97927618Y-117843395D01*
X97927618Y-117843395D02*
X97897142Y-117721490D01*
X97897142Y-117721490D02*
X97897142Y-117630061D01*
X97897142Y-117630061D02*
X97927618Y-117508157D01*
X97927618Y-117508157D02*
X97958095Y-117447204D01*
X97958095Y-117447204D02*
X98019047Y-117386252D01*
X98019047Y-117386252D02*
X98110476Y-117355776D01*
X98110476Y-117355776D02*
X98171428Y-117355776D01*
X98171428Y-117355776D02*
X98262857Y-117386252D01*
X98262857Y-117386252D02*
X98293333Y-117416728D01*
X98872380Y-117355776D02*
X98567618Y-117355776D01*
X98567618Y-117355776D02*
X98537142Y-117660538D01*
X98537142Y-117660538D02*
X98567618Y-117630061D01*
X98567618Y-117630061D02*
X98628571Y-117599585D01*
X98628571Y-117599585D02*
X98780952Y-117599585D01*
X98780952Y-117599585D02*
X98841904Y-117630061D01*
X98841904Y-117630061D02*
X98872380Y-117660538D01*
X98872380Y-117660538D02*
X98902857Y-117721490D01*
X98902857Y-117721490D02*
X98902857Y-117873871D01*
X98902857Y-117873871D02*
X98872380Y-117934823D01*
X98872380Y-117934823D02*
X98841904Y-117965300D01*
X98841904Y-117965300D02*
X98780952Y-117995776D01*
X98780952Y-117995776D02*
X98628571Y-117995776D01*
X98628571Y-117995776D02*
X98567618Y-117965300D01*
X98567618Y-117965300D02*
X98537142Y-117934823D01*
X91788571Y-142895776D02*
X91575237Y-142591014D01*
X91422856Y-142895776D02*
X91422856Y-142255776D01*
X91422856Y-142255776D02*
X91666666Y-142255776D01*
X91666666Y-142255776D02*
X91727618Y-142286252D01*
X91727618Y-142286252D02*
X91758095Y-142316728D01*
X91758095Y-142316728D02*
X91788571Y-142377680D01*
X91788571Y-142377680D02*
X91788571Y-142469109D01*
X91788571Y-142469109D02*
X91758095Y-142530061D01*
X91758095Y-142530061D02*
X91727618Y-142560538D01*
X91727618Y-142560538D02*
X91666666Y-142591014D01*
X91666666Y-142591014D02*
X91422856Y-142591014D01*
X92337142Y-142255776D02*
X92215237Y-142255776D01*
X92215237Y-142255776D02*
X92154285Y-142286252D01*
X92154285Y-142286252D02*
X92123809Y-142316728D01*
X92123809Y-142316728D02*
X92062856Y-142408157D01*
X92062856Y-142408157D02*
X92032380Y-142530061D01*
X92032380Y-142530061D02*
X92032380Y-142773871D01*
X92032380Y-142773871D02*
X92062856Y-142834823D01*
X92062856Y-142834823D02*
X92093333Y-142865300D01*
X92093333Y-142865300D02*
X92154285Y-142895776D01*
X92154285Y-142895776D02*
X92276190Y-142895776D01*
X92276190Y-142895776D02*
X92337142Y-142865300D01*
X92337142Y-142865300D02*
X92367618Y-142834823D01*
X92367618Y-142834823D02*
X92398095Y-142773871D01*
X92398095Y-142773871D02*
X92398095Y-142621490D01*
X92398095Y-142621490D02*
X92367618Y-142560538D01*
X92367618Y-142560538D02*
X92337142Y-142530061D01*
X92337142Y-142530061D02*
X92276190Y-142499585D01*
X92276190Y-142499585D02*
X92154285Y-142499585D01*
X92154285Y-142499585D02*
X92093333Y-142530061D01*
X92093333Y-142530061D02*
X92062856Y-142560538D01*
X92062856Y-142560538D02*
X92032380Y-142621490D01*
X92641904Y-142316728D02*
X92672380Y-142286252D01*
X92672380Y-142286252D02*
X92733333Y-142255776D01*
X92733333Y-142255776D02*
X92885714Y-142255776D01*
X92885714Y-142255776D02*
X92946666Y-142286252D01*
X92946666Y-142286252D02*
X92977142Y-142316728D01*
X92977142Y-142316728D02*
X93007619Y-142377680D01*
X93007619Y-142377680D02*
X93007619Y-142438633D01*
X93007619Y-142438633D02*
X92977142Y-142530061D01*
X92977142Y-142530061D02*
X92611428Y-142895776D01*
X92611428Y-142895776D02*
X93007619Y-142895776D01*
X100348276Y-121595119D02*
X100866371Y-121595119D01*
X100866371Y-121595119D02*
X100927323Y-121564642D01*
X100927323Y-121564642D02*
X100957800Y-121534166D01*
X100957800Y-121534166D02*
X100988276Y-121473214D01*
X100988276Y-121473214D02*
X100988276Y-121351309D01*
X100988276Y-121351309D02*
X100957800Y-121290357D01*
X100957800Y-121290357D02*
X100927323Y-121259880D01*
X100927323Y-121259880D02*
X100866371Y-121229404D01*
X100866371Y-121229404D02*
X100348276Y-121229404D01*
X100348276Y-120650357D02*
X100348276Y-120772262D01*
X100348276Y-120772262D02*
X100378752Y-120833214D01*
X100378752Y-120833214D02*
X100409228Y-120863690D01*
X100409228Y-120863690D02*
X100500657Y-120924643D01*
X100500657Y-120924643D02*
X100622561Y-120955119D01*
X100622561Y-120955119D02*
X100866371Y-120955119D01*
X100866371Y-120955119D02*
X100927323Y-120924643D01*
X100927323Y-120924643D02*
X100957800Y-120894166D01*
X100957800Y-120894166D02*
X100988276Y-120833214D01*
X100988276Y-120833214D02*
X100988276Y-120711309D01*
X100988276Y-120711309D02*
X100957800Y-120650357D01*
X100957800Y-120650357D02*
X100927323Y-120619881D01*
X100927323Y-120619881D02*
X100866371Y-120589404D01*
X100866371Y-120589404D02*
X100713990Y-120589404D01*
X100713990Y-120589404D02*
X100653038Y-120619881D01*
X100653038Y-120619881D02*
X100622561Y-120650357D01*
X100622561Y-120650357D02*
X100592085Y-120711309D01*
X100592085Y-120711309D02*
X100592085Y-120833214D01*
X100592085Y-120833214D02*
X100622561Y-120894166D01*
X100622561Y-120894166D02*
X100653038Y-120924643D01*
X100653038Y-120924643D02*
X100713990Y-120955119D01*
X83812380Y-144255776D02*
X83812380Y-144773871D01*
X83812380Y-144773871D02*
X83842857Y-144834823D01*
X83842857Y-144834823D02*
X83873333Y-144865300D01*
X83873333Y-144865300D02*
X83934285Y-144895776D01*
X83934285Y-144895776D02*
X84056190Y-144895776D01*
X84056190Y-144895776D02*
X84117142Y-144865300D01*
X84117142Y-144865300D02*
X84147619Y-144834823D01*
X84147619Y-144834823D02*
X84178095Y-144773871D01*
X84178095Y-144773871D02*
X84178095Y-144255776D01*
X84421904Y-144255776D02*
X84818095Y-144255776D01*
X84818095Y-144255776D02*
X84604761Y-144499585D01*
X84604761Y-144499585D02*
X84696190Y-144499585D01*
X84696190Y-144499585D02*
X84757142Y-144530061D01*
X84757142Y-144530061D02*
X84787618Y-144560538D01*
X84787618Y-144560538D02*
X84818095Y-144621490D01*
X84818095Y-144621490D02*
X84818095Y-144773871D01*
X84818095Y-144773871D02*
X84787618Y-144834823D01*
X84787618Y-144834823D02*
X84757142Y-144865300D01*
X84757142Y-144865300D02*
X84696190Y-144895776D01*
X84696190Y-144895776D02*
X84513333Y-144895776D01*
X84513333Y-144895776D02*
X84452380Y-144865300D01*
X84452380Y-144865300D02*
X84421904Y-144834823D01*
X101827323Y-144618928D02*
X101857800Y-144649404D01*
X101857800Y-144649404D02*
X101888276Y-144740833D01*
X101888276Y-144740833D02*
X101888276Y-144801785D01*
X101888276Y-144801785D02*
X101857800Y-144893214D01*
X101857800Y-144893214D02*
X101796847Y-144954166D01*
X101796847Y-144954166D02*
X101735895Y-144984643D01*
X101735895Y-144984643D02*
X101613990Y-145015119D01*
X101613990Y-145015119D02*
X101522561Y-145015119D01*
X101522561Y-145015119D02*
X101400657Y-144984643D01*
X101400657Y-144984643D02*
X101339704Y-144954166D01*
X101339704Y-144954166D02*
X101278752Y-144893214D01*
X101278752Y-144893214D02*
X101248276Y-144801785D01*
X101248276Y-144801785D02*
X101248276Y-144740833D01*
X101248276Y-144740833D02*
X101278752Y-144649404D01*
X101278752Y-144649404D02*
X101309228Y-144618928D01*
X101248276Y-144070357D02*
X101248276Y-144192262D01*
X101248276Y-144192262D02*
X101278752Y-144253214D01*
X101278752Y-144253214D02*
X101309228Y-144283690D01*
X101309228Y-144283690D02*
X101400657Y-144344643D01*
X101400657Y-144344643D02*
X101522561Y-144375119D01*
X101522561Y-144375119D02*
X101766371Y-144375119D01*
X101766371Y-144375119D02*
X101827323Y-144344643D01*
X101827323Y-144344643D02*
X101857800Y-144314166D01*
X101857800Y-144314166D02*
X101888276Y-144253214D01*
X101888276Y-144253214D02*
X101888276Y-144131309D01*
X101888276Y-144131309D02*
X101857800Y-144070357D01*
X101857800Y-144070357D02*
X101827323Y-144039881D01*
X101827323Y-144039881D02*
X101766371Y-144009404D01*
X101766371Y-144009404D02*
X101613990Y-144009404D01*
X101613990Y-144009404D02*
X101553038Y-144039881D01*
X101553038Y-144039881D02*
X101522561Y-144070357D01*
X101522561Y-144070357D02*
X101492085Y-144131309D01*
X101492085Y-144131309D02*
X101492085Y-144253214D01*
X101492085Y-144253214D02*
X101522561Y-144314166D01*
X101522561Y-144314166D02*
X101553038Y-144344643D01*
X101553038Y-144344643D02*
X101613990Y-144375119D01*
X101248276Y-143430357D02*
X101248276Y-143735119D01*
X101248276Y-143735119D02*
X101553038Y-143765595D01*
X101553038Y-143765595D02*
X101522561Y-143735119D01*
X101522561Y-143735119D02*
X101492085Y-143674166D01*
X101492085Y-143674166D02*
X101492085Y-143521785D01*
X101492085Y-143521785D02*
X101522561Y-143460833D01*
X101522561Y-143460833D02*
X101553038Y-143430357D01*
X101553038Y-143430357D02*
X101613990Y-143399880D01*
X101613990Y-143399880D02*
X101766371Y-143399880D01*
X101766371Y-143399880D02*
X101827323Y-143430357D01*
X101827323Y-143430357D02*
X101857800Y-143460833D01*
X101857800Y-143460833D02*
X101888276Y-143521785D01*
X101888276Y-143521785D02*
X101888276Y-143674166D01*
X101888276Y-143674166D02*
X101857800Y-143735119D01*
X101857800Y-143735119D02*
X101827323Y-143765595D01*
X92927618Y-117295776D02*
X92927618Y-116655776D01*
X92927618Y-116655776D02*
X93079999Y-116655776D01*
X93079999Y-116655776D02*
X93171428Y-116686252D01*
X93171428Y-116686252D02*
X93232380Y-116747204D01*
X93232380Y-116747204D02*
X93262857Y-116808157D01*
X93262857Y-116808157D02*
X93293333Y-116930061D01*
X93293333Y-116930061D02*
X93293333Y-117021490D01*
X93293333Y-117021490D02*
X93262857Y-117143395D01*
X93262857Y-117143395D02*
X93232380Y-117204347D01*
X93232380Y-117204347D02*
X93171428Y-117265300D01*
X93171428Y-117265300D02*
X93079999Y-117295776D01*
X93079999Y-117295776D02*
X92927618Y-117295776D01*
X93902857Y-117295776D02*
X93537142Y-117295776D01*
X93719999Y-117295776D02*
X93719999Y-116655776D01*
X93719999Y-116655776D02*
X93659047Y-116747204D01*
X93659047Y-116747204D02*
X93598095Y-116808157D01*
X93598095Y-116808157D02*
X93537142Y-116838633D01*
X81988276Y-158014166D02*
X81683514Y-158227500D01*
X81988276Y-158379881D02*
X81348276Y-158379881D01*
X81348276Y-158379881D02*
X81348276Y-158136071D01*
X81348276Y-158136071D02*
X81378752Y-158075119D01*
X81378752Y-158075119D02*
X81409228Y-158044642D01*
X81409228Y-158044642D02*
X81470180Y-158014166D01*
X81470180Y-158014166D02*
X81561609Y-158014166D01*
X81561609Y-158014166D02*
X81622561Y-158044642D01*
X81622561Y-158044642D02*
X81653038Y-158075119D01*
X81653038Y-158075119D02*
X81683514Y-158136071D01*
X81683514Y-158136071D02*
X81683514Y-158379881D01*
X81348276Y-157800833D02*
X81348276Y-157404642D01*
X81348276Y-157404642D02*
X81592085Y-157617976D01*
X81592085Y-157617976D02*
X81592085Y-157526547D01*
X81592085Y-157526547D02*
X81622561Y-157465595D01*
X81622561Y-157465595D02*
X81653038Y-157435119D01*
X81653038Y-157435119D02*
X81713990Y-157404642D01*
X81713990Y-157404642D02*
X81866371Y-157404642D01*
X81866371Y-157404642D02*
X81927323Y-157435119D01*
X81927323Y-157435119D02*
X81957800Y-157465595D01*
X81957800Y-157465595D02*
X81988276Y-157526547D01*
X81988276Y-157526547D02*
X81988276Y-157709404D01*
X81988276Y-157709404D02*
X81957800Y-157770357D01*
X81957800Y-157770357D02*
X81927323Y-157800833D01*
X94874823Y-92906428D02*
X94905300Y-92936904D01*
X94905300Y-92936904D02*
X94935776Y-93028333D01*
X94935776Y-93028333D02*
X94935776Y-93089285D01*
X94935776Y-93089285D02*
X94905300Y-93180714D01*
X94905300Y-93180714D02*
X94844347Y-93241666D01*
X94844347Y-93241666D02*
X94783395Y-93272143D01*
X94783395Y-93272143D02*
X94661490Y-93302619D01*
X94661490Y-93302619D02*
X94570061Y-93302619D01*
X94570061Y-93302619D02*
X94448157Y-93272143D01*
X94448157Y-93272143D02*
X94387204Y-93241666D01*
X94387204Y-93241666D02*
X94326252Y-93180714D01*
X94326252Y-93180714D02*
X94295776Y-93089285D01*
X94295776Y-93089285D02*
X94295776Y-93028333D01*
X94295776Y-93028333D02*
X94326252Y-92936904D01*
X94326252Y-92936904D02*
X94356728Y-92906428D01*
X94295776Y-92327381D02*
X94295776Y-92632143D01*
X94295776Y-92632143D02*
X94600538Y-92662619D01*
X94600538Y-92662619D02*
X94570061Y-92632143D01*
X94570061Y-92632143D02*
X94539585Y-92571190D01*
X94539585Y-92571190D02*
X94539585Y-92418809D01*
X94539585Y-92418809D02*
X94570061Y-92357857D01*
X94570061Y-92357857D02*
X94600538Y-92327381D01*
X94600538Y-92327381D02*
X94661490Y-92296904D01*
X94661490Y-92296904D02*
X94813871Y-92296904D01*
X94813871Y-92296904D02*
X94874823Y-92327381D01*
X94874823Y-92327381D02*
X94905300Y-92357857D01*
X94905300Y-92357857D02*
X94935776Y-92418809D01*
X94935776Y-92418809D02*
X94935776Y-92571190D01*
X94935776Y-92571190D02*
X94905300Y-92632143D01*
X94905300Y-92632143D02*
X94874823Y-92662619D01*
X94295776Y-91900714D02*
X94295776Y-91839761D01*
X94295776Y-91839761D02*
X94326252Y-91778809D01*
X94326252Y-91778809D02*
X94356728Y-91748333D01*
X94356728Y-91748333D02*
X94417680Y-91717857D01*
X94417680Y-91717857D02*
X94539585Y-91687380D01*
X94539585Y-91687380D02*
X94691966Y-91687380D01*
X94691966Y-91687380D02*
X94813871Y-91717857D01*
X94813871Y-91717857D02*
X94874823Y-91748333D01*
X94874823Y-91748333D02*
X94905300Y-91778809D01*
X94905300Y-91778809D02*
X94935776Y-91839761D01*
X94935776Y-91839761D02*
X94935776Y-91900714D01*
X94935776Y-91900714D02*
X94905300Y-91961666D01*
X94905300Y-91961666D02*
X94874823Y-91992142D01*
X94874823Y-91992142D02*
X94813871Y-92022619D01*
X94813871Y-92022619D02*
X94691966Y-92053095D01*
X94691966Y-92053095D02*
X94539585Y-92053095D01*
X94539585Y-92053095D02*
X94417680Y-92022619D01*
X94417680Y-92022619D02*
X94356728Y-91992142D01*
X94356728Y-91992142D02*
X94326252Y-91961666D01*
X94326252Y-91961666D02*
X94295776Y-91900714D01*
X95072844Y-138403841D02*
X95288343Y-138619340D01*
X94684945Y-138317641D02*
X95072844Y-138403841D01*
X95072844Y-138403841D02*
X94986644Y-138015943D01*
X95827090Y-138080593D02*
X95568491Y-138339192D01*
X95697791Y-138209892D02*
X95245243Y-137757344D01*
X95245243Y-137757344D02*
X95266793Y-137865093D01*
X95266793Y-137865093D02*
X95266793Y-137951293D01*
X95266793Y-137951293D02*
X95245243Y-138015943D01*
X88088571Y-142795776D02*
X87875237Y-142491014D01*
X87722856Y-142795776D02*
X87722856Y-142155776D01*
X87722856Y-142155776D02*
X87966666Y-142155776D01*
X87966666Y-142155776D02*
X88027618Y-142186252D01*
X88027618Y-142186252D02*
X88058095Y-142216728D01*
X88058095Y-142216728D02*
X88088571Y-142277680D01*
X88088571Y-142277680D02*
X88088571Y-142369109D01*
X88088571Y-142369109D02*
X88058095Y-142430061D01*
X88058095Y-142430061D02*
X88027618Y-142460538D01*
X88027618Y-142460538D02*
X87966666Y-142491014D01*
X87966666Y-142491014D02*
X87722856Y-142491014D01*
X88637142Y-142155776D02*
X88515237Y-142155776D01*
X88515237Y-142155776D02*
X88454285Y-142186252D01*
X88454285Y-142186252D02*
X88423809Y-142216728D01*
X88423809Y-142216728D02*
X88362856Y-142308157D01*
X88362856Y-142308157D02*
X88332380Y-142430061D01*
X88332380Y-142430061D02*
X88332380Y-142673871D01*
X88332380Y-142673871D02*
X88362856Y-142734823D01*
X88362856Y-142734823D02*
X88393333Y-142765300D01*
X88393333Y-142765300D02*
X88454285Y-142795776D01*
X88454285Y-142795776D02*
X88576190Y-142795776D01*
X88576190Y-142795776D02*
X88637142Y-142765300D01*
X88637142Y-142765300D02*
X88667618Y-142734823D01*
X88667618Y-142734823D02*
X88698095Y-142673871D01*
X88698095Y-142673871D02*
X88698095Y-142521490D01*
X88698095Y-142521490D02*
X88667618Y-142460538D01*
X88667618Y-142460538D02*
X88637142Y-142430061D01*
X88637142Y-142430061D02*
X88576190Y-142399585D01*
X88576190Y-142399585D02*
X88454285Y-142399585D01*
X88454285Y-142399585D02*
X88393333Y-142430061D01*
X88393333Y-142430061D02*
X88362856Y-142460538D01*
X88362856Y-142460538D02*
X88332380Y-142521490D01*
X89307619Y-142795776D02*
X88941904Y-142795776D01*
X89124761Y-142795776D02*
X89124761Y-142155776D01*
X89124761Y-142155776D02*
X89063809Y-142247204D01*
X89063809Y-142247204D02*
X89002857Y-142308157D01*
X89002857Y-142308157D02*
X88941904Y-142338633D01*
X101588571Y-126695776D02*
X101375237Y-126391014D01*
X101222856Y-126695776D02*
X101222856Y-126055776D01*
X101222856Y-126055776D02*
X101466666Y-126055776D01*
X101466666Y-126055776D02*
X101527618Y-126086252D01*
X101527618Y-126086252D02*
X101558095Y-126116728D01*
X101558095Y-126116728D02*
X101588571Y-126177680D01*
X101588571Y-126177680D02*
X101588571Y-126269109D01*
X101588571Y-126269109D02*
X101558095Y-126330061D01*
X101558095Y-126330061D02*
X101527618Y-126360538D01*
X101527618Y-126360538D02*
X101466666Y-126391014D01*
X101466666Y-126391014D02*
X101222856Y-126391014D01*
X101832380Y-126116728D02*
X101862856Y-126086252D01*
X101862856Y-126086252D02*
X101923809Y-126055776D01*
X101923809Y-126055776D02*
X102076190Y-126055776D01*
X102076190Y-126055776D02*
X102137142Y-126086252D01*
X102137142Y-126086252D02*
X102167618Y-126116728D01*
X102167618Y-126116728D02*
X102198095Y-126177680D01*
X102198095Y-126177680D02*
X102198095Y-126238633D01*
X102198095Y-126238633D02*
X102167618Y-126330061D01*
X102167618Y-126330061D02*
X101801904Y-126695776D01*
X101801904Y-126695776D02*
X102198095Y-126695776D01*
X102746666Y-126055776D02*
X102624761Y-126055776D01*
X102624761Y-126055776D02*
X102563809Y-126086252D01*
X102563809Y-126086252D02*
X102533333Y-126116728D01*
X102533333Y-126116728D02*
X102472380Y-126208157D01*
X102472380Y-126208157D02*
X102441904Y-126330061D01*
X102441904Y-126330061D02*
X102441904Y-126573871D01*
X102441904Y-126573871D02*
X102472380Y-126634823D01*
X102472380Y-126634823D02*
X102502857Y-126665300D01*
X102502857Y-126665300D02*
X102563809Y-126695776D01*
X102563809Y-126695776D02*
X102685714Y-126695776D01*
X102685714Y-126695776D02*
X102746666Y-126665300D01*
X102746666Y-126665300D02*
X102777142Y-126634823D01*
X102777142Y-126634823D02*
X102807619Y-126573871D01*
X102807619Y-126573871D02*
X102807619Y-126421490D01*
X102807619Y-126421490D02*
X102777142Y-126360538D01*
X102777142Y-126360538D02*
X102746666Y-126330061D01*
X102746666Y-126330061D02*
X102685714Y-126299585D01*
X102685714Y-126299585D02*
X102563809Y-126299585D01*
X102563809Y-126299585D02*
X102502857Y-126330061D01*
X102502857Y-126330061D02*
X102472380Y-126360538D01*
X102472380Y-126360538D02*
X102441904Y-126421490D01*
X101188571Y-119134823D02*
X101158095Y-119165300D01*
X101158095Y-119165300D02*
X101066666Y-119195776D01*
X101066666Y-119195776D02*
X101005714Y-119195776D01*
X101005714Y-119195776D02*
X100914285Y-119165300D01*
X100914285Y-119165300D02*
X100853333Y-119104347D01*
X100853333Y-119104347D02*
X100822856Y-119043395D01*
X100822856Y-119043395D02*
X100792380Y-118921490D01*
X100792380Y-118921490D02*
X100792380Y-118830061D01*
X100792380Y-118830061D02*
X100822856Y-118708157D01*
X100822856Y-118708157D02*
X100853333Y-118647204D01*
X100853333Y-118647204D02*
X100914285Y-118586252D01*
X100914285Y-118586252D02*
X101005714Y-118555776D01*
X101005714Y-118555776D02*
X101066666Y-118555776D01*
X101066666Y-118555776D02*
X101158095Y-118586252D01*
X101158095Y-118586252D02*
X101188571Y-118616728D01*
X101432380Y-118616728D02*
X101462856Y-118586252D01*
X101462856Y-118586252D02*
X101523809Y-118555776D01*
X101523809Y-118555776D02*
X101676190Y-118555776D01*
X101676190Y-118555776D02*
X101737142Y-118586252D01*
X101737142Y-118586252D02*
X101767618Y-118616728D01*
X101767618Y-118616728D02*
X101798095Y-118677680D01*
X101798095Y-118677680D02*
X101798095Y-118738633D01*
X101798095Y-118738633D02*
X101767618Y-118830061D01*
X101767618Y-118830061D02*
X101401904Y-119195776D01*
X101401904Y-119195776D02*
X101798095Y-119195776D01*
X102346666Y-118769109D02*
X102346666Y-119195776D01*
X102194285Y-118525300D02*
X102041904Y-118982442D01*
X102041904Y-118982442D02*
X102438095Y-118982442D01*
X101588571Y-125495776D02*
X101375237Y-125191014D01*
X101222856Y-125495776D02*
X101222856Y-124855776D01*
X101222856Y-124855776D02*
X101466666Y-124855776D01*
X101466666Y-124855776D02*
X101527618Y-124886252D01*
X101527618Y-124886252D02*
X101558095Y-124916728D01*
X101558095Y-124916728D02*
X101588571Y-124977680D01*
X101588571Y-124977680D02*
X101588571Y-125069109D01*
X101588571Y-125069109D02*
X101558095Y-125130061D01*
X101558095Y-125130061D02*
X101527618Y-125160538D01*
X101527618Y-125160538D02*
X101466666Y-125191014D01*
X101466666Y-125191014D02*
X101222856Y-125191014D01*
X101832380Y-124916728D02*
X101862856Y-124886252D01*
X101862856Y-124886252D02*
X101923809Y-124855776D01*
X101923809Y-124855776D02*
X102076190Y-124855776D01*
X102076190Y-124855776D02*
X102137142Y-124886252D01*
X102137142Y-124886252D02*
X102167618Y-124916728D01*
X102167618Y-124916728D02*
X102198095Y-124977680D01*
X102198095Y-124977680D02*
X102198095Y-125038633D01*
X102198095Y-125038633D02*
X102167618Y-125130061D01*
X102167618Y-125130061D02*
X101801904Y-125495776D01*
X101801904Y-125495776D02*
X102198095Y-125495776D01*
X102411428Y-124855776D02*
X102807619Y-124855776D01*
X102807619Y-124855776D02*
X102594285Y-125099585D01*
X102594285Y-125099585D02*
X102685714Y-125099585D01*
X102685714Y-125099585D02*
X102746666Y-125130061D01*
X102746666Y-125130061D02*
X102777142Y-125160538D01*
X102777142Y-125160538D02*
X102807619Y-125221490D01*
X102807619Y-125221490D02*
X102807619Y-125373871D01*
X102807619Y-125373871D02*
X102777142Y-125434823D01*
X102777142Y-125434823D02*
X102746666Y-125465300D01*
X102746666Y-125465300D02*
X102685714Y-125495776D01*
X102685714Y-125495776D02*
X102502857Y-125495776D01*
X102502857Y-125495776D02*
X102441904Y-125465300D01*
X102441904Y-125465300D02*
X102411428Y-125434823D01*
X83338571Y-91227322D02*
X83308095Y-91257799D01*
X83308095Y-91257799D02*
X83216666Y-91288275D01*
X83216666Y-91288275D02*
X83155714Y-91288275D01*
X83155714Y-91288275D02*
X83064285Y-91257799D01*
X83064285Y-91257799D02*
X83003333Y-91196846D01*
X83003333Y-91196846D02*
X82972856Y-91135894D01*
X82972856Y-91135894D02*
X82942380Y-91013989D01*
X82942380Y-91013989D02*
X82942380Y-90922560D01*
X82942380Y-90922560D02*
X82972856Y-90800656D01*
X82972856Y-90800656D02*
X83003333Y-90739703D01*
X83003333Y-90739703D02*
X83064285Y-90678751D01*
X83064285Y-90678751D02*
X83155714Y-90648275D01*
X83155714Y-90648275D02*
X83216666Y-90648275D01*
X83216666Y-90648275D02*
X83308095Y-90678751D01*
X83308095Y-90678751D02*
X83338571Y-90709227D01*
X83917618Y-90648275D02*
X83612856Y-90648275D01*
X83612856Y-90648275D02*
X83582380Y-90953037D01*
X83582380Y-90953037D02*
X83612856Y-90922560D01*
X83612856Y-90922560D02*
X83673809Y-90892084D01*
X83673809Y-90892084D02*
X83826190Y-90892084D01*
X83826190Y-90892084D02*
X83887142Y-90922560D01*
X83887142Y-90922560D02*
X83917618Y-90953037D01*
X83917618Y-90953037D02*
X83948095Y-91013989D01*
X83948095Y-91013989D02*
X83948095Y-91166370D01*
X83948095Y-91166370D02*
X83917618Y-91227322D01*
X83917618Y-91227322D02*
X83887142Y-91257799D01*
X83887142Y-91257799D02*
X83826190Y-91288275D01*
X83826190Y-91288275D02*
X83673809Y-91288275D01*
X83673809Y-91288275D02*
X83612856Y-91257799D01*
X83612856Y-91257799D02*
X83582380Y-91227322D01*
X84252857Y-91288275D02*
X84374761Y-91288275D01*
X84374761Y-91288275D02*
X84435714Y-91257799D01*
X84435714Y-91257799D02*
X84466190Y-91227322D01*
X84466190Y-91227322D02*
X84527142Y-91135894D01*
X84527142Y-91135894D02*
X84557619Y-91013989D01*
X84557619Y-91013989D02*
X84557619Y-90770179D01*
X84557619Y-90770179D02*
X84527142Y-90709227D01*
X84527142Y-90709227D02*
X84496666Y-90678751D01*
X84496666Y-90678751D02*
X84435714Y-90648275D01*
X84435714Y-90648275D02*
X84313809Y-90648275D01*
X84313809Y-90648275D02*
X84252857Y-90678751D01*
X84252857Y-90678751D02*
X84222380Y-90709227D01*
X84222380Y-90709227D02*
X84191904Y-90770179D01*
X84191904Y-90770179D02*
X84191904Y-90922560D01*
X84191904Y-90922560D02*
X84222380Y-90983513D01*
X84222380Y-90983513D02*
X84252857Y-91013989D01*
X84252857Y-91013989D02*
X84313809Y-91044465D01*
X84313809Y-91044465D02*
X84435714Y-91044465D01*
X84435714Y-91044465D02*
X84496666Y-91013989D01*
X84496666Y-91013989D02*
X84527142Y-90983513D01*
X84527142Y-90983513D02*
X84557619Y-90922560D01*
X83288276Y-143618928D02*
X82983514Y-143832262D01*
X83288276Y-143984643D02*
X82648276Y-143984643D01*
X82648276Y-143984643D02*
X82648276Y-143740833D01*
X82648276Y-143740833D02*
X82678752Y-143679881D01*
X82678752Y-143679881D02*
X82709228Y-143649404D01*
X82709228Y-143649404D02*
X82770180Y-143618928D01*
X82770180Y-143618928D02*
X82861609Y-143618928D01*
X82861609Y-143618928D02*
X82922561Y-143649404D01*
X82922561Y-143649404D02*
X82953038Y-143679881D01*
X82953038Y-143679881D02*
X82983514Y-143740833D01*
X82983514Y-143740833D02*
X82983514Y-143984643D01*
X82709228Y-143375119D02*
X82678752Y-143344643D01*
X82678752Y-143344643D02*
X82648276Y-143283690D01*
X82648276Y-143283690D02*
X82648276Y-143131309D01*
X82648276Y-143131309D02*
X82678752Y-143070357D01*
X82678752Y-143070357D02*
X82709228Y-143039881D01*
X82709228Y-143039881D02*
X82770180Y-143009404D01*
X82770180Y-143009404D02*
X82831133Y-143009404D01*
X82831133Y-143009404D02*
X82922561Y-143039881D01*
X82922561Y-143039881D02*
X83288276Y-143405595D01*
X83288276Y-143405595D02*
X83288276Y-143009404D01*
X82922561Y-142643690D02*
X82892085Y-142704642D01*
X82892085Y-142704642D02*
X82861609Y-142735119D01*
X82861609Y-142735119D02*
X82800657Y-142765595D01*
X82800657Y-142765595D02*
X82770180Y-142765595D01*
X82770180Y-142765595D02*
X82709228Y-142735119D01*
X82709228Y-142735119D02*
X82678752Y-142704642D01*
X82678752Y-142704642D02*
X82648276Y-142643690D01*
X82648276Y-142643690D02*
X82648276Y-142521785D01*
X82648276Y-142521785D02*
X82678752Y-142460833D01*
X82678752Y-142460833D02*
X82709228Y-142430357D01*
X82709228Y-142430357D02*
X82770180Y-142399880D01*
X82770180Y-142399880D02*
X82800657Y-142399880D01*
X82800657Y-142399880D02*
X82861609Y-142430357D01*
X82861609Y-142430357D02*
X82892085Y-142460833D01*
X82892085Y-142460833D02*
X82922561Y-142521785D01*
X82922561Y-142521785D02*
X82922561Y-142643690D01*
X82922561Y-142643690D02*
X82953038Y-142704642D01*
X82953038Y-142704642D02*
X82983514Y-142735119D01*
X82983514Y-142735119D02*
X83044466Y-142765595D01*
X83044466Y-142765595D02*
X83166371Y-142765595D01*
X83166371Y-142765595D02*
X83227323Y-142735119D01*
X83227323Y-142735119D02*
X83257800Y-142704642D01*
X83257800Y-142704642D02*
X83288276Y-142643690D01*
X83288276Y-142643690D02*
X83288276Y-142521785D01*
X83288276Y-142521785D02*
X83257800Y-142460833D01*
X83257800Y-142460833D02*
X83227323Y-142430357D01*
X83227323Y-142430357D02*
X83166371Y-142399880D01*
X83166371Y-142399880D02*
X83044466Y-142399880D01*
X83044466Y-142399880D02*
X82983514Y-142430357D01*
X82983514Y-142430357D02*
X82953038Y-142460833D01*
X82953038Y-142460833D02*
X82922561Y-142521785D01*
X99802400Y-93059510D02*
X99586901Y-92844011D01*
X99586901Y-92844011D02*
X100039449Y-92391463D01*
X100362698Y-92714711D02*
X100642847Y-92994860D01*
X100642847Y-92994860D02*
X100319598Y-93016410D01*
X100319598Y-93016410D02*
X100384248Y-93081060D01*
X100384248Y-93081060D02*
X100405798Y-93145710D01*
X100405798Y-93145710D02*
X100405798Y-93188810D01*
X100405798Y-93188810D02*
X100384248Y-93253459D01*
X100384248Y-93253459D02*
X100276498Y-93361209D01*
X100276498Y-93361209D02*
X100211848Y-93382759D01*
X100211848Y-93382759D02*
X100168749Y-93382759D01*
X100168749Y-93382759D02*
X100104099Y-93361209D01*
X100104099Y-93361209D02*
X99974799Y-93231909D01*
X99974799Y-93231909D02*
X99953249Y-93167260D01*
X99953249Y-93167260D02*
X99953249Y-93124160D01*
X82393333Y-154695776D02*
X82179999Y-154391014D01*
X82027618Y-154695776D02*
X82027618Y-154055776D01*
X82027618Y-154055776D02*
X82271428Y-154055776D01*
X82271428Y-154055776D02*
X82332380Y-154086252D01*
X82332380Y-154086252D02*
X82362857Y-154116728D01*
X82362857Y-154116728D02*
X82393333Y-154177680D01*
X82393333Y-154177680D02*
X82393333Y-154269109D01*
X82393333Y-154269109D02*
X82362857Y-154330061D01*
X82362857Y-154330061D02*
X82332380Y-154360538D01*
X82332380Y-154360538D02*
X82271428Y-154391014D01*
X82271428Y-154391014D02*
X82027618Y-154391014D01*
X83002857Y-154695776D02*
X82637142Y-154695776D01*
X82819999Y-154695776D02*
X82819999Y-154055776D01*
X82819999Y-154055776D02*
X82759047Y-154147204D01*
X82759047Y-154147204D02*
X82698095Y-154208157D01*
X82698095Y-154208157D02*
X82637142Y-154238633D01*
X96174823Y-101961428D02*
X96205300Y-101991904D01*
X96205300Y-101991904D02*
X96235776Y-102083333D01*
X96235776Y-102083333D02*
X96235776Y-102144285D01*
X96235776Y-102144285D02*
X96205300Y-102235714D01*
X96205300Y-102235714D02*
X96144347Y-102296666D01*
X96144347Y-102296666D02*
X96083395Y-102327143D01*
X96083395Y-102327143D02*
X95961490Y-102357619D01*
X95961490Y-102357619D02*
X95870061Y-102357619D01*
X95870061Y-102357619D02*
X95748157Y-102327143D01*
X95748157Y-102327143D02*
X95687204Y-102296666D01*
X95687204Y-102296666D02*
X95626252Y-102235714D01*
X95626252Y-102235714D02*
X95595776Y-102144285D01*
X95595776Y-102144285D02*
X95595776Y-102083333D01*
X95595776Y-102083333D02*
X95626252Y-101991904D01*
X95626252Y-101991904D02*
X95656728Y-101961428D01*
X95809109Y-101412857D02*
X96235776Y-101412857D01*
X95565300Y-101565238D02*
X96022442Y-101717619D01*
X96022442Y-101717619D02*
X96022442Y-101321428D01*
X95595776Y-101138571D02*
X95595776Y-100742380D01*
X95595776Y-100742380D02*
X95839585Y-100955714D01*
X95839585Y-100955714D02*
X95839585Y-100864285D01*
X95839585Y-100864285D02*
X95870061Y-100803333D01*
X95870061Y-100803333D02*
X95900538Y-100772857D01*
X95900538Y-100772857D02*
X95961490Y-100742380D01*
X95961490Y-100742380D02*
X96113871Y-100742380D01*
X96113871Y-100742380D02*
X96174823Y-100772857D01*
X96174823Y-100772857D02*
X96205300Y-100803333D01*
X96205300Y-100803333D02*
X96235776Y-100864285D01*
X96235776Y-100864285D02*
X96235776Y-101047142D01*
X96235776Y-101047142D02*
X96205300Y-101108095D01*
X96205300Y-101108095D02*
X96174823Y-101138571D01*
X91973043Y-138008370D02*
X91606695Y-137943720D01*
X91714444Y-138266969D02*
X91261896Y-137814420D01*
X91261896Y-137814420D02*
X91434295Y-137642021D01*
X91434295Y-137642021D02*
X91498945Y-137620471D01*
X91498945Y-137620471D02*
X91542045Y-137620471D01*
X91542045Y-137620471D02*
X91606695Y-137642021D01*
X91606695Y-137642021D02*
X91671345Y-137706671D01*
X91671345Y-137706671D02*
X91692895Y-137771320D01*
X91692895Y-137771320D02*
X91692895Y-137814420D01*
X91692895Y-137814420D02*
X91671345Y-137879070D01*
X91671345Y-137879070D02*
X91498945Y-138051469D01*
X91908394Y-137167923D02*
X91822194Y-137254122D01*
X91822194Y-137254122D02*
X91800644Y-137318772D01*
X91800644Y-137318772D02*
X91800644Y-137361872D01*
X91800644Y-137361872D02*
X91822194Y-137469622D01*
X91822194Y-137469622D02*
X91886844Y-137577371D01*
X91886844Y-137577371D02*
X92059243Y-137749771D01*
X92059243Y-137749771D02*
X92123893Y-137771320D01*
X92123893Y-137771320D02*
X92166993Y-137771320D01*
X92166993Y-137771320D02*
X92231643Y-137749771D01*
X92231643Y-137749771D02*
X92317842Y-137663571D01*
X92317842Y-137663571D02*
X92339392Y-137598921D01*
X92339392Y-137598921D02*
X92339392Y-137555821D01*
X92339392Y-137555821D02*
X92317842Y-137491172D01*
X92317842Y-137491172D02*
X92210093Y-137383422D01*
X92210093Y-137383422D02*
X92145443Y-137361872D01*
X92145443Y-137361872D02*
X92102343Y-137361872D01*
X92102343Y-137361872D02*
X92037693Y-137383422D01*
X92037693Y-137383422D02*
X91951494Y-137469622D01*
X91951494Y-137469622D02*
X91929944Y-137534271D01*
X91929944Y-137534271D02*
X91929944Y-137577371D01*
X91929944Y-137577371D02*
X91951494Y-137642021D01*
X92102343Y-136973973D02*
X92382492Y-136693824D01*
X92382492Y-136693824D02*
X92404042Y-137017073D01*
X92404042Y-137017073D02*
X92468692Y-136952423D01*
X92468692Y-136952423D02*
X92533342Y-136930873D01*
X92533342Y-136930873D02*
X92576441Y-136930873D01*
X92576441Y-136930873D02*
X92641091Y-136952423D01*
X92641091Y-136952423D02*
X92748841Y-137060173D01*
X92748841Y-137060173D02*
X92770391Y-137124823D01*
X92770391Y-137124823D02*
X92770391Y-137167923D01*
X92770391Y-137167923D02*
X92748841Y-137232572D01*
X92748841Y-137232572D02*
X92619541Y-137361872D01*
X92619541Y-137361872D02*
X92554891Y-137383422D01*
X92554891Y-137383422D02*
X92511792Y-137383422D01*
X102738570Y-92227323D02*
X102708094Y-92257800D01*
X102708094Y-92257800D02*
X102616665Y-92288276D01*
X102616665Y-92288276D02*
X102555713Y-92288276D01*
X102555713Y-92288276D02*
X102464284Y-92257800D01*
X102464284Y-92257800D02*
X102403332Y-92196847D01*
X102403332Y-92196847D02*
X102372855Y-92135895D01*
X102372855Y-92135895D02*
X102342379Y-92013990D01*
X102342379Y-92013990D02*
X102342379Y-91922561D01*
X102342379Y-91922561D02*
X102372855Y-91800657D01*
X102372855Y-91800657D02*
X102403332Y-91739704D01*
X102403332Y-91739704D02*
X102464284Y-91678752D01*
X102464284Y-91678752D02*
X102555713Y-91648276D01*
X102555713Y-91648276D02*
X102616665Y-91648276D01*
X102616665Y-91648276D02*
X102708094Y-91678752D01*
X102708094Y-91678752D02*
X102738570Y-91709228D01*
X103317617Y-91648276D02*
X103012855Y-91648276D01*
X103012855Y-91648276D02*
X102982379Y-91953038D01*
X102982379Y-91953038D02*
X103012855Y-91922561D01*
X103012855Y-91922561D02*
X103073808Y-91892085D01*
X103073808Y-91892085D02*
X103226189Y-91892085D01*
X103226189Y-91892085D02*
X103287141Y-91922561D01*
X103287141Y-91922561D02*
X103317617Y-91953038D01*
X103317617Y-91953038D02*
X103348094Y-92013990D01*
X103348094Y-92013990D02*
X103348094Y-92166371D01*
X103348094Y-92166371D02*
X103317617Y-92227323D01*
X103317617Y-92227323D02*
X103287141Y-92257800D01*
X103287141Y-92257800D02*
X103226189Y-92288276D01*
X103226189Y-92288276D02*
X103073808Y-92288276D01*
X103073808Y-92288276D02*
X103012855Y-92257800D01*
X103012855Y-92257800D02*
X102982379Y-92227323D01*
X103957618Y-92288276D02*
X103591903Y-92288276D01*
X103774760Y-92288276D02*
X103774760Y-91648276D01*
X103774760Y-91648276D02*
X103713808Y-91739704D01*
X103713808Y-91739704D02*
X103652856Y-91800657D01*
X103652856Y-91800657D02*
X103591903Y-91831133D01*
X82336667Y-88285776D02*
X82336667Y-88742919D01*
X82336667Y-88742919D02*
X82306190Y-88834347D01*
X82306190Y-88834347D02*
X82245238Y-88895300D01*
X82245238Y-88895300D02*
X82153809Y-88925776D01*
X82153809Y-88925776D02*
X82092857Y-88925776D01*
X82915714Y-88499109D02*
X82915714Y-88925776D01*
X82763333Y-88255300D02*
X82610952Y-88712442D01*
X82610952Y-88712442D02*
X83007143Y-88712442D01*
X82188276Y-122614166D02*
X81883514Y-122827500D01*
X82188276Y-122979881D02*
X81548276Y-122979881D01*
X81548276Y-122979881D02*
X81548276Y-122736071D01*
X81548276Y-122736071D02*
X81578752Y-122675119D01*
X81578752Y-122675119D02*
X81609228Y-122644642D01*
X81609228Y-122644642D02*
X81670180Y-122614166D01*
X81670180Y-122614166D02*
X81761609Y-122614166D01*
X81761609Y-122614166D02*
X81822561Y-122644642D01*
X81822561Y-122644642D02*
X81853038Y-122675119D01*
X81853038Y-122675119D02*
X81883514Y-122736071D01*
X81883514Y-122736071D02*
X81883514Y-122979881D01*
X81822561Y-122248452D02*
X81792085Y-122309404D01*
X81792085Y-122309404D02*
X81761609Y-122339881D01*
X81761609Y-122339881D02*
X81700657Y-122370357D01*
X81700657Y-122370357D02*
X81670180Y-122370357D01*
X81670180Y-122370357D02*
X81609228Y-122339881D01*
X81609228Y-122339881D02*
X81578752Y-122309404D01*
X81578752Y-122309404D02*
X81548276Y-122248452D01*
X81548276Y-122248452D02*
X81548276Y-122126547D01*
X81548276Y-122126547D02*
X81578752Y-122065595D01*
X81578752Y-122065595D02*
X81609228Y-122035119D01*
X81609228Y-122035119D02*
X81670180Y-122004642D01*
X81670180Y-122004642D02*
X81700657Y-122004642D01*
X81700657Y-122004642D02*
X81761609Y-122035119D01*
X81761609Y-122035119D02*
X81792085Y-122065595D01*
X81792085Y-122065595D02*
X81822561Y-122126547D01*
X81822561Y-122126547D02*
X81822561Y-122248452D01*
X81822561Y-122248452D02*
X81853038Y-122309404D01*
X81853038Y-122309404D02*
X81883514Y-122339881D01*
X81883514Y-122339881D02*
X81944466Y-122370357D01*
X81944466Y-122370357D02*
X82066371Y-122370357D01*
X82066371Y-122370357D02*
X82127323Y-122339881D01*
X82127323Y-122339881D02*
X82157800Y-122309404D01*
X82157800Y-122309404D02*
X82188276Y-122248452D01*
X82188276Y-122248452D02*
X82188276Y-122126547D01*
X82188276Y-122126547D02*
X82157800Y-122065595D01*
X82157800Y-122065595D02*
X82127323Y-122035119D01*
X82127323Y-122035119D02*
X82066371Y-122004642D01*
X82066371Y-122004642D02*
X81944466Y-122004642D01*
X81944466Y-122004642D02*
X81883514Y-122035119D01*
X81883514Y-122035119D02*
X81853038Y-122065595D01*
X81853038Y-122065595D02*
X81822561Y-122126547D01*
X94512380Y-127155776D02*
X94512380Y-127673871D01*
X94512380Y-127673871D02*
X94542857Y-127734823D01*
X94542857Y-127734823D02*
X94573333Y-127765300D01*
X94573333Y-127765300D02*
X94634285Y-127795776D01*
X94634285Y-127795776D02*
X94756190Y-127795776D01*
X94756190Y-127795776D02*
X94817142Y-127765300D01*
X94817142Y-127765300D02*
X94847619Y-127734823D01*
X94847619Y-127734823D02*
X94878095Y-127673871D01*
X94878095Y-127673871D02*
X94878095Y-127155776D01*
X95213333Y-127795776D02*
X95335237Y-127795776D01*
X95335237Y-127795776D02*
X95396190Y-127765300D01*
X95396190Y-127765300D02*
X95426666Y-127734823D01*
X95426666Y-127734823D02*
X95487618Y-127643395D01*
X95487618Y-127643395D02*
X95518095Y-127521490D01*
X95518095Y-127521490D02*
X95518095Y-127277680D01*
X95518095Y-127277680D02*
X95487618Y-127216728D01*
X95487618Y-127216728D02*
X95457142Y-127186252D01*
X95457142Y-127186252D02*
X95396190Y-127155776D01*
X95396190Y-127155776D02*
X95274285Y-127155776D01*
X95274285Y-127155776D02*
X95213333Y-127186252D01*
X95213333Y-127186252D02*
X95182856Y-127216728D01*
X95182856Y-127216728D02*
X95152380Y-127277680D01*
X95152380Y-127277680D02*
X95152380Y-127430061D01*
X95152380Y-127430061D02*
X95182856Y-127491014D01*
X95182856Y-127491014D02*
X95213333Y-127521490D01*
X95213333Y-127521490D02*
X95274285Y-127551966D01*
X95274285Y-127551966D02*
X95396190Y-127551966D01*
X95396190Y-127551966D02*
X95457142Y-127521490D01*
X95457142Y-127521490D02*
X95487618Y-127491014D01*
X95487618Y-127491014D02*
X95518095Y-127430061D01*
X92488276Y-128518928D02*
X92183514Y-128732262D01*
X92488276Y-128884643D02*
X91848276Y-128884643D01*
X91848276Y-128884643D02*
X91848276Y-128640833D01*
X91848276Y-128640833D02*
X91878752Y-128579881D01*
X91878752Y-128579881D02*
X91909228Y-128549404D01*
X91909228Y-128549404D02*
X91970180Y-128518928D01*
X91970180Y-128518928D02*
X92061609Y-128518928D01*
X92061609Y-128518928D02*
X92122561Y-128549404D01*
X92122561Y-128549404D02*
X92153038Y-128579881D01*
X92153038Y-128579881D02*
X92183514Y-128640833D01*
X92183514Y-128640833D02*
X92183514Y-128884643D01*
X91848276Y-128305595D02*
X91848276Y-127909404D01*
X91848276Y-127909404D02*
X92092085Y-128122738D01*
X92092085Y-128122738D02*
X92092085Y-128031309D01*
X92092085Y-128031309D02*
X92122561Y-127970357D01*
X92122561Y-127970357D02*
X92153038Y-127939881D01*
X92153038Y-127939881D02*
X92213990Y-127909404D01*
X92213990Y-127909404D02*
X92366371Y-127909404D01*
X92366371Y-127909404D02*
X92427323Y-127939881D01*
X92427323Y-127939881D02*
X92457800Y-127970357D01*
X92457800Y-127970357D02*
X92488276Y-128031309D01*
X92488276Y-128031309D02*
X92488276Y-128214166D01*
X92488276Y-128214166D02*
X92457800Y-128275119D01*
X92457800Y-128275119D02*
X92427323Y-128305595D01*
X91848276Y-127360833D02*
X91848276Y-127482738D01*
X91848276Y-127482738D02*
X91878752Y-127543690D01*
X91878752Y-127543690D02*
X91909228Y-127574166D01*
X91909228Y-127574166D02*
X92000657Y-127635119D01*
X92000657Y-127635119D02*
X92122561Y-127665595D01*
X92122561Y-127665595D02*
X92366371Y-127665595D01*
X92366371Y-127665595D02*
X92427323Y-127635119D01*
X92427323Y-127635119D02*
X92457800Y-127604642D01*
X92457800Y-127604642D02*
X92488276Y-127543690D01*
X92488276Y-127543690D02*
X92488276Y-127421785D01*
X92488276Y-127421785D02*
X92457800Y-127360833D01*
X92457800Y-127360833D02*
X92427323Y-127330357D01*
X92427323Y-127330357D02*
X92366371Y-127299880D01*
X92366371Y-127299880D02*
X92213990Y-127299880D01*
X92213990Y-127299880D02*
X92153038Y-127330357D01*
X92153038Y-127330357D02*
X92122561Y-127360833D01*
X92122561Y-127360833D02*
X92092085Y-127421785D01*
X92092085Y-127421785D02*
X92092085Y-127543690D01*
X92092085Y-127543690D02*
X92122561Y-127604642D01*
X92122561Y-127604642D02*
X92153038Y-127635119D01*
X92153038Y-127635119D02*
X92213990Y-127665595D01*
X87857576Y-122738409D02*
X88375671Y-122738409D01*
X88375671Y-122738409D02*
X88436623Y-122707932D01*
X88436623Y-122707932D02*
X88467100Y-122677456D01*
X88467100Y-122677456D02*
X88497576Y-122616504D01*
X88497576Y-122616504D02*
X88497576Y-122494599D01*
X88497576Y-122494599D02*
X88467100Y-122433647D01*
X88467100Y-122433647D02*
X88436623Y-122403170D01*
X88436623Y-122403170D02*
X88375671Y-122372694D01*
X88375671Y-122372694D02*
X87857576Y-122372694D01*
X88070909Y-121793647D02*
X88497576Y-121793647D01*
X87827100Y-121946028D02*
X88284242Y-122098409D01*
X88284242Y-122098409D02*
X88284242Y-121702218D01*
X94027323Y-96461428D02*
X94057800Y-96491904D01*
X94057800Y-96491904D02*
X94088276Y-96583333D01*
X94088276Y-96583333D02*
X94088276Y-96644285D01*
X94088276Y-96644285D02*
X94057800Y-96735714D01*
X94057800Y-96735714D02*
X93996847Y-96796666D01*
X93996847Y-96796666D02*
X93935895Y-96827143D01*
X93935895Y-96827143D02*
X93813990Y-96857619D01*
X93813990Y-96857619D02*
X93722561Y-96857619D01*
X93722561Y-96857619D02*
X93600657Y-96827143D01*
X93600657Y-96827143D02*
X93539704Y-96796666D01*
X93539704Y-96796666D02*
X93478752Y-96735714D01*
X93478752Y-96735714D02*
X93448276Y-96644285D01*
X93448276Y-96644285D02*
X93448276Y-96583333D01*
X93448276Y-96583333D02*
X93478752Y-96491904D01*
X93478752Y-96491904D02*
X93509228Y-96461428D01*
X93661609Y-95912857D02*
X94088276Y-95912857D01*
X93417800Y-96065238D02*
X93874942Y-96217619D01*
X93874942Y-96217619D02*
X93874942Y-95821428D01*
X93661609Y-95303333D02*
X94088276Y-95303333D01*
X93417800Y-95455714D02*
X93874942Y-95608095D01*
X93874942Y-95608095D02*
X93874942Y-95211904D01*
X82827323Y-91518928D02*
X82857800Y-91549404D01*
X82857800Y-91549404D02*
X82888276Y-91640833D01*
X82888276Y-91640833D02*
X82888276Y-91701785D01*
X82888276Y-91701785D02*
X82857800Y-91793214D01*
X82857800Y-91793214D02*
X82796847Y-91854166D01*
X82796847Y-91854166D02*
X82735895Y-91884643D01*
X82735895Y-91884643D02*
X82613990Y-91915119D01*
X82613990Y-91915119D02*
X82522561Y-91915119D01*
X82522561Y-91915119D02*
X82400657Y-91884643D01*
X82400657Y-91884643D02*
X82339704Y-91854166D01*
X82339704Y-91854166D02*
X82278752Y-91793214D01*
X82278752Y-91793214D02*
X82248276Y-91701785D01*
X82248276Y-91701785D02*
X82248276Y-91640833D01*
X82248276Y-91640833D02*
X82278752Y-91549404D01*
X82278752Y-91549404D02*
X82309228Y-91518928D01*
X82248276Y-90939881D02*
X82248276Y-91244643D01*
X82248276Y-91244643D02*
X82553038Y-91275119D01*
X82553038Y-91275119D02*
X82522561Y-91244643D01*
X82522561Y-91244643D02*
X82492085Y-91183690D01*
X82492085Y-91183690D02*
X82492085Y-91031309D01*
X82492085Y-91031309D02*
X82522561Y-90970357D01*
X82522561Y-90970357D02*
X82553038Y-90939881D01*
X82553038Y-90939881D02*
X82613990Y-90909404D01*
X82613990Y-90909404D02*
X82766371Y-90909404D01*
X82766371Y-90909404D02*
X82827323Y-90939881D01*
X82827323Y-90939881D02*
X82857800Y-90970357D01*
X82857800Y-90970357D02*
X82888276Y-91031309D01*
X82888276Y-91031309D02*
X82888276Y-91183690D01*
X82888276Y-91183690D02*
X82857800Y-91244643D01*
X82857800Y-91244643D02*
X82827323Y-91275119D01*
X82248276Y-90330357D02*
X82248276Y-90635119D01*
X82248276Y-90635119D02*
X82553038Y-90665595D01*
X82553038Y-90665595D02*
X82522561Y-90635119D01*
X82522561Y-90635119D02*
X82492085Y-90574166D01*
X82492085Y-90574166D02*
X82492085Y-90421785D01*
X82492085Y-90421785D02*
X82522561Y-90360833D01*
X82522561Y-90360833D02*
X82553038Y-90330357D01*
X82553038Y-90330357D02*
X82613990Y-90299880D01*
X82613990Y-90299880D02*
X82766371Y-90299880D01*
X82766371Y-90299880D02*
X82827323Y-90330357D01*
X82827323Y-90330357D02*
X82857800Y-90360833D01*
X82857800Y-90360833D02*
X82888276Y-90421785D01*
X82888276Y-90421785D02*
X82888276Y-90574166D01*
X82888276Y-90574166D02*
X82857800Y-90635119D01*
X82857800Y-90635119D02*
X82827323Y-90665595D01*
X92327323Y-141518928D02*
X92357800Y-141549404D01*
X92357800Y-141549404D02*
X92388276Y-141640833D01*
X92388276Y-141640833D02*
X92388276Y-141701785D01*
X92388276Y-141701785D02*
X92357800Y-141793214D01*
X92357800Y-141793214D02*
X92296847Y-141854166D01*
X92296847Y-141854166D02*
X92235895Y-141884643D01*
X92235895Y-141884643D02*
X92113990Y-141915119D01*
X92113990Y-141915119D02*
X92022561Y-141915119D01*
X92022561Y-141915119D02*
X91900657Y-141884643D01*
X91900657Y-141884643D02*
X91839704Y-141854166D01*
X91839704Y-141854166D02*
X91778752Y-141793214D01*
X91778752Y-141793214D02*
X91748276Y-141701785D01*
X91748276Y-141701785D02*
X91748276Y-141640833D01*
X91748276Y-141640833D02*
X91778752Y-141549404D01*
X91778752Y-141549404D02*
X91809228Y-141518928D01*
X92022561Y-141153214D02*
X91992085Y-141214166D01*
X91992085Y-141214166D02*
X91961609Y-141244643D01*
X91961609Y-141244643D02*
X91900657Y-141275119D01*
X91900657Y-141275119D02*
X91870180Y-141275119D01*
X91870180Y-141275119D02*
X91809228Y-141244643D01*
X91809228Y-141244643D02*
X91778752Y-141214166D01*
X91778752Y-141214166D02*
X91748276Y-141153214D01*
X91748276Y-141153214D02*
X91748276Y-141031309D01*
X91748276Y-141031309D02*
X91778752Y-140970357D01*
X91778752Y-140970357D02*
X91809228Y-140939881D01*
X91809228Y-140939881D02*
X91870180Y-140909404D01*
X91870180Y-140909404D02*
X91900657Y-140909404D01*
X91900657Y-140909404D02*
X91961609Y-140939881D01*
X91961609Y-140939881D02*
X91992085Y-140970357D01*
X91992085Y-140970357D02*
X92022561Y-141031309D01*
X92022561Y-141031309D02*
X92022561Y-141153214D01*
X92022561Y-141153214D02*
X92053038Y-141214166D01*
X92053038Y-141214166D02*
X92083514Y-141244643D01*
X92083514Y-141244643D02*
X92144466Y-141275119D01*
X92144466Y-141275119D02*
X92266371Y-141275119D01*
X92266371Y-141275119D02*
X92327323Y-141244643D01*
X92327323Y-141244643D02*
X92357800Y-141214166D01*
X92357800Y-141214166D02*
X92388276Y-141153214D01*
X92388276Y-141153214D02*
X92388276Y-141031309D01*
X92388276Y-141031309D02*
X92357800Y-140970357D01*
X92357800Y-140970357D02*
X92327323Y-140939881D01*
X92327323Y-140939881D02*
X92266371Y-140909404D01*
X92266371Y-140909404D02*
X92144466Y-140909404D01*
X92144466Y-140909404D02*
X92083514Y-140939881D01*
X92083514Y-140939881D02*
X92053038Y-140970357D01*
X92053038Y-140970357D02*
X92022561Y-141031309D01*
X92388276Y-140299880D02*
X92388276Y-140665595D01*
X92388276Y-140482738D02*
X91748276Y-140482738D01*
X91748276Y-140482738D02*
X91839704Y-140543690D01*
X91839704Y-140543690D02*
X91900657Y-140604642D01*
X91900657Y-140604642D02*
X91931133Y-140665595D01*
X102027323Y-155318928D02*
X102057800Y-155349404D01*
X102057800Y-155349404D02*
X102088276Y-155440833D01*
X102088276Y-155440833D02*
X102088276Y-155501785D01*
X102088276Y-155501785D02*
X102057800Y-155593214D01*
X102057800Y-155593214D02*
X101996847Y-155654166D01*
X101996847Y-155654166D02*
X101935895Y-155684643D01*
X101935895Y-155684643D02*
X101813990Y-155715119D01*
X101813990Y-155715119D02*
X101722561Y-155715119D01*
X101722561Y-155715119D02*
X101600657Y-155684643D01*
X101600657Y-155684643D02*
X101539704Y-155654166D01*
X101539704Y-155654166D02*
X101478752Y-155593214D01*
X101478752Y-155593214D02*
X101448276Y-155501785D01*
X101448276Y-155501785D02*
X101448276Y-155440833D01*
X101448276Y-155440833D02*
X101478752Y-155349404D01*
X101478752Y-155349404D02*
X101509228Y-155318928D01*
X101448276Y-154770357D02*
X101448276Y-154892262D01*
X101448276Y-154892262D02*
X101478752Y-154953214D01*
X101478752Y-154953214D02*
X101509228Y-154983690D01*
X101509228Y-154983690D02*
X101600657Y-155044643D01*
X101600657Y-155044643D02*
X101722561Y-155075119D01*
X101722561Y-155075119D02*
X101966371Y-155075119D01*
X101966371Y-155075119D02*
X102027323Y-155044643D01*
X102027323Y-155044643D02*
X102057800Y-155014166D01*
X102057800Y-155014166D02*
X102088276Y-154953214D01*
X102088276Y-154953214D02*
X102088276Y-154831309D01*
X102088276Y-154831309D02*
X102057800Y-154770357D01*
X102057800Y-154770357D02*
X102027323Y-154739881D01*
X102027323Y-154739881D02*
X101966371Y-154709404D01*
X101966371Y-154709404D02*
X101813990Y-154709404D01*
X101813990Y-154709404D02*
X101753038Y-154739881D01*
X101753038Y-154739881D02*
X101722561Y-154770357D01*
X101722561Y-154770357D02*
X101692085Y-154831309D01*
X101692085Y-154831309D02*
X101692085Y-154953214D01*
X101692085Y-154953214D02*
X101722561Y-155014166D01*
X101722561Y-155014166D02*
X101753038Y-155044643D01*
X101753038Y-155044643D02*
X101813990Y-155075119D01*
X101448276Y-154496071D02*
X101448276Y-154099880D01*
X101448276Y-154099880D02*
X101692085Y-154313214D01*
X101692085Y-154313214D02*
X101692085Y-154221785D01*
X101692085Y-154221785D02*
X101722561Y-154160833D01*
X101722561Y-154160833D02*
X101753038Y-154130357D01*
X101753038Y-154130357D02*
X101813990Y-154099880D01*
X101813990Y-154099880D02*
X101966371Y-154099880D01*
X101966371Y-154099880D02*
X102027323Y-154130357D01*
X102027323Y-154130357D02*
X102057800Y-154160833D01*
X102057800Y-154160833D02*
X102088276Y-154221785D01*
X102088276Y-154221785D02*
X102088276Y-154404642D01*
X102088276Y-154404642D02*
X102057800Y-154465595D01*
X102057800Y-154465595D02*
X102027323Y-154496071D01*
X90438571Y-101977323D02*
X90408095Y-102007800D01*
X90408095Y-102007800D02*
X90316666Y-102038276D01*
X90316666Y-102038276D02*
X90255714Y-102038276D01*
X90255714Y-102038276D02*
X90164285Y-102007800D01*
X90164285Y-102007800D02*
X90103333Y-101946847D01*
X90103333Y-101946847D02*
X90072856Y-101885895D01*
X90072856Y-101885895D02*
X90042380Y-101763990D01*
X90042380Y-101763990D02*
X90042380Y-101672561D01*
X90042380Y-101672561D02*
X90072856Y-101550657D01*
X90072856Y-101550657D02*
X90103333Y-101489704D01*
X90103333Y-101489704D02*
X90164285Y-101428752D01*
X90164285Y-101428752D02*
X90255714Y-101398276D01*
X90255714Y-101398276D02*
X90316666Y-101398276D01*
X90316666Y-101398276D02*
X90408095Y-101428752D01*
X90408095Y-101428752D02*
X90438571Y-101459228D01*
X90987142Y-101398276D02*
X90865237Y-101398276D01*
X90865237Y-101398276D02*
X90804285Y-101428752D01*
X90804285Y-101428752D02*
X90773809Y-101459228D01*
X90773809Y-101459228D02*
X90712856Y-101550657D01*
X90712856Y-101550657D02*
X90682380Y-101672561D01*
X90682380Y-101672561D02*
X90682380Y-101916371D01*
X90682380Y-101916371D02*
X90712856Y-101977323D01*
X90712856Y-101977323D02*
X90743333Y-102007800D01*
X90743333Y-102007800D02*
X90804285Y-102038276D01*
X90804285Y-102038276D02*
X90926190Y-102038276D01*
X90926190Y-102038276D02*
X90987142Y-102007800D01*
X90987142Y-102007800D02*
X91017618Y-101977323D01*
X91017618Y-101977323D02*
X91048095Y-101916371D01*
X91048095Y-101916371D02*
X91048095Y-101763990D01*
X91048095Y-101763990D02*
X91017618Y-101703038D01*
X91017618Y-101703038D02*
X90987142Y-101672561D01*
X90987142Y-101672561D02*
X90926190Y-101642085D01*
X90926190Y-101642085D02*
X90804285Y-101642085D01*
X90804285Y-101642085D02*
X90743333Y-101672561D01*
X90743333Y-101672561D02*
X90712856Y-101703038D01*
X90712856Y-101703038D02*
X90682380Y-101763990D01*
X91261428Y-101398276D02*
X91688095Y-101398276D01*
X91688095Y-101398276D02*
X91413809Y-102038276D01*
X101438571Y-101688276D02*
X101225237Y-101383514D01*
X101072856Y-101688276D02*
X101072856Y-101048276D01*
X101072856Y-101048276D02*
X101316666Y-101048276D01*
X101316666Y-101048276D02*
X101377618Y-101078752D01*
X101377618Y-101078752D02*
X101408095Y-101109228D01*
X101408095Y-101109228D02*
X101438571Y-101170180D01*
X101438571Y-101170180D02*
X101438571Y-101261609D01*
X101438571Y-101261609D02*
X101408095Y-101322561D01*
X101408095Y-101322561D02*
X101377618Y-101353038D01*
X101377618Y-101353038D02*
X101316666Y-101383514D01*
X101316666Y-101383514D02*
X101072856Y-101383514D01*
X101682380Y-101109228D02*
X101712856Y-101078752D01*
X101712856Y-101078752D02*
X101773809Y-101048276D01*
X101773809Y-101048276D02*
X101926190Y-101048276D01*
X101926190Y-101048276D02*
X101987142Y-101078752D01*
X101987142Y-101078752D02*
X102017618Y-101109228D01*
X102017618Y-101109228D02*
X102048095Y-101170180D01*
X102048095Y-101170180D02*
X102048095Y-101231133D01*
X102048095Y-101231133D02*
X102017618Y-101322561D01*
X102017618Y-101322561D02*
X101651904Y-101688276D01*
X101651904Y-101688276D02*
X102048095Y-101688276D01*
X102261428Y-101048276D02*
X102688095Y-101048276D01*
X102688095Y-101048276D02*
X102413809Y-101688276D01*
X91427323Y-161811428D02*
X91457800Y-161841904D01*
X91457800Y-161841904D02*
X91488276Y-161933333D01*
X91488276Y-161933333D02*
X91488276Y-161994285D01*
X91488276Y-161994285D02*
X91457800Y-162085714D01*
X91457800Y-162085714D02*
X91396847Y-162146666D01*
X91396847Y-162146666D02*
X91335895Y-162177143D01*
X91335895Y-162177143D02*
X91213990Y-162207619D01*
X91213990Y-162207619D02*
X91122561Y-162207619D01*
X91122561Y-162207619D02*
X91000657Y-162177143D01*
X91000657Y-162177143D02*
X90939704Y-162146666D01*
X90939704Y-162146666D02*
X90878752Y-162085714D01*
X90878752Y-162085714D02*
X90848276Y-161994285D01*
X90848276Y-161994285D02*
X90848276Y-161933333D01*
X90848276Y-161933333D02*
X90878752Y-161841904D01*
X90878752Y-161841904D02*
X90909228Y-161811428D01*
X91122561Y-161445714D02*
X91092085Y-161506666D01*
X91092085Y-161506666D02*
X91061609Y-161537143D01*
X91061609Y-161537143D02*
X91000657Y-161567619D01*
X91000657Y-161567619D02*
X90970180Y-161567619D01*
X90970180Y-161567619D02*
X90909228Y-161537143D01*
X90909228Y-161537143D02*
X90878752Y-161506666D01*
X90878752Y-161506666D02*
X90848276Y-161445714D01*
X90848276Y-161445714D02*
X90848276Y-161323809D01*
X90848276Y-161323809D02*
X90878752Y-161262857D01*
X90878752Y-161262857D02*
X90909228Y-161232381D01*
X90909228Y-161232381D02*
X90970180Y-161201904D01*
X90970180Y-161201904D02*
X91000657Y-161201904D01*
X91000657Y-161201904D02*
X91061609Y-161232381D01*
X91061609Y-161232381D02*
X91092085Y-161262857D01*
X91092085Y-161262857D02*
X91122561Y-161323809D01*
X91122561Y-161323809D02*
X91122561Y-161445714D01*
X91122561Y-161445714D02*
X91153038Y-161506666D01*
X91153038Y-161506666D02*
X91183514Y-161537143D01*
X91183514Y-161537143D02*
X91244466Y-161567619D01*
X91244466Y-161567619D02*
X91366371Y-161567619D01*
X91366371Y-161567619D02*
X91427323Y-161537143D01*
X91427323Y-161537143D02*
X91457800Y-161506666D01*
X91457800Y-161506666D02*
X91488276Y-161445714D01*
X91488276Y-161445714D02*
X91488276Y-161323809D01*
X91488276Y-161323809D02*
X91457800Y-161262857D01*
X91457800Y-161262857D02*
X91427323Y-161232381D01*
X91427323Y-161232381D02*
X91366371Y-161201904D01*
X91366371Y-161201904D02*
X91244466Y-161201904D01*
X91244466Y-161201904D02*
X91183514Y-161232381D01*
X91183514Y-161232381D02*
X91153038Y-161262857D01*
X91153038Y-161262857D02*
X91122561Y-161323809D01*
X90848276Y-160805714D02*
X90848276Y-160744761D01*
X90848276Y-160744761D02*
X90878752Y-160683809D01*
X90878752Y-160683809D02*
X90909228Y-160653333D01*
X90909228Y-160653333D02*
X90970180Y-160622857D01*
X90970180Y-160622857D02*
X91092085Y-160592380D01*
X91092085Y-160592380D02*
X91244466Y-160592380D01*
X91244466Y-160592380D02*
X91366371Y-160622857D01*
X91366371Y-160622857D02*
X91427323Y-160653333D01*
X91427323Y-160653333D02*
X91457800Y-160683809D01*
X91457800Y-160683809D02*
X91488276Y-160744761D01*
X91488276Y-160744761D02*
X91488276Y-160805714D01*
X91488276Y-160805714D02*
X91457800Y-160866666D01*
X91457800Y-160866666D02*
X91427323Y-160897142D01*
X91427323Y-160897142D02*
X91366371Y-160927619D01*
X91366371Y-160927619D02*
X91244466Y-160958095D01*
X91244466Y-160958095D02*
X91092085Y-160958095D01*
X91092085Y-160958095D02*
X90970180Y-160927619D01*
X90970180Y-160927619D02*
X90909228Y-160897142D01*
X90909228Y-160897142D02*
X90878752Y-160866666D01*
X90878752Y-160866666D02*
X90848276Y-160805714D01*
X93127323Y-161718928D02*
X93157800Y-161749404D01*
X93157800Y-161749404D02*
X93188276Y-161840833D01*
X93188276Y-161840833D02*
X93188276Y-161901785D01*
X93188276Y-161901785D02*
X93157800Y-161993214D01*
X93157800Y-161993214D02*
X93096847Y-162054166D01*
X93096847Y-162054166D02*
X93035895Y-162084643D01*
X93035895Y-162084643D02*
X92913990Y-162115119D01*
X92913990Y-162115119D02*
X92822561Y-162115119D01*
X92822561Y-162115119D02*
X92700657Y-162084643D01*
X92700657Y-162084643D02*
X92639704Y-162054166D01*
X92639704Y-162054166D02*
X92578752Y-161993214D01*
X92578752Y-161993214D02*
X92548276Y-161901785D01*
X92548276Y-161901785D02*
X92548276Y-161840833D01*
X92548276Y-161840833D02*
X92578752Y-161749404D01*
X92578752Y-161749404D02*
X92609228Y-161718928D01*
X92548276Y-161170357D02*
X92548276Y-161292262D01*
X92548276Y-161292262D02*
X92578752Y-161353214D01*
X92578752Y-161353214D02*
X92609228Y-161383690D01*
X92609228Y-161383690D02*
X92700657Y-161444643D01*
X92700657Y-161444643D02*
X92822561Y-161475119D01*
X92822561Y-161475119D02*
X93066371Y-161475119D01*
X93066371Y-161475119D02*
X93127323Y-161444643D01*
X93127323Y-161444643D02*
X93157800Y-161414166D01*
X93157800Y-161414166D02*
X93188276Y-161353214D01*
X93188276Y-161353214D02*
X93188276Y-161231309D01*
X93188276Y-161231309D02*
X93157800Y-161170357D01*
X93157800Y-161170357D02*
X93127323Y-161139881D01*
X93127323Y-161139881D02*
X93066371Y-161109404D01*
X93066371Y-161109404D02*
X92913990Y-161109404D01*
X92913990Y-161109404D02*
X92853038Y-161139881D01*
X92853038Y-161139881D02*
X92822561Y-161170357D01*
X92822561Y-161170357D02*
X92792085Y-161231309D01*
X92792085Y-161231309D02*
X92792085Y-161353214D01*
X92792085Y-161353214D02*
X92822561Y-161414166D01*
X92822561Y-161414166D02*
X92853038Y-161444643D01*
X92853038Y-161444643D02*
X92913990Y-161475119D01*
X92548276Y-160560833D02*
X92548276Y-160682738D01*
X92548276Y-160682738D02*
X92578752Y-160743690D01*
X92578752Y-160743690D02*
X92609228Y-160774166D01*
X92609228Y-160774166D02*
X92700657Y-160835119D01*
X92700657Y-160835119D02*
X92822561Y-160865595D01*
X92822561Y-160865595D02*
X93066371Y-160865595D01*
X93066371Y-160865595D02*
X93127323Y-160835119D01*
X93127323Y-160835119D02*
X93157800Y-160804642D01*
X93157800Y-160804642D02*
X93188276Y-160743690D01*
X93188276Y-160743690D02*
X93188276Y-160621785D01*
X93188276Y-160621785D02*
X93157800Y-160560833D01*
X93157800Y-160560833D02*
X93127323Y-160530357D01*
X93127323Y-160530357D02*
X93066371Y-160499880D01*
X93066371Y-160499880D02*
X92913990Y-160499880D01*
X92913990Y-160499880D02*
X92853038Y-160530357D01*
X92853038Y-160530357D02*
X92822561Y-160560833D01*
X92822561Y-160560833D02*
X92792085Y-160621785D01*
X92792085Y-160621785D02*
X92792085Y-160743690D01*
X92792085Y-160743690D02*
X92822561Y-160804642D01*
X92822561Y-160804642D02*
X92853038Y-160835119D01*
X92853038Y-160835119D02*
X92913990Y-160865595D01*
X87327323Y-93418928D02*
X87357800Y-93449404D01*
X87357800Y-93449404D02*
X87388276Y-93540833D01*
X87388276Y-93540833D02*
X87388276Y-93601785D01*
X87388276Y-93601785D02*
X87357800Y-93693214D01*
X87357800Y-93693214D02*
X87296847Y-93754166D01*
X87296847Y-93754166D02*
X87235895Y-93784643D01*
X87235895Y-93784643D02*
X87113990Y-93815119D01*
X87113990Y-93815119D02*
X87022561Y-93815119D01*
X87022561Y-93815119D02*
X86900657Y-93784643D01*
X86900657Y-93784643D02*
X86839704Y-93754166D01*
X86839704Y-93754166D02*
X86778752Y-93693214D01*
X86778752Y-93693214D02*
X86748276Y-93601785D01*
X86748276Y-93601785D02*
X86748276Y-93540833D01*
X86748276Y-93540833D02*
X86778752Y-93449404D01*
X86778752Y-93449404D02*
X86809228Y-93418928D01*
X86748276Y-93205595D02*
X86748276Y-92778928D01*
X86748276Y-92778928D02*
X87388276Y-93053214D01*
X86748276Y-92260833D02*
X86748276Y-92382738D01*
X86748276Y-92382738D02*
X86778752Y-92443690D01*
X86778752Y-92443690D02*
X86809228Y-92474166D01*
X86809228Y-92474166D02*
X86900657Y-92535119D01*
X86900657Y-92535119D02*
X87022561Y-92565595D01*
X87022561Y-92565595D02*
X87266371Y-92565595D01*
X87266371Y-92565595D02*
X87327323Y-92535119D01*
X87327323Y-92535119D02*
X87357800Y-92504642D01*
X87357800Y-92504642D02*
X87388276Y-92443690D01*
X87388276Y-92443690D02*
X87388276Y-92321785D01*
X87388276Y-92321785D02*
X87357800Y-92260833D01*
X87357800Y-92260833D02*
X87327323Y-92230357D01*
X87327323Y-92230357D02*
X87266371Y-92199880D01*
X87266371Y-92199880D02*
X87113990Y-92199880D01*
X87113990Y-92199880D02*
X87053038Y-92230357D01*
X87053038Y-92230357D02*
X87022561Y-92260833D01*
X87022561Y-92260833D02*
X86992085Y-92321785D01*
X86992085Y-92321785D02*
X86992085Y-92443690D01*
X86992085Y-92443690D02*
X87022561Y-92504642D01*
X87022561Y-92504642D02*
X87053038Y-92535119D01*
X87053038Y-92535119D02*
X87113990Y-92565595D01*
X101888276Y-146418928D02*
X101583514Y-146632262D01*
X101888276Y-146784643D02*
X101248276Y-146784643D01*
X101248276Y-146784643D02*
X101248276Y-146540833D01*
X101248276Y-146540833D02*
X101278752Y-146479881D01*
X101278752Y-146479881D02*
X101309228Y-146449404D01*
X101309228Y-146449404D02*
X101370180Y-146418928D01*
X101370180Y-146418928D02*
X101461609Y-146418928D01*
X101461609Y-146418928D02*
X101522561Y-146449404D01*
X101522561Y-146449404D02*
X101553038Y-146479881D01*
X101553038Y-146479881D02*
X101583514Y-146540833D01*
X101583514Y-146540833D02*
X101583514Y-146784643D01*
X101248276Y-145839881D02*
X101248276Y-146144643D01*
X101248276Y-146144643D02*
X101553038Y-146175119D01*
X101553038Y-146175119D02*
X101522561Y-146144643D01*
X101522561Y-146144643D02*
X101492085Y-146083690D01*
X101492085Y-146083690D02*
X101492085Y-145931309D01*
X101492085Y-145931309D02*
X101522561Y-145870357D01*
X101522561Y-145870357D02*
X101553038Y-145839881D01*
X101553038Y-145839881D02*
X101613990Y-145809404D01*
X101613990Y-145809404D02*
X101766371Y-145809404D01*
X101766371Y-145809404D02*
X101827323Y-145839881D01*
X101827323Y-145839881D02*
X101857800Y-145870357D01*
X101857800Y-145870357D02*
X101888276Y-145931309D01*
X101888276Y-145931309D02*
X101888276Y-146083690D01*
X101888276Y-146083690D02*
X101857800Y-146144643D01*
X101857800Y-146144643D02*
X101827323Y-146175119D01*
X101888276Y-145199880D02*
X101888276Y-145565595D01*
X101888276Y-145382738D02*
X101248276Y-145382738D01*
X101248276Y-145382738D02*
X101339704Y-145443690D01*
X101339704Y-145443690D02*
X101400657Y-145504642D01*
X101400657Y-145504642D02*
X101431133Y-145565595D01*
X88027323Y-95511428D02*
X88057800Y-95541904D01*
X88057800Y-95541904D02*
X88088276Y-95633333D01*
X88088276Y-95633333D02*
X88088276Y-95694285D01*
X88088276Y-95694285D02*
X88057800Y-95785714D01*
X88057800Y-95785714D02*
X87996847Y-95846666D01*
X87996847Y-95846666D02*
X87935895Y-95877143D01*
X87935895Y-95877143D02*
X87813990Y-95907619D01*
X87813990Y-95907619D02*
X87722561Y-95907619D01*
X87722561Y-95907619D02*
X87600657Y-95877143D01*
X87600657Y-95877143D02*
X87539704Y-95846666D01*
X87539704Y-95846666D02*
X87478752Y-95785714D01*
X87478752Y-95785714D02*
X87448276Y-95694285D01*
X87448276Y-95694285D02*
X87448276Y-95633333D01*
X87448276Y-95633333D02*
X87478752Y-95541904D01*
X87478752Y-95541904D02*
X87509228Y-95511428D01*
X87448276Y-94962857D02*
X87448276Y-95084762D01*
X87448276Y-95084762D02*
X87478752Y-95145714D01*
X87478752Y-95145714D02*
X87509228Y-95176190D01*
X87509228Y-95176190D02*
X87600657Y-95237143D01*
X87600657Y-95237143D02*
X87722561Y-95267619D01*
X87722561Y-95267619D02*
X87966371Y-95267619D01*
X87966371Y-95267619D02*
X88027323Y-95237143D01*
X88027323Y-95237143D02*
X88057800Y-95206666D01*
X88057800Y-95206666D02*
X88088276Y-95145714D01*
X88088276Y-95145714D02*
X88088276Y-95023809D01*
X88088276Y-95023809D02*
X88057800Y-94962857D01*
X88057800Y-94962857D02*
X88027323Y-94932381D01*
X88027323Y-94932381D02*
X87966371Y-94901904D01*
X87966371Y-94901904D02*
X87813990Y-94901904D01*
X87813990Y-94901904D02*
X87753038Y-94932381D01*
X87753038Y-94932381D02*
X87722561Y-94962857D01*
X87722561Y-94962857D02*
X87692085Y-95023809D01*
X87692085Y-95023809D02*
X87692085Y-95145714D01*
X87692085Y-95145714D02*
X87722561Y-95206666D01*
X87722561Y-95206666D02*
X87753038Y-95237143D01*
X87753038Y-95237143D02*
X87813990Y-95267619D01*
X87448276Y-94505714D02*
X87448276Y-94444761D01*
X87448276Y-94444761D02*
X87478752Y-94383809D01*
X87478752Y-94383809D02*
X87509228Y-94353333D01*
X87509228Y-94353333D02*
X87570180Y-94322857D01*
X87570180Y-94322857D02*
X87692085Y-94292380D01*
X87692085Y-94292380D02*
X87844466Y-94292380D01*
X87844466Y-94292380D02*
X87966371Y-94322857D01*
X87966371Y-94322857D02*
X88027323Y-94353333D01*
X88027323Y-94353333D02*
X88057800Y-94383809D01*
X88057800Y-94383809D02*
X88088276Y-94444761D01*
X88088276Y-94444761D02*
X88088276Y-94505714D01*
X88088276Y-94505714D02*
X88057800Y-94566666D01*
X88057800Y-94566666D02*
X88027323Y-94597142D01*
X88027323Y-94597142D02*
X87966371Y-94627619D01*
X87966371Y-94627619D02*
X87844466Y-94658095D01*
X87844466Y-94658095D02*
X87692085Y-94658095D01*
X87692085Y-94658095D02*
X87570180Y-94627619D01*
X87570180Y-94627619D02*
X87509228Y-94597142D01*
X87509228Y-94597142D02*
X87478752Y-94566666D01*
X87478752Y-94566666D02*
X87448276Y-94505714D01*
X93763833Y-139935317D02*
X93720733Y-139935317D01*
X93720733Y-139935317D02*
X93634533Y-139892217D01*
X93634533Y-139892217D02*
X93591433Y-139849117D01*
X93591433Y-139849117D02*
X93548333Y-139762918D01*
X93548333Y-139762918D02*
X93548333Y-139676718D01*
X93548333Y-139676718D02*
X93569883Y-139612068D01*
X93569883Y-139612068D02*
X93634533Y-139504318D01*
X93634533Y-139504318D02*
X93699183Y-139439669D01*
X93699183Y-139439669D02*
X93806932Y-139375019D01*
X93806932Y-139375019D02*
X93871582Y-139353469D01*
X93871582Y-139353469D02*
X93957782Y-139353469D01*
X93957782Y-139353469D02*
X94043981Y-139396569D01*
X94043981Y-139396569D02*
X94087081Y-139439669D01*
X94087081Y-139439669D02*
X94130181Y-139525868D01*
X94130181Y-139525868D02*
X94130181Y-139568968D01*
X94151731Y-140409415D02*
X93893132Y-140150816D01*
X94022432Y-140280116D02*
X94474980Y-139827567D01*
X94474980Y-139827567D02*
X94367230Y-139849117D01*
X94367230Y-139849117D02*
X94281031Y-139849117D01*
X94281031Y-139849117D02*
X94216381Y-139827567D01*
X82527618Y-102095776D02*
X82527618Y-101455776D01*
X82527618Y-101455776D02*
X82679999Y-101455776D01*
X82679999Y-101455776D02*
X82771428Y-101486252D01*
X82771428Y-101486252D02*
X82832380Y-101547204D01*
X82832380Y-101547204D02*
X82862857Y-101608157D01*
X82862857Y-101608157D02*
X82893333Y-101730061D01*
X82893333Y-101730061D02*
X82893333Y-101821490D01*
X82893333Y-101821490D02*
X82862857Y-101943395D01*
X82862857Y-101943395D02*
X82832380Y-102004347D01*
X82832380Y-102004347D02*
X82771428Y-102065300D01*
X82771428Y-102065300D02*
X82679999Y-102095776D01*
X82679999Y-102095776D02*
X82527618Y-102095776D01*
X83441904Y-101669109D02*
X83441904Y-102095776D01*
X83289523Y-101425300D02*
X83137142Y-101882442D01*
X83137142Y-101882442D02*
X83533333Y-101882442D01*
X93088571Y-125734823D02*
X93058095Y-125765300D01*
X93058095Y-125765300D02*
X92966666Y-125795776D01*
X92966666Y-125795776D02*
X92905714Y-125795776D01*
X92905714Y-125795776D02*
X92814285Y-125765300D01*
X92814285Y-125765300D02*
X92753333Y-125704347D01*
X92753333Y-125704347D02*
X92722856Y-125643395D01*
X92722856Y-125643395D02*
X92692380Y-125521490D01*
X92692380Y-125521490D02*
X92692380Y-125430061D01*
X92692380Y-125430061D02*
X92722856Y-125308157D01*
X92722856Y-125308157D02*
X92753333Y-125247204D01*
X92753333Y-125247204D02*
X92814285Y-125186252D01*
X92814285Y-125186252D02*
X92905714Y-125155776D01*
X92905714Y-125155776D02*
X92966666Y-125155776D01*
X92966666Y-125155776D02*
X93058095Y-125186252D01*
X93058095Y-125186252D02*
X93088571Y-125216728D01*
X93698095Y-125795776D02*
X93332380Y-125795776D01*
X93515237Y-125795776D02*
X93515237Y-125155776D01*
X93515237Y-125155776D02*
X93454285Y-125247204D01*
X93454285Y-125247204D02*
X93393333Y-125308157D01*
X93393333Y-125308157D02*
X93332380Y-125338633D01*
X94094285Y-125155776D02*
X94155238Y-125155776D01*
X94155238Y-125155776D02*
X94216190Y-125186252D01*
X94216190Y-125186252D02*
X94246666Y-125216728D01*
X94246666Y-125216728D02*
X94277142Y-125277680D01*
X94277142Y-125277680D02*
X94307619Y-125399585D01*
X94307619Y-125399585D02*
X94307619Y-125551966D01*
X94307619Y-125551966D02*
X94277142Y-125673871D01*
X94277142Y-125673871D02*
X94246666Y-125734823D01*
X94246666Y-125734823D02*
X94216190Y-125765300D01*
X94216190Y-125765300D02*
X94155238Y-125795776D01*
X94155238Y-125795776D02*
X94094285Y-125795776D01*
X94094285Y-125795776D02*
X94033333Y-125765300D01*
X94033333Y-125765300D02*
X94002857Y-125734823D01*
X94002857Y-125734823D02*
X93972380Y-125673871D01*
X93972380Y-125673871D02*
X93941904Y-125551966D01*
X93941904Y-125551966D02*
X93941904Y-125399585D01*
X93941904Y-125399585D02*
X93972380Y-125277680D01*
X93972380Y-125277680D02*
X94002857Y-125216728D01*
X94002857Y-125216728D02*
X94033333Y-125186252D01*
X94033333Y-125186252D02*
X94094285Y-125155776D01*
X82983514Y-123212261D02*
X83288276Y-123212261D01*
X82648276Y-123425594D02*
X82983514Y-123212261D01*
X82983514Y-123212261D02*
X82648276Y-122998927D01*
X82709228Y-122816071D02*
X82678752Y-122785595D01*
X82678752Y-122785595D02*
X82648276Y-122724642D01*
X82648276Y-122724642D02*
X82648276Y-122572261D01*
X82648276Y-122572261D02*
X82678752Y-122511309D01*
X82678752Y-122511309D02*
X82709228Y-122480833D01*
X82709228Y-122480833D02*
X82770180Y-122450356D01*
X82770180Y-122450356D02*
X82831133Y-122450356D01*
X82831133Y-122450356D02*
X82922561Y-122480833D01*
X82922561Y-122480833D02*
X83288276Y-122846547D01*
X83288276Y-122846547D02*
X83288276Y-122450356D01*
X90825833Y-121382323D02*
X90795357Y-121412800D01*
X90795357Y-121412800D02*
X90703928Y-121443276D01*
X90703928Y-121443276D02*
X90642976Y-121443276D01*
X90642976Y-121443276D02*
X90551547Y-121412800D01*
X90551547Y-121412800D02*
X90490595Y-121351847D01*
X90490595Y-121351847D02*
X90460118Y-121290895D01*
X90460118Y-121290895D02*
X90429642Y-121168990D01*
X90429642Y-121168990D02*
X90429642Y-121077561D01*
X90429642Y-121077561D02*
X90460118Y-120955657D01*
X90460118Y-120955657D02*
X90490595Y-120894704D01*
X90490595Y-120894704D02*
X90551547Y-120833752D01*
X90551547Y-120833752D02*
X90642976Y-120803276D01*
X90642976Y-120803276D02*
X90703928Y-120803276D01*
X90703928Y-120803276D02*
X90795357Y-120833752D01*
X90795357Y-120833752D02*
X90825833Y-120864228D01*
X91130595Y-121443276D02*
X91252499Y-121443276D01*
X91252499Y-121443276D02*
X91313452Y-121412800D01*
X91313452Y-121412800D02*
X91343928Y-121382323D01*
X91343928Y-121382323D02*
X91404880Y-121290895D01*
X91404880Y-121290895D02*
X91435357Y-121168990D01*
X91435357Y-121168990D02*
X91435357Y-120925180D01*
X91435357Y-120925180D02*
X91404880Y-120864228D01*
X91404880Y-120864228D02*
X91374404Y-120833752D01*
X91374404Y-120833752D02*
X91313452Y-120803276D01*
X91313452Y-120803276D02*
X91191547Y-120803276D01*
X91191547Y-120803276D02*
X91130595Y-120833752D01*
X91130595Y-120833752D02*
X91100118Y-120864228D01*
X91100118Y-120864228D02*
X91069642Y-120925180D01*
X91069642Y-120925180D02*
X91069642Y-121077561D01*
X91069642Y-121077561D02*
X91100118Y-121138514D01*
X91100118Y-121138514D02*
X91130595Y-121168990D01*
X91130595Y-121168990D02*
X91191547Y-121199466D01*
X91191547Y-121199466D02*
X91313452Y-121199466D01*
X91313452Y-121199466D02*
X91374404Y-121168990D01*
X91374404Y-121168990D02*
X91404880Y-121138514D01*
X91404880Y-121138514D02*
X91435357Y-121077561D01*
X95974823Y-92906428D02*
X96005300Y-92936904D01*
X96005300Y-92936904D02*
X96035776Y-93028333D01*
X96035776Y-93028333D02*
X96035776Y-93089285D01*
X96035776Y-93089285D02*
X96005300Y-93180714D01*
X96005300Y-93180714D02*
X95944347Y-93241666D01*
X95944347Y-93241666D02*
X95883395Y-93272143D01*
X95883395Y-93272143D02*
X95761490Y-93302619D01*
X95761490Y-93302619D02*
X95670061Y-93302619D01*
X95670061Y-93302619D02*
X95548157Y-93272143D01*
X95548157Y-93272143D02*
X95487204Y-93241666D01*
X95487204Y-93241666D02*
X95426252Y-93180714D01*
X95426252Y-93180714D02*
X95395776Y-93089285D01*
X95395776Y-93089285D02*
X95395776Y-93028333D01*
X95395776Y-93028333D02*
X95426252Y-92936904D01*
X95426252Y-92936904D02*
X95456728Y-92906428D01*
X95395776Y-92327381D02*
X95395776Y-92632143D01*
X95395776Y-92632143D02*
X95700538Y-92662619D01*
X95700538Y-92662619D02*
X95670061Y-92632143D01*
X95670061Y-92632143D02*
X95639585Y-92571190D01*
X95639585Y-92571190D02*
X95639585Y-92418809D01*
X95639585Y-92418809D02*
X95670061Y-92357857D01*
X95670061Y-92357857D02*
X95700538Y-92327381D01*
X95700538Y-92327381D02*
X95761490Y-92296904D01*
X95761490Y-92296904D02*
X95913871Y-92296904D01*
X95913871Y-92296904D02*
X95974823Y-92327381D01*
X95974823Y-92327381D02*
X96005300Y-92357857D01*
X96005300Y-92357857D02*
X96035776Y-92418809D01*
X96035776Y-92418809D02*
X96035776Y-92571190D01*
X96035776Y-92571190D02*
X96005300Y-92632143D01*
X96005300Y-92632143D02*
X95974823Y-92662619D01*
X95456728Y-92053095D02*
X95426252Y-92022619D01*
X95426252Y-92022619D02*
X95395776Y-91961666D01*
X95395776Y-91961666D02*
X95395776Y-91809285D01*
X95395776Y-91809285D02*
X95426252Y-91748333D01*
X95426252Y-91748333D02*
X95456728Y-91717857D01*
X95456728Y-91717857D02*
X95517680Y-91687380D01*
X95517680Y-91687380D02*
X95578633Y-91687380D01*
X95578633Y-91687380D02*
X95670061Y-91717857D01*
X95670061Y-91717857D02*
X96035776Y-92083571D01*
X96035776Y-92083571D02*
X96035776Y-91687380D01*
X102940833Y-91238276D02*
X102636071Y-91238276D01*
X102636071Y-91238276D02*
X102636071Y-90598276D01*
X103489405Y-91238276D02*
X103123690Y-91238276D01*
X103306547Y-91238276D02*
X103306547Y-90598276D01*
X103306547Y-90598276D02*
X103245595Y-90689704D01*
X103245595Y-90689704D02*
X103184643Y-90750657D01*
X103184643Y-90750657D02*
X103123690Y-90781133D01*
X97274823Y-101961428D02*
X97305300Y-101991904D01*
X97305300Y-101991904D02*
X97335776Y-102083333D01*
X97335776Y-102083333D02*
X97335776Y-102144285D01*
X97335776Y-102144285D02*
X97305300Y-102235714D01*
X97305300Y-102235714D02*
X97244347Y-102296666D01*
X97244347Y-102296666D02*
X97183395Y-102327143D01*
X97183395Y-102327143D02*
X97061490Y-102357619D01*
X97061490Y-102357619D02*
X96970061Y-102357619D01*
X96970061Y-102357619D02*
X96848157Y-102327143D01*
X96848157Y-102327143D02*
X96787204Y-102296666D01*
X96787204Y-102296666D02*
X96726252Y-102235714D01*
X96726252Y-102235714D02*
X96695776Y-102144285D01*
X96695776Y-102144285D02*
X96695776Y-102083333D01*
X96695776Y-102083333D02*
X96726252Y-101991904D01*
X96726252Y-101991904D02*
X96756728Y-101961428D01*
X96909109Y-101412857D02*
X97335776Y-101412857D01*
X96665300Y-101565238D02*
X97122442Y-101717619D01*
X97122442Y-101717619D02*
X97122442Y-101321428D01*
X96695776Y-100772857D02*
X96695776Y-101077619D01*
X96695776Y-101077619D02*
X97000538Y-101108095D01*
X97000538Y-101108095D02*
X96970061Y-101077619D01*
X96970061Y-101077619D02*
X96939585Y-101016666D01*
X96939585Y-101016666D02*
X96939585Y-100864285D01*
X96939585Y-100864285D02*
X96970061Y-100803333D01*
X96970061Y-100803333D02*
X97000538Y-100772857D01*
X97000538Y-100772857D02*
X97061490Y-100742380D01*
X97061490Y-100742380D02*
X97213871Y-100742380D01*
X97213871Y-100742380D02*
X97274823Y-100772857D01*
X97274823Y-100772857D02*
X97305300Y-100803333D01*
X97305300Y-100803333D02*
X97335776Y-100864285D01*
X97335776Y-100864285D02*
X97335776Y-101016666D01*
X97335776Y-101016666D02*
X97305300Y-101077619D01*
X97305300Y-101077619D02*
X97274823Y-101108095D01*
X83868276Y-144008928D02*
X83563514Y-144222262D01*
X83868276Y-144374643D02*
X83228276Y-144374643D01*
X83228276Y-144374643D02*
X83228276Y-144130833D01*
X83228276Y-144130833D02*
X83258752Y-144069881D01*
X83258752Y-144069881D02*
X83289228Y-144039404D01*
X83289228Y-144039404D02*
X83350180Y-144008928D01*
X83350180Y-144008928D02*
X83441609Y-144008928D01*
X83441609Y-144008928D02*
X83502561Y-144039404D01*
X83502561Y-144039404D02*
X83533038Y-144069881D01*
X83533038Y-144069881D02*
X83563514Y-144130833D01*
X83563514Y-144130833D02*
X83563514Y-144374643D01*
X83441609Y-143460357D02*
X83868276Y-143460357D01*
X83197800Y-143612738D02*
X83654942Y-143765119D01*
X83654942Y-143765119D02*
X83654942Y-143368928D01*
X83502561Y-143033690D02*
X83472085Y-143094642D01*
X83472085Y-143094642D02*
X83441609Y-143125119D01*
X83441609Y-143125119D02*
X83380657Y-143155595D01*
X83380657Y-143155595D02*
X83350180Y-143155595D01*
X83350180Y-143155595D02*
X83289228Y-143125119D01*
X83289228Y-143125119D02*
X83258752Y-143094642D01*
X83258752Y-143094642D02*
X83228276Y-143033690D01*
X83228276Y-143033690D02*
X83228276Y-142911785D01*
X83228276Y-142911785D02*
X83258752Y-142850833D01*
X83258752Y-142850833D02*
X83289228Y-142820357D01*
X83289228Y-142820357D02*
X83350180Y-142789880D01*
X83350180Y-142789880D02*
X83380657Y-142789880D01*
X83380657Y-142789880D02*
X83441609Y-142820357D01*
X83441609Y-142820357D02*
X83472085Y-142850833D01*
X83472085Y-142850833D02*
X83502561Y-142911785D01*
X83502561Y-142911785D02*
X83502561Y-143033690D01*
X83502561Y-143033690D02*
X83533038Y-143094642D01*
X83533038Y-143094642D02*
X83563514Y-143125119D01*
X83563514Y-143125119D02*
X83624466Y-143155595D01*
X83624466Y-143155595D02*
X83746371Y-143155595D01*
X83746371Y-143155595D02*
X83807323Y-143125119D01*
X83807323Y-143125119D02*
X83837800Y-143094642D01*
X83837800Y-143094642D02*
X83868276Y-143033690D01*
X83868276Y-143033690D02*
X83868276Y-142911785D01*
X83868276Y-142911785D02*
X83837800Y-142850833D01*
X83837800Y-142850833D02*
X83807323Y-142820357D01*
X83807323Y-142820357D02*
X83746371Y-142789880D01*
X83746371Y-142789880D02*
X83624466Y-142789880D01*
X83624466Y-142789880D02*
X83563514Y-142820357D01*
X83563514Y-142820357D02*
X83533038Y-142850833D01*
X83533038Y-142850833D02*
X83502561Y-142911785D01*
X81793333Y-120495776D02*
X81579999Y-120191014D01*
X81427618Y-120495776D02*
X81427618Y-119855776D01*
X81427618Y-119855776D02*
X81671428Y-119855776D01*
X81671428Y-119855776D02*
X81732380Y-119886252D01*
X81732380Y-119886252D02*
X81762857Y-119916728D01*
X81762857Y-119916728D02*
X81793333Y-119977680D01*
X81793333Y-119977680D02*
X81793333Y-120069109D01*
X81793333Y-120069109D02*
X81762857Y-120130061D01*
X81762857Y-120130061D02*
X81732380Y-120160538D01*
X81732380Y-120160538D02*
X81671428Y-120191014D01*
X81671428Y-120191014D02*
X81427618Y-120191014D01*
X82006666Y-119855776D02*
X82433333Y-119855776D01*
X82433333Y-119855776D02*
X82159047Y-120495776D01*
X95738275Y-90861428D02*
X95433513Y-91074762D01*
X95738275Y-91227143D02*
X95098275Y-91227143D01*
X95098275Y-91227143D02*
X95098275Y-90983333D01*
X95098275Y-90983333D02*
X95128751Y-90922381D01*
X95128751Y-90922381D02*
X95159227Y-90891904D01*
X95159227Y-90891904D02*
X95220179Y-90861428D01*
X95220179Y-90861428D02*
X95311608Y-90861428D01*
X95311608Y-90861428D02*
X95372560Y-90891904D01*
X95372560Y-90891904D02*
X95403037Y-90922381D01*
X95403037Y-90922381D02*
X95433513Y-90983333D01*
X95433513Y-90983333D02*
X95433513Y-91227143D01*
X95098275Y-90648095D02*
X95098275Y-90221428D01*
X95098275Y-90221428D02*
X95738275Y-90495714D01*
X95098275Y-90038571D02*
X95098275Y-89642380D01*
X95098275Y-89642380D02*
X95342084Y-89855714D01*
X95342084Y-89855714D02*
X95342084Y-89764285D01*
X95342084Y-89764285D02*
X95372560Y-89703333D01*
X95372560Y-89703333D02*
X95403037Y-89672857D01*
X95403037Y-89672857D02*
X95463989Y-89642380D01*
X95463989Y-89642380D02*
X95616370Y-89642380D01*
X95616370Y-89642380D02*
X95677322Y-89672857D01*
X95677322Y-89672857D02*
X95707799Y-89703333D01*
X95707799Y-89703333D02*
X95738275Y-89764285D01*
X95738275Y-89764285D02*
X95738275Y-89947142D01*
X95738275Y-89947142D02*
X95707799Y-90008095D01*
X95707799Y-90008095D02*
X95677322Y-90038571D01*
X88638571Y-93477323D02*
X88608095Y-93507800D01*
X88608095Y-93507800D02*
X88516666Y-93538276D01*
X88516666Y-93538276D02*
X88455714Y-93538276D01*
X88455714Y-93538276D02*
X88364285Y-93507800D01*
X88364285Y-93507800D02*
X88303333Y-93446847D01*
X88303333Y-93446847D02*
X88272856Y-93385895D01*
X88272856Y-93385895D02*
X88242380Y-93263990D01*
X88242380Y-93263990D02*
X88242380Y-93172561D01*
X88242380Y-93172561D02*
X88272856Y-93050657D01*
X88272856Y-93050657D02*
X88303333Y-92989704D01*
X88303333Y-92989704D02*
X88364285Y-92928752D01*
X88364285Y-92928752D02*
X88455714Y-92898276D01*
X88455714Y-92898276D02*
X88516666Y-92898276D01*
X88516666Y-92898276D02*
X88608095Y-92928752D01*
X88608095Y-92928752D02*
X88638571Y-92959228D01*
X89187142Y-93111609D02*
X89187142Y-93538276D01*
X89034761Y-92867800D02*
X88882380Y-93324942D01*
X88882380Y-93324942D02*
X89278571Y-93324942D01*
X89857619Y-93538276D02*
X89491904Y-93538276D01*
X89674761Y-93538276D02*
X89674761Y-92898276D01*
X89674761Y-92898276D02*
X89613809Y-92989704D01*
X89613809Y-92989704D02*
X89552857Y-93050657D01*
X89552857Y-93050657D02*
X89491904Y-93081133D01*
X95765969Y-93681233D02*
X95765969Y-93724333D01*
X95765969Y-93724333D02*
X95722869Y-93810532D01*
X95722869Y-93810532D02*
X95679769Y-93853632D01*
X95679769Y-93853632D02*
X95593569Y-93896732D01*
X95593569Y-93896732D02*
X95507370Y-93896732D01*
X95507370Y-93896732D02*
X95442720Y-93875182D01*
X95442720Y-93875182D02*
X95334970Y-93810532D01*
X95334970Y-93810532D02*
X95270320Y-93745883D01*
X95270320Y-93745883D02*
X95205671Y-93638133D01*
X95205671Y-93638133D02*
X95184121Y-93573483D01*
X95184121Y-93573483D02*
X95184121Y-93487283D01*
X95184121Y-93487283D02*
X95227221Y-93401084D01*
X95227221Y-93401084D02*
X95270320Y-93357984D01*
X95270320Y-93357984D02*
X95356520Y-93314884D01*
X95356520Y-93314884D02*
X95399620Y-93314884D01*
X95765969Y-92862336D02*
X95550469Y-93077835D01*
X95550469Y-93077835D02*
X95744419Y-93314884D01*
X95744419Y-93314884D02*
X95744419Y-93271784D01*
X95744419Y-93271784D02*
X95765969Y-93207135D01*
X95765969Y-93207135D02*
X95873718Y-93099385D01*
X95873718Y-93099385D02*
X95938368Y-93077835D01*
X95938368Y-93077835D02*
X95981468Y-93077835D01*
X95981468Y-93077835D02*
X96046118Y-93099385D01*
X96046118Y-93099385D02*
X96153867Y-93207135D01*
X96153867Y-93207135D02*
X96175417Y-93271784D01*
X96175417Y-93271784D02*
X96175417Y-93314884D01*
X96175417Y-93314884D02*
X96153867Y-93379534D01*
X96153867Y-93379534D02*
X96046118Y-93487283D01*
X96046118Y-93487283D02*
X95981468Y-93508833D01*
X95981468Y-93508833D02*
X95938368Y-93508833D01*
X96326267Y-92603737D02*
X96627966Y-92905435D01*
X96046118Y-92539087D02*
X96261617Y-92970085D01*
X96261617Y-92970085D02*
X96541766Y-92689936D01*
X83988276Y-158418928D02*
X83683514Y-158632262D01*
X83988276Y-158784643D02*
X83348276Y-158784643D01*
X83348276Y-158784643D02*
X83348276Y-158540833D01*
X83348276Y-158540833D02*
X83378752Y-158479881D01*
X83378752Y-158479881D02*
X83409228Y-158449404D01*
X83409228Y-158449404D02*
X83470180Y-158418928D01*
X83470180Y-158418928D02*
X83561609Y-158418928D01*
X83561609Y-158418928D02*
X83622561Y-158449404D01*
X83622561Y-158449404D02*
X83653038Y-158479881D01*
X83653038Y-158479881D02*
X83683514Y-158540833D01*
X83683514Y-158540833D02*
X83683514Y-158784643D01*
X83348276Y-158205595D02*
X83348276Y-157778928D01*
X83348276Y-157778928D02*
X83988276Y-158053214D01*
X83348276Y-157413214D02*
X83348276Y-157352261D01*
X83348276Y-157352261D02*
X83378752Y-157291309D01*
X83378752Y-157291309D02*
X83409228Y-157260833D01*
X83409228Y-157260833D02*
X83470180Y-157230357D01*
X83470180Y-157230357D02*
X83592085Y-157199880D01*
X83592085Y-157199880D02*
X83744466Y-157199880D01*
X83744466Y-157199880D02*
X83866371Y-157230357D01*
X83866371Y-157230357D02*
X83927323Y-157260833D01*
X83927323Y-157260833D02*
X83957800Y-157291309D01*
X83957800Y-157291309D02*
X83988276Y-157352261D01*
X83988276Y-157352261D02*
X83988276Y-157413214D01*
X83988276Y-157413214D02*
X83957800Y-157474166D01*
X83957800Y-157474166D02*
X83927323Y-157504642D01*
X83927323Y-157504642D02*
X83866371Y-157535119D01*
X83866371Y-157535119D02*
X83744466Y-157565595D01*
X83744466Y-157565595D02*
X83592085Y-157565595D01*
X83592085Y-157565595D02*
X83470180Y-157535119D01*
X83470180Y-157535119D02*
X83409228Y-157504642D01*
X83409228Y-157504642D02*
X83378752Y-157474166D01*
X83378752Y-157474166D02*
X83348276Y-157413214D01*
X101645238Y-97433514D02*
X101645238Y-97738276D01*
X101431905Y-97098276D02*
X101645238Y-97433514D01*
X101645238Y-97433514D02*
X101858572Y-97098276D01*
X102346190Y-97311609D02*
X102346190Y-97738276D01*
X102193809Y-97067800D02*
X102041428Y-97524942D01*
X102041428Y-97524942D02*
X102437619Y-97524942D01*
X95088571Y-162295776D02*
X94875237Y-161991014D01*
X94722856Y-162295776D02*
X94722856Y-161655776D01*
X94722856Y-161655776D02*
X94966666Y-161655776D01*
X94966666Y-161655776D02*
X95027618Y-161686252D01*
X95027618Y-161686252D02*
X95058095Y-161716728D01*
X95058095Y-161716728D02*
X95088571Y-161777680D01*
X95088571Y-161777680D02*
X95088571Y-161869109D01*
X95088571Y-161869109D02*
X95058095Y-161930061D01*
X95058095Y-161930061D02*
X95027618Y-161960538D01*
X95027618Y-161960538D02*
X94966666Y-161991014D01*
X94966666Y-161991014D02*
X94722856Y-161991014D01*
X95637142Y-161869109D02*
X95637142Y-162295776D01*
X95484761Y-161625300D02*
X95332380Y-162082442D01*
X95332380Y-162082442D02*
X95728571Y-162082442D01*
X96246666Y-161869109D02*
X96246666Y-162295776D01*
X96094285Y-161625300D02*
X95941904Y-162082442D01*
X95941904Y-162082442D02*
X96338095Y-162082442D01*
X95138276Y-90611428D02*
X94833514Y-90824762D01*
X95138276Y-90977143D02*
X94498276Y-90977143D01*
X94498276Y-90977143D02*
X94498276Y-90733333D01*
X94498276Y-90733333D02*
X94528752Y-90672381D01*
X94528752Y-90672381D02*
X94559228Y-90641904D01*
X94559228Y-90641904D02*
X94620180Y-90611428D01*
X94620180Y-90611428D02*
X94711609Y-90611428D01*
X94711609Y-90611428D02*
X94772561Y-90641904D01*
X94772561Y-90641904D02*
X94803038Y-90672381D01*
X94803038Y-90672381D02*
X94833514Y-90733333D01*
X94833514Y-90733333D02*
X94833514Y-90977143D01*
X94498276Y-90398095D02*
X94498276Y-90001904D01*
X94498276Y-90001904D02*
X94742085Y-90215238D01*
X94742085Y-90215238D02*
X94742085Y-90123809D01*
X94742085Y-90123809D02*
X94772561Y-90062857D01*
X94772561Y-90062857D02*
X94803038Y-90032381D01*
X94803038Y-90032381D02*
X94863990Y-90001904D01*
X94863990Y-90001904D02*
X95016371Y-90001904D01*
X95016371Y-90001904D02*
X95077323Y-90032381D01*
X95077323Y-90032381D02*
X95107800Y-90062857D01*
X95107800Y-90062857D02*
X95138276Y-90123809D01*
X95138276Y-90123809D02*
X95138276Y-90306666D01*
X95138276Y-90306666D02*
X95107800Y-90367619D01*
X95107800Y-90367619D02*
X95077323Y-90398095D01*
X94498276Y-89605714D02*
X94498276Y-89544761D01*
X94498276Y-89544761D02*
X94528752Y-89483809D01*
X94528752Y-89483809D02*
X94559228Y-89453333D01*
X94559228Y-89453333D02*
X94620180Y-89422857D01*
X94620180Y-89422857D02*
X94742085Y-89392380D01*
X94742085Y-89392380D02*
X94894466Y-89392380D01*
X94894466Y-89392380D02*
X95016371Y-89422857D01*
X95016371Y-89422857D02*
X95077323Y-89453333D01*
X95077323Y-89453333D02*
X95107800Y-89483809D01*
X95107800Y-89483809D02*
X95138276Y-89544761D01*
X95138276Y-89544761D02*
X95138276Y-89605714D01*
X95138276Y-89605714D02*
X95107800Y-89666666D01*
X95107800Y-89666666D02*
X95077323Y-89697142D01*
X95077323Y-89697142D02*
X95016371Y-89727619D01*
X95016371Y-89727619D02*
X94894466Y-89758095D01*
X94894466Y-89758095D02*
X94742085Y-89758095D01*
X94742085Y-89758095D02*
X94620180Y-89727619D01*
X94620180Y-89727619D02*
X94559228Y-89697142D01*
X94559228Y-89697142D02*
X94528752Y-89666666D01*
X94528752Y-89666666D02*
X94498276Y-89605714D01*
X92114464Y-139139741D02*
X91748116Y-139075091D01*
X91855865Y-139398340D02*
X91403317Y-138945791D01*
X91403317Y-138945791D02*
X91575716Y-138773392D01*
X91575716Y-138773392D02*
X91640366Y-138751842D01*
X91640366Y-138751842D02*
X91683466Y-138751842D01*
X91683466Y-138751842D02*
X91748116Y-138773392D01*
X91748116Y-138773392D02*
X91812766Y-138838042D01*
X91812766Y-138838042D02*
X91834316Y-138902691D01*
X91834316Y-138902691D02*
X91834316Y-138945791D01*
X91834316Y-138945791D02*
X91812766Y-139010441D01*
X91812766Y-139010441D02*
X91640366Y-139182840D01*
X92071365Y-138277744D02*
X91855865Y-138493243D01*
X91855865Y-138493243D02*
X92049815Y-138730292D01*
X92049815Y-138730292D02*
X92049815Y-138687192D01*
X92049815Y-138687192D02*
X92071365Y-138622543D01*
X92071365Y-138622543D02*
X92179114Y-138514793D01*
X92179114Y-138514793D02*
X92243764Y-138493243D01*
X92243764Y-138493243D02*
X92286864Y-138493243D01*
X92286864Y-138493243D02*
X92351514Y-138514793D01*
X92351514Y-138514793D02*
X92459263Y-138622543D01*
X92459263Y-138622543D02*
X92480813Y-138687192D01*
X92480813Y-138687192D02*
X92480813Y-138730292D01*
X92480813Y-138730292D02*
X92459263Y-138794942D01*
X92459263Y-138794942D02*
X92351514Y-138902691D01*
X92351514Y-138902691D02*
X92286864Y-138924241D01*
X92286864Y-138924241D02*
X92243764Y-138924241D01*
X92760962Y-138493243D02*
X92847162Y-138407043D01*
X92847162Y-138407043D02*
X92868712Y-138342393D01*
X92868712Y-138342393D02*
X92868712Y-138299294D01*
X92868712Y-138299294D02*
X92847162Y-138191544D01*
X92847162Y-138191544D02*
X92782512Y-138083794D01*
X92782512Y-138083794D02*
X92610113Y-137911395D01*
X92610113Y-137911395D02*
X92545463Y-137889845D01*
X92545463Y-137889845D02*
X92502363Y-137889845D01*
X92502363Y-137889845D02*
X92437713Y-137911395D01*
X92437713Y-137911395D02*
X92351514Y-137997595D01*
X92351514Y-137997595D02*
X92329964Y-138062244D01*
X92329964Y-138062244D02*
X92329964Y-138105344D01*
X92329964Y-138105344D02*
X92351514Y-138169994D01*
X92351514Y-138169994D02*
X92459263Y-138277744D01*
X92459263Y-138277744D02*
X92523913Y-138299294D01*
X92523913Y-138299294D02*
X92567013Y-138299294D01*
X92567013Y-138299294D02*
X92631663Y-138277744D01*
X92631663Y-138277744D02*
X92717862Y-138191544D01*
X92717862Y-138191544D02*
X92739412Y-138126894D01*
X92739412Y-138126894D02*
X92739412Y-138083794D01*
X92739412Y-138083794D02*
X92717862Y-138019145D01*
X99988571Y-114595776D02*
X99775237Y-114291014D01*
X99622856Y-114595776D02*
X99622856Y-113955776D01*
X99622856Y-113955776D02*
X99866666Y-113955776D01*
X99866666Y-113955776D02*
X99927618Y-113986252D01*
X99927618Y-113986252D02*
X99958095Y-114016728D01*
X99958095Y-114016728D02*
X99988571Y-114077680D01*
X99988571Y-114077680D02*
X99988571Y-114169109D01*
X99988571Y-114169109D02*
X99958095Y-114230061D01*
X99958095Y-114230061D02*
X99927618Y-114260538D01*
X99927618Y-114260538D02*
X99866666Y-114291014D01*
X99866666Y-114291014D02*
X99622856Y-114291014D01*
X100537142Y-113955776D02*
X100415237Y-113955776D01*
X100415237Y-113955776D02*
X100354285Y-113986252D01*
X100354285Y-113986252D02*
X100323809Y-114016728D01*
X100323809Y-114016728D02*
X100262856Y-114108157D01*
X100262856Y-114108157D02*
X100232380Y-114230061D01*
X100232380Y-114230061D02*
X100232380Y-114473871D01*
X100232380Y-114473871D02*
X100262856Y-114534823D01*
X100262856Y-114534823D02*
X100293333Y-114565300D01*
X100293333Y-114565300D02*
X100354285Y-114595776D01*
X100354285Y-114595776D02*
X100476190Y-114595776D01*
X100476190Y-114595776D02*
X100537142Y-114565300D01*
X100537142Y-114565300D02*
X100567618Y-114534823D01*
X100567618Y-114534823D02*
X100598095Y-114473871D01*
X100598095Y-114473871D02*
X100598095Y-114321490D01*
X100598095Y-114321490D02*
X100567618Y-114260538D01*
X100567618Y-114260538D02*
X100537142Y-114230061D01*
X100537142Y-114230061D02*
X100476190Y-114199585D01*
X100476190Y-114199585D02*
X100354285Y-114199585D01*
X100354285Y-114199585D02*
X100293333Y-114230061D01*
X100293333Y-114230061D02*
X100262856Y-114260538D01*
X100262856Y-114260538D02*
X100232380Y-114321490D01*
X101146666Y-114169109D02*
X101146666Y-114595776D01*
X100994285Y-113925300D02*
X100841904Y-114382442D01*
X100841904Y-114382442D02*
X101238095Y-114382442D01*
X99988571Y-115495776D02*
X99775237Y-115191014D01*
X99622856Y-115495776D02*
X99622856Y-114855776D01*
X99622856Y-114855776D02*
X99866666Y-114855776D01*
X99866666Y-114855776D02*
X99927618Y-114886252D01*
X99927618Y-114886252D02*
X99958095Y-114916728D01*
X99958095Y-114916728D02*
X99988571Y-114977680D01*
X99988571Y-114977680D02*
X99988571Y-115069109D01*
X99988571Y-115069109D02*
X99958095Y-115130061D01*
X99958095Y-115130061D02*
X99927618Y-115160538D01*
X99927618Y-115160538D02*
X99866666Y-115191014D01*
X99866666Y-115191014D02*
X99622856Y-115191014D01*
X100537142Y-114855776D02*
X100415237Y-114855776D01*
X100415237Y-114855776D02*
X100354285Y-114886252D01*
X100354285Y-114886252D02*
X100323809Y-114916728D01*
X100323809Y-114916728D02*
X100262856Y-115008157D01*
X100262856Y-115008157D02*
X100232380Y-115130061D01*
X100232380Y-115130061D02*
X100232380Y-115373871D01*
X100232380Y-115373871D02*
X100262856Y-115434823D01*
X100262856Y-115434823D02*
X100293333Y-115465300D01*
X100293333Y-115465300D02*
X100354285Y-115495776D01*
X100354285Y-115495776D02*
X100476190Y-115495776D01*
X100476190Y-115495776D02*
X100537142Y-115465300D01*
X100537142Y-115465300D02*
X100567618Y-115434823D01*
X100567618Y-115434823D02*
X100598095Y-115373871D01*
X100598095Y-115373871D02*
X100598095Y-115221490D01*
X100598095Y-115221490D02*
X100567618Y-115160538D01*
X100567618Y-115160538D02*
X100537142Y-115130061D01*
X100537142Y-115130061D02*
X100476190Y-115099585D01*
X100476190Y-115099585D02*
X100354285Y-115099585D01*
X100354285Y-115099585D02*
X100293333Y-115130061D01*
X100293333Y-115130061D02*
X100262856Y-115160538D01*
X100262856Y-115160538D02*
X100232380Y-115221490D01*
X100994285Y-114855776D02*
X101055238Y-114855776D01*
X101055238Y-114855776D02*
X101116190Y-114886252D01*
X101116190Y-114886252D02*
X101146666Y-114916728D01*
X101146666Y-114916728D02*
X101177142Y-114977680D01*
X101177142Y-114977680D02*
X101207619Y-115099585D01*
X101207619Y-115099585D02*
X101207619Y-115251966D01*
X101207619Y-115251966D02*
X101177142Y-115373871D01*
X101177142Y-115373871D02*
X101146666Y-115434823D01*
X101146666Y-115434823D02*
X101116190Y-115465300D01*
X101116190Y-115465300D02*
X101055238Y-115495776D01*
X101055238Y-115495776D02*
X100994285Y-115495776D01*
X100994285Y-115495776D02*
X100933333Y-115465300D01*
X100933333Y-115465300D02*
X100902857Y-115434823D01*
X100902857Y-115434823D02*
X100872380Y-115373871D01*
X100872380Y-115373871D02*
X100841904Y-115251966D01*
X100841904Y-115251966D02*
X100841904Y-115099585D01*
X100841904Y-115099585D02*
X100872380Y-114977680D01*
X100872380Y-114977680D02*
X100902857Y-114916728D01*
X100902857Y-114916728D02*
X100933333Y-114886252D01*
X100933333Y-114886252D02*
X100994285Y-114855776D01*
X81412380Y-140155776D02*
X81412380Y-140673871D01*
X81412380Y-140673871D02*
X81442857Y-140734823D01*
X81442857Y-140734823D02*
X81473333Y-140765300D01*
X81473333Y-140765300D02*
X81534285Y-140795776D01*
X81534285Y-140795776D02*
X81656190Y-140795776D01*
X81656190Y-140795776D02*
X81717142Y-140765300D01*
X81717142Y-140765300D02*
X81747619Y-140734823D01*
X81747619Y-140734823D02*
X81778095Y-140673871D01*
X81778095Y-140673871D02*
X81778095Y-140155776D01*
X82052380Y-140216728D02*
X82082856Y-140186252D01*
X82082856Y-140186252D02*
X82143809Y-140155776D01*
X82143809Y-140155776D02*
X82296190Y-140155776D01*
X82296190Y-140155776D02*
X82357142Y-140186252D01*
X82357142Y-140186252D02*
X82387618Y-140216728D01*
X82387618Y-140216728D02*
X82418095Y-140277680D01*
X82418095Y-140277680D02*
X82418095Y-140338633D01*
X82418095Y-140338633D02*
X82387618Y-140430061D01*
X82387618Y-140430061D02*
X82021904Y-140795776D01*
X82021904Y-140795776D02*
X82418095Y-140795776D01*
X89888571Y-142795776D02*
X89675237Y-142491014D01*
X89522856Y-142795776D02*
X89522856Y-142155776D01*
X89522856Y-142155776D02*
X89766666Y-142155776D01*
X89766666Y-142155776D02*
X89827618Y-142186252D01*
X89827618Y-142186252D02*
X89858095Y-142216728D01*
X89858095Y-142216728D02*
X89888571Y-142277680D01*
X89888571Y-142277680D02*
X89888571Y-142369109D01*
X89888571Y-142369109D02*
X89858095Y-142430061D01*
X89858095Y-142430061D02*
X89827618Y-142460538D01*
X89827618Y-142460538D02*
X89766666Y-142491014D01*
X89766666Y-142491014D02*
X89522856Y-142491014D01*
X90467618Y-142155776D02*
X90162856Y-142155776D01*
X90162856Y-142155776D02*
X90132380Y-142460538D01*
X90132380Y-142460538D02*
X90162856Y-142430061D01*
X90162856Y-142430061D02*
X90223809Y-142399585D01*
X90223809Y-142399585D02*
X90376190Y-142399585D01*
X90376190Y-142399585D02*
X90437142Y-142430061D01*
X90437142Y-142430061D02*
X90467618Y-142460538D01*
X90467618Y-142460538D02*
X90498095Y-142521490D01*
X90498095Y-142521490D02*
X90498095Y-142673871D01*
X90498095Y-142673871D02*
X90467618Y-142734823D01*
X90467618Y-142734823D02*
X90437142Y-142765300D01*
X90437142Y-142765300D02*
X90376190Y-142795776D01*
X90376190Y-142795776D02*
X90223809Y-142795776D01*
X90223809Y-142795776D02*
X90162856Y-142765300D01*
X90162856Y-142765300D02*
X90132380Y-142734823D01*
X90863809Y-142430061D02*
X90802857Y-142399585D01*
X90802857Y-142399585D02*
X90772380Y-142369109D01*
X90772380Y-142369109D02*
X90741904Y-142308157D01*
X90741904Y-142308157D02*
X90741904Y-142277680D01*
X90741904Y-142277680D02*
X90772380Y-142216728D01*
X90772380Y-142216728D02*
X90802857Y-142186252D01*
X90802857Y-142186252D02*
X90863809Y-142155776D01*
X90863809Y-142155776D02*
X90985714Y-142155776D01*
X90985714Y-142155776D02*
X91046666Y-142186252D01*
X91046666Y-142186252D02*
X91077142Y-142216728D01*
X91077142Y-142216728D02*
X91107619Y-142277680D01*
X91107619Y-142277680D02*
X91107619Y-142308157D01*
X91107619Y-142308157D02*
X91077142Y-142369109D01*
X91077142Y-142369109D02*
X91046666Y-142399585D01*
X91046666Y-142399585D02*
X90985714Y-142430061D01*
X90985714Y-142430061D02*
X90863809Y-142430061D01*
X90863809Y-142430061D02*
X90802857Y-142460538D01*
X90802857Y-142460538D02*
X90772380Y-142491014D01*
X90772380Y-142491014D02*
X90741904Y-142551966D01*
X90741904Y-142551966D02*
X90741904Y-142673871D01*
X90741904Y-142673871D02*
X90772380Y-142734823D01*
X90772380Y-142734823D02*
X90802857Y-142765300D01*
X90802857Y-142765300D02*
X90863809Y-142795776D01*
X90863809Y-142795776D02*
X90985714Y-142795776D01*
X90985714Y-142795776D02*
X91046666Y-142765300D01*
X91046666Y-142765300D02*
X91077142Y-142734823D01*
X91077142Y-142734823D02*
X91107619Y-142673871D01*
X91107619Y-142673871D02*
X91107619Y-142551966D01*
X91107619Y-142551966D02*
X91077142Y-142491014D01*
X91077142Y-142491014D02*
X91046666Y-142460538D01*
X91046666Y-142460538D02*
X90985714Y-142430061D01*
X93088571Y-135962323D02*
X93058095Y-135992800D01*
X93058095Y-135992800D02*
X92966666Y-136023276D01*
X92966666Y-136023276D02*
X92905714Y-136023276D01*
X92905714Y-136023276D02*
X92814285Y-135992800D01*
X92814285Y-135992800D02*
X92753333Y-135931847D01*
X92753333Y-135931847D02*
X92722856Y-135870895D01*
X92722856Y-135870895D02*
X92692380Y-135748990D01*
X92692380Y-135748990D02*
X92692380Y-135657561D01*
X92692380Y-135657561D02*
X92722856Y-135535657D01*
X92722856Y-135535657D02*
X92753333Y-135474704D01*
X92753333Y-135474704D02*
X92814285Y-135413752D01*
X92814285Y-135413752D02*
X92905714Y-135383276D01*
X92905714Y-135383276D02*
X92966666Y-135383276D01*
X92966666Y-135383276D02*
X93058095Y-135413752D01*
X93058095Y-135413752D02*
X93088571Y-135444228D01*
X93301904Y-135383276D02*
X93698095Y-135383276D01*
X93698095Y-135383276D02*
X93484761Y-135627085D01*
X93484761Y-135627085D02*
X93576190Y-135627085D01*
X93576190Y-135627085D02*
X93637142Y-135657561D01*
X93637142Y-135657561D02*
X93667618Y-135688038D01*
X93667618Y-135688038D02*
X93698095Y-135748990D01*
X93698095Y-135748990D02*
X93698095Y-135901371D01*
X93698095Y-135901371D02*
X93667618Y-135962323D01*
X93667618Y-135962323D02*
X93637142Y-135992800D01*
X93637142Y-135992800D02*
X93576190Y-136023276D01*
X93576190Y-136023276D02*
X93393333Y-136023276D01*
X93393333Y-136023276D02*
X93332380Y-135992800D01*
X93332380Y-135992800D02*
X93301904Y-135962323D01*
X93911428Y-135383276D02*
X94307619Y-135383276D01*
X94307619Y-135383276D02*
X94094285Y-135627085D01*
X94094285Y-135627085D02*
X94185714Y-135627085D01*
X94185714Y-135627085D02*
X94246666Y-135657561D01*
X94246666Y-135657561D02*
X94277142Y-135688038D01*
X94277142Y-135688038D02*
X94307619Y-135748990D01*
X94307619Y-135748990D02*
X94307619Y-135901371D01*
X94307619Y-135901371D02*
X94277142Y-135962323D01*
X94277142Y-135962323D02*
X94246666Y-135992800D01*
X94246666Y-135992800D02*
X94185714Y-136023276D01*
X94185714Y-136023276D02*
X94002857Y-136023276D01*
X94002857Y-136023276D02*
X93941904Y-135992800D01*
X93941904Y-135992800D02*
X93911428Y-135962323D01*
X97838571Y-90672322D02*
X97808095Y-90702799D01*
X97808095Y-90702799D02*
X97716666Y-90733275D01*
X97716666Y-90733275D02*
X97655714Y-90733275D01*
X97655714Y-90733275D02*
X97564285Y-90702799D01*
X97564285Y-90702799D02*
X97503333Y-90641846D01*
X97503333Y-90641846D02*
X97472856Y-90580894D01*
X97472856Y-90580894D02*
X97442380Y-90458989D01*
X97442380Y-90458989D02*
X97442380Y-90367560D01*
X97442380Y-90367560D02*
X97472856Y-90245656D01*
X97472856Y-90245656D02*
X97503333Y-90184703D01*
X97503333Y-90184703D02*
X97564285Y-90123751D01*
X97564285Y-90123751D02*
X97655714Y-90093275D01*
X97655714Y-90093275D02*
X97716666Y-90093275D01*
X97716666Y-90093275D02*
X97808095Y-90123751D01*
X97808095Y-90123751D02*
X97838571Y-90154227D01*
X98417618Y-90093275D02*
X98112856Y-90093275D01*
X98112856Y-90093275D02*
X98082380Y-90398037D01*
X98082380Y-90398037D02*
X98112856Y-90367560D01*
X98112856Y-90367560D02*
X98173809Y-90337084D01*
X98173809Y-90337084D02*
X98326190Y-90337084D01*
X98326190Y-90337084D02*
X98387142Y-90367560D01*
X98387142Y-90367560D02*
X98417618Y-90398037D01*
X98417618Y-90398037D02*
X98448095Y-90458989D01*
X98448095Y-90458989D02*
X98448095Y-90611370D01*
X98448095Y-90611370D02*
X98417618Y-90672322D01*
X98417618Y-90672322D02*
X98387142Y-90702799D01*
X98387142Y-90702799D02*
X98326190Y-90733275D01*
X98326190Y-90733275D02*
X98173809Y-90733275D01*
X98173809Y-90733275D02*
X98112856Y-90702799D01*
X98112856Y-90702799D02*
X98082380Y-90672322D01*
X98661428Y-90093275D02*
X99057619Y-90093275D01*
X99057619Y-90093275D02*
X98844285Y-90337084D01*
X98844285Y-90337084D02*
X98935714Y-90337084D01*
X98935714Y-90337084D02*
X98996666Y-90367560D01*
X98996666Y-90367560D02*
X99027142Y-90398037D01*
X99027142Y-90398037D02*
X99057619Y-90458989D01*
X99057619Y-90458989D02*
X99057619Y-90611370D01*
X99057619Y-90611370D02*
X99027142Y-90672322D01*
X99027142Y-90672322D02*
X98996666Y-90702799D01*
X98996666Y-90702799D02*
X98935714Y-90733275D01*
X98935714Y-90733275D02*
X98752857Y-90733275D01*
X98752857Y-90733275D02*
X98691904Y-90702799D01*
X98691904Y-90702799D02*
X98661428Y-90672322D01*
X88027323Y-161811428D02*
X88057800Y-161841904D01*
X88057800Y-161841904D02*
X88088276Y-161933333D01*
X88088276Y-161933333D02*
X88088276Y-161994285D01*
X88088276Y-161994285D02*
X88057800Y-162085714D01*
X88057800Y-162085714D02*
X87996847Y-162146666D01*
X87996847Y-162146666D02*
X87935895Y-162177143D01*
X87935895Y-162177143D02*
X87813990Y-162207619D01*
X87813990Y-162207619D02*
X87722561Y-162207619D01*
X87722561Y-162207619D02*
X87600657Y-162177143D01*
X87600657Y-162177143D02*
X87539704Y-162146666D01*
X87539704Y-162146666D02*
X87478752Y-162085714D01*
X87478752Y-162085714D02*
X87448276Y-161994285D01*
X87448276Y-161994285D02*
X87448276Y-161933333D01*
X87448276Y-161933333D02*
X87478752Y-161841904D01*
X87478752Y-161841904D02*
X87509228Y-161811428D01*
X87448276Y-161598095D02*
X87448276Y-161171428D01*
X87448276Y-161171428D02*
X88088276Y-161445714D01*
X88088276Y-160897142D02*
X88088276Y-160775238D01*
X88088276Y-160775238D02*
X88057800Y-160714285D01*
X88057800Y-160714285D02*
X88027323Y-160683809D01*
X88027323Y-160683809D02*
X87935895Y-160622857D01*
X87935895Y-160622857D02*
X87813990Y-160592380D01*
X87813990Y-160592380D02*
X87570180Y-160592380D01*
X87570180Y-160592380D02*
X87509228Y-160622857D01*
X87509228Y-160622857D02*
X87478752Y-160653333D01*
X87478752Y-160653333D02*
X87448276Y-160714285D01*
X87448276Y-160714285D02*
X87448276Y-160836190D01*
X87448276Y-160836190D02*
X87478752Y-160897142D01*
X87478752Y-160897142D02*
X87509228Y-160927619D01*
X87509228Y-160927619D02*
X87570180Y-160958095D01*
X87570180Y-160958095D02*
X87722561Y-160958095D01*
X87722561Y-160958095D02*
X87783514Y-160927619D01*
X87783514Y-160927619D02*
X87813990Y-160897142D01*
X87813990Y-160897142D02*
X87844466Y-160836190D01*
X87844466Y-160836190D02*
X87844466Y-160714285D01*
X87844466Y-160714285D02*
X87813990Y-160653333D01*
X87813990Y-160653333D02*
X87783514Y-160622857D01*
X87783514Y-160622857D02*
X87722561Y-160592380D01*
D12*
%TO.C,J5*%
X81625000Y-102382500D02*
X95555000Y-102382500D01*
X81625000Y-104162500D02*
X81625000Y-102382500D01*
X81625000Y-116232500D02*
X81625000Y-115852500D01*
X85105000Y-116232500D02*
X81625000Y-116232500D01*
X94625000Y-116232500D02*
X93025000Y-116232500D01*
X97775000Y-115312500D02*
X97775000Y-103602500D01*
D13*
X80225000Y-106532500D02*
G75*
G02*
X80025000Y-106532500I-100000J0D01*
G01*
X80025000Y-106532500D02*
G75*
G02*
X80225000Y-106532500I100000J0D01*
G01*
%TO.C,D3*%
X97525000Y-102700000D02*
G75*
G02*
X97324998Y-102700000I-100001J0D01*
G01*
X97324998Y-102700000D02*
G75*
G02*
X97525000Y-102700000I100001J0D01*
G01*
%TO.C,J3*%
X98650000Y-91250000D02*
G75*
G02*
X98450000Y-91250000I-100000J0D01*
G01*
X98450000Y-91250000D02*
G75*
G02*
X98650000Y-91250000I100000J0D01*
G01*
D12*
%TO.C,U7*%
X94800000Y-94192500D02*
X94800000Y-94362500D01*
X94800000Y-94192500D02*
X94970000Y-94192500D01*
X94800000Y-98192500D02*
X94800000Y-98022500D01*
X94800000Y-98192500D02*
X94970000Y-98192500D01*
X98800000Y-94192500D02*
X98630000Y-94192500D01*
X98800000Y-94192500D02*
X98800000Y-94362500D01*
X98800000Y-98192500D02*
X98630000Y-98192500D01*
X98800000Y-98192500D02*
X98800000Y-98022500D01*
D13*
X99835000Y-97592500D02*
G75*
G02*
X99635000Y-97592500I-100000J0D01*
G01*
X99635000Y-97592500D02*
G75*
G02*
X99835000Y-97592500I100000J0D01*
G01*
D14*
%TO.C,TP18*%
X102547500Y-99650000D02*
G75*
G02*
X101147500Y-99650000I-700000J0D01*
G01*
X101147500Y-99650000D02*
G75*
G02*
X102547500Y-99650000I700000J0D01*
G01*
%TO.C,FB5*%
X99962742Y-136085000D02*
X100437258Y-136085000D01*
X99962742Y-137130000D02*
X100437258Y-137130000D01*
%TO.C,FB6*%
X93837258Y-100327500D02*
X93362742Y-100327500D01*
X93837258Y-101372500D02*
X93362742Y-101372500D01*
%TO.C,FB8*%
X87087258Y-100235000D02*
X86612742Y-100235000D01*
X87087258Y-101280000D02*
X86612742Y-101280000D01*
%TO.C,FB9*%
X98962742Y-160485000D02*
X99437258Y-160485000D01*
X98962742Y-161530000D02*
X99437258Y-161530000D01*
D13*
%TO.C,D2*%
X85425002Y-141200000D02*
G75*
G02*
X85225000Y-141200000I-100001J0D01*
G01*
X85225000Y-141200000D02*
G75*
G02*
X85425002Y-141200000I100001J0D01*
G01*
%TO.C,U5*%
D15*
X90022000Y-90545000D02*
G75*
G02*
X89768000Y-90545000I-127000J0D01*
G01*
X89768000Y-90545000D02*
G75*
G02*
X90022000Y-90545000I127000J0D01*
G01*
D12*
%TO.C,U1*%
X84000000Y-94907500D02*
X84000000Y-95407500D01*
X84000000Y-98907500D02*
X84000000Y-98407500D01*
X84500000Y-94907500D02*
X84000000Y-94907500D01*
X84500000Y-98907500D02*
X84000000Y-98907500D01*
X88000000Y-94907500D02*
X87500000Y-94907500D01*
X88000000Y-95407500D02*
X88000000Y-94907500D01*
X88000000Y-98407500D02*
X88000000Y-98907500D01*
X88000000Y-98907500D02*
X87500000Y-98907500D01*
D10*
X88750000Y-98157500D02*
G75*
G02*
X88650000Y-98157500I-50000J0D01*
G01*
X88650000Y-98157500D02*
G75*
G02*
X88750000Y-98157500I50000J0D01*
G01*
D13*
%TO.C,Y3*%
X98245000Y-124982700D02*
G75*
G02*
X98045000Y-124982700I-100000J0D01*
G01*
X98045000Y-124982700D02*
G75*
G02*
X98245000Y-124982700I100000J0D01*
G01*
D12*
%TO.C,Y5*%
X90050000Y-97770000D02*
X90050000Y-98130000D01*
X92550000Y-97770000D02*
X92550000Y-98130000D01*
D13*
X89250000Y-96800000D02*
G75*
G02*
X89050000Y-96800000I-100000J0D01*
G01*
X89050000Y-96800000D02*
G75*
G02*
X89250000Y-96800000I100000J0D01*
G01*
%TO.C,U8*%
X84737500Y-119962750D02*
X84737500Y-120562750D01*
X84737500Y-125362750D02*
X84737500Y-125962750D01*
X84737500Y-125962750D02*
X85337500Y-125962750D01*
X85337500Y-119962750D02*
X84737500Y-119962750D01*
X90137500Y-119962750D02*
X90737500Y-119962750D01*
X90737500Y-119962750D02*
X90737500Y-120562750D01*
X90737500Y-125362750D02*
X90737500Y-125962750D01*
X90737500Y-125962750D02*
X90137500Y-125962750D01*
D12*
X89922500Y-119119750D02*
G75*
G02*
X89668500Y-119119750I-127000J0D01*
G01*
X89668500Y-119119750D02*
G75*
G02*
X89922500Y-119119750I127000J0D01*
G01*
D16*
%TO.C,U6*%
X99150600Y-121522500D02*
X99150600Y-121852700D01*
X99150600Y-121852700D02*
X99150600Y-122462300D01*
X99150600Y-122462300D02*
X99150600Y-122792500D01*
X99150600Y-121852700D02*
G75*
G02*
X99150600Y-122462300I0J-304800D01*
G01*
D12*
%TO.C,U3*%
X85300000Y-144530000D02*
X85300000Y-144895000D01*
X85300000Y-144530000D02*
X85665000Y-144530000D01*
X85300000Y-158530000D02*
X85300000Y-158165000D01*
X85300000Y-158530000D02*
X85665000Y-158530000D01*
X99300000Y-144530000D02*
X98935000Y-144530000D01*
X99300000Y-144530000D02*
X99300000Y-144895000D01*
X99300000Y-158530000D02*
X98935000Y-158530000D01*
X99300000Y-158530000D02*
X99300000Y-158165000D01*
D13*
X83300000Y-145100000D02*
G75*
G02*
X83100000Y-145100000I-100000J0D01*
G01*
X83100000Y-145100000D02*
G75*
G02*
X83300000Y-145100000I100000J0D01*
G01*
%TO.C,D1*%
X91075000Y-118707500D02*
G75*
G02*
X90874998Y-118707500I-100001J0D01*
G01*
X90874998Y-118707500D02*
G75*
G02*
X91075000Y-118707500I100001J0D01*
G01*
D12*
%TO.C,Y1*%
X95988837Y-140756604D02*
X96243396Y-141011163D01*
X97756604Y-138988837D02*
X98011163Y-139243396D01*
D13*
X94766548Y-140707107D02*
G75*
G02*
X94566548Y-140707107I-100000J0D01*
G01*
X94566548Y-140707107D02*
G75*
G02*
X94766548Y-140707107I100000J0D01*
G01*
%TO.C,J4*%
X85550000Y-91250000D02*
G75*
G02*
X85350000Y-91250000I-100000J0D01*
G01*
X85350000Y-91250000D02*
G75*
G02*
X85550000Y-91250000I100000J0D01*
G01*
%TO.C,U9*%
X93850000Y-128482500D02*
X94450000Y-128482500D01*
X93850000Y-129082500D02*
X93850000Y-128482500D01*
X93850000Y-133882500D02*
X93850000Y-134482500D01*
X93850000Y-134482500D02*
X94450000Y-134482500D01*
X99250000Y-128482500D02*
X99850000Y-128482500D01*
X99250000Y-134482500D02*
X99850000Y-134482500D01*
X99850000Y-128482500D02*
X99850000Y-129082500D01*
X99850000Y-134482500D02*
X99850000Y-133882500D01*
D12*
X93134000Y-129424500D02*
G75*
G02*
X92880000Y-129424500I-127000J0D01*
G01*
X92880000Y-129424500D02*
G75*
G02*
X93134000Y-129424500I127000J0D01*
G01*
D16*
%TO.C,U4*%
X95400600Y-121522500D02*
X95400600Y-121852700D01*
X95400600Y-121852700D02*
X95400600Y-122462300D01*
X95400600Y-122462300D02*
X95400600Y-122792500D01*
X95400600Y-121852700D02*
G75*
G02*
X95400600Y-122462300I0J-304800D01*
G01*
D13*
%TO.C,D4*%
X80900000Y-100707500D02*
G75*
G02*
X80699998Y-100707500I-100001J0D01*
G01*
X80699998Y-100707500D02*
G75*
G02*
X80900000Y-100707500I100001J0D01*
G01*
%TO.C,Y2*%
X92385000Y-123447300D02*
G75*
G02*
X92185000Y-123447300I-100000J0D01*
G01*
X92185000Y-123447300D02*
G75*
G02*
X92385000Y-123447300I100000J0D01*
G01*
D12*
%TO.C,Y4*%
X99850000Y-95130000D02*
X99850000Y-94770000D01*
X102350000Y-95130000D02*
X102350000Y-94770000D01*
D13*
X103350000Y-96100000D02*
G75*
G02*
X103150000Y-96100000I-100000J0D01*
G01*
X103150000Y-96100000D02*
G75*
G02*
X103350000Y-96100000I100000J0D01*
G01*
D12*
%TO.C,U2*%
X81267500Y-139887500D02*
X81267500Y-126887500D01*
X92767500Y-126887500D02*
X81267500Y-126887500D01*
X92767500Y-139887500D02*
X81267500Y-139887500D01*
X92767500Y-139887500D02*
X92767500Y-126887500D01*
D13*
X80817500Y-130087500D02*
G75*
G02*
X80617500Y-130087500I-100000J0D01*
G01*
X80617500Y-130087500D02*
G75*
G02*
X80817500Y-130087500I100000J0D01*
G01*
%TD*%
M02*
