%TF.GenerationSoftware,KiCad,Pcbnew,8.0.6*%
%TF.CreationDate,2024-11-25T22:35:04+01:00*%
%TF.ProjectId,M2SmartHome,4d32536d-6172-4744-986f-6d652e6b6963,rev?*%
%TF.SameCoordinates,Original*%
%TF.FileFunction,Copper,L2,Inr*%
%TF.FilePolarity,Positive*%
%FSLAX46Y46*%
G04 Gerber Fmt 4.6, Leading zero omitted, Abs format (unit mm)*
G04 Created by KiCad (PCBNEW 8.0.6) date 2024-11-25 22:35:04*
%MOMM*%
%LPD*%
G01*
G04 APERTURE LIST*
%TA.AperFunction,ViaPad*%
%ADD10C,0.400000*%
%TD*%
%TA.AperFunction,Conductor*%
%ADD11C,0.150000*%
%TD*%
%TA.AperFunction,Conductor*%
%ADD12C,0.400000*%
%TD*%
%TA.AperFunction,Conductor*%
%ADD13C,0.200000*%
%TD*%
G04 APERTURE END LIST*
D10*
%TO.N,/pcie-usb-bridge/USB_4_DP*%
X82850000Y-96507500D03*
%TO.N,/pcie-usb-bridge/USB_4_DN*%
X82850000Y-97307500D03*
%TO.N,/sd-card/CRD_PWR*%
X86300000Y-106550000D03*
%TO.N,+3V3_wifi*%
X84100000Y-94952500D03*
%TO.N,GND*%
X100200000Y-144650000D03*
X97100000Y-160872501D03*
X95000000Y-155000000D03*
X92250000Y-115000000D03*
X85267500Y-137207500D03*
X92250000Y-92050000D03*
X89400000Y-115150000D03*
X101250000Y-108416666D03*
X89300000Y-140600000D03*
X93100000Y-162500000D03*
X97700000Y-163100000D03*
X94300000Y-123307500D03*
X98750000Y-116000000D03*
X97247500Y-96650000D03*
X101750000Y-87000000D03*
X82900000Y-115900000D03*
X93300000Y-163100000D03*
X91450000Y-92050000D03*
X88000000Y-147250000D03*
X95900000Y-131207500D03*
X82100000Y-143642499D03*
X94500000Y-120472501D03*
X98400000Y-148072501D03*
X86980000Y-137327500D03*
X96950000Y-123529100D03*
X92175000Y-96800000D03*
X101975000Y-93800000D03*
X85300000Y-159407500D03*
X87650000Y-117265001D03*
X82250000Y-89750000D03*
X88865001Y-94150000D03*
X90300000Y-162700000D03*
X84000000Y-163000000D03*
X83750000Y-104000000D03*
X93000000Y-155000000D03*
X87250000Y-90500000D03*
X89150000Y-107057500D03*
X99515001Y-101400000D03*
X88720000Y-133637500D03*
X101750000Y-88500000D03*
X92500000Y-136100000D03*
X85000000Y-92807500D03*
X101250000Y-111083332D03*
X93200000Y-150307500D03*
X97850000Y-110350000D03*
X89050000Y-95300000D03*
X98500000Y-126017500D03*
X83800000Y-92807500D03*
X96873726Y-92573726D03*
X84200000Y-142200000D03*
X87300000Y-122607500D03*
X86440000Y-134097500D03*
X86250000Y-109707500D03*
X96700000Y-145807500D03*
X92300000Y-156300000D03*
X99760200Y-120785900D03*
X94600000Y-156300000D03*
X95796250Y-91403750D03*
X85223726Y-91826274D03*
X97000000Y-153250000D03*
X94200000Y-116107500D03*
X97930000Y-91200000D03*
X95900000Y-157000000D03*
X91450000Y-92850000D03*
X83400000Y-157800000D03*
X101250000Y-105750000D03*
X100225000Y-96100000D03*
X87200000Y-132700000D03*
X83277500Y-149730000D03*
X91100000Y-125607500D03*
X92900000Y-160907500D03*
X83750000Y-102750000D03*
X98247502Y-100334999D03*
X99250000Y-122000000D03*
X93800000Y-153407500D03*
X82250000Y-87250000D03*
X96300000Y-116107500D03*
X89400000Y-91900000D03*
X86000000Y-156100000D03*
X83300000Y-148707500D03*
X85600000Y-96535000D03*
X98450000Y-130017499D03*
X83700000Y-98807500D03*
X83300000Y-153407500D03*
X94800000Y-163100000D03*
X93812503Y-99550000D03*
X87500000Y-155750000D03*
X97155000Y-125897500D03*
X91100000Y-149007500D03*
X85600000Y-97250000D03*
X88500000Y-89000000D03*
X98315000Y-135522500D03*
X94692409Y-141042409D03*
X98600000Y-139007500D03*
X86250000Y-97250000D03*
X95400000Y-131907500D03*
X99300000Y-163100000D03*
X99307591Y-141399909D03*
X98000000Y-155750000D03*
X88100000Y-123407500D03*
X87250000Y-86750000D03*
X89800000Y-142607500D03*
X96100000Y-108800000D03*
X98400000Y-132007500D03*
X85300000Y-161800000D03*
X94200000Y-142507500D03*
X84000000Y-162300000D03*
X83800000Y-136607500D03*
X97265001Y-118557500D03*
X89300000Y-142000000D03*
X93600000Y-110100000D03*
X96750000Y-86750000D03*
X88400000Y-90667500D03*
X94200000Y-157300000D03*
X90425000Y-99100000D03*
X86250000Y-96500000D03*
X92250000Y-92850000D03*
X88500000Y-151000000D03*
X85300000Y-131800000D03*
X81750000Y-148750000D03*
X93300000Y-134807500D03*
X93600000Y-97515001D03*
X98700000Y-150707500D03*
X83000000Y-140300000D03*
X92900000Y-140907500D03*
X96700000Y-141407500D03*
X89065000Y-146107500D03*
X88100000Y-149607500D03*
X82000000Y-90750000D03*
X86025000Y-114900000D03*
X86900000Y-142600000D03*
X98350000Y-93000000D03*
X83500000Y-159600000D03*
X96900000Y-90362500D03*
X95050000Y-135722500D03*
X92750000Y-102750000D03*
X96447500Y-96650000D03*
X82250000Y-88500000D03*
X96500000Y-93150000D03*
X101750000Y-102750000D03*
X91400000Y-142600000D03*
X91900000Y-147272501D03*
X99850000Y-91415001D03*
X96105000Y-125147500D03*
X83450000Y-91850000D03*
X92400000Y-138100000D03*
X85700000Y-99707500D03*
X86400000Y-133542500D03*
X88950000Y-99892499D03*
X101982500Y-92142500D03*
X87200000Y-163100000D03*
X84000000Y-86750000D03*
X100000000Y-137607500D03*
X93500000Y-107100000D03*
X93200000Y-128907500D03*
X81800000Y-140300000D03*
X83200000Y-95450000D03*
X87000000Y-161300000D03*
X86700000Y-129407500D03*
X99800000Y-128507500D03*
X94000000Y-126447501D03*
X84500000Y-116250000D03*
X88100000Y-122607500D03*
X87534999Y-157900000D03*
X86500000Y-140500000D03*
X95847500Y-100350000D03*
X101750000Y-101500000D03*
X90800000Y-158007500D03*
X87550000Y-133652500D03*
X93300000Y-122507500D03*
X97047500Y-100335001D03*
X94900000Y-147907500D03*
X83000000Y-146500000D03*
X86050000Y-111757500D03*
X96300000Y-138607500D03*
X97247500Y-95850000D03*
X95750000Y-88750000D03*
X87920000Y-93700000D03*
X96447500Y-95850000D03*
X87300000Y-123407500D03*
X89250000Y-90000000D03*
X91900000Y-140300000D03*
X88250000Y-154750000D03*
X101250000Y-113750000D03*
X86200000Y-92407500D03*
X94700000Y-145107500D03*
X93500000Y-145607500D03*
X86300000Y-99707500D03*
X101750000Y-90000000D03*
X88700000Y-162700000D03*
X101750000Y-97750000D03*
X88500000Y-103000000D03*
X99750000Y-100250000D03*
X100800000Y-163100000D03*
%TO.N,+3V3_eMMC*%
X90510051Y-138217157D03*
X86762500Y-131137500D03*
X88850000Y-116865000D03*
X86400000Y-132665001D03*
X90300000Y-125507500D03*
X88300000Y-134650000D03*
X87650000Y-118134999D03*
X85400000Y-117267500D03*
X87200000Y-126907500D03*
X90984999Y-117707500D03*
X97500000Y-121472501D03*
X98134999Y-118557500D03*
X90881282Y-137881282D03*
X85050000Y-126285000D03*
X84400000Y-137207500D03*
X86500000Y-117272500D03*
X83300000Y-119415001D03*
X90600000Y-120307500D03*
X91217157Y-137510051D03*
X84300000Y-117267500D03*
X86100000Y-137207500D03*
X83820000Y-123267500D03*
%TO.N,Net-(U8-VDD18)*%
X84000000Y-122450000D03*
%TO.N,/emmc/~{reset}*%
X85050000Y-125400000D03*
%TO.N,Net-(U2-VDDI)*%
X83800000Y-131000000D03*
%TO.N,+3V3_uSD*%
X99400000Y-136307500D03*
X100084999Y-118907500D03*
X83950000Y-114300000D03*
X84015001Y-106907500D03*
X99375000Y-136807500D03*
X84000000Y-112557500D03*
X97050000Y-135722500D03*
X84050000Y-105500000D03*
X84015001Y-108207500D03*
X100400000Y-127307500D03*
X100500000Y-131982500D03*
X92650000Y-132982500D03*
X94100000Y-128572501D03*
X84000000Y-110907500D03*
%TO.N,/sd-card/~{reset}*%
X99185000Y-134322500D03*
%TO.N,Net-(U9-VDD18)*%
X95950000Y-135557500D03*
%TO.N,Net-(U9-VDD18PLL)*%
X95450000Y-127357500D03*
%TO.N,/sd-card/DET*%
X98100000Y-137007500D03*
%TO.N,/sd-card/CRD_PWR*%
X100650000Y-132907500D03*
X98900000Y-113307500D03*
X91500000Y-105500000D03*
X98900000Y-113807500D03*
X86315001Y-107057500D03*
X85415001Y-109707500D03*
%TO.N,+3V3_Thread*%
X94500000Y-90884999D03*
X94750000Y-99500000D03*
X97547500Y-101300000D03*
X95647500Y-101300000D03*
X89784999Y-94100000D03*
X93800000Y-94525000D03*
X96947500Y-101300000D03*
X96247500Y-101300000D03*
X102150000Y-91250000D03*
%TO.N,+3V3_wifi*%
X89050000Y-96184999D03*
X85500000Y-101107500D03*
X86100000Y-100407500D03*
X88950000Y-99022503D03*
X85500000Y-100407500D03*
X86200000Y-93342499D03*
X83100000Y-98107500D03*
X86100000Y-101107500D03*
%TO.N,+3V3_Bridge*%
X94900000Y-157900000D03*
X97900000Y-161007500D03*
X86000000Y-147750000D03*
X98700000Y-147207500D03*
X88500000Y-145007500D03*
X98400000Y-160507500D03*
X97565001Y-158000000D03*
X85400000Y-158607500D03*
X92300000Y-145107500D03*
X95300000Y-146107500D03*
X91065000Y-146107500D03*
X97900000Y-160507500D03*
X90400000Y-154807500D03*
X85500000Y-143900000D03*
X99200000Y-143807500D03*
X98375000Y-161007500D03*
X89600000Y-154807500D03*
X91200000Y-154807500D03*
%TO.N,+1V0_core*%
X97300000Y-146407500D03*
X91600000Y-158007500D03*
X86665001Y-157900000D03*
X94900000Y-147072501D03*
X95900000Y-157842499D03*
X97400000Y-150507500D03*
X89100000Y-158007500D03*
X93500000Y-147082500D03*
X92300000Y-158007500D03*
%TO.N,Net-(D2-A)*%
X84000000Y-140300000D03*
X90900000Y-135500000D03*
%TO.N,Net-(D4-A)*%
X83815001Y-99750000D03*
%TO.N,+3V3*%
X83100000Y-163200000D03*
X91712132Y-139560660D03*
X89950000Y-101400000D03*
X92083363Y-139224784D03*
X100500000Y-160407500D03*
X90550000Y-101400000D03*
X91800000Y-101400000D03*
X91200000Y-101400000D03*
X101000000Y-136107500D03*
X101025000Y-136607500D03*
X100800000Y-161600000D03*
X100400000Y-162107500D03*
X101000000Y-137107500D03*
X99700000Y-160407500D03*
X100100000Y-162700000D03*
X98500000Y-163000000D03*
X100025000Y-161007500D03*
X92419239Y-138853553D03*
X89300000Y-101400000D03*
X83100000Y-162600000D03*
X88700000Y-101400000D03*
%TO.N,/pcie-usb-bridge/PERST_L*%
X96000000Y-146807500D03*
%TO.N,Net-(U8-SD_WP)*%
X91600000Y-124307500D03*
%TO.N,/emmc/SCK*%
X97550000Y-119422501D03*
%TO.N,/emmc/SDA*%
X90300000Y-126307500D03*
X97500000Y-122342499D03*
X91150000Y-126957500D03*
%TO.N,/emmc/eMMC.DAT0*%
X91300000Y-129507500D03*
X90115001Y-117707500D03*
X88850000Y-117735000D03*
X91300000Y-128607500D03*
%TO.N,/emmc/eMMC.DAT2*%
X89065001Y-127007500D03*
X87500000Y-129107500D03*
%TO.N,/emmc/eMMC.DAT3*%
X83150000Y-131300000D03*
X87900000Y-127042499D03*
X83250000Y-128050000D03*
%TO.N,/emmc/eMMC.DAT4*%
X83350000Y-124600000D03*
X84200000Y-129600000D03*
%TO.N,/emmc/eMMC.DAT5*%
X83300000Y-120284999D03*
X83200000Y-134500000D03*
%TO.N,/emmc/eMMC.DAT6*%
X85400000Y-118107500D03*
X89700000Y-128707500D03*
%TO.N,/emmc/eMMC.DAT7*%
X86500000Y-118107500D03*
X89000000Y-129107500D03*
%TO.N,/emmc/eMMC.CLK*%
X84300000Y-118137500D03*
X83200000Y-135250000D03*
%TO.N,/emmc/eMMC.CMD*%
X83350000Y-121665001D03*
X83000000Y-129050000D03*
%TO.N,/sd-card/uSD.D1*%
X84834999Y-114307500D03*
X92650000Y-131032500D03*
%TO.N,/sd-card/uSD.CLK*%
X93200000Y-133982500D03*
X84884999Y-110907500D03*
%TO.N,/sd-card/uSD.CMD*%
X94100000Y-134507500D03*
X84884999Y-108357500D03*
%TO.N,/sd-card/uSD.D0*%
X84884999Y-112557500D03*
X92650000Y-131982500D03*
%TO.N,Net-(U5-RSTB)*%
X92650000Y-94850000D03*
%TO.N,Net-(U5-VBUS)*%
X92350000Y-95550000D03*
X95100000Y-89765001D03*
%TO.N,/sd-card/uSD.D3*%
X100625000Y-131082500D03*
X84884999Y-106907500D03*
%TO.N,/sd-card/uSD.D2*%
X100650000Y-130282500D03*
X84934999Y-105507500D03*
%TO.N,Net-(U9-SD_WP)*%
X98700000Y-127482500D03*
%TO.N,/thread-or-zigbee/RESET*%
X98947500Y-94200000D03*
X98947500Y-98350000D03*
%TO.N,Net-(U1-CHIP_EN)*%
X85800000Y-94107500D03*
%TO.N,Net-(U3-RREF[4])*%
X98400000Y-148942499D03*
%TO.N,Net-(U3-RREF[3])*%
X98100000Y-146407500D03*
%TO.N,Net-(U3-RREF[2])*%
X89935000Y-146107500D03*
%TO.N,Net-(U3-TEST5)*%
X91935000Y-146107500D03*
%TO.N,Net-(U3-TEST3)*%
X99000000Y-158100000D03*
%TO.N,Net-(U3-TEST6)*%
X98434999Y-157500000D03*
%TO.N,/pcie-usb-bridge/EEPD*%
X100000000Y-143807500D03*
%TO.N,/pcie-usb-bridge/EECLK*%
X97875000Y-145457500D03*
%TO.N,Net-(U2-RST_N)*%
X85350000Y-133700000D03*
X86450000Y-127200000D03*
%TO.N,Net-(U3-IO_HIT_I)*%
X85800000Y-145600000D03*
%TO.N,Net-(U3-LEG_EMU_EN)*%
X86000000Y-153007500D03*
%TO.N,Net-(U3-PME_L)*%
X92200000Y-142307500D03*
%TO.N,Net-(U3-IRQ12_O)*%
X82000000Y-150757500D03*
%TO.N,Net-(U3-IRQ12_I)*%
X86000000Y-152007500D03*
%TO.N,Net-(U3-SMBDATA)*%
X99600000Y-158707500D03*
%TO.N,Net-(U3-SCAN_EN)*%
X86500000Y-150507500D03*
%TO.N,Net-(U3-SMBCLK)*%
X86900000Y-153907500D03*
%TO.N,Net-(U3-IRQ1_I)*%
X87250000Y-151007500D03*
%TO.N,Net-(U3-TDI)*%
X82250000Y-156507500D03*
%TO.N,Net-(U3-SMI_O)*%
X86000000Y-149707500D03*
%TO.N,Net-(U3-TDO)*%
X82250000Y-154257500D03*
%TO.N,Net-(U3-IRQ1_O)*%
X83000000Y-151257500D03*
%TO.N,Net-(U3-TCK)*%
X85900000Y-154907500D03*
%TO.N,/thread-or-zigbee/UART_TX*%
X93450000Y-96750000D03*
X93300000Y-90400000D03*
%TO.N,/thread-or-zigbee/UART_RX*%
X90400000Y-90500000D03*
X94050000Y-96100000D03*
%TO.N,/thread-or-zigbee/SWDIO*%
X93300000Y-96050000D03*
%TO.N,/thread-or-zigbee/SWCLK*%
X93350000Y-95192500D03*
%TO.N,Net-(J5-B)*%
X84550000Y-115457500D03*
%TO.N,/pcie-usb-bridge/USB_3_DP*%
X81750000Y-116667157D03*
X88950000Y-92550000D03*
%TO.N,/pcie-usb-bridge/USB_4_DP*%
X82950000Y-116784314D03*
%TO.N,/pcie-usb-bridge/USB_3_DN*%
X88950000Y-93350000D03*
X82300000Y-117232843D03*
%TO.N,/pcie-usb-bridge/USB_4_DN*%
X83515686Y-117350000D03*
%TO.N,/PCIE.REFCLKN*%
X85300000Y-160107501D03*
%TO.N,/PCIE.REFCLKP*%
X85300000Y-160907500D03*
%TO.N,/PCIE.PERP*%
X87257157Y-160494657D03*
X92100000Y-160507499D03*
%TO.N,/PCIE.PERN*%
X92100000Y-161307500D03*
X87822843Y-161060343D03*
%TO.N,/pcie-usb-bridge/PCIE.REFCLK2N*%
X93900000Y-156300000D03*
%TO.N,/pcie-usb-bridge/PCIE.REFCLK2P*%
X93100000Y-156300000D03*
%TD*%
D11*
%TO.N,+3V3_eMMC*%
X83300000Y-119415001D02*
X83300000Y-118350000D01*
X83300000Y-118350000D02*
X84300000Y-117350000D01*
X84300000Y-117350000D02*
X84300000Y-117267500D01*
D12*
%TO.N,+3V3_uSD*%
X99400000Y-136307500D02*
X99392500Y-136300000D01*
X99392500Y-136300000D02*
X97500000Y-136300000D01*
X97500000Y-136300000D02*
X97050000Y-135850000D01*
X97050000Y-135850000D02*
X97050000Y-135750000D01*
X97050000Y-135750000D02*
X97022500Y-135722500D01*
X97022500Y-135722500D02*
X96985000Y-135722500D01*
X97050000Y-135117500D02*
X97050000Y-135750000D01*
X97050000Y-135257500D02*
X97050000Y-135750000D01*
D13*
%TO.N,+3V3_eMMC*%
X91107500Y-119800000D02*
X95827499Y-119800000D01*
X90600000Y-120307500D02*
X91107500Y-119800000D01*
X95827499Y-119800000D02*
X97500000Y-121472501D01*
D12*
%TO.N,+3V3_uSD*%
X94500000Y-131900000D02*
X94500000Y-129200000D01*
X99820000Y-132587500D02*
X99820000Y-133507500D01*
X99400000Y-136307500D02*
X99400000Y-136782500D01*
X92650000Y-132982500D02*
X93417500Y-132982500D01*
X92650000Y-133057500D02*
X92400000Y-133307500D01*
X94500000Y-129200000D02*
X94100000Y-128800000D01*
X100600000Y-120007500D02*
X100600000Y-127107500D01*
X100084999Y-119492499D02*
X100600000Y-120007500D01*
X92400000Y-133307500D02*
X92400000Y-134900000D01*
X99820000Y-132587500D02*
X100425000Y-131982500D01*
X100425000Y-131982500D02*
X100500000Y-131982500D01*
X100084999Y-118907500D02*
X100084999Y-119492499D01*
X97050000Y-134657500D02*
X97050000Y-135117500D01*
X95000000Y-134607500D02*
X97100000Y-134607500D01*
X93800000Y-135807500D02*
X95000000Y-134607500D01*
X100600000Y-127107500D02*
X100400000Y-127307500D01*
X98660000Y-133507500D02*
X97050000Y-135117500D01*
X100925000Y-131982500D02*
X100500000Y-131982500D01*
X94100000Y-128800000D02*
X94100000Y-128572501D01*
X97100000Y-134607500D02*
X97050000Y-134657500D01*
X92400000Y-134900000D02*
X93307500Y-135807500D01*
X100400000Y-127307500D02*
X101400000Y-128307500D01*
X92650000Y-132982500D02*
X92650000Y-133057500D01*
X93417500Y-132982500D02*
X94500000Y-131900000D01*
X101400000Y-131507500D02*
X100925000Y-131982500D01*
X101400000Y-128307500D02*
X101400000Y-131507500D01*
X99400000Y-136782500D02*
X99375000Y-136807500D01*
X93307500Y-135807500D02*
X93800000Y-135807500D01*
X99820000Y-133507500D02*
X98660000Y-133507500D01*
%TD*%
%TA.AperFunction,Conductor*%
%TO.N,GND*%
G36*
X89542378Y-86522174D02*
G01*
X89561902Y-86556791D01*
X89608356Y-86745265D01*
X89715625Y-87028109D01*
X89715627Y-87028113D01*
X89856207Y-87295966D01*
X89856210Y-87295970D01*
X90028046Y-87544919D01*
X90028052Y-87544927D01*
X90228647Y-87771351D01*
X90228648Y-87771352D01*
X90455072Y-87971947D01*
X90455076Y-87971950D01*
X90704033Y-88143792D01*
X90971887Y-88284373D01*
X91254734Y-88391643D01*
X91548449Y-88464037D01*
X91848748Y-88500500D01*
X92151252Y-88500500D01*
X92451551Y-88464037D01*
X92745266Y-88391643D01*
X93028113Y-88284373D01*
X93295967Y-88143792D01*
X93544924Y-87971950D01*
X93771352Y-87771352D01*
X93971950Y-87544924D01*
X94143792Y-87295967D01*
X94284373Y-87028113D01*
X94391643Y-86745266D01*
X94438098Y-86556791D01*
X94471665Y-86511172D01*
X94509948Y-86500500D01*
X102425500Y-86500500D01*
X102477826Y-86522174D01*
X102499500Y-86574500D01*
X102499500Y-90925166D01*
X102477826Y-90977492D01*
X102425500Y-90999166D01*
X102373174Y-90977492D01*
X102358587Y-90962905D01*
X102259660Y-90912499D01*
X102150000Y-90895131D01*
X102040339Y-90912499D01*
X101941412Y-90962905D01*
X101862905Y-91041412D01*
X101812499Y-91140339D01*
X101795131Y-91250000D01*
X101812499Y-91359660D01*
X101812500Y-91359661D01*
X101862905Y-91458587D01*
X101941413Y-91537095D01*
X102040339Y-91587500D01*
X102150000Y-91604869D01*
X102259661Y-91587500D01*
X102358587Y-91537095D01*
X102373174Y-91522508D01*
X102425500Y-91500834D01*
X102477826Y-91522508D01*
X102499500Y-91574834D01*
X102499500Y-161425500D01*
X102477826Y-161477826D01*
X102425500Y-161499500D01*
X102337464Y-161499500D01*
X102165062Y-161529898D01*
X102000558Y-161589773D01*
X101848945Y-161677308D01*
X101714837Y-161789837D01*
X101602308Y-161923945D01*
X101514773Y-162075558D01*
X101454898Y-162240062D01*
X101424500Y-162412464D01*
X101424500Y-165425500D01*
X101402826Y-165477826D01*
X101350500Y-165499500D01*
X87049500Y-165499500D01*
X86997174Y-165477826D01*
X86975500Y-165425500D01*
X86975500Y-163000000D01*
X98145131Y-163000000D01*
X98162499Y-163109660D01*
X98202297Y-163187768D01*
X98212905Y-163208587D01*
X98291413Y-163287095D01*
X98390339Y-163337500D01*
X98500000Y-163354869D01*
X98609661Y-163337500D01*
X98708587Y-163287095D01*
X98787095Y-163208587D01*
X98837500Y-163109661D01*
X98854869Y-163000000D01*
X98837500Y-162890339D01*
X98787095Y-162791413D01*
X98708587Y-162712905D01*
X98683260Y-162700000D01*
X99745131Y-162700000D01*
X99762499Y-162809660D01*
X99800352Y-162883951D01*
X99812905Y-162908587D01*
X99891413Y-162987095D01*
X99990339Y-163037500D01*
X100100000Y-163054869D01*
X100209661Y-163037500D01*
X100308587Y-162987095D01*
X100387095Y-162908587D01*
X100437500Y-162809661D01*
X100454869Y-162700000D01*
X100437500Y-162590339D01*
X100437500Y-162590338D01*
X100420605Y-162557180D01*
X100416161Y-162500717D01*
X100452943Y-162457650D01*
X100474960Y-162450496D01*
X100509661Y-162445000D01*
X100608587Y-162394595D01*
X100687095Y-162316087D01*
X100737500Y-162217161D01*
X100754869Y-162107500D01*
X100743966Y-162038665D01*
X100757187Y-161983594D01*
X100805477Y-161954001D01*
X100909661Y-161937500D01*
X101008587Y-161887095D01*
X101087095Y-161808587D01*
X101137500Y-161709661D01*
X101154869Y-161600000D01*
X101137500Y-161490339D01*
X101087095Y-161391413D01*
X101008587Y-161312905D01*
X100977334Y-161296981D01*
X100909660Y-161262499D01*
X100800000Y-161245131D01*
X100690339Y-161262499D01*
X100591412Y-161312905D01*
X100512905Y-161391412D01*
X100462499Y-161490339D01*
X100445131Y-161600000D01*
X100456033Y-161668833D01*
X100442811Y-161723905D01*
X100394521Y-161753498D01*
X100290339Y-161769999D01*
X100191412Y-161820405D01*
X100112905Y-161898912D01*
X100062499Y-161997839D01*
X100045131Y-162107500D01*
X100062499Y-162217160D01*
X100079395Y-162250320D01*
X100083838Y-162306783D01*
X100047055Y-162349850D01*
X100025037Y-162357004D01*
X99990338Y-162362499D01*
X99891412Y-162412905D01*
X99812905Y-162491412D01*
X99762499Y-162590339D01*
X99745131Y-162700000D01*
X98683260Y-162700000D01*
X98609660Y-162662499D01*
X98500000Y-162645131D01*
X98390339Y-162662499D01*
X98291412Y-162712905D01*
X98212905Y-162791412D01*
X98162499Y-162890339D01*
X98145131Y-163000000D01*
X86975500Y-163000000D01*
X86975500Y-162998025D01*
X86975499Y-162998020D01*
X86973457Y-162987094D01*
X86938024Y-162797544D01*
X86864348Y-162607363D01*
X86756981Y-162433959D01*
X86756980Y-162433957D01*
X86634861Y-162299999D01*
X88400000Y-162299999D01*
X90600000Y-162300000D01*
X90600001Y-160507499D01*
X91745131Y-160507499D01*
X91762499Y-160617159D01*
X91787712Y-160666642D01*
X91812905Y-160716086D01*
X91891413Y-160794594D01*
X91983598Y-160841564D01*
X92020381Y-160884631D01*
X92015938Y-160941094D01*
X91983599Y-160973433D01*
X91891413Y-161020404D01*
X91812905Y-161098912D01*
X91762499Y-161197839D01*
X91745131Y-161307500D01*
X91762499Y-161417160D01*
X91812905Y-161516087D01*
X91891413Y-161594595D01*
X91990339Y-161645000D01*
X92100000Y-161662369D01*
X92209661Y-161645000D01*
X92308587Y-161594595D01*
X92387095Y-161516087D01*
X92437500Y-161417161D01*
X92454869Y-161307500D01*
X92437500Y-161197839D01*
X92387095Y-161098913D01*
X92308587Y-161020405D01*
X92308585Y-161020403D01*
X92216401Y-160973433D01*
X92179618Y-160930366D01*
X92184062Y-160873904D01*
X92216399Y-160841565D01*
X92308587Y-160794594D01*
X92387095Y-160716086D01*
X92437500Y-160617160D01*
X92454869Y-160507500D01*
X97545131Y-160507500D01*
X97562499Y-160617160D01*
X97601954Y-160694594D01*
X97612904Y-160716086D01*
X97615549Y-160721276D01*
X97613400Y-160722370D01*
X97624613Y-160769078D01*
X97614603Y-160793242D01*
X97615549Y-160793724D01*
X97562499Y-160897839D01*
X97545131Y-161007500D01*
X97562499Y-161117160D01*
X97601954Y-161194594D01*
X97612905Y-161216087D01*
X97691413Y-161294595D01*
X97790339Y-161345000D01*
X97900000Y-161362369D01*
X98009661Y-161345000D01*
X98046706Y-161326125D01*
X98103905Y-161296981D01*
X98160367Y-161292537D01*
X98171095Y-161296981D01*
X98265336Y-161344999D01*
X98265337Y-161344999D01*
X98265339Y-161345000D01*
X98375000Y-161362369D01*
X98484661Y-161345000D01*
X98583587Y-161294595D01*
X98662095Y-161216087D01*
X98712500Y-161117161D01*
X98729869Y-161007500D01*
X98712500Y-160897839D01*
X98712499Y-160897837D01*
X98712499Y-160897836D01*
X98666985Y-160808509D01*
X98662541Y-160752047D01*
X98680596Y-160722586D01*
X98687094Y-160716088D01*
X98687095Y-160716087D01*
X98737500Y-160617161D01*
X98754869Y-160507500D01*
X98739030Y-160407500D01*
X99345131Y-160407500D01*
X99362499Y-160517160D01*
X99391172Y-160573434D01*
X99412905Y-160616087D01*
X99491413Y-160694595D01*
X99590339Y-160745000D01*
X99651706Y-160754719D01*
X99699996Y-160784311D01*
X99713218Y-160839384D01*
X99706064Y-160861402D01*
X99687500Y-160897837D01*
X99670131Y-161007500D01*
X99687499Y-161117160D01*
X99726954Y-161194594D01*
X99737905Y-161216087D01*
X99816413Y-161294595D01*
X99915339Y-161345000D01*
X100025000Y-161362369D01*
X100134661Y-161345000D01*
X100233587Y-161294595D01*
X100312095Y-161216087D01*
X100362500Y-161117161D01*
X100379869Y-161007500D01*
X100362500Y-160897839D01*
X100341279Y-160856190D01*
X100336836Y-160799728D01*
X100373619Y-160756660D01*
X100418789Y-160749506D01*
X100500000Y-160762369D01*
X100609661Y-160745000D01*
X100708587Y-160694595D01*
X100787095Y-160616087D01*
X100837500Y-160517161D01*
X100854869Y-160407500D01*
X100837500Y-160297839D01*
X100787095Y-160198913D01*
X100708587Y-160120405D01*
X100609660Y-160069999D01*
X100500000Y-160052631D01*
X100390339Y-160069999D01*
X100291412Y-160120405D01*
X100212903Y-160198914D01*
X100165934Y-160291097D01*
X100122867Y-160327880D01*
X100066405Y-160323436D01*
X100034066Y-160291097D01*
X99987096Y-160198914D01*
X99908587Y-160120405D01*
X99809660Y-160069999D01*
X99700000Y-160052631D01*
X99590339Y-160069999D01*
X99491412Y-160120405D01*
X99412905Y-160198912D01*
X99362499Y-160297839D01*
X99345131Y-160407500D01*
X98739030Y-160407500D01*
X98737500Y-160397839D01*
X98687095Y-160298913D01*
X98608587Y-160220405D01*
X98583381Y-160207562D01*
X98509660Y-160169999D01*
X98400000Y-160152631D01*
X98290339Y-160169999D01*
X98186224Y-160223049D01*
X98185129Y-160220900D01*
X98138422Y-160232113D01*
X98114257Y-160222103D01*
X98113776Y-160223049D01*
X98009660Y-160169999D01*
X97900000Y-160152631D01*
X97790339Y-160169999D01*
X97691412Y-160220405D01*
X97612905Y-160298912D01*
X97562499Y-160397839D01*
X97545131Y-160507500D01*
X92454869Y-160507500D01*
X92454869Y-160507499D01*
X92437500Y-160397838D01*
X92387095Y-160298912D01*
X92308587Y-160220404D01*
X92283383Y-160207562D01*
X92209660Y-160169998D01*
X92100000Y-160152630D01*
X91990339Y-160169998D01*
X91891412Y-160220404D01*
X91812905Y-160298911D01*
X91762499Y-160397838D01*
X91745131Y-160507499D01*
X90600001Y-160507499D01*
X90600001Y-160300000D01*
X88400000Y-160300000D01*
X88400000Y-162299999D01*
X86634861Y-162299999D01*
X86619579Y-162283235D01*
X86619578Y-162283234D01*
X86456825Y-162160329D01*
X86456822Y-162160328D01*
X86456821Y-162160327D01*
X86274250Y-162069418D01*
X86274246Y-162069417D01*
X86274244Y-162069416D01*
X86078082Y-162013602D01*
X86078076Y-162013601D01*
X85875003Y-161994785D01*
X85874997Y-161994785D01*
X85671923Y-162013601D01*
X85671917Y-162013602D01*
X85475755Y-162069416D01*
X85475750Y-162069418D01*
X85293177Y-162160328D01*
X85293174Y-162160329D01*
X85274095Y-162174738D01*
X85219276Y-162188975D01*
X85170447Y-162160280D01*
X85155500Y-162115685D01*
X85155500Y-162001025D01*
X85151205Y-161964736D01*
X85151204Y-161964727D01*
X85143140Y-161931135D01*
X85143139Y-161931131D01*
X85130486Y-161896834D01*
X85127974Y-161891904D01*
X85117552Y-161871449D01*
X85110399Y-161849434D01*
X85105801Y-161820405D01*
X85104402Y-161811570D01*
X85104402Y-161788425D01*
X85110399Y-161750559D01*
X85117551Y-161728548D01*
X85130486Y-161703165D01*
X85143139Y-161668867D01*
X85151204Y-161635272D01*
X85155500Y-161598973D01*
X85155500Y-161326125D01*
X85177174Y-161273799D01*
X85229500Y-161252125D01*
X85241073Y-161253035D01*
X85300000Y-161262369D01*
X85409661Y-161245000D01*
X85508587Y-161194595D01*
X85587095Y-161116087D01*
X85637500Y-161017161D01*
X85654869Y-160907500D01*
X85637500Y-160797839D01*
X85587095Y-160698913D01*
X85508587Y-160620405D01*
X85508585Y-160620403D01*
X85416403Y-160573434D01*
X85379620Y-160530367D01*
X85382431Y-160494657D01*
X86902288Y-160494657D01*
X86919656Y-160604317D01*
X86944855Y-160653772D01*
X86970062Y-160703244D01*
X87048570Y-160781752D01*
X87147496Y-160832157D01*
X87257157Y-160849526D01*
X87366818Y-160832157D01*
X87405544Y-160812424D01*
X87462006Y-160807981D01*
X87505074Y-160844763D01*
X87509518Y-160901225D01*
X87505075Y-160911953D01*
X87485343Y-160950680D01*
X87467974Y-161060343D01*
X87485342Y-161170003D01*
X87532405Y-161262369D01*
X87535748Y-161268930D01*
X87614256Y-161347438D01*
X87713182Y-161397843D01*
X87822843Y-161415212D01*
X87932504Y-161397843D01*
X88031430Y-161347438D01*
X88109938Y-161268930D01*
X88160343Y-161170004D01*
X88177712Y-161060343D01*
X88160343Y-160950682D01*
X88109938Y-160851756D01*
X88031430Y-160773248D01*
X87995065Y-160754719D01*
X87932503Y-160722842D01*
X87822843Y-160705474D01*
X87713180Y-160722843D01*
X87674453Y-160742575D01*
X87617991Y-160747018D01*
X87574924Y-160710234D01*
X87570481Y-160653772D01*
X87574925Y-160643044D01*
X87594657Y-160604318D01*
X87597281Y-160587751D01*
X87612026Y-160494657D01*
X87594657Y-160384996D01*
X87544252Y-160286070D01*
X87465744Y-160207562D01*
X87448767Y-160198912D01*
X87366817Y-160157156D01*
X87257157Y-160139788D01*
X87147496Y-160157156D01*
X87048569Y-160207562D01*
X86970062Y-160286069D01*
X86919656Y-160384996D01*
X86902288Y-160494657D01*
X85382431Y-160494657D01*
X85384064Y-160473905D01*
X85416401Y-160441566D01*
X85508587Y-160394596D01*
X85587095Y-160316088D01*
X85637500Y-160217162D01*
X85654869Y-160107501D01*
X85637500Y-159997840D01*
X85587095Y-159898914D01*
X85508587Y-159820406D01*
X85463496Y-159797431D01*
X85409660Y-159770000D01*
X85300000Y-159752632D01*
X85299999Y-159752632D01*
X85241075Y-159761964D01*
X85186003Y-159748742D01*
X85156411Y-159700450D01*
X85155500Y-159688875D01*
X85155500Y-159608525D01*
X85151205Y-159572236D01*
X85151204Y-159572227D01*
X85146004Y-159550566D01*
X85143139Y-159538631D01*
X85130486Y-159504334D01*
X85117552Y-159478949D01*
X85110399Y-159456934D01*
X85109073Y-159448562D01*
X85104402Y-159419070D01*
X85104402Y-159395925D01*
X85110399Y-159358059D01*
X85117551Y-159336048D01*
X85130486Y-159310665D01*
X85143139Y-159276367D01*
X85151204Y-159242772D01*
X85155500Y-159206473D01*
X85155500Y-158997053D01*
X85177174Y-158944727D01*
X85229500Y-158923053D01*
X85263096Y-158931119D01*
X85290338Y-158945000D01*
X85405752Y-158963280D01*
X85405196Y-158966785D01*
X85446861Y-158984043D01*
X85462902Y-159008050D01*
X85478344Y-159045331D01*
X85478350Y-159045343D01*
X85498639Y-159080486D01*
X85498641Y-159080488D01*
X85498642Y-159080489D01*
X85562501Y-159129489D01*
X85614827Y-159151163D01*
X85674334Y-159163000D01*
X85674336Y-159163000D01*
X99238724Y-159163000D01*
X99238725Y-159163000D01*
X99275024Y-159158704D01*
X99308619Y-159150639D01*
X99324228Y-159146015D01*
X99390564Y-159100423D01*
X99417233Y-159069196D01*
X99467694Y-159043484D01*
X99485078Y-159044167D01*
X99513760Y-159048709D01*
X99600000Y-159062369D01*
X99709661Y-159045000D01*
X99808587Y-158994595D01*
X99887095Y-158916087D01*
X99937500Y-158817161D01*
X99954869Y-158707500D01*
X99954868Y-158707499D01*
X99955780Y-158701748D01*
X99959284Y-158702303D01*
X99976543Y-158660638D01*
X100000544Y-158644600D01*
X100037833Y-158629155D01*
X100072989Y-158608858D01*
X100121989Y-158544999D01*
X100143663Y-158492673D01*
X100155500Y-158433166D01*
X100155500Y-146181500D01*
X100143663Y-146121993D01*
X100121989Y-146069667D01*
X100121983Y-146069656D01*
X100101694Y-146034513D01*
X100101692Y-146034511D01*
X100037835Y-145985512D01*
X100037831Y-145985510D01*
X99985511Y-145963838D01*
X99985501Y-145963835D01*
X99940423Y-145954869D01*
X99926000Y-145952000D01*
X98461275Y-145952000D01*
X98456681Y-145952543D01*
X98424986Y-145956294D01*
X98424982Y-145956295D01*
X98424979Y-145956295D01*
X98424976Y-145956296D01*
X98411290Y-145959581D01*
X98391370Y-145964363D01*
X98375770Y-145968985D01*
X98309438Y-146014574D01*
X98282767Y-146045803D01*
X98232303Y-146071516D01*
X98214921Y-146070833D01*
X98100000Y-146052631D01*
X97989783Y-146070087D01*
X97934711Y-146056865D01*
X97919390Y-146039849D01*
X97919226Y-146039994D01*
X97914417Y-146034511D01*
X97850560Y-145985512D01*
X97850556Y-145985510D01*
X97798236Y-145963838D01*
X97798226Y-145963835D01*
X97753148Y-145954869D01*
X97738725Y-145952000D01*
X96901025Y-145952000D01*
X96864732Y-145956294D01*
X96864728Y-145956295D01*
X96831137Y-145964358D01*
X96796837Y-145977011D01*
X96771445Y-145989948D01*
X96749430Y-145997101D01*
X96711577Y-146003097D01*
X96688422Y-146003097D01*
X96650564Y-145997100D01*
X96628548Y-145989946D01*
X96619841Y-145985510D01*
X96603165Y-145977013D01*
X96568866Y-145964359D01*
X96535272Y-145956295D01*
X96535268Y-145956294D01*
X96498975Y-145952000D01*
X95718071Y-145952000D01*
X95718069Y-145952000D01*
X95675007Y-145958820D01*
X95619934Y-145945598D01*
X95597497Y-145919327D01*
X95587095Y-145898913D01*
X95508587Y-145820405D01*
X95409660Y-145769999D01*
X95300000Y-145752631D01*
X95190339Y-145769999D01*
X95091412Y-145820405D01*
X95012904Y-145898913D01*
X95012903Y-145898915D01*
X95001721Y-145920860D01*
X94958653Y-145957642D01*
X94921353Y-145959841D01*
X94881930Y-145952000D01*
X94881929Y-145952000D01*
X92353071Y-145952000D01*
X92353069Y-145952000D01*
X92310007Y-145958820D01*
X92254934Y-145945598D01*
X92232497Y-145919327D01*
X92222095Y-145898913D01*
X92143587Y-145820405D01*
X92044660Y-145769999D01*
X91935000Y-145752631D01*
X91825339Y-145769999D01*
X91726412Y-145820405D01*
X91647905Y-145898912D01*
X91597499Y-145997839D01*
X91580131Y-146107500D01*
X91597499Y-146217160D01*
X91597500Y-146217161D01*
X91647905Y-146316087D01*
X91726413Y-146394595D01*
X91805125Y-146434700D01*
X91841908Y-146477767D01*
X91843778Y-146509381D01*
X91844856Y-146509488D01*
X91844500Y-146513100D01*
X91844500Y-146884730D01*
X91846414Y-146909055D01*
X91850037Y-146931927D01*
X91850725Y-146935937D01*
X91885378Y-147008587D01*
X91922157Y-147051651D01*
X91922159Y-147051652D01*
X91922161Y-147051654D01*
X91969808Y-147089216D01*
X92005604Y-147107455D01*
X92024333Y-147121062D01*
X92051436Y-147148165D01*
X92065044Y-147166895D01*
X92082446Y-147201048D01*
X92089602Y-147223075D01*
X92090532Y-147228951D01*
X92090533Y-147228954D01*
X92095596Y-147260928D01*
X92095596Y-147284077D01*
X92089601Y-147321932D01*
X92082446Y-147343953D01*
X92065045Y-147378104D01*
X92051437Y-147396834D01*
X92024334Y-147423937D01*
X92005605Y-147437545D01*
X91969809Y-147455784D01*
X91949004Y-147468533D01*
X91948995Y-147468539D01*
X91930286Y-147482132D01*
X91927012Y-147484577D01*
X91878010Y-147548439D01*
X91856338Y-147600759D01*
X91856335Y-147600769D01*
X91844500Y-147660272D01*
X91844500Y-147933498D01*
X91856335Y-147993001D01*
X91856338Y-147993011D01*
X91878008Y-148045326D01*
X91878016Y-148045343D01*
X91898305Y-148080486D01*
X91898307Y-148080488D01*
X91898308Y-148080489D01*
X91902983Y-148084076D01*
X91952319Y-148121933D01*
X91962167Y-148129489D01*
X92014493Y-148151163D01*
X92074000Y-148163000D01*
X92074002Y-148163000D01*
X94474328Y-148163000D01*
X94474847Y-148162979D01*
X94486525Y-148162521D01*
X94498103Y-148161610D01*
X94567157Y-148139172D01*
X94615447Y-148109578D01*
X94646994Y-148084031D01*
X94653255Y-148072500D01*
X94685397Y-148013298D01*
X94685397Y-148013296D01*
X94685400Y-148013292D01*
X94698620Y-147958220D01*
X94699795Y-147928282D01*
X94700646Y-147919635D01*
X94710399Y-147858060D01*
X94717552Y-147836046D01*
X94734954Y-147801891D01*
X94748561Y-147783165D01*
X94775666Y-147756059D01*
X94794393Y-147742454D01*
X94794395Y-147742453D01*
X94828546Y-147725052D01*
X94850560Y-147717899D01*
X94888426Y-147711902D01*
X94911572Y-147711902D01*
X94949437Y-147717899D01*
X94971449Y-147725051D01*
X95005604Y-147742454D01*
X95024333Y-147756061D01*
X95051437Y-147783165D01*
X95065043Y-147801892D01*
X95082446Y-147836048D01*
X95089601Y-147858066D01*
X95096266Y-147900148D01*
X95096949Y-147917523D01*
X95096652Y-147921298D01*
X95096652Y-147921305D01*
X95108010Y-147993008D01*
X95129680Y-148045324D01*
X95129683Y-148045332D01*
X95145369Y-148072500D01*
X95149980Y-148080488D01*
X95149983Y-148080491D01*
X95213837Y-148129487D01*
X95213840Y-148129489D01*
X95266166Y-148151163D01*
X95325673Y-148163000D01*
X96770500Y-148163000D01*
X96822826Y-148184674D01*
X96844500Y-148237000D01*
X96844500Y-152831929D01*
X96852111Y-152879981D01*
X96852112Y-152879988D01*
X96866248Y-152923489D01*
X96877474Y-152949620D01*
X96877477Y-152949623D01*
X96932884Y-153008010D01*
X96932888Y-153008012D01*
X96932890Y-153008014D01*
X96981175Y-153037603D01*
X97038100Y-153058604D01*
X97049429Y-153060398D01*
X97071453Y-153067553D01*
X97105604Y-153084954D01*
X97124334Y-153098562D01*
X97151437Y-153125665D01*
X97165043Y-153144392D01*
X97182446Y-153178548D01*
X97189601Y-153200566D01*
X97195597Y-153238423D01*
X97195597Y-153261575D01*
X97189601Y-153299432D01*
X97182446Y-153321452D01*
X97165045Y-153355603D01*
X97151437Y-153374333D01*
X97124336Y-153401434D01*
X97105605Y-153415043D01*
X97071451Y-153432445D01*
X97049438Y-153439598D01*
X97038102Y-153441394D01*
X97038094Y-153441396D01*
X96991834Y-153456426D01*
X96951075Y-153477194D01*
X96951074Y-153477195D01*
X96927012Y-153492376D01*
X96878010Y-153556238D01*
X96856338Y-153608558D01*
X96856335Y-153608568D01*
X96844500Y-153668071D01*
X96844500Y-156778000D01*
X96822826Y-156830326D01*
X96770500Y-156852000D01*
X96316882Y-156852000D01*
X96268830Y-156859611D01*
X96268823Y-156859612D01*
X96225336Y-156873743D01*
X96225335Y-156873743D01*
X96209755Y-156880437D01*
X96199192Y-156884975D01*
X96199191Y-156884975D01*
X96199188Y-156884977D01*
X96140808Y-156940376D01*
X96140797Y-156940390D01*
X96111214Y-156988661D01*
X96111212Y-156988666D01*
X96090206Y-157045600D01*
X96089599Y-157049436D01*
X96082445Y-157071451D01*
X96065042Y-157105606D01*
X96051434Y-157124336D01*
X96024333Y-157151437D01*
X96005603Y-157165045D01*
X95971452Y-157182446D01*
X95949432Y-157189601D01*
X95911575Y-157195597D01*
X95888423Y-157195597D01*
X95850566Y-157189601D01*
X95828548Y-157182446D01*
X95794392Y-157165043D01*
X95775665Y-157151437D01*
X95748561Y-157124333D01*
X95734955Y-157105606D01*
X95717550Y-157071446D01*
X95710397Y-157049428D01*
X95709790Y-157045593D01*
X95694757Y-156999327D01*
X95673995Y-156958579D01*
X95673404Y-156957643D01*
X95662513Y-156940382D01*
X95658809Y-156934511D01*
X95594950Y-156885511D01*
X95593656Y-156884975D01*
X95542628Y-156863838D01*
X95542618Y-156863835D01*
X95502771Y-156855909D01*
X95483117Y-156852000D01*
X94565096Y-156852000D01*
X94558755Y-156852750D01*
X94528793Y-156856296D01*
X94495220Y-156864357D01*
X94495207Y-156864360D01*
X94495198Y-156864363D01*
X94483705Y-156867767D01*
X94479588Y-156868987D01*
X94413259Y-156914574D01*
X94413252Y-156914581D01*
X94376474Y-156957643D01*
X94376473Y-156957644D01*
X94354365Y-156991689D01*
X94339697Y-157070831D01*
X94339697Y-157070832D01*
X94344140Y-157127292D01*
X94360610Y-157185691D01*
X94382446Y-157228546D01*
X94389600Y-157250563D01*
X94395597Y-157288421D01*
X94395597Y-157311575D01*
X94389601Y-157349432D01*
X94382446Y-157371452D01*
X94365045Y-157405603D01*
X94351437Y-157424333D01*
X94324333Y-157451437D01*
X94305603Y-157465045D01*
X94271452Y-157482446D01*
X94249432Y-157489601D01*
X94211575Y-157495597D01*
X94188423Y-157495597D01*
X94150566Y-157489601D01*
X94128548Y-157482446D01*
X94094392Y-157465043D01*
X94075665Y-157451437D01*
X94048564Y-157424336D01*
X94034955Y-157405605D01*
X94017552Y-157371449D01*
X94010398Y-157349433D01*
X94004402Y-157311571D01*
X94004402Y-157288425D01*
X94010399Y-157250561D01*
X94017554Y-157228545D01*
X94039387Y-157185697D01*
X94039391Y-157185689D01*
X94052039Y-157151404D01*
X94052039Y-157151402D01*
X94052041Y-157151398D01*
X94060107Y-157117802D01*
X94063074Y-157101797D01*
X94052567Y-157021993D01*
X94030893Y-156969667D01*
X94024497Y-156958588D01*
X94010598Y-156934513D01*
X94010596Y-156934511D01*
X93946739Y-156885512D01*
X93946735Y-156885510D01*
X93894415Y-156863838D01*
X93894405Y-156863835D01*
X93854558Y-156855909D01*
X93834904Y-156852000D01*
X85229500Y-156852000D01*
X85212631Y-156855355D01*
X85169998Y-156863835D01*
X85169988Y-156863838D01*
X85117661Y-156885513D01*
X85116270Y-156886199D01*
X85115956Y-156886219D01*
X85115429Y-156886438D01*
X85115354Y-156886258D01*
X85059753Y-156889889D01*
X85042044Y-156880420D01*
X85042035Y-156880437D01*
X85041525Y-156880142D01*
X85038511Y-156878531D01*
X85037834Y-156878012D01*
X85037833Y-156878011D01*
X85037831Y-156878010D01*
X84985511Y-156856338D01*
X84985501Y-156856335D01*
X84945654Y-156848409D01*
X84926000Y-156844500D01*
X84925998Y-156844500D01*
X82587334Y-156844500D01*
X82535008Y-156822826D01*
X82513334Y-156770500D01*
X82533863Y-156720937D01*
X82533672Y-156720799D01*
X82534250Y-156720002D01*
X82535008Y-156718174D01*
X82537095Y-156716087D01*
X82587500Y-156617161D01*
X82604869Y-156507500D01*
X82587500Y-156397839D01*
X82537649Y-156300000D01*
X92745131Y-156300000D01*
X92762499Y-156409660D01*
X92812351Y-156507500D01*
X92812905Y-156508587D01*
X92891413Y-156587095D01*
X92990339Y-156637500D01*
X93100000Y-156654869D01*
X93209661Y-156637500D01*
X93308587Y-156587095D01*
X93387095Y-156508587D01*
X93434065Y-156416401D01*
X93477132Y-156379619D01*
X93533595Y-156384062D01*
X93565934Y-156416401D01*
X93612905Y-156508587D01*
X93691413Y-156587095D01*
X93790339Y-156637500D01*
X93900000Y-156654869D01*
X94009661Y-156637500D01*
X94108587Y-156587095D01*
X94187095Y-156508587D01*
X94237500Y-156409661D01*
X94254869Y-156300000D01*
X94237500Y-156190339D01*
X94187095Y-156091413D01*
X94108587Y-156012905D01*
X94009660Y-155962499D01*
X93900000Y-155945131D01*
X93790339Y-155962499D01*
X93691412Y-156012905D01*
X93612903Y-156091414D01*
X93565934Y-156183597D01*
X93522867Y-156220380D01*
X93466405Y-156215936D01*
X93434066Y-156183597D01*
X93387096Y-156091414D01*
X93308587Y-156012905D01*
X93209660Y-155962499D01*
X93100000Y-155945131D01*
X92990339Y-155962499D01*
X92891412Y-156012905D01*
X92812905Y-156091412D01*
X92762499Y-156190339D01*
X92745131Y-156300000D01*
X82537649Y-156300000D01*
X82537095Y-156298913D01*
X82458587Y-156220405D01*
X82386347Y-156183597D01*
X82359660Y-156169999D01*
X82250000Y-156152631D01*
X82140339Y-156169999D01*
X82041412Y-156220405D01*
X81962905Y-156298912D01*
X81912499Y-156397839D01*
X81895131Y-156507500D01*
X81912499Y-156617160D01*
X81962905Y-156716087D01*
X81964992Y-156718174D01*
X81965749Y-156720002D01*
X81966328Y-156720799D01*
X81966136Y-156720937D01*
X81986666Y-156770500D01*
X81964992Y-156822826D01*
X81912666Y-156844500D01*
X81574500Y-156844500D01*
X81522174Y-156822826D01*
X81500500Y-156770500D01*
X81500500Y-154907500D01*
X85545131Y-154907500D01*
X85562499Y-155017160D01*
X85562500Y-155017161D01*
X85612905Y-155116087D01*
X85691413Y-155194595D01*
X85790339Y-155245000D01*
X85900000Y-155262369D01*
X86009661Y-155245000D01*
X86108587Y-155194595D01*
X86187095Y-155116087D01*
X86237500Y-155017161D01*
X86254869Y-154907500D01*
X86239030Y-154807500D01*
X89245131Y-154807500D01*
X89262499Y-154917160D01*
X89312905Y-155016087D01*
X89391413Y-155094595D01*
X89490339Y-155145000D01*
X89600000Y-155162369D01*
X89709661Y-155145000D01*
X89808587Y-155094595D01*
X89887095Y-155016087D01*
X89934065Y-154923901D01*
X89977132Y-154887119D01*
X90033595Y-154891562D01*
X90065934Y-154923901D01*
X90112905Y-155016087D01*
X90191413Y-155094595D01*
X90290339Y-155145000D01*
X90400000Y-155162369D01*
X90509661Y-155145000D01*
X90608587Y-155094595D01*
X90687095Y-155016087D01*
X90734065Y-154923901D01*
X90777132Y-154887119D01*
X90833595Y-154891562D01*
X90865934Y-154923901D01*
X90912905Y-155016087D01*
X90991413Y-155094595D01*
X91090339Y-155145000D01*
X91200000Y-155162369D01*
X91309661Y-155145000D01*
X91408587Y-155094595D01*
X91487095Y-155016087D01*
X91537500Y-154917161D01*
X91554869Y-154807500D01*
X91537500Y-154697839D01*
X91487095Y-154598913D01*
X91408587Y-154520405D01*
X91309660Y-154469999D01*
X91200000Y-154452631D01*
X91090339Y-154469999D01*
X90991412Y-154520405D01*
X90912903Y-154598914D01*
X90865934Y-154691097D01*
X90822867Y-154727880D01*
X90766405Y-154723436D01*
X90734066Y-154691097D01*
X90687096Y-154598914D01*
X90608587Y-154520405D01*
X90509660Y-154469999D01*
X90400000Y-154452631D01*
X90290339Y-154469999D01*
X90191412Y-154520405D01*
X90112903Y-154598914D01*
X90065934Y-154691097D01*
X90022867Y-154727880D01*
X89966405Y-154723436D01*
X89934066Y-154691097D01*
X89887096Y-154598914D01*
X89808587Y-154520405D01*
X89709660Y-154469999D01*
X89600000Y-154452631D01*
X89490339Y-154469999D01*
X89391412Y-154520405D01*
X89312905Y-154598912D01*
X89262499Y-154697839D01*
X89245131Y-154807500D01*
X86239030Y-154807500D01*
X86237500Y-154797839D01*
X86187095Y-154698913D01*
X86108587Y-154620405D01*
X86009660Y-154569999D01*
X85900000Y-154552631D01*
X85790339Y-154569999D01*
X85691412Y-154620405D01*
X85612905Y-154698912D01*
X85562499Y-154797839D01*
X85545131Y-154907500D01*
X81500500Y-154907500D01*
X81500500Y-154257500D01*
X81895131Y-154257500D01*
X81912499Y-154367160D01*
X81912500Y-154367161D01*
X81962905Y-154466087D01*
X82041413Y-154544595D01*
X82140339Y-154595000D01*
X82250000Y-154612369D01*
X82359661Y-154595000D01*
X82458587Y-154544595D01*
X82537095Y-154466087D01*
X82587500Y-154367161D01*
X82604869Y-154257500D01*
X82587500Y-154147839D01*
X82537095Y-154048913D01*
X82458587Y-153970405D01*
X82359660Y-153919999D01*
X82280742Y-153907500D01*
X86545131Y-153907500D01*
X86562499Y-154017160D01*
X86562500Y-154017161D01*
X86612905Y-154116087D01*
X86691413Y-154194595D01*
X86790339Y-154245000D01*
X86900000Y-154262369D01*
X87009661Y-154245000D01*
X87108587Y-154194595D01*
X87187095Y-154116087D01*
X87237500Y-154017161D01*
X87254869Y-153907500D01*
X87237500Y-153797839D01*
X87187095Y-153698913D01*
X87108587Y-153620405D01*
X87009660Y-153569999D01*
X86900000Y-153552631D01*
X86790339Y-153569999D01*
X86691412Y-153620405D01*
X86612905Y-153698912D01*
X86562499Y-153797839D01*
X86545131Y-153907500D01*
X82280742Y-153907500D01*
X82250000Y-153902631D01*
X82140339Y-153919999D01*
X82041412Y-153970405D01*
X81962905Y-154048912D01*
X81912499Y-154147839D01*
X81895131Y-154257500D01*
X81500500Y-154257500D01*
X81500500Y-153007500D01*
X85645131Y-153007500D01*
X85662499Y-153117160D01*
X85676376Y-153144395D01*
X85712905Y-153216087D01*
X85791413Y-153294595D01*
X85890339Y-153345000D01*
X86000000Y-153362369D01*
X86109661Y-153345000D01*
X86208587Y-153294595D01*
X86287095Y-153216087D01*
X86337500Y-153117161D01*
X86354869Y-153007500D01*
X86337500Y-152897839D01*
X86287095Y-152798913D01*
X86208587Y-152720405D01*
X86109660Y-152669999D01*
X86000000Y-152652631D01*
X85890339Y-152669999D01*
X85791412Y-152720405D01*
X85712905Y-152798912D01*
X85662499Y-152897839D01*
X85645131Y-153007500D01*
X81500500Y-153007500D01*
X81500500Y-152007500D01*
X85645131Y-152007500D01*
X85662499Y-152117160D01*
X85662500Y-152117161D01*
X85712905Y-152216087D01*
X85791413Y-152294595D01*
X85890339Y-152345000D01*
X86000000Y-152362369D01*
X86109661Y-152345000D01*
X86208587Y-152294595D01*
X86287095Y-152216087D01*
X86337500Y-152117161D01*
X86354869Y-152007500D01*
X86337500Y-151897839D01*
X86287095Y-151798913D01*
X86208587Y-151720405D01*
X86109660Y-151669999D01*
X86000000Y-151652631D01*
X85890339Y-151669999D01*
X85791412Y-151720405D01*
X85712905Y-151798912D01*
X85662499Y-151897839D01*
X85645131Y-152007500D01*
X81500500Y-152007500D01*
X81500500Y-151257500D01*
X82645131Y-151257500D01*
X82662499Y-151367160D01*
X82662500Y-151367161D01*
X82712905Y-151466087D01*
X82791413Y-151544595D01*
X82890339Y-151595000D01*
X83000000Y-151612369D01*
X83109661Y-151595000D01*
X83208587Y-151544595D01*
X83287095Y-151466087D01*
X83337500Y-151367161D01*
X83354869Y-151257500D01*
X83337500Y-151147839D01*
X83287095Y-151048913D01*
X83245682Y-151007500D01*
X86895131Y-151007500D01*
X86912499Y-151117160D01*
X86912500Y-151117161D01*
X86962905Y-151216087D01*
X87041413Y-151294595D01*
X87140339Y-151345000D01*
X87250000Y-151362369D01*
X87359661Y-151345000D01*
X87458587Y-151294595D01*
X87537095Y-151216087D01*
X87587500Y-151117161D01*
X87604869Y-151007500D01*
X87587500Y-150897839D01*
X87537095Y-150798913D01*
X87458587Y-150720405D01*
X87450112Y-150716087D01*
X87359660Y-150669999D01*
X87250000Y-150652631D01*
X87140339Y-150669999D01*
X87041412Y-150720405D01*
X86962905Y-150798912D01*
X86912499Y-150897839D01*
X86895131Y-151007500D01*
X83245682Y-151007500D01*
X83208587Y-150970405D01*
X83200112Y-150966087D01*
X83109660Y-150919999D01*
X83000000Y-150902631D01*
X82890339Y-150919999D01*
X82791412Y-150970405D01*
X82712905Y-151048912D01*
X82662499Y-151147839D01*
X82645131Y-151257500D01*
X81500500Y-151257500D01*
X81500500Y-150784594D01*
X81510367Y-150760772D01*
X81508840Y-150756071D01*
X81638954Y-150756071D01*
X81647589Y-150773018D01*
X81662499Y-150867160D01*
X81712905Y-150966087D01*
X81791413Y-151044595D01*
X81890339Y-151095000D01*
X82000000Y-151112369D01*
X82109661Y-151095000D01*
X82208587Y-151044595D01*
X82287095Y-150966087D01*
X82337500Y-150867161D01*
X82354869Y-150757500D01*
X82337500Y-150647839D01*
X82287095Y-150548913D01*
X82245682Y-150507500D01*
X86145131Y-150507500D01*
X86162499Y-150617160D01*
X86202630Y-150695922D01*
X86212905Y-150716087D01*
X86291413Y-150794595D01*
X86390339Y-150845000D01*
X86500000Y-150862369D01*
X86609661Y-150845000D01*
X86708587Y-150794595D01*
X86787095Y-150716087D01*
X86837500Y-150617161D01*
X86854869Y-150507500D01*
X86837500Y-150397839D01*
X86787095Y-150298913D01*
X86708587Y-150220405D01*
X86609660Y-150169999D01*
X86500000Y-150152631D01*
X86390339Y-150169999D01*
X86291412Y-150220405D01*
X86212905Y-150298912D01*
X86162499Y-150397839D01*
X86145131Y-150507500D01*
X82245682Y-150507500D01*
X82208587Y-150470405D01*
X82109660Y-150419999D01*
X82000000Y-150402631D01*
X81890339Y-150419999D01*
X81791412Y-150470405D01*
X81712905Y-150548912D01*
X81662499Y-150647839D01*
X81647589Y-150741981D01*
X81638954Y-150756071D01*
X81508840Y-150756071D01*
X81500500Y-150730405D01*
X81500500Y-149707500D01*
X85645131Y-149707500D01*
X85662499Y-149817160D01*
X85662500Y-149817161D01*
X85712905Y-149916087D01*
X85791413Y-149994595D01*
X85890339Y-150045000D01*
X86000000Y-150062369D01*
X86109661Y-150045000D01*
X86208587Y-149994595D01*
X86287095Y-149916087D01*
X86337500Y-149817161D01*
X86354869Y-149707500D01*
X86337500Y-149597839D01*
X86287095Y-149498913D01*
X86208587Y-149420405D01*
X86109660Y-149369999D01*
X86000000Y-149352631D01*
X85890339Y-149369999D01*
X85791412Y-149420405D01*
X85712905Y-149498912D01*
X85662499Y-149597839D01*
X85645131Y-149707500D01*
X81500500Y-149707500D01*
X81500500Y-147750000D01*
X85645131Y-147750000D01*
X85662499Y-147859660D01*
X85707594Y-147948164D01*
X85712905Y-147958587D01*
X85791413Y-148037095D01*
X85890339Y-148087500D01*
X86000000Y-148104869D01*
X86109661Y-148087500D01*
X86208587Y-148037095D01*
X86287095Y-147958587D01*
X86337500Y-147859661D01*
X86354869Y-147750000D01*
X86337500Y-147640339D01*
X86287095Y-147541413D01*
X86208587Y-147462905D01*
X86132108Y-147423937D01*
X86109660Y-147412499D01*
X86000000Y-147395131D01*
X85890339Y-147412499D01*
X85791412Y-147462905D01*
X85712905Y-147541412D01*
X85662499Y-147640339D01*
X85645131Y-147750000D01*
X81500500Y-147750000D01*
X81500500Y-146107500D01*
X89580131Y-146107500D01*
X89597499Y-146217160D01*
X89597500Y-146217161D01*
X89647905Y-146316087D01*
X89726413Y-146394595D01*
X89825339Y-146445000D01*
X89935000Y-146462369D01*
X90044661Y-146445000D01*
X90143587Y-146394595D01*
X90222095Y-146316087D01*
X90272500Y-146217161D01*
X90289869Y-146107500D01*
X90710131Y-146107500D01*
X90727499Y-146217160D01*
X90727500Y-146217161D01*
X90777905Y-146316087D01*
X90856413Y-146394595D01*
X90955339Y-146445000D01*
X91065000Y-146462369D01*
X91174661Y-146445000D01*
X91273587Y-146394595D01*
X91352095Y-146316087D01*
X91402500Y-146217161D01*
X91419869Y-146107500D01*
X91402500Y-145997839D01*
X91352095Y-145898913D01*
X91273587Y-145820405D01*
X91174660Y-145769999D01*
X91065000Y-145752631D01*
X90955339Y-145769999D01*
X90856412Y-145820405D01*
X90777905Y-145898912D01*
X90727499Y-145997839D01*
X90710131Y-146107500D01*
X90289869Y-146107500D01*
X90272500Y-145997839D01*
X90222095Y-145898913D01*
X90143587Y-145820405D01*
X90044660Y-145769999D01*
X89935000Y-145752631D01*
X89825339Y-145769999D01*
X89726412Y-145820405D01*
X89647905Y-145898912D01*
X89597499Y-145997839D01*
X89580131Y-146107500D01*
X81500500Y-146107500D01*
X81500500Y-145600000D01*
X85445131Y-145600000D01*
X85462499Y-145709660D01*
X85493244Y-145770000D01*
X85512905Y-145808587D01*
X85591413Y-145887095D01*
X85690339Y-145937500D01*
X85800000Y-145954869D01*
X85909661Y-145937500D01*
X86008587Y-145887095D01*
X86087095Y-145808587D01*
X86137500Y-145709661D01*
X86154869Y-145600000D01*
X86137500Y-145490339D01*
X86087095Y-145391413D01*
X86008587Y-145312905D01*
X85909660Y-145262499D01*
X85800000Y-145245131D01*
X85690339Y-145262499D01*
X85591412Y-145312905D01*
X85512905Y-145391412D01*
X85462499Y-145490339D01*
X85445131Y-145600000D01*
X81500500Y-145600000D01*
X81500500Y-145007500D01*
X88145131Y-145007500D01*
X88162499Y-145117160D01*
X88189629Y-145170405D01*
X88212905Y-145216087D01*
X88291413Y-145294595D01*
X88390339Y-145345000D01*
X88500000Y-145362369D01*
X88609661Y-145345000D01*
X88708587Y-145294595D01*
X88787095Y-145216087D01*
X88837500Y-145117161D01*
X88839030Y-145107500D01*
X91945131Y-145107500D01*
X91962499Y-145217160D01*
X91985601Y-145262500D01*
X92012905Y-145316087D01*
X92091413Y-145394595D01*
X92190339Y-145445000D01*
X92300000Y-145462369D01*
X92330741Y-145457500D01*
X97520131Y-145457500D01*
X97537499Y-145567160D01*
X97537500Y-145567161D01*
X97587905Y-145666087D01*
X97666413Y-145744595D01*
X97765339Y-145795000D01*
X97875000Y-145812369D01*
X97984661Y-145795000D01*
X98083587Y-145744595D01*
X98162095Y-145666087D01*
X98212500Y-145567161D01*
X98229869Y-145457500D01*
X98212500Y-145347839D01*
X98162095Y-145248913D01*
X98083587Y-145170405D01*
X97984660Y-145119999D01*
X97875000Y-145102631D01*
X97765339Y-145119999D01*
X97666412Y-145170405D01*
X97587905Y-145248912D01*
X97537499Y-145347839D01*
X97520131Y-145457500D01*
X92330741Y-145457500D01*
X92409661Y-145445000D01*
X92508587Y-145394595D01*
X92587095Y-145316087D01*
X92637500Y-145217161D01*
X92654869Y-145107500D01*
X92637500Y-144997839D01*
X92587095Y-144898913D01*
X92508587Y-144820405D01*
X92409660Y-144769999D01*
X92300000Y-144752631D01*
X92190339Y-144769999D01*
X92091412Y-144820405D01*
X92012905Y-144898912D01*
X91962499Y-144997839D01*
X91945131Y-145107500D01*
X88839030Y-145107500D01*
X88854869Y-145007500D01*
X88837500Y-144897839D01*
X88787095Y-144798913D01*
X88708587Y-144720405D01*
X88609660Y-144669999D01*
X88500000Y-144652631D01*
X88390339Y-144669999D01*
X88291412Y-144720405D01*
X88212905Y-144798912D01*
X88162499Y-144897839D01*
X88145131Y-145007500D01*
X81500500Y-145007500D01*
X81500500Y-143900000D01*
X85145131Y-143900000D01*
X85162499Y-144009660D01*
X85162500Y-144009661D01*
X85212905Y-144108587D01*
X85291413Y-144187095D01*
X85390339Y-144237500D01*
X85500000Y-144254869D01*
X85609661Y-144237500D01*
X85708587Y-144187095D01*
X85787095Y-144108587D01*
X85837500Y-144009661D01*
X85854869Y-143900000D01*
X85840218Y-143807500D01*
X98845131Y-143807500D01*
X98862499Y-143917160D01*
X98909630Y-144009660D01*
X98912905Y-144016087D01*
X98991413Y-144094595D01*
X99090339Y-144145000D01*
X99200000Y-144162369D01*
X99309661Y-144145000D01*
X99408587Y-144094595D01*
X99487095Y-144016087D01*
X99534065Y-143923901D01*
X99577132Y-143887119D01*
X99633595Y-143891562D01*
X99665934Y-143923901D01*
X99712905Y-144016087D01*
X99791413Y-144094595D01*
X99890339Y-144145000D01*
X100000000Y-144162369D01*
X100109661Y-144145000D01*
X100208587Y-144094595D01*
X100287095Y-144016087D01*
X100337500Y-143917161D01*
X100354869Y-143807500D01*
X100337500Y-143697839D01*
X100287095Y-143598913D01*
X100208587Y-143520405D01*
X100109660Y-143469999D01*
X100000000Y-143452631D01*
X99890339Y-143469999D01*
X99791412Y-143520405D01*
X99712903Y-143598914D01*
X99665934Y-143691097D01*
X99622867Y-143727880D01*
X99566405Y-143723436D01*
X99534066Y-143691097D01*
X99487096Y-143598914D01*
X99408587Y-143520405D01*
X99309660Y-143469999D01*
X99200000Y-143452631D01*
X99090339Y-143469999D01*
X98991412Y-143520405D01*
X98912905Y-143598912D01*
X98862499Y-143697839D01*
X98845131Y-143807500D01*
X85840218Y-143807500D01*
X85837500Y-143790339D01*
X85787095Y-143691413D01*
X85708587Y-143612905D01*
X85681124Y-143598912D01*
X85609660Y-143562499D01*
X85500000Y-143545131D01*
X85390339Y-143562499D01*
X85291412Y-143612905D01*
X85212905Y-143691412D01*
X85162499Y-143790339D01*
X85145131Y-143900000D01*
X81500500Y-143900000D01*
X81500500Y-142299999D01*
X86800000Y-142299999D01*
X89000000Y-142300000D01*
X89000000Y-142299999D01*
X89600000Y-142299999D01*
X91780743Y-142299999D01*
X91833067Y-142321673D01*
X91853830Y-142362423D01*
X91862499Y-142417160D01*
X91862500Y-142417161D01*
X91912905Y-142516087D01*
X91991413Y-142594595D01*
X92090339Y-142645000D01*
X92200000Y-142662369D01*
X92309661Y-142645000D01*
X92408587Y-142594595D01*
X92487095Y-142516087D01*
X92537500Y-142417161D01*
X92554869Y-142307500D01*
X92537500Y-142197839D01*
X92487095Y-142098913D01*
X92408587Y-142020405D01*
X92309660Y-141969999D01*
X92200000Y-141952631D01*
X92090339Y-141969999D01*
X91991412Y-142020405D01*
X91926326Y-142085491D01*
X91873999Y-142107165D01*
X91821674Y-142085491D01*
X91800000Y-142033165D01*
X91800001Y-140300000D01*
X89600000Y-140300000D01*
X89600000Y-142299999D01*
X89000000Y-142299999D01*
X89000001Y-140300000D01*
X86800000Y-140300000D01*
X86800000Y-142299999D01*
X81500500Y-142299999D01*
X81500500Y-140300000D01*
X83645131Y-140300000D01*
X83662499Y-140409660D01*
X83662500Y-140409661D01*
X83712905Y-140508587D01*
X83791413Y-140587095D01*
X83890339Y-140637500D01*
X84000000Y-140654869D01*
X84109661Y-140637500D01*
X84208587Y-140587095D01*
X84287095Y-140508587D01*
X84337500Y-140409661D01*
X84354869Y-140300000D01*
X84337500Y-140190339D01*
X84287095Y-140091413D01*
X84208587Y-140012905D01*
X84109660Y-139962499D01*
X84000000Y-139945131D01*
X83890339Y-139962499D01*
X83791412Y-140012905D01*
X83712905Y-140091412D01*
X83662499Y-140190339D01*
X83645131Y-140300000D01*
X81500500Y-140300000D01*
X81500500Y-139560660D01*
X91357263Y-139560660D01*
X91374631Y-139670320D01*
X91374632Y-139670321D01*
X91425037Y-139769247D01*
X91503545Y-139847755D01*
X91602471Y-139898160D01*
X91712132Y-139915529D01*
X91821793Y-139898160D01*
X91920719Y-139847755D01*
X91999227Y-139769247D01*
X92049632Y-139670321D01*
X92055083Y-139635902D01*
X92084675Y-139587611D01*
X92116594Y-139574389D01*
X92193024Y-139562284D01*
X92291950Y-139511879D01*
X92370458Y-139433371D01*
X92420863Y-139334445D01*
X92432968Y-139258016D01*
X92462561Y-139209726D01*
X92494481Y-139196504D01*
X92528900Y-139191053D01*
X92627826Y-139140648D01*
X92706334Y-139062140D01*
X92756739Y-138963214D01*
X92774108Y-138853553D01*
X92756739Y-138743892D01*
X92734375Y-138700000D01*
X93099999Y-138700000D01*
X95099998Y-138700001D01*
X95099999Y-136500000D01*
X93100000Y-136500000D01*
X93099999Y-138700000D01*
X92734375Y-138700000D01*
X92706334Y-138644966D01*
X92627826Y-138566458D01*
X92604665Y-138554657D01*
X92528899Y-138516052D01*
X92419239Y-138498684D01*
X92309578Y-138516052D01*
X92210651Y-138566458D01*
X92132144Y-138644965D01*
X92081738Y-138743892D01*
X92069633Y-138820320D01*
X92040039Y-138868611D01*
X92008121Y-138881832D01*
X91973705Y-138887283D01*
X91973704Y-138887283D01*
X91874775Y-138937689D01*
X91796268Y-139016196D01*
X91745862Y-139115125D01*
X91745862Y-139115126D01*
X91740411Y-139149542D01*
X91710817Y-139197833D01*
X91678899Y-139211054D01*
X91602471Y-139223159D01*
X91503544Y-139273565D01*
X91425037Y-139352072D01*
X91374631Y-139450999D01*
X91357263Y-139560660D01*
X81500500Y-139560660D01*
X81500500Y-138217157D01*
X90155182Y-138217157D01*
X90172550Y-138326817D01*
X90172551Y-138326818D01*
X90222956Y-138425744D01*
X90301464Y-138504252D01*
X90400390Y-138554657D01*
X90510051Y-138572026D01*
X90619712Y-138554657D01*
X90718638Y-138504252D01*
X90797146Y-138425744D01*
X90847551Y-138326818D01*
X90853002Y-138292399D01*
X90882594Y-138244109D01*
X90914513Y-138230887D01*
X90990943Y-138218782D01*
X91089869Y-138168377D01*
X91168377Y-138089869D01*
X91218782Y-137990943D01*
X91230887Y-137914514D01*
X91260480Y-137866224D01*
X91292399Y-137853002D01*
X91326818Y-137847551D01*
X91425744Y-137797146D01*
X91504252Y-137718638D01*
X91554657Y-137619712D01*
X91572026Y-137510051D01*
X91554657Y-137400390D01*
X91504252Y-137301464D01*
X91425744Y-137222956D01*
X91395410Y-137207500D01*
X91326817Y-137172550D01*
X91217157Y-137155182D01*
X91107496Y-137172550D01*
X91008569Y-137222956D01*
X90930062Y-137301463D01*
X90879656Y-137400390D01*
X90867551Y-137476818D01*
X90837957Y-137525109D01*
X90806039Y-137538330D01*
X90771624Y-137543781D01*
X90771623Y-137543781D01*
X90672694Y-137594187D01*
X90594187Y-137672694D01*
X90543781Y-137771623D01*
X90543781Y-137771624D01*
X90538330Y-137806039D01*
X90508736Y-137854330D01*
X90476818Y-137867551D01*
X90400390Y-137879656D01*
X90301463Y-137930062D01*
X90222956Y-138008569D01*
X90172550Y-138107496D01*
X90155182Y-138217157D01*
X81500500Y-138217157D01*
X81500500Y-137207500D01*
X84045131Y-137207500D01*
X84062499Y-137317160D01*
X84085534Y-137362368D01*
X84112905Y-137416087D01*
X84191413Y-137494595D01*
X84290339Y-137545000D01*
X84400000Y-137562369D01*
X84509661Y-137545000D01*
X84608587Y-137494595D01*
X84687095Y-137416087D01*
X84737500Y-137317161D01*
X84754869Y-137207500D01*
X85745131Y-137207500D01*
X85762499Y-137317160D01*
X85785534Y-137362368D01*
X85812905Y-137416087D01*
X85891413Y-137494595D01*
X85990339Y-137545000D01*
X86100000Y-137562369D01*
X86209661Y-137545000D01*
X86308587Y-137494595D01*
X86387095Y-137416087D01*
X86437500Y-137317161D01*
X86454869Y-137207500D01*
X86437500Y-137097839D01*
X86387095Y-136998913D01*
X86308587Y-136920405D01*
X86285240Y-136908509D01*
X86209660Y-136869999D01*
X86100000Y-136852631D01*
X85990339Y-136869999D01*
X85891412Y-136920405D01*
X85812905Y-136998912D01*
X85762499Y-137097839D01*
X85745131Y-137207500D01*
X84754869Y-137207500D01*
X84737500Y-137097839D01*
X84687095Y-136998913D01*
X84608587Y-136920405D01*
X84585240Y-136908509D01*
X84509660Y-136869999D01*
X84400000Y-136852631D01*
X84290339Y-136869999D01*
X84191412Y-136920405D01*
X84112905Y-136998912D01*
X84062499Y-137097839D01*
X84045131Y-137207500D01*
X81500500Y-137207500D01*
X81500500Y-134500000D01*
X82845131Y-134500000D01*
X82862499Y-134609660D01*
X82912905Y-134708587D01*
X82991413Y-134787095D01*
X83034532Y-134809066D01*
X83071314Y-134852133D01*
X83066870Y-134908596D01*
X83034532Y-134940934D01*
X82991413Y-134962904D01*
X82912905Y-135041412D01*
X82862499Y-135140339D01*
X82845131Y-135250000D01*
X82862499Y-135359660D01*
X82862500Y-135359661D01*
X82912905Y-135458587D01*
X82991413Y-135537095D01*
X83090339Y-135587500D01*
X83200000Y-135604869D01*
X83309661Y-135587500D01*
X83408587Y-135537095D01*
X83445682Y-135500000D01*
X90545131Y-135500000D01*
X90562499Y-135609660D01*
X90605939Y-135694915D01*
X90612905Y-135708587D01*
X90691413Y-135787095D01*
X90790339Y-135837500D01*
X90900000Y-135854869D01*
X91009661Y-135837500D01*
X91108587Y-135787095D01*
X91187095Y-135708587D01*
X91237500Y-135609661D01*
X91254869Y-135500000D01*
X91237500Y-135390339D01*
X91187095Y-135291413D01*
X91108587Y-135212905D01*
X91088423Y-135202631D01*
X91009660Y-135162499D01*
X90900000Y-135145131D01*
X90790339Y-135162499D01*
X90691412Y-135212905D01*
X90612905Y-135291412D01*
X90562499Y-135390339D01*
X90545131Y-135500000D01*
X83445682Y-135500000D01*
X83487095Y-135458587D01*
X83537500Y-135359661D01*
X83554869Y-135250000D01*
X83537500Y-135140339D01*
X83487095Y-135041413D01*
X83408587Y-134962905D01*
X83365467Y-134940934D01*
X83328685Y-134897867D01*
X83333128Y-134841405D01*
X83365468Y-134809065D01*
X83408587Y-134787095D01*
X83487095Y-134708587D01*
X83516946Y-134650000D01*
X87945131Y-134650000D01*
X87962499Y-134759660D01*
X87987672Y-134809065D01*
X88012905Y-134858587D01*
X88091413Y-134937095D01*
X88190339Y-134987500D01*
X88300000Y-135004869D01*
X88409661Y-134987500D01*
X88508587Y-134937095D01*
X88587095Y-134858587D01*
X88637500Y-134759661D01*
X88654869Y-134650000D01*
X88637500Y-134540339D01*
X88587095Y-134441413D01*
X88508587Y-134362905D01*
X88409660Y-134312499D01*
X88300000Y-134295131D01*
X88190339Y-134312499D01*
X88091412Y-134362905D01*
X88012905Y-134441412D01*
X87962499Y-134540339D01*
X87945131Y-134650000D01*
X83516946Y-134650000D01*
X83537500Y-134609661D01*
X83554869Y-134500000D01*
X83537500Y-134390339D01*
X83487095Y-134291413D01*
X83408587Y-134212905D01*
X83408457Y-134212839D01*
X83309660Y-134162499D01*
X83200000Y-134145131D01*
X83090339Y-134162499D01*
X82991412Y-134212905D01*
X82912905Y-134291412D01*
X82862499Y-134390339D01*
X82845131Y-134500000D01*
X81500500Y-134500000D01*
X81500500Y-133700000D01*
X84995131Y-133700000D01*
X85012499Y-133809660D01*
X85048173Y-133879674D01*
X85062905Y-133908587D01*
X85141413Y-133987095D01*
X85240339Y-134037500D01*
X85350000Y-134054869D01*
X85459661Y-134037500D01*
X85558587Y-133987095D01*
X85637095Y-133908587D01*
X85687500Y-133809661D01*
X85704869Y-133700000D01*
X85687500Y-133590339D01*
X85637095Y-133491413D01*
X85558587Y-133412905D01*
X85459660Y-133362499D01*
X85350000Y-133345131D01*
X85240339Y-133362499D01*
X85141412Y-133412905D01*
X85062905Y-133491412D01*
X85012499Y-133590339D01*
X84995131Y-133700000D01*
X81500500Y-133700000D01*
X81500500Y-133261353D01*
X92049500Y-133261353D01*
X92049500Y-134946143D01*
X92066073Y-135007998D01*
X92072505Y-135032000D01*
X92073386Y-135035288D01*
X92119530Y-135115212D01*
X93092288Y-136087970D01*
X93165899Y-136130469D01*
X93172212Y-136134114D01*
X93261353Y-136157999D01*
X93261354Y-136158000D01*
X93261356Y-136158000D01*
X93846146Y-136158000D01*
X93846146Y-136157999D01*
X93935288Y-136134114D01*
X93941597Y-136130470D01*
X93941602Y-136130470D01*
X93941601Y-136130469D01*
X93941603Y-136130468D01*
X94015212Y-136087970D01*
X94545681Y-135557500D01*
X95595131Y-135557500D01*
X95612499Y-135667160D01*
X95617185Y-135676356D01*
X95662905Y-135766087D01*
X95741413Y-135844595D01*
X95840339Y-135895000D01*
X95950000Y-135912369D01*
X96059661Y-135895000D01*
X96158587Y-135844595D01*
X96237095Y-135766087D01*
X96287500Y-135667161D01*
X96304869Y-135557500D01*
X96287500Y-135447839D01*
X96237095Y-135348913D01*
X96158587Y-135270405D01*
X96100892Y-135241008D01*
X96059660Y-135219999D01*
X95950000Y-135202631D01*
X95840339Y-135219999D01*
X95741412Y-135270405D01*
X95662905Y-135348912D01*
X95612499Y-135447839D01*
X95595131Y-135557500D01*
X94545681Y-135557500D01*
X95123507Y-134979673D01*
X95175833Y-134958000D01*
X96625500Y-134958000D01*
X96677826Y-134979674D01*
X96699500Y-135032000D01*
X96699500Y-135496172D01*
X96689586Y-135533172D01*
X96658386Y-135587210D01*
X96658384Y-135587215D01*
X96634500Y-135676353D01*
X96634500Y-135768646D01*
X96658384Y-135857784D01*
X96658386Y-135857789D01*
X96704527Y-135937706D01*
X96704529Y-135937708D01*
X96704531Y-135937712D01*
X96704533Y-135937714D01*
X96704946Y-135938252D01*
X96705554Y-135939485D01*
X96706956Y-135941913D01*
X96706797Y-135942004D01*
X96717723Y-135964156D01*
X96720197Y-135973385D01*
X96723386Y-135985289D01*
X96769530Y-136065212D01*
X97284788Y-136580470D01*
X97364712Y-136626614D01*
X97364713Y-136626614D01*
X97364715Y-136626615D01*
X97409284Y-136638557D01*
X97453853Y-136650499D01*
X97453854Y-136650500D01*
X97453856Y-136650500D01*
X97782666Y-136650500D01*
X97834992Y-136672174D01*
X97856666Y-136724500D01*
X97834992Y-136776826D01*
X97812905Y-136798912D01*
X97762499Y-136897839D01*
X97745131Y-137007500D01*
X97762499Y-137117160D01*
X97783307Y-137157998D01*
X97812905Y-137216087D01*
X97891413Y-137294595D01*
X97990339Y-137345000D01*
X98100000Y-137362369D01*
X98209661Y-137345000D01*
X98308587Y-137294595D01*
X98387095Y-137216087D01*
X98437500Y-137117161D01*
X98454869Y-137007500D01*
X98437500Y-136897839D01*
X98387095Y-136798913D01*
X98365008Y-136776826D01*
X98343334Y-136724500D01*
X98365008Y-136672174D01*
X98417334Y-136650500D01*
X98957766Y-136650500D01*
X99010092Y-136672174D01*
X99031766Y-136724500D01*
X99029245Y-136743646D01*
X99024501Y-136761356D01*
X99024501Y-136774084D01*
X99023590Y-136785660D01*
X99020131Y-136807499D01*
X99023590Y-136829339D01*
X99024501Y-136840915D01*
X99024501Y-136853645D01*
X99030684Y-136876723D01*
X99032294Y-136884296D01*
X99037499Y-136917161D01*
X99037500Y-136917162D01*
X99042447Y-136926872D01*
X99047986Y-136941297D01*
X99048386Y-136942788D01*
X99065918Y-136973155D01*
X99067745Y-136976522D01*
X99087905Y-137016087D01*
X99166413Y-137094595D01*
X99191741Y-137107500D01*
X99205972Y-137114751D01*
X99209376Y-137116600D01*
X99239710Y-137134113D01*
X99239712Y-137134114D01*
X99241185Y-137134508D01*
X99255636Y-137140056D01*
X99265336Y-137144999D01*
X99265338Y-137145000D01*
X99276482Y-137146764D01*
X99298198Y-137150204D01*
X99305771Y-137151814D01*
X99323185Y-137156479D01*
X99328853Y-137157998D01*
X99328854Y-137157999D01*
X99328856Y-137157999D01*
X99341585Y-137157999D01*
X99353161Y-137158910D01*
X99355055Y-137159209D01*
X99375000Y-137162369D01*
X99394944Y-137159209D01*
X99396839Y-137158910D01*
X99408415Y-137157999D01*
X99421143Y-137157999D01*
X99421144Y-137157999D01*
X99444241Y-137151809D01*
X99451790Y-137150205D01*
X99484661Y-137145000D01*
X99494366Y-137140055D01*
X99508817Y-137134508D01*
X99508821Y-137134507D01*
X99510288Y-137134114D01*
X99540670Y-137116572D01*
X99543982Y-137114773D01*
X99583587Y-137094595D01*
X99662095Y-137016087D01*
X99662095Y-137016086D01*
X99672503Y-137005679D01*
X99672507Y-137005673D01*
X99680469Y-136997712D01*
X99726614Y-136917788D01*
X99726782Y-136917161D01*
X99729101Y-136908509D01*
X99750500Y-136828643D01*
X99750500Y-136340908D01*
X99751411Y-136329332D01*
X99754869Y-136307499D01*
X99751411Y-136285666D01*
X99750500Y-136274090D01*
X99750500Y-136261356D01*
X99744311Y-136238262D01*
X99742703Y-136230693D01*
X99737500Y-136197840D01*
X99737499Y-136197837D01*
X99732554Y-136188132D01*
X99727009Y-136173685D01*
X99726615Y-136172216D01*
X99726614Y-136172212D01*
X99709105Y-136141887D01*
X99707258Y-136138483D01*
X99691471Y-136107500D01*
X100645131Y-136107500D01*
X100662499Y-136217160D01*
X100712905Y-136316087D01*
X100719406Y-136322588D01*
X100741080Y-136374914D01*
X100733015Y-136408509D01*
X100687499Y-136497839D01*
X100670131Y-136607500D01*
X100687499Y-136717160D01*
X100733015Y-136806490D01*
X100737458Y-136862952D01*
X100719408Y-136892408D01*
X100712906Y-136898909D01*
X100712906Y-136898910D01*
X100662499Y-136997839D01*
X100645131Y-137107500D01*
X100662499Y-137217160D01*
X100701954Y-137294594D01*
X100712905Y-137316087D01*
X100791413Y-137394595D01*
X100890339Y-137445000D01*
X101000000Y-137462369D01*
X101109661Y-137445000D01*
X101208587Y-137394595D01*
X101287095Y-137316087D01*
X101337500Y-137217161D01*
X101354869Y-137107500D01*
X101337500Y-136997839D01*
X101337499Y-136997837D01*
X101337499Y-136997836D01*
X101291985Y-136908509D01*
X101287541Y-136852047D01*
X101305596Y-136822586D01*
X101312094Y-136816088D01*
X101316470Y-136807500D01*
X101362500Y-136717161D01*
X101379869Y-136607500D01*
X101362500Y-136497839D01*
X101312095Y-136398913D01*
X101305593Y-136392411D01*
X101283919Y-136340085D01*
X101291985Y-136306489D01*
X101314982Y-136261356D01*
X101337500Y-136217161D01*
X101354869Y-136107500D01*
X101337500Y-135997839D01*
X101287095Y-135898913D01*
X101208587Y-135820405D01*
X101109660Y-135769999D01*
X101000000Y-135752631D01*
X100890339Y-135769999D01*
X100791412Y-135820405D01*
X100712905Y-135898912D01*
X100662499Y-135997839D01*
X100645131Y-136107500D01*
X99691471Y-136107500D01*
X99687096Y-136098915D01*
X99687096Y-136098914D01*
X99607712Y-136019530D01*
X99527788Y-135973386D01*
X99527786Y-135973385D01*
X99515148Y-135969999D01*
X99515147Y-135969998D01*
X99438644Y-135949500D01*
X97675834Y-135949500D01*
X97623508Y-135927826D01*
X97422174Y-135726492D01*
X97400500Y-135674166D01*
X97400500Y-135293334D01*
X97422174Y-135241008D01*
X98783508Y-133879674D01*
X98835834Y-133858000D01*
X99016357Y-133858000D01*
X99068683Y-133879674D01*
X99090357Y-133932000D01*
X99068683Y-133984326D01*
X99049952Y-133997934D01*
X98976414Y-134035403D01*
X98897905Y-134113912D01*
X98847499Y-134212839D01*
X98830131Y-134322500D01*
X98847499Y-134432160D01*
X98852214Y-134441413D01*
X98897905Y-134531087D01*
X98976413Y-134609595D01*
X99075339Y-134660000D01*
X99185000Y-134677369D01*
X99294661Y-134660000D01*
X99393587Y-134609595D01*
X99472095Y-134531087D01*
X99522500Y-134432161D01*
X99539869Y-134322500D01*
X99522500Y-134212839D01*
X99472095Y-134113913D01*
X99393587Y-134035405D01*
X99393585Y-134035403D01*
X99320048Y-133997934D01*
X99283265Y-133954867D01*
X99287709Y-133898405D01*
X99330776Y-133861622D01*
X99353643Y-133858000D01*
X99866146Y-133858000D01*
X99866146Y-133857999D01*
X99955288Y-133834114D01*
X100035212Y-133787969D01*
X100100469Y-133722712D01*
X100146614Y-133642788D01*
X100170499Y-133553646D01*
X100170500Y-133553646D01*
X100170500Y-133046703D01*
X100192174Y-132994377D01*
X100244500Y-132972703D01*
X100296826Y-132994377D01*
X100310435Y-133013108D01*
X100312499Y-133017160D01*
X100312500Y-133017161D01*
X100362905Y-133116087D01*
X100441413Y-133194595D01*
X100540339Y-133245000D01*
X100650000Y-133262369D01*
X100759661Y-133245000D01*
X100858587Y-133194595D01*
X100937095Y-133116087D01*
X100987500Y-133017161D01*
X101004869Y-132907500D01*
X100987500Y-132797839D01*
X100937095Y-132698913D01*
X100858587Y-132620405D01*
X100838806Y-132610326D01*
X100759660Y-132569999D01*
X100650000Y-132552631D01*
X100540336Y-132570000D01*
X100534270Y-132573091D01*
X100477807Y-132577532D01*
X100434742Y-132540747D01*
X100430301Y-132484284D01*
X100448350Y-132454831D01*
X100548508Y-132354674D01*
X100600834Y-132333000D01*
X100971146Y-132333000D01*
X100971146Y-132332999D01*
X101060288Y-132309114D01*
X101063896Y-132307031D01*
X101140212Y-132262970D01*
X101680469Y-131722713D01*
X101726614Y-131642788D01*
X101729876Y-131630613D01*
X101732847Y-131619529D01*
X101750500Y-131553643D01*
X101750500Y-128261354D01*
X101750499Y-128261353D01*
X101746354Y-128245885D01*
X101726614Y-128172212D01*
X101719368Y-128159661D01*
X101680473Y-128092293D01*
X101680473Y-128092292D01*
X101680471Y-128092290D01*
X101680470Y-128092288D01*
X100931756Y-127343574D01*
X100910082Y-127291248D01*
X100919997Y-127254246D01*
X100926614Y-127242788D01*
X100950500Y-127153643D01*
X100950500Y-127061356D01*
X100950500Y-119961356D01*
X100950500Y-119961354D01*
X100950499Y-119961353D01*
X100926615Y-119872215D01*
X100926613Y-119872210D01*
X100880471Y-119792291D01*
X100880470Y-119792290D01*
X100880469Y-119792288D01*
X100815212Y-119727031D01*
X100637681Y-119549500D01*
X100457173Y-119368991D01*
X100435499Y-119316665D01*
X100435499Y-118940908D01*
X100436410Y-118929332D01*
X100439868Y-118907499D01*
X100436410Y-118885666D01*
X100435499Y-118874090D01*
X100435499Y-118861356D01*
X100435498Y-118861354D01*
X100429310Y-118838262D01*
X100427702Y-118830693D01*
X100422499Y-118797840D01*
X100422498Y-118797837D01*
X100417553Y-118788132D01*
X100412008Y-118773685D01*
X100411614Y-118772216D01*
X100411613Y-118772212D01*
X100394102Y-118741883D01*
X100392257Y-118738483D01*
X100372095Y-118698915D01*
X100372095Y-118698914D01*
X100293586Y-118620405D01*
X100254026Y-118600248D01*
X100250622Y-118598400D01*
X100220288Y-118580886D01*
X100220284Y-118580885D01*
X100218806Y-118580489D01*
X100204368Y-118574946D01*
X100194660Y-118570000D01*
X100194658Y-118569999D01*
X100194657Y-118569999D01*
X100161803Y-118564795D01*
X100154231Y-118563185D01*
X100131144Y-118557000D01*
X100131143Y-118557000D01*
X100118407Y-118557000D01*
X100106831Y-118556089D01*
X100084999Y-118552631D01*
X100063167Y-118556089D01*
X100051591Y-118557000D01*
X100038853Y-118557000D01*
X100015768Y-118563185D01*
X100008196Y-118564795D01*
X99975336Y-118570000D01*
X99975335Y-118570000D01*
X99965624Y-118574948D01*
X99951204Y-118580485D01*
X99949713Y-118580884D01*
X99949710Y-118580885D01*
X99919382Y-118598396D01*
X99915979Y-118600244D01*
X99876411Y-118620405D01*
X99797904Y-118698912D01*
X99777743Y-118738480D01*
X99775895Y-118741883D01*
X99758384Y-118772211D01*
X99758383Y-118772214D01*
X99757984Y-118773705D01*
X99752447Y-118788125D01*
X99747499Y-118797836D01*
X99747499Y-118797837D01*
X99742294Y-118830697D01*
X99740684Y-118838269D01*
X99734499Y-118861354D01*
X99734499Y-118874090D01*
X99733588Y-118885666D01*
X99730130Y-118907499D01*
X99733588Y-118929332D01*
X99734499Y-118940908D01*
X99734499Y-119538645D01*
X99747626Y-119587634D01*
X99747626Y-119587635D01*
X99758383Y-119627782D01*
X99758385Y-119627787D01*
X99804529Y-119707711D01*
X100026948Y-119930130D01*
X100227826Y-120131007D01*
X100249500Y-120183333D01*
X100249500Y-126931666D01*
X100227826Y-126983992D01*
X100112905Y-127098912D01*
X100092750Y-127138468D01*
X100090903Y-127141869D01*
X100073386Y-127172210D01*
X100073383Y-127172216D01*
X100072985Y-127173704D01*
X100067450Y-127188121D01*
X100062500Y-127197838D01*
X100057293Y-127230708D01*
X100055684Y-127238275D01*
X100049501Y-127261356D01*
X100049501Y-127261358D01*
X100049501Y-127274084D01*
X100048590Y-127285660D01*
X100045131Y-127307499D01*
X100048590Y-127329339D01*
X100049501Y-127340915D01*
X100049501Y-127353645D01*
X100055684Y-127376723D01*
X100057294Y-127384296D01*
X100062499Y-127417161D01*
X100062500Y-127417162D01*
X100067447Y-127426872D01*
X100072986Y-127441297D01*
X100073386Y-127442788D01*
X100090918Y-127473155D01*
X100092747Y-127476525D01*
X100112905Y-127516087D01*
X101027826Y-128431008D01*
X101049500Y-128483334D01*
X101049500Y-130007666D01*
X101027826Y-130059992D01*
X100975500Y-130081666D01*
X100923174Y-130059992D01*
X100858587Y-129995405D01*
X100759660Y-129944999D01*
X100650000Y-129927631D01*
X100540339Y-129944999D01*
X100441412Y-129995405D01*
X100362905Y-130073912D01*
X100312499Y-130172839D01*
X100295131Y-130282500D01*
X100312499Y-130392160D01*
X100312500Y-130392161D01*
X100362905Y-130491087D01*
X100441413Y-130569595D01*
X100516956Y-130608086D01*
X100521223Y-130610260D01*
X100558006Y-130653328D01*
X100553563Y-130709790D01*
X100518985Y-130739329D01*
X100520528Y-130742356D01*
X100416412Y-130795405D01*
X100337905Y-130873912D01*
X100287499Y-130972839D01*
X100270131Y-131082500D01*
X100287499Y-131192160D01*
X100287500Y-131192161D01*
X100337905Y-131291087D01*
X100416413Y-131369595D01*
X100515339Y-131420000D01*
X100625000Y-131437369D01*
X100734661Y-131420000D01*
X100833587Y-131369595D01*
X100833592Y-131369589D01*
X100835850Y-131367950D01*
X100837676Y-131367511D01*
X100838776Y-131366951D01*
X100838910Y-131367214D01*
X100890921Y-131354723D01*
X100939215Y-131384311D01*
X100952442Y-131439382D01*
X100931678Y-131480139D01*
X100801492Y-131610326D01*
X100749166Y-131632000D01*
X100533408Y-131632000D01*
X100521832Y-131631089D01*
X100500000Y-131627631D01*
X100478168Y-131631089D01*
X100466592Y-131632000D01*
X100378854Y-131632000D01*
X100293511Y-131654868D01*
X100293508Y-131654869D01*
X100292703Y-131655084D01*
X100289713Y-131655885D01*
X100209787Y-131702030D01*
X99539530Y-132372287D01*
X99493386Y-132452210D01*
X99493384Y-132452215D01*
X99469500Y-132541353D01*
X99469500Y-133083000D01*
X99447826Y-133135326D01*
X99395500Y-133157000D01*
X98613854Y-133157000D01*
X98524715Y-133180884D01*
X98524710Y-133180886D01*
X98444787Y-133227030D01*
X97374113Y-134297704D01*
X97321787Y-134319378D01*
X97284787Y-134309464D01*
X97235289Y-134280886D01*
X97235284Y-134280884D01*
X97146146Y-134257000D01*
X97146144Y-134257000D01*
X94953856Y-134257000D01*
X94953854Y-134257000D01*
X94864715Y-134280884D01*
X94864710Y-134280886D01*
X94784791Y-134327028D01*
X94577998Y-134533821D01*
X94525672Y-134555495D01*
X94473346Y-134533821D01*
X94452583Y-134493072D01*
X94437500Y-134397839D01*
X94387095Y-134298913D01*
X94308587Y-134220405D01*
X94230428Y-134180581D01*
X94209660Y-134169999D01*
X94100000Y-134152631D01*
X93990339Y-134169999D01*
X93891412Y-134220405D01*
X93812905Y-134298912D01*
X93762499Y-134397839D01*
X93745131Y-134507500D01*
X93762499Y-134617160D01*
X93762500Y-134617161D01*
X93812905Y-134716087D01*
X93891413Y-134794595D01*
X93990339Y-134845000D01*
X94085571Y-134860083D01*
X94133861Y-134889676D01*
X94147083Y-134944748D01*
X94126320Y-134985498D01*
X93676492Y-135435326D01*
X93624166Y-135457000D01*
X93483334Y-135457000D01*
X93431008Y-135435326D01*
X92772174Y-134776492D01*
X92750500Y-134724166D01*
X92750500Y-134180581D01*
X92772174Y-134128255D01*
X92824500Y-134106581D01*
X92876826Y-134128255D01*
X92890433Y-134146983D01*
X92912905Y-134191087D01*
X92991413Y-134269595D01*
X93090339Y-134320000D01*
X93200000Y-134337369D01*
X93309661Y-134320000D01*
X93408587Y-134269595D01*
X93487095Y-134191087D01*
X93537500Y-134092161D01*
X93554869Y-133982500D01*
X93537500Y-133872839D01*
X93487095Y-133773913D01*
X93408587Y-133695405D01*
X93309660Y-133644999D01*
X93200000Y-133627631D01*
X93090339Y-133644999D01*
X92991412Y-133695405D01*
X92912903Y-133773914D01*
X92890434Y-133818013D01*
X92847367Y-133854796D01*
X92790905Y-133850352D01*
X92754122Y-133807285D01*
X92750500Y-133784418D01*
X92750500Y-133483333D01*
X92772174Y-133431007D01*
X92848507Y-133354674D01*
X92900833Y-133333000D01*
X93463646Y-133333000D01*
X93463646Y-133332999D01*
X93552788Y-133309114D01*
X93632712Y-133262970D01*
X94780470Y-132115212D01*
X94826614Y-132035288D01*
X94840758Y-131982500D01*
X94850500Y-131946144D01*
X94850500Y-129153856D01*
X94850500Y-129153854D01*
X94850499Y-129153853D01*
X94826615Y-129064715D01*
X94826613Y-129064710D01*
X94780471Y-128984791D01*
X94780470Y-128984790D01*
X94780469Y-128984788D01*
X94715212Y-128919531D01*
X94472174Y-128676492D01*
X94450500Y-128624166D01*
X94450500Y-128605909D01*
X94451411Y-128594333D01*
X94454869Y-128572500D01*
X94451411Y-128550667D01*
X94450500Y-128539091D01*
X94450500Y-128526357D01*
X94450499Y-128526355D01*
X94444311Y-128503263D01*
X94442703Y-128495694D01*
X94437500Y-128462841D01*
X94437499Y-128462838D01*
X94432554Y-128453133D01*
X94427009Y-128438686D01*
X94426615Y-128437217D01*
X94426614Y-128437213D01*
X94409103Y-128406884D01*
X94407258Y-128403484D01*
X94387096Y-128363916D01*
X94387096Y-128363915D01*
X94308587Y-128285406D01*
X94269027Y-128265249D01*
X94265623Y-128263401D01*
X94235289Y-128245887D01*
X94235285Y-128245886D01*
X94233807Y-128245490D01*
X94219369Y-128239947D01*
X94209661Y-128235001D01*
X94209659Y-128235000D01*
X94209658Y-128235000D01*
X94176804Y-128229796D01*
X94169232Y-128228186D01*
X94146145Y-128222001D01*
X94146144Y-128222001D01*
X94133408Y-128222001D01*
X94121832Y-128221090D01*
X94100000Y-128217632D01*
X94078168Y-128221090D01*
X94066592Y-128222001D01*
X94053854Y-128222001D01*
X94030769Y-128228186D01*
X94023197Y-128229796D01*
X93990337Y-128235001D01*
X93990336Y-128235001D01*
X93980625Y-128239949D01*
X93966205Y-128245486D01*
X93964714Y-128245885D01*
X93964711Y-128245886D01*
X93934383Y-128263397D01*
X93930980Y-128265245D01*
X93891412Y-128285406D01*
X93812905Y-128363913D01*
X93792744Y-128403481D01*
X93790896Y-128406884D01*
X93773385Y-128437212D01*
X93773384Y-128437215D01*
X93772985Y-128438706D01*
X93767448Y-128453126D01*
X93762500Y-128462837D01*
X93762500Y-128462838D01*
X93757295Y-128495698D01*
X93755685Y-128503270D01*
X93749500Y-128526355D01*
X93749500Y-128539091D01*
X93748589Y-128550667D01*
X93745131Y-128572500D01*
X93748589Y-128594333D01*
X93749500Y-128605909D01*
X93749500Y-128846146D01*
X93762482Y-128894594D01*
X93768241Y-128916087D01*
X93769164Y-128919531D01*
X93773386Y-128935289D01*
X93819528Y-129015209D01*
X93819530Y-129015212D01*
X94021479Y-129217160D01*
X94127826Y-129323507D01*
X94149500Y-129375833D01*
X94149500Y-131724166D01*
X94127826Y-131776492D01*
X93293992Y-132610326D01*
X93241666Y-132632000D01*
X92683408Y-132632000D01*
X92671832Y-132631089D01*
X92650000Y-132627631D01*
X92628168Y-132631089D01*
X92616592Y-132632000D01*
X92603854Y-132632000D01*
X92580769Y-132638185D01*
X92573197Y-132639795D01*
X92540337Y-132645000D01*
X92540336Y-132645000D01*
X92530625Y-132649948D01*
X92516205Y-132655485D01*
X92514714Y-132655884D01*
X92514711Y-132655885D01*
X92484383Y-132673396D01*
X92480980Y-132675244D01*
X92441412Y-132695405D01*
X92362905Y-132773912D01*
X92342744Y-132813480D01*
X92340896Y-132816883D01*
X92323385Y-132847211D01*
X92323384Y-132847214D01*
X92322985Y-132848705D01*
X92317448Y-132863125D01*
X92312500Y-132872836D01*
X92312498Y-132872842D01*
X92311276Y-132880558D01*
X92290514Y-132921302D01*
X92119531Y-133092286D01*
X92119527Y-133092291D01*
X92112975Y-133103642D01*
X92112974Y-133103644D01*
X92073386Y-133172210D01*
X92073384Y-133172215D01*
X92049500Y-133261353D01*
X81500500Y-133261353D01*
X81500500Y-132665001D01*
X86045131Y-132665001D01*
X86062499Y-132774661D01*
X86104046Y-132856201D01*
X86112905Y-132873588D01*
X86191413Y-132952096D01*
X86290339Y-133002501D01*
X86400000Y-133019870D01*
X86509661Y-133002501D01*
X86608587Y-132952096D01*
X86687095Y-132873588D01*
X86737500Y-132774662D01*
X86754869Y-132665001D01*
X86737500Y-132555340D01*
X86687095Y-132456414D01*
X86608587Y-132377906D01*
X86597559Y-132372287D01*
X86509660Y-132327500D01*
X86400000Y-132310132D01*
X86290339Y-132327500D01*
X86191412Y-132377906D01*
X86112905Y-132456413D01*
X86062499Y-132555340D01*
X86045131Y-132665001D01*
X81500500Y-132665001D01*
X81500500Y-131982499D01*
X92295131Y-131982499D01*
X92295131Y-131982500D01*
X92297881Y-131999868D01*
X92312499Y-132092160D01*
X92312500Y-132092161D01*
X92362905Y-132191087D01*
X92441413Y-132269595D01*
X92540339Y-132320000D01*
X92650000Y-132337369D01*
X92759661Y-132320000D01*
X92858587Y-132269595D01*
X92937095Y-132191087D01*
X92987500Y-132092161D01*
X93004869Y-131982500D01*
X93004868Y-131982496D01*
X92987500Y-131872839D01*
X92937094Y-131773912D01*
X92858587Y-131695405D01*
X92759660Y-131644999D01*
X92650000Y-131627631D01*
X92540339Y-131644999D01*
X92441412Y-131695405D01*
X92362905Y-131773912D01*
X92312499Y-131872839D01*
X92295131Y-131982499D01*
X81500500Y-131982499D01*
X81500500Y-131300000D01*
X82795131Y-131300000D01*
X82812499Y-131409660D01*
X82862905Y-131508587D01*
X82941413Y-131587095D01*
X83040339Y-131637500D01*
X83150000Y-131654869D01*
X83259661Y-131637500D01*
X83358587Y-131587095D01*
X83437095Y-131508587D01*
X83487500Y-131409661D01*
X83497289Y-131347851D01*
X83526881Y-131299562D01*
X83581954Y-131286340D01*
X83603974Y-131293495D01*
X83690338Y-131337500D01*
X83705332Y-131339874D01*
X83800000Y-131354869D01*
X83909661Y-131337500D01*
X84008587Y-131287095D01*
X84087095Y-131208587D01*
X84123315Y-131137500D01*
X86407631Y-131137500D01*
X86424999Y-131247160D01*
X86461906Y-131319594D01*
X86475405Y-131346087D01*
X86553913Y-131424595D01*
X86652839Y-131475000D01*
X86762500Y-131492369D01*
X86872161Y-131475000D01*
X86971087Y-131424595D01*
X87049595Y-131346087D01*
X87100000Y-131247161D01*
X87117369Y-131137500D01*
X87100738Y-131032500D01*
X92295131Y-131032500D01*
X92312499Y-131142160D01*
X92362905Y-131241087D01*
X92441413Y-131319595D01*
X92540339Y-131370000D01*
X92650000Y-131387369D01*
X92759661Y-131370000D01*
X92858587Y-131319595D01*
X92937095Y-131241087D01*
X92987500Y-131142161D01*
X93004869Y-131032500D01*
X92987500Y-130922839D01*
X92937095Y-130823913D01*
X92858587Y-130745405D01*
X92846662Y-130739329D01*
X92759660Y-130694999D01*
X92650000Y-130677631D01*
X92540339Y-130694999D01*
X92441412Y-130745405D01*
X92362905Y-130823912D01*
X92312499Y-130922839D01*
X92295131Y-131032500D01*
X87100738Y-131032500D01*
X87100000Y-131027839D01*
X87049595Y-130928913D01*
X86971087Y-130850405D01*
X86941544Y-130835352D01*
X86872160Y-130799999D01*
X86762500Y-130782631D01*
X86652839Y-130799999D01*
X86553912Y-130850405D01*
X86475405Y-130928912D01*
X86424999Y-131027839D01*
X86407631Y-131137500D01*
X84123315Y-131137500D01*
X84137500Y-131109661D01*
X84154869Y-131000000D01*
X84137500Y-130890339D01*
X84087095Y-130791413D01*
X84008587Y-130712905D01*
X84002473Y-130709790D01*
X83909660Y-130662499D01*
X83800000Y-130645131D01*
X83690339Y-130662499D01*
X83591412Y-130712905D01*
X83512905Y-130791412D01*
X83462499Y-130890338D01*
X83452710Y-130952147D01*
X83423117Y-131000438D01*
X83368044Y-131013659D01*
X83346026Y-131006505D01*
X83259660Y-130962499D01*
X83150000Y-130945131D01*
X83040339Y-130962499D01*
X82941412Y-131012905D01*
X82862905Y-131091412D01*
X82812499Y-131190339D01*
X82795131Y-131300000D01*
X81500500Y-131300000D01*
X81500500Y-129600000D01*
X83845131Y-129600000D01*
X83862499Y-129709660D01*
X83862500Y-129709661D01*
X83912905Y-129808587D01*
X83991413Y-129887095D01*
X84090339Y-129937500D01*
X84200000Y-129954869D01*
X84309661Y-129937500D01*
X84408587Y-129887095D01*
X84487095Y-129808587D01*
X84537500Y-129709661D01*
X84554869Y-129600000D01*
X84540218Y-129507500D01*
X90945131Y-129507500D01*
X90962499Y-129617160D01*
X90962500Y-129617161D01*
X91012905Y-129716087D01*
X91091413Y-129794595D01*
X91190339Y-129845000D01*
X91300000Y-129862369D01*
X91409661Y-129845000D01*
X91508587Y-129794595D01*
X91587095Y-129716087D01*
X91637500Y-129617161D01*
X91654869Y-129507500D01*
X91637500Y-129397839D01*
X91587095Y-129298913D01*
X91508587Y-129220405D01*
X91502218Y-129217160D01*
X91409660Y-129169999D01*
X91300000Y-129152631D01*
X91190339Y-129169999D01*
X91091412Y-129220405D01*
X91012905Y-129298912D01*
X90962499Y-129397839D01*
X90945131Y-129507500D01*
X84540218Y-129507500D01*
X84537500Y-129490339D01*
X84487095Y-129391413D01*
X84408587Y-129312905D01*
X84381124Y-129298912D01*
X84309660Y-129262499D01*
X84200000Y-129245131D01*
X84090339Y-129262499D01*
X83991412Y-129312905D01*
X83912905Y-129391412D01*
X83862499Y-129490339D01*
X83845131Y-129600000D01*
X81500500Y-129600000D01*
X81500500Y-129050000D01*
X82645131Y-129050000D01*
X82662499Y-129159660D01*
X82693450Y-129220405D01*
X82712905Y-129258587D01*
X82791413Y-129337095D01*
X82890339Y-129387500D01*
X83000000Y-129404869D01*
X83109661Y-129387500D01*
X83208587Y-129337095D01*
X83287095Y-129258587D01*
X83337500Y-129159661D01*
X83345762Y-129107500D01*
X87145131Y-129107500D01*
X87162499Y-129217160D01*
X87185601Y-129262500D01*
X87212905Y-129316087D01*
X87291413Y-129394595D01*
X87390339Y-129445000D01*
X87500000Y-129462369D01*
X87609661Y-129445000D01*
X87708587Y-129394595D01*
X87787095Y-129316087D01*
X87837500Y-129217161D01*
X87854869Y-129107500D01*
X88645131Y-129107500D01*
X88662499Y-129217160D01*
X88685601Y-129262500D01*
X88712905Y-129316087D01*
X88791413Y-129394595D01*
X88890339Y-129445000D01*
X89000000Y-129462369D01*
X89109661Y-129445000D01*
X89208587Y-129394595D01*
X89287095Y-129316087D01*
X89337500Y-129217161D01*
X89354869Y-129107500D01*
X89343552Y-129036050D01*
X89356773Y-128980979D01*
X89405064Y-128951386D01*
X89460137Y-128964607D01*
X89468967Y-128972149D01*
X89491413Y-128994595D01*
X89590339Y-129045000D01*
X89700000Y-129062369D01*
X89809661Y-129045000D01*
X89908587Y-128994595D01*
X89987095Y-128916087D01*
X90037500Y-128817161D01*
X90054869Y-128707500D01*
X90039030Y-128607500D01*
X90945131Y-128607500D01*
X90962499Y-128717160D01*
X90993982Y-128778948D01*
X91012905Y-128816087D01*
X91091413Y-128894595D01*
X91190339Y-128945000D01*
X91300000Y-128962369D01*
X91409661Y-128945000D01*
X91508587Y-128894595D01*
X91587095Y-128816087D01*
X91637500Y-128717161D01*
X91654869Y-128607500D01*
X91637500Y-128497839D01*
X91587095Y-128398913D01*
X91508587Y-128320405D01*
X91409660Y-128269999D01*
X91300000Y-128252631D01*
X91190339Y-128269999D01*
X91091412Y-128320405D01*
X91012905Y-128398912D01*
X90962499Y-128497839D01*
X90945131Y-128607500D01*
X90039030Y-128607500D01*
X90037500Y-128597839D01*
X89987095Y-128498913D01*
X89908587Y-128420405D01*
X89882060Y-128406889D01*
X89809660Y-128369999D01*
X89700000Y-128352631D01*
X89590339Y-128369999D01*
X89491412Y-128420405D01*
X89412905Y-128498912D01*
X89362499Y-128597839D01*
X89345131Y-128707500D01*
X89356447Y-128778948D01*
X89343225Y-128834020D01*
X89294934Y-128863613D01*
X89239862Y-128850391D01*
X89231032Y-128842850D01*
X89208587Y-128820405D01*
X89109660Y-128769999D01*
X89000000Y-128752631D01*
X88890339Y-128769999D01*
X88791412Y-128820405D01*
X88712905Y-128898912D01*
X88662499Y-128997839D01*
X88645131Y-129107500D01*
X87854869Y-129107500D01*
X87837500Y-128997839D01*
X87787095Y-128898913D01*
X87708587Y-128820405D01*
X87627223Y-128778948D01*
X87609660Y-128769999D01*
X87500000Y-128752631D01*
X87390339Y-128769999D01*
X87291412Y-128820405D01*
X87212905Y-128898912D01*
X87162499Y-128997839D01*
X87145131Y-129107500D01*
X83345762Y-129107500D01*
X83354869Y-129050000D01*
X83337500Y-128940339D01*
X83287095Y-128841413D01*
X83208587Y-128762905D01*
X83188423Y-128752631D01*
X83109660Y-128712499D01*
X83000000Y-128695131D01*
X82890339Y-128712499D01*
X82791412Y-128762905D01*
X82712905Y-128841412D01*
X82662499Y-128940339D01*
X82645131Y-129050000D01*
X81500500Y-129050000D01*
X81500500Y-128050000D01*
X82895131Y-128050000D01*
X82912499Y-128159660D01*
X82956434Y-128245887D01*
X82962905Y-128258587D01*
X83041413Y-128337095D01*
X83140339Y-128387500D01*
X83250000Y-128404869D01*
X83359661Y-128387500D01*
X83458587Y-128337095D01*
X83537095Y-128258587D01*
X83587500Y-128159661D01*
X83604869Y-128050000D01*
X83587500Y-127940339D01*
X83537095Y-127841413D01*
X83458587Y-127762905D01*
X83359660Y-127712499D01*
X83250000Y-127695131D01*
X83140339Y-127712499D01*
X83041412Y-127762905D01*
X82962905Y-127841412D01*
X82912499Y-127940339D01*
X82895131Y-128050000D01*
X81500500Y-128050000D01*
X81500500Y-127200000D01*
X86095131Y-127200000D01*
X86112499Y-127309660D01*
X86148339Y-127379999D01*
X86162905Y-127408587D01*
X86241413Y-127487095D01*
X86340339Y-127537500D01*
X86450000Y-127554869D01*
X86559661Y-127537500D01*
X86658587Y-127487095D01*
X86737095Y-127408587D01*
X86787500Y-127309661D01*
X86804869Y-127200000D01*
X86804374Y-127196876D01*
X86804869Y-127194814D01*
X86804869Y-127194176D01*
X86805022Y-127194176D01*
X86817592Y-127141803D01*
X86865881Y-127112208D01*
X86920955Y-127125426D01*
X86929788Y-127132970D01*
X86991413Y-127194595D01*
X87090339Y-127245000D01*
X87200000Y-127262369D01*
X87309661Y-127245000D01*
X87408587Y-127194595D01*
X87452850Y-127150332D01*
X87505175Y-127128657D01*
X87557501Y-127150331D01*
X87571110Y-127169061D01*
X87612904Y-127251085D01*
X87612905Y-127251086D01*
X87691413Y-127329594D01*
X87790339Y-127379999D01*
X87900000Y-127397368D01*
X88009661Y-127379999D01*
X88108587Y-127329594D01*
X88187095Y-127251086D01*
X88237500Y-127152160D01*
X88254869Y-127042499D01*
X88249326Y-127007500D01*
X88710132Y-127007500D01*
X88727500Y-127117160D01*
X88755553Y-127172216D01*
X88777906Y-127216087D01*
X88856414Y-127294595D01*
X88955340Y-127345000D01*
X89065001Y-127362369D01*
X89095742Y-127357500D01*
X95095131Y-127357500D01*
X95112499Y-127467160D01*
X95137429Y-127516087D01*
X95162905Y-127566087D01*
X95241413Y-127644595D01*
X95340339Y-127695000D01*
X95450000Y-127712369D01*
X95559661Y-127695000D01*
X95658587Y-127644595D01*
X95737095Y-127566087D01*
X95779684Y-127482500D01*
X98345131Y-127482500D01*
X98362499Y-127592160D01*
X98362500Y-127592161D01*
X98412905Y-127691087D01*
X98491413Y-127769595D01*
X98590339Y-127820000D01*
X98700000Y-127837369D01*
X98809661Y-127820000D01*
X98908587Y-127769595D01*
X98987095Y-127691087D01*
X99037500Y-127592161D01*
X99054869Y-127482500D01*
X99037500Y-127372839D01*
X98987095Y-127273913D01*
X98908587Y-127195405D01*
X98880708Y-127181200D01*
X98809660Y-127144999D01*
X98700000Y-127127631D01*
X98590339Y-127144999D01*
X98491412Y-127195405D01*
X98412905Y-127273912D01*
X98362499Y-127372839D01*
X98345131Y-127482500D01*
X95779684Y-127482500D01*
X95787500Y-127467161D01*
X95804869Y-127357500D01*
X95787500Y-127247839D01*
X95737095Y-127148913D01*
X95658587Y-127070405D01*
X95640827Y-127061356D01*
X95559660Y-127019999D01*
X95450000Y-127002631D01*
X95340339Y-127019999D01*
X95241412Y-127070405D01*
X95162905Y-127148912D01*
X95112499Y-127247839D01*
X95095131Y-127357500D01*
X89095742Y-127357500D01*
X89174662Y-127345000D01*
X89273588Y-127294595D01*
X89352096Y-127216087D01*
X89402501Y-127117161D01*
X89419870Y-127007500D01*
X89411951Y-126957500D01*
X90795131Y-126957500D01*
X90812499Y-127067160D01*
X90862905Y-127166087D01*
X90941413Y-127244595D01*
X91040339Y-127295000D01*
X91150000Y-127312369D01*
X91259661Y-127295000D01*
X91358587Y-127244595D01*
X91437095Y-127166087D01*
X91487500Y-127067161D01*
X91504869Y-126957500D01*
X91487500Y-126847839D01*
X91437095Y-126748913D01*
X91358587Y-126670405D01*
X91357790Y-126669999D01*
X91259660Y-126619999D01*
X91150000Y-126602631D01*
X91040339Y-126619999D01*
X90941412Y-126670405D01*
X90862905Y-126748912D01*
X90812499Y-126847839D01*
X90795131Y-126957500D01*
X89411951Y-126957500D01*
X89402501Y-126897839D01*
X89352096Y-126798913D01*
X89273588Y-126720405D01*
X89243350Y-126704998D01*
X89174661Y-126669999D01*
X89065001Y-126652631D01*
X88955340Y-126669999D01*
X88856413Y-126720405D01*
X88777906Y-126798912D01*
X88727500Y-126897839D01*
X88710132Y-127007500D01*
X88249326Y-127007500D01*
X88237500Y-126932838D01*
X88187095Y-126833912D01*
X88108587Y-126755404D01*
X88095846Y-126748912D01*
X88009660Y-126704998D01*
X87900000Y-126687630D01*
X87790339Y-126704998D01*
X87691410Y-126755405D01*
X87647148Y-126799667D01*
X87594822Y-126821341D01*
X87542497Y-126799666D01*
X87528889Y-126780936D01*
X87487096Y-126698915D01*
X87487096Y-126698914D01*
X87408587Y-126620405D01*
X87309660Y-126569999D01*
X87200000Y-126552631D01*
X87090339Y-126569999D01*
X86991412Y-126620405D01*
X86912905Y-126698912D01*
X86862499Y-126797839D01*
X86845131Y-126907500D01*
X86845131Y-126907503D01*
X86845626Y-126910629D01*
X86845131Y-126912690D01*
X86845131Y-126913324D01*
X86844979Y-126913324D01*
X86832403Y-126965701D01*
X86784111Y-126995292D01*
X86729039Y-126982069D01*
X86720211Y-126974529D01*
X86658587Y-126912905D01*
X86559660Y-126862499D01*
X86450000Y-126845131D01*
X86340339Y-126862499D01*
X86241412Y-126912905D01*
X86162905Y-126991412D01*
X86112499Y-127090339D01*
X86095131Y-127200000D01*
X81500500Y-127200000D01*
X81500500Y-126285000D01*
X84695131Y-126285000D01*
X84712499Y-126394660D01*
X84723964Y-126417161D01*
X84762905Y-126493587D01*
X84841413Y-126572095D01*
X84940339Y-126622500D01*
X85050000Y-126639869D01*
X85159661Y-126622500D01*
X85258587Y-126572095D01*
X85337095Y-126493587D01*
X85387500Y-126394661D01*
X85404869Y-126285000D01*
X85387500Y-126175339D01*
X85337095Y-126076413D01*
X85258587Y-125997905D01*
X85210560Y-125973434D01*
X85159660Y-125947499D01*
X85050000Y-125930131D01*
X84940339Y-125947499D01*
X84841412Y-125997905D01*
X84762905Y-126076412D01*
X84712499Y-126175339D01*
X84695131Y-126285000D01*
X81500500Y-126285000D01*
X81500500Y-125400000D01*
X84695131Y-125400000D01*
X84712499Y-125509660D01*
X84712500Y-125509661D01*
X84762905Y-125608587D01*
X84841413Y-125687095D01*
X84940339Y-125737500D01*
X85050000Y-125754869D01*
X85159661Y-125737500D01*
X85258587Y-125687095D01*
X85337095Y-125608587D01*
X85387500Y-125509661D01*
X85387842Y-125507500D01*
X89945131Y-125507500D01*
X89962499Y-125617160D01*
X90012905Y-125716087D01*
X90091414Y-125794596D01*
X90183597Y-125841566D01*
X90220380Y-125884633D01*
X90215936Y-125941095D01*
X90183597Y-125973434D01*
X90091414Y-126020403D01*
X90012905Y-126098912D01*
X89962499Y-126197839D01*
X89945131Y-126307500D01*
X89962499Y-126417160D01*
X89962500Y-126417161D01*
X90012905Y-126516087D01*
X90091413Y-126594595D01*
X90190339Y-126645000D01*
X90300000Y-126662369D01*
X90409661Y-126645000D01*
X90508587Y-126594595D01*
X90587095Y-126516087D01*
X90637500Y-126417161D01*
X90654869Y-126307500D01*
X90637500Y-126197839D01*
X90587095Y-126098913D01*
X90508587Y-126020405D01*
X90416401Y-125973434D01*
X90379619Y-125930368D01*
X90384062Y-125873905D01*
X90416401Y-125841565D01*
X90508587Y-125794595D01*
X90587095Y-125716087D01*
X90637500Y-125617161D01*
X90654869Y-125507500D01*
X90637500Y-125397839D01*
X90587095Y-125298913D01*
X90508587Y-125220405D01*
X90451685Y-125191412D01*
X90409660Y-125169999D01*
X90300000Y-125152631D01*
X90190339Y-125169999D01*
X90091412Y-125220405D01*
X90012905Y-125298912D01*
X89962499Y-125397839D01*
X89945131Y-125507500D01*
X85387842Y-125507500D01*
X85404869Y-125400000D01*
X85387500Y-125290339D01*
X85337095Y-125191413D01*
X85258587Y-125112905D01*
X85159660Y-125062499D01*
X85050000Y-125045131D01*
X84940339Y-125062499D01*
X84841412Y-125112905D01*
X84762905Y-125191412D01*
X84712499Y-125290339D01*
X84695131Y-125400000D01*
X81500500Y-125400000D01*
X81500500Y-124600000D01*
X82995131Y-124600000D01*
X83012499Y-124709660D01*
X83012500Y-124709661D01*
X83062905Y-124808587D01*
X83141413Y-124887095D01*
X83240339Y-124937500D01*
X83350000Y-124954869D01*
X83459661Y-124937500D01*
X83558587Y-124887095D01*
X83637095Y-124808587D01*
X83687500Y-124709661D01*
X83704869Y-124600000D01*
X83687500Y-124490339D01*
X83637095Y-124391413D01*
X83558587Y-124312905D01*
X83547979Y-124307500D01*
X91245131Y-124307500D01*
X91262499Y-124417160D01*
X91262500Y-124417161D01*
X91312905Y-124516087D01*
X91391413Y-124594595D01*
X91490339Y-124645000D01*
X91600000Y-124662369D01*
X91709661Y-124645000D01*
X91808587Y-124594595D01*
X91887095Y-124516087D01*
X91937500Y-124417161D01*
X91954869Y-124307500D01*
X91937500Y-124197839D01*
X91887095Y-124098913D01*
X91808587Y-124020405D01*
X91709660Y-123969999D01*
X91600000Y-123952631D01*
X91490339Y-123969999D01*
X91391412Y-124020405D01*
X91312905Y-124098912D01*
X91262499Y-124197839D01*
X91245131Y-124307500D01*
X83547979Y-124307500D01*
X83459660Y-124262499D01*
X83350000Y-124245131D01*
X83240339Y-124262499D01*
X83141412Y-124312905D01*
X83062905Y-124391412D01*
X83012499Y-124490339D01*
X82995131Y-124600000D01*
X81500500Y-124600000D01*
X81500500Y-123267500D01*
X83465131Y-123267500D01*
X83482499Y-123377160D01*
X83482500Y-123377161D01*
X83532905Y-123476087D01*
X83611413Y-123554595D01*
X83710339Y-123605000D01*
X83820000Y-123622369D01*
X83929661Y-123605000D01*
X84028587Y-123554595D01*
X84107095Y-123476087D01*
X84157500Y-123377161D01*
X84174869Y-123267500D01*
X84157500Y-123157839D01*
X84107095Y-123058913D01*
X84028587Y-122980405D01*
X84028585Y-122980403D01*
X83957874Y-122944374D01*
X83921091Y-122901307D01*
X83925535Y-122844845D01*
X83968602Y-122808062D01*
X83994176Y-122806050D01*
X83994176Y-122804869D01*
X84000000Y-122804869D01*
X84109661Y-122787500D01*
X84208587Y-122737095D01*
X84287095Y-122658587D01*
X84337500Y-122559661D01*
X84354869Y-122450000D01*
X84337842Y-122342499D01*
X97145131Y-122342499D01*
X97162499Y-122452159D01*
X97162500Y-122452160D01*
X97212905Y-122551086D01*
X97291413Y-122629594D01*
X97390339Y-122679999D01*
X97500000Y-122697368D01*
X97609661Y-122679999D01*
X97708587Y-122629594D01*
X97787095Y-122551086D01*
X97837500Y-122452160D01*
X97854869Y-122342499D01*
X97837500Y-122232838D01*
X97787095Y-122133912D01*
X97708587Y-122055404D01*
X97609660Y-122004998D01*
X97500000Y-121987630D01*
X97390339Y-122004998D01*
X97291412Y-122055404D01*
X97212905Y-122133911D01*
X97162499Y-122232838D01*
X97145131Y-122342499D01*
X84337842Y-122342499D01*
X84337500Y-122340339D01*
X84287095Y-122241413D01*
X84208587Y-122162905D01*
X84151683Y-122133911D01*
X84109660Y-122112499D01*
X84000000Y-122095131D01*
X83890339Y-122112499D01*
X83791412Y-122162905D01*
X83712905Y-122241412D01*
X83662499Y-122340339D01*
X83645131Y-122450000D01*
X83662499Y-122559660D01*
X83662500Y-122559661D01*
X83712905Y-122658587D01*
X83791413Y-122737095D01*
X83862125Y-122773124D01*
X83898908Y-122816191D01*
X83894465Y-122872654D01*
X83851398Y-122909437D01*
X83825824Y-122911452D01*
X83825824Y-122912631D01*
X83820000Y-122912631D01*
X83710339Y-122929999D01*
X83611412Y-122980405D01*
X83532905Y-123058912D01*
X83482499Y-123157839D01*
X83465131Y-123267500D01*
X81500500Y-123267500D01*
X81500500Y-121665001D01*
X82995131Y-121665001D01*
X83012499Y-121774661D01*
X83012500Y-121774662D01*
X83062905Y-121873588D01*
X83141413Y-121952096D01*
X83240339Y-122002501D01*
X83350000Y-122019870D01*
X83459661Y-122002501D01*
X83558587Y-121952096D01*
X83637095Y-121873588D01*
X83687500Y-121774662D01*
X83704869Y-121665001D01*
X83687500Y-121555340D01*
X83637095Y-121456414D01*
X83558587Y-121377906D01*
X83529018Y-121362840D01*
X83459660Y-121327500D01*
X83350000Y-121310132D01*
X83240339Y-121327500D01*
X83141412Y-121377906D01*
X83062905Y-121456413D01*
X83012499Y-121555340D01*
X82995131Y-121665001D01*
X81500500Y-121665001D01*
X81500500Y-120284999D01*
X82945131Y-120284999D01*
X82962499Y-120394659D01*
X83012905Y-120493586D01*
X83091413Y-120572094D01*
X83190339Y-120622499D01*
X83300000Y-120639868D01*
X83409661Y-120622499D01*
X83508587Y-120572094D01*
X83587095Y-120493586D01*
X83637500Y-120394660D01*
X83651305Y-120307500D01*
X90245131Y-120307500D01*
X90262499Y-120417160D01*
X90262500Y-120417161D01*
X90312905Y-120516087D01*
X90391413Y-120594595D01*
X90490339Y-120645000D01*
X90600000Y-120662369D01*
X90709661Y-120645000D01*
X90808587Y-120594595D01*
X90887095Y-120516087D01*
X90937500Y-120417161D01*
X90951222Y-120330523D01*
X90971983Y-120289776D01*
X91189587Y-120072174D01*
X91241913Y-120050500D01*
X95693086Y-120050500D01*
X95745412Y-120072174D01*
X97128015Y-121454776D01*
X97148778Y-121495526D01*
X97162499Y-121582161D01*
X97162500Y-121582162D01*
X97212905Y-121681088D01*
X97291413Y-121759596D01*
X97390339Y-121810001D01*
X97500000Y-121827370D01*
X97609661Y-121810001D01*
X97708587Y-121759596D01*
X97787095Y-121681088D01*
X97837500Y-121582162D01*
X97854869Y-121472501D01*
X97837500Y-121362840D01*
X97787095Y-121263914D01*
X97708587Y-121185406D01*
X97609660Y-121135000D01*
X97533316Y-121122909D01*
X97523024Y-121121278D01*
X97482275Y-121100516D01*
X95969396Y-119587636D01*
X95969393Y-119587634D01*
X95877327Y-119549500D01*
X91157327Y-119549500D01*
X91057672Y-119549500D01*
X90965605Y-119587634D01*
X90965601Y-119587637D01*
X90617722Y-119935515D01*
X90576973Y-119956278D01*
X90490338Y-119969999D01*
X90391412Y-120020405D01*
X90312905Y-120098912D01*
X90262499Y-120197839D01*
X90245131Y-120307500D01*
X83651305Y-120307500D01*
X83654869Y-120284999D01*
X83637500Y-120175338D01*
X83587095Y-120076412D01*
X83508587Y-119997904D01*
X83409660Y-119947498D01*
X83300000Y-119930130D01*
X83190339Y-119947498D01*
X83091412Y-119997904D01*
X83012905Y-120076411D01*
X82962499Y-120175338D01*
X82945131Y-120284999D01*
X81500500Y-120284999D01*
X81500500Y-117054162D01*
X81522174Y-117001836D01*
X81574500Y-116980162D01*
X81608093Y-116988227D01*
X81640339Y-117004657D01*
X81750000Y-117022026D01*
X81859661Y-117004657D01*
X81877201Y-116995720D01*
X81933663Y-116991275D01*
X81976731Y-117028058D01*
X81981176Y-117084520D01*
X81976732Y-117095249D01*
X81962499Y-117123182D01*
X81945131Y-117232843D01*
X81962499Y-117342503D01*
X82002192Y-117420405D01*
X82012905Y-117441430D01*
X82091413Y-117519938D01*
X82190339Y-117570343D01*
X82300000Y-117587712D01*
X82409661Y-117570343D01*
X82508587Y-117519938D01*
X82587095Y-117441430D01*
X82637500Y-117342504D01*
X82654869Y-117232843D01*
X82642177Y-117152713D01*
X82655398Y-117097644D01*
X82703689Y-117068050D01*
X82748861Y-117075204D01*
X82840339Y-117121814D01*
X82950000Y-117139183D01*
X83059661Y-117121814D01*
X83098387Y-117102081D01*
X83154849Y-117097638D01*
X83197917Y-117134420D01*
X83202361Y-117190882D01*
X83197918Y-117201610D01*
X83178186Y-117240337D01*
X83160817Y-117350000D01*
X83178185Y-117459660D01*
X83226556Y-117554594D01*
X83228591Y-117558587D01*
X83307099Y-117637095D01*
X83344234Y-117656016D01*
X83406025Y-117687500D01*
X83467665Y-117697263D01*
X83515956Y-117726856D01*
X83529178Y-117781928D01*
X83508415Y-117822678D01*
X83172265Y-118158829D01*
X83108831Y-118222263D01*
X83108830Y-118222265D01*
X83074499Y-118305144D01*
X83074499Y-118403466D01*
X83074500Y-118403475D01*
X83074500Y-119114167D01*
X83052826Y-119166493D01*
X83012905Y-119206413D01*
X82962499Y-119305340D01*
X82945131Y-119415001D01*
X82962499Y-119524661D01*
X82994587Y-119587637D01*
X83012905Y-119623588D01*
X83091413Y-119702096D01*
X83190339Y-119752501D01*
X83300000Y-119769870D01*
X83409661Y-119752501D01*
X83508587Y-119702096D01*
X83587095Y-119623588D01*
X83637500Y-119524662D01*
X83653681Y-119422501D01*
X97195131Y-119422501D01*
X97212499Y-119532161D01*
X97212500Y-119532162D01*
X97262905Y-119631088D01*
X97341413Y-119709596D01*
X97440339Y-119760001D01*
X97550000Y-119777370D01*
X97659661Y-119760001D01*
X97758587Y-119709596D01*
X97837095Y-119631088D01*
X97887500Y-119532162D01*
X97904869Y-119422501D01*
X97887500Y-119312840D01*
X97837095Y-119213914D01*
X97758587Y-119135406D01*
X97716903Y-119114167D01*
X97659660Y-119085000D01*
X97550000Y-119067632D01*
X97440339Y-119085000D01*
X97341412Y-119135406D01*
X97262905Y-119213913D01*
X97212499Y-119312840D01*
X97195131Y-119422501D01*
X83653681Y-119422501D01*
X83654869Y-119415001D01*
X83637500Y-119305340D01*
X83587095Y-119206414D01*
X83547174Y-119166493D01*
X83525500Y-119114167D01*
X83525500Y-118557500D01*
X97780130Y-118557500D01*
X97797498Y-118667160D01*
X97835574Y-118741888D01*
X97847904Y-118766087D01*
X97926412Y-118844595D01*
X98025338Y-118895000D01*
X98134999Y-118912369D01*
X98244660Y-118895000D01*
X98343586Y-118844595D01*
X98422094Y-118766087D01*
X98472499Y-118667161D01*
X98489868Y-118557500D01*
X98472499Y-118447839D01*
X98422094Y-118348913D01*
X98343586Y-118270405D01*
X98297965Y-118247160D01*
X98244659Y-118219999D01*
X98134999Y-118202631D01*
X98025338Y-118219999D01*
X97926411Y-118270405D01*
X97847904Y-118348912D01*
X97797498Y-118447839D01*
X97780130Y-118557500D01*
X83525500Y-118557500D01*
X83525500Y-118474056D01*
X83547173Y-118421731D01*
X83826887Y-118142017D01*
X83879211Y-118120344D01*
X83931537Y-118142018D01*
X83952300Y-118182767D01*
X83962499Y-118247160D01*
X83992044Y-118305145D01*
X84012905Y-118346087D01*
X84091413Y-118424595D01*
X84190339Y-118475000D01*
X84300000Y-118492369D01*
X84409661Y-118475000D01*
X84508587Y-118424595D01*
X84587095Y-118346087D01*
X84637500Y-118247161D01*
X84654869Y-118137500D01*
X84650117Y-118107500D01*
X85045131Y-118107500D01*
X85062499Y-118217160D01*
X85089629Y-118270405D01*
X85112905Y-118316087D01*
X85191413Y-118394595D01*
X85290339Y-118445000D01*
X85400000Y-118462369D01*
X85509661Y-118445000D01*
X85608587Y-118394595D01*
X85687095Y-118316087D01*
X85737500Y-118217161D01*
X85754869Y-118107500D01*
X85737500Y-117997839D01*
X85687095Y-117898913D01*
X85608587Y-117820405D01*
X85568538Y-117799999D01*
X85509660Y-117769999D01*
X85450244Y-117760589D01*
X85401953Y-117730996D01*
X85399068Y-117718983D01*
X85381675Y-117747367D01*
X85349755Y-117760589D01*
X85290339Y-117769999D01*
X85191412Y-117820405D01*
X85112905Y-117898912D01*
X85062499Y-117997839D01*
X85045131Y-118107500D01*
X84650117Y-118107500D01*
X84637500Y-118027839D01*
X84587095Y-117928913D01*
X84508587Y-117850405D01*
X84409660Y-117799999D01*
X84345267Y-117789800D01*
X84296976Y-117760206D01*
X84283755Y-117705134D01*
X84304516Y-117664387D01*
X84338293Y-117630610D01*
X84379040Y-117609849D01*
X84409661Y-117605000D01*
X84508587Y-117554595D01*
X84587095Y-117476087D01*
X84637500Y-117377161D01*
X84654869Y-117267500D01*
X85045131Y-117267500D01*
X85062499Y-117377160D01*
X85072863Y-117397500D01*
X85112905Y-117476087D01*
X85191413Y-117554595D01*
X85276285Y-117597839D01*
X85290339Y-117605000D01*
X85349755Y-117614411D01*
X85398046Y-117644004D01*
X85400930Y-117656016D01*
X85418324Y-117627633D01*
X85450244Y-117614411D01*
X85479046Y-117609849D01*
X85509661Y-117605000D01*
X85608587Y-117554595D01*
X85687095Y-117476087D01*
X85737500Y-117377161D01*
X85754077Y-117272500D01*
X86145131Y-117272500D01*
X86162499Y-117382160D01*
X86181986Y-117420405D01*
X86212905Y-117481087D01*
X86291413Y-117559595D01*
X86346596Y-117587712D01*
X86390339Y-117610000D01*
X86433971Y-117616911D01*
X86482262Y-117646504D01*
X86495484Y-117701576D01*
X86465891Y-117749867D01*
X86433971Y-117763089D01*
X86390339Y-117769999D01*
X86291412Y-117820405D01*
X86212905Y-117898912D01*
X86162499Y-117997839D01*
X86145131Y-118107500D01*
X86162499Y-118217160D01*
X86189629Y-118270405D01*
X86212905Y-118316087D01*
X86291413Y-118394595D01*
X86390339Y-118445000D01*
X86500000Y-118462369D01*
X86609661Y-118445000D01*
X86708587Y-118394595D01*
X86787095Y-118316087D01*
X86837500Y-118217161D01*
X86850513Y-118134999D01*
X87295131Y-118134999D01*
X87312499Y-118244659D01*
X87343318Y-118305144D01*
X87362905Y-118343586D01*
X87441413Y-118422094D01*
X87540339Y-118472499D01*
X87650000Y-118489868D01*
X87759661Y-118472499D01*
X87858587Y-118422094D01*
X87937095Y-118343586D01*
X87987500Y-118244660D01*
X88004869Y-118134999D01*
X87999792Y-118102944D01*
X99399999Y-118102944D01*
X101399999Y-118102945D01*
X101400000Y-115902944D01*
X99400001Y-115902944D01*
X99399999Y-118102944D01*
X87999792Y-118102944D01*
X87987500Y-118025338D01*
X87937095Y-117926412D01*
X87858587Y-117847904D01*
X87809078Y-117822678D01*
X87759660Y-117797498D01*
X87650000Y-117780130D01*
X87540339Y-117797498D01*
X87441412Y-117847904D01*
X87362905Y-117926411D01*
X87312499Y-118025338D01*
X87295131Y-118134999D01*
X86850513Y-118134999D01*
X86854869Y-118107500D01*
X86837500Y-117997839D01*
X86787095Y-117898913D01*
X86708587Y-117820405D01*
X86668538Y-117799999D01*
X86609660Y-117769999D01*
X86566028Y-117763089D01*
X86520191Y-117735000D01*
X88495131Y-117735000D01*
X88512499Y-117844660D01*
X88548893Y-117916087D01*
X88562905Y-117943587D01*
X88641413Y-118022095D01*
X88740339Y-118072500D01*
X88850000Y-118089869D01*
X88959661Y-118072500D01*
X89058587Y-118022095D01*
X89137095Y-117943587D01*
X89187500Y-117844661D01*
X89204869Y-117735000D01*
X89200513Y-117707500D01*
X89760132Y-117707500D01*
X89777500Y-117817160D01*
X89819155Y-117898912D01*
X89827906Y-117916087D01*
X89906414Y-117994595D01*
X90005340Y-118045000D01*
X90115001Y-118062369D01*
X90224662Y-118045000D01*
X90323588Y-117994595D01*
X90402096Y-117916087D01*
X90452501Y-117817161D01*
X90469870Y-117707500D01*
X90630130Y-117707500D01*
X90647498Y-117817160D01*
X90689153Y-117898912D01*
X90697904Y-117916087D01*
X90776412Y-117994595D01*
X90875338Y-118045000D01*
X90984999Y-118062369D01*
X91094660Y-118045000D01*
X91193586Y-117994595D01*
X91272094Y-117916087D01*
X91322499Y-117817161D01*
X91339868Y-117707500D01*
X91322499Y-117597839D01*
X91272094Y-117498913D01*
X91193586Y-117420405D01*
X91094659Y-117369999D01*
X90984999Y-117352631D01*
X90875338Y-117369999D01*
X90776411Y-117420405D01*
X90697904Y-117498912D01*
X90647498Y-117597839D01*
X90630130Y-117707500D01*
X90469870Y-117707500D01*
X90452501Y-117597839D01*
X90402096Y-117498913D01*
X90323588Y-117420405D01*
X90224661Y-117369999D01*
X90115001Y-117352631D01*
X90005340Y-117369999D01*
X89906413Y-117420405D01*
X89827906Y-117498912D01*
X89777500Y-117597839D01*
X89760132Y-117707500D01*
X89200513Y-117707500D01*
X89187500Y-117625339D01*
X89137095Y-117526413D01*
X89058587Y-117447905D01*
X89004615Y-117420405D01*
X88959660Y-117397499D01*
X88850000Y-117380131D01*
X88740339Y-117397499D01*
X88641412Y-117447905D01*
X88562905Y-117526412D01*
X88512499Y-117625339D01*
X88495131Y-117735000D01*
X86520191Y-117735000D01*
X86517737Y-117733496D01*
X86504515Y-117678424D01*
X86534108Y-117630133D01*
X86566028Y-117616911D01*
X86581812Y-117614411D01*
X86609661Y-117610000D01*
X86708587Y-117559595D01*
X86787095Y-117481087D01*
X86837500Y-117382161D01*
X86854869Y-117272500D01*
X86837500Y-117162839D01*
X86787095Y-117063913D01*
X86708587Y-116985405D01*
X86687499Y-116974660D01*
X86609660Y-116934999D01*
X86500000Y-116917631D01*
X86390339Y-116934999D01*
X86291412Y-116985405D01*
X86212905Y-117063912D01*
X86162499Y-117162839D01*
X86145131Y-117272500D01*
X85754077Y-117272500D01*
X85754869Y-117267500D01*
X85737500Y-117157839D01*
X85687095Y-117058913D01*
X85608587Y-116980405D01*
X85547159Y-116949106D01*
X85509660Y-116929999D01*
X85400000Y-116912631D01*
X85290339Y-116929999D01*
X85191412Y-116980405D01*
X85112905Y-117058912D01*
X85062499Y-117157839D01*
X85045131Y-117267500D01*
X84654869Y-117267500D01*
X84637500Y-117157839D01*
X84587095Y-117058913D01*
X84508587Y-116980405D01*
X84447159Y-116949106D01*
X84409660Y-116929999D01*
X84300000Y-116912631D01*
X84190339Y-116929999D01*
X84091412Y-116980405D01*
X84012905Y-117058912D01*
X83962498Y-117157841D01*
X83962236Y-117159500D01*
X83961647Y-117160460D01*
X83960700Y-117163376D01*
X83959999Y-117163148D01*
X83932640Y-117207789D01*
X83877567Y-117221007D01*
X83829278Y-117191411D01*
X83823213Y-117181514D01*
X83802781Y-117141413D01*
X83724273Y-117062905D01*
X83707114Y-117054162D01*
X83625346Y-117012499D01*
X83515686Y-116995131D01*
X83406023Y-117012500D01*
X83367296Y-117032232D01*
X83310834Y-117036675D01*
X83267767Y-116999891D01*
X83263324Y-116943429D01*
X83267768Y-116932701D01*
X83277634Y-116913339D01*
X83287500Y-116893975D01*
X83292089Y-116865000D01*
X88495131Y-116865000D01*
X88512499Y-116974660D01*
X88555428Y-117058912D01*
X88562905Y-117073587D01*
X88641413Y-117152095D01*
X88740339Y-117202500D01*
X88850000Y-117219869D01*
X88959661Y-117202500D01*
X89058587Y-117152095D01*
X89137095Y-117073587D01*
X89187500Y-116974661D01*
X89204869Y-116865000D01*
X89187500Y-116755339D01*
X89137095Y-116656413D01*
X89058587Y-116577905D01*
X89018532Y-116557496D01*
X88959660Y-116527499D01*
X88850000Y-116510131D01*
X88740339Y-116527499D01*
X88641412Y-116577905D01*
X88562905Y-116656412D01*
X88512499Y-116755339D01*
X88495131Y-116865000D01*
X83292089Y-116865000D01*
X83304869Y-116784314D01*
X83287500Y-116674653D01*
X83237095Y-116575727D01*
X83158587Y-116497219D01*
X83082732Y-116458569D01*
X83059660Y-116446813D01*
X82950000Y-116429445D01*
X82840339Y-116446813D01*
X82741412Y-116497219D01*
X82662905Y-116575726D01*
X82612499Y-116674653D01*
X82595131Y-116784314D01*
X82607822Y-116864441D01*
X82594600Y-116919513D01*
X82546309Y-116949106D01*
X82501138Y-116941952D01*
X82409660Y-116895342D01*
X82300000Y-116877974D01*
X82190338Y-116895342D01*
X82172795Y-116904281D01*
X82116332Y-116908722D01*
X82073266Y-116871938D01*
X82068825Y-116815475D01*
X82073263Y-116804758D01*
X82087500Y-116776818D01*
X82104869Y-116667157D01*
X82087500Y-116557496D01*
X82037095Y-116458570D01*
X81958587Y-116380062D01*
X81900625Y-116350529D01*
X81859660Y-116329656D01*
X81750000Y-116312288D01*
X81640339Y-116329656D01*
X81608095Y-116346086D01*
X81551633Y-116350529D01*
X81508565Y-116313746D01*
X81500500Y-116280151D01*
X81500500Y-115457500D01*
X84195131Y-115457500D01*
X84212499Y-115567160D01*
X84212500Y-115567161D01*
X84262905Y-115666087D01*
X84341413Y-115744595D01*
X84440339Y-115795000D01*
X84550000Y-115812369D01*
X84659661Y-115795000D01*
X84758587Y-115744595D01*
X84837095Y-115666087D01*
X84887500Y-115567161D01*
X84904869Y-115457500D01*
X84887500Y-115347839D01*
X84837095Y-115248913D01*
X84758587Y-115170405D01*
X84659660Y-115119999D01*
X84550000Y-115102631D01*
X84440339Y-115119999D01*
X84341412Y-115170405D01*
X84262905Y-115248912D01*
X84212499Y-115347839D01*
X84195131Y-115457500D01*
X81500500Y-115457500D01*
X81500500Y-114300000D01*
X83595131Y-114300000D01*
X83612499Y-114409660D01*
X83616321Y-114417161D01*
X83662905Y-114508587D01*
X83741413Y-114587095D01*
X83840339Y-114637500D01*
X83950000Y-114654869D01*
X84059661Y-114637500D01*
X84158587Y-114587095D01*
X84237095Y-114508587D01*
X84287500Y-114409661D01*
X84303681Y-114307500D01*
X84480130Y-114307500D01*
X84497498Y-114417160D01*
X84497499Y-114417161D01*
X84547904Y-114516087D01*
X84626412Y-114594595D01*
X84725338Y-114645000D01*
X84834999Y-114662369D01*
X84944660Y-114645000D01*
X85043586Y-114594595D01*
X85122094Y-114516087D01*
X85172499Y-114417161D01*
X85189868Y-114307500D01*
X85172499Y-114197839D01*
X85122094Y-114098913D01*
X85043586Y-114020405D01*
X85028866Y-114012905D01*
X84944659Y-113969999D01*
X84834999Y-113952631D01*
X84725338Y-113969999D01*
X84626411Y-114020405D01*
X84547904Y-114098912D01*
X84497498Y-114197839D01*
X84480130Y-114307500D01*
X84303681Y-114307500D01*
X84304869Y-114300000D01*
X84287500Y-114190339D01*
X84237095Y-114091413D01*
X84158587Y-114012905D01*
X84074381Y-113970000D01*
X84059660Y-113962499D01*
X83950000Y-113945131D01*
X83840339Y-113962499D01*
X83741412Y-114012905D01*
X83662905Y-114091412D01*
X83612499Y-114190339D01*
X83595131Y-114300000D01*
X81500500Y-114300000D01*
X81500500Y-113307500D01*
X98545131Y-113307500D01*
X98562499Y-113417160D01*
X98615549Y-113521276D01*
X98613400Y-113522370D01*
X98624613Y-113569078D01*
X98614603Y-113593242D01*
X98615549Y-113593724D01*
X98562499Y-113697839D01*
X98545131Y-113807500D01*
X98562499Y-113917160D01*
X98611284Y-114012905D01*
X98612905Y-114016087D01*
X98691413Y-114094595D01*
X98790339Y-114145000D01*
X98900000Y-114162369D01*
X99009661Y-114145000D01*
X99108587Y-114094595D01*
X99187095Y-114016087D01*
X99237500Y-113917161D01*
X99254869Y-113807500D01*
X99237500Y-113697839D01*
X99187095Y-113598913D01*
X99187094Y-113598912D01*
X99184451Y-113593724D01*
X99186603Y-113592627D01*
X99175383Y-113545941D01*
X99185399Y-113521759D01*
X99184451Y-113521276D01*
X99187095Y-113516087D01*
X99237500Y-113417161D01*
X99254869Y-113307500D01*
X99237500Y-113197839D01*
X99187095Y-113098913D01*
X99108587Y-113020405D01*
X99009660Y-112969999D01*
X98900000Y-112952631D01*
X98790339Y-112969999D01*
X98691412Y-113020405D01*
X98612905Y-113098912D01*
X98562499Y-113197839D01*
X98545131Y-113307500D01*
X81500500Y-113307500D01*
X81500500Y-112557500D01*
X83645131Y-112557500D01*
X83662499Y-112667160D01*
X83662500Y-112667161D01*
X83712905Y-112766087D01*
X83791413Y-112844595D01*
X83890339Y-112895000D01*
X84000000Y-112912369D01*
X84109661Y-112895000D01*
X84208587Y-112844595D01*
X84287095Y-112766087D01*
X84337500Y-112667161D01*
X84354869Y-112557500D01*
X84530130Y-112557500D01*
X84547498Y-112667160D01*
X84547499Y-112667161D01*
X84597904Y-112766087D01*
X84676412Y-112844595D01*
X84775338Y-112895000D01*
X84884999Y-112912369D01*
X84994660Y-112895000D01*
X85093586Y-112844595D01*
X85172094Y-112766087D01*
X85222499Y-112667161D01*
X85239868Y-112557500D01*
X85222499Y-112447839D01*
X85172094Y-112348913D01*
X85093586Y-112270405D01*
X84994659Y-112219999D01*
X84884999Y-112202631D01*
X84775338Y-112219999D01*
X84676411Y-112270405D01*
X84597904Y-112348912D01*
X84547498Y-112447839D01*
X84530130Y-112557500D01*
X84354869Y-112557500D01*
X84337500Y-112447839D01*
X84287095Y-112348913D01*
X84208587Y-112270405D01*
X84109660Y-112219999D01*
X84000000Y-112202631D01*
X83890339Y-112219999D01*
X83791412Y-112270405D01*
X83712905Y-112348912D01*
X83662499Y-112447839D01*
X83645131Y-112557500D01*
X81500500Y-112557500D01*
X81500500Y-110907500D01*
X83645131Y-110907500D01*
X83662499Y-111017160D01*
X83662500Y-111017161D01*
X83712905Y-111116087D01*
X83791413Y-111194595D01*
X83890339Y-111245000D01*
X84000000Y-111262369D01*
X84109661Y-111245000D01*
X84208587Y-111194595D01*
X84287095Y-111116087D01*
X84337500Y-111017161D01*
X84354869Y-110907500D01*
X84530130Y-110907500D01*
X84547498Y-111017160D01*
X84547499Y-111017161D01*
X84597904Y-111116087D01*
X84676412Y-111194595D01*
X84775338Y-111245000D01*
X84884999Y-111262369D01*
X84994660Y-111245000D01*
X85093586Y-111194595D01*
X85172094Y-111116087D01*
X85222499Y-111017161D01*
X85239868Y-110907500D01*
X85222499Y-110797839D01*
X85172094Y-110698913D01*
X85093586Y-110620405D01*
X84994659Y-110569999D01*
X84884999Y-110552631D01*
X84775338Y-110569999D01*
X84676411Y-110620405D01*
X84597904Y-110698912D01*
X84547498Y-110797839D01*
X84530130Y-110907500D01*
X84354869Y-110907500D01*
X84337500Y-110797839D01*
X84287095Y-110698913D01*
X84208587Y-110620405D01*
X84109660Y-110569999D01*
X84000000Y-110552631D01*
X83890339Y-110569999D01*
X83791412Y-110620405D01*
X83712905Y-110698912D01*
X83662499Y-110797839D01*
X83645131Y-110907500D01*
X81500500Y-110907500D01*
X81500500Y-109707500D01*
X85060132Y-109707500D01*
X85077500Y-109817160D01*
X85077501Y-109817161D01*
X85127906Y-109916087D01*
X85206414Y-109994595D01*
X85305340Y-110045000D01*
X85415001Y-110062369D01*
X85524662Y-110045000D01*
X85623588Y-109994595D01*
X85702096Y-109916087D01*
X85752501Y-109817161D01*
X85769870Y-109707500D01*
X85752501Y-109597839D01*
X85702096Y-109498913D01*
X85623588Y-109420405D01*
X85524661Y-109369999D01*
X85415001Y-109352631D01*
X85305340Y-109369999D01*
X85206413Y-109420405D01*
X85127906Y-109498912D01*
X85077500Y-109597839D01*
X85060132Y-109707500D01*
X81500500Y-109707500D01*
X81500500Y-108207500D01*
X83660132Y-108207500D01*
X83677500Y-108317160D01*
X83727906Y-108416087D01*
X83806414Y-108494595D01*
X83905340Y-108545000D01*
X84015001Y-108562369D01*
X84124662Y-108545000D01*
X84223588Y-108494595D01*
X84302096Y-108416087D01*
X84331947Y-108357500D01*
X84530130Y-108357500D01*
X84547498Y-108467160D01*
X84561477Y-108494595D01*
X84597904Y-108566087D01*
X84676412Y-108644595D01*
X84775338Y-108695000D01*
X84884999Y-108712369D01*
X84994660Y-108695000D01*
X85093586Y-108644595D01*
X85172094Y-108566087D01*
X85222499Y-108467161D01*
X85239868Y-108357500D01*
X85222499Y-108247839D01*
X85172094Y-108148913D01*
X85093586Y-108070405D01*
X84994659Y-108019999D01*
X84884999Y-108002631D01*
X84775338Y-108019999D01*
X84676411Y-108070405D01*
X84597904Y-108148912D01*
X84547498Y-108247839D01*
X84530130Y-108357500D01*
X84331947Y-108357500D01*
X84352501Y-108317161D01*
X84369870Y-108207500D01*
X84352501Y-108097839D01*
X84302096Y-107998913D01*
X84223588Y-107920405D01*
X84124661Y-107869999D01*
X84015001Y-107852631D01*
X83905340Y-107869999D01*
X83806413Y-107920405D01*
X83727906Y-107998912D01*
X83677500Y-108097839D01*
X83660132Y-108207500D01*
X81500500Y-108207500D01*
X81500500Y-106907500D01*
X83660132Y-106907500D01*
X83677500Y-107017160D01*
X83727906Y-107116087D01*
X83806414Y-107194595D01*
X83905340Y-107245000D01*
X84015001Y-107262369D01*
X84124662Y-107245000D01*
X84223588Y-107194595D01*
X84302096Y-107116087D01*
X84352501Y-107017161D01*
X84369870Y-106907500D01*
X84530130Y-106907500D01*
X84547498Y-107017160D01*
X84597904Y-107116087D01*
X84676412Y-107194595D01*
X84775338Y-107245000D01*
X84884999Y-107262369D01*
X84994660Y-107245000D01*
X85093586Y-107194595D01*
X85172094Y-107116087D01*
X85222499Y-107017161D01*
X85239868Y-106907500D01*
X85222499Y-106797839D01*
X85172094Y-106698913D01*
X85093586Y-106620405D01*
X84994659Y-106569999D01*
X84884999Y-106552631D01*
X84775338Y-106569999D01*
X84676411Y-106620405D01*
X84597904Y-106698912D01*
X84547498Y-106797839D01*
X84530130Y-106907500D01*
X84369870Y-106907500D01*
X84352501Y-106797839D01*
X84302096Y-106698913D01*
X84223588Y-106620405D01*
X84124661Y-106569999D01*
X84015001Y-106552631D01*
X83905340Y-106569999D01*
X83806413Y-106620405D01*
X83727906Y-106698912D01*
X83677500Y-106797839D01*
X83660132Y-106907500D01*
X81500500Y-106907500D01*
X81500500Y-106550000D01*
X85945131Y-106550000D01*
X85962499Y-106659660D01*
X86012905Y-106758587D01*
X86015314Y-106760996D01*
X86016188Y-106763106D01*
X86016328Y-106763299D01*
X86016281Y-106763332D01*
X86036988Y-106813322D01*
X86028923Y-106846917D01*
X85977500Y-106947839D01*
X85960132Y-107057500D01*
X85977500Y-107167160D01*
X85991479Y-107194595D01*
X86027906Y-107266087D01*
X86106414Y-107344595D01*
X86205340Y-107395000D01*
X86315001Y-107412369D01*
X86424662Y-107395000D01*
X86523588Y-107344595D01*
X86602096Y-107266087D01*
X86652501Y-107167161D01*
X86669870Y-107057500D01*
X86652501Y-106947839D01*
X86602096Y-106848913D01*
X86599686Y-106846503D01*
X86598811Y-106844391D01*
X86598673Y-106844201D01*
X86598718Y-106844167D01*
X86578012Y-106794177D01*
X86586078Y-106760581D01*
X86587092Y-106758589D01*
X86587095Y-106758587D01*
X86637500Y-106659661D01*
X86654869Y-106550000D01*
X86637500Y-106440339D01*
X86587095Y-106341413D01*
X86508587Y-106262905D01*
X86409660Y-106212499D01*
X86300000Y-106195131D01*
X86190339Y-106212499D01*
X86091412Y-106262905D01*
X86012905Y-106341412D01*
X85962499Y-106440339D01*
X85945131Y-106550000D01*
X81500500Y-106550000D01*
X81500500Y-105500000D01*
X83695131Y-105500000D01*
X83712499Y-105609660D01*
X83716321Y-105617161D01*
X83762905Y-105708587D01*
X83841413Y-105787095D01*
X83940339Y-105837500D01*
X84050000Y-105854869D01*
X84159661Y-105837500D01*
X84258587Y-105787095D01*
X84337095Y-105708587D01*
X84387500Y-105609661D01*
X84403681Y-105507500D01*
X84580130Y-105507500D01*
X84597498Y-105617160D01*
X84597499Y-105617161D01*
X84647904Y-105716087D01*
X84726412Y-105794595D01*
X84825338Y-105845000D01*
X84934999Y-105862369D01*
X85044660Y-105845000D01*
X85143586Y-105794595D01*
X85222094Y-105716087D01*
X85272499Y-105617161D01*
X85289868Y-105507500D01*
X85288680Y-105500000D01*
X91145131Y-105500000D01*
X91162499Y-105609660D01*
X91166321Y-105617161D01*
X91212905Y-105708587D01*
X91291413Y-105787095D01*
X91390339Y-105837500D01*
X91500000Y-105854869D01*
X91609661Y-105837500D01*
X91708587Y-105787095D01*
X91787095Y-105708587D01*
X91837500Y-105609661D01*
X91854869Y-105500000D01*
X91837500Y-105390339D01*
X91787095Y-105291413D01*
X91708587Y-105212905D01*
X91624381Y-105170000D01*
X91609660Y-105162499D01*
X91500000Y-105145131D01*
X91390339Y-105162499D01*
X91291412Y-105212905D01*
X91212905Y-105291412D01*
X91162499Y-105390339D01*
X91145131Y-105500000D01*
X85288680Y-105500000D01*
X85272499Y-105397839D01*
X85222094Y-105298913D01*
X85143586Y-105220405D01*
X85128866Y-105212905D01*
X85044659Y-105169999D01*
X84934999Y-105152631D01*
X84825338Y-105169999D01*
X84726411Y-105220405D01*
X84647904Y-105298912D01*
X84597498Y-105397839D01*
X84580130Y-105507500D01*
X84403681Y-105507500D01*
X84404869Y-105500000D01*
X84387500Y-105390339D01*
X84337095Y-105291413D01*
X84258587Y-105212905D01*
X84174381Y-105170000D01*
X84159660Y-105162499D01*
X84050000Y-105145131D01*
X83940339Y-105162499D01*
X83841412Y-105212905D01*
X83762905Y-105291412D01*
X83712499Y-105390339D01*
X83695131Y-105500000D01*
X81500500Y-105500000D01*
X81500500Y-100407500D01*
X85145131Y-100407500D01*
X85162499Y-100517160D01*
X85212905Y-100616087D01*
X85291415Y-100694597D01*
X85295596Y-100697635D01*
X85325186Y-100745927D01*
X85311962Y-100800999D01*
X85295596Y-100817365D01*
X85291415Y-100820402D01*
X85212905Y-100898912D01*
X85162499Y-100997839D01*
X85145131Y-101107500D01*
X85162499Y-101217160D01*
X85189045Y-101269259D01*
X85212905Y-101316087D01*
X85291413Y-101394595D01*
X85390339Y-101445000D01*
X85500000Y-101462369D01*
X85609661Y-101445000D01*
X85708587Y-101394595D01*
X85747674Y-101355508D01*
X85800000Y-101333834D01*
X85852326Y-101355508D01*
X85891413Y-101394595D01*
X85990339Y-101445000D01*
X86100000Y-101462369D01*
X86209661Y-101445000D01*
X86297979Y-101400000D01*
X88345131Y-101400000D01*
X88362499Y-101509660D01*
X88400000Y-101583259D01*
X88412905Y-101608587D01*
X88491413Y-101687095D01*
X88590339Y-101737500D01*
X88700000Y-101754869D01*
X88809661Y-101737500D01*
X88908587Y-101687095D01*
X88947674Y-101648008D01*
X89000000Y-101626334D01*
X89052326Y-101648008D01*
X89091413Y-101687095D01*
X89190339Y-101737500D01*
X89300000Y-101754869D01*
X89409661Y-101737500D01*
X89508587Y-101687095D01*
X89572674Y-101623008D01*
X89625000Y-101601334D01*
X89677326Y-101623008D01*
X89741413Y-101687095D01*
X89840339Y-101737500D01*
X89950000Y-101754869D01*
X90059661Y-101737500D01*
X90158587Y-101687095D01*
X90197674Y-101648008D01*
X90250000Y-101626334D01*
X90302326Y-101648008D01*
X90341413Y-101687095D01*
X90440339Y-101737500D01*
X90550000Y-101754869D01*
X90659661Y-101737500D01*
X90758587Y-101687095D01*
X90822674Y-101623008D01*
X90875000Y-101601334D01*
X90927326Y-101623008D01*
X90991413Y-101687095D01*
X91090339Y-101737500D01*
X91200000Y-101754869D01*
X91309661Y-101737500D01*
X91408587Y-101687095D01*
X91447674Y-101648008D01*
X91500000Y-101626334D01*
X91552326Y-101648008D01*
X91591413Y-101687095D01*
X91690339Y-101737500D01*
X91800000Y-101754869D01*
X91909661Y-101737500D01*
X92008587Y-101687095D01*
X92087095Y-101608587D01*
X92137500Y-101509661D01*
X92154869Y-101400000D01*
X92139030Y-101300000D01*
X95292631Y-101300000D01*
X95309999Y-101409660D01*
X95310000Y-101409661D01*
X95360405Y-101508587D01*
X95438913Y-101587095D01*
X95537839Y-101637500D01*
X95647500Y-101654869D01*
X95757161Y-101637500D01*
X95856087Y-101587095D01*
X95895174Y-101548008D01*
X95947500Y-101526334D01*
X95999826Y-101548008D01*
X96038913Y-101587095D01*
X96137839Y-101637500D01*
X96247500Y-101654869D01*
X96357161Y-101637500D01*
X96456087Y-101587095D01*
X96534595Y-101508587D01*
X96534596Y-101508583D01*
X96537632Y-101504407D01*
X96585923Y-101474813D01*
X96640995Y-101488034D01*
X96657368Y-101504407D01*
X96660404Y-101508586D01*
X96660405Y-101508587D01*
X96738913Y-101587095D01*
X96837839Y-101637500D01*
X96947500Y-101654869D01*
X97057161Y-101637500D01*
X97156087Y-101587095D01*
X97195174Y-101548008D01*
X97247500Y-101526334D01*
X97299826Y-101548008D01*
X97338913Y-101587095D01*
X97437839Y-101637500D01*
X97547500Y-101654869D01*
X97657161Y-101637500D01*
X97756087Y-101587095D01*
X97834595Y-101508587D01*
X97885000Y-101409661D01*
X97902369Y-101300000D01*
X97885000Y-101190339D01*
X97834595Y-101091413D01*
X97756087Y-101012905D01*
X97726518Y-100997839D01*
X97657160Y-100962499D01*
X97547500Y-100945131D01*
X97437839Y-100962499D01*
X97338912Y-101012905D01*
X97299826Y-101051992D01*
X97247500Y-101073666D01*
X97195174Y-101051992D01*
X97156087Y-101012905D01*
X97057160Y-100962499D01*
X96947500Y-100945131D01*
X96837839Y-100962499D01*
X96738912Y-101012905D01*
X96660402Y-101091415D01*
X96657365Y-101095596D01*
X96609073Y-101125186D01*
X96554001Y-101111962D01*
X96537635Y-101095596D01*
X96534597Y-101091415D01*
X96456087Y-101012905D01*
X96357160Y-100962499D01*
X96247500Y-100945131D01*
X96137839Y-100962499D01*
X96038912Y-101012905D01*
X95999826Y-101051992D01*
X95947500Y-101073666D01*
X95895174Y-101051992D01*
X95856087Y-101012905D01*
X95757160Y-100962499D01*
X95647500Y-100945131D01*
X95537839Y-100962499D01*
X95438912Y-101012905D01*
X95360405Y-101091412D01*
X95309999Y-101190339D01*
X95292631Y-101300000D01*
X92139030Y-101300000D01*
X92137500Y-101290339D01*
X92087095Y-101191413D01*
X92008587Y-101112905D01*
X91974616Y-101095596D01*
X91909660Y-101062499D01*
X91800000Y-101045131D01*
X91690339Y-101062499D01*
X91591412Y-101112905D01*
X91552326Y-101151992D01*
X91500000Y-101173666D01*
X91447674Y-101151992D01*
X91408587Y-101112905D01*
X91309660Y-101062499D01*
X91200000Y-101045131D01*
X91090339Y-101062499D01*
X90991412Y-101112905D01*
X90927326Y-101176992D01*
X90875000Y-101198666D01*
X90822674Y-101176992D01*
X90758587Y-101112905D01*
X90659660Y-101062499D01*
X90550000Y-101045131D01*
X90440339Y-101062499D01*
X90341412Y-101112905D01*
X90302326Y-101151992D01*
X90250000Y-101173666D01*
X90197674Y-101151992D01*
X90158587Y-101112905D01*
X90059660Y-101062499D01*
X89950000Y-101045131D01*
X89840339Y-101062499D01*
X89741412Y-101112905D01*
X89677326Y-101176992D01*
X89625000Y-101198666D01*
X89572674Y-101176992D01*
X89508587Y-101112905D01*
X89409660Y-101062499D01*
X89300000Y-101045131D01*
X89190339Y-101062499D01*
X89091412Y-101112905D01*
X89052326Y-101151992D01*
X89000000Y-101173666D01*
X88947674Y-101151992D01*
X88908587Y-101112905D01*
X88809660Y-101062499D01*
X88700000Y-101045131D01*
X88590339Y-101062499D01*
X88491412Y-101112905D01*
X88412905Y-101191412D01*
X88362499Y-101290339D01*
X88345131Y-101400000D01*
X86297979Y-101400000D01*
X86308587Y-101394595D01*
X86387095Y-101316087D01*
X86437500Y-101217161D01*
X86454869Y-101107500D01*
X86437500Y-100997839D01*
X86387095Y-100898913D01*
X86308587Y-100820405D01*
X86308586Y-100820404D01*
X86304407Y-100817368D01*
X86274813Y-100769077D01*
X86288034Y-100714005D01*
X86304407Y-100697632D01*
X86308583Y-100694596D01*
X86308587Y-100694595D01*
X86387095Y-100616087D01*
X86437500Y-100517161D01*
X86454869Y-100407500D01*
X86437500Y-100297839D01*
X86387095Y-100198913D01*
X86308587Y-100120405D01*
X86278094Y-100104868D01*
X86209660Y-100069999D01*
X86100000Y-100052631D01*
X85990339Y-100069999D01*
X85891412Y-100120405D01*
X85852326Y-100159492D01*
X85800000Y-100181166D01*
X85747674Y-100159492D01*
X85708587Y-100120405D01*
X85609660Y-100069999D01*
X85500000Y-100052631D01*
X85390339Y-100069999D01*
X85291412Y-100120405D01*
X85212905Y-100198912D01*
X85162499Y-100297839D01*
X85145131Y-100407500D01*
X81500500Y-100407500D01*
X81500500Y-99750000D01*
X83460132Y-99750000D01*
X83477500Y-99859660D01*
X83477501Y-99859661D01*
X83527906Y-99958587D01*
X83606414Y-100037095D01*
X83705340Y-100087500D01*
X83815001Y-100104869D01*
X83924662Y-100087500D01*
X84023588Y-100037095D01*
X84102096Y-99958587D01*
X84152501Y-99859661D01*
X84169870Y-99750000D01*
X84152501Y-99640339D01*
X84102096Y-99541413D01*
X84060683Y-99500000D01*
X94395131Y-99500000D01*
X94412499Y-99609660D01*
X94412500Y-99609661D01*
X94462905Y-99708587D01*
X94541413Y-99787095D01*
X94640339Y-99837500D01*
X94750000Y-99854869D01*
X94859661Y-99837500D01*
X94958587Y-99787095D01*
X95037095Y-99708587D01*
X95087500Y-99609661D01*
X95104869Y-99500000D01*
X95087500Y-99390339D01*
X95037095Y-99291413D01*
X94958587Y-99212905D01*
X94859660Y-99162499D01*
X94750000Y-99145131D01*
X94640339Y-99162499D01*
X94541412Y-99212905D01*
X94462905Y-99291412D01*
X94412499Y-99390339D01*
X94395131Y-99500000D01*
X84060683Y-99500000D01*
X84023588Y-99462905D01*
X83924661Y-99412499D01*
X83815001Y-99395131D01*
X83705340Y-99412499D01*
X83606413Y-99462905D01*
X83527906Y-99541412D01*
X83477500Y-99640339D01*
X83460132Y-99750000D01*
X81500500Y-99750000D01*
X81500500Y-99022503D01*
X88595131Y-99022503D01*
X88612499Y-99132163D01*
X88612500Y-99132164D01*
X88662905Y-99231090D01*
X88741413Y-99309598D01*
X88840339Y-99360003D01*
X88950000Y-99377372D01*
X89059661Y-99360003D01*
X89158587Y-99309598D01*
X89237095Y-99231090D01*
X89287500Y-99132164D01*
X89304869Y-99022503D01*
X89287500Y-98912842D01*
X89237095Y-98813916D01*
X89158587Y-98735408D01*
X89059660Y-98685002D01*
X88950000Y-98667634D01*
X88840339Y-98685002D01*
X88741412Y-98735408D01*
X88662905Y-98813915D01*
X88612499Y-98912842D01*
X88595131Y-99022503D01*
X81500500Y-99022503D01*
X81500500Y-98107500D01*
X82745131Y-98107500D01*
X82762499Y-98217160D01*
X82812905Y-98316087D01*
X82891413Y-98394595D01*
X82990339Y-98445000D01*
X83100000Y-98462369D01*
X83209661Y-98445000D01*
X83308587Y-98394595D01*
X83353182Y-98350000D01*
X98592631Y-98350000D01*
X98609999Y-98459660D01*
X98660405Y-98558587D01*
X98738913Y-98637095D01*
X98837839Y-98687500D01*
X98947500Y-98704869D01*
X99057161Y-98687500D01*
X99156087Y-98637095D01*
X99234595Y-98558587D01*
X99285000Y-98459661D01*
X99302369Y-98350000D01*
X99285000Y-98240339D01*
X99234595Y-98141413D01*
X99156087Y-98062905D01*
X99057160Y-98012499D01*
X98947500Y-97995131D01*
X98837839Y-98012499D01*
X98738912Y-98062905D01*
X98660405Y-98141412D01*
X98609999Y-98240339D01*
X98592631Y-98350000D01*
X83353182Y-98350000D01*
X83387095Y-98316087D01*
X83437500Y-98217161D01*
X83454869Y-98107500D01*
X83437500Y-97997839D01*
X83387095Y-97898913D01*
X83308587Y-97820405D01*
X83256134Y-97793679D01*
X83209660Y-97769999D01*
X83100000Y-97752631D01*
X83051308Y-97760343D01*
X82996236Y-97747121D01*
X82981642Y-97723306D01*
X82970135Y-97771240D01*
X82943863Y-97793679D01*
X82891414Y-97820403D01*
X82812905Y-97898912D01*
X82762499Y-97997839D01*
X82745131Y-98107500D01*
X81500500Y-98107500D01*
X81500500Y-96507500D01*
X82495131Y-96507500D01*
X82512499Y-96617160D01*
X82562905Y-96716087D01*
X82641414Y-96794596D01*
X82733597Y-96841566D01*
X82770380Y-96884633D01*
X82765936Y-96941095D01*
X82733597Y-96973434D01*
X82641414Y-97020403D01*
X82562905Y-97098912D01*
X82512499Y-97197839D01*
X82495131Y-97307500D01*
X82512499Y-97417160D01*
X82512500Y-97417161D01*
X82562905Y-97516087D01*
X82641413Y-97594595D01*
X82740339Y-97645000D01*
X82850000Y-97662369D01*
X82898692Y-97654656D01*
X82953762Y-97667877D01*
X82968356Y-97691691D01*
X82979865Y-97643758D01*
X83006135Y-97621320D01*
X83058587Y-97594595D01*
X83137095Y-97516087D01*
X83187500Y-97417161D01*
X83204869Y-97307500D01*
X83187500Y-97197839D01*
X83137095Y-97098913D01*
X83058587Y-97020405D01*
X82966401Y-96973434D01*
X82929619Y-96930368D01*
X82934062Y-96873905D01*
X82966401Y-96841565D01*
X83058587Y-96794595D01*
X83137095Y-96716087D01*
X83187500Y-96617161D01*
X83204869Y-96507500D01*
X83187500Y-96397839D01*
X83137095Y-96298913D01*
X83058587Y-96220405D01*
X83025774Y-96203686D01*
X82989099Y-96184999D01*
X88695131Y-96184999D01*
X88712499Y-96294659D01*
X88752406Y-96372980D01*
X88762905Y-96393586D01*
X88841413Y-96472094D01*
X88940339Y-96522499D01*
X89050000Y-96539868D01*
X89159661Y-96522499D01*
X89258587Y-96472094D01*
X89337095Y-96393586D01*
X89387500Y-96294660D01*
X89404869Y-96184999D01*
X89387500Y-96075338D01*
X89374590Y-96050000D01*
X92945131Y-96050000D01*
X92962499Y-96159660D01*
X92987976Y-96209661D01*
X93012905Y-96258587D01*
X93091413Y-96337095D01*
X93161842Y-96372980D01*
X93183374Y-96383951D01*
X93220157Y-96427019D01*
X93215714Y-96483481D01*
X93202106Y-96502211D01*
X93162905Y-96541412D01*
X93112499Y-96640339D01*
X93095131Y-96750000D01*
X93112499Y-96859660D01*
X93148527Y-96930368D01*
X93162905Y-96958587D01*
X93241413Y-97037095D01*
X93340339Y-97087500D01*
X93450000Y-97104869D01*
X93559661Y-97087500D01*
X93658587Y-97037095D01*
X93737095Y-96958587D01*
X93787500Y-96859661D01*
X93804869Y-96750000D01*
X93787500Y-96640339D01*
X93737095Y-96541413D01*
X93658587Y-96462905D01*
X93658585Y-96462903D01*
X93566625Y-96416047D01*
X93529842Y-96372980D01*
X93534286Y-96316518D01*
X93547892Y-96297789D01*
X93587095Y-96258587D01*
X93596326Y-96240468D01*
X93639391Y-96203686D01*
X93695854Y-96208127D01*
X93728195Y-96240467D01*
X93762904Y-96308586D01*
X93762905Y-96308587D01*
X93841413Y-96387095D01*
X93940339Y-96437500D01*
X94050000Y-96454869D01*
X94159661Y-96437500D01*
X94258587Y-96387095D01*
X94337095Y-96308587D01*
X94387500Y-96209661D01*
X94404869Y-96100000D01*
X94387500Y-95990339D01*
X94337095Y-95891413D01*
X94258587Y-95812905D01*
X94159660Y-95762499D01*
X94050000Y-95745131D01*
X93940339Y-95762499D01*
X93841412Y-95812905D01*
X93762903Y-95891414D01*
X93753672Y-95909532D01*
X93710604Y-95946315D01*
X93654142Y-95941870D01*
X93621804Y-95909531D01*
X93587096Y-95841415D01*
X93587096Y-95841414D01*
X93508587Y-95762905D01*
X93409660Y-95712499D01*
X93300000Y-95695131D01*
X93190339Y-95712499D01*
X93091412Y-95762905D01*
X93012905Y-95841412D01*
X92962499Y-95940339D01*
X92945131Y-96050000D01*
X89374590Y-96050000D01*
X89337095Y-95976412D01*
X89258587Y-95897904D01*
X89238168Y-95887500D01*
X89159660Y-95847498D01*
X89050000Y-95830130D01*
X88940339Y-95847498D01*
X88841412Y-95897904D01*
X88762905Y-95976411D01*
X88712499Y-96075338D01*
X88695131Y-96184999D01*
X82989099Y-96184999D01*
X82959660Y-96169999D01*
X82850000Y-96152631D01*
X82740339Y-96169999D01*
X82641412Y-96220405D01*
X82562905Y-96298912D01*
X82512499Y-96397839D01*
X82495131Y-96507500D01*
X81500500Y-96507500D01*
X81500500Y-95550000D01*
X91995131Y-95550000D01*
X92012499Y-95659660D01*
X92056049Y-95745131D01*
X92062905Y-95758587D01*
X92141413Y-95837095D01*
X92240339Y-95887500D01*
X92350000Y-95904869D01*
X92459661Y-95887500D01*
X92558587Y-95837095D01*
X92637095Y-95758587D01*
X92687500Y-95659661D01*
X92704869Y-95550000D01*
X92687500Y-95440339D01*
X92637095Y-95341413D01*
X92623680Y-95327998D01*
X92602006Y-95275672D01*
X92623680Y-95223346D01*
X92664428Y-95202583D01*
X92759661Y-95187500D01*
X92858587Y-95137095D01*
X92870210Y-95125471D01*
X92922535Y-95103796D01*
X92974861Y-95125468D01*
X92996537Y-95177794D01*
X92995627Y-95189369D01*
X92995131Y-95192500D01*
X93012499Y-95302160D01*
X93062905Y-95401087D01*
X93141413Y-95479595D01*
X93240339Y-95530000D01*
X93350000Y-95547369D01*
X93459661Y-95530000D01*
X93558587Y-95479595D01*
X93637095Y-95401087D01*
X93687500Y-95302161D01*
X93704869Y-95192500D01*
X93687500Y-95082839D01*
X93637095Y-94983913D01*
X93637093Y-94983911D01*
X93635497Y-94981713D01*
X93635072Y-94979942D01*
X93634451Y-94978724D01*
X93634743Y-94978574D01*
X93622276Y-94926641D01*
X93651870Y-94878350D01*
X93706940Y-94865129D01*
X93800000Y-94879869D01*
X93909661Y-94862500D01*
X94008587Y-94812095D01*
X94087095Y-94733587D01*
X94137500Y-94634661D01*
X94154869Y-94525000D01*
X94137500Y-94415339D01*
X94087095Y-94316413D01*
X94008587Y-94237905D01*
X93934195Y-94200000D01*
X98592631Y-94200000D01*
X98609999Y-94309660D01*
X98613440Y-94316413D01*
X98660405Y-94408587D01*
X98738913Y-94487095D01*
X98837839Y-94537500D01*
X98947500Y-94554869D01*
X99057161Y-94537500D01*
X99156087Y-94487095D01*
X99234595Y-94408587D01*
X99285000Y-94309661D01*
X99302369Y-94200000D01*
X99285000Y-94090339D01*
X99234595Y-93991413D01*
X99156087Y-93912905D01*
X99128624Y-93898912D01*
X99057160Y-93862499D01*
X98947500Y-93845131D01*
X98837839Y-93862499D01*
X98738912Y-93912905D01*
X98660405Y-93991412D01*
X98609999Y-94090339D01*
X98592631Y-94200000D01*
X93934195Y-94200000D01*
X93909660Y-94187499D01*
X93800000Y-94170131D01*
X93690339Y-94187499D01*
X93591412Y-94237905D01*
X93512905Y-94316412D01*
X93462499Y-94415339D01*
X93445131Y-94525000D01*
X93462499Y-94634660D01*
X93512905Y-94733588D01*
X93514503Y-94735787D01*
X93514927Y-94737556D01*
X93515549Y-94738776D01*
X93515256Y-94738925D01*
X93527722Y-94790860D01*
X93498128Y-94839150D01*
X93443058Y-94852370D01*
X93350000Y-94837631D01*
X93240339Y-94854999D01*
X93141412Y-94905405D01*
X93129786Y-94917031D01*
X93077460Y-94938703D01*
X93025134Y-94917027D01*
X93003462Y-94864701D01*
X93004373Y-94853129D01*
X93004869Y-94850000D01*
X92987500Y-94740339D01*
X92937095Y-94641413D01*
X92858587Y-94562905D01*
X92759660Y-94512499D01*
X92650000Y-94495131D01*
X92540339Y-94512499D01*
X92441412Y-94562905D01*
X92362905Y-94641412D01*
X92312499Y-94740339D01*
X92295131Y-94850000D01*
X92312499Y-94959660D01*
X92362905Y-95058587D01*
X92376319Y-95072001D01*
X92397993Y-95124327D01*
X92376319Y-95176653D01*
X92335570Y-95197416D01*
X92240338Y-95212499D01*
X92141412Y-95262905D01*
X92062905Y-95341412D01*
X92012499Y-95440339D01*
X91995131Y-95550000D01*
X81500500Y-95550000D01*
X81500500Y-94952500D01*
X83745131Y-94952500D01*
X83762499Y-95062160D01*
X83812905Y-95161087D01*
X83891413Y-95239595D01*
X83990339Y-95290000D01*
X84100000Y-95307369D01*
X84209661Y-95290000D01*
X84308587Y-95239595D01*
X84387095Y-95161087D01*
X84437500Y-95062161D01*
X84454869Y-94952500D01*
X84437500Y-94842839D01*
X84387095Y-94743913D01*
X84308587Y-94665405D01*
X84261498Y-94641412D01*
X84209660Y-94614999D01*
X84100000Y-94597631D01*
X83990339Y-94614999D01*
X83891412Y-94665405D01*
X83812905Y-94743912D01*
X83762499Y-94842839D01*
X83745131Y-94952500D01*
X81500500Y-94952500D01*
X81500500Y-94107500D01*
X85445131Y-94107500D01*
X85462499Y-94217160D01*
X85509084Y-94308587D01*
X85512905Y-94316087D01*
X85591413Y-94394595D01*
X85690339Y-94445000D01*
X85800000Y-94462369D01*
X85909661Y-94445000D01*
X86008587Y-94394595D01*
X86087095Y-94316087D01*
X86137500Y-94217161D01*
X86154869Y-94107500D01*
X86153681Y-94100000D01*
X89430130Y-94100000D01*
X89447498Y-94209660D01*
X89451320Y-94217161D01*
X89497904Y-94308587D01*
X89576412Y-94387095D01*
X89675338Y-94437500D01*
X89784999Y-94454869D01*
X89894660Y-94437500D01*
X89993586Y-94387095D01*
X90072094Y-94308587D01*
X90122499Y-94209661D01*
X90139868Y-94100000D01*
X90122499Y-93990339D01*
X90072094Y-93891413D01*
X89993586Y-93812905D01*
X89909380Y-93770000D01*
X89894659Y-93762499D01*
X89784999Y-93745131D01*
X89675338Y-93762499D01*
X89576411Y-93812905D01*
X89497904Y-93891412D01*
X89447498Y-93990339D01*
X89430130Y-94100000D01*
X86153681Y-94100000D01*
X86137500Y-93997839D01*
X86087095Y-93898913D01*
X86008587Y-93820405D01*
X85993867Y-93812905D01*
X85909660Y-93769999D01*
X85800000Y-93752631D01*
X85690339Y-93769999D01*
X85591412Y-93820405D01*
X85512905Y-93898912D01*
X85462499Y-93997839D01*
X85445131Y-94107500D01*
X81500500Y-94107500D01*
X81500500Y-93342499D01*
X85845131Y-93342499D01*
X85862499Y-93452159D01*
X85912905Y-93551086D01*
X85991413Y-93629594D01*
X86090339Y-93679999D01*
X86200000Y-93697368D01*
X86309661Y-93679999D01*
X86408587Y-93629594D01*
X86487095Y-93551086D01*
X86537500Y-93452160D01*
X86554869Y-93342499D01*
X86537500Y-93232838D01*
X86487095Y-93133912D01*
X86408587Y-93055404D01*
X86309660Y-93004998D01*
X86200000Y-92987630D01*
X86090339Y-93004998D01*
X85991412Y-93055404D01*
X85912905Y-93133911D01*
X85862499Y-93232838D01*
X85845131Y-93342499D01*
X81500500Y-93342499D01*
X81500500Y-92550000D01*
X88595131Y-92550000D01*
X88612499Y-92659660D01*
X88662905Y-92758587D01*
X88741414Y-92837096D01*
X88833597Y-92884066D01*
X88870380Y-92927133D01*
X88865936Y-92983595D01*
X88833597Y-93015934D01*
X88741414Y-93062903D01*
X88662905Y-93141412D01*
X88612499Y-93240339D01*
X88595131Y-93350000D01*
X88612499Y-93459660D01*
X88612500Y-93459661D01*
X88662905Y-93558587D01*
X88741413Y-93637095D01*
X88840339Y-93687500D01*
X88950000Y-93704869D01*
X89059661Y-93687500D01*
X89158587Y-93637095D01*
X89237095Y-93558587D01*
X89287500Y-93459661D01*
X89304869Y-93350000D01*
X89287500Y-93240339D01*
X89237095Y-93141413D01*
X89158587Y-93062905D01*
X89066401Y-93015934D01*
X89029619Y-92972868D01*
X89034062Y-92916405D01*
X89066401Y-92884065D01*
X89158587Y-92837095D01*
X89237095Y-92758587D01*
X89287500Y-92659661D01*
X89304869Y-92550000D01*
X89287500Y-92440339D01*
X89237095Y-92341413D01*
X89158587Y-92262905D01*
X89059660Y-92212499D01*
X88950000Y-92195131D01*
X88840339Y-92212499D01*
X88741412Y-92262905D01*
X88662905Y-92341412D01*
X88612499Y-92440339D01*
X88595131Y-92550000D01*
X81500500Y-92550000D01*
X81500500Y-90884999D01*
X94145131Y-90884999D01*
X94162499Y-90994659D01*
X94212905Y-91093586D01*
X94291413Y-91172094D01*
X94390339Y-91222499D01*
X94500000Y-91239868D01*
X94609661Y-91222499D01*
X94708587Y-91172094D01*
X94787095Y-91093586D01*
X94837500Y-90994660D01*
X94854869Y-90884999D01*
X94837500Y-90775338D01*
X94787095Y-90676412D01*
X94708587Y-90597904D01*
X94609660Y-90547498D01*
X94500000Y-90530130D01*
X94390339Y-90547498D01*
X94291412Y-90597904D01*
X94212905Y-90676411D01*
X94162499Y-90775338D01*
X94145131Y-90884999D01*
X81500500Y-90884999D01*
X81500500Y-90500000D01*
X90045131Y-90500000D01*
X90062499Y-90609660D01*
X90096511Y-90676412D01*
X90112905Y-90708587D01*
X90191413Y-90787095D01*
X90290339Y-90837500D01*
X90400000Y-90854869D01*
X90509661Y-90837500D01*
X90608587Y-90787095D01*
X90687095Y-90708587D01*
X90737500Y-90609661D01*
X90754869Y-90500000D01*
X90739030Y-90400000D01*
X92945131Y-90400000D01*
X92962499Y-90509660D01*
X92981779Y-90547499D01*
X93012905Y-90608587D01*
X93091413Y-90687095D01*
X93190339Y-90737500D01*
X93300000Y-90754869D01*
X93409661Y-90737500D01*
X93508587Y-90687095D01*
X93587095Y-90608587D01*
X93637500Y-90509661D01*
X93654869Y-90400000D01*
X93637500Y-90290339D01*
X93587095Y-90191413D01*
X93508587Y-90112905D01*
X93488168Y-90102501D01*
X93409660Y-90062499D01*
X93300000Y-90045131D01*
X93190339Y-90062499D01*
X93091412Y-90112905D01*
X93012905Y-90191412D01*
X92962499Y-90290339D01*
X92945131Y-90400000D01*
X90739030Y-90400000D01*
X90737500Y-90390339D01*
X90687095Y-90291413D01*
X90608587Y-90212905D01*
X90509660Y-90162499D01*
X90400000Y-90145131D01*
X90290339Y-90162499D01*
X90191412Y-90212905D01*
X90112905Y-90291412D01*
X90062499Y-90390339D01*
X90045131Y-90500000D01*
X81500500Y-90500000D01*
X81500500Y-89765001D01*
X94745131Y-89765001D01*
X94762499Y-89874661D01*
X94762500Y-89874662D01*
X94812905Y-89973588D01*
X94891413Y-90052096D01*
X94990339Y-90102501D01*
X95100000Y-90119870D01*
X95209661Y-90102501D01*
X95308587Y-90052096D01*
X95387095Y-89973588D01*
X95437500Y-89874662D01*
X95454869Y-89765001D01*
X95437500Y-89655340D01*
X95387095Y-89556414D01*
X95308587Y-89477906D01*
X95209660Y-89427500D01*
X95100000Y-89410132D01*
X94990339Y-89427500D01*
X94891412Y-89477906D01*
X94812905Y-89556413D01*
X94762499Y-89655340D01*
X94745131Y-89765001D01*
X81500500Y-89765001D01*
X81500500Y-86574500D01*
X81522174Y-86522174D01*
X81574500Y-86500500D01*
X89490052Y-86500500D01*
X89542378Y-86522174D01*
G37*
%TD.AperFunction*%
%TA.AperFunction,Conductor*%
G36*
X84035742Y-162751214D02*
G01*
X84063525Y-162777579D01*
X84071821Y-162791116D01*
X84071826Y-162791123D01*
X84078974Y-162798855D01*
X84081771Y-162805999D01*
X84151437Y-162875665D01*
X84165043Y-162894392D01*
X84182446Y-162928548D01*
X84189601Y-162950566D01*
X84195597Y-162988423D01*
X84195597Y-163011575D01*
X84189601Y-163049432D01*
X84182446Y-163071452D01*
X84165045Y-163105603D01*
X84151437Y-163124333D01*
X84124333Y-163151437D01*
X84105603Y-163165045D01*
X84071452Y-163182446D01*
X84049432Y-163189601D01*
X84011575Y-163195597D01*
X83988423Y-163195597D01*
X83950566Y-163189601D01*
X83928548Y-163182446D01*
X83894392Y-163165043D01*
X83875665Y-163151437D01*
X83848564Y-163124336D01*
X83834955Y-163105605D01*
X83817552Y-163071449D01*
X83810398Y-163049433D01*
X83804402Y-163011571D01*
X83804402Y-162988423D01*
X83810399Y-162950560D01*
X83817553Y-162928544D01*
X83834954Y-162894393D01*
X83848561Y-162875665D01*
X83895666Y-162828559D01*
X83899921Y-162824626D01*
X83905551Y-162819820D01*
X83921917Y-162803454D01*
X83924753Y-162800543D01*
X83935401Y-162780933D01*
X83979415Y-162745293D01*
X84035742Y-162751214D01*
G37*
%TD.AperFunction*%
%TA.AperFunction,Conductor*%
G36*
X84049437Y-162110399D02*
G01*
X84071451Y-162117552D01*
X84105604Y-162134954D01*
X84124334Y-162148562D01*
X84151437Y-162175665D01*
X84165043Y-162194392D01*
X84182446Y-162228548D01*
X84189601Y-162250566D01*
X84195597Y-162288423D01*
X84195597Y-162311575D01*
X84189601Y-162349432D01*
X84182446Y-162371452D01*
X84165045Y-162405603D01*
X84151437Y-162424333D01*
X84104346Y-162471424D01*
X84100097Y-162475353D01*
X84094449Y-162480179D01*
X84078075Y-162496553D01*
X84075237Y-162499466D01*
X84075233Y-162499472D01*
X84064598Y-162519060D01*
X84020583Y-162554703D01*
X83964256Y-162548782D01*
X83936470Y-162522413D01*
X83928186Y-162508893D01*
X83928185Y-162508891D01*
X83928182Y-162508887D01*
X83921033Y-162501153D01*
X83918238Y-162494010D01*
X83848562Y-162424334D01*
X83834954Y-162405604D01*
X83817553Y-162371453D01*
X83810398Y-162349433D01*
X83804402Y-162311575D01*
X83804402Y-162288423D01*
X83805224Y-162283234D01*
X83810399Y-162250560D01*
X83817553Y-162228544D01*
X83834954Y-162194393D01*
X83848561Y-162175665D01*
X83875666Y-162148559D01*
X83894393Y-162134954D01*
X83928546Y-162117552D01*
X83950560Y-162110399D01*
X83988426Y-162104402D01*
X84011572Y-162104402D01*
X84049437Y-162110399D01*
G37*
%TD.AperFunction*%
%TA.AperFunction,Conductor*%
G36*
X83549437Y-159410399D02*
G01*
X83571450Y-159417551D01*
X83603231Y-159433745D01*
X83603239Y-159433750D01*
X83605591Y-159434948D01*
X83609531Y-159437810D01*
X83615859Y-159441893D01*
X83615864Y-159441897D01*
X83615604Y-159442221D01*
X83624335Y-159448563D01*
X83651437Y-159475665D01*
X83665043Y-159494392D01*
X83682446Y-159528548D01*
X83689601Y-159550566D01*
X83695597Y-159588423D01*
X83695597Y-159611575D01*
X83689601Y-159649432D01*
X83682446Y-159671452D01*
X83665045Y-159705603D01*
X83651437Y-159724333D01*
X83624333Y-159751437D01*
X83605603Y-159765045D01*
X83571452Y-159782446D01*
X83549432Y-159789601D01*
X83511575Y-159795597D01*
X83488423Y-159795597D01*
X83450566Y-159789601D01*
X83428548Y-159782446D01*
X83394392Y-159765043D01*
X83375665Y-159751437D01*
X83348562Y-159724334D01*
X83334954Y-159705604D01*
X83317553Y-159671453D01*
X83310398Y-159649433D01*
X83304402Y-159611575D01*
X83304402Y-159588423D01*
X83306966Y-159572236D01*
X83310399Y-159550560D01*
X83317553Y-159528544D01*
X83334954Y-159494393D01*
X83348561Y-159475665D01*
X83375666Y-159448559D01*
X83394393Y-159434954D01*
X83396770Y-159433743D01*
X83428546Y-159417552D01*
X83450560Y-159410399D01*
X83488426Y-159404402D01*
X83511572Y-159404402D01*
X83549437Y-159410399D01*
G37*
%TD.AperFunction*%
%TA.AperFunction,Conductor*%
G36*
X90849437Y-157817899D02*
G01*
X90871450Y-157825051D01*
X90902547Y-157840896D01*
X90902552Y-157840900D01*
X90905594Y-157842449D01*
X90910684Y-157846147D01*
X90915176Y-157849045D01*
X90915181Y-157849049D01*
X90914996Y-157849279D01*
X90924335Y-157856063D01*
X90951435Y-157883163D01*
X90965043Y-157901893D01*
X90982445Y-157936047D01*
X90989600Y-157958063D01*
X90994305Y-157987768D01*
X90995597Y-157995921D01*
X90995597Y-158019075D01*
X90989601Y-158056932D01*
X90982446Y-158078952D01*
X90965045Y-158113103D01*
X90951437Y-158131833D01*
X90924333Y-158158937D01*
X90905603Y-158172545D01*
X90871452Y-158189946D01*
X90849432Y-158197101D01*
X90811575Y-158203097D01*
X90788423Y-158203097D01*
X90750566Y-158197101D01*
X90728548Y-158189946D01*
X90694392Y-158172543D01*
X90675665Y-158158937D01*
X90648564Y-158131836D01*
X90634955Y-158113105D01*
X90617552Y-158078949D01*
X90610398Y-158056933D01*
X90604402Y-158019071D01*
X90604402Y-157995925D01*
X90610399Y-157958060D01*
X90617553Y-157936044D01*
X90634954Y-157901893D01*
X90648559Y-157883166D01*
X90675666Y-157856059D01*
X90694393Y-157842454D01*
X90697453Y-157840895D01*
X90728546Y-157825052D01*
X90750560Y-157817899D01*
X90788426Y-157811902D01*
X90811572Y-157811902D01*
X90849437Y-157817899D01*
G37*
%TD.AperFunction*%
%TA.AperFunction,Conductor*%
G36*
X87584436Y-157710399D02*
G01*
X87606450Y-157717552D01*
X87640604Y-157734954D01*
X87659332Y-157748561D01*
X87686436Y-157775665D01*
X87700042Y-157794392D01*
X87717445Y-157828548D01*
X87724600Y-157850565D01*
X87730596Y-157888421D01*
X87730596Y-157911576D01*
X87724599Y-157949432D01*
X87717445Y-157971448D01*
X87700043Y-158005603D01*
X87686434Y-158024335D01*
X87659332Y-158051437D01*
X87640602Y-158065045D01*
X87606451Y-158082446D01*
X87584431Y-158089601D01*
X87546574Y-158095597D01*
X87523422Y-158095597D01*
X87485565Y-158089601D01*
X87463547Y-158082446D01*
X87429391Y-158065043D01*
X87410664Y-158051437D01*
X87383563Y-158024336D01*
X87369954Y-158005605D01*
X87352551Y-157971449D01*
X87345397Y-157949433D01*
X87339401Y-157911571D01*
X87339401Y-157888425D01*
X87345398Y-157850560D01*
X87352552Y-157828544D01*
X87357977Y-157817898D01*
X87369953Y-157794392D01*
X87383560Y-157775665D01*
X87410665Y-157748559D01*
X87429392Y-157734954D01*
X87429394Y-157734953D01*
X87463545Y-157717552D01*
X87485559Y-157710399D01*
X87523425Y-157704402D01*
X87546571Y-157704402D01*
X87584436Y-157710399D01*
G37*
%TD.AperFunction*%
%TA.AperFunction,Conductor*%
G36*
X83449435Y-157610398D02*
G01*
X83471453Y-157617553D01*
X83505604Y-157634954D01*
X83524334Y-157648562D01*
X83551437Y-157675665D01*
X83565043Y-157694392D01*
X83582446Y-157728548D01*
X83589601Y-157750566D01*
X83595597Y-157788423D01*
X83595597Y-157811575D01*
X83589601Y-157849432D01*
X83582446Y-157871452D01*
X83565045Y-157905603D01*
X83551437Y-157924333D01*
X83524333Y-157951437D01*
X83505603Y-157965045D01*
X83471452Y-157982446D01*
X83449432Y-157989601D01*
X83411575Y-157995597D01*
X83388423Y-157995597D01*
X83350566Y-157989601D01*
X83328548Y-157982446D01*
X83294392Y-157965043D01*
X83275665Y-157951437D01*
X83248564Y-157924336D01*
X83234955Y-157905605D01*
X83217552Y-157871449D01*
X83210398Y-157849433D01*
X83204402Y-157811571D01*
X83204402Y-157788423D01*
X83210399Y-157750560D01*
X83217553Y-157728544D01*
X83223154Y-157717553D01*
X83234954Y-157694392D01*
X83248561Y-157675665D01*
X83275666Y-157648559D01*
X83294393Y-157634954D01*
X83328546Y-157617552D01*
X83350560Y-157610399D01*
X83388426Y-157604402D01*
X83411572Y-157604402D01*
X83449435Y-157610398D01*
G37*
%TD.AperFunction*%
%TA.AperFunction,Conductor*%
G36*
X98049435Y-155560398D02*
G01*
X98071453Y-155567553D01*
X98105604Y-155584954D01*
X98124334Y-155598562D01*
X98151437Y-155625665D01*
X98165043Y-155644392D01*
X98182446Y-155678548D01*
X98189601Y-155700566D01*
X98195597Y-155738423D01*
X98195597Y-155761575D01*
X98189601Y-155799432D01*
X98182446Y-155821452D01*
X98165045Y-155855603D01*
X98151437Y-155874333D01*
X98124333Y-155901437D01*
X98105603Y-155915045D01*
X98071452Y-155932446D01*
X98049432Y-155939601D01*
X98011575Y-155945597D01*
X97988423Y-155945597D01*
X97950566Y-155939601D01*
X97928548Y-155932446D01*
X97894392Y-155915043D01*
X97875665Y-155901437D01*
X97848564Y-155874336D01*
X97834955Y-155855605D01*
X97817552Y-155821449D01*
X97810398Y-155799433D01*
X97804402Y-155761571D01*
X97804402Y-155738423D01*
X97810399Y-155700560D01*
X97817553Y-155678544D01*
X97834954Y-155644393D01*
X97848561Y-155625665D01*
X97875666Y-155598559D01*
X97894393Y-155584954D01*
X97928546Y-155567552D01*
X97950560Y-155560399D01*
X97988426Y-155554402D01*
X98011572Y-155554402D01*
X98049435Y-155560398D01*
G37*
%TD.AperFunction*%
%TA.AperFunction,Conductor*%
G36*
X98749437Y-150517899D02*
G01*
X98771451Y-150525052D01*
X98805605Y-150542454D01*
X98824333Y-150556061D01*
X98851437Y-150583165D01*
X98865043Y-150601892D01*
X98882446Y-150636048D01*
X98889601Y-150658066D01*
X98895597Y-150695923D01*
X98895597Y-150719075D01*
X98889601Y-150756932D01*
X98882446Y-150778952D01*
X98865045Y-150813103D01*
X98851437Y-150831833D01*
X98824333Y-150858937D01*
X98805603Y-150872545D01*
X98771452Y-150889946D01*
X98749432Y-150897101D01*
X98711575Y-150903097D01*
X98688423Y-150903097D01*
X98650566Y-150897101D01*
X98628548Y-150889946D01*
X98594392Y-150872543D01*
X98575665Y-150858937D01*
X98548562Y-150831834D01*
X98534953Y-150813103D01*
X98524087Y-150791777D01*
X98524085Y-150791773D01*
X98517549Y-150778946D01*
X98510399Y-150756936D01*
X98504402Y-150719072D01*
X98504402Y-150695923D01*
X98510399Y-150658060D01*
X98517553Y-150636044D01*
X98527175Y-150617161D01*
X98534954Y-150601892D01*
X98548561Y-150583165D01*
X98575666Y-150556059D01*
X98594393Y-150542454D01*
X98594395Y-150542453D01*
X98628546Y-150525052D01*
X98650560Y-150517899D01*
X98688426Y-150511902D01*
X98711572Y-150511902D01*
X98749437Y-150517899D01*
G37*
%TD.AperFunction*%
%TA.AperFunction,Conductor*%
G36*
X98449435Y-147882899D02*
G01*
X98471453Y-147890054D01*
X98505604Y-147907455D01*
X98524334Y-147921063D01*
X98551437Y-147948166D01*
X98565043Y-147966893D01*
X98582446Y-148001049D01*
X98589601Y-148023067D01*
X98595597Y-148060924D01*
X98595597Y-148084076D01*
X98589601Y-148121933D01*
X98582446Y-148143953D01*
X98565045Y-148178104D01*
X98551437Y-148196834D01*
X98524333Y-148223938D01*
X98505603Y-148237546D01*
X98471452Y-148254947D01*
X98449432Y-148262102D01*
X98411575Y-148268098D01*
X98388423Y-148268098D01*
X98350566Y-148262102D01*
X98328548Y-148254947D01*
X98294392Y-148237544D01*
X98275665Y-148223938D01*
X98248562Y-148196835D01*
X98234952Y-148178101D01*
X98233068Y-148174403D01*
X98233068Y-148174404D01*
X98217551Y-148143950D01*
X98210398Y-148121933D01*
X98208441Y-148109579D01*
X98204402Y-148084073D01*
X98204402Y-148060924D01*
X98210399Y-148023061D01*
X98217553Y-148001045D01*
X98234954Y-147966894D01*
X98248561Y-147948166D01*
X98275666Y-147921060D01*
X98294393Y-147907455D01*
X98308734Y-147900148D01*
X98328546Y-147890053D01*
X98350560Y-147882900D01*
X98388426Y-147876903D01*
X98411572Y-147876903D01*
X98449435Y-147882899D01*
G37*
%TD.AperFunction*%
%TD*%
%TA.AperFunction,Conductor*%
%TO.N,+3V3*%
G36*
X84978326Y-157021674D02*
G01*
X85000000Y-157074000D01*
X85000000Y-159206473D01*
X84991935Y-159240068D01*
X84962499Y-159297838D01*
X84945131Y-159407500D01*
X84962499Y-159517157D01*
X84962499Y-159517158D01*
X84962499Y-159517159D01*
X84962500Y-159517161D01*
X84991935Y-159574930D01*
X85000000Y-159608525D01*
X85000000Y-159906474D01*
X84991935Y-159940069D01*
X84962499Y-159997839D01*
X84945131Y-160107501D01*
X84962499Y-160217158D01*
X84962499Y-160217159D01*
X84962499Y-160217160D01*
X84962500Y-160217162D01*
X84991935Y-160274931D01*
X85000000Y-160308526D01*
X85000000Y-160706473D01*
X84991935Y-160740068D01*
X84962499Y-160797838D01*
X84945131Y-160907500D01*
X84962499Y-161017157D01*
X84962499Y-161017158D01*
X84962499Y-161017159D01*
X84962500Y-161017161D01*
X84991935Y-161074930D01*
X85000000Y-161108525D01*
X85000000Y-161598973D01*
X84991935Y-161632568D01*
X84962499Y-161690338D01*
X84945131Y-161800000D01*
X84962499Y-161909657D01*
X84962499Y-161909658D01*
X84962499Y-161909659D01*
X84962500Y-161909661D01*
X84989423Y-161962500D01*
X84991935Y-161967430D01*
X85000000Y-162001025D01*
X85000000Y-162401629D01*
X84988916Y-162440585D01*
X84885655Y-162607358D01*
X84885650Y-162607368D01*
X84811977Y-162797540D01*
X84774500Y-162998020D01*
X84774500Y-165425500D01*
X84752826Y-165477826D01*
X84700500Y-165499500D01*
X82649500Y-165499500D01*
X82597174Y-165477826D01*
X82575500Y-165425500D01*
X82575500Y-162412472D01*
X82575499Y-162412464D01*
X82555669Y-162300000D01*
X83645131Y-162300000D01*
X83662499Y-162409660D01*
X83712905Y-162508587D01*
X83791415Y-162587097D01*
X83795596Y-162590135D01*
X83825186Y-162638427D01*
X83811962Y-162693499D01*
X83795596Y-162709865D01*
X83791415Y-162712902D01*
X83712905Y-162791412D01*
X83662499Y-162890339D01*
X83645131Y-163000000D01*
X83662499Y-163109660D01*
X83662500Y-163109661D01*
X83712905Y-163208587D01*
X83791413Y-163287095D01*
X83890339Y-163337500D01*
X84000000Y-163354869D01*
X84109661Y-163337500D01*
X84208587Y-163287095D01*
X84287095Y-163208587D01*
X84337500Y-163109661D01*
X84354869Y-163000000D01*
X84337500Y-162890339D01*
X84287095Y-162791413D01*
X84208587Y-162712905D01*
X84208586Y-162712904D01*
X84204407Y-162709868D01*
X84174813Y-162661577D01*
X84188034Y-162606505D01*
X84204407Y-162590132D01*
X84208583Y-162587096D01*
X84208587Y-162587095D01*
X84287095Y-162508587D01*
X84337500Y-162409661D01*
X84354869Y-162300000D01*
X84337500Y-162190339D01*
X84287095Y-162091413D01*
X84208587Y-162012905D01*
X84185271Y-162001025D01*
X84109660Y-161962499D01*
X84000000Y-161945131D01*
X83890339Y-161962499D01*
X83791412Y-162012905D01*
X83712905Y-162091412D01*
X83662499Y-162190339D01*
X83645131Y-162300000D01*
X82555669Y-162300000D01*
X82552713Y-162283236D01*
X82545101Y-162240062D01*
X82485225Y-162075555D01*
X82397692Y-161923945D01*
X82285163Y-161789837D01*
X82151055Y-161677308D01*
X81999445Y-161589775D01*
X81999443Y-161589774D01*
X81999441Y-161589773D01*
X81834937Y-161529898D01*
X81662535Y-161499500D01*
X81662532Y-161499500D01*
X81640892Y-161499500D01*
X81574500Y-161499500D01*
X81522174Y-161477826D01*
X81500500Y-161425500D01*
X81500500Y-159600000D01*
X83145131Y-159600000D01*
X83162499Y-159709660D01*
X83212905Y-159808587D01*
X83291413Y-159887095D01*
X83390339Y-159937500D01*
X83500000Y-159954869D01*
X83609661Y-159937500D01*
X83708587Y-159887095D01*
X83787095Y-159808587D01*
X83837500Y-159709661D01*
X83854869Y-159600000D01*
X83837500Y-159490339D01*
X83787095Y-159391413D01*
X83708587Y-159312905D01*
X83679016Y-159297838D01*
X83609660Y-159262499D01*
X83500000Y-159245131D01*
X83390339Y-159262499D01*
X83291412Y-159312905D01*
X83212905Y-159391412D01*
X83162499Y-159490339D01*
X83145131Y-159600000D01*
X81500500Y-159600000D01*
X81500500Y-157800000D01*
X83045131Y-157800000D01*
X83062499Y-157909660D01*
X83062500Y-157909661D01*
X83112905Y-158008587D01*
X83191413Y-158087095D01*
X83290339Y-158137500D01*
X83400000Y-158154869D01*
X83509661Y-158137500D01*
X83608587Y-158087095D01*
X83687095Y-158008587D01*
X83737500Y-157909661D01*
X83754869Y-157800000D01*
X83737500Y-157690339D01*
X83687095Y-157591413D01*
X83608587Y-157512905D01*
X83509660Y-157462499D01*
X83400000Y-157445131D01*
X83290339Y-157462499D01*
X83191412Y-157512905D01*
X83112905Y-157591412D01*
X83062499Y-157690339D01*
X83045131Y-157800000D01*
X81500500Y-157800000D01*
X81500500Y-157074000D01*
X81522174Y-157021674D01*
X81574500Y-157000000D01*
X84926000Y-157000000D01*
X84978326Y-157021674D01*
G37*
%TD.AperFunction*%
%TD*%
%TA.AperFunction,Conductor*%
%TO.N,+1V0_core*%
G36*
X94934255Y-146129174D02*
G01*
X94955018Y-146169924D01*
X94962499Y-146217160D01*
X94962500Y-146217161D01*
X95012905Y-146316087D01*
X95091413Y-146394595D01*
X95190339Y-146445000D01*
X95300000Y-146462369D01*
X95409661Y-146445000D01*
X95508587Y-146394595D01*
X95587095Y-146316087D01*
X95637500Y-146217161D01*
X95644982Y-146169924D01*
X95674575Y-146121633D01*
X95718071Y-146107500D01*
X96498975Y-146107500D01*
X96532568Y-146115564D01*
X96590339Y-146145000D01*
X96700000Y-146162369D01*
X96809661Y-146145000D01*
X96867431Y-146115564D01*
X96901025Y-146107500D01*
X97738725Y-146107500D01*
X97791051Y-146129174D01*
X97812725Y-146181500D01*
X97804660Y-146215095D01*
X97762499Y-146297839D01*
X97745131Y-146407500D01*
X97762499Y-146517160D01*
X97804154Y-146598912D01*
X97812905Y-146616087D01*
X97891413Y-146694595D01*
X97990339Y-146745000D01*
X98100000Y-146762369D01*
X98209661Y-146745000D01*
X98308587Y-146694595D01*
X98387095Y-146616087D01*
X98437500Y-146517161D01*
X98454869Y-146407500D01*
X98437500Y-146297839D01*
X98395339Y-146215094D01*
X98390897Y-146158633D01*
X98427680Y-146115565D01*
X98461275Y-146107500D01*
X99926000Y-146107500D01*
X99978326Y-146129174D01*
X100000000Y-146181500D01*
X100000000Y-158433166D01*
X99978326Y-158485492D01*
X99926000Y-158507166D01*
X99873674Y-158485492D01*
X99808587Y-158420405D01*
X99709660Y-158369999D01*
X99600000Y-158352631D01*
X99490339Y-158369999D01*
X99391412Y-158420405D01*
X99312905Y-158498912D01*
X99262499Y-158597839D01*
X99245131Y-158707500D01*
X99262499Y-158817160D01*
X99304660Y-158899905D01*
X99309103Y-158956367D01*
X99272320Y-158999435D01*
X99238725Y-159007500D01*
X85674334Y-159007500D01*
X85622008Y-158985826D01*
X85600334Y-158933500D01*
X85622008Y-158881174D01*
X85644500Y-158858682D01*
X85687095Y-158816087D01*
X85737500Y-158717161D01*
X85754869Y-158607500D01*
X85737500Y-158497839D01*
X85687095Y-158398913D01*
X85608587Y-158320405D01*
X85557930Y-158294594D01*
X85509660Y-158269999D01*
X85400000Y-158252631D01*
X85290339Y-158269999D01*
X85263095Y-158283881D01*
X85206632Y-158288324D01*
X85163565Y-158251541D01*
X85155500Y-158217946D01*
X85155500Y-157900000D01*
X87180130Y-157900000D01*
X87197498Y-158009660D01*
X87197499Y-158009661D01*
X87247904Y-158108587D01*
X87326412Y-158187095D01*
X87425338Y-158237500D01*
X87534999Y-158254869D01*
X87644660Y-158237500D01*
X87743586Y-158187095D01*
X87822094Y-158108587D01*
X87872499Y-158009661D01*
X87872841Y-158007500D01*
X90445131Y-158007500D01*
X90462499Y-158117160D01*
X90462500Y-158117161D01*
X90512905Y-158216087D01*
X90591413Y-158294595D01*
X90690339Y-158345000D01*
X90800000Y-158362369D01*
X90909661Y-158345000D01*
X91008587Y-158294595D01*
X91087095Y-158216087D01*
X91137500Y-158117161D01*
X91154869Y-158007500D01*
X91137842Y-157900000D01*
X94545131Y-157900000D01*
X94562499Y-158009660D01*
X94562500Y-158009661D01*
X94612905Y-158108587D01*
X94691413Y-158187095D01*
X94790339Y-158237500D01*
X94900000Y-158254869D01*
X95009661Y-158237500D01*
X95108587Y-158187095D01*
X95187095Y-158108587D01*
X95237500Y-158009661D01*
X95239030Y-158000000D01*
X97210132Y-158000000D01*
X97227500Y-158109660D01*
X97231322Y-158117161D01*
X97277906Y-158208587D01*
X97356414Y-158287095D01*
X97455340Y-158337500D01*
X97565001Y-158354869D01*
X97674662Y-158337500D01*
X97773588Y-158287095D01*
X97852096Y-158208587D01*
X97902501Y-158109661D01*
X97919870Y-158000000D01*
X97902501Y-157890339D01*
X97852096Y-157791413D01*
X97773588Y-157712905D01*
X97737001Y-157694263D01*
X97674661Y-157662499D01*
X97565001Y-157645131D01*
X97455340Y-157662499D01*
X97356413Y-157712905D01*
X97277906Y-157791412D01*
X97227500Y-157890339D01*
X97210132Y-158000000D01*
X95239030Y-158000000D01*
X95254869Y-157900000D01*
X95237500Y-157790339D01*
X95187095Y-157691413D01*
X95108587Y-157612905D01*
X95102218Y-157609660D01*
X95009660Y-157562499D01*
X94900000Y-157545131D01*
X94790339Y-157562499D01*
X94691412Y-157612905D01*
X94612905Y-157691412D01*
X94562499Y-157790339D01*
X94545131Y-157900000D01*
X91137842Y-157900000D01*
X91137500Y-157897839D01*
X91087095Y-157798913D01*
X91008587Y-157720405D01*
X90978333Y-157704990D01*
X90909660Y-157669999D01*
X90800000Y-157652631D01*
X90690339Y-157669999D01*
X90591412Y-157720405D01*
X90512905Y-157798912D01*
X90462499Y-157897839D01*
X90445131Y-158007500D01*
X87872841Y-158007500D01*
X87889868Y-157900000D01*
X87872499Y-157790339D01*
X87822094Y-157691413D01*
X87743586Y-157612905D01*
X87737217Y-157609660D01*
X87644659Y-157562499D01*
X87534999Y-157545131D01*
X87425338Y-157562499D01*
X87326411Y-157612905D01*
X87247904Y-157691412D01*
X87197498Y-157790339D01*
X87180130Y-157900000D01*
X85155500Y-157900000D01*
X85155500Y-157081500D01*
X85177174Y-157029174D01*
X85229500Y-157007500D01*
X93834904Y-157007500D01*
X93887230Y-157029174D01*
X93908904Y-157081500D01*
X93900838Y-157115096D01*
X93862499Y-157190338D01*
X93845131Y-157300000D01*
X93862499Y-157409660D01*
X93862500Y-157409661D01*
X93912905Y-157508587D01*
X93991413Y-157587095D01*
X94090339Y-157637500D01*
X94200000Y-157654869D01*
X94309661Y-157637500D01*
X94408587Y-157587095D01*
X94487095Y-157508587D01*
X94491470Y-157500000D01*
X98080130Y-157500000D01*
X98097498Y-157609660D01*
X98128243Y-157670000D01*
X98147904Y-157708587D01*
X98226412Y-157787095D01*
X98325338Y-157837500D01*
X98434999Y-157854869D01*
X98544660Y-157837500D01*
X98606076Y-157806206D01*
X98662537Y-157801763D01*
X98705605Y-157838545D01*
X98710049Y-157895007D01*
X98705606Y-157905736D01*
X98662499Y-157990339D01*
X98645131Y-158100000D01*
X98662499Y-158209660D01*
X98705775Y-158294594D01*
X98712905Y-158308587D01*
X98791413Y-158387095D01*
X98890339Y-158437500D01*
X99000000Y-158454869D01*
X99109661Y-158437500D01*
X99208587Y-158387095D01*
X99287095Y-158308587D01*
X99337500Y-158209661D01*
X99354869Y-158100000D01*
X99337500Y-157990339D01*
X99287095Y-157891413D01*
X99208587Y-157812905D01*
X99195441Y-157806207D01*
X99109660Y-157762499D01*
X99000000Y-157745131D01*
X98890339Y-157762499D01*
X98828922Y-157793793D01*
X98772459Y-157798236D01*
X98729392Y-157761453D01*
X98724949Y-157704990D01*
X98729393Y-157694263D01*
X98772498Y-157609663D01*
X98772498Y-157609662D01*
X98772499Y-157609661D01*
X98789868Y-157500000D01*
X98772499Y-157390339D01*
X98722094Y-157291413D01*
X98643586Y-157212905D01*
X98635111Y-157208587D01*
X98544659Y-157162499D01*
X98434999Y-157145131D01*
X98325338Y-157162499D01*
X98226411Y-157212905D01*
X98147904Y-157291412D01*
X98097498Y-157390339D01*
X98080130Y-157500000D01*
X94491470Y-157500000D01*
X94537500Y-157409661D01*
X94554869Y-157300000D01*
X94537500Y-157190339D01*
X94537500Y-157190338D01*
X94499162Y-157115096D01*
X94494718Y-157058633D01*
X94531500Y-157015566D01*
X94565096Y-157007500D01*
X95483117Y-157007500D01*
X95535443Y-157029174D01*
X95556205Y-157069922D01*
X95562500Y-157109661D01*
X95612905Y-157208587D01*
X95691413Y-157287095D01*
X95790339Y-157337500D01*
X95900000Y-157354869D01*
X96009661Y-157337500D01*
X96108587Y-157287095D01*
X96187095Y-157208587D01*
X96237500Y-157109661D01*
X96243794Y-157069922D01*
X96273387Y-157021633D01*
X96316883Y-157007500D01*
X97000000Y-157007500D01*
X97000000Y-155750000D01*
X97645131Y-155750000D01*
X97662499Y-155859660D01*
X97662500Y-155859661D01*
X97712905Y-155958587D01*
X97791413Y-156037095D01*
X97890339Y-156087500D01*
X98000000Y-156104869D01*
X98109661Y-156087500D01*
X98208587Y-156037095D01*
X98287095Y-155958587D01*
X98337500Y-155859661D01*
X98354869Y-155750000D01*
X98337500Y-155640339D01*
X98287095Y-155541413D01*
X98208587Y-155462905D01*
X98109660Y-155412499D01*
X98000000Y-155395131D01*
X97890339Y-155412499D01*
X97791412Y-155462905D01*
X97712905Y-155541412D01*
X97662499Y-155640339D01*
X97645131Y-155750000D01*
X97000000Y-155750000D01*
X97000000Y-153668070D01*
X97021674Y-153615744D01*
X97062423Y-153594981D01*
X97109661Y-153587500D01*
X97208587Y-153537095D01*
X97287095Y-153458587D01*
X97337500Y-153359661D01*
X97354869Y-153250000D01*
X97337500Y-153140339D01*
X97287095Y-153041413D01*
X97208587Y-152962905D01*
X97109660Y-152912499D01*
X97062424Y-152905018D01*
X97014133Y-152875425D01*
X97000000Y-152831929D01*
X97000000Y-150707500D01*
X98345131Y-150707500D01*
X98362499Y-150817160D01*
X98385534Y-150862369D01*
X98412905Y-150916087D01*
X98491413Y-150994595D01*
X98590339Y-151045000D01*
X98700000Y-151062369D01*
X98809661Y-151045000D01*
X98908587Y-150994595D01*
X98987095Y-150916087D01*
X99037500Y-150817161D01*
X99054869Y-150707500D01*
X99037500Y-150597839D01*
X98987095Y-150498913D01*
X98908587Y-150420405D01*
X98902220Y-150417161D01*
X98809660Y-150369999D01*
X98700000Y-150352631D01*
X98590339Y-150369999D01*
X98491412Y-150420405D01*
X98412905Y-150498912D01*
X98362499Y-150597839D01*
X98345131Y-150707500D01*
X97000000Y-150707500D01*
X97000000Y-148942499D01*
X98045131Y-148942499D01*
X98062499Y-149052159D01*
X98062500Y-149052160D01*
X98112905Y-149151086D01*
X98191413Y-149229594D01*
X98290339Y-149279999D01*
X98400000Y-149297368D01*
X98509661Y-149279999D01*
X98608587Y-149229594D01*
X98687095Y-149151086D01*
X98737500Y-149052160D01*
X98754869Y-148942499D01*
X98737500Y-148832838D01*
X98687095Y-148733912D01*
X98608587Y-148655404D01*
X98603145Y-148652631D01*
X98509660Y-148604998D01*
X98400000Y-148587630D01*
X98290339Y-148604998D01*
X98191412Y-148655404D01*
X98112905Y-148733911D01*
X98062499Y-148832838D01*
X98045131Y-148942499D01*
X97000000Y-148942499D01*
X97000000Y-148072501D01*
X98045131Y-148072501D01*
X98062499Y-148182161D01*
X98094517Y-148245000D01*
X98112905Y-148281088D01*
X98191413Y-148359596D01*
X98290339Y-148410001D01*
X98400000Y-148427370D01*
X98509661Y-148410001D01*
X98608587Y-148359596D01*
X98687095Y-148281088D01*
X98737500Y-148182162D01*
X98754869Y-148072501D01*
X98737500Y-147962840D01*
X98687095Y-147863914D01*
X98608587Y-147785406D01*
X98509660Y-147735000D01*
X98400000Y-147717632D01*
X98290339Y-147735000D01*
X98191412Y-147785406D01*
X98112905Y-147863913D01*
X98062499Y-147962840D01*
X98045131Y-148072501D01*
X97000000Y-148072501D01*
X97000000Y-148007500D01*
X95325673Y-148007500D01*
X95273347Y-147985826D01*
X95251673Y-147933500D01*
X95252583Y-147921931D01*
X95254869Y-147907500D01*
X95237500Y-147797839D01*
X95187095Y-147698913D01*
X95108587Y-147620405D01*
X95078096Y-147604869D01*
X95009660Y-147569999D01*
X94900000Y-147552631D01*
X94790339Y-147569999D01*
X94691412Y-147620405D01*
X94612905Y-147698912D01*
X94562499Y-147797839D01*
X94545131Y-147907498D01*
X94545131Y-147907500D01*
X94547415Y-147921923D01*
X94534195Y-147976995D01*
X94485905Y-148006589D01*
X94474327Y-148007500D01*
X92074000Y-148007500D01*
X92021674Y-147985826D01*
X92000000Y-147933500D01*
X92000000Y-147660271D01*
X92021674Y-147607945D01*
X92040405Y-147594336D01*
X92108587Y-147559596D01*
X92187095Y-147481088D01*
X92237500Y-147382162D01*
X92254869Y-147272501D01*
X92244574Y-147207500D01*
X98345131Y-147207500D01*
X98362499Y-147317160D01*
X98395619Y-147382161D01*
X98412905Y-147416087D01*
X98491413Y-147494595D01*
X98590339Y-147545000D01*
X98700000Y-147562369D01*
X98809661Y-147545000D01*
X98908587Y-147494595D01*
X98987095Y-147416087D01*
X99037500Y-147317161D01*
X99054869Y-147207500D01*
X99037500Y-147097839D01*
X98987095Y-146998913D01*
X98908587Y-146920405D01*
X98902218Y-146917160D01*
X98809660Y-146869999D01*
X98700000Y-146852631D01*
X98590339Y-146869999D01*
X98491412Y-146920405D01*
X98412905Y-146998912D01*
X98362499Y-147097839D01*
X98345131Y-147207500D01*
X92244574Y-147207500D01*
X92237500Y-147162840D01*
X92187095Y-147063914D01*
X92108587Y-146985406D01*
X92040404Y-146950665D01*
X92003622Y-146907599D01*
X92000000Y-146884731D01*
X92000000Y-146807500D01*
X95645131Y-146807500D01*
X95662499Y-146917160D01*
X95697272Y-146985406D01*
X95712905Y-147016087D01*
X95791413Y-147094595D01*
X95890339Y-147145000D01*
X96000000Y-147162369D01*
X96109661Y-147145000D01*
X96208587Y-147094595D01*
X96287095Y-147016087D01*
X96337500Y-146917161D01*
X96354869Y-146807500D01*
X96337500Y-146697839D01*
X96287095Y-146598913D01*
X96208587Y-146520405D01*
X96194256Y-146513103D01*
X96109660Y-146469999D01*
X96000000Y-146452631D01*
X95890339Y-146469999D01*
X95791412Y-146520405D01*
X95712905Y-146598912D01*
X95662499Y-146697839D01*
X95645131Y-146807500D01*
X92000000Y-146807500D01*
X92000000Y-146513103D01*
X92021674Y-146460777D01*
X92040405Y-146447168D01*
X92044659Y-146445000D01*
X92044661Y-146445000D01*
X92143587Y-146394595D01*
X92222095Y-146316087D01*
X92272500Y-146217161D01*
X92279982Y-146169924D01*
X92309575Y-146121633D01*
X92353071Y-146107500D01*
X94881929Y-146107500D01*
X94934255Y-146129174D01*
G37*
%TD.AperFunction*%
%TD*%
M02*
