%TF.GenerationSoftware,KiCad,Pcbnew,8.0.6*%
%TF.CreationDate,2024-11-25T22:35:05+01:00*%
%TF.ProjectId,M2SmartHome,4d32536d-6172-4744-986f-6d652e6b6963,rev?*%
%TF.SameCoordinates,Original*%
%TF.FileFunction,Legend,Bot*%
%TF.FilePolarity,Positive*%
%FSLAX46Y46*%
G04 Gerber Fmt 4.6, Leading zero omitted, Abs format (unit mm)*
G04 Created by KiCad (PCBNEW 8.0.6) date 2024-11-25 22:35:05*
%MOMM*%
%LPD*%
G01*
G04 APERTURE LIST*
%ADD10C,0.150000*%
%ADD11C,0.120000*%
%ADD12C,0.152400*%
%ADD13C,0.127000*%
%ADD14C,0.200000*%
G04 APERTURE END LIST*
D10*
X92074166Y-124593276D02*
X92287500Y-124288514D01*
X92439881Y-124593276D02*
X92439881Y-123953276D01*
X92439881Y-123953276D02*
X92196071Y-123953276D01*
X92196071Y-123953276D02*
X92135119Y-123983752D01*
X92135119Y-123983752D02*
X92104642Y-124014228D01*
X92104642Y-124014228D02*
X92074166Y-124075180D01*
X92074166Y-124075180D02*
X92074166Y-124166609D01*
X92074166Y-124166609D02*
X92104642Y-124227561D01*
X92104642Y-124227561D02*
X92135119Y-124258038D01*
X92135119Y-124258038D02*
X92196071Y-124288514D01*
X92196071Y-124288514D02*
X92439881Y-124288514D01*
X91525595Y-124166609D02*
X91525595Y-124593276D01*
X91677976Y-123922800D02*
X91830357Y-124379942D01*
X91830357Y-124379942D02*
X91434166Y-124379942D01*
X96388276Y-147496071D02*
X96083514Y-147282737D01*
X96388276Y-147130356D02*
X95748276Y-147130356D01*
X95748276Y-147130356D02*
X95748276Y-147374166D01*
X95748276Y-147374166D02*
X95778752Y-147435118D01*
X95778752Y-147435118D02*
X95809228Y-147465595D01*
X95809228Y-147465595D02*
X95870180Y-147496071D01*
X95870180Y-147496071D02*
X95961609Y-147496071D01*
X95961609Y-147496071D02*
X96022561Y-147465595D01*
X96022561Y-147465595D02*
X96053038Y-147435118D01*
X96053038Y-147435118D02*
X96083514Y-147374166D01*
X96083514Y-147374166D02*
X96083514Y-147130356D01*
X95961609Y-148044642D02*
X96388276Y-148044642D01*
X95717800Y-147892261D02*
X96174942Y-147739880D01*
X96174942Y-147739880D02*
X96174942Y-148136071D01*
X95748276Y-148654166D02*
X95748276Y-148532261D01*
X95748276Y-148532261D02*
X95778752Y-148471309D01*
X95778752Y-148471309D02*
X95809228Y-148440833D01*
X95809228Y-148440833D02*
X95900657Y-148379880D01*
X95900657Y-148379880D02*
X96022561Y-148349404D01*
X96022561Y-148349404D02*
X96266371Y-148349404D01*
X96266371Y-148349404D02*
X96327323Y-148379880D01*
X96327323Y-148379880D02*
X96357800Y-148410357D01*
X96357800Y-148410357D02*
X96388276Y-148471309D01*
X96388276Y-148471309D02*
X96388276Y-148593214D01*
X96388276Y-148593214D02*
X96357800Y-148654166D01*
X96357800Y-148654166D02*
X96327323Y-148684642D01*
X96327323Y-148684642D02*
X96266371Y-148715119D01*
X96266371Y-148715119D02*
X96113990Y-148715119D01*
X96113990Y-148715119D02*
X96053038Y-148684642D01*
X96053038Y-148684642D02*
X96022561Y-148654166D01*
X96022561Y-148654166D02*
X95992085Y-148593214D01*
X95992085Y-148593214D02*
X95992085Y-148471309D01*
X95992085Y-148471309D02*
X96022561Y-148410357D01*
X96022561Y-148410357D02*
X96053038Y-148379880D01*
X96053038Y-148379880D02*
X96113990Y-148349404D01*
X96127323Y-136696071D02*
X96157800Y-136665595D01*
X96157800Y-136665595D02*
X96188276Y-136574166D01*
X96188276Y-136574166D02*
X96188276Y-136513214D01*
X96188276Y-136513214D02*
X96157800Y-136421785D01*
X96157800Y-136421785D02*
X96096847Y-136360833D01*
X96096847Y-136360833D02*
X96035895Y-136330356D01*
X96035895Y-136330356D02*
X95913990Y-136299880D01*
X95913990Y-136299880D02*
X95822561Y-136299880D01*
X95822561Y-136299880D02*
X95700657Y-136330356D01*
X95700657Y-136330356D02*
X95639704Y-136360833D01*
X95639704Y-136360833D02*
X95578752Y-136421785D01*
X95578752Y-136421785D02*
X95548276Y-136513214D01*
X95548276Y-136513214D02*
X95548276Y-136574166D01*
X95548276Y-136574166D02*
X95578752Y-136665595D01*
X95578752Y-136665595D02*
X95609228Y-136696071D01*
X95548276Y-136909404D02*
X95548276Y-137305595D01*
X95548276Y-137305595D02*
X95792085Y-137092261D01*
X95792085Y-137092261D02*
X95792085Y-137183690D01*
X95792085Y-137183690D02*
X95822561Y-137244642D01*
X95822561Y-137244642D02*
X95853038Y-137275118D01*
X95853038Y-137275118D02*
X95913990Y-137305595D01*
X95913990Y-137305595D02*
X96066371Y-137305595D01*
X96066371Y-137305595D02*
X96127323Y-137275118D01*
X96127323Y-137275118D02*
X96157800Y-137244642D01*
X96157800Y-137244642D02*
X96188276Y-137183690D01*
X96188276Y-137183690D02*
X96188276Y-137000833D01*
X96188276Y-137000833D02*
X96157800Y-136939880D01*
X96157800Y-136939880D02*
X96127323Y-136909404D01*
X95761609Y-137854166D02*
X96188276Y-137854166D01*
X95517800Y-137701785D02*
X95974942Y-137549404D01*
X95974942Y-137549404D02*
X95974942Y-137945595D01*
X81788276Y-117296071D02*
X81483514Y-117082737D01*
X81788276Y-116930356D02*
X81148276Y-116930356D01*
X81148276Y-116930356D02*
X81148276Y-117174166D01*
X81148276Y-117174166D02*
X81178752Y-117235118D01*
X81178752Y-117235118D02*
X81209228Y-117265595D01*
X81209228Y-117265595D02*
X81270180Y-117296071D01*
X81270180Y-117296071D02*
X81361609Y-117296071D01*
X81361609Y-117296071D02*
X81422561Y-117265595D01*
X81422561Y-117265595D02*
X81453038Y-117235118D01*
X81453038Y-117235118D02*
X81483514Y-117174166D01*
X81483514Y-117174166D02*
X81483514Y-116930356D01*
X81788276Y-117905595D02*
X81788276Y-117539880D01*
X81788276Y-117722737D02*
X81148276Y-117722737D01*
X81148276Y-117722737D02*
X81239704Y-117661785D01*
X81239704Y-117661785D02*
X81300657Y-117600833D01*
X81300657Y-117600833D02*
X81331133Y-117539880D01*
X81788276Y-118210357D02*
X81788276Y-118332261D01*
X81788276Y-118332261D02*
X81757800Y-118393214D01*
X81757800Y-118393214D02*
X81727323Y-118423690D01*
X81727323Y-118423690D02*
X81635895Y-118484642D01*
X81635895Y-118484642D02*
X81513990Y-118515119D01*
X81513990Y-118515119D02*
X81270180Y-118515119D01*
X81270180Y-118515119D02*
X81209228Y-118484642D01*
X81209228Y-118484642D02*
X81178752Y-118454166D01*
X81178752Y-118454166D02*
X81148276Y-118393214D01*
X81148276Y-118393214D02*
X81148276Y-118271309D01*
X81148276Y-118271309D02*
X81178752Y-118210357D01*
X81178752Y-118210357D02*
X81209228Y-118179880D01*
X81209228Y-118179880D02*
X81270180Y-118149404D01*
X81270180Y-118149404D02*
X81422561Y-118149404D01*
X81422561Y-118149404D02*
X81483514Y-118179880D01*
X81483514Y-118179880D02*
X81513990Y-118210357D01*
X81513990Y-118210357D02*
X81544466Y-118271309D01*
X81544466Y-118271309D02*
X81544466Y-118393214D01*
X81544466Y-118393214D02*
X81513990Y-118454166D01*
X81513990Y-118454166D02*
X81483514Y-118484642D01*
X81483514Y-118484642D02*
X81422561Y-118515119D01*
X99112380Y-159855776D02*
X98746666Y-159855776D01*
X98929523Y-160495776D02*
X98929523Y-159855776D01*
X98533333Y-160495776D02*
X98533333Y-159855776D01*
X98533333Y-159855776D02*
X98289523Y-159855776D01*
X98289523Y-159855776D02*
X98228571Y-159886252D01*
X98228571Y-159886252D02*
X98198094Y-159916728D01*
X98198094Y-159916728D02*
X98167618Y-159977680D01*
X98167618Y-159977680D02*
X98167618Y-160069109D01*
X98167618Y-160069109D02*
X98198094Y-160130061D01*
X98198094Y-160130061D02*
X98228571Y-160160538D01*
X98228571Y-160160538D02*
X98289523Y-160191014D01*
X98289523Y-160191014D02*
X98533333Y-160191014D01*
X97558094Y-160495776D02*
X97923809Y-160495776D01*
X97740952Y-160495776D02*
X97740952Y-159855776D01*
X97740952Y-159855776D02*
X97801904Y-159947204D01*
X97801904Y-159947204D02*
X97862856Y-160008157D01*
X97862856Y-160008157D02*
X97923809Y-160038633D01*
X97344761Y-159855776D02*
X96918094Y-159855776D01*
X96918094Y-159855776D02*
X97192380Y-160495776D01*
X86179428Y-136970923D02*
X86209904Y-137001400D01*
X86209904Y-137001400D02*
X86301333Y-137031876D01*
X86301333Y-137031876D02*
X86362285Y-137031876D01*
X86362285Y-137031876D02*
X86453714Y-137001400D01*
X86453714Y-137001400D02*
X86514666Y-136940447D01*
X86514666Y-136940447D02*
X86545143Y-136879495D01*
X86545143Y-136879495D02*
X86575619Y-136757590D01*
X86575619Y-136757590D02*
X86575619Y-136666161D01*
X86575619Y-136666161D02*
X86545143Y-136544257D01*
X86545143Y-136544257D02*
X86514666Y-136483304D01*
X86514666Y-136483304D02*
X86453714Y-136422352D01*
X86453714Y-136422352D02*
X86362285Y-136391876D01*
X86362285Y-136391876D02*
X86301333Y-136391876D01*
X86301333Y-136391876D02*
X86209904Y-136422352D01*
X86209904Y-136422352D02*
X86179428Y-136452828D01*
X85569904Y-137031876D02*
X85935619Y-137031876D01*
X85752762Y-137031876D02*
X85752762Y-136391876D01*
X85752762Y-136391876D02*
X85813714Y-136483304D01*
X85813714Y-136483304D02*
X85874666Y-136544257D01*
X85874666Y-136544257D02*
X85935619Y-136574733D01*
X84990857Y-136391876D02*
X85295619Y-136391876D01*
X85295619Y-136391876D02*
X85326095Y-136696638D01*
X85326095Y-136696638D02*
X85295619Y-136666161D01*
X85295619Y-136666161D02*
X85234666Y-136635685D01*
X85234666Y-136635685D02*
X85082285Y-136635685D01*
X85082285Y-136635685D02*
X85021333Y-136666161D01*
X85021333Y-136666161D02*
X84990857Y-136696638D01*
X84990857Y-136696638D02*
X84960380Y-136757590D01*
X84960380Y-136757590D02*
X84960380Y-136909971D01*
X84960380Y-136909971D02*
X84990857Y-136970923D01*
X84990857Y-136970923D02*
X85021333Y-137001400D01*
X85021333Y-137001400D02*
X85082285Y-137031876D01*
X85082285Y-137031876D02*
X85234666Y-137031876D01*
X85234666Y-137031876D02*
X85295619Y-137001400D01*
X85295619Y-137001400D02*
X85326095Y-136970923D01*
X89611428Y-158627323D02*
X89641904Y-158657800D01*
X89641904Y-158657800D02*
X89733333Y-158688276D01*
X89733333Y-158688276D02*
X89794285Y-158688276D01*
X89794285Y-158688276D02*
X89885714Y-158657800D01*
X89885714Y-158657800D02*
X89946666Y-158596847D01*
X89946666Y-158596847D02*
X89977143Y-158535895D01*
X89977143Y-158535895D02*
X90007619Y-158413990D01*
X90007619Y-158413990D02*
X90007619Y-158322561D01*
X90007619Y-158322561D02*
X89977143Y-158200657D01*
X89977143Y-158200657D02*
X89946666Y-158139704D01*
X89946666Y-158139704D02*
X89885714Y-158078752D01*
X89885714Y-158078752D02*
X89794285Y-158048276D01*
X89794285Y-158048276D02*
X89733333Y-158048276D01*
X89733333Y-158048276D02*
X89641904Y-158078752D01*
X89641904Y-158078752D02*
X89611428Y-158109228D01*
X89062857Y-158048276D02*
X89184762Y-158048276D01*
X89184762Y-158048276D02*
X89245714Y-158078752D01*
X89245714Y-158078752D02*
X89276190Y-158109228D01*
X89276190Y-158109228D02*
X89337143Y-158200657D01*
X89337143Y-158200657D02*
X89367619Y-158322561D01*
X89367619Y-158322561D02*
X89367619Y-158566371D01*
X89367619Y-158566371D02*
X89337143Y-158627323D01*
X89337143Y-158627323D02*
X89306666Y-158657800D01*
X89306666Y-158657800D02*
X89245714Y-158688276D01*
X89245714Y-158688276D02*
X89123809Y-158688276D01*
X89123809Y-158688276D02*
X89062857Y-158657800D01*
X89062857Y-158657800D02*
X89032381Y-158627323D01*
X89032381Y-158627323D02*
X89001904Y-158566371D01*
X89001904Y-158566371D02*
X89001904Y-158413990D01*
X89001904Y-158413990D02*
X89032381Y-158353038D01*
X89032381Y-158353038D02*
X89062857Y-158322561D01*
X89062857Y-158322561D02*
X89123809Y-158292085D01*
X89123809Y-158292085D02*
X89245714Y-158292085D01*
X89245714Y-158292085D02*
X89306666Y-158322561D01*
X89306666Y-158322561D02*
X89337143Y-158353038D01*
X89337143Y-158353038D02*
X89367619Y-158413990D01*
X88392380Y-158688276D02*
X88758095Y-158688276D01*
X88575238Y-158688276D02*
X88575238Y-158048276D01*
X88575238Y-158048276D02*
X88636190Y-158139704D01*
X88636190Y-158139704D02*
X88697142Y-158200657D01*
X88697142Y-158200657D02*
X88758095Y-158231133D01*
X84661428Y-101938276D02*
X84874762Y-101633514D01*
X85027143Y-101938276D02*
X85027143Y-101298276D01*
X85027143Y-101298276D02*
X84783333Y-101298276D01*
X84783333Y-101298276D02*
X84722381Y-101328752D01*
X84722381Y-101328752D02*
X84691904Y-101359228D01*
X84691904Y-101359228D02*
X84661428Y-101420180D01*
X84661428Y-101420180D02*
X84661428Y-101511609D01*
X84661428Y-101511609D02*
X84691904Y-101572561D01*
X84691904Y-101572561D02*
X84722381Y-101603038D01*
X84722381Y-101603038D02*
X84783333Y-101633514D01*
X84783333Y-101633514D02*
X85027143Y-101633514D01*
X84448095Y-101298276D02*
X84051904Y-101298276D01*
X84051904Y-101298276D02*
X84265238Y-101542085D01*
X84265238Y-101542085D02*
X84173809Y-101542085D01*
X84173809Y-101542085D02*
X84112857Y-101572561D01*
X84112857Y-101572561D02*
X84082381Y-101603038D01*
X84082381Y-101603038D02*
X84051904Y-101663990D01*
X84051904Y-101663990D02*
X84051904Y-101816371D01*
X84051904Y-101816371D02*
X84082381Y-101877323D01*
X84082381Y-101877323D02*
X84112857Y-101907800D01*
X84112857Y-101907800D02*
X84173809Y-101938276D01*
X84173809Y-101938276D02*
X84356666Y-101938276D01*
X84356666Y-101938276D02*
X84417619Y-101907800D01*
X84417619Y-101907800D02*
X84448095Y-101877323D01*
X83686190Y-101572561D02*
X83747142Y-101542085D01*
X83747142Y-101542085D02*
X83777619Y-101511609D01*
X83777619Y-101511609D02*
X83808095Y-101450657D01*
X83808095Y-101450657D02*
X83808095Y-101420180D01*
X83808095Y-101420180D02*
X83777619Y-101359228D01*
X83777619Y-101359228D02*
X83747142Y-101328752D01*
X83747142Y-101328752D02*
X83686190Y-101298276D01*
X83686190Y-101298276D02*
X83564285Y-101298276D01*
X83564285Y-101298276D02*
X83503333Y-101328752D01*
X83503333Y-101328752D02*
X83472857Y-101359228D01*
X83472857Y-101359228D02*
X83442380Y-101420180D01*
X83442380Y-101420180D02*
X83442380Y-101450657D01*
X83442380Y-101450657D02*
X83472857Y-101511609D01*
X83472857Y-101511609D02*
X83503333Y-101542085D01*
X83503333Y-101542085D02*
X83564285Y-101572561D01*
X83564285Y-101572561D02*
X83686190Y-101572561D01*
X83686190Y-101572561D02*
X83747142Y-101603038D01*
X83747142Y-101603038D02*
X83777619Y-101633514D01*
X83777619Y-101633514D02*
X83808095Y-101694466D01*
X83808095Y-101694466D02*
X83808095Y-101816371D01*
X83808095Y-101816371D02*
X83777619Y-101877323D01*
X83777619Y-101877323D02*
X83747142Y-101907800D01*
X83747142Y-101907800D02*
X83686190Y-101938276D01*
X83686190Y-101938276D02*
X83564285Y-101938276D01*
X83564285Y-101938276D02*
X83503333Y-101907800D01*
X83503333Y-101907800D02*
X83472857Y-101877323D01*
X83472857Y-101877323D02*
X83442380Y-101816371D01*
X83442380Y-101816371D02*
X83442380Y-101694466D01*
X83442380Y-101694466D02*
X83472857Y-101633514D01*
X83472857Y-101633514D02*
X83503333Y-101603038D01*
X83503333Y-101603038D02*
X83564285Y-101572561D01*
X93718145Y-152011734D02*
X93718145Y-152054834D01*
X93718145Y-152054834D02*
X93761245Y-152141033D01*
X93761245Y-152141033D02*
X93804345Y-152184133D01*
X93804345Y-152184133D02*
X93890545Y-152227233D01*
X93890545Y-152227233D02*
X93976744Y-152227233D01*
X93976744Y-152227233D02*
X94041394Y-152205683D01*
X94041394Y-152205683D02*
X94149144Y-152141033D01*
X94149144Y-152141033D02*
X94213794Y-152076384D01*
X94213794Y-152076384D02*
X94278443Y-151968634D01*
X94278443Y-151968634D02*
X94299993Y-151903984D01*
X94299993Y-151903984D02*
X94299993Y-151817784D01*
X94299993Y-151817784D02*
X94256893Y-151731585D01*
X94256893Y-151731585D02*
X94213794Y-151688485D01*
X94213794Y-151688485D02*
X94127594Y-151645385D01*
X94127594Y-151645385D02*
X94084494Y-151645385D01*
X93976744Y-151451436D02*
X93675046Y-151149737D01*
X93675046Y-151149737D02*
X93416446Y-151796235D01*
X93416446Y-150891138D02*
X93373346Y-150848038D01*
X93373346Y-150848038D02*
X93308697Y-150826488D01*
X93308697Y-150826488D02*
X93265597Y-150826488D01*
X93265597Y-150826488D02*
X93200947Y-150848038D01*
X93200947Y-150848038D02*
X93093198Y-150912688D01*
X93093198Y-150912688D02*
X92985448Y-151020437D01*
X92985448Y-151020437D02*
X92920798Y-151128187D01*
X92920798Y-151128187D02*
X92899248Y-151192837D01*
X92899248Y-151192837D02*
X92899248Y-151235936D01*
X92899248Y-151235936D02*
X92920798Y-151300586D01*
X92920798Y-151300586D02*
X92963898Y-151343686D01*
X92963898Y-151343686D02*
X93028548Y-151365236D01*
X93028548Y-151365236D02*
X93071648Y-151365236D01*
X93071648Y-151365236D02*
X93136297Y-151343686D01*
X93136297Y-151343686D02*
X93244047Y-151279036D01*
X93244047Y-151279036D02*
X93351797Y-151171287D01*
X93351797Y-151171287D02*
X93416446Y-151063537D01*
X93416446Y-151063537D02*
X93437996Y-150998887D01*
X93437996Y-150998887D02*
X93437996Y-150955788D01*
X93437996Y-150955788D02*
X93416446Y-150891138D01*
X85007618Y-156155776D02*
X84641904Y-156155776D01*
X84824761Y-156795776D02*
X84824761Y-156155776D01*
X84428571Y-156795776D02*
X84428571Y-156155776D01*
X84428571Y-156155776D02*
X84184761Y-156155776D01*
X84184761Y-156155776D02*
X84123809Y-156186252D01*
X84123809Y-156186252D02*
X84093332Y-156216728D01*
X84093332Y-156216728D02*
X84062856Y-156277680D01*
X84062856Y-156277680D02*
X84062856Y-156369109D01*
X84062856Y-156369109D02*
X84093332Y-156430061D01*
X84093332Y-156430061D02*
X84123809Y-156460538D01*
X84123809Y-156460538D02*
X84184761Y-156491014D01*
X84184761Y-156491014D02*
X84428571Y-156491014D01*
X83849523Y-156155776D02*
X83453332Y-156155776D01*
X83453332Y-156155776D02*
X83666666Y-156399585D01*
X83666666Y-156399585D02*
X83575237Y-156399585D01*
X83575237Y-156399585D02*
X83514285Y-156430061D01*
X83514285Y-156430061D02*
X83483809Y-156460538D01*
X83483809Y-156460538D02*
X83453332Y-156521490D01*
X83453332Y-156521490D02*
X83453332Y-156673871D01*
X83453332Y-156673871D02*
X83483809Y-156734823D01*
X83483809Y-156734823D02*
X83514285Y-156765300D01*
X83514285Y-156765300D02*
X83575237Y-156795776D01*
X83575237Y-156795776D02*
X83758094Y-156795776D01*
X83758094Y-156795776D02*
X83819047Y-156765300D01*
X83819047Y-156765300D02*
X83849523Y-156734823D01*
X92355079Y-154308332D02*
X92505928Y-154157483D01*
X92742977Y-154394532D02*
X92290429Y-153941984D01*
X92290429Y-153941984D02*
X92074930Y-154157483D01*
X91967180Y-154696231D02*
X91924080Y-154782430D01*
X91924080Y-154782430D02*
X91924080Y-154825530D01*
X91924080Y-154825530D02*
X91945630Y-154890180D01*
X91945630Y-154890180D02*
X92010280Y-154954830D01*
X92010280Y-154954830D02*
X92074930Y-154976379D01*
X92074930Y-154976379D02*
X92118030Y-154976379D01*
X92118030Y-154976379D02*
X92182680Y-154954830D01*
X92182680Y-154954830D02*
X92355079Y-154782430D01*
X92355079Y-154782430D02*
X91902531Y-154329882D01*
X91902531Y-154329882D02*
X91751681Y-154480731D01*
X91751681Y-154480731D02*
X91730131Y-154545381D01*
X91730131Y-154545381D02*
X91730131Y-154588481D01*
X91730131Y-154588481D02*
X91751681Y-154653131D01*
X91751681Y-154653131D02*
X91794781Y-154696231D01*
X91794781Y-154696231D02*
X91859431Y-154717780D01*
X91859431Y-154717780D02*
X91902531Y-154717780D01*
X91902531Y-154717780D02*
X91967180Y-154696231D01*
X91967180Y-154696231D02*
X92118030Y-154545381D01*
X91493082Y-154739330D02*
X91212933Y-155019479D01*
X91212933Y-155019479D02*
X91536182Y-155041029D01*
X91536182Y-155041029D02*
X91471532Y-155105679D01*
X91471532Y-155105679D02*
X91449982Y-155170329D01*
X91449982Y-155170329D02*
X91449982Y-155213429D01*
X91449982Y-155213429D02*
X91471532Y-155278078D01*
X91471532Y-155278078D02*
X91579282Y-155385828D01*
X91579282Y-155385828D02*
X91643932Y-155407378D01*
X91643932Y-155407378D02*
X91687031Y-155407378D01*
X91687031Y-155407378D02*
X91751681Y-155385828D01*
X91751681Y-155385828D02*
X91880981Y-155256528D01*
X91880981Y-155256528D02*
X91902531Y-155191879D01*
X91902531Y-155191879D02*
X91902531Y-155148779D01*
X89200953Y-148956733D02*
X88896191Y-148743399D01*
X89200953Y-148591018D02*
X88560953Y-148591018D01*
X88560953Y-148591018D02*
X88560953Y-148834828D01*
X88560953Y-148834828D02*
X88591429Y-148895780D01*
X88591429Y-148895780D02*
X88621905Y-148926257D01*
X88621905Y-148926257D02*
X88682857Y-148956733D01*
X88682857Y-148956733D02*
X88774286Y-148956733D01*
X88774286Y-148956733D02*
X88835238Y-148926257D01*
X88835238Y-148926257D02*
X88865715Y-148895780D01*
X88865715Y-148895780D02*
X88896191Y-148834828D01*
X88896191Y-148834828D02*
X88896191Y-148591018D01*
X88560953Y-149505304D02*
X88560953Y-149383399D01*
X88560953Y-149383399D02*
X88591429Y-149322447D01*
X88591429Y-149322447D02*
X88621905Y-149291971D01*
X88621905Y-149291971D02*
X88713334Y-149231018D01*
X88713334Y-149231018D02*
X88835238Y-149200542D01*
X88835238Y-149200542D02*
X89079048Y-149200542D01*
X89079048Y-149200542D02*
X89140000Y-149231018D01*
X89140000Y-149231018D02*
X89170477Y-149261495D01*
X89170477Y-149261495D02*
X89200953Y-149322447D01*
X89200953Y-149322447D02*
X89200953Y-149444352D01*
X89200953Y-149444352D02*
X89170477Y-149505304D01*
X89170477Y-149505304D02*
X89140000Y-149535780D01*
X89140000Y-149535780D02*
X89079048Y-149566257D01*
X89079048Y-149566257D02*
X88926667Y-149566257D01*
X88926667Y-149566257D02*
X88865715Y-149535780D01*
X88865715Y-149535780D02*
X88835238Y-149505304D01*
X88835238Y-149505304D02*
X88804762Y-149444352D01*
X88804762Y-149444352D02*
X88804762Y-149322447D01*
X88804762Y-149322447D02*
X88835238Y-149261495D01*
X88835238Y-149261495D02*
X88865715Y-149231018D01*
X88865715Y-149231018D02*
X88926667Y-149200542D01*
X88560953Y-150145304D02*
X88560953Y-149840542D01*
X88560953Y-149840542D02*
X88865715Y-149810066D01*
X88865715Y-149810066D02*
X88835238Y-149840542D01*
X88835238Y-149840542D02*
X88804762Y-149901495D01*
X88804762Y-149901495D02*
X88804762Y-150053876D01*
X88804762Y-150053876D02*
X88835238Y-150114828D01*
X88835238Y-150114828D02*
X88865715Y-150145304D01*
X88865715Y-150145304D02*
X88926667Y-150175781D01*
X88926667Y-150175781D02*
X89079048Y-150175781D01*
X89079048Y-150175781D02*
X89140000Y-150145304D01*
X89140000Y-150145304D02*
X89170477Y-150114828D01*
X89170477Y-150114828D02*
X89200953Y-150053876D01*
X89200953Y-150053876D02*
X89200953Y-149901495D01*
X89200953Y-149901495D02*
X89170477Y-149840542D01*
X89170477Y-149840542D02*
X89140000Y-149810066D01*
X100044676Y-129096071D02*
X99739914Y-128882737D01*
X100044676Y-128730356D02*
X99404676Y-128730356D01*
X99404676Y-128730356D02*
X99404676Y-128974166D01*
X99404676Y-128974166D02*
X99435152Y-129035118D01*
X99435152Y-129035118D02*
X99465628Y-129065595D01*
X99465628Y-129065595D02*
X99526580Y-129096071D01*
X99526580Y-129096071D02*
X99618009Y-129096071D01*
X99618009Y-129096071D02*
X99678961Y-129065595D01*
X99678961Y-129065595D02*
X99709438Y-129035118D01*
X99709438Y-129035118D02*
X99739914Y-128974166D01*
X99739914Y-128974166D02*
X99739914Y-128730356D01*
X99404676Y-129309404D02*
X99404676Y-129705595D01*
X99404676Y-129705595D02*
X99648485Y-129492261D01*
X99648485Y-129492261D02*
X99648485Y-129583690D01*
X99648485Y-129583690D02*
X99678961Y-129644642D01*
X99678961Y-129644642D02*
X99709438Y-129675118D01*
X99709438Y-129675118D02*
X99770390Y-129705595D01*
X99770390Y-129705595D02*
X99922771Y-129705595D01*
X99922771Y-129705595D02*
X99983723Y-129675118D01*
X99983723Y-129675118D02*
X100014200Y-129644642D01*
X100014200Y-129644642D02*
X100044676Y-129583690D01*
X100044676Y-129583690D02*
X100044676Y-129400833D01*
X100044676Y-129400833D02*
X100014200Y-129339880D01*
X100014200Y-129339880D02*
X99983723Y-129309404D01*
X99618009Y-130254166D02*
X100044676Y-130254166D01*
X99374200Y-130101785D02*
X99831342Y-129949404D01*
X99831342Y-129949404D02*
X99831342Y-130345595D01*
X93327323Y-128596071D02*
X93357800Y-128565595D01*
X93357800Y-128565595D02*
X93388276Y-128474166D01*
X93388276Y-128474166D02*
X93388276Y-128413214D01*
X93388276Y-128413214D02*
X93357800Y-128321785D01*
X93357800Y-128321785D02*
X93296847Y-128260833D01*
X93296847Y-128260833D02*
X93235895Y-128230356D01*
X93235895Y-128230356D02*
X93113990Y-128199880D01*
X93113990Y-128199880D02*
X93022561Y-128199880D01*
X93022561Y-128199880D02*
X92900657Y-128230356D01*
X92900657Y-128230356D02*
X92839704Y-128260833D01*
X92839704Y-128260833D02*
X92778752Y-128321785D01*
X92778752Y-128321785D02*
X92748276Y-128413214D01*
X92748276Y-128413214D02*
X92748276Y-128474166D01*
X92748276Y-128474166D02*
X92778752Y-128565595D01*
X92778752Y-128565595D02*
X92809228Y-128596071D01*
X92809228Y-128839880D02*
X92778752Y-128870356D01*
X92778752Y-128870356D02*
X92748276Y-128931309D01*
X92748276Y-128931309D02*
X92748276Y-129083690D01*
X92748276Y-129083690D02*
X92778752Y-129144642D01*
X92778752Y-129144642D02*
X92809228Y-129175118D01*
X92809228Y-129175118D02*
X92870180Y-129205595D01*
X92870180Y-129205595D02*
X92931133Y-129205595D01*
X92931133Y-129205595D02*
X93022561Y-129175118D01*
X93022561Y-129175118D02*
X93388276Y-128809404D01*
X93388276Y-128809404D02*
X93388276Y-129205595D01*
X92748276Y-129418928D02*
X92748276Y-129845595D01*
X92748276Y-129845595D02*
X93388276Y-129571309D01*
X92758858Y-137995388D02*
X92909707Y-138146237D01*
X92672658Y-138383286D02*
X93125206Y-137930738D01*
X93125206Y-137930738D02*
X92909707Y-137715239D01*
X92370959Y-137607489D02*
X92284760Y-137564389D01*
X92284760Y-137564389D02*
X92241660Y-137564389D01*
X92241660Y-137564389D02*
X92177010Y-137585939D01*
X92177010Y-137585939D02*
X92112360Y-137650589D01*
X92112360Y-137650589D02*
X92090811Y-137715239D01*
X92090811Y-137715239D02*
X92090811Y-137758339D01*
X92090811Y-137758339D02*
X92112360Y-137822989D01*
X92112360Y-137822989D02*
X92284760Y-137995388D01*
X92284760Y-137995388D02*
X92737308Y-137542840D01*
X92737308Y-137542840D02*
X92586459Y-137391990D01*
X92586459Y-137391990D02*
X92521809Y-137370440D01*
X92521809Y-137370440D02*
X92478709Y-137370440D01*
X92478709Y-137370440D02*
X92414059Y-137391990D01*
X92414059Y-137391990D02*
X92370959Y-137435090D01*
X92370959Y-137435090D02*
X92349410Y-137499740D01*
X92349410Y-137499740D02*
X92349410Y-137542840D01*
X92349410Y-137542840D02*
X92370959Y-137607489D01*
X92370959Y-137607489D02*
X92521809Y-137758339D01*
X91595162Y-137305790D02*
X91853761Y-137564389D01*
X91724462Y-137435090D02*
X92177010Y-136982542D01*
X92177010Y-136982542D02*
X92155460Y-137090291D01*
X92155460Y-137090291D02*
X92155460Y-137176491D01*
X92155460Y-137176491D02*
X92177010Y-137241141D01*
X82911428Y-108595776D02*
X83124762Y-108291014D01*
X83277143Y-108595776D02*
X83277143Y-107955776D01*
X83277143Y-107955776D02*
X83033333Y-107955776D01*
X83033333Y-107955776D02*
X82972381Y-107986252D01*
X82972381Y-107986252D02*
X82941904Y-108016728D01*
X82941904Y-108016728D02*
X82911428Y-108077680D01*
X82911428Y-108077680D02*
X82911428Y-108169109D01*
X82911428Y-108169109D02*
X82941904Y-108230061D01*
X82941904Y-108230061D02*
X82972381Y-108260538D01*
X82972381Y-108260538D02*
X83033333Y-108291014D01*
X83033333Y-108291014D02*
X83277143Y-108291014D01*
X82698095Y-107955776D02*
X82301904Y-107955776D01*
X82301904Y-107955776D02*
X82515238Y-108199585D01*
X82515238Y-108199585D02*
X82423809Y-108199585D01*
X82423809Y-108199585D02*
X82362857Y-108230061D01*
X82362857Y-108230061D02*
X82332381Y-108260538D01*
X82332381Y-108260538D02*
X82301904Y-108321490D01*
X82301904Y-108321490D02*
X82301904Y-108473871D01*
X82301904Y-108473871D02*
X82332381Y-108534823D01*
X82332381Y-108534823D02*
X82362857Y-108565300D01*
X82362857Y-108565300D02*
X82423809Y-108595776D01*
X82423809Y-108595776D02*
X82606666Y-108595776D01*
X82606666Y-108595776D02*
X82667619Y-108565300D01*
X82667619Y-108565300D02*
X82698095Y-108534823D01*
X82058095Y-108016728D02*
X82027619Y-107986252D01*
X82027619Y-107986252D02*
X81966666Y-107955776D01*
X81966666Y-107955776D02*
X81814285Y-107955776D01*
X81814285Y-107955776D02*
X81753333Y-107986252D01*
X81753333Y-107986252D02*
X81722857Y-108016728D01*
X81722857Y-108016728D02*
X81692380Y-108077680D01*
X81692380Y-108077680D02*
X81692380Y-108138633D01*
X81692380Y-108138633D02*
X81722857Y-108230061D01*
X81722857Y-108230061D02*
X82088571Y-108595776D01*
X82088571Y-108595776D02*
X81692380Y-108595776D01*
X87759823Y-126093571D02*
X87790300Y-126063095D01*
X87790300Y-126063095D02*
X87820776Y-125971666D01*
X87820776Y-125971666D02*
X87820776Y-125910714D01*
X87820776Y-125910714D02*
X87790300Y-125819285D01*
X87790300Y-125819285D02*
X87729347Y-125758333D01*
X87729347Y-125758333D02*
X87668395Y-125727856D01*
X87668395Y-125727856D02*
X87546490Y-125697380D01*
X87546490Y-125697380D02*
X87455061Y-125697380D01*
X87455061Y-125697380D02*
X87333157Y-125727856D01*
X87333157Y-125727856D02*
X87272204Y-125758333D01*
X87272204Y-125758333D02*
X87211252Y-125819285D01*
X87211252Y-125819285D02*
X87180776Y-125910714D01*
X87180776Y-125910714D02*
X87180776Y-125971666D01*
X87180776Y-125971666D02*
X87211252Y-126063095D01*
X87211252Y-126063095D02*
X87241728Y-126093571D01*
X87820776Y-126703095D02*
X87820776Y-126337380D01*
X87820776Y-126520237D02*
X87180776Y-126520237D01*
X87180776Y-126520237D02*
X87272204Y-126459285D01*
X87272204Y-126459285D02*
X87333157Y-126398333D01*
X87333157Y-126398333D02*
X87363633Y-126337380D01*
X87180776Y-126916428D02*
X87180776Y-127343095D01*
X87180776Y-127343095D02*
X87820776Y-127068809D01*
X82911428Y-105795776D02*
X83124762Y-105491014D01*
X83277143Y-105795776D02*
X83277143Y-105155776D01*
X83277143Y-105155776D02*
X83033333Y-105155776D01*
X83033333Y-105155776D02*
X82972381Y-105186252D01*
X82972381Y-105186252D02*
X82941904Y-105216728D01*
X82941904Y-105216728D02*
X82911428Y-105277680D01*
X82911428Y-105277680D02*
X82911428Y-105369109D01*
X82911428Y-105369109D02*
X82941904Y-105430061D01*
X82941904Y-105430061D02*
X82972381Y-105460538D01*
X82972381Y-105460538D02*
X83033333Y-105491014D01*
X83033333Y-105491014D02*
X83277143Y-105491014D01*
X82667619Y-105216728D02*
X82637143Y-105186252D01*
X82637143Y-105186252D02*
X82576190Y-105155776D01*
X82576190Y-105155776D02*
X82423809Y-105155776D01*
X82423809Y-105155776D02*
X82362857Y-105186252D01*
X82362857Y-105186252D02*
X82332381Y-105216728D01*
X82332381Y-105216728D02*
X82301904Y-105277680D01*
X82301904Y-105277680D02*
X82301904Y-105338633D01*
X82301904Y-105338633D02*
X82332381Y-105430061D01*
X82332381Y-105430061D02*
X82698095Y-105795776D01*
X82698095Y-105795776D02*
X82301904Y-105795776D01*
X81753333Y-105369109D02*
X81753333Y-105795776D01*
X81905714Y-105125300D02*
X82058095Y-105582442D01*
X82058095Y-105582442D02*
X81661904Y-105582442D01*
X99011428Y-138338276D02*
X99224762Y-138033514D01*
X99377143Y-138338276D02*
X99377143Y-137698276D01*
X99377143Y-137698276D02*
X99133333Y-137698276D01*
X99133333Y-137698276D02*
X99072381Y-137728752D01*
X99072381Y-137728752D02*
X99041904Y-137759228D01*
X99041904Y-137759228D02*
X99011428Y-137820180D01*
X99011428Y-137820180D02*
X99011428Y-137911609D01*
X99011428Y-137911609D02*
X99041904Y-137972561D01*
X99041904Y-137972561D02*
X99072381Y-138003038D01*
X99072381Y-138003038D02*
X99133333Y-138033514D01*
X99133333Y-138033514D02*
X99377143Y-138033514D01*
X98798095Y-137698276D02*
X98371428Y-137698276D01*
X98371428Y-137698276D02*
X98645714Y-138338276D01*
X98158095Y-137759228D02*
X98127619Y-137728752D01*
X98127619Y-137728752D02*
X98066666Y-137698276D01*
X98066666Y-137698276D02*
X97914285Y-137698276D01*
X97914285Y-137698276D02*
X97853333Y-137728752D01*
X97853333Y-137728752D02*
X97822857Y-137759228D01*
X97822857Y-137759228D02*
X97792380Y-137820180D01*
X97792380Y-137820180D02*
X97792380Y-137881133D01*
X97792380Y-137881133D02*
X97822857Y-137972561D01*
X97822857Y-137972561D02*
X98188571Y-138338276D01*
X98188571Y-138338276D02*
X97792380Y-138338276D01*
X91783723Y-146464072D02*
X91814200Y-146433596D01*
X91814200Y-146433596D02*
X91844676Y-146342167D01*
X91844676Y-146342167D02*
X91844676Y-146281215D01*
X91844676Y-146281215D02*
X91814200Y-146189786D01*
X91814200Y-146189786D02*
X91753247Y-146128834D01*
X91753247Y-146128834D02*
X91692295Y-146098357D01*
X91692295Y-146098357D02*
X91570390Y-146067881D01*
X91570390Y-146067881D02*
X91478961Y-146067881D01*
X91478961Y-146067881D02*
X91357057Y-146098357D01*
X91357057Y-146098357D02*
X91296104Y-146128834D01*
X91296104Y-146128834D02*
X91235152Y-146189786D01*
X91235152Y-146189786D02*
X91204676Y-146281215D01*
X91204676Y-146281215D02*
X91204676Y-146342167D01*
X91204676Y-146342167D02*
X91235152Y-146433596D01*
X91235152Y-146433596D02*
X91265628Y-146464072D01*
X91204676Y-146677405D02*
X91204676Y-147104072D01*
X91204676Y-147104072D02*
X91844676Y-146829786D01*
X91418009Y-147622167D02*
X91844676Y-147622167D01*
X91174200Y-147469786D02*
X91631342Y-147317405D01*
X91631342Y-147317405D02*
X91631342Y-147713596D01*
X85712380Y-143755776D02*
X85346666Y-143755776D01*
X85529523Y-144395776D02*
X85529523Y-143755776D01*
X85133333Y-144395776D02*
X85133333Y-143755776D01*
X85133333Y-143755776D02*
X84889523Y-143755776D01*
X84889523Y-143755776D02*
X84828571Y-143786252D01*
X84828571Y-143786252D02*
X84798094Y-143816728D01*
X84798094Y-143816728D02*
X84767618Y-143877680D01*
X84767618Y-143877680D02*
X84767618Y-143969109D01*
X84767618Y-143969109D02*
X84798094Y-144030061D01*
X84798094Y-144030061D02*
X84828571Y-144060538D01*
X84828571Y-144060538D02*
X84889523Y-144091014D01*
X84889523Y-144091014D02*
X85133333Y-144091014D01*
X84158094Y-144395776D02*
X84523809Y-144395776D01*
X84340952Y-144395776D02*
X84340952Y-143755776D01*
X84340952Y-143755776D02*
X84401904Y-143847204D01*
X84401904Y-143847204D02*
X84462856Y-143908157D01*
X84462856Y-143908157D02*
X84523809Y-143938633D01*
X83761904Y-143755776D02*
X83700951Y-143755776D01*
X83700951Y-143755776D02*
X83639999Y-143786252D01*
X83639999Y-143786252D02*
X83609523Y-143816728D01*
X83609523Y-143816728D02*
X83579047Y-143877680D01*
X83579047Y-143877680D02*
X83548570Y-143999585D01*
X83548570Y-143999585D02*
X83548570Y-144151966D01*
X83548570Y-144151966D02*
X83579047Y-144273871D01*
X83579047Y-144273871D02*
X83609523Y-144334823D01*
X83609523Y-144334823D02*
X83639999Y-144365300D01*
X83639999Y-144365300D02*
X83700951Y-144395776D01*
X83700951Y-144395776D02*
X83761904Y-144395776D01*
X83761904Y-144395776D02*
X83822856Y-144365300D01*
X83822856Y-144365300D02*
X83853332Y-144334823D01*
X83853332Y-144334823D02*
X83883809Y-144273871D01*
X83883809Y-144273871D02*
X83914285Y-144151966D01*
X83914285Y-144151966D02*
X83914285Y-143999585D01*
X83914285Y-143999585D02*
X83883809Y-143877680D01*
X83883809Y-143877680D02*
X83853332Y-143816728D01*
X83853332Y-143816728D02*
X83822856Y-143786252D01*
X83822856Y-143786252D02*
X83761904Y-143755776D01*
X94883038Y-147374167D02*
X94883038Y-147160833D01*
X95218276Y-147160833D02*
X94578276Y-147160833D01*
X94578276Y-147160833D02*
X94578276Y-147465595D01*
X94883038Y-147922738D02*
X94913514Y-148014166D01*
X94913514Y-148014166D02*
X94943990Y-148044643D01*
X94943990Y-148044643D02*
X95004942Y-148075119D01*
X95004942Y-148075119D02*
X95096371Y-148075119D01*
X95096371Y-148075119D02*
X95157323Y-148044643D01*
X95157323Y-148044643D02*
X95187800Y-148014166D01*
X95187800Y-148014166D02*
X95218276Y-147953214D01*
X95218276Y-147953214D02*
X95218276Y-147709404D01*
X95218276Y-147709404D02*
X94578276Y-147709404D01*
X94578276Y-147709404D02*
X94578276Y-147922738D01*
X94578276Y-147922738D02*
X94608752Y-147983690D01*
X94608752Y-147983690D02*
X94639228Y-148014166D01*
X94639228Y-148014166D02*
X94700180Y-148044643D01*
X94700180Y-148044643D02*
X94761133Y-148044643D01*
X94761133Y-148044643D02*
X94822085Y-148014166D01*
X94822085Y-148014166D02*
X94852561Y-147983690D01*
X94852561Y-147983690D02*
X94883038Y-147922738D01*
X94883038Y-147922738D02*
X94883038Y-147709404D01*
X94639228Y-148318928D02*
X94608752Y-148349404D01*
X94608752Y-148349404D02*
X94578276Y-148410357D01*
X94578276Y-148410357D02*
X94578276Y-148562738D01*
X94578276Y-148562738D02*
X94608752Y-148623690D01*
X94608752Y-148623690D02*
X94639228Y-148654166D01*
X94639228Y-148654166D02*
X94700180Y-148684643D01*
X94700180Y-148684643D02*
X94761133Y-148684643D01*
X94761133Y-148684643D02*
X94852561Y-148654166D01*
X94852561Y-148654166D02*
X95218276Y-148288452D01*
X95218276Y-148288452D02*
X95218276Y-148684643D01*
X90361756Y-152996112D02*
X90103157Y-153254711D01*
X90685005Y-153577960D02*
X90232457Y-153125412D01*
X90404856Y-153858109D02*
X89952308Y-153405561D01*
X89952308Y-153405561D02*
X89779908Y-153577960D01*
X89779908Y-153577960D02*
X89758358Y-153642610D01*
X89758358Y-153642610D02*
X89758358Y-153685710D01*
X89758358Y-153685710D02*
X89779908Y-153750360D01*
X89779908Y-153750360D02*
X89844558Y-153815009D01*
X89844558Y-153815009D02*
X89909208Y-153836559D01*
X89909208Y-153836559D02*
X89952308Y-153836559D01*
X89952308Y-153836559D02*
X90016957Y-153815009D01*
X90016957Y-153815009D02*
X90189357Y-153642610D01*
X89715258Y-154547707D02*
X89973858Y-154289108D01*
X89844558Y-154418407D02*
X89392010Y-153965859D01*
X89392010Y-153965859D02*
X89499759Y-153987409D01*
X89499759Y-153987409D02*
X89585959Y-153987409D01*
X89585959Y-153987409D02*
X89650609Y-153965859D01*
X88853262Y-154504607D02*
X89068761Y-154289108D01*
X89068761Y-154289108D02*
X89305810Y-154483057D01*
X89305810Y-154483057D02*
X89262710Y-154483057D01*
X89262710Y-154483057D02*
X89198060Y-154504607D01*
X89198060Y-154504607D02*
X89090311Y-154612357D01*
X89090311Y-154612357D02*
X89068761Y-154677006D01*
X89068761Y-154677006D02*
X89068761Y-154720106D01*
X89068761Y-154720106D02*
X89090311Y-154784756D01*
X89090311Y-154784756D02*
X89198060Y-154892505D01*
X89198060Y-154892505D02*
X89262710Y-154914055D01*
X89262710Y-154914055D02*
X89305810Y-154914055D01*
X89305810Y-154914055D02*
X89370460Y-154892505D01*
X89370460Y-154892505D02*
X89478209Y-154784756D01*
X89478209Y-154784756D02*
X89499759Y-154720106D01*
X89499759Y-154720106D02*
X89499759Y-154677006D01*
X83906666Y-122877323D02*
X83937142Y-122907800D01*
X83937142Y-122907800D02*
X84028571Y-122938276D01*
X84028571Y-122938276D02*
X84089523Y-122938276D01*
X84089523Y-122938276D02*
X84180952Y-122907800D01*
X84180952Y-122907800D02*
X84241904Y-122846847D01*
X84241904Y-122846847D02*
X84272381Y-122785895D01*
X84272381Y-122785895D02*
X84302857Y-122663990D01*
X84302857Y-122663990D02*
X84302857Y-122572561D01*
X84302857Y-122572561D02*
X84272381Y-122450657D01*
X84272381Y-122450657D02*
X84241904Y-122389704D01*
X84241904Y-122389704D02*
X84180952Y-122328752D01*
X84180952Y-122328752D02*
X84089523Y-122298276D01*
X84089523Y-122298276D02*
X84028571Y-122298276D01*
X84028571Y-122298276D02*
X83937142Y-122328752D01*
X83937142Y-122328752D02*
X83906666Y-122359228D01*
X83693333Y-122298276D02*
X83266666Y-122298276D01*
X83266666Y-122298276D02*
X83540952Y-122938276D01*
X90709658Y-151024970D02*
X90922992Y-150720208D01*
X91075373Y-151024970D02*
X91075373Y-150384970D01*
X91075373Y-150384970D02*
X90831563Y-150384970D01*
X90831563Y-150384970D02*
X90770611Y-150415446D01*
X90770611Y-150415446D02*
X90740134Y-150445922D01*
X90740134Y-150445922D02*
X90709658Y-150506874D01*
X90709658Y-150506874D02*
X90709658Y-150598303D01*
X90709658Y-150598303D02*
X90740134Y-150659255D01*
X90740134Y-150659255D02*
X90770611Y-150689732D01*
X90770611Y-150689732D02*
X90831563Y-150720208D01*
X90831563Y-150720208D02*
X91075373Y-150720208D01*
X90161087Y-150384970D02*
X90282992Y-150384970D01*
X90282992Y-150384970D02*
X90343944Y-150415446D01*
X90343944Y-150415446D02*
X90374420Y-150445922D01*
X90374420Y-150445922D02*
X90435373Y-150537351D01*
X90435373Y-150537351D02*
X90465849Y-150659255D01*
X90465849Y-150659255D02*
X90465849Y-150903065D01*
X90465849Y-150903065D02*
X90435373Y-150964017D01*
X90435373Y-150964017D02*
X90404896Y-150994494D01*
X90404896Y-150994494D02*
X90343944Y-151024970D01*
X90343944Y-151024970D02*
X90222039Y-151024970D01*
X90222039Y-151024970D02*
X90161087Y-150994494D01*
X90161087Y-150994494D02*
X90130611Y-150964017D01*
X90130611Y-150964017D02*
X90100134Y-150903065D01*
X90100134Y-150903065D02*
X90100134Y-150750684D01*
X90100134Y-150750684D02*
X90130611Y-150689732D01*
X90130611Y-150689732D02*
X90161087Y-150659255D01*
X90161087Y-150659255D02*
X90222039Y-150628779D01*
X90222039Y-150628779D02*
X90343944Y-150628779D01*
X90343944Y-150628779D02*
X90404896Y-150659255D01*
X90404896Y-150659255D02*
X90435373Y-150689732D01*
X90435373Y-150689732D02*
X90465849Y-150750684D01*
X89551563Y-150384970D02*
X89673468Y-150384970D01*
X89673468Y-150384970D02*
X89734420Y-150415446D01*
X89734420Y-150415446D02*
X89764896Y-150445922D01*
X89764896Y-150445922D02*
X89825849Y-150537351D01*
X89825849Y-150537351D02*
X89856325Y-150659255D01*
X89856325Y-150659255D02*
X89856325Y-150903065D01*
X89856325Y-150903065D02*
X89825849Y-150964017D01*
X89825849Y-150964017D02*
X89795372Y-150994494D01*
X89795372Y-150994494D02*
X89734420Y-151024970D01*
X89734420Y-151024970D02*
X89612515Y-151024970D01*
X89612515Y-151024970D02*
X89551563Y-150994494D01*
X89551563Y-150994494D02*
X89521087Y-150964017D01*
X89521087Y-150964017D02*
X89490610Y-150903065D01*
X89490610Y-150903065D02*
X89490610Y-150750684D01*
X89490610Y-150750684D02*
X89521087Y-150689732D01*
X89521087Y-150689732D02*
X89551563Y-150659255D01*
X89551563Y-150659255D02*
X89612515Y-150628779D01*
X89612515Y-150628779D02*
X89734420Y-150628779D01*
X89734420Y-150628779D02*
X89795372Y-150659255D01*
X89795372Y-150659255D02*
X89825849Y-150689732D01*
X89825849Y-150689732D02*
X89856325Y-150750684D01*
X83829428Y-130070923D02*
X83859904Y-130101400D01*
X83859904Y-130101400D02*
X83951333Y-130131876D01*
X83951333Y-130131876D02*
X84012285Y-130131876D01*
X84012285Y-130131876D02*
X84103714Y-130101400D01*
X84103714Y-130101400D02*
X84164666Y-130040447D01*
X84164666Y-130040447D02*
X84195143Y-129979495D01*
X84195143Y-129979495D02*
X84225619Y-129857590D01*
X84225619Y-129857590D02*
X84225619Y-129766161D01*
X84225619Y-129766161D02*
X84195143Y-129644257D01*
X84195143Y-129644257D02*
X84164666Y-129583304D01*
X84164666Y-129583304D02*
X84103714Y-129522352D01*
X84103714Y-129522352D02*
X84012285Y-129491876D01*
X84012285Y-129491876D02*
X83951333Y-129491876D01*
X83951333Y-129491876D02*
X83859904Y-129522352D01*
X83859904Y-129522352D02*
X83829428Y-129552828D01*
X83585619Y-129552828D02*
X83555143Y-129522352D01*
X83555143Y-129522352D02*
X83494190Y-129491876D01*
X83494190Y-129491876D02*
X83341809Y-129491876D01*
X83341809Y-129491876D02*
X83280857Y-129522352D01*
X83280857Y-129522352D02*
X83250381Y-129552828D01*
X83250381Y-129552828D02*
X83219904Y-129613780D01*
X83219904Y-129613780D02*
X83219904Y-129674733D01*
X83219904Y-129674733D02*
X83250381Y-129766161D01*
X83250381Y-129766161D02*
X83616095Y-130131876D01*
X83616095Y-130131876D02*
X83219904Y-130131876D01*
X82976095Y-129552828D02*
X82945619Y-129522352D01*
X82945619Y-129522352D02*
X82884666Y-129491876D01*
X82884666Y-129491876D02*
X82732285Y-129491876D01*
X82732285Y-129491876D02*
X82671333Y-129522352D01*
X82671333Y-129522352D02*
X82640857Y-129552828D01*
X82640857Y-129552828D02*
X82610380Y-129613780D01*
X82610380Y-129613780D02*
X82610380Y-129674733D01*
X82610380Y-129674733D02*
X82640857Y-129766161D01*
X82640857Y-129766161D02*
X83006571Y-130131876D01*
X83006571Y-130131876D02*
X82610380Y-130131876D01*
X93988276Y-143213571D02*
X93683514Y-143000237D01*
X93988276Y-142847856D02*
X93348276Y-142847856D01*
X93348276Y-142847856D02*
X93348276Y-143091666D01*
X93348276Y-143091666D02*
X93378752Y-143152618D01*
X93378752Y-143152618D02*
X93409228Y-143183095D01*
X93409228Y-143183095D02*
X93470180Y-143213571D01*
X93470180Y-143213571D02*
X93561609Y-143213571D01*
X93561609Y-143213571D02*
X93622561Y-143183095D01*
X93622561Y-143183095D02*
X93653038Y-143152618D01*
X93653038Y-143152618D02*
X93683514Y-143091666D01*
X93683514Y-143091666D02*
X93683514Y-142847856D01*
X93348276Y-143792618D02*
X93348276Y-143487856D01*
X93348276Y-143487856D02*
X93653038Y-143457380D01*
X93653038Y-143457380D02*
X93622561Y-143487856D01*
X93622561Y-143487856D02*
X93592085Y-143548809D01*
X93592085Y-143548809D02*
X93592085Y-143701190D01*
X93592085Y-143701190D02*
X93622561Y-143762142D01*
X93622561Y-143762142D02*
X93653038Y-143792618D01*
X93653038Y-143792618D02*
X93713990Y-143823095D01*
X93713990Y-143823095D02*
X93866371Y-143823095D01*
X93866371Y-143823095D02*
X93927323Y-143792618D01*
X93927323Y-143792618D02*
X93957800Y-143762142D01*
X93957800Y-143762142D02*
X93988276Y-143701190D01*
X93988276Y-143701190D02*
X93988276Y-143548809D01*
X93988276Y-143548809D02*
X93957800Y-143487856D01*
X93957800Y-143487856D02*
X93927323Y-143457380D01*
X93348276Y-144402142D02*
X93348276Y-144097380D01*
X93348276Y-144097380D02*
X93653038Y-144066904D01*
X93653038Y-144066904D02*
X93622561Y-144097380D01*
X93622561Y-144097380D02*
X93592085Y-144158333D01*
X93592085Y-144158333D02*
X93592085Y-144310714D01*
X93592085Y-144310714D02*
X93622561Y-144371666D01*
X93622561Y-144371666D02*
X93653038Y-144402142D01*
X93653038Y-144402142D02*
X93713990Y-144432619D01*
X93713990Y-144432619D02*
X93866371Y-144432619D01*
X93866371Y-144432619D02*
X93927323Y-144402142D01*
X93927323Y-144402142D02*
X93957800Y-144371666D01*
X93957800Y-144371666D02*
X93988276Y-144310714D01*
X93988276Y-144310714D02*
X93988276Y-144158333D01*
X93988276Y-144158333D02*
X93957800Y-144097380D01*
X93957800Y-144097380D02*
X93927323Y-144066904D01*
X95679266Y-151735917D02*
X95894765Y-151520418D01*
X95894765Y-151520418D02*
X95442217Y-151067870D01*
X94860369Y-151649717D02*
X95075868Y-151434218D01*
X95075868Y-151434218D02*
X95312917Y-151628167D01*
X95312917Y-151628167D02*
X95269818Y-151628167D01*
X95269818Y-151628167D02*
X95205168Y-151649717D01*
X95205168Y-151649717D02*
X95097418Y-151757467D01*
X95097418Y-151757467D02*
X95075868Y-151822117D01*
X95075868Y-151822117D02*
X95075868Y-151865217D01*
X95075868Y-151865217D02*
X95097418Y-151929866D01*
X95097418Y-151929866D02*
X95205168Y-152037616D01*
X95205168Y-152037616D02*
X95269818Y-152059166D01*
X95269818Y-152059166D02*
X95312917Y-152059166D01*
X95312917Y-152059166D02*
X95377567Y-152037616D01*
X95377567Y-152037616D02*
X95485317Y-151929866D01*
X95485317Y-151929866D02*
X95506867Y-151865217D01*
X95506867Y-151865217D02*
X95506867Y-151822117D01*
X91911428Y-145295776D02*
X92124762Y-144991014D01*
X92277143Y-145295776D02*
X92277143Y-144655776D01*
X92277143Y-144655776D02*
X92033333Y-144655776D01*
X92033333Y-144655776D02*
X91972381Y-144686252D01*
X91972381Y-144686252D02*
X91941904Y-144716728D01*
X91941904Y-144716728D02*
X91911428Y-144777680D01*
X91911428Y-144777680D02*
X91911428Y-144869109D01*
X91911428Y-144869109D02*
X91941904Y-144930061D01*
X91941904Y-144930061D02*
X91972381Y-144960538D01*
X91972381Y-144960538D02*
X92033333Y-144991014D01*
X92033333Y-144991014D02*
X92277143Y-144991014D01*
X91332381Y-144655776D02*
X91637143Y-144655776D01*
X91637143Y-144655776D02*
X91667619Y-144960538D01*
X91667619Y-144960538D02*
X91637143Y-144930061D01*
X91637143Y-144930061D02*
X91576190Y-144899585D01*
X91576190Y-144899585D02*
X91423809Y-144899585D01*
X91423809Y-144899585D02*
X91362857Y-144930061D01*
X91362857Y-144930061D02*
X91332381Y-144960538D01*
X91332381Y-144960538D02*
X91301904Y-145021490D01*
X91301904Y-145021490D02*
X91301904Y-145173871D01*
X91301904Y-145173871D02*
X91332381Y-145234823D01*
X91332381Y-145234823D02*
X91362857Y-145265300D01*
X91362857Y-145265300D02*
X91423809Y-145295776D01*
X91423809Y-145295776D02*
X91576190Y-145295776D01*
X91576190Y-145295776D02*
X91637143Y-145265300D01*
X91637143Y-145265300D02*
X91667619Y-145234823D01*
X91058095Y-144716728D02*
X91027619Y-144686252D01*
X91027619Y-144686252D02*
X90966666Y-144655776D01*
X90966666Y-144655776D02*
X90814285Y-144655776D01*
X90814285Y-144655776D02*
X90753333Y-144686252D01*
X90753333Y-144686252D02*
X90722857Y-144716728D01*
X90722857Y-144716728D02*
X90692380Y-144777680D01*
X90692380Y-144777680D02*
X90692380Y-144838633D01*
X90692380Y-144838633D02*
X90722857Y-144930061D01*
X90722857Y-144930061D02*
X91088571Y-145295776D01*
X91088571Y-145295776D02*
X90692380Y-145295776D01*
X87188276Y-93296071D02*
X86883514Y-93082737D01*
X87188276Y-92930356D02*
X86548276Y-92930356D01*
X86548276Y-92930356D02*
X86548276Y-93174166D01*
X86548276Y-93174166D02*
X86578752Y-93235118D01*
X86578752Y-93235118D02*
X86609228Y-93265595D01*
X86609228Y-93265595D02*
X86670180Y-93296071D01*
X86670180Y-93296071D02*
X86761609Y-93296071D01*
X86761609Y-93296071D02*
X86822561Y-93265595D01*
X86822561Y-93265595D02*
X86853038Y-93235118D01*
X86853038Y-93235118D02*
X86883514Y-93174166D01*
X86883514Y-93174166D02*
X86883514Y-92930356D01*
X86761609Y-93844642D02*
X87188276Y-93844642D01*
X86517800Y-93692261D02*
X86974942Y-93539880D01*
X86974942Y-93539880D02*
X86974942Y-93936071D01*
X86609228Y-94149404D02*
X86578752Y-94179880D01*
X86578752Y-94179880D02*
X86548276Y-94240833D01*
X86548276Y-94240833D02*
X86548276Y-94393214D01*
X86548276Y-94393214D02*
X86578752Y-94454166D01*
X86578752Y-94454166D02*
X86609228Y-94484642D01*
X86609228Y-94484642D02*
X86670180Y-94515119D01*
X86670180Y-94515119D02*
X86731133Y-94515119D01*
X86731133Y-94515119D02*
X86822561Y-94484642D01*
X86822561Y-94484642D02*
X87188276Y-94118928D01*
X87188276Y-94118928D02*
X87188276Y-94515119D01*
X92121685Y-119106870D02*
X92164785Y-119106870D01*
X92164785Y-119106870D02*
X92250984Y-119063770D01*
X92250984Y-119063770D02*
X92294084Y-119020670D01*
X92294084Y-119020670D02*
X92337184Y-118934470D01*
X92337184Y-118934470D02*
X92337184Y-118848271D01*
X92337184Y-118848271D02*
X92315634Y-118783621D01*
X92315634Y-118783621D02*
X92250984Y-118675871D01*
X92250984Y-118675871D02*
X92186335Y-118611221D01*
X92186335Y-118611221D02*
X92078585Y-118546572D01*
X92078585Y-118546572D02*
X92013935Y-118525022D01*
X92013935Y-118525022D02*
X91927735Y-118525022D01*
X91927735Y-118525022D02*
X91841536Y-118568122D01*
X91841536Y-118568122D02*
X91798436Y-118611221D01*
X91798436Y-118611221D02*
X91755336Y-118697421D01*
X91755336Y-118697421D02*
X91755336Y-118740521D01*
X91733786Y-119580968D02*
X91992385Y-119322369D01*
X91863086Y-119451668D02*
X91410537Y-118999120D01*
X91410537Y-118999120D02*
X91518287Y-119020670D01*
X91518287Y-119020670D02*
X91604487Y-119020670D01*
X91604487Y-119020670D02*
X91669136Y-118999120D01*
X91044189Y-119667168D02*
X91345887Y-119968867D01*
X90979539Y-119387019D02*
X91410537Y-119602518D01*
X91410537Y-119602518D02*
X91130388Y-119882667D01*
X82688276Y-117296071D02*
X82383514Y-117082737D01*
X82688276Y-116930356D02*
X82048276Y-116930356D01*
X82048276Y-116930356D02*
X82048276Y-117174166D01*
X82048276Y-117174166D02*
X82078752Y-117235118D01*
X82078752Y-117235118D02*
X82109228Y-117265595D01*
X82109228Y-117265595D02*
X82170180Y-117296071D01*
X82170180Y-117296071D02*
X82261609Y-117296071D01*
X82261609Y-117296071D02*
X82322561Y-117265595D01*
X82322561Y-117265595D02*
X82353038Y-117235118D01*
X82353038Y-117235118D02*
X82383514Y-117174166D01*
X82383514Y-117174166D02*
X82383514Y-116930356D01*
X82688276Y-117905595D02*
X82688276Y-117539880D01*
X82688276Y-117722737D02*
X82048276Y-117722737D01*
X82048276Y-117722737D02*
X82139704Y-117661785D01*
X82139704Y-117661785D02*
X82200657Y-117600833D01*
X82200657Y-117600833D02*
X82231133Y-117539880D01*
X82048276Y-118118928D02*
X82048276Y-118545595D01*
X82048276Y-118545595D02*
X82688276Y-118271309D01*
X94212380Y-93748276D02*
X93846666Y-93748276D01*
X94029523Y-94388276D02*
X94029523Y-93748276D01*
X93633333Y-94388276D02*
X93633333Y-93748276D01*
X93633333Y-93748276D02*
X93389523Y-93748276D01*
X93389523Y-93748276D02*
X93328571Y-93778752D01*
X93328571Y-93778752D02*
X93298094Y-93809228D01*
X93298094Y-93809228D02*
X93267618Y-93870180D01*
X93267618Y-93870180D02*
X93267618Y-93961609D01*
X93267618Y-93961609D02*
X93298094Y-94022561D01*
X93298094Y-94022561D02*
X93328571Y-94053038D01*
X93328571Y-94053038D02*
X93389523Y-94083514D01*
X93389523Y-94083514D02*
X93633333Y-94083514D01*
X93023809Y-93809228D02*
X92993333Y-93778752D01*
X92993333Y-93778752D02*
X92932380Y-93748276D01*
X92932380Y-93748276D02*
X92779999Y-93748276D01*
X92779999Y-93748276D02*
X92719047Y-93778752D01*
X92719047Y-93778752D02*
X92688571Y-93809228D01*
X92688571Y-93809228D02*
X92658094Y-93870180D01*
X92658094Y-93870180D02*
X92658094Y-93931133D01*
X92658094Y-93931133D02*
X92688571Y-94022561D01*
X92688571Y-94022561D02*
X93054285Y-94388276D01*
X93054285Y-94388276D02*
X92658094Y-94388276D01*
X92261904Y-93748276D02*
X92200951Y-93748276D01*
X92200951Y-93748276D02*
X92139999Y-93778752D01*
X92139999Y-93778752D02*
X92109523Y-93809228D01*
X92109523Y-93809228D02*
X92079047Y-93870180D01*
X92079047Y-93870180D02*
X92048570Y-93992085D01*
X92048570Y-93992085D02*
X92048570Y-94144466D01*
X92048570Y-94144466D02*
X92079047Y-94266371D01*
X92079047Y-94266371D02*
X92109523Y-94327323D01*
X92109523Y-94327323D02*
X92139999Y-94357800D01*
X92139999Y-94357800D02*
X92200951Y-94388276D01*
X92200951Y-94388276D02*
X92261904Y-94388276D01*
X92261904Y-94388276D02*
X92322856Y-94357800D01*
X92322856Y-94357800D02*
X92353332Y-94327323D01*
X92353332Y-94327323D02*
X92383809Y-94266371D01*
X92383809Y-94266371D02*
X92414285Y-94144466D01*
X92414285Y-94144466D02*
X92414285Y-93992085D01*
X92414285Y-93992085D02*
X92383809Y-93870180D01*
X92383809Y-93870180D02*
X92353332Y-93809228D01*
X92353332Y-93809228D02*
X92322856Y-93778752D01*
X92322856Y-93778752D02*
X92261904Y-93748276D01*
X84311428Y-109934823D02*
X84341904Y-109965300D01*
X84341904Y-109965300D02*
X84433333Y-109995776D01*
X84433333Y-109995776D02*
X84494285Y-109995776D01*
X84494285Y-109995776D02*
X84585714Y-109965300D01*
X84585714Y-109965300D02*
X84646666Y-109904347D01*
X84646666Y-109904347D02*
X84677143Y-109843395D01*
X84677143Y-109843395D02*
X84707619Y-109721490D01*
X84707619Y-109721490D02*
X84707619Y-109630061D01*
X84707619Y-109630061D02*
X84677143Y-109508157D01*
X84677143Y-109508157D02*
X84646666Y-109447204D01*
X84646666Y-109447204D02*
X84585714Y-109386252D01*
X84585714Y-109386252D02*
X84494285Y-109355776D01*
X84494285Y-109355776D02*
X84433333Y-109355776D01*
X84433333Y-109355776D02*
X84341904Y-109386252D01*
X84341904Y-109386252D02*
X84311428Y-109416728D01*
X84098095Y-109355776D02*
X83701904Y-109355776D01*
X83701904Y-109355776D02*
X83915238Y-109599585D01*
X83915238Y-109599585D02*
X83823809Y-109599585D01*
X83823809Y-109599585D02*
X83762857Y-109630061D01*
X83762857Y-109630061D02*
X83732381Y-109660538D01*
X83732381Y-109660538D02*
X83701904Y-109721490D01*
X83701904Y-109721490D02*
X83701904Y-109873871D01*
X83701904Y-109873871D02*
X83732381Y-109934823D01*
X83732381Y-109934823D02*
X83762857Y-109965300D01*
X83762857Y-109965300D02*
X83823809Y-109995776D01*
X83823809Y-109995776D02*
X84006666Y-109995776D01*
X84006666Y-109995776D02*
X84067619Y-109965300D01*
X84067619Y-109965300D02*
X84098095Y-109934823D01*
X83397142Y-109995776D02*
X83275238Y-109995776D01*
X83275238Y-109995776D02*
X83214285Y-109965300D01*
X83214285Y-109965300D02*
X83183809Y-109934823D01*
X83183809Y-109934823D02*
X83122857Y-109843395D01*
X83122857Y-109843395D02*
X83092380Y-109721490D01*
X83092380Y-109721490D02*
X83092380Y-109477680D01*
X83092380Y-109477680D02*
X83122857Y-109416728D01*
X83122857Y-109416728D02*
X83153333Y-109386252D01*
X83153333Y-109386252D02*
X83214285Y-109355776D01*
X83214285Y-109355776D02*
X83336190Y-109355776D01*
X83336190Y-109355776D02*
X83397142Y-109386252D01*
X83397142Y-109386252D02*
X83427619Y-109416728D01*
X83427619Y-109416728D02*
X83458095Y-109477680D01*
X83458095Y-109477680D02*
X83458095Y-109630061D01*
X83458095Y-109630061D02*
X83427619Y-109691014D01*
X83427619Y-109691014D02*
X83397142Y-109721490D01*
X83397142Y-109721490D02*
X83336190Y-109751966D01*
X83336190Y-109751966D02*
X83214285Y-109751966D01*
X83214285Y-109751966D02*
X83153333Y-109721490D01*
X83153333Y-109721490D02*
X83122857Y-109691014D01*
X83122857Y-109691014D02*
X83092380Y-109630061D01*
X95962380Y-97348276D02*
X95596666Y-97348276D01*
X95779523Y-97988276D02*
X95779523Y-97348276D01*
X95383333Y-97988276D02*
X95383333Y-97348276D01*
X95383333Y-97348276D02*
X95139523Y-97348276D01*
X95139523Y-97348276D02*
X95078571Y-97378752D01*
X95078571Y-97378752D02*
X95048094Y-97409228D01*
X95048094Y-97409228D02*
X95017618Y-97470180D01*
X95017618Y-97470180D02*
X95017618Y-97561609D01*
X95017618Y-97561609D02*
X95048094Y-97622561D01*
X95048094Y-97622561D02*
X95078571Y-97653038D01*
X95078571Y-97653038D02*
X95139523Y-97683514D01*
X95139523Y-97683514D02*
X95383333Y-97683514D01*
X94408094Y-97988276D02*
X94773809Y-97988276D01*
X94590952Y-97988276D02*
X94590952Y-97348276D01*
X94590952Y-97348276D02*
X94651904Y-97439704D01*
X94651904Y-97439704D02*
X94712856Y-97500657D01*
X94712856Y-97500657D02*
X94773809Y-97531133D01*
X94103332Y-97988276D02*
X93981428Y-97988276D01*
X93981428Y-97988276D02*
X93920475Y-97957800D01*
X93920475Y-97957800D02*
X93889999Y-97927323D01*
X93889999Y-97927323D02*
X93829047Y-97835895D01*
X93829047Y-97835895D02*
X93798570Y-97713990D01*
X93798570Y-97713990D02*
X93798570Y-97470180D01*
X93798570Y-97470180D02*
X93829047Y-97409228D01*
X93829047Y-97409228D02*
X93859523Y-97378752D01*
X93859523Y-97378752D02*
X93920475Y-97348276D01*
X93920475Y-97348276D02*
X94042380Y-97348276D01*
X94042380Y-97348276D02*
X94103332Y-97378752D01*
X94103332Y-97378752D02*
X94133809Y-97409228D01*
X94133809Y-97409228D02*
X94164285Y-97470180D01*
X94164285Y-97470180D02*
X94164285Y-97622561D01*
X94164285Y-97622561D02*
X94133809Y-97683514D01*
X94133809Y-97683514D02*
X94103332Y-97713990D01*
X94103332Y-97713990D02*
X94042380Y-97744466D01*
X94042380Y-97744466D02*
X93920475Y-97744466D01*
X93920475Y-97744466D02*
X93859523Y-97713990D01*
X93859523Y-97713990D02*
X93829047Y-97683514D01*
X93829047Y-97683514D02*
X93798570Y-97622561D01*
X87783723Y-131656571D02*
X87814200Y-131626095D01*
X87814200Y-131626095D02*
X87844676Y-131534666D01*
X87844676Y-131534666D02*
X87844676Y-131473714D01*
X87844676Y-131473714D02*
X87814200Y-131382285D01*
X87814200Y-131382285D02*
X87753247Y-131321333D01*
X87753247Y-131321333D02*
X87692295Y-131290856D01*
X87692295Y-131290856D02*
X87570390Y-131260380D01*
X87570390Y-131260380D02*
X87478961Y-131260380D01*
X87478961Y-131260380D02*
X87357057Y-131290856D01*
X87357057Y-131290856D02*
X87296104Y-131321333D01*
X87296104Y-131321333D02*
X87235152Y-131382285D01*
X87235152Y-131382285D02*
X87204676Y-131473714D01*
X87204676Y-131473714D02*
X87204676Y-131534666D01*
X87204676Y-131534666D02*
X87235152Y-131626095D01*
X87235152Y-131626095D02*
X87265628Y-131656571D01*
X87844676Y-132266095D02*
X87844676Y-131900380D01*
X87844676Y-132083237D02*
X87204676Y-132083237D01*
X87204676Y-132083237D02*
X87296104Y-132022285D01*
X87296104Y-132022285D02*
X87357057Y-131961333D01*
X87357057Y-131961333D02*
X87387533Y-131900380D01*
X87844676Y-132570857D02*
X87844676Y-132692761D01*
X87844676Y-132692761D02*
X87814200Y-132753714D01*
X87814200Y-132753714D02*
X87783723Y-132784190D01*
X87783723Y-132784190D02*
X87692295Y-132845142D01*
X87692295Y-132845142D02*
X87570390Y-132875619D01*
X87570390Y-132875619D02*
X87326580Y-132875619D01*
X87326580Y-132875619D02*
X87265628Y-132845142D01*
X87265628Y-132845142D02*
X87235152Y-132814666D01*
X87235152Y-132814666D02*
X87204676Y-132753714D01*
X87204676Y-132753714D02*
X87204676Y-132631809D01*
X87204676Y-132631809D02*
X87235152Y-132570857D01*
X87235152Y-132570857D02*
X87265628Y-132540380D01*
X87265628Y-132540380D02*
X87326580Y-132509904D01*
X87326580Y-132509904D02*
X87478961Y-132509904D01*
X87478961Y-132509904D02*
X87539914Y-132540380D01*
X87539914Y-132540380D02*
X87570390Y-132570857D01*
X87570390Y-132570857D02*
X87600866Y-132631809D01*
X87600866Y-132631809D02*
X87600866Y-132753714D01*
X87600866Y-132753714D02*
X87570390Y-132814666D01*
X87570390Y-132814666D02*
X87539914Y-132845142D01*
X87539914Y-132845142D02*
X87478961Y-132875619D01*
X89038276Y-115188571D02*
X88733514Y-114975237D01*
X89038276Y-114822856D02*
X88398276Y-114822856D01*
X88398276Y-114822856D02*
X88398276Y-115066666D01*
X88398276Y-115066666D02*
X88428752Y-115127618D01*
X88428752Y-115127618D02*
X88459228Y-115158095D01*
X88459228Y-115158095D02*
X88520180Y-115188571D01*
X88520180Y-115188571D02*
X88611609Y-115188571D01*
X88611609Y-115188571D02*
X88672561Y-115158095D01*
X88672561Y-115158095D02*
X88703038Y-115127618D01*
X88703038Y-115127618D02*
X88733514Y-115066666D01*
X88733514Y-115066666D02*
X88733514Y-114822856D01*
X89038276Y-115798095D02*
X89038276Y-115432380D01*
X89038276Y-115615237D02*
X88398276Y-115615237D01*
X88398276Y-115615237D02*
X88489704Y-115554285D01*
X88489704Y-115554285D02*
X88550657Y-115493333D01*
X88550657Y-115493333D02*
X88581133Y-115432380D01*
X89038276Y-116407619D02*
X89038276Y-116041904D01*
X89038276Y-116224761D02*
X88398276Y-116224761D01*
X88398276Y-116224761D02*
X88489704Y-116163809D01*
X88489704Y-116163809D02*
X88550657Y-116102857D01*
X88550657Y-116102857D02*
X88581133Y-116041904D01*
X89388276Y-128096071D02*
X89083514Y-127882737D01*
X89388276Y-127730356D02*
X88748276Y-127730356D01*
X88748276Y-127730356D02*
X88748276Y-127974166D01*
X88748276Y-127974166D02*
X88778752Y-128035118D01*
X88778752Y-128035118D02*
X88809228Y-128065595D01*
X88809228Y-128065595D02*
X88870180Y-128096071D01*
X88870180Y-128096071D02*
X88961609Y-128096071D01*
X88961609Y-128096071D02*
X89022561Y-128065595D01*
X89022561Y-128065595D02*
X89053038Y-128035118D01*
X89053038Y-128035118D02*
X89083514Y-127974166D01*
X89083514Y-127974166D02*
X89083514Y-127730356D01*
X89388276Y-128705595D02*
X89388276Y-128339880D01*
X89388276Y-128522737D02*
X88748276Y-128522737D01*
X88748276Y-128522737D02*
X88839704Y-128461785D01*
X88839704Y-128461785D02*
X88900657Y-128400833D01*
X88900657Y-128400833D02*
X88931133Y-128339880D01*
X88748276Y-128918928D02*
X88748276Y-129315119D01*
X88748276Y-129315119D02*
X88992085Y-129101785D01*
X88992085Y-129101785D02*
X88992085Y-129193214D01*
X88992085Y-129193214D02*
X89022561Y-129254166D01*
X89022561Y-129254166D02*
X89053038Y-129284642D01*
X89053038Y-129284642D02*
X89113990Y-129315119D01*
X89113990Y-129315119D02*
X89266371Y-129315119D01*
X89266371Y-129315119D02*
X89327323Y-129284642D01*
X89327323Y-129284642D02*
X89357800Y-129254166D01*
X89357800Y-129254166D02*
X89388276Y-129193214D01*
X89388276Y-129193214D02*
X89388276Y-129010357D01*
X89388276Y-129010357D02*
X89357800Y-128949404D01*
X89357800Y-128949404D02*
X89327323Y-128918928D01*
X82911428Y-112895776D02*
X83124762Y-112591014D01*
X83277143Y-112895776D02*
X83277143Y-112255776D01*
X83277143Y-112255776D02*
X83033333Y-112255776D01*
X83033333Y-112255776D02*
X82972381Y-112286252D01*
X82972381Y-112286252D02*
X82941904Y-112316728D01*
X82941904Y-112316728D02*
X82911428Y-112377680D01*
X82911428Y-112377680D02*
X82911428Y-112469109D01*
X82911428Y-112469109D02*
X82941904Y-112530061D01*
X82941904Y-112530061D02*
X82972381Y-112560538D01*
X82972381Y-112560538D02*
X83033333Y-112591014D01*
X83033333Y-112591014D02*
X83277143Y-112591014D01*
X82667619Y-112316728D02*
X82637143Y-112286252D01*
X82637143Y-112286252D02*
X82576190Y-112255776D01*
X82576190Y-112255776D02*
X82423809Y-112255776D01*
X82423809Y-112255776D02*
X82362857Y-112286252D01*
X82362857Y-112286252D02*
X82332381Y-112316728D01*
X82332381Y-112316728D02*
X82301904Y-112377680D01*
X82301904Y-112377680D02*
X82301904Y-112438633D01*
X82301904Y-112438633D02*
X82332381Y-112530061D01*
X82332381Y-112530061D02*
X82698095Y-112895776D01*
X82698095Y-112895776D02*
X82301904Y-112895776D01*
X81692380Y-112895776D02*
X82058095Y-112895776D01*
X81875238Y-112895776D02*
X81875238Y-112255776D01*
X81875238Y-112255776D02*
X81936190Y-112347204D01*
X81936190Y-112347204D02*
X81997142Y-112408157D01*
X81997142Y-112408157D02*
X82058095Y-112438633D01*
X101511428Y-133334823D02*
X101541904Y-133365300D01*
X101541904Y-133365300D02*
X101633333Y-133395776D01*
X101633333Y-133395776D02*
X101694285Y-133395776D01*
X101694285Y-133395776D02*
X101785714Y-133365300D01*
X101785714Y-133365300D02*
X101846666Y-133304347D01*
X101846666Y-133304347D02*
X101877143Y-133243395D01*
X101877143Y-133243395D02*
X101907619Y-133121490D01*
X101907619Y-133121490D02*
X101907619Y-133030061D01*
X101907619Y-133030061D02*
X101877143Y-132908157D01*
X101877143Y-132908157D02*
X101846666Y-132847204D01*
X101846666Y-132847204D02*
X101785714Y-132786252D01*
X101785714Y-132786252D02*
X101694285Y-132755776D01*
X101694285Y-132755776D02*
X101633333Y-132755776D01*
X101633333Y-132755776D02*
X101541904Y-132786252D01*
X101541904Y-132786252D02*
X101511428Y-132816728D01*
X101298095Y-132755776D02*
X100901904Y-132755776D01*
X100901904Y-132755776D02*
X101115238Y-132999585D01*
X101115238Y-132999585D02*
X101023809Y-132999585D01*
X101023809Y-132999585D02*
X100962857Y-133030061D01*
X100962857Y-133030061D02*
X100932381Y-133060538D01*
X100932381Y-133060538D02*
X100901904Y-133121490D01*
X100901904Y-133121490D02*
X100901904Y-133273871D01*
X100901904Y-133273871D02*
X100932381Y-133334823D01*
X100932381Y-133334823D02*
X100962857Y-133365300D01*
X100962857Y-133365300D02*
X101023809Y-133395776D01*
X101023809Y-133395776D02*
X101206666Y-133395776D01*
X101206666Y-133395776D02*
X101267619Y-133365300D01*
X101267619Y-133365300D02*
X101298095Y-133334823D01*
X100505714Y-132755776D02*
X100444761Y-132755776D01*
X100444761Y-132755776D02*
X100383809Y-132786252D01*
X100383809Y-132786252D02*
X100353333Y-132816728D01*
X100353333Y-132816728D02*
X100322857Y-132877680D01*
X100322857Y-132877680D02*
X100292380Y-132999585D01*
X100292380Y-132999585D02*
X100292380Y-133151966D01*
X100292380Y-133151966D02*
X100322857Y-133273871D01*
X100322857Y-133273871D02*
X100353333Y-133334823D01*
X100353333Y-133334823D02*
X100383809Y-133365300D01*
X100383809Y-133365300D02*
X100444761Y-133395776D01*
X100444761Y-133395776D02*
X100505714Y-133395776D01*
X100505714Y-133395776D02*
X100566666Y-133365300D01*
X100566666Y-133365300D02*
X100597142Y-133334823D01*
X100597142Y-133334823D02*
X100627619Y-133273871D01*
X100627619Y-133273871D02*
X100658095Y-133151966D01*
X100658095Y-133151966D02*
X100658095Y-132999585D01*
X100658095Y-132999585D02*
X100627619Y-132877680D01*
X100627619Y-132877680D02*
X100597142Y-132816728D01*
X100597142Y-132816728D02*
X100566666Y-132786252D01*
X100566666Y-132786252D02*
X100505714Y-132755776D01*
X85007618Y-144855776D02*
X84641904Y-144855776D01*
X84824761Y-145495776D02*
X84824761Y-144855776D01*
X84428571Y-145495776D02*
X84428571Y-144855776D01*
X84428571Y-144855776D02*
X84184761Y-144855776D01*
X84184761Y-144855776D02*
X84123809Y-144886252D01*
X84123809Y-144886252D02*
X84093332Y-144916728D01*
X84093332Y-144916728D02*
X84062856Y-144977680D01*
X84062856Y-144977680D02*
X84062856Y-145069109D01*
X84062856Y-145069109D02*
X84093332Y-145130061D01*
X84093332Y-145130061D02*
X84123809Y-145160538D01*
X84123809Y-145160538D02*
X84184761Y-145191014D01*
X84184761Y-145191014D02*
X84428571Y-145191014D01*
X83697142Y-145130061D02*
X83758094Y-145099585D01*
X83758094Y-145099585D02*
X83788571Y-145069109D01*
X83788571Y-145069109D02*
X83819047Y-145008157D01*
X83819047Y-145008157D02*
X83819047Y-144977680D01*
X83819047Y-144977680D02*
X83788571Y-144916728D01*
X83788571Y-144916728D02*
X83758094Y-144886252D01*
X83758094Y-144886252D02*
X83697142Y-144855776D01*
X83697142Y-144855776D02*
X83575237Y-144855776D01*
X83575237Y-144855776D02*
X83514285Y-144886252D01*
X83514285Y-144886252D02*
X83483809Y-144916728D01*
X83483809Y-144916728D02*
X83453332Y-144977680D01*
X83453332Y-144977680D02*
X83453332Y-145008157D01*
X83453332Y-145008157D02*
X83483809Y-145069109D01*
X83483809Y-145069109D02*
X83514285Y-145099585D01*
X83514285Y-145099585D02*
X83575237Y-145130061D01*
X83575237Y-145130061D02*
X83697142Y-145130061D01*
X83697142Y-145130061D02*
X83758094Y-145160538D01*
X83758094Y-145160538D02*
X83788571Y-145191014D01*
X83788571Y-145191014D02*
X83819047Y-145251966D01*
X83819047Y-145251966D02*
X83819047Y-145373871D01*
X83819047Y-145373871D02*
X83788571Y-145434823D01*
X83788571Y-145434823D02*
X83758094Y-145465300D01*
X83758094Y-145465300D02*
X83697142Y-145495776D01*
X83697142Y-145495776D02*
X83575237Y-145495776D01*
X83575237Y-145495776D02*
X83514285Y-145465300D01*
X83514285Y-145465300D02*
X83483809Y-145434823D01*
X83483809Y-145434823D02*
X83453332Y-145373871D01*
X83453332Y-145373871D02*
X83453332Y-145251966D01*
X83453332Y-145251966D02*
X83483809Y-145191014D01*
X83483809Y-145191014D02*
X83514285Y-145160538D01*
X83514285Y-145160538D02*
X83575237Y-145130061D01*
X91145343Y-147296388D02*
X91175820Y-147265912D01*
X91175820Y-147265912D02*
X91206296Y-147174483D01*
X91206296Y-147174483D02*
X91206296Y-147113531D01*
X91206296Y-147113531D02*
X91175820Y-147022102D01*
X91175820Y-147022102D02*
X91114867Y-146961150D01*
X91114867Y-146961150D02*
X91053915Y-146930673D01*
X91053915Y-146930673D02*
X90932010Y-146900197D01*
X90932010Y-146900197D02*
X90840581Y-146900197D01*
X90840581Y-146900197D02*
X90718677Y-146930673D01*
X90718677Y-146930673D02*
X90657724Y-146961150D01*
X90657724Y-146961150D02*
X90596772Y-147022102D01*
X90596772Y-147022102D02*
X90566296Y-147113531D01*
X90566296Y-147113531D02*
X90566296Y-147174483D01*
X90566296Y-147174483D02*
X90596772Y-147265912D01*
X90596772Y-147265912D02*
X90627248Y-147296388D01*
X90566296Y-147844959D02*
X90566296Y-147723054D01*
X90566296Y-147723054D02*
X90596772Y-147662102D01*
X90596772Y-147662102D02*
X90627248Y-147631626D01*
X90627248Y-147631626D02*
X90718677Y-147570673D01*
X90718677Y-147570673D02*
X90840581Y-147540197D01*
X90840581Y-147540197D02*
X91084391Y-147540197D01*
X91084391Y-147540197D02*
X91145343Y-147570673D01*
X91145343Y-147570673D02*
X91175820Y-147601150D01*
X91175820Y-147601150D02*
X91206296Y-147662102D01*
X91206296Y-147662102D02*
X91206296Y-147784007D01*
X91206296Y-147784007D02*
X91175820Y-147844959D01*
X91175820Y-147844959D02*
X91145343Y-147875435D01*
X91145343Y-147875435D02*
X91084391Y-147905912D01*
X91084391Y-147905912D02*
X90932010Y-147905912D01*
X90932010Y-147905912D02*
X90871058Y-147875435D01*
X90871058Y-147875435D02*
X90840581Y-147844959D01*
X90840581Y-147844959D02*
X90810105Y-147784007D01*
X90810105Y-147784007D02*
X90810105Y-147662102D01*
X90810105Y-147662102D02*
X90840581Y-147601150D01*
X90840581Y-147601150D02*
X90871058Y-147570673D01*
X90871058Y-147570673D02*
X90932010Y-147540197D01*
X91206296Y-148210674D02*
X91206296Y-148332578D01*
X91206296Y-148332578D02*
X91175820Y-148393531D01*
X91175820Y-148393531D02*
X91145343Y-148424007D01*
X91145343Y-148424007D02*
X91053915Y-148484959D01*
X91053915Y-148484959D02*
X90932010Y-148515436D01*
X90932010Y-148515436D02*
X90688200Y-148515436D01*
X90688200Y-148515436D02*
X90627248Y-148484959D01*
X90627248Y-148484959D02*
X90596772Y-148454483D01*
X90596772Y-148454483D02*
X90566296Y-148393531D01*
X90566296Y-148393531D02*
X90566296Y-148271626D01*
X90566296Y-148271626D02*
X90596772Y-148210674D01*
X90596772Y-148210674D02*
X90627248Y-148180197D01*
X90627248Y-148180197D02*
X90688200Y-148149721D01*
X90688200Y-148149721D02*
X90840581Y-148149721D01*
X90840581Y-148149721D02*
X90901534Y-148180197D01*
X90901534Y-148180197D02*
X90932010Y-148210674D01*
X90932010Y-148210674D02*
X90962486Y-148271626D01*
X90962486Y-148271626D02*
X90962486Y-148393531D01*
X90962486Y-148393531D02*
X90932010Y-148454483D01*
X90932010Y-148454483D02*
X90901534Y-148484959D01*
X90901534Y-148484959D02*
X90840581Y-148515436D01*
X86988276Y-95623571D02*
X86683514Y-95410237D01*
X86988276Y-95257856D02*
X86348276Y-95257856D01*
X86348276Y-95257856D02*
X86348276Y-95501666D01*
X86348276Y-95501666D02*
X86378752Y-95562618D01*
X86378752Y-95562618D02*
X86409228Y-95593095D01*
X86409228Y-95593095D02*
X86470180Y-95623571D01*
X86470180Y-95623571D02*
X86561609Y-95623571D01*
X86561609Y-95623571D02*
X86622561Y-95593095D01*
X86622561Y-95593095D02*
X86653038Y-95562618D01*
X86653038Y-95562618D02*
X86683514Y-95501666D01*
X86683514Y-95501666D02*
X86683514Y-95257856D01*
X86561609Y-96172142D02*
X86988276Y-96172142D01*
X86317800Y-96019761D02*
X86774942Y-95867380D01*
X86774942Y-95867380D02*
X86774942Y-96263571D01*
X86348276Y-96446428D02*
X86348276Y-96842619D01*
X86348276Y-96842619D02*
X86592085Y-96629285D01*
X86592085Y-96629285D02*
X86592085Y-96720714D01*
X86592085Y-96720714D02*
X86622561Y-96781666D01*
X86622561Y-96781666D02*
X86653038Y-96812142D01*
X86653038Y-96812142D02*
X86713990Y-96842619D01*
X86713990Y-96842619D02*
X86866371Y-96842619D01*
X86866371Y-96842619D02*
X86927323Y-96812142D01*
X86927323Y-96812142D02*
X86957800Y-96781666D01*
X86957800Y-96781666D02*
X86988276Y-96720714D01*
X86988276Y-96720714D02*
X86988276Y-96537857D01*
X86988276Y-96537857D02*
X86957800Y-96476904D01*
X86957800Y-96476904D02*
X86927323Y-96446428D01*
X86487323Y-123108571D02*
X86517800Y-123078095D01*
X86517800Y-123078095D02*
X86548276Y-122986666D01*
X86548276Y-122986666D02*
X86548276Y-122925714D01*
X86548276Y-122925714D02*
X86517800Y-122834285D01*
X86517800Y-122834285D02*
X86456847Y-122773333D01*
X86456847Y-122773333D02*
X86395895Y-122742856D01*
X86395895Y-122742856D02*
X86273990Y-122712380D01*
X86273990Y-122712380D02*
X86182561Y-122712380D01*
X86182561Y-122712380D02*
X86060657Y-122742856D01*
X86060657Y-122742856D02*
X85999704Y-122773333D01*
X85999704Y-122773333D02*
X85938752Y-122834285D01*
X85938752Y-122834285D02*
X85908276Y-122925714D01*
X85908276Y-122925714D02*
X85908276Y-122986666D01*
X85908276Y-122986666D02*
X85938752Y-123078095D01*
X85938752Y-123078095D02*
X85969228Y-123108571D01*
X86548276Y-123718095D02*
X86548276Y-123352380D01*
X86548276Y-123535237D02*
X85908276Y-123535237D01*
X85908276Y-123535237D02*
X85999704Y-123474285D01*
X85999704Y-123474285D02*
X86060657Y-123413333D01*
X86060657Y-123413333D02*
X86091133Y-123352380D01*
X85969228Y-123961904D02*
X85938752Y-123992380D01*
X85938752Y-123992380D02*
X85908276Y-124053333D01*
X85908276Y-124053333D02*
X85908276Y-124205714D01*
X85908276Y-124205714D02*
X85938752Y-124266666D01*
X85938752Y-124266666D02*
X85969228Y-124297142D01*
X85969228Y-124297142D02*
X86030180Y-124327619D01*
X86030180Y-124327619D02*
X86091133Y-124327619D01*
X86091133Y-124327619D02*
X86182561Y-124297142D01*
X86182561Y-124297142D02*
X86548276Y-123931428D01*
X86548276Y-123931428D02*
X86548276Y-124327619D01*
X86262380Y-148748276D02*
X85896666Y-148748276D01*
X86079523Y-149388276D02*
X86079523Y-148748276D01*
X85683333Y-149388276D02*
X85683333Y-148748276D01*
X85683333Y-148748276D02*
X85439523Y-148748276D01*
X85439523Y-148748276D02*
X85378571Y-148778752D01*
X85378571Y-148778752D02*
X85348094Y-148809228D01*
X85348094Y-148809228D02*
X85317618Y-148870180D01*
X85317618Y-148870180D02*
X85317618Y-148961609D01*
X85317618Y-148961609D02*
X85348094Y-149022561D01*
X85348094Y-149022561D02*
X85378571Y-149053038D01*
X85378571Y-149053038D02*
X85439523Y-149083514D01*
X85439523Y-149083514D02*
X85683333Y-149083514D01*
X84708094Y-149388276D02*
X85073809Y-149388276D01*
X84890952Y-149388276D02*
X84890952Y-148748276D01*
X84890952Y-148748276D02*
X84951904Y-148839704D01*
X84951904Y-148839704D02*
X85012856Y-148900657D01*
X85012856Y-148900657D02*
X85073809Y-148931133D01*
X84098570Y-149388276D02*
X84464285Y-149388276D01*
X84281428Y-149388276D02*
X84281428Y-148748276D01*
X84281428Y-148748276D02*
X84342380Y-148839704D01*
X84342380Y-148839704D02*
X84403332Y-148900657D01*
X84403332Y-148900657D02*
X84464285Y-148931133D01*
X92107618Y-141598276D02*
X91741904Y-141598276D01*
X91924761Y-142238276D02*
X91924761Y-141598276D01*
X91528571Y-142238276D02*
X91528571Y-141598276D01*
X91528571Y-141598276D02*
X91284761Y-141598276D01*
X91284761Y-141598276D02*
X91223809Y-141628752D01*
X91223809Y-141628752D02*
X91193332Y-141659228D01*
X91193332Y-141659228D02*
X91162856Y-141720180D01*
X91162856Y-141720180D02*
X91162856Y-141811609D01*
X91162856Y-141811609D02*
X91193332Y-141872561D01*
X91193332Y-141872561D02*
X91223809Y-141903038D01*
X91223809Y-141903038D02*
X91284761Y-141933514D01*
X91284761Y-141933514D02*
X91528571Y-141933514D01*
X90614285Y-141598276D02*
X90736190Y-141598276D01*
X90736190Y-141598276D02*
X90797142Y-141628752D01*
X90797142Y-141628752D02*
X90827618Y-141659228D01*
X90827618Y-141659228D02*
X90888571Y-141750657D01*
X90888571Y-141750657D02*
X90919047Y-141872561D01*
X90919047Y-141872561D02*
X90919047Y-142116371D01*
X90919047Y-142116371D02*
X90888571Y-142177323D01*
X90888571Y-142177323D02*
X90858094Y-142207800D01*
X90858094Y-142207800D02*
X90797142Y-142238276D01*
X90797142Y-142238276D02*
X90675237Y-142238276D01*
X90675237Y-142238276D02*
X90614285Y-142207800D01*
X90614285Y-142207800D02*
X90583809Y-142177323D01*
X90583809Y-142177323D02*
X90553332Y-142116371D01*
X90553332Y-142116371D02*
X90553332Y-141963990D01*
X90553332Y-141963990D02*
X90583809Y-141903038D01*
X90583809Y-141903038D02*
X90614285Y-141872561D01*
X90614285Y-141872561D02*
X90675237Y-141842085D01*
X90675237Y-141842085D02*
X90797142Y-141842085D01*
X90797142Y-141842085D02*
X90858094Y-141872561D01*
X90858094Y-141872561D02*
X90888571Y-141903038D01*
X90888571Y-141903038D02*
X90919047Y-141963990D01*
X100311428Y-147795776D02*
X100524762Y-147491014D01*
X100677143Y-147795776D02*
X100677143Y-147155776D01*
X100677143Y-147155776D02*
X100433333Y-147155776D01*
X100433333Y-147155776D02*
X100372381Y-147186252D01*
X100372381Y-147186252D02*
X100341904Y-147216728D01*
X100341904Y-147216728D02*
X100311428Y-147277680D01*
X100311428Y-147277680D02*
X100311428Y-147369109D01*
X100311428Y-147369109D02*
X100341904Y-147430061D01*
X100341904Y-147430061D02*
X100372381Y-147460538D01*
X100372381Y-147460538D02*
X100433333Y-147491014D01*
X100433333Y-147491014D02*
X100677143Y-147491014D01*
X99732381Y-147155776D02*
X100037143Y-147155776D01*
X100037143Y-147155776D02*
X100067619Y-147460538D01*
X100067619Y-147460538D02*
X100037143Y-147430061D01*
X100037143Y-147430061D02*
X99976190Y-147399585D01*
X99976190Y-147399585D02*
X99823809Y-147399585D01*
X99823809Y-147399585D02*
X99762857Y-147430061D01*
X99762857Y-147430061D02*
X99732381Y-147460538D01*
X99732381Y-147460538D02*
X99701904Y-147521490D01*
X99701904Y-147521490D02*
X99701904Y-147673871D01*
X99701904Y-147673871D02*
X99732381Y-147734823D01*
X99732381Y-147734823D02*
X99762857Y-147765300D01*
X99762857Y-147765300D02*
X99823809Y-147795776D01*
X99823809Y-147795776D02*
X99976190Y-147795776D01*
X99976190Y-147795776D02*
X100037143Y-147765300D01*
X100037143Y-147765300D02*
X100067619Y-147734823D01*
X99153333Y-147155776D02*
X99275238Y-147155776D01*
X99275238Y-147155776D02*
X99336190Y-147186252D01*
X99336190Y-147186252D02*
X99366666Y-147216728D01*
X99366666Y-147216728D02*
X99427619Y-147308157D01*
X99427619Y-147308157D02*
X99458095Y-147430061D01*
X99458095Y-147430061D02*
X99458095Y-147673871D01*
X99458095Y-147673871D02*
X99427619Y-147734823D01*
X99427619Y-147734823D02*
X99397142Y-147765300D01*
X99397142Y-147765300D02*
X99336190Y-147795776D01*
X99336190Y-147795776D02*
X99214285Y-147795776D01*
X99214285Y-147795776D02*
X99153333Y-147765300D01*
X99153333Y-147765300D02*
X99122857Y-147734823D01*
X99122857Y-147734823D02*
X99092380Y-147673871D01*
X99092380Y-147673871D02*
X99092380Y-147521490D01*
X99092380Y-147521490D02*
X99122857Y-147460538D01*
X99122857Y-147460538D02*
X99153333Y-147430061D01*
X99153333Y-147430061D02*
X99214285Y-147399585D01*
X99214285Y-147399585D02*
X99336190Y-147399585D01*
X99336190Y-147399585D02*
X99397142Y-147430061D01*
X99397142Y-147430061D02*
X99427619Y-147460538D01*
X99427619Y-147460538D02*
X99458095Y-147521490D01*
X95027323Y-157096071D02*
X95057800Y-157065595D01*
X95057800Y-157065595D02*
X95088276Y-156974166D01*
X95088276Y-156974166D02*
X95088276Y-156913214D01*
X95088276Y-156913214D02*
X95057800Y-156821785D01*
X95057800Y-156821785D02*
X94996847Y-156760833D01*
X94996847Y-156760833D02*
X94935895Y-156730356D01*
X94935895Y-156730356D02*
X94813990Y-156699880D01*
X94813990Y-156699880D02*
X94722561Y-156699880D01*
X94722561Y-156699880D02*
X94600657Y-156730356D01*
X94600657Y-156730356D02*
X94539704Y-156760833D01*
X94539704Y-156760833D02*
X94478752Y-156821785D01*
X94478752Y-156821785D02*
X94448276Y-156913214D01*
X94448276Y-156913214D02*
X94448276Y-156974166D01*
X94448276Y-156974166D02*
X94478752Y-157065595D01*
X94478752Y-157065595D02*
X94509228Y-157096071D01*
X94448276Y-157309404D02*
X94448276Y-157736071D01*
X94448276Y-157736071D02*
X95088276Y-157461785D01*
X94509228Y-157949404D02*
X94478752Y-157979880D01*
X94478752Y-157979880D02*
X94448276Y-158040833D01*
X94448276Y-158040833D02*
X94448276Y-158193214D01*
X94448276Y-158193214D02*
X94478752Y-158254166D01*
X94478752Y-158254166D02*
X94509228Y-158284642D01*
X94509228Y-158284642D02*
X94570180Y-158315119D01*
X94570180Y-158315119D02*
X94631133Y-158315119D01*
X94631133Y-158315119D02*
X94722561Y-158284642D01*
X94722561Y-158284642D02*
X95088276Y-157918928D01*
X95088276Y-157918928D02*
X95088276Y-158315119D01*
X82911428Y-107095776D02*
X83124762Y-106791014D01*
X83277143Y-107095776D02*
X83277143Y-106455776D01*
X83277143Y-106455776D02*
X83033333Y-106455776D01*
X83033333Y-106455776D02*
X82972381Y-106486252D01*
X82972381Y-106486252D02*
X82941904Y-106516728D01*
X82941904Y-106516728D02*
X82911428Y-106577680D01*
X82911428Y-106577680D02*
X82911428Y-106669109D01*
X82911428Y-106669109D02*
X82941904Y-106730061D01*
X82941904Y-106730061D02*
X82972381Y-106760538D01*
X82972381Y-106760538D02*
X83033333Y-106791014D01*
X83033333Y-106791014D02*
X83277143Y-106791014D01*
X82667619Y-106516728D02*
X82637143Y-106486252D01*
X82637143Y-106486252D02*
X82576190Y-106455776D01*
X82576190Y-106455776D02*
X82423809Y-106455776D01*
X82423809Y-106455776D02*
X82362857Y-106486252D01*
X82362857Y-106486252D02*
X82332381Y-106516728D01*
X82332381Y-106516728D02*
X82301904Y-106577680D01*
X82301904Y-106577680D02*
X82301904Y-106638633D01*
X82301904Y-106638633D02*
X82332381Y-106730061D01*
X82332381Y-106730061D02*
X82698095Y-107095776D01*
X82698095Y-107095776D02*
X82301904Y-107095776D01*
X81722857Y-106455776D02*
X82027619Y-106455776D01*
X82027619Y-106455776D02*
X82058095Y-106760538D01*
X82058095Y-106760538D02*
X82027619Y-106730061D01*
X82027619Y-106730061D02*
X81966666Y-106699585D01*
X81966666Y-106699585D02*
X81814285Y-106699585D01*
X81814285Y-106699585D02*
X81753333Y-106730061D01*
X81753333Y-106730061D02*
X81722857Y-106760538D01*
X81722857Y-106760538D02*
X81692380Y-106821490D01*
X81692380Y-106821490D02*
X81692380Y-106973871D01*
X81692380Y-106973871D02*
X81722857Y-107034823D01*
X81722857Y-107034823D02*
X81753333Y-107065300D01*
X81753333Y-107065300D02*
X81814285Y-107095776D01*
X81814285Y-107095776D02*
X81966666Y-107095776D01*
X81966666Y-107095776D02*
X82027619Y-107065300D01*
X82027619Y-107065300D02*
X82058095Y-107034823D01*
X98411428Y-156788276D02*
X98624762Y-156483514D01*
X98777143Y-156788276D02*
X98777143Y-156148276D01*
X98777143Y-156148276D02*
X98533333Y-156148276D01*
X98533333Y-156148276D02*
X98472381Y-156178752D01*
X98472381Y-156178752D02*
X98441904Y-156209228D01*
X98441904Y-156209228D02*
X98411428Y-156270180D01*
X98411428Y-156270180D02*
X98411428Y-156361609D01*
X98411428Y-156361609D02*
X98441904Y-156422561D01*
X98441904Y-156422561D02*
X98472381Y-156453038D01*
X98472381Y-156453038D02*
X98533333Y-156483514D01*
X98533333Y-156483514D02*
X98777143Y-156483514D01*
X97832381Y-156148276D02*
X98137143Y-156148276D01*
X98137143Y-156148276D02*
X98167619Y-156453038D01*
X98167619Y-156453038D02*
X98137143Y-156422561D01*
X98137143Y-156422561D02*
X98076190Y-156392085D01*
X98076190Y-156392085D02*
X97923809Y-156392085D01*
X97923809Y-156392085D02*
X97862857Y-156422561D01*
X97862857Y-156422561D02*
X97832381Y-156453038D01*
X97832381Y-156453038D02*
X97801904Y-156513990D01*
X97801904Y-156513990D02*
X97801904Y-156666371D01*
X97801904Y-156666371D02*
X97832381Y-156727323D01*
X97832381Y-156727323D02*
X97862857Y-156757800D01*
X97862857Y-156757800D02*
X97923809Y-156788276D01*
X97923809Y-156788276D02*
X98076190Y-156788276D01*
X98076190Y-156788276D02*
X98137143Y-156757800D01*
X98137143Y-156757800D02*
X98167619Y-156727323D01*
X97253333Y-156361609D02*
X97253333Y-156788276D01*
X97405714Y-156117800D02*
X97558095Y-156574942D01*
X97558095Y-156574942D02*
X97161904Y-156574942D01*
X85957618Y-146398276D02*
X85591904Y-146398276D01*
X85774761Y-147038276D02*
X85774761Y-146398276D01*
X85378571Y-147038276D02*
X85378571Y-146398276D01*
X85378571Y-146398276D02*
X85134761Y-146398276D01*
X85134761Y-146398276D02*
X85073809Y-146428752D01*
X85073809Y-146428752D02*
X85043332Y-146459228D01*
X85043332Y-146459228D02*
X85012856Y-146520180D01*
X85012856Y-146520180D02*
X85012856Y-146611609D01*
X85012856Y-146611609D02*
X85043332Y-146672561D01*
X85043332Y-146672561D02*
X85073809Y-146703038D01*
X85073809Y-146703038D02*
X85134761Y-146733514D01*
X85134761Y-146733514D02*
X85378571Y-146733514D01*
X84708094Y-147038276D02*
X84586190Y-147038276D01*
X84586190Y-147038276D02*
X84525237Y-147007800D01*
X84525237Y-147007800D02*
X84494761Y-146977323D01*
X84494761Y-146977323D02*
X84433809Y-146885895D01*
X84433809Y-146885895D02*
X84403332Y-146763990D01*
X84403332Y-146763990D02*
X84403332Y-146520180D01*
X84403332Y-146520180D02*
X84433809Y-146459228D01*
X84433809Y-146459228D02*
X84464285Y-146428752D01*
X84464285Y-146428752D02*
X84525237Y-146398276D01*
X84525237Y-146398276D02*
X84647142Y-146398276D01*
X84647142Y-146398276D02*
X84708094Y-146428752D01*
X84708094Y-146428752D02*
X84738571Y-146459228D01*
X84738571Y-146459228D02*
X84769047Y-146520180D01*
X84769047Y-146520180D02*
X84769047Y-146672561D01*
X84769047Y-146672561D02*
X84738571Y-146733514D01*
X84738571Y-146733514D02*
X84708094Y-146763990D01*
X84708094Y-146763990D02*
X84647142Y-146794466D01*
X84647142Y-146794466D02*
X84525237Y-146794466D01*
X84525237Y-146794466D02*
X84464285Y-146763990D01*
X84464285Y-146763990D02*
X84433809Y-146733514D01*
X84433809Y-146733514D02*
X84403332Y-146672561D01*
X86620923Y-134708071D02*
X86651400Y-134677595D01*
X86651400Y-134677595D02*
X86681876Y-134586166D01*
X86681876Y-134586166D02*
X86681876Y-134525214D01*
X86681876Y-134525214D02*
X86651400Y-134433785D01*
X86651400Y-134433785D02*
X86590447Y-134372833D01*
X86590447Y-134372833D02*
X86529495Y-134342356D01*
X86529495Y-134342356D02*
X86407590Y-134311880D01*
X86407590Y-134311880D02*
X86316161Y-134311880D01*
X86316161Y-134311880D02*
X86194257Y-134342356D01*
X86194257Y-134342356D02*
X86133304Y-134372833D01*
X86133304Y-134372833D02*
X86072352Y-134433785D01*
X86072352Y-134433785D02*
X86041876Y-134525214D01*
X86041876Y-134525214D02*
X86041876Y-134586166D01*
X86041876Y-134586166D02*
X86072352Y-134677595D01*
X86072352Y-134677595D02*
X86102828Y-134708071D01*
X86681876Y-135317595D02*
X86681876Y-134951880D01*
X86681876Y-135134737D02*
X86041876Y-135134737D01*
X86041876Y-135134737D02*
X86133304Y-135073785D01*
X86133304Y-135073785D02*
X86194257Y-135012833D01*
X86194257Y-135012833D02*
X86224733Y-134951880D01*
X86316161Y-135683309D02*
X86285685Y-135622357D01*
X86285685Y-135622357D02*
X86255209Y-135591880D01*
X86255209Y-135591880D02*
X86194257Y-135561404D01*
X86194257Y-135561404D02*
X86163780Y-135561404D01*
X86163780Y-135561404D02*
X86102828Y-135591880D01*
X86102828Y-135591880D02*
X86072352Y-135622357D01*
X86072352Y-135622357D02*
X86041876Y-135683309D01*
X86041876Y-135683309D02*
X86041876Y-135805214D01*
X86041876Y-135805214D02*
X86072352Y-135866166D01*
X86072352Y-135866166D02*
X86102828Y-135896642D01*
X86102828Y-135896642D02*
X86163780Y-135927119D01*
X86163780Y-135927119D02*
X86194257Y-135927119D01*
X86194257Y-135927119D02*
X86255209Y-135896642D01*
X86255209Y-135896642D02*
X86285685Y-135866166D01*
X86285685Y-135866166D02*
X86316161Y-135805214D01*
X86316161Y-135805214D02*
X86316161Y-135683309D01*
X86316161Y-135683309D02*
X86346638Y-135622357D01*
X86346638Y-135622357D02*
X86377114Y-135591880D01*
X86377114Y-135591880D02*
X86438066Y-135561404D01*
X86438066Y-135561404D02*
X86559971Y-135561404D01*
X86559971Y-135561404D02*
X86620923Y-135591880D01*
X86620923Y-135591880D02*
X86651400Y-135622357D01*
X86651400Y-135622357D02*
X86681876Y-135683309D01*
X86681876Y-135683309D02*
X86681876Y-135805214D01*
X86681876Y-135805214D02*
X86651400Y-135866166D01*
X86651400Y-135866166D02*
X86620923Y-135896642D01*
X86620923Y-135896642D02*
X86559971Y-135927119D01*
X86559971Y-135927119D02*
X86438066Y-135927119D01*
X86438066Y-135927119D02*
X86377114Y-135896642D01*
X86377114Y-135896642D02*
X86346638Y-135866166D01*
X86346638Y-135866166D02*
X86316161Y-135805214D01*
X101111428Y-135834823D02*
X101141904Y-135865300D01*
X101141904Y-135865300D02*
X101233333Y-135895776D01*
X101233333Y-135895776D02*
X101294285Y-135895776D01*
X101294285Y-135895776D02*
X101385714Y-135865300D01*
X101385714Y-135865300D02*
X101446666Y-135804347D01*
X101446666Y-135804347D02*
X101477143Y-135743395D01*
X101477143Y-135743395D02*
X101507619Y-135621490D01*
X101507619Y-135621490D02*
X101507619Y-135530061D01*
X101507619Y-135530061D02*
X101477143Y-135408157D01*
X101477143Y-135408157D02*
X101446666Y-135347204D01*
X101446666Y-135347204D02*
X101385714Y-135286252D01*
X101385714Y-135286252D02*
X101294285Y-135255776D01*
X101294285Y-135255776D02*
X101233333Y-135255776D01*
X101233333Y-135255776D02*
X101141904Y-135286252D01*
X101141904Y-135286252D02*
X101111428Y-135316728D01*
X100867619Y-135316728D02*
X100837143Y-135286252D01*
X100837143Y-135286252D02*
X100776190Y-135255776D01*
X100776190Y-135255776D02*
X100623809Y-135255776D01*
X100623809Y-135255776D02*
X100562857Y-135286252D01*
X100562857Y-135286252D02*
X100532381Y-135316728D01*
X100532381Y-135316728D02*
X100501904Y-135377680D01*
X100501904Y-135377680D02*
X100501904Y-135438633D01*
X100501904Y-135438633D02*
X100532381Y-135530061D01*
X100532381Y-135530061D02*
X100898095Y-135895776D01*
X100898095Y-135895776D02*
X100501904Y-135895776D01*
X99953333Y-135255776D02*
X100075238Y-135255776D01*
X100075238Y-135255776D02*
X100136190Y-135286252D01*
X100136190Y-135286252D02*
X100166666Y-135316728D01*
X100166666Y-135316728D02*
X100227619Y-135408157D01*
X100227619Y-135408157D02*
X100258095Y-135530061D01*
X100258095Y-135530061D02*
X100258095Y-135773871D01*
X100258095Y-135773871D02*
X100227619Y-135834823D01*
X100227619Y-135834823D02*
X100197142Y-135865300D01*
X100197142Y-135865300D02*
X100136190Y-135895776D01*
X100136190Y-135895776D02*
X100014285Y-135895776D01*
X100014285Y-135895776D02*
X99953333Y-135865300D01*
X99953333Y-135865300D02*
X99922857Y-135834823D01*
X99922857Y-135834823D02*
X99892380Y-135773871D01*
X99892380Y-135773871D02*
X99892380Y-135621490D01*
X99892380Y-135621490D02*
X99922857Y-135560538D01*
X99922857Y-135560538D02*
X99953333Y-135530061D01*
X99953333Y-135530061D02*
X100014285Y-135499585D01*
X100014285Y-135499585D02*
X100136190Y-135499585D01*
X100136190Y-135499585D02*
X100197142Y-135530061D01*
X100197142Y-135530061D02*
X100227619Y-135560538D01*
X100227619Y-135560538D02*
X100258095Y-135621490D01*
X83711428Y-123977323D02*
X83741904Y-124007800D01*
X83741904Y-124007800D02*
X83833333Y-124038276D01*
X83833333Y-124038276D02*
X83894285Y-124038276D01*
X83894285Y-124038276D02*
X83985714Y-124007800D01*
X83985714Y-124007800D02*
X84046666Y-123946847D01*
X84046666Y-123946847D02*
X84077143Y-123885895D01*
X84077143Y-123885895D02*
X84107619Y-123763990D01*
X84107619Y-123763990D02*
X84107619Y-123672561D01*
X84107619Y-123672561D02*
X84077143Y-123550657D01*
X84077143Y-123550657D02*
X84046666Y-123489704D01*
X84046666Y-123489704D02*
X83985714Y-123428752D01*
X83985714Y-123428752D02*
X83894285Y-123398276D01*
X83894285Y-123398276D02*
X83833333Y-123398276D01*
X83833333Y-123398276D02*
X83741904Y-123428752D01*
X83741904Y-123428752D02*
X83711428Y-123459228D01*
X83101904Y-124038276D02*
X83467619Y-124038276D01*
X83284762Y-124038276D02*
X83284762Y-123398276D01*
X83284762Y-123398276D02*
X83345714Y-123489704D01*
X83345714Y-123489704D02*
X83406666Y-123550657D01*
X83406666Y-123550657D02*
X83467619Y-123581133D01*
X82888571Y-123398276D02*
X82492380Y-123398276D01*
X82492380Y-123398276D02*
X82705714Y-123642085D01*
X82705714Y-123642085D02*
X82614285Y-123642085D01*
X82614285Y-123642085D02*
X82553333Y-123672561D01*
X82553333Y-123672561D02*
X82522857Y-123703038D01*
X82522857Y-123703038D02*
X82492380Y-123763990D01*
X82492380Y-123763990D02*
X82492380Y-123916371D01*
X82492380Y-123916371D02*
X82522857Y-123977323D01*
X82522857Y-123977323D02*
X82553333Y-124007800D01*
X82553333Y-124007800D02*
X82614285Y-124038276D01*
X82614285Y-124038276D02*
X82797142Y-124038276D01*
X82797142Y-124038276D02*
X82858095Y-124007800D01*
X82858095Y-124007800D02*
X82888571Y-123977323D01*
X91411429Y-157027323D02*
X91441905Y-157057800D01*
X91441905Y-157057800D02*
X91533334Y-157088276D01*
X91533334Y-157088276D02*
X91594286Y-157088276D01*
X91594286Y-157088276D02*
X91685715Y-157057800D01*
X91685715Y-157057800D02*
X91746667Y-156996847D01*
X91746667Y-156996847D02*
X91777144Y-156935895D01*
X91777144Y-156935895D02*
X91807620Y-156813990D01*
X91807620Y-156813990D02*
X91807620Y-156722561D01*
X91807620Y-156722561D02*
X91777144Y-156600657D01*
X91777144Y-156600657D02*
X91746667Y-156539704D01*
X91746667Y-156539704D02*
X91685715Y-156478752D01*
X91685715Y-156478752D02*
X91594286Y-156448276D01*
X91594286Y-156448276D02*
X91533334Y-156448276D01*
X91533334Y-156448276D02*
X91441905Y-156478752D01*
X91441905Y-156478752D02*
X91411429Y-156509228D01*
X91198096Y-156448276D02*
X90771429Y-156448276D01*
X90771429Y-156448276D02*
X91045715Y-157088276D01*
X90588572Y-156448276D02*
X90192381Y-156448276D01*
X90192381Y-156448276D02*
X90405715Y-156692085D01*
X90405715Y-156692085D02*
X90314286Y-156692085D01*
X90314286Y-156692085D02*
X90253334Y-156722561D01*
X90253334Y-156722561D02*
X90222858Y-156753038D01*
X90222858Y-156753038D02*
X90192381Y-156813990D01*
X90192381Y-156813990D02*
X90192381Y-156966371D01*
X90192381Y-156966371D02*
X90222858Y-157027323D01*
X90222858Y-157027323D02*
X90253334Y-157057800D01*
X90253334Y-157057800D02*
X90314286Y-157088276D01*
X90314286Y-157088276D02*
X90497143Y-157088276D01*
X90497143Y-157088276D02*
X90558096Y-157057800D01*
X90558096Y-157057800D02*
X90588572Y-157027323D01*
X86212380Y-150555776D02*
X85846666Y-150555776D01*
X86029523Y-151195776D02*
X86029523Y-150555776D01*
X85633333Y-151195776D02*
X85633333Y-150555776D01*
X85633333Y-150555776D02*
X85389523Y-150555776D01*
X85389523Y-150555776D02*
X85328571Y-150586252D01*
X85328571Y-150586252D02*
X85298094Y-150616728D01*
X85298094Y-150616728D02*
X85267618Y-150677680D01*
X85267618Y-150677680D02*
X85267618Y-150769109D01*
X85267618Y-150769109D02*
X85298094Y-150830061D01*
X85298094Y-150830061D02*
X85328571Y-150860538D01*
X85328571Y-150860538D02*
X85389523Y-150891014D01*
X85389523Y-150891014D02*
X85633333Y-150891014D01*
X84658094Y-151195776D02*
X85023809Y-151195776D01*
X84840952Y-151195776D02*
X84840952Y-150555776D01*
X84840952Y-150555776D02*
X84901904Y-150647204D01*
X84901904Y-150647204D02*
X84962856Y-150708157D01*
X84962856Y-150708157D02*
X85023809Y-150738633D01*
X84444761Y-150555776D02*
X84048570Y-150555776D01*
X84048570Y-150555776D02*
X84261904Y-150799585D01*
X84261904Y-150799585D02*
X84170475Y-150799585D01*
X84170475Y-150799585D02*
X84109523Y-150830061D01*
X84109523Y-150830061D02*
X84079047Y-150860538D01*
X84079047Y-150860538D02*
X84048570Y-150921490D01*
X84048570Y-150921490D02*
X84048570Y-151073871D01*
X84048570Y-151073871D02*
X84079047Y-151134823D01*
X84079047Y-151134823D02*
X84109523Y-151165300D01*
X84109523Y-151165300D02*
X84170475Y-151195776D01*
X84170475Y-151195776D02*
X84353332Y-151195776D01*
X84353332Y-151195776D02*
X84414285Y-151165300D01*
X84414285Y-151165300D02*
X84444761Y-151134823D01*
X87844823Y-119188333D02*
X87875300Y-119157857D01*
X87875300Y-119157857D02*
X87905776Y-119066428D01*
X87905776Y-119066428D02*
X87905776Y-119005476D01*
X87905776Y-119005476D02*
X87875300Y-118914047D01*
X87875300Y-118914047D02*
X87814347Y-118853095D01*
X87814347Y-118853095D02*
X87753395Y-118822618D01*
X87753395Y-118822618D02*
X87631490Y-118792142D01*
X87631490Y-118792142D02*
X87540061Y-118792142D01*
X87540061Y-118792142D02*
X87418157Y-118822618D01*
X87418157Y-118822618D02*
X87357204Y-118853095D01*
X87357204Y-118853095D02*
X87296252Y-118914047D01*
X87296252Y-118914047D02*
X87265776Y-119005476D01*
X87265776Y-119005476D02*
X87265776Y-119066428D01*
X87265776Y-119066428D02*
X87296252Y-119157857D01*
X87296252Y-119157857D02*
X87326728Y-119188333D01*
X87540061Y-119554047D02*
X87509585Y-119493095D01*
X87509585Y-119493095D02*
X87479109Y-119462618D01*
X87479109Y-119462618D02*
X87418157Y-119432142D01*
X87418157Y-119432142D02*
X87387680Y-119432142D01*
X87387680Y-119432142D02*
X87326728Y-119462618D01*
X87326728Y-119462618D02*
X87296252Y-119493095D01*
X87296252Y-119493095D02*
X87265776Y-119554047D01*
X87265776Y-119554047D02*
X87265776Y-119675952D01*
X87265776Y-119675952D02*
X87296252Y-119736904D01*
X87296252Y-119736904D02*
X87326728Y-119767380D01*
X87326728Y-119767380D02*
X87387680Y-119797857D01*
X87387680Y-119797857D02*
X87418157Y-119797857D01*
X87418157Y-119797857D02*
X87479109Y-119767380D01*
X87479109Y-119767380D02*
X87509585Y-119736904D01*
X87509585Y-119736904D02*
X87540061Y-119675952D01*
X87540061Y-119675952D02*
X87540061Y-119554047D01*
X87540061Y-119554047D02*
X87570538Y-119493095D01*
X87570538Y-119493095D02*
X87601014Y-119462618D01*
X87601014Y-119462618D02*
X87661966Y-119432142D01*
X87661966Y-119432142D02*
X87783871Y-119432142D01*
X87783871Y-119432142D02*
X87844823Y-119462618D01*
X87844823Y-119462618D02*
X87875300Y-119493095D01*
X87875300Y-119493095D02*
X87905776Y-119554047D01*
X87905776Y-119554047D02*
X87905776Y-119675952D01*
X87905776Y-119675952D02*
X87875300Y-119736904D01*
X87875300Y-119736904D02*
X87844823Y-119767380D01*
X87844823Y-119767380D02*
X87783871Y-119797857D01*
X87783871Y-119797857D02*
X87661966Y-119797857D01*
X87661966Y-119797857D02*
X87601014Y-119767380D01*
X87601014Y-119767380D02*
X87570538Y-119736904D01*
X87570538Y-119736904D02*
X87540061Y-119675952D01*
X88576429Y-155327323D02*
X88606905Y-155357800D01*
X88606905Y-155357800D02*
X88698334Y-155388276D01*
X88698334Y-155388276D02*
X88759286Y-155388276D01*
X88759286Y-155388276D02*
X88850715Y-155357800D01*
X88850715Y-155357800D02*
X88911667Y-155296847D01*
X88911667Y-155296847D02*
X88942144Y-155235895D01*
X88942144Y-155235895D02*
X88972620Y-155113990D01*
X88972620Y-155113990D02*
X88972620Y-155022561D01*
X88972620Y-155022561D02*
X88942144Y-154900657D01*
X88942144Y-154900657D02*
X88911667Y-154839704D01*
X88911667Y-154839704D02*
X88850715Y-154778752D01*
X88850715Y-154778752D02*
X88759286Y-154748276D01*
X88759286Y-154748276D02*
X88698334Y-154748276D01*
X88698334Y-154748276D02*
X88606905Y-154778752D01*
X88606905Y-154778752D02*
X88576429Y-154809228D01*
X88027858Y-154748276D02*
X88149763Y-154748276D01*
X88149763Y-154748276D02*
X88210715Y-154778752D01*
X88210715Y-154778752D02*
X88241191Y-154809228D01*
X88241191Y-154809228D02*
X88302144Y-154900657D01*
X88302144Y-154900657D02*
X88332620Y-155022561D01*
X88332620Y-155022561D02*
X88332620Y-155266371D01*
X88332620Y-155266371D02*
X88302144Y-155327323D01*
X88302144Y-155327323D02*
X88271667Y-155357800D01*
X88271667Y-155357800D02*
X88210715Y-155388276D01*
X88210715Y-155388276D02*
X88088810Y-155388276D01*
X88088810Y-155388276D02*
X88027858Y-155357800D01*
X88027858Y-155357800D02*
X87997382Y-155327323D01*
X87997382Y-155327323D02*
X87966905Y-155266371D01*
X87966905Y-155266371D02*
X87966905Y-155113990D01*
X87966905Y-155113990D02*
X87997382Y-155053038D01*
X87997382Y-155053038D02*
X88027858Y-155022561D01*
X88027858Y-155022561D02*
X88088810Y-154992085D01*
X88088810Y-154992085D02*
X88210715Y-154992085D01*
X88210715Y-154992085D02*
X88271667Y-155022561D01*
X88271667Y-155022561D02*
X88302144Y-155053038D01*
X88302144Y-155053038D02*
X88332620Y-155113990D01*
X87723096Y-154809228D02*
X87692620Y-154778752D01*
X87692620Y-154778752D02*
X87631667Y-154748276D01*
X87631667Y-154748276D02*
X87479286Y-154748276D01*
X87479286Y-154748276D02*
X87418334Y-154778752D01*
X87418334Y-154778752D02*
X87387858Y-154809228D01*
X87387858Y-154809228D02*
X87357381Y-154870180D01*
X87357381Y-154870180D02*
X87357381Y-154931133D01*
X87357381Y-154931133D02*
X87387858Y-155022561D01*
X87387858Y-155022561D02*
X87753572Y-155388276D01*
X87753572Y-155388276D02*
X87357381Y-155388276D01*
X89811428Y-93427323D02*
X89841904Y-93457800D01*
X89841904Y-93457800D02*
X89933333Y-93488276D01*
X89933333Y-93488276D02*
X89994285Y-93488276D01*
X89994285Y-93488276D02*
X90085714Y-93457800D01*
X90085714Y-93457800D02*
X90146666Y-93396847D01*
X90146666Y-93396847D02*
X90177143Y-93335895D01*
X90177143Y-93335895D02*
X90207619Y-93213990D01*
X90207619Y-93213990D02*
X90207619Y-93122561D01*
X90207619Y-93122561D02*
X90177143Y-93000657D01*
X90177143Y-93000657D02*
X90146666Y-92939704D01*
X90146666Y-92939704D02*
X90085714Y-92878752D01*
X90085714Y-92878752D02*
X89994285Y-92848276D01*
X89994285Y-92848276D02*
X89933333Y-92848276D01*
X89933333Y-92848276D02*
X89841904Y-92878752D01*
X89841904Y-92878752D02*
X89811428Y-92909228D01*
X89262857Y-93061609D02*
X89262857Y-93488276D01*
X89415238Y-92817800D02*
X89567619Y-93274942D01*
X89567619Y-93274942D02*
X89171428Y-93274942D01*
X88805714Y-92848276D02*
X88744761Y-92848276D01*
X88744761Y-92848276D02*
X88683809Y-92878752D01*
X88683809Y-92878752D02*
X88653333Y-92909228D01*
X88653333Y-92909228D02*
X88622857Y-92970180D01*
X88622857Y-92970180D02*
X88592380Y-93092085D01*
X88592380Y-93092085D02*
X88592380Y-93244466D01*
X88592380Y-93244466D02*
X88622857Y-93366371D01*
X88622857Y-93366371D02*
X88653333Y-93427323D01*
X88653333Y-93427323D02*
X88683809Y-93457800D01*
X88683809Y-93457800D02*
X88744761Y-93488276D01*
X88744761Y-93488276D02*
X88805714Y-93488276D01*
X88805714Y-93488276D02*
X88866666Y-93457800D01*
X88866666Y-93457800D02*
X88897142Y-93427323D01*
X88897142Y-93427323D02*
X88927619Y-93366371D01*
X88927619Y-93366371D02*
X88958095Y-93244466D01*
X88958095Y-93244466D02*
X88958095Y-93092085D01*
X88958095Y-93092085D02*
X88927619Y-92970180D01*
X88927619Y-92970180D02*
X88897142Y-92909228D01*
X88897142Y-92909228D02*
X88866666Y-92878752D01*
X88866666Y-92878752D02*
X88805714Y-92848276D01*
X88983723Y-130156571D02*
X89014200Y-130126095D01*
X89014200Y-130126095D02*
X89044676Y-130034666D01*
X89044676Y-130034666D02*
X89044676Y-129973714D01*
X89044676Y-129973714D02*
X89014200Y-129882285D01*
X89014200Y-129882285D02*
X88953247Y-129821333D01*
X88953247Y-129821333D02*
X88892295Y-129790856D01*
X88892295Y-129790856D02*
X88770390Y-129760380D01*
X88770390Y-129760380D02*
X88678961Y-129760380D01*
X88678961Y-129760380D02*
X88557057Y-129790856D01*
X88557057Y-129790856D02*
X88496104Y-129821333D01*
X88496104Y-129821333D02*
X88435152Y-129882285D01*
X88435152Y-129882285D02*
X88404676Y-129973714D01*
X88404676Y-129973714D02*
X88404676Y-130034666D01*
X88404676Y-130034666D02*
X88435152Y-130126095D01*
X88435152Y-130126095D02*
X88465628Y-130156571D01*
X89044676Y-130766095D02*
X89044676Y-130400380D01*
X89044676Y-130583237D02*
X88404676Y-130583237D01*
X88404676Y-130583237D02*
X88496104Y-130522285D01*
X88496104Y-130522285D02*
X88557057Y-130461333D01*
X88557057Y-130461333D02*
X88587533Y-130400380D01*
X88404676Y-131314666D02*
X88404676Y-131192761D01*
X88404676Y-131192761D02*
X88435152Y-131131809D01*
X88435152Y-131131809D02*
X88465628Y-131101333D01*
X88465628Y-131101333D02*
X88557057Y-131040380D01*
X88557057Y-131040380D02*
X88678961Y-131009904D01*
X88678961Y-131009904D02*
X88922771Y-131009904D01*
X88922771Y-131009904D02*
X88983723Y-131040380D01*
X88983723Y-131040380D02*
X89014200Y-131070857D01*
X89014200Y-131070857D02*
X89044676Y-131131809D01*
X89044676Y-131131809D02*
X89044676Y-131253714D01*
X89044676Y-131253714D02*
X89014200Y-131314666D01*
X89014200Y-131314666D02*
X88983723Y-131345142D01*
X88983723Y-131345142D02*
X88922771Y-131375619D01*
X88922771Y-131375619D02*
X88770390Y-131375619D01*
X88770390Y-131375619D02*
X88709438Y-131345142D01*
X88709438Y-131345142D02*
X88678961Y-131314666D01*
X88678961Y-131314666D02*
X88648485Y-131253714D01*
X88648485Y-131253714D02*
X88648485Y-131131809D01*
X88648485Y-131131809D02*
X88678961Y-131070857D01*
X88678961Y-131070857D02*
X88709438Y-131040380D01*
X88709438Y-131040380D02*
X88770390Y-131009904D01*
X82911428Y-114595776D02*
X83124762Y-114291014D01*
X83277143Y-114595776D02*
X83277143Y-113955776D01*
X83277143Y-113955776D02*
X83033333Y-113955776D01*
X83033333Y-113955776D02*
X82972381Y-113986252D01*
X82972381Y-113986252D02*
X82941904Y-114016728D01*
X82941904Y-114016728D02*
X82911428Y-114077680D01*
X82911428Y-114077680D02*
X82911428Y-114169109D01*
X82911428Y-114169109D02*
X82941904Y-114230061D01*
X82941904Y-114230061D02*
X82972381Y-114260538D01*
X82972381Y-114260538D02*
X83033333Y-114291014D01*
X83033333Y-114291014D02*
X83277143Y-114291014D01*
X82667619Y-114016728D02*
X82637143Y-113986252D01*
X82637143Y-113986252D02*
X82576190Y-113955776D01*
X82576190Y-113955776D02*
X82423809Y-113955776D01*
X82423809Y-113955776D02*
X82362857Y-113986252D01*
X82362857Y-113986252D02*
X82332381Y-114016728D01*
X82332381Y-114016728D02*
X82301904Y-114077680D01*
X82301904Y-114077680D02*
X82301904Y-114138633D01*
X82301904Y-114138633D02*
X82332381Y-114230061D01*
X82332381Y-114230061D02*
X82698095Y-114595776D01*
X82698095Y-114595776D02*
X82301904Y-114595776D01*
X82058095Y-114016728D02*
X82027619Y-113986252D01*
X82027619Y-113986252D02*
X81966666Y-113955776D01*
X81966666Y-113955776D02*
X81814285Y-113955776D01*
X81814285Y-113955776D02*
X81753333Y-113986252D01*
X81753333Y-113986252D02*
X81722857Y-114016728D01*
X81722857Y-114016728D02*
X81692380Y-114077680D01*
X81692380Y-114077680D02*
X81692380Y-114138633D01*
X81692380Y-114138633D02*
X81722857Y-114230061D01*
X81722857Y-114230061D02*
X82088571Y-114595776D01*
X82088571Y-114595776D02*
X81692380Y-114595776D01*
X85912380Y-152855776D02*
X85546666Y-152855776D01*
X85729523Y-153495776D02*
X85729523Y-152855776D01*
X85333333Y-153495776D02*
X85333333Y-152855776D01*
X85333333Y-152855776D02*
X85089523Y-152855776D01*
X85089523Y-152855776D02*
X85028571Y-152886252D01*
X85028571Y-152886252D02*
X84998094Y-152916728D01*
X84998094Y-152916728D02*
X84967618Y-152977680D01*
X84967618Y-152977680D02*
X84967618Y-153069109D01*
X84967618Y-153069109D02*
X84998094Y-153130061D01*
X84998094Y-153130061D02*
X85028571Y-153160538D01*
X85028571Y-153160538D02*
X85089523Y-153191014D01*
X85089523Y-153191014D02*
X85333333Y-153191014D01*
X84358094Y-153495776D02*
X84723809Y-153495776D01*
X84540952Y-153495776D02*
X84540952Y-152855776D01*
X84540952Y-152855776D02*
X84601904Y-152947204D01*
X84601904Y-152947204D02*
X84662856Y-153008157D01*
X84662856Y-153008157D02*
X84723809Y-153038633D01*
X83809523Y-152855776D02*
X83931428Y-152855776D01*
X83931428Y-152855776D02*
X83992380Y-152886252D01*
X83992380Y-152886252D02*
X84022856Y-152916728D01*
X84022856Y-152916728D02*
X84083809Y-153008157D01*
X84083809Y-153008157D02*
X84114285Y-153130061D01*
X84114285Y-153130061D02*
X84114285Y-153373871D01*
X84114285Y-153373871D02*
X84083809Y-153434823D01*
X84083809Y-153434823D02*
X84053332Y-153465300D01*
X84053332Y-153465300D02*
X83992380Y-153495776D01*
X83992380Y-153495776D02*
X83870475Y-153495776D01*
X83870475Y-153495776D02*
X83809523Y-153465300D01*
X83809523Y-153465300D02*
X83779047Y-153434823D01*
X83779047Y-153434823D02*
X83748570Y-153373871D01*
X83748570Y-153373871D02*
X83748570Y-153221490D01*
X83748570Y-153221490D02*
X83779047Y-153160538D01*
X83779047Y-153160538D02*
X83809523Y-153130061D01*
X83809523Y-153130061D02*
X83870475Y-153099585D01*
X83870475Y-153099585D02*
X83992380Y-153099585D01*
X83992380Y-153099585D02*
X84053332Y-153130061D01*
X84053332Y-153130061D02*
X84083809Y-153160538D01*
X84083809Y-153160538D02*
X84114285Y-153221490D01*
X85007618Y-151655776D02*
X84641904Y-151655776D01*
X84824761Y-152295776D02*
X84824761Y-151655776D01*
X84428571Y-152295776D02*
X84428571Y-151655776D01*
X84428571Y-151655776D02*
X84184761Y-151655776D01*
X84184761Y-151655776D02*
X84123809Y-151686252D01*
X84123809Y-151686252D02*
X84093332Y-151716728D01*
X84093332Y-151716728D02*
X84062856Y-151777680D01*
X84062856Y-151777680D02*
X84062856Y-151869109D01*
X84062856Y-151869109D02*
X84093332Y-151930061D01*
X84093332Y-151930061D02*
X84123809Y-151960538D01*
X84123809Y-151960538D02*
X84184761Y-151991014D01*
X84184761Y-151991014D02*
X84428571Y-151991014D01*
X83849523Y-151655776D02*
X83422856Y-151655776D01*
X83422856Y-151655776D02*
X83697142Y-152295776D01*
X99788276Y-148396071D02*
X99483514Y-148182737D01*
X99788276Y-148030356D02*
X99148276Y-148030356D01*
X99148276Y-148030356D02*
X99148276Y-148274166D01*
X99148276Y-148274166D02*
X99178752Y-148335118D01*
X99178752Y-148335118D02*
X99209228Y-148365595D01*
X99209228Y-148365595D02*
X99270180Y-148396071D01*
X99270180Y-148396071D02*
X99361609Y-148396071D01*
X99361609Y-148396071D02*
X99422561Y-148365595D01*
X99422561Y-148365595D02*
X99453038Y-148335118D01*
X99453038Y-148335118D02*
X99483514Y-148274166D01*
X99483514Y-148274166D02*
X99483514Y-148030356D01*
X99361609Y-148944642D02*
X99788276Y-148944642D01*
X99117800Y-148792261D02*
X99574942Y-148639880D01*
X99574942Y-148639880D02*
X99574942Y-149036071D01*
X99148276Y-149584642D02*
X99148276Y-149279880D01*
X99148276Y-149279880D02*
X99453038Y-149249404D01*
X99453038Y-149249404D02*
X99422561Y-149279880D01*
X99422561Y-149279880D02*
X99392085Y-149340833D01*
X99392085Y-149340833D02*
X99392085Y-149493214D01*
X99392085Y-149493214D02*
X99422561Y-149554166D01*
X99422561Y-149554166D02*
X99453038Y-149584642D01*
X99453038Y-149584642D02*
X99513990Y-149615119D01*
X99513990Y-149615119D02*
X99666371Y-149615119D01*
X99666371Y-149615119D02*
X99727323Y-149584642D01*
X99727323Y-149584642D02*
X99757800Y-149554166D01*
X99757800Y-149554166D02*
X99788276Y-149493214D01*
X99788276Y-149493214D02*
X99788276Y-149340833D01*
X99788276Y-149340833D02*
X99757800Y-149279880D01*
X99757800Y-149279880D02*
X99727323Y-149249404D01*
X91961428Y-92688276D02*
X92174762Y-92383514D01*
X92327143Y-92688276D02*
X92327143Y-92048276D01*
X92327143Y-92048276D02*
X92083333Y-92048276D01*
X92083333Y-92048276D02*
X92022381Y-92078752D01*
X92022381Y-92078752D02*
X91991904Y-92109228D01*
X91991904Y-92109228D02*
X91961428Y-92170180D01*
X91961428Y-92170180D02*
X91961428Y-92261609D01*
X91961428Y-92261609D02*
X91991904Y-92322561D01*
X91991904Y-92322561D02*
X92022381Y-92353038D01*
X92022381Y-92353038D02*
X92083333Y-92383514D01*
X92083333Y-92383514D02*
X92327143Y-92383514D01*
X91717619Y-92109228D02*
X91687143Y-92078752D01*
X91687143Y-92078752D02*
X91626190Y-92048276D01*
X91626190Y-92048276D02*
X91473809Y-92048276D01*
X91473809Y-92048276D02*
X91412857Y-92078752D01*
X91412857Y-92078752D02*
X91382381Y-92109228D01*
X91382381Y-92109228D02*
X91351904Y-92170180D01*
X91351904Y-92170180D02*
X91351904Y-92231133D01*
X91351904Y-92231133D02*
X91382381Y-92322561D01*
X91382381Y-92322561D02*
X91748095Y-92688276D01*
X91748095Y-92688276D02*
X91351904Y-92688276D01*
X91047142Y-92688276D02*
X90925238Y-92688276D01*
X90925238Y-92688276D02*
X90864285Y-92657800D01*
X90864285Y-92657800D02*
X90833809Y-92627323D01*
X90833809Y-92627323D02*
X90772857Y-92535895D01*
X90772857Y-92535895D02*
X90742380Y-92413990D01*
X90742380Y-92413990D02*
X90742380Y-92170180D01*
X90742380Y-92170180D02*
X90772857Y-92109228D01*
X90772857Y-92109228D02*
X90803333Y-92078752D01*
X90803333Y-92078752D02*
X90864285Y-92048276D01*
X90864285Y-92048276D02*
X90986190Y-92048276D01*
X90986190Y-92048276D02*
X91047142Y-92078752D01*
X91047142Y-92078752D02*
X91077619Y-92109228D01*
X91077619Y-92109228D02*
X91108095Y-92170180D01*
X91108095Y-92170180D02*
X91108095Y-92322561D01*
X91108095Y-92322561D02*
X91077619Y-92383514D01*
X91077619Y-92383514D02*
X91047142Y-92413990D01*
X91047142Y-92413990D02*
X90986190Y-92444466D01*
X90986190Y-92444466D02*
X90864285Y-92444466D01*
X90864285Y-92444466D02*
X90803333Y-92413990D01*
X90803333Y-92413990D02*
X90772857Y-92383514D01*
X90772857Y-92383514D02*
X90742380Y-92322561D01*
X101111428Y-134695776D02*
X101324762Y-134391014D01*
X101477143Y-134695776D02*
X101477143Y-134055776D01*
X101477143Y-134055776D02*
X101233333Y-134055776D01*
X101233333Y-134055776D02*
X101172381Y-134086252D01*
X101172381Y-134086252D02*
X101141904Y-134116728D01*
X101141904Y-134116728D02*
X101111428Y-134177680D01*
X101111428Y-134177680D02*
X101111428Y-134269109D01*
X101111428Y-134269109D02*
X101141904Y-134330061D01*
X101141904Y-134330061D02*
X101172381Y-134360538D01*
X101172381Y-134360538D02*
X101233333Y-134391014D01*
X101233333Y-134391014D02*
X101477143Y-134391014D01*
X100898095Y-134055776D02*
X100501904Y-134055776D01*
X100501904Y-134055776D02*
X100715238Y-134299585D01*
X100715238Y-134299585D02*
X100623809Y-134299585D01*
X100623809Y-134299585D02*
X100562857Y-134330061D01*
X100562857Y-134330061D02*
X100532381Y-134360538D01*
X100532381Y-134360538D02*
X100501904Y-134421490D01*
X100501904Y-134421490D02*
X100501904Y-134573871D01*
X100501904Y-134573871D02*
X100532381Y-134634823D01*
X100532381Y-134634823D02*
X100562857Y-134665300D01*
X100562857Y-134665300D02*
X100623809Y-134695776D01*
X100623809Y-134695776D02*
X100806666Y-134695776D01*
X100806666Y-134695776D02*
X100867619Y-134665300D01*
X100867619Y-134665300D02*
X100898095Y-134634823D01*
X100288571Y-134055776D02*
X99861904Y-134055776D01*
X99861904Y-134055776D02*
X100136190Y-134695776D01*
X87611428Y-157127323D02*
X87641904Y-157157800D01*
X87641904Y-157157800D02*
X87733333Y-157188276D01*
X87733333Y-157188276D02*
X87794285Y-157188276D01*
X87794285Y-157188276D02*
X87885714Y-157157800D01*
X87885714Y-157157800D02*
X87946666Y-157096847D01*
X87946666Y-157096847D02*
X87977143Y-157035895D01*
X87977143Y-157035895D02*
X88007619Y-156913990D01*
X88007619Y-156913990D02*
X88007619Y-156822561D01*
X88007619Y-156822561D02*
X87977143Y-156700657D01*
X87977143Y-156700657D02*
X87946666Y-156639704D01*
X87946666Y-156639704D02*
X87885714Y-156578752D01*
X87885714Y-156578752D02*
X87794285Y-156548276D01*
X87794285Y-156548276D02*
X87733333Y-156548276D01*
X87733333Y-156548276D02*
X87641904Y-156578752D01*
X87641904Y-156578752D02*
X87611428Y-156609228D01*
X87062857Y-156761609D02*
X87062857Y-157188276D01*
X87215238Y-156517800D02*
X87367619Y-156974942D01*
X87367619Y-156974942D02*
X86971428Y-156974942D01*
X86636190Y-156822561D02*
X86697142Y-156792085D01*
X86697142Y-156792085D02*
X86727619Y-156761609D01*
X86727619Y-156761609D02*
X86758095Y-156700657D01*
X86758095Y-156700657D02*
X86758095Y-156670180D01*
X86758095Y-156670180D02*
X86727619Y-156609228D01*
X86727619Y-156609228D02*
X86697142Y-156578752D01*
X86697142Y-156578752D02*
X86636190Y-156548276D01*
X86636190Y-156548276D02*
X86514285Y-156548276D01*
X86514285Y-156548276D02*
X86453333Y-156578752D01*
X86453333Y-156578752D02*
X86422857Y-156609228D01*
X86422857Y-156609228D02*
X86392380Y-156670180D01*
X86392380Y-156670180D02*
X86392380Y-156700657D01*
X86392380Y-156700657D02*
X86422857Y-156761609D01*
X86422857Y-156761609D02*
X86453333Y-156792085D01*
X86453333Y-156792085D02*
X86514285Y-156822561D01*
X86514285Y-156822561D02*
X86636190Y-156822561D01*
X86636190Y-156822561D02*
X86697142Y-156853038D01*
X86697142Y-156853038D02*
X86727619Y-156883514D01*
X86727619Y-156883514D02*
X86758095Y-156944466D01*
X86758095Y-156944466D02*
X86758095Y-157066371D01*
X86758095Y-157066371D02*
X86727619Y-157127323D01*
X86727619Y-157127323D02*
X86697142Y-157157800D01*
X86697142Y-157157800D02*
X86636190Y-157188276D01*
X86636190Y-157188276D02*
X86514285Y-157188276D01*
X86514285Y-157188276D02*
X86453333Y-157157800D01*
X86453333Y-157157800D02*
X86422857Y-157127323D01*
X86422857Y-157127323D02*
X86392380Y-157066371D01*
X86392380Y-157066371D02*
X86392380Y-156944466D01*
X86392380Y-156944466D02*
X86422857Y-156883514D01*
X86422857Y-156883514D02*
X86453333Y-156853038D01*
X86453333Y-156853038D02*
X86514285Y-156822561D01*
X84179428Y-136970923D02*
X84209904Y-137001400D01*
X84209904Y-137001400D02*
X84301333Y-137031876D01*
X84301333Y-137031876D02*
X84362285Y-137031876D01*
X84362285Y-137031876D02*
X84453714Y-137001400D01*
X84453714Y-137001400D02*
X84514666Y-136940447D01*
X84514666Y-136940447D02*
X84545143Y-136879495D01*
X84545143Y-136879495D02*
X84575619Y-136757590D01*
X84575619Y-136757590D02*
X84575619Y-136666161D01*
X84575619Y-136666161D02*
X84545143Y-136544257D01*
X84545143Y-136544257D02*
X84514666Y-136483304D01*
X84514666Y-136483304D02*
X84453714Y-136422352D01*
X84453714Y-136422352D02*
X84362285Y-136391876D01*
X84362285Y-136391876D02*
X84301333Y-136391876D01*
X84301333Y-136391876D02*
X84209904Y-136422352D01*
X84209904Y-136422352D02*
X84179428Y-136452828D01*
X83935619Y-136452828D02*
X83905143Y-136422352D01*
X83905143Y-136422352D02*
X83844190Y-136391876D01*
X83844190Y-136391876D02*
X83691809Y-136391876D01*
X83691809Y-136391876D02*
X83630857Y-136422352D01*
X83630857Y-136422352D02*
X83600381Y-136452828D01*
X83600381Y-136452828D02*
X83569904Y-136513780D01*
X83569904Y-136513780D02*
X83569904Y-136574733D01*
X83569904Y-136574733D02*
X83600381Y-136666161D01*
X83600381Y-136666161D02*
X83966095Y-137031876D01*
X83966095Y-137031876D02*
X83569904Y-137031876D01*
X83356571Y-136391876D02*
X82960380Y-136391876D01*
X82960380Y-136391876D02*
X83173714Y-136635685D01*
X83173714Y-136635685D02*
X83082285Y-136635685D01*
X83082285Y-136635685D02*
X83021333Y-136666161D01*
X83021333Y-136666161D02*
X82990857Y-136696638D01*
X82990857Y-136696638D02*
X82960380Y-136757590D01*
X82960380Y-136757590D02*
X82960380Y-136909971D01*
X82960380Y-136909971D02*
X82990857Y-136970923D01*
X82990857Y-136970923D02*
X83021333Y-137001400D01*
X83021333Y-137001400D02*
X83082285Y-137031876D01*
X83082285Y-137031876D02*
X83265142Y-137031876D01*
X83265142Y-137031876D02*
X83326095Y-137001400D01*
X83326095Y-137001400D02*
X83356571Y-136970923D01*
X86711428Y-114895776D02*
X86924762Y-114591014D01*
X87077143Y-114895776D02*
X87077143Y-114255776D01*
X87077143Y-114255776D02*
X86833333Y-114255776D01*
X86833333Y-114255776D02*
X86772381Y-114286252D01*
X86772381Y-114286252D02*
X86741904Y-114316728D01*
X86741904Y-114316728D02*
X86711428Y-114377680D01*
X86711428Y-114377680D02*
X86711428Y-114469109D01*
X86711428Y-114469109D02*
X86741904Y-114530061D01*
X86741904Y-114530061D02*
X86772381Y-114560538D01*
X86772381Y-114560538D02*
X86833333Y-114591014D01*
X86833333Y-114591014D02*
X87077143Y-114591014D01*
X86498095Y-114255776D02*
X86071428Y-114255776D01*
X86071428Y-114255776D02*
X86345714Y-114895776D01*
X85492380Y-114895776D02*
X85858095Y-114895776D01*
X85675238Y-114895776D02*
X85675238Y-114255776D01*
X85675238Y-114255776D02*
X85736190Y-114347204D01*
X85736190Y-114347204D02*
X85797142Y-114408157D01*
X85797142Y-114408157D02*
X85858095Y-114438633D01*
X84638276Y-121788571D02*
X84333514Y-121575237D01*
X84638276Y-121422856D02*
X83998276Y-121422856D01*
X83998276Y-121422856D02*
X83998276Y-121666666D01*
X83998276Y-121666666D02*
X84028752Y-121727618D01*
X84028752Y-121727618D02*
X84059228Y-121758095D01*
X84059228Y-121758095D02*
X84120180Y-121788571D01*
X84120180Y-121788571D02*
X84211609Y-121788571D01*
X84211609Y-121788571D02*
X84272561Y-121758095D01*
X84272561Y-121758095D02*
X84303038Y-121727618D01*
X84303038Y-121727618D02*
X84333514Y-121666666D01*
X84333514Y-121666666D02*
X84333514Y-121422856D01*
X84059228Y-122032380D02*
X84028752Y-122062856D01*
X84028752Y-122062856D02*
X83998276Y-122123809D01*
X83998276Y-122123809D02*
X83998276Y-122276190D01*
X83998276Y-122276190D02*
X84028752Y-122337142D01*
X84028752Y-122337142D02*
X84059228Y-122367618D01*
X84059228Y-122367618D02*
X84120180Y-122398095D01*
X84120180Y-122398095D02*
X84181133Y-122398095D01*
X84181133Y-122398095D02*
X84272561Y-122367618D01*
X84272561Y-122367618D02*
X84638276Y-122001904D01*
X84638276Y-122001904D02*
X84638276Y-122398095D01*
X83998276Y-122794285D02*
X83998276Y-122855238D01*
X83998276Y-122855238D02*
X84028752Y-122916190D01*
X84028752Y-122916190D02*
X84059228Y-122946666D01*
X84059228Y-122946666D02*
X84120180Y-122977142D01*
X84120180Y-122977142D02*
X84242085Y-123007619D01*
X84242085Y-123007619D02*
X84394466Y-123007619D01*
X84394466Y-123007619D02*
X84516371Y-122977142D01*
X84516371Y-122977142D02*
X84577323Y-122946666D01*
X84577323Y-122946666D02*
X84607800Y-122916190D01*
X84607800Y-122916190D02*
X84638276Y-122855238D01*
X84638276Y-122855238D02*
X84638276Y-122794285D01*
X84638276Y-122794285D02*
X84607800Y-122733333D01*
X84607800Y-122733333D02*
X84577323Y-122702857D01*
X84577323Y-122702857D02*
X84516371Y-122672380D01*
X84516371Y-122672380D02*
X84394466Y-122641904D01*
X84394466Y-122641904D02*
X84242085Y-122641904D01*
X84242085Y-122641904D02*
X84120180Y-122672380D01*
X84120180Y-122672380D02*
X84059228Y-122702857D01*
X84059228Y-122702857D02*
X84028752Y-122733333D01*
X84028752Y-122733333D02*
X83998276Y-122794285D01*
X92959880Y-100643276D02*
X92594166Y-100643276D01*
X92777023Y-101283276D02*
X92777023Y-100643276D01*
X92380833Y-101283276D02*
X92380833Y-100643276D01*
X92380833Y-100643276D02*
X92137023Y-100643276D01*
X92137023Y-100643276D02*
X92076071Y-100673752D01*
X92076071Y-100673752D02*
X92045594Y-100704228D01*
X92045594Y-100704228D02*
X92015118Y-100765180D01*
X92015118Y-100765180D02*
X92015118Y-100856609D01*
X92015118Y-100856609D02*
X92045594Y-100917561D01*
X92045594Y-100917561D02*
X92076071Y-100948038D01*
X92076071Y-100948038D02*
X92137023Y-100978514D01*
X92137023Y-100978514D02*
X92380833Y-100978514D01*
X91771309Y-100704228D02*
X91740833Y-100673752D01*
X91740833Y-100673752D02*
X91679880Y-100643276D01*
X91679880Y-100643276D02*
X91527499Y-100643276D01*
X91527499Y-100643276D02*
X91466547Y-100673752D01*
X91466547Y-100673752D02*
X91436071Y-100704228D01*
X91436071Y-100704228D02*
X91405594Y-100765180D01*
X91405594Y-100765180D02*
X91405594Y-100826133D01*
X91405594Y-100826133D02*
X91436071Y-100917561D01*
X91436071Y-100917561D02*
X91801785Y-101283276D01*
X91801785Y-101283276D02*
X91405594Y-101283276D01*
X90796070Y-101283276D02*
X91161785Y-101283276D01*
X90978928Y-101283276D02*
X90978928Y-100643276D01*
X90978928Y-100643276D02*
X91039880Y-100734704D01*
X91039880Y-100734704D02*
X91100832Y-100795657D01*
X91100832Y-100795657D02*
X91161785Y-100826133D01*
X89511428Y-107334823D02*
X89541904Y-107365300D01*
X89541904Y-107365300D02*
X89633333Y-107395776D01*
X89633333Y-107395776D02*
X89694285Y-107395776D01*
X89694285Y-107395776D02*
X89785714Y-107365300D01*
X89785714Y-107365300D02*
X89846666Y-107304347D01*
X89846666Y-107304347D02*
X89877143Y-107243395D01*
X89877143Y-107243395D02*
X89907619Y-107121490D01*
X89907619Y-107121490D02*
X89907619Y-107030061D01*
X89907619Y-107030061D02*
X89877143Y-106908157D01*
X89877143Y-106908157D02*
X89846666Y-106847204D01*
X89846666Y-106847204D02*
X89785714Y-106786252D01*
X89785714Y-106786252D02*
X89694285Y-106755776D01*
X89694285Y-106755776D02*
X89633333Y-106755776D01*
X89633333Y-106755776D02*
X89541904Y-106786252D01*
X89541904Y-106786252D02*
X89511428Y-106816728D01*
X89298095Y-106755776D02*
X88901904Y-106755776D01*
X88901904Y-106755776D02*
X89115238Y-106999585D01*
X89115238Y-106999585D02*
X89023809Y-106999585D01*
X89023809Y-106999585D02*
X88962857Y-107030061D01*
X88962857Y-107030061D02*
X88932381Y-107060538D01*
X88932381Y-107060538D02*
X88901904Y-107121490D01*
X88901904Y-107121490D02*
X88901904Y-107273871D01*
X88901904Y-107273871D02*
X88932381Y-107334823D01*
X88932381Y-107334823D02*
X88962857Y-107365300D01*
X88962857Y-107365300D02*
X89023809Y-107395776D01*
X89023809Y-107395776D02*
X89206666Y-107395776D01*
X89206666Y-107395776D02*
X89267619Y-107365300D01*
X89267619Y-107365300D02*
X89298095Y-107334823D01*
X88536190Y-107030061D02*
X88597142Y-106999585D01*
X88597142Y-106999585D02*
X88627619Y-106969109D01*
X88627619Y-106969109D02*
X88658095Y-106908157D01*
X88658095Y-106908157D02*
X88658095Y-106877680D01*
X88658095Y-106877680D02*
X88627619Y-106816728D01*
X88627619Y-106816728D02*
X88597142Y-106786252D01*
X88597142Y-106786252D02*
X88536190Y-106755776D01*
X88536190Y-106755776D02*
X88414285Y-106755776D01*
X88414285Y-106755776D02*
X88353333Y-106786252D01*
X88353333Y-106786252D02*
X88322857Y-106816728D01*
X88322857Y-106816728D02*
X88292380Y-106877680D01*
X88292380Y-106877680D02*
X88292380Y-106908157D01*
X88292380Y-106908157D02*
X88322857Y-106969109D01*
X88322857Y-106969109D02*
X88353333Y-106999585D01*
X88353333Y-106999585D02*
X88414285Y-107030061D01*
X88414285Y-107030061D02*
X88536190Y-107030061D01*
X88536190Y-107030061D02*
X88597142Y-107060538D01*
X88597142Y-107060538D02*
X88627619Y-107091014D01*
X88627619Y-107091014D02*
X88658095Y-107151966D01*
X88658095Y-107151966D02*
X88658095Y-107273871D01*
X88658095Y-107273871D02*
X88627619Y-107334823D01*
X88627619Y-107334823D02*
X88597142Y-107365300D01*
X88597142Y-107365300D02*
X88536190Y-107395776D01*
X88536190Y-107395776D02*
X88414285Y-107395776D01*
X88414285Y-107395776D02*
X88353333Y-107365300D01*
X88353333Y-107365300D02*
X88322857Y-107334823D01*
X88322857Y-107334823D02*
X88292380Y-107273871D01*
X88292380Y-107273871D02*
X88292380Y-107151966D01*
X88292380Y-107151966D02*
X88322857Y-107091014D01*
X88322857Y-107091014D02*
X88353333Y-107060538D01*
X88353333Y-107060538D02*
X88414285Y-107030061D01*
X90943428Y-147552176D02*
X91156762Y-147247414D01*
X91309143Y-147552176D02*
X91309143Y-146912176D01*
X91309143Y-146912176D02*
X91065333Y-146912176D01*
X91065333Y-146912176D02*
X91004381Y-146942652D01*
X91004381Y-146942652D02*
X90973904Y-146973128D01*
X90973904Y-146973128D02*
X90943428Y-147034080D01*
X90943428Y-147034080D02*
X90943428Y-147125509D01*
X90943428Y-147125509D02*
X90973904Y-147186461D01*
X90973904Y-147186461D02*
X91004381Y-147216938D01*
X91004381Y-147216938D02*
X91065333Y-147247414D01*
X91065333Y-147247414D02*
X91309143Y-147247414D01*
X90394857Y-147125509D02*
X90394857Y-147552176D01*
X90547238Y-146881700D02*
X90699619Y-147338842D01*
X90699619Y-147338842D02*
X90303428Y-147338842D01*
X90120571Y-146912176D02*
X89693904Y-146912176D01*
X89693904Y-146912176D02*
X89968190Y-147552176D01*
X101411428Y-132334823D02*
X101441904Y-132365300D01*
X101441904Y-132365300D02*
X101533333Y-132395776D01*
X101533333Y-132395776D02*
X101594285Y-132395776D01*
X101594285Y-132395776D02*
X101685714Y-132365300D01*
X101685714Y-132365300D02*
X101746666Y-132304347D01*
X101746666Y-132304347D02*
X101777143Y-132243395D01*
X101777143Y-132243395D02*
X101807619Y-132121490D01*
X101807619Y-132121490D02*
X101807619Y-132030061D01*
X101807619Y-132030061D02*
X101777143Y-131908157D01*
X101777143Y-131908157D02*
X101746666Y-131847204D01*
X101746666Y-131847204D02*
X101685714Y-131786252D01*
X101685714Y-131786252D02*
X101594285Y-131755776D01*
X101594285Y-131755776D02*
X101533333Y-131755776D01*
X101533333Y-131755776D02*
X101441904Y-131786252D01*
X101441904Y-131786252D02*
X101411428Y-131816728D01*
X101167619Y-131816728D02*
X101137143Y-131786252D01*
X101137143Y-131786252D02*
X101076190Y-131755776D01*
X101076190Y-131755776D02*
X100923809Y-131755776D01*
X100923809Y-131755776D02*
X100862857Y-131786252D01*
X100862857Y-131786252D02*
X100832381Y-131816728D01*
X100832381Y-131816728D02*
X100801904Y-131877680D01*
X100801904Y-131877680D02*
X100801904Y-131938633D01*
X100801904Y-131938633D02*
X100832381Y-132030061D01*
X100832381Y-132030061D02*
X101198095Y-132395776D01*
X101198095Y-132395776D02*
X100801904Y-132395776D01*
X100497142Y-132395776D02*
X100375238Y-132395776D01*
X100375238Y-132395776D02*
X100314285Y-132365300D01*
X100314285Y-132365300D02*
X100283809Y-132334823D01*
X100283809Y-132334823D02*
X100222857Y-132243395D01*
X100222857Y-132243395D02*
X100192380Y-132121490D01*
X100192380Y-132121490D02*
X100192380Y-131877680D01*
X100192380Y-131877680D02*
X100222857Y-131816728D01*
X100222857Y-131816728D02*
X100253333Y-131786252D01*
X100253333Y-131786252D02*
X100314285Y-131755776D01*
X100314285Y-131755776D02*
X100436190Y-131755776D01*
X100436190Y-131755776D02*
X100497142Y-131786252D01*
X100497142Y-131786252D02*
X100527619Y-131816728D01*
X100527619Y-131816728D02*
X100558095Y-131877680D01*
X100558095Y-131877680D02*
X100558095Y-132030061D01*
X100558095Y-132030061D02*
X100527619Y-132091014D01*
X100527619Y-132091014D02*
X100497142Y-132121490D01*
X100497142Y-132121490D02*
X100436190Y-132151966D01*
X100436190Y-132151966D02*
X100314285Y-132151966D01*
X100314285Y-132151966D02*
X100253333Y-132121490D01*
X100253333Y-132121490D02*
X100222857Y-132091014D01*
X100222857Y-132091014D02*
X100192380Y-132030061D01*
X96627323Y-128596071D02*
X96657800Y-128565595D01*
X96657800Y-128565595D02*
X96688276Y-128474166D01*
X96688276Y-128474166D02*
X96688276Y-128413214D01*
X96688276Y-128413214D02*
X96657800Y-128321785D01*
X96657800Y-128321785D02*
X96596847Y-128260833D01*
X96596847Y-128260833D02*
X96535895Y-128230356D01*
X96535895Y-128230356D02*
X96413990Y-128199880D01*
X96413990Y-128199880D02*
X96322561Y-128199880D01*
X96322561Y-128199880D02*
X96200657Y-128230356D01*
X96200657Y-128230356D02*
X96139704Y-128260833D01*
X96139704Y-128260833D02*
X96078752Y-128321785D01*
X96078752Y-128321785D02*
X96048276Y-128413214D01*
X96048276Y-128413214D02*
X96048276Y-128474166D01*
X96048276Y-128474166D02*
X96078752Y-128565595D01*
X96078752Y-128565595D02*
X96109228Y-128596071D01*
X96109228Y-128839880D02*
X96078752Y-128870356D01*
X96078752Y-128870356D02*
X96048276Y-128931309D01*
X96048276Y-128931309D02*
X96048276Y-129083690D01*
X96048276Y-129083690D02*
X96078752Y-129144642D01*
X96078752Y-129144642D02*
X96109228Y-129175118D01*
X96109228Y-129175118D02*
X96170180Y-129205595D01*
X96170180Y-129205595D02*
X96231133Y-129205595D01*
X96231133Y-129205595D02*
X96322561Y-129175118D01*
X96322561Y-129175118D02*
X96688276Y-128809404D01*
X96688276Y-128809404D02*
X96688276Y-129205595D01*
X96322561Y-129571309D02*
X96292085Y-129510357D01*
X96292085Y-129510357D02*
X96261609Y-129479880D01*
X96261609Y-129479880D02*
X96200657Y-129449404D01*
X96200657Y-129449404D02*
X96170180Y-129449404D01*
X96170180Y-129449404D02*
X96109228Y-129479880D01*
X96109228Y-129479880D02*
X96078752Y-129510357D01*
X96078752Y-129510357D02*
X96048276Y-129571309D01*
X96048276Y-129571309D02*
X96048276Y-129693214D01*
X96048276Y-129693214D02*
X96078752Y-129754166D01*
X96078752Y-129754166D02*
X96109228Y-129784642D01*
X96109228Y-129784642D02*
X96170180Y-129815119D01*
X96170180Y-129815119D02*
X96200657Y-129815119D01*
X96200657Y-129815119D02*
X96261609Y-129784642D01*
X96261609Y-129784642D02*
X96292085Y-129754166D01*
X96292085Y-129754166D02*
X96322561Y-129693214D01*
X96322561Y-129693214D02*
X96322561Y-129571309D01*
X96322561Y-129571309D02*
X96353038Y-129510357D01*
X96353038Y-129510357D02*
X96383514Y-129479880D01*
X96383514Y-129479880D02*
X96444466Y-129449404D01*
X96444466Y-129449404D02*
X96566371Y-129449404D01*
X96566371Y-129449404D02*
X96627323Y-129479880D01*
X96627323Y-129479880D02*
X96657800Y-129510357D01*
X96657800Y-129510357D02*
X96688276Y-129571309D01*
X96688276Y-129571309D02*
X96688276Y-129693214D01*
X96688276Y-129693214D02*
X96657800Y-129754166D01*
X96657800Y-129754166D02*
X96627323Y-129784642D01*
X96627323Y-129784642D02*
X96566371Y-129815119D01*
X96566371Y-129815119D02*
X96444466Y-129815119D01*
X96444466Y-129815119D02*
X96383514Y-129784642D01*
X96383514Y-129784642D02*
X96353038Y-129754166D01*
X96353038Y-129754166D02*
X96322561Y-129693214D01*
X98599091Y-152396476D02*
X98599091Y-152914571D01*
X98599091Y-152914571D02*
X98568614Y-152975523D01*
X98568614Y-152975523D02*
X98538138Y-153006000D01*
X98538138Y-153006000D02*
X98477186Y-153036476D01*
X98477186Y-153036476D02*
X98355281Y-153036476D01*
X98355281Y-153036476D02*
X98294329Y-153006000D01*
X98294329Y-153006000D02*
X98263852Y-152975523D01*
X98263852Y-152975523D02*
X98233376Y-152914571D01*
X98233376Y-152914571D02*
X98233376Y-152396476D01*
X97593376Y-153036476D02*
X97959091Y-153036476D01*
X97776234Y-153036476D02*
X97776234Y-152396476D01*
X97776234Y-152396476D02*
X97837186Y-152487904D01*
X97837186Y-152487904D02*
X97898138Y-152548857D01*
X97898138Y-152548857D02*
X97959091Y-152579333D01*
X97197186Y-152396476D02*
X97136233Y-152396476D01*
X97136233Y-152396476D02*
X97075281Y-152426952D01*
X97075281Y-152426952D02*
X97044805Y-152457428D01*
X97044805Y-152457428D02*
X97014329Y-152518380D01*
X97014329Y-152518380D02*
X96983852Y-152640285D01*
X96983852Y-152640285D02*
X96983852Y-152792666D01*
X96983852Y-152792666D02*
X97014329Y-152914571D01*
X97014329Y-152914571D02*
X97044805Y-152975523D01*
X97044805Y-152975523D02*
X97075281Y-153006000D01*
X97075281Y-153006000D02*
X97136233Y-153036476D01*
X97136233Y-153036476D02*
X97197186Y-153036476D01*
X97197186Y-153036476D02*
X97258138Y-153006000D01*
X97258138Y-153006000D02*
X97288614Y-152975523D01*
X97288614Y-152975523D02*
X97319091Y-152914571D01*
X97319091Y-152914571D02*
X97349567Y-152792666D01*
X97349567Y-152792666D02*
X97349567Y-152640285D01*
X97349567Y-152640285D02*
X97319091Y-152518380D01*
X97319091Y-152518380D02*
X97288614Y-152457428D01*
X97288614Y-152457428D02*
X97258138Y-152426952D01*
X97258138Y-152426952D02*
X97197186Y-152396476D01*
X96283723Y-146064071D02*
X96314200Y-146033595D01*
X96314200Y-146033595D02*
X96344676Y-145942166D01*
X96344676Y-145942166D02*
X96344676Y-145881214D01*
X96344676Y-145881214D02*
X96314200Y-145789785D01*
X96314200Y-145789785D02*
X96253247Y-145728833D01*
X96253247Y-145728833D02*
X96192295Y-145698356D01*
X96192295Y-145698356D02*
X96070390Y-145667880D01*
X96070390Y-145667880D02*
X95978961Y-145667880D01*
X95978961Y-145667880D02*
X95857057Y-145698356D01*
X95857057Y-145698356D02*
X95796104Y-145728833D01*
X95796104Y-145728833D02*
X95735152Y-145789785D01*
X95735152Y-145789785D02*
X95704676Y-145881214D01*
X95704676Y-145881214D02*
X95704676Y-145942166D01*
X95704676Y-145942166D02*
X95735152Y-146033595D01*
X95735152Y-146033595D02*
X95765628Y-146064071D01*
X95704676Y-146277404D02*
X95704676Y-146704071D01*
X95704676Y-146704071D02*
X96344676Y-146429785D01*
X96344676Y-147283119D02*
X96344676Y-146917404D01*
X96344676Y-147100261D02*
X95704676Y-147100261D01*
X95704676Y-147100261D02*
X95796104Y-147039309D01*
X95796104Y-147039309D02*
X95857057Y-146978357D01*
X95857057Y-146978357D02*
X95887533Y-146917404D01*
X82911428Y-111195776D02*
X83124762Y-110891014D01*
X83277143Y-111195776D02*
X83277143Y-110555776D01*
X83277143Y-110555776D02*
X83033333Y-110555776D01*
X83033333Y-110555776D02*
X82972381Y-110586252D01*
X82972381Y-110586252D02*
X82941904Y-110616728D01*
X82941904Y-110616728D02*
X82911428Y-110677680D01*
X82911428Y-110677680D02*
X82911428Y-110769109D01*
X82911428Y-110769109D02*
X82941904Y-110830061D01*
X82941904Y-110830061D02*
X82972381Y-110860538D01*
X82972381Y-110860538D02*
X83033333Y-110891014D01*
X83033333Y-110891014D02*
X83277143Y-110891014D01*
X82698095Y-110555776D02*
X82301904Y-110555776D01*
X82301904Y-110555776D02*
X82515238Y-110799585D01*
X82515238Y-110799585D02*
X82423809Y-110799585D01*
X82423809Y-110799585D02*
X82362857Y-110830061D01*
X82362857Y-110830061D02*
X82332381Y-110860538D01*
X82332381Y-110860538D02*
X82301904Y-110921490D01*
X82301904Y-110921490D02*
X82301904Y-111073871D01*
X82301904Y-111073871D02*
X82332381Y-111134823D01*
X82332381Y-111134823D02*
X82362857Y-111165300D01*
X82362857Y-111165300D02*
X82423809Y-111195776D01*
X82423809Y-111195776D02*
X82606666Y-111195776D01*
X82606666Y-111195776D02*
X82667619Y-111165300D01*
X82667619Y-111165300D02*
X82698095Y-111134823D01*
X82088571Y-110555776D02*
X81692380Y-110555776D01*
X81692380Y-110555776D02*
X81905714Y-110799585D01*
X81905714Y-110799585D02*
X81814285Y-110799585D01*
X81814285Y-110799585D02*
X81753333Y-110830061D01*
X81753333Y-110830061D02*
X81722857Y-110860538D01*
X81722857Y-110860538D02*
X81692380Y-110921490D01*
X81692380Y-110921490D02*
X81692380Y-111073871D01*
X81692380Y-111073871D02*
X81722857Y-111134823D01*
X81722857Y-111134823D02*
X81753333Y-111165300D01*
X81753333Y-111165300D02*
X81814285Y-111195776D01*
X81814285Y-111195776D02*
X81997142Y-111195776D01*
X81997142Y-111195776D02*
X82058095Y-111165300D01*
X82058095Y-111165300D02*
X82088571Y-111134823D01*
X92354036Y-153416592D02*
X91987687Y-153782941D01*
X91987687Y-153782941D02*
X91923037Y-153804491D01*
X91923037Y-153804491D02*
X91879938Y-153804491D01*
X91879938Y-153804491D02*
X91815288Y-153782941D01*
X91815288Y-153782941D02*
X91729088Y-153696741D01*
X91729088Y-153696741D02*
X91707538Y-153632091D01*
X91707538Y-153632091D02*
X91707538Y-153588992D01*
X91707538Y-153588992D02*
X91729088Y-153524342D01*
X91729088Y-153524342D02*
X92095437Y-153157993D01*
X91190340Y-153157993D02*
X91448939Y-153416592D01*
X91319640Y-153287293D02*
X91772188Y-152834744D01*
X91772188Y-152834744D02*
X91750638Y-152942494D01*
X91750638Y-152942494D02*
X91750638Y-153028694D01*
X91750638Y-153028694D02*
X91772188Y-153093344D01*
X90759342Y-152726995D02*
X91017941Y-152985594D01*
X90888641Y-152856294D02*
X91341190Y-152403746D01*
X91341190Y-152403746D02*
X91319640Y-152511496D01*
X91319640Y-152511496D02*
X91319640Y-152597695D01*
X91319640Y-152597695D02*
X91341190Y-152662345D01*
X84794676Y-122706571D02*
X84489914Y-122493237D01*
X84794676Y-122340856D02*
X84154676Y-122340856D01*
X84154676Y-122340856D02*
X84154676Y-122584666D01*
X84154676Y-122584666D02*
X84185152Y-122645618D01*
X84185152Y-122645618D02*
X84215628Y-122676095D01*
X84215628Y-122676095D02*
X84276580Y-122706571D01*
X84276580Y-122706571D02*
X84368009Y-122706571D01*
X84368009Y-122706571D02*
X84428961Y-122676095D01*
X84428961Y-122676095D02*
X84459438Y-122645618D01*
X84459438Y-122645618D02*
X84489914Y-122584666D01*
X84489914Y-122584666D02*
X84489914Y-122340856D01*
X84794676Y-123316095D02*
X84794676Y-122950380D01*
X84794676Y-123133237D02*
X84154676Y-123133237D01*
X84154676Y-123133237D02*
X84246104Y-123072285D01*
X84246104Y-123072285D02*
X84307057Y-123011333D01*
X84307057Y-123011333D02*
X84337533Y-122950380D01*
X84154676Y-123895142D02*
X84154676Y-123590380D01*
X84154676Y-123590380D02*
X84459438Y-123559904D01*
X84459438Y-123559904D02*
X84428961Y-123590380D01*
X84428961Y-123590380D02*
X84398485Y-123651333D01*
X84398485Y-123651333D02*
X84398485Y-123803714D01*
X84398485Y-123803714D02*
X84428961Y-123864666D01*
X84428961Y-123864666D02*
X84459438Y-123895142D01*
X84459438Y-123895142D02*
X84520390Y-123925619D01*
X84520390Y-123925619D02*
X84672771Y-123925619D01*
X84672771Y-123925619D02*
X84733723Y-123895142D01*
X84733723Y-123895142D02*
X84764200Y-123864666D01*
X84764200Y-123864666D02*
X84794676Y-123803714D01*
X84794676Y-123803714D02*
X84794676Y-123651333D01*
X84794676Y-123651333D02*
X84764200Y-123590380D01*
X84764200Y-123590380D02*
X84733723Y-123559904D01*
X98888276Y-119800833D02*
X98583514Y-119587499D01*
X98888276Y-119435118D02*
X98248276Y-119435118D01*
X98248276Y-119435118D02*
X98248276Y-119678928D01*
X98248276Y-119678928D02*
X98278752Y-119739880D01*
X98278752Y-119739880D02*
X98309228Y-119770357D01*
X98309228Y-119770357D02*
X98370180Y-119800833D01*
X98370180Y-119800833D02*
X98461609Y-119800833D01*
X98461609Y-119800833D02*
X98522561Y-119770357D01*
X98522561Y-119770357D02*
X98553038Y-119739880D01*
X98553038Y-119739880D02*
X98583514Y-119678928D01*
X98583514Y-119678928D02*
X98583514Y-119435118D01*
X98248276Y-120379880D02*
X98248276Y-120075118D01*
X98248276Y-120075118D02*
X98553038Y-120044642D01*
X98553038Y-120044642D02*
X98522561Y-120075118D01*
X98522561Y-120075118D02*
X98492085Y-120136071D01*
X98492085Y-120136071D02*
X98492085Y-120288452D01*
X98492085Y-120288452D02*
X98522561Y-120349404D01*
X98522561Y-120349404D02*
X98553038Y-120379880D01*
X98553038Y-120379880D02*
X98613990Y-120410357D01*
X98613990Y-120410357D02*
X98766371Y-120410357D01*
X98766371Y-120410357D02*
X98827323Y-120379880D01*
X98827323Y-120379880D02*
X98857800Y-120349404D01*
X98857800Y-120349404D02*
X98888276Y-120288452D01*
X98888276Y-120288452D02*
X98888276Y-120136071D01*
X98888276Y-120136071D02*
X98857800Y-120075118D01*
X98857800Y-120075118D02*
X98827323Y-120044642D01*
X92961428Y-117995776D02*
X93174762Y-117691014D01*
X93327143Y-117995776D02*
X93327143Y-117355776D01*
X93327143Y-117355776D02*
X93083333Y-117355776D01*
X93083333Y-117355776D02*
X93022381Y-117386252D01*
X93022381Y-117386252D02*
X92991904Y-117416728D01*
X92991904Y-117416728D02*
X92961428Y-117477680D01*
X92961428Y-117477680D02*
X92961428Y-117569109D01*
X92961428Y-117569109D02*
X92991904Y-117630061D01*
X92991904Y-117630061D02*
X93022381Y-117660538D01*
X93022381Y-117660538D02*
X93083333Y-117691014D01*
X93083333Y-117691014D02*
X93327143Y-117691014D01*
X92351904Y-117995776D02*
X92717619Y-117995776D01*
X92534762Y-117995776D02*
X92534762Y-117355776D01*
X92534762Y-117355776D02*
X92595714Y-117447204D01*
X92595714Y-117447204D02*
X92656666Y-117508157D01*
X92656666Y-117508157D02*
X92717619Y-117538633D01*
X92108095Y-117416728D02*
X92077619Y-117386252D01*
X92077619Y-117386252D02*
X92016666Y-117355776D01*
X92016666Y-117355776D02*
X91864285Y-117355776D01*
X91864285Y-117355776D02*
X91803333Y-117386252D01*
X91803333Y-117386252D02*
X91772857Y-117416728D01*
X91772857Y-117416728D02*
X91742380Y-117477680D01*
X91742380Y-117477680D02*
X91742380Y-117538633D01*
X91742380Y-117538633D02*
X91772857Y-117630061D01*
X91772857Y-117630061D02*
X92138571Y-117995776D01*
X92138571Y-117995776D02*
X91742380Y-117995776D01*
X98788276Y-121700833D02*
X98483514Y-121487499D01*
X98788276Y-121335118D02*
X98148276Y-121335118D01*
X98148276Y-121335118D02*
X98148276Y-121578928D01*
X98148276Y-121578928D02*
X98178752Y-121639880D01*
X98178752Y-121639880D02*
X98209228Y-121670357D01*
X98209228Y-121670357D02*
X98270180Y-121700833D01*
X98270180Y-121700833D02*
X98361609Y-121700833D01*
X98361609Y-121700833D02*
X98422561Y-121670357D01*
X98422561Y-121670357D02*
X98453038Y-121639880D01*
X98453038Y-121639880D02*
X98483514Y-121578928D01*
X98483514Y-121578928D02*
X98483514Y-121335118D01*
X98148276Y-122249404D02*
X98148276Y-122127499D01*
X98148276Y-122127499D02*
X98178752Y-122066547D01*
X98178752Y-122066547D02*
X98209228Y-122036071D01*
X98209228Y-122036071D02*
X98300657Y-121975118D01*
X98300657Y-121975118D02*
X98422561Y-121944642D01*
X98422561Y-121944642D02*
X98666371Y-121944642D01*
X98666371Y-121944642D02*
X98727323Y-121975118D01*
X98727323Y-121975118D02*
X98757800Y-122005595D01*
X98757800Y-122005595D02*
X98788276Y-122066547D01*
X98788276Y-122066547D02*
X98788276Y-122188452D01*
X98788276Y-122188452D02*
X98757800Y-122249404D01*
X98757800Y-122249404D02*
X98727323Y-122279880D01*
X98727323Y-122279880D02*
X98666371Y-122310357D01*
X98666371Y-122310357D02*
X98513990Y-122310357D01*
X98513990Y-122310357D02*
X98453038Y-122279880D01*
X98453038Y-122279880D02*
X98422561Y-122249404D01*
X98422561Y-122249404D02*
X98392085Y-122188452D01*
X98392085Y-122188452D02*
X98392085Y-122066547D01*
X98392085Y-122066547D02*
X98422561Y-122005595D01*
X98422561Y-122005595D02*
X98453038Y-121975118D01*
X98453038Y-121975118D02*
X98513990Y-121944642D01*
X100286428Y-140677323D02*
X100316904Y-140707800D01*
X100316904Y-140707800D02*
X100408333Y-140738276D01*
X100408333Y-140738276D02*
X100469285Y-140738276D01*
X100469285Y-140738276D02*
X100560714Y-140707800D01*
X100560714Y-140707800D02*
X100621666Y-140646847D01*
X100621666Y-140646847D02*
X100652143Y-140585895D01*
X100652143Y-140585895D02*
X100682619Y-140463990D01*
X100682619Y-140463990D02*
X100682619Y-140372561D01*
X100682619Y-140372561D02*
X100652143Y-140250657D01*
X100652143Y-140250657D02*
X100621666Y-140189704D01*
X100621666Y-140189704D02*
X100560714Y-140128752D01*
X100560714Y-140128752D02*
X100469285Y-140098276D01*
X100469285Y-140098276D02*
X100408333Y-140098276D01*
X100408333Y-140098276D02*
X100316904Y-140128752D01*
X100316904Y-140128752D02*
X100286428Y-140159228D01*
X99737857Y-140311609D02*
X99737857Y-140738276D01*
X99890238Y-140067800D02*
X100042619Y-140524942D01*
X100042619Y-140524942D02*
X99646428Y-140524942D01*
X99463571Y-140098276D02*
X99036904Y-140098276D01*
X99036904Y-140098276D02*
X99311190Y-140738276D01*
X90243928Y-123732323D02*
X90274404Y-123762800D01*
X90274404Y-123762800D02*
X90365833Y-123793276D01*
X90365833Y-123793276D02*
X90426785Y-123793276D01*
X90426785Y-123793276D02*
X90518214Y-123762800D01*
X90518214Y-123762800D02*
X90579166Y-123701847D01*
X90579166Y-123701847D02*
X90609643Y-123640895D01*
X90609643Y-123640895D02*
X90640119Y-123518990D01*
X90640119Y-123518990D02*
X90640119Y-123427561D01*
X90640119Y-123427561D02*
X90609643Y-123305657D01*
X90609643Y-123305657D02*
X90579166Y-123244704D01*
X90579166Y-123244704D02*
X90518214Y-123183752D01*
X90518214Y-123183752D02*
X90426785Y-123153276D01*
X90426785Y-123153276D02*
X90365833Y-123153276D01*
X90365833Y-123153276D02*
X90274404Y-123183752D01*
X90274404Y-123183752D02*
X90243928Y-123214228D01*
X89634404Y-123793276D02*
X90000119Y-123793276D01*
X89817262Y-123793276D02*
X89817262Y-123153276D01*
X89817262Y-123153276D02*
X89878214Y-123244704D01*
X89878214Y-123244704D02*
X89939166Y-123305657D01*
X89939166Y-123305657D02*
X90000119Y-123336133D01*
X89024880Y-123793276D02*
X89390595Y-123793276D01*
X89207738Y-123793276D02*
X89207738Y-123153276D01*
X89207738Y-123153276D02*
X89268690Y-123244704D01*
X89268690Y-123244704D02*
X89329642Y-123305657D01*
X89329642Y-123305657D02*
X89390595Y-123336133D01*
X97427323Y-136596071D02*
X97457800Y-136565595D01*
X97457800Y-136565595D02*
X97488276Y-136474166D01*
X97488276Y-136474166D02*
X97488276Y-136413214D01*
X97488276Y-136413214D02*
X97457800Y-136321785D01*
X97457800Y-136321785D02*
X97396847Y-136260833D01*
X97396847Y-136260833D02*
X97335895Y-136230356D01*
X97335895Y-136230356D02*
X97213990Y-136199880D01*
X97213990Y-136199880D02*
X97122561Y-136199880D01*
X97122561Y-136199880D02*
X97000657Y-136230356D01*
X97000657Y-136230356D02*
X96939704Y-136260833D01*
X96939704Y-136260833D02*
X96878752Y-136321785D01*
X96878752Y-136321785D02*
X96848276Y-136413214D01*
X96848276Y-136413214D02*
X96848276Y-136474166D01*
X96848276Y-136474166D02*
X96878752Y-136565595D01*
X96878752Y-136565595D02*
X96909228Y-136596071D01*
X96848276Y-136809404D02*
X96848276Y-137205595D01*
X96848276Y-137205595D02*
X97092085Y-136992261D01*
X97092085Y-136992261D02*
X97092085Y-137083690D01*
X97092085Y-137083690D02*
X97122561Y-137144642D01*
X97122561Y-137144642D02*
X97153038Y-137175118D01*
X97153038Y-137175118D02*
X97213990Y-137205595D01*
X97213990Y-137205595D02*
X97366371Y-137205595D01*
X97366371Y-137205595D02*
X97427323Y-137175118D01*
X97427323Y-137175118D02*
X97457800Y-137144642D01*
X97457800Y-137144642D02*
X97488276Y-137083690D01*
X97488276Y-137083690D02*
X97488276Y-136900833D01*
X97488276Y-136900833D02*
X97457800Y-136839880D01*
X97457800Y-136839880D02*
X97427323Y-136809404D01*
X96909228Y-137449404D02*
X96878752Y-137479880D01*
X96878752Y-137479880D02*
X96848276Y-137540833D01*
X96848276Y-137540833D02*
X96848276Y-137693214D01*
X96848276Y-137693214D02*
X96878752Y-137754166D01*
X96878752Y-137754166D02*
X96909228Y-137784642D01*
X96909228Y-137784642D02*
X96970180Y-137815119D01*
X96970180Y-137815119D02*
X97031133Y-137815119D01*
X97031133Y-137815119D02*
X97122561Y-137784642D01*
X97122561Y-137784642D02*
X97488276Y-137418928D01*
X97488276Y-137418928D02*
X97488276Y-137815119D01*
X85512380Y-149355776D02*
X85146666Y-149355776D01*
X85329523Y-149995776D02*
X85329523Y-149355776D01*
X84933333Y-149995776D02*
X84933333Y-149355776D01*
X84933333Y-149355776D02*
X84689523Y-149355776D01*
X84689523Y-149355776D02*
X84628571Y-149386252D01*
X84628571Y-149386252D02*
X84598094Y-149416728D01*
X84598094Y-149416728D02*
X84567618Y-149477680D01*
X84567618Y-149477680D02*
X84567618Y-149569109D01*
X84567618Y-149569109D02*
X84598094Y-149630061D01*
X84598094Y-149630061D02*
X84628571Y-149660538D01*
X84628571Y-149660538D02*
X84689523Y-149691014D01*
X84689523Y-149691014D02*
X84933333Y-149691014D01*
X83958094Y-149995776D02*
X84323809Y-149995776D01*
X84140952Y-149995776D02*
X84140952Y-149355776D01*
X84140952Y-149355776D02*
X84201904Y-149447204D01*
X84201904Y-149447204D02*
X84262856Y-149508157D01*
X84262856Y-149508157D02*
X84323809Y-149538633D01*
X83409523Y-149569109D02*
X83409523Y-149995776D01*
X83561904Y-149325300D02*
X83714285Y-149782442D01*
X83714285Y-149782442D02*
X83318094Y-149782442D01*
X95011428Y-126534823D02*
X95041904Y-126565300D01*
X95041904Y-126565300D02*
X95133333Y-126595776D01*
X95133333Y-126595776D02*
X95194285Y-126595776D01*
X95194285Y-126595776D02*
X95285714Y-126565300D01*
X95285714Y-126565300D02*
X95346666Y-126504347D01*
X95346666Y-126504347D02*
X95377143Y-126443395D01*
X95377143Y-126443395D02*
X95407619Y-126321490D01*
X95407619Y-126321490D02*
X95407619Y-126230061D01*
X95407619Y-126230061D02*
X95377143Y-126108157D01*
X95377143Y-126108157D02*
X95346666Y-126047204D01*
X95346666Y-126047204D02*
X95285714Y-125986252D01*
X95285714Y-125986252D02*
X95194285Y-125955776D01*
X95194285Y-125955776D02*
X95133333Y-125955776D01*
X95133333Y-125955776D02*
X95041904Y-125986252D01*
X95041904Y-125986252D02*
X95011428Y-126016728D01*
X94798095Y-125955776D02*
X94401904Y-125955776D01*
X94401904Y-125955776D02*
X94615238Y-126199585D01*
X94615238Y-126199585D02*
X94523809Y-126199585D01*
X94523809Y-126199585D02*
X94462857Y-126230061D01*
X94462857Y-126230061D02*
X94432381Y-126260538D01*
X94432381Y-126260538D02*
X94401904Y-126321490D01*
X94401904Y-126321490D02*
X94401904Y-126473871D01*
X94401904Y-126473871D02*
X94432381Y-126534823D01*
X94432381Y-126534823D02*
X94462857Y-126565300D01*
X94462857Y-126565300D02*
X94523809Y-126595776D01*
X94523809Y-126595776D02*
X94706666Y-126595776D01*
X94706666Y-126595776D02*
X94767619Y-126565300D01*
X94767619Y-126565300D02*
X94798095Y-126534823D01*
X93853333Y-125955776D02*
X93975238Y-125955776D01*
X93975238Y-125955776D02*
X94036190Y-125986252D01*
X94036190Y-125986252D02*
X94066666Y-126016728D01*
X94066666Y-126016728D02*
X94127619Y-126108157D01*
X94127619Y-126108157D02*
X94158095Y-126230061D01*
X94158095Y-126230061D02*
X94158095Y-126473871D01*
X94158095Y-126473871D02*
X94127619Y-126534823D01*
X94127619Y-126534823D02*
X94097142Y-126565300D01*
X94097142Y-126565300D02*
X94036190Y-126595776D01*
X94036190Y-126595776D02*
X93914285Y-126595776D01*
X93914285Y-126595776D02*
X93853333Y-126565300D01*
X93853333Y-126565300D02*
X93822857Y-126534823D01*
X93822857Y-126534823D02*
X93792380Y-126473871D01*
X93792380Y-126473871D02*
X93792380Y-126321490D01*
X93792380Y-126321490D02*
X93822857Y-126260538D01*
X93822857Y-126260538D02*
X93853333Y-126230061D01*
X93853333Y-126230061D02*
X93914285Y-126199585D01*
X93914285Y-126199585D02*
X94036190Y-126199585D01*
X94036190Y-126199585D02*
X94097142Y-126230061D01*
X94097142Y-126230061D02*
X94127619Y-126260538D01*
X94127619Y-126260538D02*
X94158095Y-126321490D01*
X85412380Y-147155776D02*
X85046666Y-147155776D01*
X85229523Y-147795776D02*
X85229523Y-147155776D01*
X84833333Y-147795776D02*
X84833333Y-147155776D01*
X84833333Y-147155776D02*
X84589523Y-147155776D01*
X84589523Y-147155776D02*
X84528571Y-147186252D01*
X84528571Y-147186252D02*
X84498094Y-147216728D01*
X84498094Y-147216728D02*
X84467618Y-147277680D01*
X84467618Y-147277680D02*
X84467618Y-147369109D01*
X84467618Y-147369109D02*
X84498094Y-147430061D01*
X84498094Y-147430061D02*
X84528571Y-147460538D01*
X84528571Y-147460538D02*
X84589523Y-147491014D01*
X84589523Y-147491014D02*
X84833333Y-147491014D01*
X83858094Y-147795776D02*
X84223809Y-147795776D01*
X84040952Y-147795776D02*
X84040952Y-147155776D01*
X84040952Y-147155776D02*
X84101904Y-147247204D01*
X84101904Y-147247204D02*
X84162856Y-147308157D01*
X84162856Y-147308157D02*
X84223809Y-147338633D01*
X83614285Y-147216728D02*
X83583809Y-147186252D01*
X83583809Y-147186252D02*
X83522856Y-147155776D01*
X83522856Y-147155776D02*
X83370475Y-147155776D01*
X83370475Y-147155776D02*
X83309523Y-147186252D01*
X83309523Y-147186252D02*
X83279047Y-147216728D01*
X83279047Y-147216728D02*
X83248570Y-147277680D01*
X83248570Y-147277680D02*
X83248570Y-147338633D01*
X83248570Y-147338633D02*
X83279047Y-147430061D01*
X83279047Y-147430061D02*
X83644761Y-147795776D01*
X83644761Y-147795776D02*
X83248570Y-147795776D01*
X98411428Y-160188276D02*
X98624762Y-159883514D01*
X98777143Y-160188276D02*
X98777143Y-159548276D01*
X98777143Y-159548276D02*
X98533333Y-159548276D01*
X98533333Y-159548276D02*
X98472381Y-159578752D01*
X98472381Y-159578752D02*
X98441904Y-159609228D01*
X98441904Y-159609228D02*
X98411428Y-159670180D01*
X98411428Y-159670180D02*
X98411428Y-159761609D01*
X98411428Y-159761609D02*
X98441904Y-159822561D01*
X98441904Y-159822561D02*
X98472381Y-159853038D01*
X98472381Y-159853038D02*
X98533333Y-159883514D01*
X98533333Y-159883514D02*
X98777143Y-159883514D01*
X97832381Y-159548276D02*
X98137143Y-159548276D01*
X98137143Y-159548276D02*
X98167619Y-159853038D01*
X98167619Y-159853038D02*
X98137143Y-159822561D01*
X98137143Y-159822561D02*
X98076190Y-159792085D01*
X98076190Y-159792085D02*
X97923809Y-159792085D01*
X97923809Y-159792085D02*
X97862857Y-159822561D01*
X97862857Y-159822561D02*
X97832381Y-159853038D01*
X97832381Y-159853038D02*
X97801904Y-159913990D01*
X97801904Y-159913990D02*
X97801904Y-160066371D01*
X97801904Y-160066371D02*
X97832381Y-160127323D01*
X97832381Y-160127323D02*
X97862857Y-160157800D01*
X97862857Y-160157800D02*
X97923809Y-160188276D01*
X97923809Y-160188276D02*
X98076190Y-160188276D01*
X98076190Y-160188276D02*
X98137143Y-160157800D01*
X98137143Y-160157800D02*
X98167619Y-160127323D01*
X97588571Y-159548276D02*
X97192380Y-159548276D01*
X97192380Y-159548276D02*
X97405714Y-159792085D01*
X97405714Y-159792085D02*
X97314285Y-159792085D01*
X97314285Y-159792085D02*
X97253333Y-159822561D01*
X97253333Y-159822561D02*
X97222857Y-159853038D01*
X97222857Y-159853038D02*
X97192380Y-159913990D01*
X97192380Y-159913990D02*
X97192380Y-160066371D01*
X97192380Y-160066371D02*
X97222857Y-160127323D01*
X97222857Y-160127323D02*
X97253333Y-160157800D01*
X97253333Y-160157800D02*
X97314285Y-160188276D01*
X97314285Y-160188276D02*
X97497142Y-160188276D01*
X97497142Y-160188276D02*
X97558095Y-160157800D01*
X97558095Y-160157800D02*
X97588571Y-160127323D01*
X84179428Y-131270923D02*
X84209904Y-131301400D01*
X84209904Y-131301400D02*
X84301333Y-131331876D01*
X84301333Y-131331876D02*
X84362285Y-131331876D01*
X84362285Y-131331876D02*
X84453714Y-131301400D01*
X84453714Y-131301400D02*
X84514666Y-131240447D01*
X84514666Y-131240447D02*
X84545143Y-131179495D01*
X84545143Y-131179495D02*
X84575619Y-131057590D01*
X84575619Y-131057590D02*
X84575619Y-130966161D01*
X84575619Y-130966161D02*
X84545143Y-130844257D01*
X84545143Y-130844257D02*
X84514666Y-130783304D01*
X84514666Y-130783304D02*
X84453714Y-130722352D01*
X84453714Y-130722352D02*
X84362285Y-130691876D01*
X84362285Y-130691876D02*
X84301333Y-130691876D01*
X84301333Y-130691876D02*
X84209904Y-130722352D01*
X84209904Y-130722352D02*
X84179428Y-130752828D01*
X83935619Y-130752828D02*
X83905143Y-130722352D01*
X83905143Y-130722352D02*
X83844190Y-130691876D01*
X83844190Y-130691876D02*
X83691809Y-130691876D01*
X83691809Y-130691876D02*
X83630857Y-130722352D01*
X83630857Y-130722352D02*
X83600381Y-130752828D01*
X83600381Y-130752828D02*
X83569904Y-130813780D01*
X83569904Y-130813780D02*
X83569904Y-130874733D01*
X83569904Y-130874733D02*
X83600381Y-130966161D01*
X83600381Y-130966161D02*
X83966095Y-131331876D01*
X83966095Y-131331876D02*
X83569904Y-131331876D01*
X82960380Y-131331876D02*
X83326095Y-131331876D01*
X83143238Y-131331876D02*
X83143238Y-130691876D01*
X83143238Y-130691876D02*
X83204190Y-130783304D01*
X83204190Y-130783304D02*
X83265142Y-130844257D01*
X83265142Y-130844257D02*
X83326095Y-130874733D01*
X84907618Y-158255776D02*
X84541904Y-158255776D01*
X84724761Y-158895776D02*
X84724761Y-158255776D01*
X84328571Y-158895776D02*
X84328571Y-158255776D01*
X84328571Y-158255776D02*
X84084761Y-158255776D01*
X84084761Y-158255776D02*
X84023809Y-158286252D01*
X84023809Y-158286252D02*
X83993332Y-158316728D01*
X83993332Y-158316728D02*
X83962856Y-158377680D01*
X83962856Y-158377680D02*
X83962856Y-158469109D01*
X83962856Y-158469109D02*
X83993332Y-158530061D01*
X83993332Y-158530061D02*
X84023809Y-158560538D01*
X84023809Y-158560538D02*
X84084761Y-158591014D01*
X84084761Y-158591014D02*
X84328571Y-158591014D01*
X83353332Y-158895776D02*
X83719047Y-158895776D01*
X83536190Y-158895776D02*
X83536190Y-158255776D01*
X83536190Y-158255776D02*
X83597142Y-158347204D01*
X83597142Y-158347204D02*
X83658094Y-158408157D01*
X83658094Y-158408157D02*
X83719047Y-158438633D01*
X90275046Y-150554834D02*
X90641394Y-150490184D01*
X90533645Y-150813433D02*
X90986193Y-150360884D01*
X90986193Y-150360884D02*
X90813794Y-150188485D01*
X90813794Y-150188485D02*
X90749144Y-150166935D01*
X90749144Y-150166935D02*
X90706044Y-150166935D01*
X90706044Y-150166935D02*
X90641394Y-150188485D01*
X90641394Y-150188485D02*
X90576744Y-150253135D01*
X90576744Y-150253135D02*
X90555194Y-150317784D01*
X90555194Y-150317784D02*
X90555194Y-150360884D01*
X90555194Y-150360884D02*
X90576744Y-150425534D01*
X90576744Y-150425534D02*
X90749144Y-150597933D01*
X90576744Y-149951436D02*
X90296595Y-149671287D01*
X90296595Y-149671287D02*
X90275046Y-149994536D01*
X90275046Y-149994536D02*
X90210396Y-149929886D01*
X90210396Y-149929886D02*
X90145746Y-149908336D01*
X90145746Y-149908336D02*
X90102646Y-149908336D01*
X90102646Y-149908336D02*
X90037996Y-149929886D01*
X90037996Y-149929886D02*
X89930247Y-150037636D01*
X89930247Y-150037636D02*
X89908697Y-150102285D01*
X89908697Y-150102285D02*
X89908697Y-150145385D01*
X89908697Y-150145385D02*
X89930247Y-150210035D01*
X89930247Y-150210035D02*
X90059546Y-150339334D01*
X90059546Y-150339334D02*
X90124196Y-150360884D01*
X90124196Y-150360884D02*
X90167296Y-150360884D01*
X89628548Y-149908336D02*
X89542348Y-149822136D01*
X89542348Y-149822136D02*
X89520798Y-149757486D01*
X89520798Y-149757486D02*
X89520798Y-149714387D01*
X89520798Y-149714387D02*
X89542348Y-149606637D01*
X89542348Y-149606637D02*
X89606998Y-149498887D01*
X89606998Y-149498887D02*
X89779397Y-149326488D01*
X89779397Y-149326488D02*
X89844047Y-149304938D01*
X89844047Y-149304938D02*
X89887147Y-149304938D01*
X89887147Y-149304938D02*
X89951797Y-149326488D01*
X89951797Y-149326488D02*
X90037996Y-149412688D01*
X90037996Y-149412688D02*
X90059546Y-149477337D01*
X90059546Y-149477337D02*
X90059546Y-149520437D01*
X90059546Y-149520437D02*
X90037996Y-149585087D01*
X90037996Y-149585087D02*
X89930247Y-149692837D01*
X89930247Y-149692837D02*
X89865597Y-149714387D01*
X89865597Y-149714387D02*
X89822497Y-149714387D01*
X89822497Y-149714387D02*
X89757847Y-149692837D01*
X89757847Y-149692837D02*
X89671648Y-149606637D01*
X89671648Y-149606637D02*
X89650098Y-149541987D01*
X89650098Y-149541987D02*
X89650098Y-149498887D01*
X89650098Y-149498887D02*
X89671648Y-149434238D01*
X88088276Y-128096071D02*
X87783514Y-127882737D01*
X88088276Y-127730356D02*
X87448276Y-127730356D01*
X87448276Y-127730356D02*
X87448276Y-127974166D01*
X87448276Y-127974166D02*
X87478752Y-128035118D01*
X87478752Y-128035118D02*
X87509228Y-128065595D01*
X87509228Y-128065595D02*
X87570180Y-128096071D01*
X87570180Y-128096071D02*
X87661609Y-128096071D01*
X87661609Y-128096071D02*
X87722561Y-128065595D01*
X87722561Y-128065595D02*
X87753038Y-128035118D01*
X87753038Y-128035118D02*
X87783514Y-127974166D01*
X87783514Y-127974166D02*
X87783514Y-127730356D01*
X88088276Y-128705595D02*
X88088276Y-128339880D01*
X88088276Y-128522737D02*
X87448276Y-128522737D01*
X87448276Y-128522737D02*
X87539704Y-128461785D01*
X87539704Y-128461785D02*
X87600657Y-128400833D01*
X87600657Y-128400833D02*
X87631133Y-128339880D01*
X87661609Y-129254166D02*
X88088276Y-129254166D01*
X87417800Y-129101785D02*
X87874942Y-128949404D01*
X87874942Y-128949404D02*
X87874942Y-129345595D01*
X82588276Y-119438571D02*
X82283514Y-119225237D01*
X82588276Y-119072856D02*
X81948276Y-119072856D01*
X81948276Y-119072856D02*
X81948276Y-119316666D01*
X81948276Y-119316666D02*
X81978752Y-119377618D01*
X81978752Y-119377618D02*
X82009228Y-119408095D01*
X82009228Y-119408095D02*
X82070180Y-119438571D01*
X82070180Y-119438571D02*
X82161609Y-119438571D01*
X82161609Y-119438571D02*
X82222561Y-119408095D01*
X82222561Y-119408095D02*
X82253038Y-119377618D01*
X82253038Y-119377618D02*
X82283514Y-119316666D01*
X82283514Y-119316666D02*
X82283514Y-119072856D01*
X82588276Y-120048095D02*
X82588276Y-119682380D01*
X82588276Y-119865237D02*
X81948276Y-119865237D01*
X81948276Y-119865237D02*
X82039704Y-119804285D01*
X82039704Y-119804285D02*
X82100657Y-119743333D01*
X82100657Y-119743333D02*
X82131133Y-119682380D01*
X81948276Y-120596666D02*
X81948276Y-120474761D01*
X81948276Y-120474761D02*
X81978752Y-120413809D01*
X81978752Y-120413809D02*
X82009228Y-120383333D01*
X82009228Y-120383333D02*
X82100657Y-120322380D01*
X82100657Y-120322380D02*
X82222561Y-120291904D01*
X82222561Y-120291904D02*
X82466371Y-120291904D01*
X82466371Y-120291904D02*
X82527323Y-120322380D01*
X82527323Y-120322380D02*
X82557800Y-120352857D01*
X82557800Y-120352857D02*
X82588276Y-120413809D01*
X82588276Y-120413809D02*
X82588276Y-120535714D01*
X82588276Y-120535714D02*
X82557800Y-120596666D01*
X82557800Y-120596666D02*
X82527323Y-120627142D01*
X82527323Y-120627142D02*
X82466371Y-120657619D01*
X82466371Y-120657619D02*
X82313990Y-120657619D01*
X82313990Y-120657619D02*
X82253038Y-120627142D01*
X82253038Y-120627142D02*
X82222561Y-120596666D01*
X82222561Y-120596666D02*
X82192085Y-120535714D01*
X82192085Y-120535714D02*
X82192085Y-120413809D01*
X82192085Y-120413809D02*
X82222561Y-120352857D01*
X82222561Y-120352857D02*
X82253038Y-120322380D01*
X82253038Y-120322380D02*
X82313990Y-120291904D01*
X85338276Y-127123333D02*
X85033514Y-126909999D01*
X85338276Y-126757618D02*
X84698276Y-126757618D01*
X84698276Y-126757618D02*
X84698276Y-127001428D01*
X84698276Y-127001428D02*
X84728752Y-127062380D01*
X84728752Y-127062380D02*
X84759228Y-127092857D01*
X84759228Y-127092857D02*
X84820180Y-127123333D01*
X84820180Y-127123333D02*
X84911609Y-127123333D01*
X84911609Y-127123333D02*
X84972561Y-127092857D01*
X84972561Y-127092857D02*
X85003038Y-127062380D01*
X85003038Y-127062380D02*
X85033514Y-127001428D01*
X85033514Y-127001428D02*
X85033514Y-126757618D01*
X84759228Y-127367142D02*
X84728752Y-127397618D01*
X84728752Y-127397618D02*
X84698276Y-127458571D01*
X84698276Y-127458571D02*
X84698276Y-127610952D01*
X84698276Y-127610952D02*
X84728752Y-127671904D01*
X84728752Y-127671904D02*
X84759228Y-127702380D01*
X84759228Y-127702380D02*
X84820180Y-127732857D01*
X84820180Y-127732857D02*
X84881133Y-127732857D01*
X84881133Y-127732857D02*
X84972561Y-127702380D01*
X84972561Y-127702380D02*
X85338276Y-127336666D01*
X85338276Y-127336666D02*
X85338276Y-127732857D01*
X85007618Y-153855776D02*
X84641904Y-153855776D01*
X84824761Y-154495776D02*
X84824761Y-153855776D01*
X84428571Y-154495776D02*
X84428571Y-153855776D01*
X84428571Y-153855776D02*
X84184761Y-153855776D01*
X84184761Y-153855776D02*
X84123809Y-153886252D01*
X84123809Y-153886252D02*
X84093332Y-153916728D01*
X84093332Y-153916728D02*
X84062856Y-153977680D01*
X84062856Y-153977680D02*
X84062856Y-154069109D01*
X84062856Y-154069109D02*
X84093332Y-154130061D01*
X84093332Y-154130061D02*
X84123809Y-154160538D01*
X84123809Y-154160538D02*
X84184761Y-154191014D01*
X84184761Y-154191014D02*
X84428571Y-154191014D01*
X83819047Y-153916728D02*
X83788571Y-153886252D01*
X83788571Y-153886252D02*
X83727618Y-153855776D01*
X83727618Y-153855776D02*
X83575237Y-153855776D01*
X83575237Y-153855776D02*
X83514285Y-153886252D01*
X83514285Y-153886252D02*
X83483809Y-153916728D01*
X83483809Y-153916728D02*
X83453332Y-153977680D01*
X83453332Y-153977680D02*
X83453332Y-154038633D01*
X83453332Y-154038633D02*
X83483809Y-154130061D01*
X83483809Y-154130061D02*
X83849523Y-154495776D01*
X83849523Y-154495776D02*
X83453332Y-154495776D01*
X83588276Y-117296071D02*
X83283514Y-117082737D01*
X83588276Y-116930356D02*
X82948276Y-116930356D01*
X82948276Y-116930356D02*
X82948276Y-117174166D01*
X82948276Y-117174166D02*
X82978752Y-117235118D01*
X82978752Y-117235118D02*
X83009228Y-117265595D01*
X83009228Y-117265595D02*
X83070180Y-117296071D01*
X83070180Y-117296071D02*
X83161609Y-117296071D01*
X83161609Y-117296071D02*
X83222561Y-117265595D01*
X83222561Y-117265595D02*
X83253038Y-117235118D01*
X83253038Y-117235118D02*
X83283514Y-117174166D01*
X83283514Y-117174166D02*
X83283514Y-116930356D01*
X83588276Y-117905595D02*
X83588276Y-117539880D01*
X83588276Y-117722737D02*
X82948276Y-117722737D01*
X82948276Y-117722737D02*
X83039704Y-117661785D01*
X83039704Y-117661785D02*
X83100657Y-117600833D01*
X83100657Y-117600833D02*
X83131133Y-117539880D01*
X83222561Y-118271309D02*
X83192085Y-118210357D01*
X83192085Y-118210357D02*
X83161609Y-118179880D01*
X83161609Y-118179880D02*
X83100657Y-118149404D01*
X83100657Y-118149404D02*
X83070180Y-118149404D01*
X83070180Y-118149404D02*
X83009228Y-118179880D01*
X83009228Y-118179880D02*
X82978752Y-118210357D01*
X82978752Y-118210357D02*
X82948276Y-118271309D01*
X82948276Y-118271309D02*
X82948276Y-118393214D01*
X82948276Y-118393214D02*
X82978752Y-118454166D01*
X82978752Y-118454166D02*
X83009228Y-118484642D01*
X83009228Y-118484642D02*
X83070180Y-118515119D01*
X83070180Y-118515119D02*
X83100657Y-118515119D01*
X83100657Y-118515119D02*
X83161609Y-118484642D01*
X83161609Y-118484642D02*
X83192085Y-118454166D01*
X83192085Y-118454166D02*
X83222561Y-118393214D01*
X83222561Y-118393214D02*
X83222561Y-118271309D01*
X83222561Y-118271309D02*
X83253038Y-118210357D01*
X83253038Y-118210357D02*
X83283514Y-118179880D01*
X83283514Y-118179880D02*
X83344466Y-118149404D01*
X83344466Y-118149404D02*
X83466371Y-118149404D01*
X83466371Y-118149404D02*
X83527323Y-118179880D01*
X83527323Y-118179880D02*
X83557800Y-118210357D01*
X83557800Y-118210357D02*
X83588276Y-118271309D01*
X83588276Y-118271309D02*
X83588276Y-118393214D01*
X83588276Y-118393214D02*
X83557800Y-118454166D01*
X83557800Y-118454166D02*
X83527323Y-118484642D01*
X83527323Y-118484642D02*
X83466371Y-118515119D01*
X83466371Y-118515119D02*
X83344466Y-118515119D01*
X83344466Y-118515119D02*
X83283514Y-118484642D01*
X83283514Y-118484642D02*
X83253038Y-118454166D01*
X83253038Y-118454166D02*
X83222561Y-118393214D01*
D11*
%TO.C,TP17*%
X100700000Y-159207500D02*
G75*
G02*
X99300000Y-159207500I-700000J0D01*
G01*
X99300000Y-159207500D02*
G75*
G02*
X100700000Y-159207500I700000J0D01*
G01*
%TO.C,TP3*%
X82950000Y-156507500D02*
G75*
G02*
X81550000Y-156507500I-700000J0D01*
G01*
X81550000Y-156507500D02*
G75*
G02*
X82950000Y-156507500I700000J0D01*
G01*
%TO.C,FB3*%
X90798303Y-153170270D02*
X90462770Y-153505803D01*
X91537230Y-153909197D02*
X91201697Y-154244730D01*
%TO.C,FB1*%
X91298303Y-139037230D02*
X90962770Y-138701697D01*
X92037230Y-138298303D02*
X91701697Y-137962770D01*
%TO.C,TP10*%
X87450000Y-143507500D02*
G75*
G02*
X86050000Y-143507500I-700000J0D01*
G01*
X86050000Y-143507500D02*
G75*
G02*
X87450000Y-143507500I700000J0D01*
G01*
%TO.C,FB2*%
X92977500Y-147670242D02*
X92977500Y-148144758D01*
X94022500Y-147670242D02*
X94022500Y-148144758D01*
%TO.C,TP15*%
X89500000Y-153007500D02*
G75*
G02*
X88100000Y-153007500I-700000J0D01*
G01*
X88100000Y-153007500D02*
G75*
G02*
X89500000Y-153007500I700000J0D01*
G01*
%TO.C,TP20*%
X94250000Y-92550000D02*
G75*
G02*
X92850000Y-92550000I-700000J0D01*
G01*
X92850000Y-92550000D02*
G75*
G02*
X94250000Y-92550000I700000J0D01*
G01*
%TO.C,TP19*%
X93350000Y-97550000D02*
G75*
G02*
X91950000Y-97550000I-700000J0D01*
G01*
X91950000Y-97550000D02*
G75*
G02*
X93350000Y-97550000I700000J0D01*
G01*
%TO.C,TP8*%
X82950000Y-145257500D02*
G75*
G02*
X81550000Y-145257500I-700000J0D01*
G01*
X81550000Y-145257500D02*
G75*
G02*
X82950000Y-145257500I700000J0D01*
G01*
%TO.C,TP11*%
X87900000Y-148500000D02*
G75*
G02*
X86500000Y-148500000I-700000J0D01*
G01*
X86500000Y-148500000D02*
G75*
G02*
X87900000Y-148500000I700000J0D01*
G01*
%TO.C,TP6*%
X94000000Y-141850000D02*
G75*
G02*
X92600000Y-141850000I-700000J0D01*
G01*
X92600000Y-141850000D02*
G75*
G02*
X94000000Y-141850000I700000J0D01*
G01*
%TO.C,TP9*%
X87600000Y-146300000D02*
G75*
G02*
X86200000Y-146300000I-700000J0D01*
G01*
X86200000Y-146300000D02*
G75*
G02*
X87600000Y-146300000I700000J0D01*
G01*
%TO.C,TP13*%
X87450000Y-152007500D02*
G75*
G02*
X86050000Y-152007500I-700000J0D01*
G01*
X86050000Y-152007500D02*
G75*
G02*
X87450000Y-152007500I700000J0D01*
G01*
%TO.C,TP16*%
X87450000Y-154257500D02*
G75*
G02*
X86050000Y-154257500I-700000J0D01*
G01*
X86050000Y-154257500D02*
G75*
G02*
X87450000Y-154257500I700000J0D01*
G01*
%TO.C,TP7*%
X82950000Y-152007500D02*
G75*
G02*
X81550000Y-152007500I-700000J0D01*
G01*
X81550000Y-152007500D02*
G75*
G02*
X82950000Y-152007500I700000J0D01*
G01*
%TO.C,TP21*%
X92600000Y-99450000D02*
G75*
G02*
X91200000Y-99450000I-700000J0D01*
G01*
X91200000Y-99450000D02*
G75*
G02*
X92600000Y-99450000I700000J0D01*
G01*
D12*
%TO.C,U10*%
X97265000Y-145556900D02*
X97595200Y-145556900D01*
X97595200Y-145556900D02*
X98204800Y-145556900D01*
X98204800Y-145556900D02*
X98535000Y-145556900D01*
X97595200Y-145556900D02*
G75*
G02*
X98204800Y-145556900I304800J0D01*
G01*
D13*
%TO.C,U11*%
X91613622Y-152025249D02*
X90482251Y-150893878D01*
X93317749Y-150321122D02*
X92186378Y-149189751D01*
D14*
X90235768Y-149903929D02*
G75*
G02*
X90035770Y-149903929I-99999J0D01*
G01*
X90035770Y-149903929D02*
G75*
G02*
X90235768Y-149903929I99999J0D01*
G01*
D11*
%TO.C,TP14*%
X82950000Y-149757500D02*
G75*
G02*
X81550000Y-149757500I-700000J0D01*
G01*
X81550000Y-149757500D02*
G75*
G02*
X82950000Y-149757500I700000J0D01*
G01*
%TO.C,TP12*%
X82950000Y-147507500D02*
G75*
G02*
X81550000Y-147507500I-700000J0D01*
G01*
X81550000Y-147507500D02*
G75*
G02*
X82950000Y-147507500I700000J0D01*
G01*
%TO.C,TP1*%
X82900000Y-158707500D02*
G75*
G02*
X81500000Y-158707500I-700000J0D01*
G01*
X81500000Y-158707500D02*
G75*
G02*
X82900000Y-158707500I700000J0D01*
G01*
%TO.C,TP2*%
X82950000Y-154257500D02*
G75*
G02*
X81550000Y-154257500I-700000J0D01*
G01*
X81550000Y-154257500D02*
G75*
G02*
X82950000Y-154257500I700000J0D01*
G01*
%TD*%
M02*
