M48
; DRILL file {KiCad 8.0.6} date 2024-11-25T22:35:08+0100
; FORMAT={-:-/ absolute / inch / decimal}
; #@! TF.CreationDate,2024-11-25T22:35:08+01:00
; #@! TF.GenerationSoftware,Kicad,Pcbnew,8.0.6
; #@! TF.FileFunction,Plated,1,4,PTH
FMAT,2
INCH
; #@! TA.AperFunction,Plated,PTH,ViaDrill
T1C0.0079
%
G90
G05
T1
X3.2185Y-4.5932
X3.2185Y-5.8563
X3.2205Y-5.5236
X3.2283Y-3.5728
X3.2283Y-5.9353
X3.2323Y-5.6552
X3.2382Y-3.435
X3.2382Y-3.4843
X3.2382Y-3.5335
X3.2382Y-6.0731
X3.2382Y-6.1617
X3.2402Y-4.6155
X3.2618Y-3.7995
X3.2618Y-3.831
X3.2638Y-4.563
X3.2657Y-4.5978
X3.2677Y-5.0807
X3.2677Y-5.5236
X3.2677Y-5.7677
X3.2677Y-5.955
X3.2717Y-3.8625
X3.2717Y-6.4016
X3.2717Y-6.4252
X3.2736Y-5.1693
X3.2756Y-3.7579
X3.2756Y-5.2953
X3.2756Y-5.3248
X3.2776Y-5.0413
X3.2786Y-5.8949
X3.2795Y-4.7014
X3.2795Y-4.7356
X3.2795Y-5.8546
X3.2795Y-6.0397
X3.2815Y-4.79
X3.2815Y-4.9055
X3.2835Y-6.2126
X3.2854Y-3.6161
X3.2874Y-6.2835
X3.288Y-4.6201
X3.2953Y-3.8901
X3.2972Y-4.0453
X3.2972Y-4.0945
X3.2992Y-3.6538
X3.2992Y-5.1575
X3.2992Y-5.3782
X3.2998Y-3.9272
X3.3Y-4.8531
X3.3051Y-4.5
X3.3071Y-3.4154
X3.3071Y-4.3664
X3.3071Y-4.4314
X3.3071Y-4.8209
X3.3071Y-5.5236
X3.3071Y-6.3898
X3.3071Y-6.4173
X3.3077Y-4.209
X3.3077Y-4.2601
X3.3091Y-4.1535
X3.311Y-3.7383
X3.315Y-5.1024
X3.315Y-5.5984
X3.3189Y-4.6168
X3.3189Y-4.6511
X3.3228Y-5.4019
X3.3268Y-4.5768
X3.3287Y-4.5456
X3.34Y-4.5003
X3.3419Y-4.209
X3.3419Y-4.266
X3.3419Y-4.3664
X3.3419Y-4.4314
X3.3439Y-4.1538
X3.3465Y-3.6538
X3.3484Y-4.937
X3.3484Y-4.9719
X3.3553Y-3.6152
X3.357Y-5.4019
X3.3583Y-5.189
X3.3583Y-6.2759
X3.3583Y-6.3034
X3.3583Y-6.3349
X3.3583Y-6.3701
X3.3602Y-5.2638
X3.3622Y-4.6168
X3.3622Y-4.6499
X3.3622Y-6.2444
X3.3628Y-4.3192
X3.3661Y-3.9531
X3.3661Y-3.9806
X3.3661Y-5.6654
X3.3701Y-3.8006
X3.3701Y-3.8287
X3.374Y-3.9255
X3.378Y-3.705
X3.378Y-5.7323
X3.3819Y-6.0987
X3.3858Y-5.8169
X3.3858Y-5.894
X3.3858Y-5.9845
X3.3858Y-6.0239
X3.3858Y-6.1457
X3.3868Y-4.5236
X3.3878Y-4.3999
X3.3898Y-3.9531
X3.3898Y-3.9806
X3.3898Y-5.4019
X3.3937Y-3.6381
X3.3937Y-3.6749
X3.3957Y-3.7992
X3.3957Y-3.8287
X3.3957Y-4.3192
X3.3976Y-3.9255
X3.3976Y-4.1949
X3.3982Y-4.2149
X3.4016Y-5.223
X3.4016Y-5.2576
X3.4031Y-5.2794
X3.4035Y-5.0079
X3.4055Y-4.617
X3.4055Y-4.6499
X3.4055Y-5.5315
X3.4055Y-5.9255
X3.412Y-6.2165
X3.4134Y-5.0948
X3.4158Y-5.1629
X3.4213Y-5.6142
X3.4213Y-6.0594
X3.4244Y-5.4066
X3.4252Y-6.3504
X3.4331Y-4.9964
X3.4331Y-5.2244
X3.4331Y-6.4213
X3.435Y-3.4154
X3.435Y-3.563
X3.435Y-5.9452
X3.4353Y-6.3187
X3.437Y-4.8271
X3.437Y-4.8586
X3.4449Y-5.083
X3.4449Y-6.1319
X3.4463Y-6.2165
X3.4469Y-5.2619
X3.4508Y-4.6167
X3.4508Y-4.651
X3.4576Y-6.341
X3.4606Y-5.0017
X3.4614Y-3.689
X3.4646Y-5.7972
X3.4685Y-4.8271
X3.4685Y-4.8586
X3.4685Y-5.8901
X3.4744Y-6.0925
X3.4764Y-5.3012
X3.4803Y-3.5696
X3.4843Y-3.5039
X3.4843Y-4.0551
X3.4843Y-5.709
X3.4843Y-5.9449
X3.4921Y-3.9921
X3.4921Y-6.4055
X3.4929Y-5.2613
X3.498Y-4.601
X3.498Y-4.6352
X3.4986Y-3.7067
X3.502Y-3.6437
X3.502Y-3.6752
X3.502Y-3.8985
X3.502Y-3.9328
X3.5039Y-5.083
X3.5059Y-3.752
X3.5059Y-3.7868
X3.5065Y-5.7523
X3.5065Y-5.0003
X3.5079Y-6.2208
X3.5098Y-4.2149
X3.5138Y-3.5433
X3.5157Y-3.9921
X3.5157Y-5.5354
X3.5157Y-5.5906
X3.5197Y-3.6181
X3.5197Y-4.5335
X3.5276Y-6.0948
X3.5315Y-5.0672
X3.5348Y-3.7047
X3.5354Y-5.6145
X3.5407Y-5.7523
X3.5413Y-3.9921
X3.5478Y-4.6342
X3.5551Y-4.9412
X3.5551Y-4.9727
X3.5551Y-6.4055
X3.5591Y-3.563
X3.5591Y-6.0948
X3.56Y-3.9016
X3.5634Y-5.4416
X3.565Y-3.9921
X3.5669Y-4.7365
X3.5748Y-6.2208
X3.578Y-5.4284
X3.5787Y-5.3346
X3.5821Y-4.6342
X3.5852Y-5.7523
X3.5866Y-4.9452
X3.5866Y-5.8664
X3.5886Y-4.9983
X3.5906Y-3.9921
X3.5906Y-6.0948
X3.5912Y-5.4138
X3.5945Y-5.0633
X3.5945Y-5.0987
X3.5984Y-5.6142
X3.6004Y-3.624
X3.6004Y-3.6555
X3.6024Y-4.1535
X3.6063Y-4.894
X3.6063Y-6.2208
X3.6107Y-5.4945
X3.6142Y-3.9921
X3.6181Y-5.5236
X3.6181Y-5.7981
X3.6195Y-5.7523
X3.6253Y-5.4813
X3.626Y-6.3192
X3.626Y-6.3507
X3.6289Y-3.811
X3.6299Y-5.6027
X3.6319Y-3.624
X3.6319Y-3.6555
X3.6319Y-4.5276
X3.6339Y-5.7129
X3.6339Y-6.1535
X3.6339Y-6.2208
X3.6358Y-3.7618
X3.6378Y-5.437
X3.6386Y-5.4667
X3.6417Y-5.3583
X3.6476Y-3.7343
X3.6476Y-5.1588
X3.6476Y-5.1962
X3.6476Y-5.2355
X3.6516Y-4.0453
X3.6575Y-5.5475
X3.6575Y-6.3349
X3.6614Y-6.1024
X3.6654Y-6.1535
X3.6654Y-6.3976
X3.6693Y-5.0751
X3.6693Y-5.2749
X3.6693Y-5.9176
X3.6732Y-3.5591
X3.6732Y-3.7815
X3.6732Y-4.8231
X3.6732Y-5.3074
X3.6732Y-6.4213
X3.6752Y-3.7477
X3.6791Y-3.8091
X3.6811Y-4.2165
X3.6811Y-5.7326
X3.6811Y-5.7906
X3.685Y-3.8392
X3.685Y-4.3346
X3.6929Y-3.7215
X3.6929Y-6.0397
X3.6934Y-3.9193
X3.6969Y-6.1535
X3.7008Y-4.9782
X3.7028Y-3.7835
X3.7047Y-5.0619
X3.7047Y-5.2956
X3.7087Y-4.5712
X3.7087Y-5.6105
X3.7087Y-6.1929
X3.7126Y-4.8546
X3.7205Y-3.5781
X3.7205Y-4.743
X3.7244Y-6.1535
X3.728Y-5.5529
X3.7283Y-5.7129
X3.7303Y-3.9173
X3.7323Y-6.4213
X3.7362Y-5.7903
X3.7362Y-5.8231
X3.7362Y-6.2165
X3.7402Y-6.1024
X3.7421Y-5.3434
X3.7441Y-3.5341
X3.752Y-5.7523
X3.7559Y-5.1932
X3.7579Y-5.0141
X3.7656Y-3.9882
X3.7697Y-3.4941
X3.7715Y-3.5986
X3.7735Y-3.9508
X3.7756Y-5.1656
X3.7756Y-6.1811
X3.7756Y-6.2143
X3.7776Y-5.3369
X3.7795Y-5.7798
X3.7835Y-4.2835
X3.7837Y-4.9271
X3.7893Y-3.9882
X3.7913Y-4.5712
X3.7913Y-5.457
X3.7971Y-3.7736
X3.7971Y-3.8051
X3.7992Y-3.6673
X3.8071Y-5.5672
X3.8071Y-5.7405
X3.8091Y-3.4154
X3.8139Y-3.6446
X3.815Y-3.5576
X3.8168Y-3.9882
X3.8169Y-4.8634
X3.8189Y-6.0335
X3.8208Y-3.9502
X3.8209Y-5.3434
X3.8228Y-6.3336
X3.825Y-4.9566
X3.8286Y-3.7736
X3.8286Y-3.8051
X3.8293Y-4.6676
X3.8307Y-5.7641
X3.8346Y-5.9255
X3.8386Y-4.7824
X3.8386Y-4.8166
X3.8405Y-3.9882
X3.8406Y-4.7017
X3.8411Y-6.2205
X3.8465Y-6.4213
X3.8524Y-4.3445
X3.8533Y-5.7267
X3.8543Y-6.3192
X3.8543Y-6.3389
X3.8555Y-3.5906
X3.8583Y-6.1319
X3.8622Y-5.394
X3.8622Y-5.7641
X3.8636Y-4.6676
X3.868Y-3.9502
X3.8707Y-5.3355
X3.872Y-3.6614
X3.873Y-6.3389
X3.874Y-5.1971
X3.874Y-5.8296
X3.874Y-5.8639
X3.874Y-6.3192
X3.8754Y-6.2008
X3.876Y-5.1188
X3.878Y-4.9613
X3.878Y-6.4173
X3.8819Y-5.4727
X3.8858Y-5.019
X3.8858Y-5.7956
X3.8858Y-5.9334
X3.8878Y-4.5669
X3.8937Y-4.4609
X3.8937Y-4.4806
X3.8956Y-3.7087
X3.8956Y-3.872
X3.8976Y-6.2244
X3.9049Y-5.2883
X3.9055Y-5.6617
X3.9075Y-4.8031
X3.9094Y-6.4213
X3.9097Y-5.5669
X3.9124Y-5.3861
X3.9134Y-5.3664
X3.9179Y-3.9921
X3.9213Y-6.2483
X3.9252Y-6.3153
X3.9272Y-3.9469
X3.9276Y-4.7554
X3.9291Y-5.0594
X3.9311Y-3.599
X3.937Y-5.4176
X3.937Y-5.6617
X3.938Y-6.3389
X3.9404Y-4.6814
X3.9409Y-6.4055
X3.9449Y-5.6949
X3.9459Y-3.7835
X3.9528Y-5.0121
X3.9528Y-6.3822
X3.9567Y-5.1962
X3.9567Y-6.3153
X3.9616Y-5.1607
X3.9626Y-5.1292
X3.9626Y-5.2326
X3.9685Y-6.3622
X3.9685Y-6.4213
X3.9764Y-5.3586
X3.9764Y-5.3979
X3.9774Y-5.3782
X3.9862Y-4.1634
X3.9862Y-4.2684
X3.9862Y-4.3734
X3.9862Y-4.4783
X4.0059Y-3.4252
X4.0059Y-3.4843
X4.0059Y-3.5433
X4.0059Y-3.8484
X4.0059Y-3.9961
X4.0059Y-4.0453
X4.0148Y-3.6929
X4.0151Y-3.6277
X4.0217Y-3.5925
M30
