%TF.GenerationSoftware,KiCad,Pcbnew,8.0.6*%
%TF.CreationDate,2024-11-23T18:19:37+01:00*%
%TF.ProjectId,M2SmartHome,4d32536d-6172-4744-986f-6d652e6b6963,rev?*%
%TF.SameCoordinates,Original*%
%TF.FileFunction,Copper,L1,Top*%
%TF.FilePolarity,Positive*%
%FSLAX46Y46*%
G04 Gerber Fmt 4.6, Leading zero omitted, Abs format (unit mm)*
G04 Created by KiCad (PCBNEW 8.0.6) date 2024-11-23 18:19:37*
%MOMM*%
%LPD*%
G01*
G04 APERTURE LIST*
G04 Aperture macros list*
%AMRoundRect*
0 Rectangle with rounded corners*
0 $1 Rounding radius*
0 $2 $3 $4 $5 $6 $7 $8 $9 X,Y pos of 4 corners*
0 Add a 4 corners polygon primitive as box body*
4,1,4,$2,$3,$4,$5,$6,$7,$8,$9,$2,$3,0*
0 Add four circle primitives for the rounded corners*
1,1,$1+$1,$2,$3*
1,1,$1+$1,$4,$5*
1,1,$1+$1,$6,$7*
1,1,$1+$1,$8,$9*
0 Add four rect primitives between the rounded corners*
20,1,$1+$1,$2,$3,$4,$5,0*
20,1,$1+$1,$4,$5,$6,$7,0*
20,1,$1+$1,$6,$7,$8,$9,0*
20,1,$1+$1,$8,$9,$2,$3,0*%
%AMRotRect*
0 Rectangle, with rotation*
0 The origin of the aperture is its center*
0 $1 length*
0 $2 width*
0 $3 Rotation angle, in degrees counterclockwise*
0 Add horizontal line*
21,1,$1,$2,0,0,$3*%
G04 Aperture macros list end*
%TA.AperFunction,SMDPad,CuDef*%
%ADD10R,0.800000X0.800000*%
%TD*%
%TA.AperFunction,SMDPad,CuDef*%
%ADD11R,0.560000X0.600000*%
%TD*%
%TA.AperFunction,SMDPad,CuDef*%
%ADD12R,0.600000X0.560000*%
%TD*%
%TA.AperFunction,SMDPad,CuDef*%
%ADD13R,1.000000X1.050000*%
%TD*%
%TA.AperFunction,SMDPad,CuDef*%
%ADD14R,1.050000X2.200000*%
%TD*%
%TA.AperFunction,SMDPad,CuDef*%
%ADD15RoundRect,0.006600X0.363400X0.103400X-0.363400X0.103400X-0.363400X-0.103400X0.363400X-0.103400X0*%
%TD*%
%TA.AperFunction,SMDPad,CuDef*%
%ADD16RoundRect,0.019800X0.090200X0.350200X-0.090200X0.350200X-0.090200X-0.350200X0.090200X-0.350200X0*%
%TD*%
%TA.AperFunction,SMDPad,CuDef*%
%ADD17R,2.700000X2.700000*%
%TD*%
%TA.AperFunction,SMDPad,CuDef*%
%ADD18R,0.350000X1.450000*%
%TD*%
%TA.AperFunction,SMDPad,CuDef*%
%ADD19C,1.000000*%
%TD*%
%TA.AperFunction,SMDPad,CuDef*%
%ADD20RoundRect,0.200000X-0.200000X-0.275000X0.200000X-0.275000X0.200000X0.275000X-0.200000X0.275000X0*%
%TD*%
%TA.AperFunction,SMDPad,CuDef*%
%ADD21RoundRect,0.200000X0.200000X0.275000X-0.200000X0.275000X-0.200000X-0.275000X0.200000X-0.275000X0*%
%TD*%
%TA.AperFunction,SMDPad,CuDef*%
%ADD22RoundRect,0.100000X-0.162635X0.021213X0.021213X-0.162635X0.162635X-0.021213X-0.021213X0.162635X0*%
%TD*%
%TA.AperFunction,SMDPad,CuDef*%
%ADD23RotRect,0.560000X0.600000X225.000000*%
%TD*%
%TA.AperFunction,SMDPad,CuDef*%
%ADD24R,0.350000X0.350000*%
%TD*%
%TA.AperFunction,SMDPad,CuDef*%
%ADD25R,0.900000X0.300000*%
%TD*%
%TA.AperFunction,SMDPad,CuDef*%
%ADD26R,0.300000X0.900000*%
%TD*%
%TA.AperFunction,SMDPad,CuDef*%
%ADD27R,1.800000X1.800000*%
%TD*%
%TA.AperFunction,SMDPad,CuDef*%
%ADD28RoundRect,0.009100X0.395900X0.120900X-0.395900X0.120900X-0.395900X-0.120900X0.395900X-0.120900X0*%
%TD*%
%TA.AperFunction,SMDPad,CuDef*%
%ADD29RoundRect,0.009100X0.120900X0.395900X-0.120900X0.395900X-0.120900X-0.395900X0.120900X-0.395900X0*%
%TD*%
%TA.AperFunction,SMDPad,CuDef*%
%ADD30R,0.750000X0.650000*%
%TD*%
%TA.AperFunction,SMDPad,CuDef*%
%ADD31R,1.050000X1.300000*%
%TD*%
%TA.AperFunction,SMDPad,CuDef*%
%ADD32R,0.260000X1.080000*%
%TD*%
%TA.AperFunction,SMDPad,CuDef*%
%ADD33R,1.080000X0.260000*%
%TD*%
%TA.AperFunction,SMDPad,CuDef*%
%ADD34R,3.700000X3.700000*%
%TD*%
%TA.AperFunction,SMDPad,CuDef*%
%ADD35RoundRect,0.100000X-0.100000X0.130000X-0.100000X-0.130000X0.100000X-0.130000X0.100000X0.130000X0*%
%TD*%
%TA.AperFunction,SMDPad,CuDef*%
%ADD36R,0.558800X1.320800*%
%TD*%
%TA.AperFunction,SMDPad,CuDef*%
%ADD37RoundRect,0.006900X-0.728100X-0.108100X0.728100X-0.108100X0.728100X0.108100X-0.728100X0.108100X0*%
%TD*%
%TA.AperFunction,SMDPad,CuDef*%
%ADD38RoundRect,0.006900X0.108100X-0.728100X0.108100X0.728100X-0.108100X0.728100X-0.108100X-0.728100X0*%
%TD*%
%TA.AperFunction,SMDPad,CuDef*%
%ADD39R,5.550000X5.550000*%
%TD*%
%TA.AperFunction,SMDPad,CuDef*%
%ADD40RotRect,1.050000X1.300000X45.000000*%
%TD*%
%TA.AperFunction,SMDPad,CuDef*%
%ADD41RoundRect,0.100000X-0.021213X-0.162635X0.162635X0.021213X0.021213X0.162635X-0.162635X-0.021213X0*%
%TD*%
%TA.AperFunction,SMDPad,CuDef*%
%ADD42RotRect,0.560000X0.600000X135.000000*%
%TD*%
%TA.AperFunction,SMDPad,CuDef*%
%ADD43R,1.200000X0.700000*%
%TD*%
%TA.AperFunction,SMDPad,CuDef*%
%ADD44R,1.200000X1.000000*%
%TD*%
%TA.AperFunction,SMDPad,CuDef*%
%ADD45R,2.800000X1.000000*%
%TD*%
%TA.AperFunction,SMDPad,CuDef*%
%ADD46R,1.900000X1.300000*%
%TD*%
%TA.AperFunction,SMDPad,CuDef*%
%ADD47R,0.800000X1.000000*%
%TD*%
%TA.AperFunction,SMDPad,CuDef*%
%ADD48RoundRect,0.100000X0.130000X0.100000X-0.130000X0.100000X-0.130000X-0.100000X0.130000X-0.100000X0*%
%TD*%
%TA.AperFunction,SMDPad,CuDef*%
%ADD49RotRect,0.560000X0.600000X315.000000*%
%TD*%
%TA.AperFunction,SMDPad,CuDef*%
%ADD50RoundRect,0.100000X-0.130000X-0.100000X0.130000X-0.100000X0.130000X0.100000X-0.130000X0.100000X0*%
%TD*%
%TA.AperFunction,SMDPad,CuDef*%
%ADD51C,0.240000*%
%TD*%
%TA.AperFunction,ViaPad*%
%ADD52C,0.400000*%
%TD*%
%TA.AperFunction,Conductor*%
%ADD53C,0.100000*%
%TD*%
%TA.AperFunction,Conductor*%
%ADD54C,0.090000*%
%TD*%
%TA.AperFunction,Conductor*%
%ADD55C,0.150000*%
%TD*%
%TA.AperFunction,Conductor*%
%ADD56C,0.200000*%
%TD*%
%TA.AperFunction,Conductor*%
%ADD57C,0.400000*%
%TD*%
%TA.AperFunction,Conductor*%
%ADD58C,0.125000*%
%TD*%
G04 APERTURE END LIST*
D10*
%TO.P,D3,1,K*%
%TO.N,Net-(D3-K)*%
X100525000Y-102107500D03*
%TO.P,D3,2,A*%
%TO.N,/sd-card/CRD_PWR*%
X98875000Y-102107500D03*
%TD*%
D11*
%TO.P,C49,1*%
%TO.N,GND*%
X100835000Y-91507500D03*
%TO.P,C49,2*%
%TO.N,Net-(U7-RFVDD)*%
X99965000Y-91507500D03*
%TD*%
D12*
%TO.P,C46,1*%
%TO.N,GND*%
X98200000Y-99792499D03*
%TO.P,C46,2*%
%TO.N,+3V3_Thread*%
X98200000Y-98922501D03*
%TD*%
%TO.P,R49,1*%
%TO.N,Net-(U3-MAIN_DETECT)*%
X81800000Y-153442499D03*
%TO.P,R49,2*%
%TO.N,+3V3_Bridge*%
X81800000Y-152572501D03*
%TD*%
%TO.P,R10,1*%
%TO.N,GND*%
X92000000Y-125172501D03*
%TO.P,R10,2*%
%TO.N,Net-(U8-SD_nCD)*%
X92000000Y-126042499D03*
%TD*%
%TO.P,R69,1*%
%TO.N,GND*%
X101300000Y-159872501D03*
%TO.P,R69,2*%
%TO.N,Net-(J1-CONFIG_3)*%
X101300000Y-160742499D03*
%TD*%
D13*
%TO.P,J3,1*%
%TO.N,Net-(C53-Pad2)*%
X98900000Y-89132500D03*
D14*
%TO.P,J3,S1*%
%TO.N,GND*%
X100375000Y-87607500D03*
D13*
%TO.P,J3,S2*%
X98900000Y-86082500D03*
D14*
%TO.P,J3,S3*%
X97425000Y-87607500D03*
%TD*%
D15*
%TO.P,U7,1,PC00*%
%TO.N,unconnected-(U7-PC00-Pad1)*%
X98847500Y-97057500D03*
%TO.P,U7,2,PC01*%
%TO.N,unconnected-(U7-PC01-Pad2)*%
X98847500Y-96657500D03*
%TO.P,U7,3,PC02*%
%TO.N,unconnected-(U7-PC02-Pad3)*%
X98847500Y-96257500D03*
%TO.P,U7,4,PC03*%
%TO.N,unconnected-(U7-PC03-Pad4)*%
X98847500Y-95857500D03*
%TO.P,U7,5,PC04*%
%TO.N,unconnected-(U7-PC04-Pad5)*%
X98847500Y-95457500D03*
%TO.P,U7,6,PC05*%
%TO.N,unconnected-(U7-PC05-Pad6)*%
X98847500Y-95057500D03*
%TO.P,U7,7,HFXTAL_I*%
%TO.N,/thread-or-zigbee/XTAL1*%
X98847500Y-94657500D03*
%TO.P,U7,8,HFXTAL_0*%
%TO.N,/thread-or-zigbee/XTAL2*%
X98847500Y-94257500D03*
D16*
%TO.P,U7,9,~{RESET_N}*%
%TO.N,/thread-or-zigbee/RESET*%
X98252500Y-93662500D03*
%TO.P,U7,10,RFVDD*%
%TO.N,Net-(U7-RFVDD)*%
X97852500Y-93662500D03*
%TO.P,U7,11,RFVSS*%
%TO.N,GND*%
X97452500Y-93662500D03*
%TO.P,U7,12,RF2G4_IO2*%
%TO.N,Net-(U7-RF2G4_IO2)*%
X97052500Y-93662500D03*
%TO.P,U7,13,RF2G4_IO1*%
%TO.N,GND*%
X96652500Y-93662500D03*
%TO.P,U7,14,PAVDD*%
%TO.N,Net-(U7-PAVDD)*%
X96252500Y-93662500D03*
%TO.P,U7,15,PB01*%
%TO.N,unconnected-(U7-PB01-Pad15)*%
X95852500Y-93662500D03*
%TO.P,U7,16,PB00*%
%TO.N,unconnected-(U7-PB00-Pad16)*%
X95452500Y-93662500D03*
D15*
%TO.P,U7,17,PA00/VREFP*%
%TO.N,unconnected-(U7-PA00{slash}VREFP-Pad17)*%
X94857500Y-94257500D03*
%TO.P,U7,18,PA01*%
%TO.N,/thread-or-zigbee/SWCLK*%
X94857500Y-94657500D03*
%TO.P,U7,19,PA02*%
%TO.N,/thread-or-zigbee/SWDIO*%
X94857500Y-95057500D03*
%TO.P,U7,20,PA03*%
%TO.N,unconnected-(U7-PA03-Pad20)*%
X94857500Y-95457500D03*
%TO.P,U7,21*%
%TO.N,N/C*%
X94857500Y-95857500D03*
%TO.P,U7,22,PA05*%
%TO.N,/thread-or-zigbee/UART_RX*%
X94857500Y-96257500D03*
%TO.P,U7,23,PA06*%
%TO.N,/thread-or-zigbee/UART_TX*%
X94857500Y-96657500D03*
%TO.P,U7,24,DECOUPLE*%
%TO.N,+3V3_Thread*%
X94857500Y-97057500D03*
D16*
%TO.P,U7,25,DVDD*%
X95452500Y-97652500D03*
%TO.P,U7,26,AVDD*%
X95852500Y-97652500D03*
%TO.P,U7,27,IOVDD*%
X96252500Y-97652500D03*
%TO.P,U7,28,PD04*%
%TO.N,unconnected-(U7-PD04-Pad28)*%
X96652500Y-97652500D03*
%TO.P,U7,29,PD03*%
%TO.N,unconnected-(U7-PD03-Pad29)*%
X97052500Y-97652500D03*
%TO.P,U7,30,PD02*%
%TO.N,unconnected-(U7-PD02-Pad30)*%
X97452500Y-97652500D03*
%TO.P,U7,31,PD01*%
%TO.N,unconnected-(U7-PD01-Pad31)*%
X97852500Y-97652500D03*
%TO.P,U7,32,PD00*%
%TO.N,unconnected-(U7-PD00-Pad32)*%
X98252500Y-97652500D03*
D17*
%TO.P,U7,33,VSS*%
%TO.N,GND*%
X96852500Y-95657500D03*
%TD*%
D12*
%TO.P,C37,1*%
%TO.N,GND*%
X101200000Y-134842499D03*
%TO.P,C37,2*%
%TO.N,/sd-card/DET*%
X101200000Y-133972501D03*
%TD*%
%TO.P,C57,1*%
%TO.N,GND*%
X83800000Y-92872500D03*
%TO.P,C57,2*%
%TO.N,Net-(U1-VD12D)*%
X83800000Y-93742500D03*
%TD*%
D18*
%TO.P,J1,1,CONFIG_3*%
%TO.N,Net-(J1-CONFIG_3)*%
X101250000Y-164725000D03*
%TO.P,J1,3,GND*%
%TO.N,GND*%
X100750000Y-164725000D03*
%TO.P,J1,5,PERn3*%
%TO.N,unconnected-(J1-PERn3-Pad5)*%
X100250000Y-164725000D03*
%TO.P,J1,7,PERp3*%
%TO.N,unconnected-(J1-PERp3-Pad7)*%
X99750000Y-164725000D03*
%TO.P,J1,9,GND*%
%TO.N,GND*%
X99250000Y-164725000D03*
%TO.P,J1,11,PETn3*%
%TO.N,unconnected-(J1-PETn3-Pad11)*%
X98750000Y-164725000D03*
%TO.P,J1,13,PETp3*%
%TO.N,unconnected-(J1-PETp3-Pad13)*%
X98250000Y-164725000D03*
%TO.P,J1,15,GND*%
%TO.N,GND*%
X97750000Y-164725000D03*
%TO.P,J1,17,PERn2*%
%TO.N,unconnected-(J1-PERn2-Pad17)*%
X97250000Y-164725000D03*
%TO.P,J1,19,PERp2*%
%TO.N,unconnected-(J1-PERp2-Pad19)*%
X96750000Y-164725000D03*
%TO.P,J1,21,CONFIG_0*%
%TO.N,Net-(J1-CONFIG_0)*%
X96250000Y-164725000D03*
%TO.P,J1,23,PETn2*%
%TO.N,unconnected-(J1-PETn2-Pad23)*%
X95750000Y-164725000D03*
%TO.P,J1,25,PETp2*%
%TO.N,unconnected-(J1-PETp2-Pad25)*%
X95250000Y-164725000D03*
%TO.P,J1,27,GND*%
%TO.N,GND*%
X94750000Y-164725000D03*
%TO.P,J1,29,PERn1*%
%TO.N,unconnected-(J1-PERn1-Pad29)*%
X94250000Y-164725000D03*
%TO.P,J1,31,PERp1*%
%TO.N,unconnected-(J1-PERp1-Pad31)*%
X93750000Y-164725000D03*
%TO.P,J1,33,GND*%
%TO.N,GND*%
X93250000Y-164725000D03*
%TO.P,J1,35,PETn1*%
%TO.N,unconnected-(J1-PETn1-Pad35)*%
X92750000Y-164725000D03*
%TO.P,J1,37,PETp1*%
%TO.N,unconnected-(J1-PETp1-Pad37)*%
X92250000Y-164725000D03*
%TO.P,J1,39,GND*%
%TO.N,GND*%
X91750000Y-164725000D03*
%TO.P,J1,41,SATA-B+/PERn0*%
%TO.N,/PCIE.PERN*%
X91250000Y-164725000D03*
%TO.P,J1,43,SATA-B-/PERp0*%
%TO.N,/PCIE.PERP*%
X90750000Y-164725000D03*
%TO.P,J1,45,GND*%
%TO.N,GND*%
X90250000Y-164725000D03*
%TO.P,J1,47,SATA-A-/PETn0*%
%TO.N,/PCIE.CAP.PETN*%
X89750000Y-164725000D03*
%TO.P,J1,49,SATA-A+/PETp0*%
%TO.N,/PCIE.CAP.PETP*%
X89250000Y-164725000D03*
%TO.P,J1,51,GND*%
%TO.N,GND*%
X88750000Y-164725000D03*
%TO.P,J1,53,REFCLKN*%
%TO.N,/PCIE.REFCLKN*%
X88250000Y-164725000D03*
%TO.P,J1,55,REFCLKP*%
%TO.N,/PCIE.REFCLKP*%
X87750000Y-164725000D03*
%TO.P,J1,57,GND*%
%TO.N,GND*%
X87250000Y-164725000D03*
%TO.P,J1,67,NC*%
%TO.N,unconnected-(J1-NC-Pad67)*%
X84750000Y-164725000D03*
%TO.P,J1,69,CONFIG_1*%
%TO.N,Net-(J1-CONFIG_1)*%
X84250000Y-164725000D03*
%TO.P,J1,71,GND*%
%TO.N,GND*%
X83750000Y-164725000D03*
%TO.P,J1,73,GND*%
X83250000Y-164725000D03*
%TO.P,J1,75,CONFIG_2*%
%TO.N,Net-(J1-CONFIG_2)*%
X82750000Y-164725000D03*
%TD*%
D12*
%TO.P,R41,1*%
%TO.N,Net-(U1-RREF)*%
X81920000Y-95472499D03*
%TO.P,R41,2*%
%TO.N,GND*%
X81920000Y-94602501D03*
%TD*%
D11*
%TO.P,C31,1*%
%TO.N,GND*%
X97920000Y-135722500D03*
%TO.P,C31,2*%
%TO.N,+3V3_uSD*%
X97050000Y-135722500D03*
%TD*%
D12*
%TO.P,C25,1*%
%TO.N,GND*%
X94900000Y-125672500D03*
%TO.P,C25,2*%
%TO.N,/sd-card/XTAL1*%
X94900000Y-126542500D03*
%TD*%
D19*
%TO.P,TP18,1*%
%TO.N,/thread-or-zigbee/RESET*%
X101800000Y-99107500D03*
%TD*%
D20*
%TO.P,FB5,1*%
%TO.N,+3V3_uSD*%
X99375000Y-136607500D03*
%TO.P,FB5,2*%
%TO.N,+3V3*%
X101025000Y-136607500D03*
%TD*%
D12*
%TO.P,C77,1*%
%TO.N,GND*%
X89050000Y-95022501D03*
%TO.P,C77,2*%
%TO.N,+3V3_wifi*%
X89050000Y-95892499D03*
%TD*%
D21*
%TO.P,FB6,1*%
%TO.N,+3V3_Thread*%
X94475000Y-100607500D03*
%TO.P,FB6,2*%
%TO.N,+3V3*%
X92825000Y-100607500D03*
%TD*%
D12*
%TO.P,C78,1*%
%TO.N,GND*%
X82800000Y-99042500D03*
%TO.P,C78,2*%
%TO.N,+3V3_wifi*%
X82800000Y-98172500D03*
%TD*%
D21*
%TO.P,FB8,1*%
%TO.N,+3V3*%
X87675000Y-100757500D03*
%TO.P,FB8,2*%
%TO.N,+3V3_wifi*%
X86025000Y-100757500D03*
%TD*%
D11*
%TO.P,C42,1*%
%TO.N,+3V3_Thread*%
X94634999Y-99007500D03*
%TO.P,C42,2*%
%TO.N,GND*%
X93765001Y-99007500D03*
%TD*%
D12*
%TO.P,R40,1*%
%TO.N,/thread-or-zigbee/RESET*%
X100200000Y-97172501D03*
%TO.P,R40,2*%
%TO.N,+3V3_Thread*%
X100200000Y-98042499D03*
%TD*%
D11*
%TO.P,C68,1*%
%TO.N,GND*%
X91685000Y-94657500D03*
%TO.P,C68,2*%
%TO.N,/wifi/XTAL1*%
X90815000Y-94657500D03*
%TD*%
D12*
%TO.P,C20,1*%
%TO.N,GND*%
X98500000Y-126017500D03*
%TO.P,C20,2*%
%TO.N,/sd-card/XTAL2*%
X98500000Y-125147500D03*
%TD*%
D22*
%TO.P,L4,1*%
%TO.N,Net-(C59-Pad2)*%
X87073726Y-91281226D03*
%TO.P,L4,2*%
%TO.N,Net-(U1-RF_INOUT)*%
X87526274Y-91733774D03*
%TD*%
D11*
%TO.P,R9,1*%
%TO.N,GND*%
X95834999Y-119207500D03*
%TO.P,R9,2*%
%TO.N,Net-(D1-K)*%
X94965001Y-119207500D03*
%TD*%
D20*
%TO.P,FB9,1*%
%TO.N,+3V3_Bridge*%
X98375000Y-161007500D03*
%TO.P,FB9,2*%
%TO.N,+3V3*%
X100025000Y-161007500D03*
%TD*%
D12*
%TO.P,C75,1*%
%TO.N,GND*%
X81645000Y-99057500D03*
%TO.P,C75,2*%
%TO.N,+3V3_wifi*%
X81645000Y-98187500D03*
%TD*%
D11*
%TO.P,C3,1*%
%TO.N,GND*%
X93034999Y-121107500D03*
%TO.P,C3,2*%
%TO.N,Net-(U8-VDD18PLL)*%
X92165001Y-121107500D03*
%TD*%
D10*
%TO.P,D2,1,K*%
%TO.N,Net-(D2-K)*%
X83275000Y-141107500D03*
%TO.P,D2,2,A*%
%TO.N,Net-(D2-A)*%
X84925000Y-141107500D03*
%TD*%
D23*
%TO.P,C2,1*%
%TO.N,GND*%
X99007591Y-141399909D03*
%TO.P,C2,2*%
%TO.N,Net-(U3-XI)*%
X98392409Y-142015091D03*
%TD*%
D24*
%TO.P,U5,1,GPIO1/RS485*%
%TO.N,unconnected-(U5-GPIO1{slash}RS485-Pad1)*%
X90650000Y-89757500D03*
D25*
%TO.P,U5,2,GPIO0/CLK*%
%TO.N,unconnected-(U5-GPIO0{slash}CLK-Pad2)*%
X90350000Y-90257500D03*
%TO.P,U5,3,GND*%
%TO.N,GND*%
X90350000Y-90757500D03*
%TO.P,U5,4,D+*%
%TO.N,/pcie-usb-bridge/USB_3_DP*%
X90350000Y-91257500D03*
%TO.P,U5,5,D-*%
%TO.N,/pcie-usb-bridge/USB_3_DN*%
X90350000Y-91757500D03*
D24*
%TO.P,U5,6,VDD*%
%TO.N,+3V3_Thread*%
X90650000Y-92257500D03*
D26*
%TO.P,U5,7,VREGIN*%
X91150000Y-92557500D03*
%TO.P,U5,8,VBUS*%
%TO.N,Net-(U5-VBUS)*%
X91650000Y-92557500D03*
%TO.P,U5,9,RSTB*%
%TO.N,Net-(U5-RSTB)*%
X92150000Y-92557500D03*
%TO.P,U5,10*%
%TO.N,N/C*%
X92650000Y-92557500D03*
D24*
%TO.P,U5,11,SUSPENDB*%
%TO.N,unconnected-(U5-SUSPENDB-Pad11)*%
X93150000Y-92257500D03*
D25*
%TO.P,U5,12,GND*%
%TO.N,GND*%
X93450000Y-91757500D03*
%TO.P,U5,13,WAKEUP*%
%TO.N,unconnected-(U5-WAKEUP-Pad13)*%
X93450000Y-91257500D03*
%TO.P,U5,14,SUSPEND*%
%TO.N,unconnected-(U5-SUSPEND-Pad14)*%
X93450000Y-90757500D03*
%TO.P,U5,15,CTS*%
%TO.N,unconnected-(U5-CTS-Pad15)*%
X93450000Y-90257500D03*
D24*
%TO.P,U5,16,RTS*%
%TO.N,unconnected-(U5-RTS-Pad16)*%
X93150000Y-89757500D03*
D26*
%TO.P,U5,17,RXD*%
%TO.N,/thread-or-zigbee/UART_TX*%
X92650000Y-89457500D03*
%TO.P,U5,18,TXD*%
%TO.N,/thread-or-zigbee/UART_RX*%
X92150000Y-89457500D03*
%TO.P,U5,19,GPIO3/RXT*%
%TO.N,unconnected-(U5-GPIO3{slash}RXT-Pad19)*%
X91650000Y-89457500D03*
%TO.P,U5,20,GPIO2/TXT*%
%TO.N,unconnected-(U5-GPIO2{slash}TXT-Pad20)*%
X91150000Y-89457500D03*
D27*
%TO.P,U5,EXP,GND*%
%TO.N,GND*%
X91900000Y-91007500D03*
%TD*%
D12*
%TO.P,R57,1*%
%TO.N,/pcie-usb-bridge/R_USB_1_DP*%
X87320000Y-141717500D03*
%TO.P,R57,2*%
%TO.N,/pcie-usb-bridge/USB_3_DP*%
X87320000Y-140847500D03*
%TD*%
D28*
%TO.P,U1,1,VD33X*%
%TO.N,+3V3_wifi*%
X87955000Y-98157500D03*
%TO.P,U1,2,XO*%
%TO.N,/wifi/XTAL2*%
X87955000Y-97657500D03*
%TO.P,U1,3,XI*%
%TO.N,/wifi/XTAL1*%
X87955000Y-97157500D03*
%TO.P,U1,4,VD33SYNVCO*%
%TO.N,+3V3_wifi*%
X87955000Y-96657500D03*
%TO.P,U1,5,VDSYN*%
X87955000Y-96157500D03*
%TO.P,U1,6,VD33PA*%
X87955000Y-95657500D03*
D29*
%TO.P,U1,7,RF_INOUT*%
%TO.N,Net-(U1-RF_INOUT)*%
X87250000Y-94952500D03*
%TO.P,U1,8,VD33TR*%
%TO.N,+3V3_wifi*%
X86750000Y-94952500D03*
%TO.P,U1,9,VDTR*%
X86250000Y-94952500D03*
%TO.P,U1,10,CHIP_EN*%
%TO.N,Net-(U1-CHIP_EN)*%
X85750000Y-94952500D03*
%TO.P,U1,11,VD12D*%
%TO.N,Net-(U1-VD12D)*%
X85250000Y-94952500D03*
%TO.P,U1,12,VD33LDO*%
%TO.N,+3V3_wifi*%
X84750000Y-94952500D03*
D28*
%TO.P,U1,13,GHDA*%
%TO.N,GND*%
X84045000Y-95657500D03*
%TO.P,U1,14,RREF*%
%TO.N,Net-(U1-RREF)*%
X84045000Y-96157500D03*
%TO.P,U1,15,HSDP*%
%TO.N,/pcie-usb-bridge/USB_4_DP*%
X84045000Y-96657500D03*
%TO.P,U1,16,HSDM*%
%TO.N,/pcie-usb-bridge/USB_4_DN*%
X84045000Y-97157500D03*
%TO.P,U1,17,VD33USB*%
%TO.N,+3V3_wifi*%
X84045000Y-97657500D03*
%TO.P,U1,18,VDIO*%
X84045000Y-98157500D03*
D29*
%TO.P,U1,19,Dev_Wake_Host/GPIO0*%
%TO.N,unconnected-(U1-Dev_Wake_Host{slash}GPIO0-Pad19)*%
X84750000Y-98862500D03*
%TO.P,U1,20,Host_Wake_Dev/GPIO2*%
%TO.N,unconnected-(U1-Host_Wake_Dev{slash}GPIO2-Pad20)*%
X85250000Y-98862500D03*
%TO.P,U1,21,GNDD*%
%TO.N,GND*%
X85750000Y-98862500D03*
%TO.P,U1,22,WPS/XTAL_SEL0/GPIO5*%
X86250000Y-98862500D03*
%TO.P,U1,23,LED/GPIO4*%
%TO.N,Net-(D4-K)*%
X86750000Y-98862500D03*
%TO.P,U1,24,GPIO3*%
%TO.N,unconnected-(U1-GPIO3-Pad24)*%
X87250000Y-98862500D03*
D17*
%TO.P,U1,25,GND*%
%TO.N,GND*%
X86000000Y-96907500D03*
%TD*%
D30*
%TO.P,Y3,1,IN/OUT*%
%TO.N,/sd-card/XTAL2*%
X97155000Y-125147500D03*
%TO.P,Y3,2,GND*%
%TO.N,GND*%
X96105000Y-125147500D03*
%TO.P,Y3,3,OUT/IN*%
%TO.N,/sd-card/XTAL1*%
X96105000Y-125897500D03*
%TO.P,Y3,4,GND__1*%
%TO.N,GND*%
X97155000Y-125897500D03*
%TD*%
D12*
%TO.P,C56,1*%
%TO.N,GND*%
X88950000Y-99892499D03*
%TO.P,C56,2*%
%TO.N,+3V3_wifi*%
X88950000Y-99022501D03*
%TD*%
D31*
%TO.P,Y5,1*%
%TO.N,/wifi/XTAL1*%
X90425000Y-96207500D03*
%TO.P,Y5,2,GND*%
%TO.N,GND*%
X90425000Y-98507500D03*
%TO.P,Y5,3*%
%TO.N,/wifi/XTAL2*%
X92175000Y-98507500D03*
%TO.P,Y5,4,GND*%
%TO.N,GND*%
X92175000Y-96207500D03*
%TD*%
D32*
%TO.P,U8,1,LED*%
%TO.N,Net-(D1-A)*%
X89737500Y-120147750D03*
%TO.P,U8,2,USB+*%
%TO.N,/emmc/USB_1_DP*%
X89237500Y-120147750D03*
%TO.P,U8,3,USB-*%
%TO.N,/emmc/USB_1_DN*%
X88737500Y-120147750D03*
%TO.P,U8,4,SD_D1*%
%TO.N,Net-(U2-DAT1)*%
X88237500Y-120147750D03*
%TO.P,U8,5,SD_D0*%
%TO.N,Net-(U2-DAT0)*%
X87737500Y-120147750D03*
%TO.P,U8,6,VDD33*%
%TO.N,+3V3_eMMC*%
X87237500Y-120147750D03*
%TO.P,U8,7,SD_D7*%
%TO.N,Net-(U2-DAT7)*%
X86737500Y-120147750D03*
%TO.P,U8,8,SD_D6*%
%TO.N,Net-(U2-DAT6)*%
X86237500Y-120147750D03*
%TO.P,U8,9,SD_CLK*%
%TO.N,Net-(U2-CLK)*%
X85737500Y-120147750D03*
D33*
%TO.P,U8,10,SD_D5*%
%TO.N,Net-(U2-DAT5)*%
X84922500Y-120962750D03*
%TO.P,U8,11,SD_CMD*%
%TO.N,Net-(U2-CMD)*%
X84922500Y-121462750D03*
%TO.P,U8,12,NC*%
%TO.N,unconnected-(U8-NC-Pad12)*%
X84922500Y-121962750D03*
%TO.P,U8,13,VDD18*%
%TO.N,Net-(U8-VDD18)*%
X84922500Y-122462750D03*
%TO.P,U8,14,VDD33*%
%TO.N,+3V3_eMMC*%
X84922500Y-122962750D03*
%TO.P,U8,15,NC*%
%TO.N,unconnected-(U8-NC-Pad15)*%
X84922500Y-123462750D03*
%TO.P,U8,16,NC*%
%TO.N,unconnected-(U8-NC-Pad16)*%
X84922500Y-123962750D03*
%TO.P,U8,17,NC*%
%TO.N,unconnected-(U8-NC-Pad17)*%
X84922500Y-124462750D03*
%TO.P,U8,18,~{RESET_N}*%
%TO.N,/emmc/~{reset}*%
X84922500Y-124962750D03*
D32*
%TO.P,U8,19,NC*%
%TO.N,unconnected-(U8-NC-Pad19)*%
X85737500Y-125777750D03*
%TO.P,U8,20,SD_D4*%
%TO.N,Net-(U2-DAT4)*%
X86237500Y-125777750D03*
%TO.P,U8,21,CRD_PWR*%
%TO.N,Net-(U2-RST_N)*%
X86737500Y-125777750D03*
%TO.P,U8,22,VDD33*%
%TO.N,+3V3_eMMC*%
X87237500Y-125777750D03*
%TO.P,U8,23,SD_D3*%
%TO.N,Net-(U2-DAT3)*%
X87737500Y-125777750D03*
%TO.P,U8,24,NC*%
%TO.N,unconnected-(U8-NC-Pad24)*%
X88237500Y-125777750D03*
%TO.P,U8,25,SD_D2*%
%TO.N,Net-(U2-DAT2)*%
X88737500Y-125777750D03*
%TO.P,U8,26,SD_nCD*%
%TO.N,Net-(U8-SD_nCD)*%
X89237500Y-125777750D03*
%TO.P,U8,27,RXD/SDA*%
%TO.N,/emmc/SDA*%
X89737500Y-125777750D03*
D33*
%TO.P,U8,28,TEST*%
%TO.N,GND*%
X90552500Y-124962750D03*
%TO.P,U8,29,NC*%
%TO.N,unconnected-(U8-NC-Pad29)*%
X90552500Y-124462750D03*
%TO.P,U8,30,SD_WP*%
%TO.N,Net-(U8-SD_WP)*%
X90552500Y-123962750D03*
%TO.P,U8,31,TXD/SCK*%
%TO.N,/emmc/SCK*%
X90552500Y-123462750D03*
%TO.P,U8,32,XTAL2*%
%TO.N,/emmc/XTAL2*%
X90552500Y-122962750D03*
%TO.P,U8,33,XTAL1(CLKIN)*%
%TO.N,/emmc/XTAL1*%
X90552500Y-122462750D03*
%TO.P,U8,34,VDD18PLL*%
%TO.N,Net-(U8-VDD18PLL)*%
X90552500Y-121962750D03*
%TO.P,U8,35,RBIAS*%
%TO.N,Net-(U8-RBIAS)*%
X90552500Y-121462750D03*
%TO.P,U8,36,VDDA33*%
%TO.N,+3V3_eMMC*%
X90552500Y-120962750D03*
D34*
%TO.P,U8,37,VSS*%
%TO.N,GND*%
X87737500Y-122962750D03*
%TD*%
D12*
%TO.P,R67,1*%
%TO.N,GND*%
X84400000Y-159572500D03*
%TO.P,R67,2*%
%TO.N,Net-(J1-CONFIG_1)*%
X84400000Y-160442500D03*
%TD*%
D35*
%TO.P,L2,1*%
%TO.N,Net-(U7-PAVDD)*%
X93752500Y-93342500D03*
%TO.P,L2,2*%
%TO.N,+3V3_Thread*%
X93752500Y-93982500D03*
%TD*%
D11*
%TO.P,R35,1*%
%TO.N,/sd-card/XTAL2*%
X97335000Y-127182500D03*
%TO.P,R35,2*%
%TO.N,/sd-card/XTAL1*%
X96465000Y-127182500D03*
%TD*%
D12*
%TO.P,R68,1*%
%TO.N,GND*%
X97100000Y-160872501D03*
%TO.P,R68,2*%
%TO.N,Net-(J1-CONFIG_0)*%
X97100000Y-161742499D03*
%TD*%
%TO.P,C4,1*%
%TO.N,GND*%
X94500000Y-120472501D03*
%TO.P,C4,2*%
%TO.N,/emmc/XTAL2*%
X94500000Y-121342499D03*
%TD*%
D11*
%TO.P,R50,1*%
%TO.N,GND*%
X82065001Y-145400000D03*
%TO.P,R50,2*%
%TO.N,Net-(U3-TEST1)*%
X82934999Y-145400000D03*
%TD*%
D12*
%TO.P,C58,1*%
%TO.N,GND*%
X85000000Y-92872500D03*
%TO.P,C58,2*%
%TO.N,Net-(U1-VD12D)*%
X85000000Y-93742500D03*
%TD*%
%TO.P,C64,1*%
%TO.N,GND*%
X101600000Y-148542499D03*
%TO.P,C64,2*%
%TO.N,+3V3_Bridge*%
X101600000Y-147672501D03*
%TD*%
D11*
%TO.P,C5,1*%
%TO.N,GND*%
X97265001Y-118557500D03*
%TO.P,C5,2*%
%TO.N,+3V3_eMMC*%
X98134999Y-118557500D03*
%TD*%
D12*
%TO.P,R62,1*%
%TO.N,/pcie-usb-bridge/R_USB_2_DN*%
X91280000Y-141717500D03*
%TO.P,R62,2*%
%TO.N,/pcie-usb-bridge/USB_4_DN*%
X91280000Y-140847500D03*
%TD*%
D36*
%TO.P,U6,1,SCL*%
%TO.N,/sd-card/SCK*%
X99760200Y-123529100D03*
%TO.P,U6,2,VSS*%
%TO.N,GND*%
X100700000Y-123529100D03*
%TO.P,U6,3,SDA*%
%TO.N,/sd-card/SDA*%
X101639800Y-123529100D03*
%TO.P,U6,4,VCC*%
%TO.N,+3V3_uSD*%
X101639800Y-120785900D03*
%TO.P,U6,5,WP*%
%TO.N,GND*%
X99760200Y-120785900D03*
%TD*%
D37*
%TO.P,U3,1,TEST1*%
%TO.N,Net-(U3-TEST1)*%
X84630000Y-145330000D03*
%TO.P,U3,2*%
%TO.N,N/C*%
X84630000Y-145730000D03*
%TO.P,U3,3,IO_HIT_I*%
%TO.N,Net-(U3-IO_HIT_I)*%
X84630000Y-146130000D03*
%TO.P,U3,4,OCI[1]*%
%TO.N,unconnected-(U3-OCI[1]-Pad4)*%
X84630000Y-146530000D03*
%TO.P,U3,5,OCI[2]*%
%TO.N,unconnected-(U3-OCI[2]-Pad5)*%
X84630000Y-146930000D03*
%TO.P,U3,6,OCI[3]*%
%TO.N,unconnected-(U3-OCI[3]-Pad6)*%
X84630000Y-147330000D03*
%TO.P,U3,7,OCI[4]*%
%TO.N,unconnected-(U3-OCI[4]-Pad7)*%
X84630000Y-147730000D03*
%TO.P,U3,8,VDDR*%
%TO.N,+3V3_Bridge*%
X84630000Y-148130000D03*
%TO.P,U3,9,VSS*%
%TO.N,GND*%
X84630000Y-148530000D03*
%TO.P,U3,10,POE[1]*%
X84630000Y-148930000D03*
%TO.P,U3,11,POE[2]*%
X84630000Y-149330000D03*
%TO.P,U3,12,POE[3]*%
X84630000Y-149730000D03*
%TO.P,U3,13,POE[4]*%
X84630000Y-150130000D03*
%TO.P,U3,14,SMI_O*%
%TO.N,Net-(U3-SMI_O)*%
X84630000Y-150530000D03*
%TO.P,U3,15,SCAN_EN*%
%TO.N,Net-(U3-SCAN_EN)*%
X84630000Y-150930000D03*
%TO.P,U3,16,IRQ1_I*%
%TO.N,Net-(U3-IRQ1_I)*%
X84630000Y-151330000D03*
%TO.P,U3,17,IRQ12_I*%
%TO.N,Net-(U3-IRQ12_I)*%
X84630000Y-151730000D03*
%TO.P,U3,18,IRQ1_O*%
%TO.N,Net-(U3-IRQ1_O)*%
X84630000Y-152130000D03*
%TO.P,U3,19,IRQ12_O*%
%TO.N,Net-(U3-IRQ12_O)*%
X84630000Y-152530000D03*
%TO.P,U3,20,LEG_EMU_EN*%
%TO.N,Net-(U3-LEG_EMU_EN)*%
X84630000Y-152930000D03*
%TO.P,U3,21,SMBCLK*%
%TO.N,Net-(U3-SMBCLK)*%
X84630000Y-153330000D03*
%TO.P,U3,22,VDDC*%
%TO.N,+1V0_core*%
X84630000Y-153730000D03*
%TO.P,U3,23,VSS*%
%TO.N,GND*%
X84630000Y-154130000D03*
%TO.P,U3,24,MAIN_DETECT*%
%TO.N,Net-(U3-MAIN_DETECT)*%
X84630000Y-154530000D03*
%TO.P,U3,25,TDO*%
%TO.N,Net-(U3-TDO)*%
X84630000Y-154930000D03*
%TO.P,U3,26,TCK*%
%TO.N,Net-(U3-TCK)*%
X84630000Y-155330000D03*
%TO.P,U3,27,TMS*%
%TO.N,Net-(U3-TMS)*%
X84630000Y-155730000D03*
%TO.P,U3,28,TDI*%
%TO.N,Net-(U3-TDI)*%
X84630000Y-156130000D03*
%TO.P,U3,29,TRST_L*%
%TO.N,Net-(U3-TRST_L)*%
X84630000Y-156530000D03*
%TO.P,U3,30*%
%TO.N,N/C*%
X84630000Y-156930000D03*
%TO.P,U3,31*%
X84630000Y-157330000D03*
%TO.P,U3,32*%
X84630000Y-157730000D03*
D38*
%TO.P,U3,33,VDDR*%
%TO.N,+3V3_Bridge*%
X86100000Y-159200000D03*
%TO.P,U3,34,VSS*%
%TO.N,GND*%
X86500000Y-159200000D03*
%TO.P,U3,35,VDDC*%
%TO.N,+1V0_core*%
X86900000Y-159200000D03*
%TO.P,U3,36,VSS*%
%TO.N,GND*%
X87300000Y-159200000D03*
%TO.P,U3,37,PERP*%
%TO.N,/PCIE.PERP*%
X87700000Y-159200000D03*
%TO.P,U3,38,PERN*%
%TO.N,/PCIE.PERN*%
X88100000Y-159200000D03*
%TO.P,U3,39,VSS*%
%TO.N,GND*%
X88500000Y-159200000D03*
%TO.P,U3,40,AVDD*%
%TO.N,+1V0_core*%
X88900000Y-159200000D03*
%TO.P,U3,41,PETP*%
%TO.N,/PCIE.PETP*%
X89300000Y-159200000D03*
%TO.P,U3,42,PETN*%
%TO.N,/PCIE.PETN*%
X89700000Y-159200000D03*
%TO.P,U3,43*%
%TO.N,N/C*%
X90100000Y-159200000D03*
%TO.P,U3,44*%
X90500000Y-159200000D03*
%TO.P,U3,45,VSS*%
%TO.N,GND*%
X90900000Y-159200000D03*
%TO.P,U3,46,AVDD*%
%TO.N,+1V0_core*%
X91300000Y-159200000D03*
%TO.P,U3,47*%
%TO.N,N/C*%
X91700000Y-159200000D03*
%TO.P,U3,48*%
X92100000Y-159200000D03*
%TO.P,U3,49,AVDD*%
%TO.N,+1V0_core*%
X92500000Y-159200000D03*
%TO.P,U3,50,VSS*%
%TO.N,GND*%
X92900000Y-159200000D03*
%TO.P,U3,51,REFCLKP*%
%TO.N,/pcie-usb-bridge/PCIE.REFCLK2P*%
X93300000Y-159200000D03*
%TO.P,U3,52,REFCLKN*%
%TO.N,/pcie-usb-bridge/PCIE.REFCLK2N*%
X93700000Y-159200000D03*
%TO.P,U3,53,VSS*%
%TO.N,GND*%
X94100000Y-159200000D03*
%TO.P,U3,54,AVDDH*%
%TO.N,+3V3_Bridge*%
X94500000Y-159200000D03*
%TO.P,U3,55*%
%TO.N,N/C*%
X94900000Y-159200000D03*
%TO.P,U3,56,REXT_GND*%
%TO.N,Net-(U3-REXT_GND)*%
X95300000Y-159200000D03*
%TO.P,U3,57,REXT*%
%TO.N,Net-(U3-REXT)*%
X95700000Y-159200000D03*
%TO.P,U3,58*%
%TO.N,N/C*%
X96100000Y-159200000D03*
%TO.P,U3,59*%
X96500000Y-159200000D03*
%TO.P,U3,60,AVDD*%
%TO.N,+1V0_core*%
X96900000Y-159200000D03*
%TO.P,U3,61,VSS*%
%TO.N,GND*%
X97300000Y-159200000D03*
%TO.P,U3,62*%
%TO.N,N/C*%
X97700000Y-159200000D03*
%TO.P,U3,63*%
X98100000Y-159200000D03*
%TO.P,U3,64,SMBDATA*%
%TO.N,Net-(U3-SMBDATA)*%
X98500000Y-159200000D03*
D37*
%TO.P,U3,65,TEST3*%
%TO.N,Net-(U3-TEST3)*%
X99970000Y-157730000D03*
%TO.P,U3,66,TEST6*%
%TO.N,Net-(U3-TEST6)*%
X99970000Y-157330000D03*
%TO.P,U3,67,VDDR*%
%TO.N,+3V3_Bridge*%
X99970000Y-156930000D03*
%TO.P,U3,68,VSS*%
%TO.N,GND*%
X99970000Y-156530000D03*
%TO.P,U3,69,GPIO[0]*%
%TO.N,unconnected-(U3-GPIO[0]-Pad69)*%
X99970000Y-156130000D03*
%TO.P,U3,70,GPIO[1]*%
%TO.N,unconnected-(U3-GPIO[1]-Pad70)*%
X99970000Y-155730000D03*
%TO.P,U3,71,GPIO[2]*%
%TO.N,unconnected-(U3-GPIO[2]-Pad71)*%
X99970000Y-155330000D03*
%TO.P,U3,72,GPIO[3]*%
%TO.N,unconnected-(U3-GPIO[3]-Pad72)*%
X99970000Y-154930000D03*
%TO.P,U3,73,GPIO[4]*%
%TO.N,unconnected-(U3-GPIO[4]-Pad73)*%
X99970000Y-154530000D03*
%TO.P,U3,74,GPIO[5]*%
%TO.N,unconnected-(U3-GPIO[5]-Pad74)*%
X99970000Y-154130000D03*
%TO.P,U3,75,GPIO[6]*%
%TO.N,unconnected-(U3-GPIO[6]-Pad75)*%
X99970000Y-153730000D03*
%TO.P,U3,76,GPIO[7]*%
%TO.N,unconnected-(U3-GPIO[7]-Pad76)*%
X99970000Y-153330000D03*
%TO.P,U3,77,TEST4*%
%TO.N,Net-(U3-TEST4)*%
X99970000Y-152930000D03*
%TO.P,U3,78*%
%TO.N,N/C*%
X99970000Y-152530000D03*
%TO.P,U3,79*%
X99970000Y-152130000D03*
%TO.P,U3,80*%
X99970000Y-151730000D03*
%TO.P,U3,81,VDDC*%
%TO.N,+1V0_core*%
X99970000Y-151330000D03*
%TO.P,U3,82,VSS*%
%TO.N,GND*%
X99970000Y-150930000D03*
%TO.P,U3,83,VDDA*%
%TO.N,+3V3_Bridge*%
X99970000Y-150530000D03*
%TO.P,U3,84,DM[4]*%
%TO.N,/pcie-usb-bridge/R_USB_4_DN*%
X99970000Y-150130000D03*
%TO.P,U3,85,DP[4]*%
%TO.N,/pcie-usb-bridge/R_USB_4_DP*%
X99970000Y-149730000D03*
%TO.P,U3,86,VSS*%
%TO.N,GND*%
X99970000Y-149330000D03*
%TO.P,U3,87,RREF[4]*%
%TO.N,Net-(U3-RREF[4])*%
X99970000Y-148930000D03*
%TO.P,U3,88*%
%TO.N,N/C*%
X99970000Y-148530000D03*
%TO.P,U3,89,VSS*%
%TO.N,GND*%
X99970000Y-148130000D03*
%TO.P,U3,90,VDDA*%
%TO.N,+3V3_Bridge*%
X99970000Y-147730000D03*
%TO.P,U3,91,VDDA*%
X99970000Y-147330000D03*
%TO.P,U3,92,DM[3]*%
%TO.N,/pcie-usb-bridge/R_USB_3_DN*%
X99970000Y-146930000D03*
%TO.P,U3,93,DP[3]*%
%TO.N,/pcie-usb-bridge/R_USB_3_DP*%
X99970000Y-146530000D03*
%TO.P,U3,94,VSS*%
%TO.N,GND*%
X99970000Y-146130000D03*
%TO.P,U3,95,RREF[3]*%
%TO.N,Net-(U3-RREF[3])*%
X99970000Y-145730000D03*
%TO.P,U3,96,VSS*%
%TO.N,GND*%
X99970000Y-145330000D03*
D38*
%TO.P,U3,97,VDDA*%
%TO.N,+3V3_Bridge*%
X98500000Y-143860000D03*
%TO.P,U3,98,EEPD*%
%TO.N,/pcie-usb-bridge/EEPD*%
X98100000Y-143860000D03*
%TO.P,U3,99,EECLK*%
%TO.N,/pcie-usb-bridge/EECLK*%
X97700000Y-143860000D03*
%TO.P,U3,100,VDDC*%
%TO.N,+1V0_core*%
X97300000Y-143860000D03*
%TO.P,U3,101,VSS*%
%TO.N,GND*%
X96900000Y-143860000D03*
%TO.P,U3,102,XI*%
%TO.N,Net-(U3-XI)*%
X96500000Y-143860000D03*
%TO.P,U3,103,XO*%
%TO.N,Net-(U3-XO)*%
X96100000Y-143860000D03*
%TO.P,U3,104,PERST_L*%
%TO.N,/pcie-usb-bridge/PERST_L*%
X95700000Y-143860000D03*
%TO.P,U3,105,VDDR*%
%TO.N,+3V3_Bridge*%
X95300000Y-143860000D03*
%TO.P,U3,106,VSS*%
%TO.N,GND*%
X94900000Y-143860000D03*
%TO.P,U3,107*%
%TO.N,N/C*%
X94500000Y-143860000D03*
%TO.P,U3,108*%
X94100000Y-143860000D03*
%TO.P,U3,109,VDDC*%
%TO.N,+1V0_core*%
X93700000Y-143860000D03*
%TO.P,U3,110,VSS*%
%TO.N,GND*%
X93300000Y-143860000D03*
%TO.P,U3,111,VDDC*%
%TO.N,+1V0_core*%
X92900000Y-143860000D03*
%TO.P,U3,112,VDDR*%
%TO.N,+3V3_Bridge*%
X92500000Y-143860000D03*
%TO.P,U3,113,PME_L*%
%TO.N,Net-(U3-PME_L)*%
X92100000Y-143860000D03*
%TO.P,U3,114,TEST5*%
%TO.N,Net-(U3-TEST5)*%
X91700000Y-143860000D03*
%TO.P,U3,115,VDDA*%
%TO.N,+3V3_Bridge*%
X91300000Y-143860000D03*
%TO.P,U3,116,DM[2]*%
%TO.N,/pcie-usb-bridge/R_USB_2_DN*%
X90900000Y-143860000D03*
%TO.P,U3,117,DP[2]*%
%TO.N,/pcie-usb-bridge/R_USB_2_DP*%
X90500000Y-143860000D03*
%TO.P,U3,118,VSS*%
%TO.N,GND*%
X90100000Y-143860000D03*
%TO.P,U3,119,RREF[2]*%
%TO.N,Net-(U3-RREF[2])*%
X89700000Y-143860000D03*
%TO.P,U3,120,VSS*%
%TO.N,GND*%
X89300000Y-143860000D03*
%TO.P,U3,121,VDDA*%
%TO.N,+3V3_Bridge*%
X88900000Y-143860000D03*
%TO.P,U3,122,VDDA*%
X88500000Y-143860000D03*
%TO.P,U3,123,DM[1]*%
%TO.N,/pcie-usb-bridge/R_USB_1_DN*%
X88100000Y-143860000D03*
%TO.P,U3,124,DP[1]*%
%TO.N,/pcie-usb-bridge/R_USB_1_DP*%
X87700000Y-143860000D03*
%TO.P,U3,125,VSS*%
%TO.N,GND*%
X87300000Y-143860000D03*
%TO.P,U3,126,RREF[1]*%
%TO.N,Net-(U3-RREF[1])*%
X86900000Y-143860000D03*
%TO.P,U3,127,VSS*%
%TO.N,GND*%
X86500000Y-143860000D03*
%TO.P,U3,128,VDDA*%
%TO.N,+3V3_Bridge*%
X86100000Y-143860000D03*
D39*
%TO.P,U3,129,VSS*%
%TO.N,GND*%
X92300000Y-151530000D03*
%TD*%
D12*
%TO.P,C65,1*%
%TO.N,GND*%
X102100000Y-151642500D03*
%TO.P,C65,2*%
%TO.N,+3V3_Bridge*%
X102100000Y-150772500D03*
%TD*%
D10*
%TO.P,D1,1,K*%
%TO.N,Net-(D1-K)*%
X93725000Y-118707500D03*
%TO.P,D1,2,A*%
%TO.N,Net-(D1-A)*%
X92075000Y-118707500D03*
%TD*%
D12*
%TO.P,R3,1*%
%TO.N,GND*%
X82700000Y-158442499D03*
%TO.P,R3,2*%
%TO.N,Net-(U3-TRST_L)*%
X82700000Y-157572501D03*
%TD*%
%TO.P,C50,1*%
%TO.N,GND*%
X94652500Y-91427500D03*
%TO.P,C50,2*%
%TO.N,Net-(U7-PAVDD)*%
X94652500Y-92297500D03*
%TD*%
D40*
%TO.P,Y1,1*%
%TO.N,Net-(U3-XO)*%
X95068109Y-139813046D03*
%TO.P,Y1,2,GND*%
%TO.N,GND*%
X96694454Y-141439391D03*
%TO.P,Y1,3*%
%TO.N,Net-(U3-XI)*%
X97931891Y-140201954D03*
%TO.P,Y1,4,GND*%
%TO.N,GND*%
X96305546Y-138575609D03*
%TD*%
D12*
%TO.P,R61,1*%
%TO.N,/pcie-usb-bridge/R_USB_1_DN*%
X88480000Y-141717500D03*
%TO.P,R61,2*%
%TO.N,/pcie-usb-bridge/USB_3_DN*%
X88480000Y-140847500D03*
%TD*%
D11*
%TO.P,R26,1*%
%TO.N,/sd-card/SCK*%
X99665000Y-126382500D03*
%TO.P,R26,2*%
%TO.N,+3V3_uSD*%
X100535000Y-126382500D03*
%TD*%
%TO.P,C24,1*%
%TO.N,GND*%
X99215001Y-118907500D03*
%TO.P,C24,2*%
%TO.N,+3V3_uSD*%
X100084999Y-118907500D03*
%TD*%
%TO.P,R23,1*%
%TO.N,+3V3_uSD*%
X99865000Y-125182500D03*
%TO.P,R23,2*%
%TO.N,/sd-card/SDA*%
X100735000Y-125182500D03*
%TD*%
D41*
%TO.P,C59,1*%
%TO.N,GND*%
X85773726Y-90933774D03*
%TO.P,C59,2*%
%TO.N,Net-(C59-Pad2)*%
X86226274Y-90481226D03*
%TD*%
D12*
%TO.P,R28,1*%
%TO.N,GND*%
X82100000Y-143642499D03*
%TO.P,R28,2*%
%TO.N,Net-(D2-K)*%
X82100000Y-142772501D03*
%TD*%
D35*
%TO.P,L3,1*%
%TO.N,Net-(C53-Pad2)*%
X97052500Y-91142500D03*
%TO.P,L3,2*%
%TO.N,Net-(U7-RF2G4_IO2)*%
X97052500Y-91782500D03*
%TD*%
D11*
%TO.P,R1,1*%
%TO.N,GND*%
X82065000Y-155407500D03*
%TO.P,R1,2*%
%TO.N,Net-(U3-TMS)*%
X82935000Y-155407500D03*
%TD*%
D12*
%TO.P,C43,1*%
%TO.N,GND*%
X95800000Y-99792499D03*
%TO.P,C43,2*%
%TO.N,+3V3_Thread*%
X95800000Y-98922501D03*
%TD*%
D42*
%TO.P,R63,1*%
%TO.N,/pcie-usb-bridge/R_USB_3_DN*%
X101213173Y-139094327D03*
%TO.P,R63,2*%
%TO.N,/pcie-usb-bridge/USB_2_DN*%
X100597991Y-138479145D03*
%TD*%
D12*
%TO.P,C51,1*%
%TO.N,GND*%
X98800000Y-91522501D03*
%TO.P,C51,2*%
%TO.N,Net-(U7-RFVDD)*%
X98800000Y-92392499D03*
%TD*%
D13*
%TO.P,J4,1*%
%TO.N,Net-(C59-Pad2)*%
X85400000Y-89045000D03*
D14*
%TO.P,J4,S1*%
%TO.N,GND*%
X86875000Y-87520000D03*
D13*
%TO.P,J4,S2*%
X85400000Y-85995000D03*
D14*
%TO.P,J4,S3*%
X83925000Y-87520000D03*
%TD*%
D12*
%TO.P,R8,1*%
%TO.N,/emmc/XTAL2*%
X92000000Y-123142500D03*
%TO.P,R8,2*%
X92000000Y-122272500D03*
%TD*%
D33*
%TO.P,U9,1,LED*%
%TO.N,Net-(D2-A)*%
X94035000Y-129482500D03*
%TO.P,U9,2,USB+*%
%TO.N,/pcie-usb-bridge/USB_2_DP*%
X94035000Y-129982500D03*
%TO.P,U9,3,USB-*%
%TO.N,/pcie-usb-bridge/USB_2_DN*%
X94035000Y-130482500D03*
%TO.P,U9,4,SD_D1*%
%TO.N,/sd-card/uSD.D1*%
X94035000Y-130982500D03*
%TO.P,U9,5,SD_D0*%
%TO.N,/sd-card/uSD.D0*%
X94035000Y-131482500D03*
%TO.P,U9,6,VDD33*%
%TO.N,+3V3_uSD*%
X94035000Y-131982500D03*
%TO.P,U9,7,SD_D7*%
%TO.N,unconnected-(U9-SD_D7-Pad7)*%
X94035000Y-132482500D03*
%TO.P,U9,8,SD_D6*%
%TO.N,unconnected-(U9-SD_D6-Pad8)*%
X94035000Y-132982500D03*
%TO.P,U9,9,SD_CLK*%
%TO.N,/sd-card/uSD.CLK*%
X94035000Y-133482500D03*
D32*
%TO.P,U9,10,SD_D5*%
%TO.N,unconnected-(U9-SD_D5-Pad10)*%
X94850000Y-134297500D03*
%TO.P,U9,11,SD_CMD*%
%TO.N,/sd-card/uSD.CMD*%
X95350000Y-134297500D03*
%TO.P,U9,12,NC*%
%TO.N,unconnected-(U9-NC-Pad12)*%
X95850000Y-134297500D03*
%TO.P,U9,13,VDD18*%
%TO.N,Net-(U9-VDD18)*%
X96350000Y-134297500D03*
%TO.P,U9,14,VDD33*%
%TO.N,+3V3_uSD*%
X96850000Y-134297500D03*
%TO.P,U9,15,NC*%
%TO.N,unconnected-(U9-NC-Pad15)*%
X97350000Y-134297500D03*
%TO.P,U9,16,NC*%
%TO.N,unconnected-(U9-NC-Pad16)*%
X97850000Y-134297500D03*
%TO.P,U9,17,NC*%
%TO.N,unconnected-(U9-NC-Pad17)*%
X98350000Y-134297500D03*
%TO.P,U9,18,~{RESET_N}*%
%TO.N,/sd-card/~{reset}*%
X98850000Y-134297500D03*
D33*
%TO.P,U9,19,NC*%
%TO.N,unconnected-(U9-NC-Pad19)*%
X99665000Y-133482500D03*
%TO.P,U9,20,SD_D4*%
%TO.N,unconnected-(U9-SD_D4-Pad20)*%
X99665000Y-132982500D03*
%TO.P,U9,21,CRD_PWR*%
%TO.N,/sd-card/CRD_PWR*%
X99665000Y-132482500D03*
%TO.P,U9,22,VDD33*%
%TO.N,+3V3_uSD*%
X99665000Y-131982500D03*
%TO.P,U9,23,SD_D3*%
%TO.N,/sd-card/uSD.D3*%
X99665000Y-131482500D03*
%TO.P,U9,24,NC*%
%TO.N,unconnected-(U9-NC-Pad24)*%
X99665000Y-130982500D03*
%TO.P,U9,25,SD_D2*%
%TO.N,/sd-card/uSD.D2*%
X99665000Y-130482500D03*
%TO.P,U9,26,SD_nCD*%
%TO.N,/sd-card/DET*%
X99665000Y-129982500D03*
%TO.P,U9,27,RXD/SDA*%
%TO.N,/sd-card/SDA*%
X99665000Y-129482500D03*
D32*
%TO.P,U9,28,TEST*%
%TO.N,GND*%
X98850000Y-128667500D03*
%TO.P,U9,29,NC*%
%TO.N,unconnected-(U9-NC-Pad29)*%
X98350000Y-128667500D03*
%TO.P,U9,30,SD_WP*%
%TO.N,Net-(U9-SD_WP)*%
X97850000Y-128667500D03*
%TO.P,U9,31,TXD/SCK*%
%TO.N,/sd-card/SCK*%
X97350000Y-128667500D03*
%TO.P,U9,32,XTAL2*%
%TO.N,/sd-card/XTAL2*%
X96850000Y-128667500D03*
%TO.P,U9,33,XTAL1(CLKIN)*%
%TO.N,/sd-card/XTAL1*%
X96350000Y-128667500D03*
%TO.P,U9,34,VDD18PLL*%
%TO.N,Net-(U9-VDD18PLL)*%
X95850000Y-128667500D03*
%TO.P,U9,35,RBIAS*%
%TO.N,Net-(U9-RBIAS)*%
X95350000Y-128667500D03*
%TO.P,U9,36,VDDA33*%
%TO.N,+3V3_uSD*%
X94850000Y-128667500D03*
D34*
%TO.P,U9,37,VSS*%
%TO.N,GND*%
X96850000Y-131482500D03*
%TD*%
D12*
%TO.P,R36,1*%
%TO.N,GND*%
X93700000Y-126447501D03*
%TO.P,R36,2*%
%TO.N,Net-(U9-RBIAS)*%
X93700000Y-127317499D03*
%TD*%
D36*
%TO.P,U4,1,SCL*%
%TO.N,/emmc/SCK*%
X96010200Y-123529100D03*
%TO.P,U4,2,VSS*%
%TO.N,GND*%
X96950000Y-123529100D03*
%TO.P,U4,3,SDA*%
%TO.N,/emmc/SDA*%
X97889800Y-123529100D03*
%TO.P,U4,4,VCC*%
%TO.N,+3V3_eMMC*%
X97889800Y-120785900D03*
%TO.P,U4,5,WP*%
%TO.N,GND*%
X96010200Y-120785900D03*
%TD*%
D12*
%TO.P,C44,1*%
%TO.N,GND*%
X93600000Y-96972501D03*
%TO.P,C44,2*%
%TO.N,+3V3_Thread*%
X93600000Y-97842499D03*
%TD*%
%TO.P,C55,1*%
%TO.N,GND*%
X82630000Y-92582501D03*
%TO.P,C55,2*%
%TO.N,+3V3_wifi*%
X82630000Y-93452499D03*
%TD*%
%TO.P,C81,1*%
%TO.N,GND*%
X92900000Y-140872501D03*
%TO.P,C81,2*%
%TO.N,+1V0_core*%
X92900000Y-141742499D03*
%TD*%
%TO.P,C63,1*%
%TO.N,GND*%
X101675000Y-156322500D03*
%TO.P,C63,2*%
%TO.N,+3V3_Bridge*%
X101675000Y-157192500D03*
%TD*%
D11*
%TO.P,C67,1*%
%TO.N,GND*%
X90365000Y-100057500D03*
%TO.P,C67,2*%
%TO.N,/wifi/XTAL2*%
X91235000Y-100057500D03*
%TD*%
%TO.P,R27,1*%
%TO.N,GND*%
X99465001Y-100807500D03*
%TO.P,R27,2*%
%TO.N,Net-(D3-K)*%
X100334999Y-100807500D03*
%TD*%
D12*
%TO.P,C80,1*%
%TO.N,/PCIE.CAP.PETN*%
X90100000Y-161735000D03*
%TO.P,C80,2*%
%TO.N,/PCIE.PETN*%
X90100000Y-160865000D03*
%TD*%
D43*
%TO.P,J5,1,DAT2*%
%TO.N,/sd-card/uSD.D2*%
X81725000Y-106532500D03*
%TO.P,J5,2,DAT3/CD*%
%TO.N,/sd-card/uSD.D3*%
X81725000Y-107632500D03*
%TO.P,J5,3,CMD*%
%TO.N,/sd-card/uSD.CMD*%
X81725000Y-108732500D03*
%TO.P,J5,4,VDD*%
%TO.N,/sd-card/CRD_PWR*%
X81725000Y-109832500D03*
%TO.P,J5,5,CLK*%
%TO.N,/sd-card/uSD.CLK*%
X81725000Y-110932500D03*
%TO.P,J5,6,VSS*%
%TO.N,GND*%
X81725000Y-112032500D03*
%TO.P,J5,7,DAT0*%
%TO.N,/sd-card/uSD.D0*%
X81725000Y-113132500D03*
%TO.P,J5,8,DAT1*%
%TO.N,/sd-card/uSD.D1*%
X81725000Y-114232500D03*
D44*
%TO.P,J5,P1,SHIELD*%
%TO.N,GND*%
X86025000Y-116132500D03*
D45*
%TO.P,J5,P2,SHIELD*%
X96375000Y-116132500D03*
D46*
%TO.P,J5,P3,SHIELD*%
X96825000Y-102632500D03*
D44*
%TO.P,J5,P4,SHIELD*%
X81725000Y-104982500D03*
D47*
%TO.P,J5,SWA,A*%
X92225000Y-116132500D03*
D43*
%TO.P,J5,SWB,B*%
%TO.N,Net-(J5-B)*%
X81725000Y-115182500D03*
%TD*%
D12*
%TO.P,C66,1*%
%TO.N,GND*%
X93900000Y-161742499D03*
%TO.P,C66,2*%
%TO.N,+3V3_Bridge*%
X93900000Y-160872501D03*
%TD*%
%TO.P,C76,1*%
%TO.N,GND*%
X86200000Y-92472501D03*
%TO.P,C76,2*%
%TO.N,+3V3_wifi*%
X86200000Y-93342499D03*
%TD*%
%TO.P,R51,1*%
%TO.N,GND*%
X102100000Y-152772501D03*
%TO.P,R51,2*%
%TO.N,Net-(U3-TEST4)*%
X102100000Y-153642499D03*
%TD*%
D48*
%TO.P,C60,1*%
%TO.N,GND*%
X88420000Y-93007500D03*
%TO.P,C60,2*%
%TO.N,Net-(U1-RF_INOUT)*%
X87780000Y-93007500D03*
%TD*%
D49*
%TO.P,C1,1*%
%TO.N,GND*%
X94292409Y-141099909D03*
%TO.P,C1,2*%
%TO.N,Net-(U3-XO)*%
X94907591Y-141715091D03*
%TD*%
D10*
%TO.P,D4,1,K*%
%TO.N,Net-(D4-K)*%
X83850000Y-100707500D03*
%TO.P,D4,2,A*%
%TO.N,Net-(D4-A)*%
X82200000Y-100707500D03*
%TD*%
D11*
%TO.P,C10,1*%
%TO.N,GND*%
X94034999Y-124507500D03*
%TO.P,C10,2*%
%TO.N,/emmc/XTAL2*%
X93165001Y-124507500D03*
%TD*%
D30*
%TO.P,Y2,1,IN/OUT*%
%TO.N,/emmc/XTAL2*%
X93275000Y-123282500D03*
%TO.P,Y2,2,GND*%
%TO.N,GND*%
X94325000Y-123282500D03*
%TO.P,Y2,3,OUT/IN*%
%TO.N,unconnected-(Y2-OUT{slash}IN-Pad3)*%
X94325000Y-122532500D03*
%TO.P,Y2,4,GND__1*%
%TO.N,GND*%
X93275000Y-122532500D03*
%TD*%
D12*
%TO.P,C52,1*%
%TO.N,GND*%
X95852500Y-91427500D03*
%TO.P,C52,2*%
%TO.N,Net-(U7-PAVDD)*%
X95852500Y-92297500D03*
%TD*%
D50*
%TO.P,L1,1*%
%TO.N,Net-(U7-RFVDD)*%
X99980000Y-90507500D03*
%TO.P,L1,2*%
%TO.N,+3V3_Thread*%
X100620000Y-90507500D03*
%TD*%
D12*
%TO.P,C45,1*%
%TO.N,GND*%
X97000000Y-99792499D03*
%TO.P,C45,2*%
%TO.N,+3V3_Thread*%
X97000000Y-98922501D03*
%TD*%
%TO.P,R48,1*%
%TO.N,GND*%
X84400000Y-143165000D03*
%TO.P,R48,2*%
%TO.N,Net-(U3-RREF[1])*%
X84400000Y-144035000D03*
%TD*%
D11*
%TO.P,R7,1*%
%TO.N,GND*%
X93034999Y-120007500D03*
%TO.P,R7,2*%
%TO.N,Net-(U8-RBIAS)*%
X92165001Y-120007500D03*
%TD*%
D12*
%TO.P,R73,1*%
%TO.N,Net-(U5-VBUS)*%
X95950000Y-87842499D03*
%TO.P,R73,2*%
%TO.N,+3V3_Thread*%
X95950000Y-86972501D03*
%TD*%
D11*
%TO.P,C41,1*%
%TO.N,GND*%
X89415001Y-93507500D03*
%TO.P,C41,2*%
%TO.N,+3V3_Thread*%
X90284999Y-93507500D03*
%TD*%
D48*
%TO.P,C54,1*%
%TO.N,GND*%
X97672500Y-92562500D03*
%TO.P,C54,2*%
%TO.N,Net-(U7-RF2G4_IO2)*%
X97032500Y-92562500D03*
%TD*%
D12*
%TO.P,R70,1*%
%TO.N,GND*%
X82700000Y-159572500D03*
%TO.P,R70,2*%
%TO.N,Net-(J1-CONFIG_2)*%
X82700000Y-160442500D03*
%TD*%
D31*
%TO.P,Y4,1*%
%TO.N,/thread-or-zigbee/XTAL1*%
X102125000Y-95557500D03*
%TO.P,Y4,2,GND*%
%TO.N,GND*%
X102125000Y-93257500D03*
%TO.P,Y4,3*%
%TO.N,/thread-or-zigbee/XTAL2*%
X100375000Y-93257500D03*
%TO.P,Y4,4,GND*%
%TO.N,GND*%
X100375000Y-95557500D03*
%TD*%
D11*
%TO.P,R44,1*%
%TO.N,Net-(U3-REXT_GND)*%
X95065001Y-160907500D03*
%TO.P,R44,2*%
%TO.N,Net-(U3-REXT)*%
X95934999Y-160907500D03*
%TD*%
D12*
%TO.P,R30,1*%
%TO.N,GND*%
X95350000Y-90242499D03*
%TO.P,R30,2*%
%TO.N,Net-(U5-VBUS)*%
X95350000Y-89372501D03*
%TD*%
D42*
%TO.P,R59,1*%
%TO.N,/pcie-usb-bridge/R_USB_3_DP*%
X100400000Y-139907500D03*
%TO.P,R59,2*%
%TO.N,/pcie-usb-bridge/USB_2_DP*%
X99784818Y-139292318D03*
%TD*%
D11*
%TO.P,R64,1*%
%TO.N,/pcie-usb-bridge/R_USB_4_DN*%
X100830000Y-116467500D03*
%TO.P,R64,2*%
%TO.N,/emmc/USB_1_DN*%
X99960000Y-116467500D03*
%TD*%
%TO.P,R60,1*%
%TO.N,/pcie-usb-bridge/R_USB_4_DP*%
X100835000Y-117607500D03*
%TO.P,R60,2*%
%TO.N,/emmc/USB_1_DP*%
X99965000Y-117607500D03*
%TD*%
D51*
%TO.P,U2,A1*%
%TO.N,N/C*%
X83767500Y-130137500D03*
%TO.P,U2,A2*%
X84267500Y-130137500D03*
%TO.P,U2,A3,DAT0*%
%TO.N,Net-(U2-DAT0)*%
X84767500Y-130137500D03*
%TO.P,U2,A4,DAT1*%
%TO.N,Net-(U2-DAT1)*%
X85267500Y-130137500D03*
%TO.P,U2,A5,DAT2*%
%TO.N,Net-(U2-DAT2)*%
X85767500Y-130137500D03*
%TO.P,U2,A6,VSS_A6*%
%TO.N,GND*%
X86267500Y-130137500D03*
%TO.P,U2,A7*%
%TO.N,N/C*%
X86767500Y-130137500D03*
%TO.P,U2,A8*%
X87267500Y-130137500D03*
%TO.P,U2,A9*%
X87767500Y-130137500D03*
%TO.P,U2,A10*%
X88267500Y-130137500D03*
%TO.P,U2,A11*%
X88767500Y-130137500D03*
%TO.P,U2,A12*%
X89267500Y-130137500D03*
%TO.P,U2,A13*%
X89767500Y-130137500D03*
%TO.P,U2,A14*%
X90267500Y-130137500D03*
%TO.P,U2,B1*%
X83767500Y-130637500D03*
%TO.P,U2,B2,DAT3*%
%TO.N,Net-(U2-DAT3)*%
X84267500Y-130637500D03*
%TO.P,U2,B3,DAT4*%
%TO.N,Net-(U2-DAT4)*%
X84767500Y-130637500D03*
%TO.P,U2,B4,DAT5*%
%TO.N,Net-(U2-DAT5)*%
X85267500Y-130637500D03*
%TO.P,U2,B5,DAT6*%
%TO.N,Net-(U2-DAT6)*%
X85767500Y-130637500D03*
%TO.P,U2,B6,DAT7*%
%TO.N,Net-(U2-DAT7)*%
X86267500Y-130637500D03*
%TO.P,U2,B7*%
%TO.N,N/C*%
X86767500Y-130637500D03*
%TO.P,U2,B8*%
X87267500Y-130637500D03*
%TO.P,U2,B9*%
X87767500Y-130637500D03*
%TO.P,U2,B10*%
X88267500Y-130637500D03*
%TO.P,U2,B11*%
X88767500Y-130637500D03*
%TO.P,U2,B12*%
X89267500Y-130637500D03*
%TO.P,U2,B13*%
X89767500Y-130637500D03*
%TO.P,U2,B14*%
X90267500Y-130637500D03*
%TO.P,U2,C1*%
X83767500Y-131137500D03*
%TO.P,U2,C2,VDDI*%
%TO.N,Net-(U2-VDDI)*%
X84267500Y-131137500D03*
%TO.P,U2,C3*%
%TO.N,N/C*%
X84767500Y-131137500D03*
%TO.P,U2,C4,VSSQ_C4*%
%TO.N,GND*%
X85267500Y-131137500D03*
%TO.P,U2,C5*%
%TO.N,N/C*%
X85767500Y-131137500D03*
%TO.P,U2,C6,VCCQ_C6*%
%TO.N,+3V3_eMMC*%
X86267500Y-131137500D03*
%TO.P,U2,C7*%
%TO.N,N/C*%
X86767500Y-131137500D03*
%TO.P,U2,C8*%
X87267500Y-131137500D03*
%TO.P,U2,C9*%
X87767500Y-131137500D03*
%TO.P,U2,C10*%
X88267500Y-131137500D03*
%TO.P,U2,C11*%
X88767500Y-131137500D03*
%TO.P,U2,C12*%
X89267500Y-131137500D03*
%TO.P,U2,C13*%
X89767500Y-131137500D03*
%TO.P,U2,C14*%
X90267500Y-131137500D03*
%TO.P,U2,D1*%
X83767500Y-131637500D03*
%TO.P,U2,D2*%
X84267500Y-131637500D03*
%TO.P,U2,D3*%
X84767500Y-131637500D03*
%TO.P,U2,D4*%
X85267500Y-131637500D03*
%TO.P,U2,D12*%
X89267500Y-131637500D03*
%TO.P,U2,D13*%
X89767500Y-131637500D03*
%TO.P,U2,D14*%
X90267500Y-131637500D03*
%TO.P,U2,E1*%
X83767500Y-132137500D03*
%TO.P,U2,E2*%
X84267500Y-132137500D03*
%TO.P,U2,E3*%
X84767500Y-132137500D03*
%TO.P,U2,E5*%
X85767500Y-132137500D03*
%TO.P,U2,E6,VCC_E6*%
%TO.N,+3V3_eMMC*%
X86267500Y-132137500D03*
%TO.P,U2,E7,VSS_E7*%
%TO.N,GND*%
X86767500Y-132137500D03*
%TO.P,U2,E8,VSF0*%
%TO.N,unconnected-(U2-VSF0-PadE8)*%
X87267500Y-132137500D03*
%TO.P,U2,E9,VSF1*%
%TO.N,unconnected-(U2-VSF1-PadE9)*%
X87767500Y-132137500D03*
%TO.P,U2,E10,VSF2*%
%TO.N,unconnected-(U2-VSF2-PadE10)*%
X88267500Y-132137500D03*
%TO.P,U2,E12*%
%TO.N,N/C*%
X89267500Y-132137500D03*
%TO.P,U2,E13*%
X89767500Y-132137500D03*
%TO.P,U2,E14*%
X90267500Y-132137500D03*
%TO.P,U2,F1*%
X83767500Y-132637500D03*
%TO.P,U2,F2*%
X84267500Y-132637500D03*
%TO.P,U2,F3*%
X84767500Y-132637500D03*
%TO.P,U2,F5,VCC_F5*%
%TO.N,+3V3_eMMC*%
X85767500Y-132637500D03*
%TO.P,U2,F10,VSF3*%
%TO.N,unconnected-(U2-VSF3-PadF10)*%
X88267500Y-132637500D03*
%TO.P,U2,F12*%
%TO.N,N/C*%
X89267500Y-132637500D03*
%TO.P,U2,F13*%
X89767500Y-132637500D03*
%TO.P,U2,F14*%
X90267500Y-132637500D03*
%TO.P,U2,G1*%
X83767500Y-133137500D03*
%TO.P,U2,G2*%
X84267500Y-133137500D03*
%TO.P,U2,G3*%
X84767500Y-133137500D03*
%TO.P,U2,G5,VSS_G5*%
%TO.N,GND*%
X85767500Y-133137500D03*
%TO.P,U2,G10*%
%TO.N,N/C*%
X88267500Y-133137500D03*
%TO.P,U2,G12*%
X89267500Y-133137500D03*
%TO.P,U2,G13*%
X89767500Y-133137500D03*
%TO.P,U2,G14*%
X90267500Y-133137500D03*
%TO.P,U2,H1*%
X83767500Y-133637500D03*
%TO.P,U2,H2*%
X84267500Y-133637500D03*
%TO.P,U2,H3*%
X84767500Y-133637500D03*
%TO.P,U2,H5,RCLK*%
%TO.N,unconnected-(U2-RCLK-PadH5)*%
X85767500Y-133637500D03*
%TO.P,U2,H10,VSS_H10*%
%TO.N,GND*%
X88267500Y-133637500D03*
%TO.P,U2,H12*%
%TO.N,N/C*%
X89267500Y-133637500D03*
%TO.P,U2,H13*%
X89767500Y-133637500D03*
%TO.P,U2,H14*%
X90267500Y-133637500D03*
%TO.P,U2,J1*%
X83767500Y-134137500D03*
%TO.P,U2,J2*%
X84267500Y-134137500D03*
%TO.P,U2,J3*%
X84767500Y-134137500D03*
%TO.P,U2,J5,VSS_J5*%
%TO.N,GND*%
X85767500Y-134137500D03*
%TO.P,U2,J10,VCC_J10*%
%TO.N,+3V3_eMMC*%
X88267500Y-134137500D03*
%TO.P,U2,J12*%
%TO.N,N/C*%
X89267500Y-134137500D03*
%TO.P,U2,J13*%
X89767500Y-134137500D03*
%TO.P,U2,J14*%
X90267500Y-134137500D03*
%TO.P,U2,K1*%
X83767500Y-134637500D03*
%TO.P,U2,K2*%
X84267500Y-134637500D03*
%TO.P,U2,K3*%
X84767500Y-134637500D03*
%TO.P,U2,K5,RST_N*%
%TO.N,Net-(U2-RST_N)*%
X85767500Y-134637500D03*
%TO.P,U2,K6*%
%TO.N,N/C*%
X86267500Y-134637500D03*
%TO.P,U2,K7*%
X86767500Y-134637500D03*
%TO.P,U2,K8,VSS_K8*%
%TO.N,GND*%
X87267500Y-134637500D03*
%TO.P,U2,K9,VCC_K9*%
%TO.N,+3V3_eMMC*%
X87767500Y-134637500D03*
%TO.P,U2,K10,VSF4*%
%TO.N,unconnected-(U2-VSF4-PadK10)*%
X88267500Y-134637500D03*
%TO.P,U2,K12*%
%TO.N,N/C*%
X89267500Y-134637500D03*
%TO.P,U2,K13*%
X89767500Y-134637500D03*
%TO.P,U2,K14*%
X90267500Y-134637500D03*
%TO.P,U2,L1*%
X83767500Y-135137500D03*
%TO.P,U2,L2*%
X84267500Y-135137500D03*
%TO.P,U2,L3*%
X84767500Y-135137500D03*
%TO.P,U2,L12*%
X89267500Y-135137500D03*
%TO.P,U2,L13*%
X89767500Y-135137500D03*
%TO.P,U2,L14*%
X90267500Y-135137500D03*
%TO.P,U2,M1*%
X83767500Y-135637500D03*
%TO.P,U2,M2*%
X84267500Y-135637500D03*
%TO.P,U2,M3*%
X84767500Y-135637500D03*
%TO.P,U2,M4,VCCQ_M4*%
%TO.N,+3V3_eMMC*%
X85267500Y-135637500D03*
%TO.P,U2,M5,CMD*%
%TO.N,Net-(U2-CMD)*%
X85767500Y-135637500D03*
%TO.P,U2,M6,CLK*%
%TO.N,Net-(U2-CLK)*%
X86267500Y-135637500D03*
%TO.P,U2,M7*%
%TO.N,N/C*%
X86767500Y-135637500D03*
%TO.P,U2,M8*%
X87267500Y-135637500D03*
%TO.P,U2,M9*%
X87767500Y-135637500D03*
%TO.P,U2,M10*%
X88267500Y-135637500D03*
%TO.P,U2,M11*%
X88767500Y-135637500D03*
%TO.P,U2,M12*%
X89267500Y-135637500D03*
%TO.P,U2,M13*%
X89767500Y-135637500D03*
%TO.P,U2,M14*%
X90267500Y-135637500D03*
%TO.P,U2,N1*%
X83767500Y-136137500D03*
%TO.P,U2,N2,VSSQ_N2*%
%TO.N,GND*%
X84267500Y-136137500D03*
%TO.P,U2,N3*%
%TO.N,N/C*%
X84767500Y-136137500D03*
%TO.P,U2,N4,VCCQ_N4*%
%TO.N,+3V3_eMMC*%
X85267500Y-136137500D03*
%TO.P,U2,N5,VSSQ_N5*%
%TO.N,GND*%
X85767500Y-136137500D03*
%TO.P,U2,N6*%
%TO.N,N/C*%
X86267500Y-136137500D03*
%TO.P,U2,N7*%
X86767500Y-136137500D03*
%TO.P,U2,N8*%
X87267500Y-136137500D03*
%TO.P,U2,N9*%
X87767500Y-136137500D03*
%TO.P,U2,N10*%
X88267500Y-136137500D03*
%TO.P,U2,N11*%
X88767500Y-136137500D03*
%TO.P,U2,N12*%
X89267500Y-136137500D03*
%TO.P,U2,N13*%
X89767500Y-136137500D03*
%TO.P,U2,N14*%
X90267500Y-136137500D03*
%TO.P,U2,P1*%
X83767500Y-136637500D03*
%TO.P,U2,P2*%
X84267500Y-136637500D03*
%TO.P,U2,P3,VCCQ_P3*%
%TO.N,+3V3_eMMC*%
X84767500Y-136637500D03*
%TO.P,U2,P4,VSSQ_P4*%
%TO.N,GND*%
X85267500Y-136637500D03*
%TO.P,U2,P5,VCCQ_P5*%
%TO.N,+3V3_eMMC*%
X85767500Y-136637500D03*
%TO.P,U2,P6,VSSQ_P6*%
%TO.N,GND*%
X86267500Y-136637500D03*
%TO.P,U2,P7*%
%TO.N,N/C*%
X86767500Y-136637500D03*
%TO.P,U2,P8*%
X87267500Y-136637500D03*
%TO.P,U2,P9*%
X87767500Y-136637500D03*
%TO.P,U2,P10*%
X88267500Y-136637500D03*
%TO.P,U2,P11*%
X88767500Y-136637500D03*
%TO.P,U2,P12*%
X89267500Y-136637500D03*
%TO.P,U2,P13*%
X89767500Y-136637500D03*
%TO.P,U2,P14*%
X90267500Y-136637500D03*
%TD*%
D12*
%TO.P,R58,1*%
%TO.N,/pcie-usb-bridge/R_USB_2_DP*%
X90120000Y-141717500D03*
%TO.P,R58,2*%
%TO.N,/pcie-usb-bridge/USB_4_DP*%
X90120000Y-140847500D03*
%TD*%
D11*
%TO.P,C33,1*%
%TO.N,GND*%
X95050000Y-135722500D03*
%TO.P,C33,2*%
%TO.N,Net-(U9-VDD18)*%
X95920000Y-135722500D03*
%TD*%
D50*
%TO.P,C53,1*%
%TO.N,GND*%
X96432500Y-90362500D03*
%TO.P,C53,2*%
%TO.N,Net-(C53-Pad2)*%
X97072500Y-90362500D03*
%TD*%
D12*
%TO.P,C79,1*%
%TO.N,/PCIE.CAP.PETP*%
X88900000Y-161735000D03*
%TO.P,C79,2*%
%TO.N,/PCIE.PETP*%
X88900000Y-160865000D03*
%TD*%
D52*
%TO.N,Net-(U2-VDDI)*%
X83800000Y-131000000D03*
%TO.N,+3V3_eMMC*%
X86762500Y-131137500D03*
X86400000Y-132665001D03*
%TO.N,GND*%
X87200000Y-132700000D03*
%TO.N,Net-(U2-RST_N)*%
X90700000Y-134100000D03*
%TO.N,GND*%
X84200000Y-142200000D03*
%TO.N,+3V3_Bridge*%
X85500000Y-143900000D03*
%TO.N,GND*%
X85267500Y-137207500D03*
X92300000Y-90607500D03*
X93100000Y-162500000D03*
X97700000Y-163100000D03*
X94300000Y-123307500D03*
X97200000Y-96107500D03*
X93300000Y-163100000D03*
X91500000Y-90607500D03*
X95900000Y-131207500D03*
X82100000Y-143607500D03*
X94500000Y-120472501D03*
X98400000Y-148072501D03*
X86980000Y-137327500D03*
X96950000Y-123529100D03*
X91975052Y-96207500D03*
X102200000Y-93207500D03*
X85300000Y-159407500D03*
X89500000Y-92457500D03*
X90300000Y-162700000D03*
X84000000Y-163000000D03*
X84150000Y-103807500D03*
X90430000Y-111200000D03*
X89150000Y-107057500D03*
X99450000Y-100807500D03*
X88720000Y-133637500D03*
X85000000Y-92807500D03*
X93200000Y-150307500D03*
X98500000Y-126017500D03*
X83800000Y-92807500D03*
X87300000Y-122607500D03*
X86440000Y-134097500D03*
X86250000Y-109707500D03*
X96700000Y-145807500D03*
X92300000Y-156300000D03*
X99760200Y-120785900D03*
X94600000Y-156300000D03*
X95850000Y-91457500D03*
X85700000Y-91007500D03*
X94200000Y-116107500D03*
X95900000Y-157000000D03*
X92900000Y-114007500D03*
X91500000Y-91407500D03*
X83400000Y-157800000D03*
X100300000Y-95607500D03*
X83277500Y-149730000D03*
X91100000Y-125607500D03*
X92900000Y-160907500D03*
X98200002Y-99792499D03*
X93800000Y-153407500D03*
X96300000Y-116107500D03*
X89415001Y-93507498D03*
X86000000Y-156100000D03*
X83300000Y-148707500D03*
X85800000Y-96607500D03*
X98450000Y-130017499D03*
X83700000Y-98807500D03*
X83300000Y-153407500D03*
X94800000Y-163100000D03*
X93765003Y-99007500D03*
X97155000Y-125897500D03*
X91100000Y-149007500D03*
X97920000Y-135722500D03*
X94300000Y-141107500D03*
X98600000Y-139007500D03*
X84550000Y-103407500D03*
X95400000Y-131907500D03*
X95350000Y-90257500D03*
X99300000Y-163100000D03*
X99000000Y-141407500D03*
X88100000Y-123407500D03*
X97672500Y-92562500D03*
X89800000Y-142607500D03*
X98400000Y-132007500D03*
X85300000Y-161800000D03*
X94200000Y-142507500D03*
X84000000Y-162300000D03*
X83800000Y-136607500D03*
X97265001Y-118557500D03*
X92890000Y-111280000D03*
X88400000Y-90667500D03*
X94200000Y-157300000D03*
X90225000Y-98507500D03*
X92300000Y-91407500D03*
X85300000Y-131800000D03*
X93250000Y-108757500D03*
X93300000Y-134807500D03*
X93599998Y-96972500D03*
X98700000Y-150707500D03*
X94650000Y-91457500D03*
X92900000Y-140907500D03*
X86300000Y-113857500D03*
X96700000Y-141407500D03*
X89065000Y-146107500D03*
X88100000Y-149607500D03*
X86000000Y-114707500D03*
X86900000Y-142507500D03*
X83500000Y-159600000D03*
X96432500Y-90362500D03*
X91200000Y-107357500D03*
X95050000Y-135722500D03*
X96400000Y-96107500D03*
X91900000Y-147272501D03*
X96105000Y-125147500D03*
X82630000Y-92582501D03*
X85700000Y-99707500D03*
X86400000Y-133542500D03*
X101000000Y-91507500D03*
X87200000Y-163100000D03*
X100000000Y-137607500D03*
X90950000Y-108707500D03*
X93200000Y-128907500D03*
X83300000Y-138907500D03*
X83000000Y-95307500D03*
X87000000Y-161300000D03*
X86700000Y-129407500D03*
X99800000Y-128507500D03*
X94000000Y-126447501D03*
X81700000Y-139707500D03*
X88100000Y-122607500D03*
X87534999Y-157900000D03*
X95800000Y-99807500D03*
X90800000Y-158007500D03*
X87550000Y-133652500D03*
X93300000Y-122507500D03*
X97000000Y-99792501D03*
X94900000Y-147907500D03*
X86050000Y-111757500D03*
X89850000Y-107907500D03*
X88900000Y-113907500D03*
X96300000Y-138607500D03*
X97200000Y-95307500D03*
X82340000Y-96377500D03*
X88420000Y-93007500D03*
X96400000Y-95307500D03*
X87300000Y-123407500D03*
X86200000Y-92407500D03*
X94700000Y-145107500D03*
X93500000Y-145607500D03*
X89350000Y-90357506D03*
X86300000Y-99707500D03*
X88700000Y-162700000D03*
X100800000Y-163100000D03*
%TO.N,+3V3_eMMC*%
X91100000Y-138407500D03*
X87700000Y-117307500D03*
X90300000Y-125507500D03*
X85400000Y-117267500D03*
X87200000Y-126907500D03*
X90434999Y-117707500D03*
X97500000Y-121472501D03*
X98134999Y-118557500D03*
X91125000Y-137907500D03*
X84400000Y-137207500D03*
X86600000Y-117307500D03*
X90600000Y-120307500D03*
X91100000Y-137407500D03*
X84300000Y-117267500D03*
X86100000Y-137207500D03*
X83820000Y-123267500D03*
%TO.N,Net-(U8-VDD18)*%
X84200000Y-122462750D03*
%TO.N,+3V3_uSD*%
X99400000Y-136307500D03*
X100084999Y-118907500D03*
X84015001Y-106907500D03*
X99375000Y-136807500D03*
X84000000Y-112557500D03*
X97050000Y-135722500D03*
X84015001Y-108207500D03*
X100400000Y-127307500D03*
X100500000Y-131982500D03*
X92650000Y-132982500D03*
X94100000Y-128572501D03*
X84000000Y-110907500D03*
%TO.N,/sd-card/~{reset}*%
X99185000Y-134322500D03*
%TO.N,Net-(U9-VDD18)*%
X95950000Y-135557500D03*
%TO.N,Net-(U9-VDD18PLL)*%
X95400000Y-127307500D03*
%TO.N,/sd-card/DET*%
X98100000Y-137007500D03*
%TO.N,/sd-card/CRD_PWR*%
X100650000Y-132907500D03*
X98900000Y-113307500D03*
X91500000Y-105907500D03*
X98900000Y-113807500D03*
X86315001Y-107057500D03*
X85415001Y-109707500D03*
%TO.N,+3V3_Thread*%
X97500000Y-100757500D03*
X95600000Y-100757500D03*
X90284976Y-93507546D03*
X96900000Y-100757500D03*
X96200000Y-100757500D03*
X95950000Y-86207500D03*
X101300000Y-90507500D03*
%TO.N,+3V3_wifi*%
X85500000Y-101107500D03*
X86100000Y-100407500D03*
X88950000Y-99022503D03*
X85500000Y-100407500D03*
X83100000Y-98107500D03*
X86100000Y-101107500D03*
%TO.N,+3V3_Bridge*%
X94900000Y-157900000D03*
X97900000Y-161007500D03*
X86100000Y-149000000D03*
X98700000Y-147207500D03*
X88300000Y-145107500D03*
X98400000Y-160507500D03*
X97565001Y-158000000D03*
X85400000Y-158607500D03*
X92300000Y-145107500D03*
X95300000Y-146107500D03*
X91065000Y-146107500D03*
X97900000Y-160507500D03*
X90400000Y-154807500D03*
X99200000Y-143807500D03*
X98375000Y-161007500D03*
X89600000Y-154807500D03*
X91200000Y-154807500D03*
%TO.N,+1V0_core*%
X97300000Y-146407500D03*
X91600000Y-158007500D03*
X86665001Y-157900000D03*
X94900000Y-147072501D03*
X95900000Y-157842499D03*
X97400000Y-150507500D03*
X89100000Y-158007500D03*
X93500000Y-147082500D03*
X92300000Y-158007500D03*
%TO.N,Net-(D2-A)*%
X86000000Y-140607500D03*
X91100000Y-136307500D03*
%TO.N,Net-(D4-A)*%
X83900000Y-99607500D03*
%TO.N,+3V3*%
X83100000Y-163200000D03*
X92900000Y-138507500D03*
X89950000Y-101107500D03*
X92925000Y-138007500D03*
X100500000Y-160407500D03*
X90550000Y-101107500D03*
X91800000Y-101107500D03*
X91200000Y-101107500D03*
X101000000Y-136107500D03*
X101025000Y-136607500D03*
X100800000Y-161600000D03*
X100400000Y-162107500D03*
X101000000Y-137107500D03*
X99700000Y-160407500D03*
X100100000Y-162700000D03*
X98500000Y-163000000D03*
X100025000Y-161007500D03*
X92900000Y-137507500D03*
X89300000Y-101107500D03*
X83100000Y-162600000D03*
X88700000Y-101107500D03*
%TO.N,/pcie-usb-bridge/PERST_L*%
X96000000Y-146807500D03*
%TO.N,Net-(U8-SD_WP)*%
X91600000Y-124307500D03*
%TO.N,/emmc/SCK*%
X97550000Y-119422501D03*
%TO.N,/emmc/SDA*%
X90300000Y-126307500D03*
X97500000Y-122342499D03*
X91150000Y-126957500D03*
%TO.N,Net-(U2-DAT0)*%
X88000000Y-118042500D03*
X91300000Y-128607500D03*
%TO.N,Net-(U2-DAT1)*%
X91300000Y-129507500D03*
X89565001Y-117707500D03*
%TO.N,Net-(U2-DAT2)*%
X89065001Y-127007500D03*
X87500000Y-129107500D03*
%TO.N,Net-(U2-DAT3)*%
X87900000Y-127042499D03*
%TO.N,Net-(U2-DAT4)*%
X83900000Y-124107500D03*
X83900000Y-128507500D03*
%TO.N,Net-(U2-DAT5)*%
X83800000Y-120742499D03*
X83200000Y-130400000D03*
%TO.N,Net-(U2-DAT6)*%
X85400000Y-118107500D03*
X89700000Y-128707500D03*
%TO.N,Net-(U2-DAT7)*%
X86500000Y-118107500D03*
X89000000Y-129107500D03*
%TO.N,Net-(U2-CLK)*%
X84300000Y-118137500D03*
X83400000Y-134507500D03*
%TO.N,/sd-card/uSD.D1*%
X84834999Y-114307500D03*
X92650000Y-131032500D03*
%TO.N,/sd-card/uSD.CLK*%
X93200000Y-133982500D03*
X84884999Y-110907500D03*
%TO.N,/sd-card/uSD.CMD*%
X94100000Y-134507500D03*
X84884999Y-108357500D03*
%TO.N,/sd-card/uSD.D0*%
X84884999Y-112557500D03*
X92650000Y-131982500D03*
%TO.N,Net-(U5-RSTB)*%
X92450000Y-93457500D03*
%TO.N,Net-(U5-VBUS)*%
X91650000Y-93507500D03*
X95700000Y-88757500D03*
%TO.N,/sd-card/uSD.D3*%
X100625000Y-131082500D03*
X84884999Y-106907500D03*
%TO.N,/sd-card/uSD.D2*%
X100650000Y-130282500D03*
X84934999Y-105507500D03*
%TO.N,Net-(U9-SD_WP)*%
X98700000Y-127482500D03*
%TO.N,/thread-or-zigbee/RESET*%
X98900000Y-93657500D03*
X98900000Y-97807500D03*
%TO.N,Net-(U1-CHIP_EN)*%
X85800000Y-94107500D03*
%TO.N,Net-(U3-RREF[4])*%
X98400000Y-148942499D03*
%TO.N,Net-(U3-RREF[3])*%
X98100000Y-146407500D03*
%TO.N,Net-(U3-RREF[2])*%
X89935000Y-146107500D03*
%TO.N,Net-(U3-TEST5)*%
X91935000Y-146107500D03*
%TO.N,Net-(U3-TEST3)*%
X99000000Y-158100000D03*
%TO.N,Net-(U3-TEST6)*%
X98434999Y-157500000D03*
%TO.N,/pcie-usb-bridge/EEPD*%
X100000000Y-143807500D03*
%TO.N,/pcie-usb-bridge/EECLK*%
X97875000Y-145457500D03*
%TO.N,Net-(U2-RST_N)*%
X88500000Y-127600000D03*
%TO.N,Net-(U3-IO_HIT_I)*%
X85800000Y-145600000D03*
%TO.N,Net-(U3-LEG_EMU_EN)*%
X86000000Y-153007500D03*
%TO.N,Net-(U3-PME_L)*%
X92200000Y-142307500D03*
%TO.N,Net-(U3-IRQ12_O)*%
X82000000Y-150757500D03*
%TO.N,Net-(U3-IRQ12_I)*%
X86000000Y-152007500D03*
%TO.N,Net-(U3-SMBDATA)*%
X99600000Y-158707500D03*
%TO.N,Net-(U3-SCAN_EN)*%
X86500000Y-150507500D03*
%TO.N,Net-(U3-SMBCLK)*%
X86900000Y-153907500D03*
%TO.N,Net-(U3-IRQ1_I)*%
X87250000Y-151007500D03*
%TO.N,Net-(U3-TDI)*%
X82250000Y-156507500D03*
%TO.N,Net-(U3-SMI_O)*%
X86000000Y-149707500D03*
%TO.N,Net-(U3-TDO)*%
X82250000Y-154257500D03*
%TO.N,Net-(U3-IRQ1_O)*%
X83000000Y-151257500D03*
%TO.N,Net-(U3-TCK)*%
X85900000Y-154907500D03*
%TO.N,/thread-or-zigbee/UART_TX*%
X93300000Y-96057500D03*
X93950000Y-89357500D03*
%TO.N,/thread-or-zigbee/UART_RX*%
X94000000Y-95607500D03*
X94400000Y-90257500D03*
%TO.N,/thread-or-zigbee/SWDIO*%
X92600006Y-95007500D03*
%TO.N,/thread-or-zigbee/SWCLK*%
X92885218Y-94149799D03*
%TO.N,Net-(J5-B)*%
X84550000Y-115457500D03*
%TO.N,/pcie-usb-bridge/USB_3_DP*%
X88400000Y-91307500D03*
%TO.N,/pcie-usb-bridge/USB_4_DP*%
X83100000Y-96507500D03*
%TO.N,/pcie-usb-bridge/USB_3_DN*%
X88400000Y-92107500D03*
%TO.N,/pcie-usb-bridge/USB_4_DN*%
X83100000Y-97307500D03*
%TO.N,/PCIE.REFCLKN*%
X85300000Y-160107501D03*
%TO.N,/PCIE.REFCLKP*%
X85300000Y-160907500D03*
%TO.N,/PCIE.PERP*%
X87257157Y-160494657D03*
X92100000Y-160507499D03*
%TO.N,/PCIE.PERN*%
X92100000Y-161307500D03*
X87822843Y-161060343D03*
%TO.N,/pcie-usb-bridge/PCIE.REFCLK2N*%
X93900000Y-156300000D03*
%TO.N,/pcie-usb-bridge/PCIE.REFCLK2P*%
X93100000Y-156300000D03*
%TO.N,+3V3_eMMC*%
X88200000Y-134522500D03*
%TO.N,Net-(U2-DAT3)*%
X83900000Y-129407500D03*
%TD*%
D53*
%TO.N,Net-(U2-RST_N)*%
X88500000Y-127600000D02*
X88200000Y-127900000D01*
X88200000Y-127900000D02*
X87100000Y-127900000D01*
X87100000Y-127900000D02*
X86900000Y-127700000D01*
D54*
X86900000Y-127700000D02*
X86500000Y-127300000D01*
X86500000Y-126800000D02*
X86737500Y-126562500D01*
X86500000Y-127300000D02*
X86500000Y-126800000D01*
X86737500Y-126562500D02*
X86737500Y-125777750D01*
D55*
%TO.N,Net-(U2-VDDI)*%
X83800000Y-131000000D02*
X83937500Y-131137500D01*
X83937500Y-131137500D02*
X84267500Y-131137500D01*
%TO.N,Net-(U2-DAT5)*%
X83200000Y-131300000D02*
X83500000Y-131600000D01*
X83500000Y-131600000D02*
X84297500Y-131600000D01*
X84297500Y-131600000D02*
X85260000Y-130637500D01*
X83200000Y-130400000D02*
X83200000Y-131300000D01*
X85260000Y-130637500D02*
X85267500Y-130637500D01*
D54*
%TO.N,Net-(U2-CMD)*%
X84922500Y-121462750D02*
X83237250Y-121462750D01*
X82600000Y-122100000D02*
X82600000Y-132300000D01*
X83237250Y-121462750D02*
X82600000Y-122100000D01*
D55*
%TO.N,GND*%
X85767500Y-136137500D02*
X85937500Y-136137500D01*
X85937500Y-136137500D02*
X86267500Y-136467500D01*
X86267500Y-136467500D02*
X86267500Y-136637500D01*
D53*
%TO.N,/pcie-usb-bridge/USB_4_DP*%
X82090000Y-136753064D02*
X82090000Y-118000000D01*
X90590000Y-140357500D02*
X90590000Y-139553064D01*
X89954436Y-138917500D02*
X84254436Y-138917500D01*
X90120000Y-140847500D02*
X90120000Y-140827500D01*
%TO.N,/pcie-usb-bridge/USB_4_DN*%
X90045564Y-138697500D02*
X84345564Y-138697500D01*
X90810000Y-139461936D02*
X90045564Y-138697500D01*
X90810000Y-140357500D02*
X90810000Y-139461936D01*
%TO.N,/pcie-usb-bridge/USB_4_DP*%
X90590000Y-139553064D02*
X89954436Y-138917500D01*
X90120000Y-140827500D02*
X90590000Y-140357500D01*
X84254436Y-138917500D02*
X82090000Y-136753064D01*
%TO.N,/pcie-usb-bridge/USB_4_DN*%
X91280000Y-140847500D02*
X91280000Y-140827500D01*
X91280000Y-140827500D02*
X90810000Y-140357500D01*
X84345564Y-138697500D02*
X82310000Y-136661936D01*
X82310000Y-136661936D02*
X82310000Y-118000000D01*
%TO.N,/pcie-usb-bridge/USB_3_DP*%
X87554436Y-139717500D02*
X82554436Y-139717500D01*
X87320000Y-140827500D02*
X87790000Y-140357500D01*
X87790000Y-140357500D02*
X87790000Y-139953064D01*
X87790000Y-139953064D02*
X87554436Y-139717500D01*
X81990000Y-139153064D02*
X81990000Y-138345564D01*
X87320000Y-140847500D02*
X87320000Y-140827500D01*
%TO.N,/pcie-usb-bridge/USB_3_DN*%
X87645564Y-139497500D02*
X82645564Y-139497500D01*
%TO.N,/pcie-usb-bridge/USB_3_DP*%
X82554436Y-139717500D02*
X81990000Y-139153064D01*
X81990000Y-138345564D02*
X81490000Y-137845564D01*
%TO.N,/pcie-usb-bridge/USB_3_DN*%
X81710000Y-137754436D02*
X81710000Y-118000000D01*
X88480000Y-140847500D02*
X88480000Y-140827500D01*
X88480000Y-140827500D02*
X88010000Y-140357500D01*
%TO.N,/pcie-usb-bridge/USB_3_DP*%
X81490000Y-137845564D02*
X81490000Y-118000000D01*
%TO.N,/pcie-usb-bridge/USB_3_DN*%
X82210000Y-138254436D02*
X81710000Y-137754436D01*
X88010000Y-140357500D02*
X88010000Y-139861936D01*
X88010000Y-139861936D02*
X87645564Y-139497500D01*
X82645564Y-139497500D02*
X82210000Y-139061936D01*
X82210000Y-139061936D02*
X82210000Y-138254436D01*
D54*
%TO.N,Net-(U2-CMD)*%
X82600000Y-132300000D02*
X82600000Y-132307500D01*
D53*
X82600000Y-134637500D02*
X83100000Y-135137500D01*
D54*
X83100000Y-135137500D02*
X85283688Y-135137500D01*
D53*
X82600000Y-132300000D02*
X82600000Y-134637500D01*
D54*
%TO.N,Net-(U2-DAT4)*%
X83900000Y-124107500D02*
X83500000Y-123707500D01*
X83500000Y-124107500D02*
X83500000Y-127507500D01*
X83500000Y-123707500D02*
X83100000Y-123707500D01*
X83100000Y-123707500D02*
X83500000Y-124107500D01*
X83500000Y-127507500D02*
X83800000Y-127807500D01*
D55*
%TO.N,Net-(U2-DAT6)*%
X88700000Y-129706250D02*
X88206250Y-130200000D01*
X88700000Y-129706250D02*
X89301250Y-129706250D01*
X89700000Y-129307500D02*
X89700000Y-128707500D01*
X88206250Y-130200000D02*
X88198750Y-130200000D01*
X89301250Y-129706250D02*
X89700000Y-129307500D01*
%TO.N,+3V3_eMMC*%
X86762500Y-131137500D02*
X86267500Y-131137500D01*
%TO.N,Net-(U2-DAT6)*%
X86800000Y-131700000D02*
X87500000Y-131700000D01*
X87500000Y-131700000D02*
X87800000Y-131400000D01*
X88198750Y-130200000D02*
X88198750Y-130201250D01*
X87800000Y-131400000D02*
X87800000Y-130598750D01*
X87800000Y-130598750D02*
X88198750Y-130200000D01*
X85767500Y-130637500D02*
X85767500Y-131467500D01*
X86000000Y-131700000D02*
X86800000Y-131700000D01*
X85767500Y-131467500D02*
X86000000Y-131700000D01*
X88198750Y-130201250D02*
X87762500Y-130637500D01*
D54*
%TO.N,GND*%
X85300000Y-131800000D02*
X85300000Y-131170000D01*
X85300000Y-131170000D02*
X85267500Y-131137500D01*
D53*
X87200000Y-132700000D02*
X87200000Y-132570000D01*
X87200000Y-132570000D02*
X86767500Y-132137500D01*
%TO.N,+3V3_eMMC*%
X86267500Y-132137500D02*
X86267500Y-132532501D01*
X86267500Y-132532501D02*
X86400000Y-132665001D01*
X85767500Y-132637500D02*
X86372499Y-132637500D01*
X86372499Y-132637500D02*
X86400000Y-132665001D01*
%TO.N,Net-(U2-RST_N)*%
X90700000Y-135000000D02*
X90500000Y-135200000D01*
X86292500Y-135200000D02*
X85767500Y-134675000D01*
X90500000Y-135200000D02*
X86292500Y-135200000D01*
X85767500Y-134675000D02*
X85767500Y-134637500D01*
X90700000Y-134100000D02*
X90700000Y-135000000D01*
%TO.N,Net-(D2-A)*%
X91100000Y-136307500D02*
X91100000Y-134700000D01*
X92125000Y-129482500D02*
X94035000Y-129482500D01*
X91100000Y-134700000D02*
X91300000Y-134500000D01*
X91300000Y-134500000D02*
X91300000Y-133800000D01*
X91300000Y-133800000D02*
X91100000Y-133600000D01*
X91100000Y-133600000D02*
X91100000Y-130507500D01*
X91100000Y-130507500D02*
X92125000Y-129482500D01*
D54*
%TO.N,+3V3_eMMC*%
X88267500Y-134455000D02*
X88267500Y-134137500D01*
X88200000Y-134522500D02*
X88267500Y-134455000D01*
X88200000Y-134522500D02*
X88085000Y-134637500D01*
X88085000Y-134637500D02*
X87767500Y-134637500D01*
D53*
%TO.N,GND*%
X87100000Y-134200000D02*
X87550000Y-133750000D01*
X87550000Y-133750000D02*
X87550000Y-133652500D01*
X87267500Y-134367500D02*
X87100000Y-134200000D01*
X87267500Y-134637500D02*
X87267500Y-134367500D01*
X87100000Y-134200000D02*
X86542500Y-134200000D01*
X86542500Y-134200000D02*
X86440000Y-134097500D01*
D54*
X86400000Y-133535000D02*
X86400000Y-134057500D01*
X85767500Y-133137500D02*
X86002500Y-133137500D01*
X86400000Y-134057500D02*
X86440000Y-134097500D01*
X86002500Y-133137500D02*
X86400000Y-133535000D01*
D55*
%TO.N,Net-(U3-TEST1)*%
X83004999Y-145330000D02*
X82934999Y-145400000D01*
D53*
%TO.N,GND*%
X82065001Y-145400000D02*
X82065001Y-143677498D01*
D55*
%TO.N,Net-(U3-TEST1)*%
X84630000Y-145330000D02*
X83004999Y-145330000D01*
D53*
%TO.N,GND*%
X82065001Y-143677498D02*
X82100000Y-143642499D01*
X84400000Y-142400000D02*
X84200000Y-142200000D01*
X84400000Y-143165000D02*
X84400000Y-142400000D01*
%TO.N,Net-(U3-RREF[1])*%
X86900000Y-143860000D02*
X86900000Y-144700000D01*
X86900000Y-144700000D02*
X86700000Y-144900000D01*
X86700000Y-144900000D02*
X84900000Y-144900000D01*
X84400000Y-144400000D02*
X84400000Y-144035000D01*
X84900000Y-144900000D02*
X84400000Y-144400000D01*
D56*
%TO.N,+3V3_Bridge*%
X85500000Y-143900000D02*
X85800000Y-143900000D01*
X85840000Y-143860000D02*
X86100000Y-143860000D01*
X85800000Y-143900000D02*
X85840000Y-143860000D01*
D55*
%TO.N,Net-(U3-IO_HIT_I)*%
X85800000Y-145600000D02*
X85800000Y-145957500D01*
X85800000Y-145957500D02*
X85627500Y-146130000D01*
X85627500Y-146130000D02*
X84630000Y-146130000D01*
%TO.N,+3V3_Bridge*%
X86100000Y-149000000D02*
X86100000Y-148707500D01*
X86100000Y-148707500D02*
X85522500Y-148130000D01*
X85522500Y-148130000D02*
X84630000Y-148130000D01*
%TO.N,GND*%
X99970000Y-156530000D02*
X96370000Y-156530000D01*
X96370000Y-156530000D02*
X95900000Y-157000000D01*
%TO.N,+3V3_Bridge*%
X97770000Y-156930000D02*
X97500000Y-157200000D01*
X99970000Y-156930000D02*
X97770000Y-156930000D01*
X97500000Y-157200000D02*
X97500000Y-157934999D01*
X97500000Y-157934999D02*
X97565001Y-158000000D01*
%TO.N,Net-(U3-TEST6)*%
X98434999Y-157500000D02*
X98852500Y-157500000D01*
X98852500Y-157500000D02*
X99022500Y-157330000D01*
X99022500Y-157330000D02*
X99970000Y-157330000D01*
%TO.N,Net-(U3-TEST3)*%
X99000000Y-158100000D02*
X99000000Y-157900000D01*
X99000000Y-157900000D02*
X99170000Y-157730000D01*
X99170000Y-157730000D02*
X99970000Y-157730000D01*
%TO.N,GND*%
X87300000Y-143860000D02*
X87300000Y-142907500D01*
D54*
X86000000Y-111707500D02*
X82450000Y-111707500D01*
D55*
X100872500Y-148130000D02*
X101284999Y-148542499D01*
D57*
X82975000Y-104982500D02*
X81725000Y-104982500D01*
X92225000Y-116132500D02*
X92200000Y-116107500D01*
D53*
X99640000Y-128667500D02*
X98850000Y-128667500D01*
D55*
X101665000Y-156332500D02*
X101675000Y-156322500D01*
X83500000Y-153907500D02*
X83500000Y-153607500D01*
D53*
X86250000Y-99657500D02*
X86300000Y-99707500D01*
X97672500Y-92935000D02*
X97672500Y-92562500D01*
D55*
X87000000Y-161022389D02*
X87000000Y-161300000D01*
D53*
X94900000Y-125357500D02*
X95110000Y-125147500D01*
X84045000Y-95657500D02*
X83560000Y-95657500D01*
D55*
X96900000Y-145607500D02*
X96700000Y-145807500D01*
X96900000Y-143860000D02*
X96900000Y-145607500D01*
D54*
X91100000Y-125507500D02*
X91434999Y-125172501D01*
D55*
X83277500Y-149730000D02*
X83677500Y-150130000D01*
X93500000Y-145607500D02*
X93300000Y-145407500D01*
D54*
X94500000Y-120472501D02*
X94465001Y-120507500D01*
D57*
X92900000Y-115907500D02*
X93600000Y-115907500D01*
D54*
X93600000Y-120007500D02*
X93034999Y-120007500D01*
D53*
X99800000Y-128507500D02*
X99640000Y-128667500D01*
D55*
X85267500Y-137207500D02*
X85267500Y-136637500D01*
X83477500Y-148530000D02*
X84630000Y-148530000D01*
X97034999Y-160872501D02*
X97200000Y-160872501D01*
D57*
X86025000Y-114732500D02*
X86000000Y-114707500D01*
D54*
X82450000Y-111707500D02*
X82125000Y-112032500D01*
D55*
X99970000Y-148130000D02*
X100872500Y-148130000D01*
D53*
X85750000Y-99657500D02*
X85700000Y-99707500D01*
D54*
X82125000Y-112032500D02*
X81725000Y-112032500D01*
D55*
X86500000Y-159200000D02*
X86500000Y-160522389D01*
D54*
X96900000Y-143860000D02*
X96900000Y-143007500D01*
X94100000Y-120507500D02*
X93600000Y-120007500D01*
D55*
X89300000Y-143860000D02*
X89300000Y-144707500D01*
D54*
X94100000Y-120507500D02*
X93500000Y-121107500D01*
D53*
X95110000Y-125147500D02*
X96105000Y-125147500D01*
X94350000Y-91757500D02*
X94650000Y-91457500D01*
D55*
X99970000Y-156530000D02*
X100952500Y-156530000D01*
X101600000Y-148542499D02*
X101600000Y-148907500D01*
X97200000Y-160407500D02*
X97300000Y-160307500D01*
D57*
X84550000Y-103407500D02*
X82975000Y-104982500D01*
D55*
X90100000Y-142907500D02*
X89800000Y-142607500D01*
X83500000Y-153607500D02*
X83300000Y-153407500D01*
X88500000Y-159200000D02*
X88500000Y-158207500D01*
X100952500Y-156530000D02*
X101150000Y-156332500D01*
D56*
X84400000Y-159572500D02*
X83500000Y-159572500D01*
X84000000Y-162300000D02*
X83500000Y-161800000D01*
D58*
X87200000Y-163100000D02*
X87250000Y-163150000D01*
D54*
X84267500Y-136140000D02*
X84267500Y-136137500D01*
D55*
X83522500Y-148930000D02*
X84630000Y-148930000D01*
D53*
X92175000Y-96207500D02*
X91975052Y-96207500D01*
D57*
X86025000Y-116132500D02*
X86025000Y-114732500D01*
D55*
X93900000Y-161742499D02*
X93134999Y-161742499D01*
X94700000Y-145107500D02*
X94900000Y-144907500D01*
D54*
X86050000Y-111757500D02*
X86000000Y-111707500D01*
D53*
X100900000Y-135507500D02*
X100500000Y-135507500D01*
D55*
X90100000Y-143860000D02*
X90100000Y-142907500D01*
D56*
X88700000Y-162700000D02*
X88750000Y-162750000D01*
D55*
X98457499Y-148130000D02*
X98400000Y-148072501D01*
D53*
X91685000Y-95892500D02*
X92000000Y-96207500D01*
D55*
X83677500Y-150130000D02*
X84630000Y-150130000D01*
X92900000Y-161507500D02*
X92900000Y-160907500D01*
D56*
X90300000Y-162700000D02*
X90250000Y-162750000D01*
D55*
X83300000Y-148707500D02*
X83477500Y-148530000D01*
X90900000Y-158107500D02*
X90900000Y-159200000D01*
X86500000Y-160522389D02*
X87000000Y-161022389D01*
D54*
X100500000Y-122317500D02*
X100100000Y-122317500D01*
D55*
X84630000Y-154130000D02*
X83722500Y-154130000D01*
X98922500Y-150930000D02*
X98700000Y-150707500D01*
D56*
X83500000Y-159572500D02*
X82700000Y-159572500D01*
D55*
X102100000Y-152772501D02*
X102100000Y-151642500D01*
D53*
X91685000Y-94657500D02*
X91685000Y-95892500D01*
D55*
X102115000Y-156322500D02*
X101675000Y-156322500D01*
X87300000Y-158134999D02*
X87300000Y-159200000D01*
X94100000Y-157400000D02*
X94100000Y-159200000D01*
X87534999Y-157900000D02*
X87300000Y-158134999D01*
D54*
X99760200Y-121977700D02*
X99760200Y-120785900D01*
D53*
X90425000Y-99892500D02*
X90365000Y-99952500D01*
D54*
X95834999Y-119207500D02*
X96050000Y-119207500D01*
D55*
X101150000Y-156332500D02*
X101665000Y-156332500D01*
D56*
X83500000Y-161800000D02*
X83500000Y-159572500D01*
D53*
X92000000Y-96207500D02*
X92175000Y-96207500D01*
D55*
X83277500Y-149730000D02*
X84630000Y-149730000D01*
X88192500Y-157900000D02*
X87534999Y-157900000D01*
X101022500Y-150930000D02*
X99970000Y-150930000D01*
X86500000Y-143860000D02*
X86500000Y-142907500D01*
X87300000Y-142907500D02*
X86900000Y-142507500D01*
D53*
X93450000Y-91757500D02*
X94350000Y-91757500D01*
X86250000Y-98862500D02*
X86250000Y-99657500D01*
D55*
X83677500Y-149330000D02*
X84630000Y-149330000D01*
D54*
X97265001Y-118557500D02*
X97265001Y-118742499D01*
D53*
X83210000Y-95307500D02*
X83000000Y-95307500D01*
X82100000Y-143642499D02*
X82100000Y-143607500D01*
D55*
X86700000Y-129407500D02*
X86267500Y-129840000D01*
X93134999Y-161742499D02*
X92900000Y-161507500D01*
D54*
X85767500Y-134137500D02*
X86400000Y-134137500D01*
X97265001Y-118742499D02*
X96010200Y-119997300D01*
D56*
X82700000Y-158442499D02*
X82700000Y-159572500D01*
D57*
X89050000Y-93872501D02*
X89415001Y-93507500D01*
D55*
X90800000Y-158007500D02*
X90900000Y-158107500D01*
D54*
X100700000Y-122517500D02*
X100500000Y-122317500D01*
D57*
X92200000Y-116107500D02*
X91100000Y-116107500D01*
D53*
X90350000Y-90757500D02*
X89749994Y-90757500D01*
X94900000Y-125672500D02*
X94900000Y-125357500D01*
D55*
X102400000Y-156607500D02*
X102115000Y-156322500D01*
X83300000Y-148707500D02*
X83522500Y-148930000D01*
D54*
X91100000Y-125607500D02*
X91100000Y-125507500D01*
D53*
X97452500Y-93155000D02*
X97672500Y-92935000D01*
D55*
X86980000Y-137327500D02*
X86957500Y-137327500D01*
X94200000Y-157300000D02*
X94100000Y-157400000D01*
D53*
X90425000Y-98507500D02*
X90425000Y-99892500D01*
D55*
X97300000Y-160307500D02*
X97300000Y-159200000D01*
X101300000Y-159872501D02*
X101300000Y-158907500D01*
X86500000Y-142907500D02*
X86900000Y-142507500D01*
X99970000Y-148130000D02*
X98457499Y-148130000D01*
X83800000Y-136607500D02*
X84267500Y-136140000D01*
X101177500Y-149330000D02*
X99970000Y-149330000D01*
X89300000Y-144707500D02*
X89065000Y-144942500D01*
D54*
X94034999Y-123572501D02*
X94325000Y-123282500D01*
D53*
X89749994Y-90757500D02*
X89350000Y-90357506D01*
X90365000Y-99952500D02*
X90365000Y-100057500D01*
X83000000Y-95307500D02*
X82295001Y-94602501D01*
D55*
X102400000Y-157807500D02*
X102400000Y-156607500D01*
D57*
X92675000Y-116132500D02*
X92900000Y-115907500D01*
D55*
X101300000Y-151207500D02*
X101022500Y-150930000D01*
D57*
X93800000Y-116107500D02*
X96350000Y-116107500D01*
D55*
X92900000Y-159200000D02*
X92900000Y-160907500D01*
D53*
X101200000Y-135207500D02*
X100900000Y-135507500D01*
X82800000Y-99042500D02*
X83465000Y-99042500D01*
D54*
X100100000Y-122317500D02*
X99760200Y-121977700D01*
D55*
X88500000Y-158207500D02*
X88192500Y-157900000D01*
X97200000Y-160872501D02*
X97200000Y-160407500D01*
D54*
X96700000Y-118557500D02*
X97265001Y-118557500D01*
D55*
X94900000Y-144907500D02*
X94900000Y-143860000D01*
D54*
X94034999Y-124507500D02*
X94034999Y-123572501D01*
D55*
X101435000Y-151642500D02*
X101300000Y-151507500D01*
X86267500Y-129840000D02*
X86267500Y-130137500D01*
D53*
X101200000Y-134842499D02*
X101200000Y-135207500D01*
D55*
X83722500Y-154130000D02*
X83500000Y-153907500D01*
X99970000Y-150930000D02*
X98922500Y-150930000D01*
X83277500Y-149730000D02*
X83677500Y-149330000D01*
D57*
X92225000Y-116132500D02*
X92675000Y-116132500D01*
D54*
X91100000Y-125510250D02*
X90552500Y-124962750D01*
D53*
X83465000Y-99042500D02*
X83700000Y-98807500D01*
X82295001Y-94602501D02*
X81920000Y-94602501D01*
D54*
X93500000Y-121107500D02*
X93034999Y-121107500D01*
D57*
X96350000Y-116107500D02*
X96375000Y-116132500D01*
D53*
X97452500Y-93662500D02*
X97452500Y-93155000D01*
D55*
X93900000Y-161742499D02*
X96165001Y-161742499D01*
D56*
X88750000Y-162750000D02*
X88750000Y-164725000D01*
D54*
X91100000Y-125607500D02*
X91100000Y-125510250D01*
D58*
X87250000Y-163150000D02*
X87250000Y-164725000D01*
D55*
X96165001Y-161742499D02*
X97034999Y-160872501D01*
D54*
X87565000Y-133637500D02*
X87550000Y-133652500D01*
X94465001Y-120507500D02*
X94100000Y-120507500D01*
X91434999Y-125172501D02*
X92000000Y-125172501D01*
X99760200Y-120785900D02*
X99760200Y-119927700D01*
D53*
X83560000Y-95657500D02*
X83210000Y-95307500D01*
D54*
X100700000Y-123529100D02*
X100700000Y-122517500D01*
D53*
X100200000Y-135807500D02*
X100200000Y-137407500D01*
D54*
X99215001Y-119382501D02*
X99215001Y-118907500D01*
X96010200Y-119997300D02*
X96010200Y-120785900D01*
X88267500Y-133637500D02*
X88720000Y-133637500D01*
D55*
X101300000Y-151507500D02*
X101300000Y-151207500D01*
D56*
X90250000Y-162750000D02*
X90250000Y-164725000D01*
D55*
X101284999Y-148542499D02*
X101600000Y-148542499D01*
D54*
X99760200Y-119927700D02*
X99215001Y-119382501D01*
D53*
X100200000Y-137407500D02*
X100000000Y-137607500D01*
D54*
X86400000Y-134137500D02*
X86440000Y-134097500D01*
D53*
X100500000Y-135507500D02*
X100200000Y-135807500D01*
X82785000Y-99057500D02*
X82800000Y-99042500D01*
X85750000Y-98862500D02*
X85750000Y-99657500D01*
D55*
X101300000Y-158907500D02*
X102400000Y-157807500D01*
X102100000Y-151642500D02*
X101435000Y-151642500D01*
D53*
X93700000Y-126447501D02*
X94000000Y-126447501D01*
D55*
X101600000Y-148907500D02*
X101177500Y-149330000D01*
X93300000Y-145407500D02*
X93300000Y-143860000D01*
D54*
X96050000Y-119207500D02*
X96700000Y-118557500D01*
D53*
X81645000Y-99057500D02*
X82785000Y-99057500D01*
D54*
X96900000Y-143007500D02*
X97000000Y-142907500D01*
D55*
X89065000Y-144942500D02*
X89065000Y-146107500D01*
D57*
X89050000Y-95022501D02*
X89050000Y-93872501D01*
D54*
X88267500Y-133637500D02*
X87565000Y-133637500D01*
D57*
X93600000Y-115907500D02*
X93800000Y-116107500D01*
D55*
%TO.N,Net-(U3-XO)*%
X95068109Y-141675609D02*
X95068109Y-139813046D01*
X96100000Y-142707500D02*
X95068109Y-141675609D01*
X96100000Y-143860000D02*
X96100000Y-142707500D01*
%TO.N,Net-(U3-XI)*%
X98392409Y-142015091D02*
X97931891Y-141554573D01*
X96800000Y-142607500D02*
X97800000Y-142607500D01*
X96500000Y-142907500D02*
X96800000Y-142607500D01*
X97931891Y-141554573D02*
X97931891Y-140201954D01*
X96500000Y-143860000D02*
X96500000Y-142907500D01*
X97800000Y-142607500D02*
X98392409Y-142015091D01*
D54*
%TO.N,Net-(U8-VDD18PLL)*%
X92165001Y-121107500D02*
X91900000Y-121107500D01*
X91344750Y-121962750D02*
X90552500Y-121962750D01*
X91900000Y-121107500D02*
X91600000Y-121407500D01*
X91600000Y-121707500D02*
X91344750Y-121962750D01*
X91600000Y-121407500D02*
X91600000Y-121707500D01*
%TO.N,/emmc/XTAL1*%
X90552500Y-122462750D02*
X91444750Y-122462750D01*
X92000000Y-122272500D02*
X92335000Y-122272500D01*
X92700000Y-121907500D02*
X94400000Y-121907500D01*
X91635000Y-122272500D02*
X92000000Y-122272500D01*
X94400000Y-121907500D02*
X94400000Y-121442499D01*
X94400000Y-121442499D02*
X94500000Y-121342499D01*
X94400000Y-122457500D02*
X94325000Y-122532500D01*
X94400000Y-121907500D02*
X94400000Y-122457500D01*
X92335000Y-122272500D02*
X92700000Y-121907500D01*
X91444750Y-122462750D02*
X91635000Y-122272500D01*
D55*
%TO.N,+3V3_eMMC*%
X84767500Y-136672500D02*
X84767500Y-136637500D01*
D54*
X87237500Y-117345000D02*
X87200000Y-117307500D01*
X97889800Y-120785900D02*
X97721600Y-120785900D01*
X87237500Y-126870000D02*
X87200000Y-126907500D01*
D55*
X84400000Y-137207500D02*
X84600000Y-137007500D01*
D54*
X97721600Y-120785900D02*
X97500000Y-121007500D01*
X87200000Y-117307500D02*
X86600000Y-117307500D01*
X84922500Y-122962750D02*
X84124750Y-122962750D01*
X97500000Y-121007500D02*
X97500000Y-121472501D01*
X98134999Y-118557500D02*
X98134999Y-119942499D01*
X97889800Y-120187698D02*
X97889800Y-120785900D01*
X90552500Y-120355000D02*
X90600000Y-120307500D01*
X84124750Y-122962750D02*
X83820000Y-123267500D01*
D55*
X85267500Y-135637500D02*
X85267500Y-136137500D01*
D54*
X87237500Y-125777750D02*
X87237500Y-126870000D01*
X87237500Y-120147750D02*
X87237500Y-117345000D01*
D55*
X85267500Y-136137500D02*
X85767500Y-136637500D01*
X85267500Y-136137500D02*
X84767500Y-136637500D01*
X84600000Y-137007500D02*
X84600000Y-136840000D01*
X84600000Y-136840000D02*
X84767500Y-136672500D01*
D54*
X90552500Y-120962750D02*
X90552500Y-120355000D01*
X98134999Y-119942499D02*
X97889800Y-120187698D01*
%TO.N,Net-(U8-VDD18)*%
X84200000Y-122462750D02*
X84922500Y-122462750D01*
%TO.N,/emmc/XTAL2*%
X92535000Y-123142500D02*
X92600000Y-123207500D01*
X90552500Y-122962750D02*
X90597250Y-123007500D01*
X93275000Y-123282500D02*
X93275000Y-124417499D01*
X91635000Y-123142500D02*
X92000000Y-123142500D01*
X92600000Y-123207500D02*
X93200000Y-123207500D01*
X91500000Y-123007500D02*
X91635000Y-123142500D01*
X90597250Y-123007500D02*
X91500000Y-123007500D01*
X93200000Y-123207500D02*
X93275000Y-123282500D01*
X92000000Y-123142500D02*
X92535000Y-123142500D01*
D53*
%TO.N,/sd-card/XTAL2*%
X97335000Y-127182500D02*
X97335000Y-127497500D01*
X97335000Y-127182500D02*
X97835000Y-126682500D01*
X97835000Y-126682500D02*
X97835000Y-125147500D01*
X97335000Y-127497500D02*
X96850000Y-127982500D01*
X97155000Y-125147500D02*
X98500000Y-125147500D01*
X96850000Y-127982500D02*
X96850000Y-128667500D01*
D54*
%TO.N,+3V3_uSD*%
X99865000Y-125182500D02*
X99865000Y-125572500D01*
X100400000Y-127307500D02*
X100400000Y-127082500D01*
X99865000Y-125572500D02*
X100075000Y-125782500D01*
D53*
X93129990Y-132217510D02*
X93365000Y-131982500D01*
D54*
X100535000Y-126947500D02*
X100535000Y-126382500D01*
D53*
X101639800Y-120785900D02*
X101639800Y-119497300D01*
X93129990Y-132502510D02*
X93129990Y-132217510D01*
X100500000Y-131982500D02*
X99665000Y-131982500D01*
X93365000Y-131982500D02*
X94035000Y-131982500D01*
X101050000Y-118907500D02*
X100084999Y-118907500D01*
X96850000Y-134297500D02*
X96850000Y-135522500D01*
X92650000Y-132982500D02*
X93129990Y-132502510D01*
X101639800Y-119497300D02*
X101050000Y-118907500D01*
D54*
X100535000Y-125917500D02*
X100535000Y-126382500D01*
D53*
X96850000Y-135522500D02*
X97050000Y-135722500D01*
X94194999Y-128667500D02*
X94850000Y-128667500D01*
D54*
X100400000Y-127082500D02*
X100535000Y-126947500D01*
X100400000Y-125782500D02*
X100535000Y-125917500D01*
D53*
X94100000Y-128572501D02*
X94194999Y-128667500D01*
D54*
X100075000Y-125782500D02*
X100400000Y-125782500D01*
D53*
%TO.N,/sd-card/XTAL1*%
X96100000Y-126382500D02*
X96105000Y-126377500D01*
X96105000Y-126302500D02*
X95865000Y-126542500D01*
X96200000Y-126482500D02*
X96100000Y-126382500D01*
X96200000Y-126917500D02*
X96200000Y-126482500D01*
X96105000Y-125897500D02*
X96105000Y-126302500D01*
X96350000Y-128667500D02*
X96350000Y-127297500D01*
X95865000Y-126542500D02*
X94900000Y-126542500D01*
X96105000Y-126377500D02*
X96105000Y-125897500D01*
X96465000Y-127182500D02*
X96200000Y-126917500D01*
X96350000Y-127297500D02*
X96465000Y-127182500D01*
%TO.N,/sd-card/~{reset}*%
X99185000Y-134322500D02*
X98875000Y-134322500D01*
X98875000Y-134322500D02*
X98850000Y-134297500D01*
%TO.N,Net-(U9-VDD18)*%
X95920000Y-135512500D02*
X96350000Y-135082500D01*
X95920000Y-135722500D02*
X95920000Y-135587500D01*
X95920000Y-135587500D02*
X95950000Y-135557500D01*
X96350000Y-135082500D02*
X96350000Y-134297500D01*
X95920000Y-135722500D02*
X95920000Y-135512500D01*
%TO.N,Net-(U9-VDD18PLL)*%
X95400000Y-127307500D02*
X95850000Y-127757500D01*
X95850000Y-127757500D02*
X95850000Y-128667500D01*
%TO.N,/sd-card/DET*%
X101200000Y-133407500D02*
X101200000Y-133972501D01*
X99665000Y-129982500D02*
X100200466Y-129982500D01*
X101400000Y-133207500D02*
X101200000Y-133407500D01*
X101400000Y-130007500D02*
X101400000Y-133207500D01*
X100734999Y-133972501D02*
X99200000Y-135507500D01*
X98500000Y-136607500D02*
X98100000Y-137007500D01*
X99000000Y-135507500D02*
X98500000Y-136007500D01*
X99200000Y-135507500D02*
X99000000Y-135507500D01*
X100475466Y-129707500D02*
X101100000Y-129707500D01*
X100200466Y-129982500D02*
X100475466Y-129707500D01*
X98500000Y-136007500D02*
X98500000Y-136607500D01*
X101200000Y-133972501D02*
X100734999Y-133972501D01*
X101100000Y-129707500D02*
X101400000Y-130007500D01*
D56*
%TO.N,/sd-card/CRD_PWR*%
X81725000Y-109832500D02*
X82425000Y-109832500D01*
X86315001Y-108242499D02*
X85415001Y-109142499D01*
X95100000Y-102157500D02*
X95850000Y-101407500D01*
X82425000Y-109832500D02*
X82850000Y-110257500D01*
D55*
X100650000Y-132907500D02*
X100225000Y-132482500D01*
D56*
X95850000Y-101407500D02*
X97700000Y-101407500D01*
X86315001Y-107057500D02*
X86315001Y-108242499D01*
X91500000Y-105907500D02*
X95100000Y-102307500D01*
X82850000Y-110257500D02*
X84865001Y-110257500D01*
D53*
X98175000Y-101407500D02*
X97700000Y-101407500D01*
D56*
X85415001Y-109142499D02*
X85415001Y-109707500D01*
X84865001Y-110257500D02*
X85415001Y-109707500D01*
X95100000Y-102307500D02*
X95100000Y-102157500D01*
D53*
X98875000Y-102107500D02*
X98175000Y-101407500D01*
D55*
X100225000Y-132482500D02*
X99665000Y-132482500D01*
D57*
%TO.N,+3V3_Thread*%
X94634999Y-98242499D02*
X94234999Y-97842499D01*
D53*
X90799954Y-93507546D02*
X90284976Y-93507546D01*
X95950000Y-86972501D02*
X95950000Y-86207500D01*
X91150000Y-93157500D02*
X90799954Y-93507546D01*
X90650000Y-92257500D02*
X90284999Y-92622501D01*
D57*
X94634999Y-99007500D02*
X95715001Y-99007500D01*
X94634999Y-100447501D02*
X94634999Y-99007500D01*
D53*
X90284999Y-92622501D02*
X90284999Y-93507500D01*
D57*
X95450000Y-100607500D02*
X95600000Y-100757500D01*
X94634999Y-99007500D02*
X94634999Y-98242499D01*
X97500000Y-100757500D02*
X95600000Y-100757500D01*
X94475000Y-100607500D02*
X95450000Y-100607500D01*
X94475000Y-100607500D02*
X94634999Y-100447501D01*
D53*
X100200000Y-98607500D02*
X99884999Y-98922501D01*
X99884999Y-98922501D02*
X97800000Y-98922501D01*
X100200000Y-98042499D02*
X100200000Y-98607500D01*
D57*
X94234999Y-97842499D02*
X93600000Y-97842499D01*
D53*
X100620000Y-90507500D02*
X101300000Y-90507500D01*
X91150000Y-92557500D02*
X91150000Y-93157500D01*
D57*
X95715001Y-99007500D02*
X95800000Y-98922501D01*
D53*
%TO.N,Net-(U7-RFVDD)*%
X98800000Y-92857500D02*
X98800000Y-92392499D01*
X99965000Y-90522500D02*
X99980000Y-90507500D01*
X97852500Y-93662500D02*
X97852500Y-93239996D01*
X98700000Y-92957500D02*
X98800000Y-92857500D01*
X99965000Y-91507500D02*
X99965000Y-90522500D01*
X99450000Y-92057500D02*
X99450000Y-91657500D01*
X98134996Y-92957500D02*
X98700000Y-92957500D01*
X99600000Y-91507500D02*
X99965000Y-91507500D01*
X97852500Y-93239996D02*
X98134996Y-92957500D01*
X98800000Y-92392499D02*
X99115001Y-92392499D01*
X99450000Y-91657500D02*
X99600000Y-91507500D01*
X99115001Y-92392499D02*
X99450000Y-92057500D01*
D55*
%TO.N,Net-(U7-PAVDD)*%
X95852500Y-92297500D02*
X94652500Y-92297500D01*
X94652500Y-92297500D02*
X94652500Y-92755000D01*
X96252500Y-93160000D02*
X95852500Y-92760000D01*
X94652500Y-92755000D02*
X94065000Y-93342500D01*
X96252500Y-93662500D02*
X96252500Y-93160000D01*
X94065000Y-93342500D02*
X93752500Y-93342500D01*
X95852500Y-92760000D02*
X95852500Y-92297500D01*
D53*
%TO.N,Net-(C53-Pad2)*%
X97072500Y-90362500D02*
X98595000Y-90362500D01*
X97052500Y-90382500D02*
X97072500Y-90362500D01*
X98900000Y-90057500D02*
X98900000Y-89132500D01*
X97052500Y-91142500D02*
X97052500Y-90382500D01*
X98595000Y-90362500D02*
X98900000Y-90057500D01*
%TO.N,Net-(U7-RF2G4_IO2)*%
X97052500Y-93662500D02*
X97052500Y-92582500D01*
X97032500Y-92562500D02*
X97032500Y-91802500D01*
X97052500Y-92582500D02*
X97032500Y-92562500D01*
X97032500Y-91802500D02*
X97052500Y-91782500D01*
%TO.N,+3V3_wifi*%
X88800000Y-96507500D02*
X88800000Y-96007500D01*
X86400000Y-93542499D02*
X86200000Y-93342499D01*
X86500000Y-94407500D02*
X86400000Y-94307500D01*
X86250000Y-94952500D02*
X86250000Y-94457500D01*
X82800000Y-98172500D02*
X81660000Y-98172500D01*
X81660000Y-98172500D02*
X81645000Y-98187500D01*
X88915001Y-95892499D02*
X88800000Y-96007500D01*
X86250000Y-94457500D02*
X86400000Y-94307500D01*
X87955000Y-96657500D02*
X88650000Y-96657500D01*
X86750000Y-94952500D02*
X86750000Y-94457500D01*
X89050000Y-95892499D02*
X88915001Y-95892499D01*
X83450000Y-97657500D02*
X82935000Y-98172500D01*
X84045000Y-97657500D02*
X83450000Y-97657500D01*
X88800000Y-96007500D02*
X88650000Y-96157500D01*
X84750000Y-94952500D02*
X83445000Y-94952500D01*
X83150000Y-98157500D02*
X83100000Y-98107500D01*
X88650000Y-96157500D02*
X87955000Y-96157500D01*
X82935000Y-98172500D02*
X82800000Y-98172500D01*
X86750000Y-94457500D02*
X86700000Y-94407500D01*
X84045000Y-98157500D02*
X83150000Y-98157500D01*
X82630000Y-94137500D02*
X82630000Y-93452499D01*
X88650000Y-96657500D02*
X88800000Y-96507500D01*
X86400000Y-94307500D02*
X86400000Y-93542499D01*
X88450000Y-95657500D02*
X88800000Y-96007500D01*
X83100000Y-98107500D02*
X83035000Y-98172500D01*
X87955000Y-95657500D02*
X88450000Y-95657500D01*
X83035000Y-98172500D02*
X82800000Y-98172500D01*
X86700000Y-94407500D02*
X86500000Y-94407500D01*
X83445000Y-94952500D02*
X82630000Y-94137500D01*
%TO.N,Net-(U1-VD12D)*%
X85250000Y-94952500D02*
X85250000Y-93992500D01*
X85000000Y-93742500D02*
X83800000Y-93742500D01*
X85250000Y-93992500D02*
X85000000Y-93742500D01*
%TO.N,Net-(C59-Pad2)*%
X87026274Y-91281226D02*
X86226274Y-90481226D01*
X86226274Y-90481226D02*
X85400000Y-89654952D01*
X87073726Y-91281226D02*
X87026274Y-91281226D01*
X85400000Y-89654952D02*
X85400000Y-89045000D01*
%TO.N,Net-(U1-RF_INOUT)*%
X87250000Y-94157500D02*
X87250000Y-94057500D01*
X87250000Y-94952500D02*
X87250000Y-94157500D01*
X87780000Y-91987500D02*
X87526274Y-91733774D01*
X87700000Y-93607500D02*
X87700000Y-93087500D01*
X87250000Y-94057500D02*
X87700000Y-93607500D01*
X87780000Y-93007500D02*
X87780000Y-91987500D01*
X87250000Y-94157500D02*
X87250000Y-94107500D01*
X87700000Y-93087500D02*
X87780000Y-93007500D01*
D55*
%TO.N,+3V3_Bridge*%
X86100000Y-159200000D02*
X85992500Y-159200000D01*
X88500000Y-143860000D02*
X88500000Y-144907500D01*
X99147500Y-143860000D02*
X99200000Y-143807500D01*
X92500000Y-144907500D02*
X92500000Y-143860000D01*
X98700000Y-147207500D02*
X98822500Y-147330000D01*
X99022500Y-147730000D02*
X99970000Y-147730000D01*
X92300000Y-145107500D02*
X92500000Y-144907500D01*
X101565000Y-150772500D02*
X102100000Y-150772500D01*
X88400000Y-145107500D02*
X88300000Y-145107500D01*
X94900000Y-157900000D02*
X94500000Y-158300000D01*
X98700000Y-147407500D02*
X99022500Y-147730000D01*
X88500000Y-144907500D02*
X88300000Y-145107500D01*
X98700000Y-147207500D02*
X98700000Y-147407500D01*
X99970000Y-156930000D02*
X100897500Y-156930000D01*
X101322500Y-150530000D02*
X101565000Y-150772500D01*
X88900000Y-143860000D02*
X88900000Y-144607500D01*
X85992500Y-159200000D02*
X85500000Y-158707500D01*
X98822500Y-147330000D02*
X99970000Y-147330000D01*
X91300000Y-145872500D02*
X91065000Y-146107500D01*
X91300000Y-143860000D02*
X91300000Y-145872500D01*
X95300000Y-143860000D02*
X95300000Y-146107500D01*
X93900000Y-160872501D02*
X93900000Y-160707500D01*
X101150000Y-157182500D02*
X101665000Y-157182500D01*
X94500000Y-160107500D02*
X94500000Y-159200000D01*
X99970000Y-147730000D02*
X101542501Y-147730000D01*
X101542501Y-147730000D02*
X101600000Y-147672501D01*
X94500000Y-158300000D02*
X94500000Y-159200000D01*
X101665000Y-157182500D02*
X101675000Y-157192500D01*
X88900000Y-144607500D02*
X88500000Y-145007500D01*
X85500000Y-158707500D02*
X85400000Y-158607500D01*
X98500000Y-143860000D02*
X99147500Y-143860000D01*
X100897500Y-156930000D02*
X101150000Y-157182500D01*
X93900000Y-160707500D02*
X94500000Y-160107500D01*
X99970000Y-150530000D02*
X101322500Y-150530000D01*
D53*
%TO.N,/wifi/XTAL2*%
X92175000Y-99082500D02*
X92175000Y-98507500D01*
X92175000Y-98132500D02*
X92175000Y-98507500D01*
X88359999Y-97657500D02*
X88509999Y-97507500D01*
X91235000Y-100057500D02*
X91235000Y-100022500D01*
X88509999Y-97507500D02*
X91550000Y-97507500D01*
X91550000Y-97507500D02*
X92175000Y-98132500D01*
X87955000Y-97657500D02*
X88359999Y-97657500D01*
X91235000Y-100022500D02*
X92175000Y-99082500D01*
%TO.N,/wifi/XTAL1*%
X91050000Y-97007500D02*
X91050000Y-96407500D01*
X90900000Y-97157500D02*
X91050000Y-97007500D01*
X90850000Y-96207500D02*
X90425000Y-96207500D01*
X91050000Y-96407500D02*
X90850000Y-96207500D01*
X87955000Y-97157500D02*
X90900000Y-97157500D01*
X90425000Y-96207500D02*
X90425000Y-95382500D01*
X90815000Y-94992500D02*
X90815000Y-94657500D01*
X90425000Y-95382500D02*
X90815000Y-94992500D01*
D55*
%TO.N,+1V0_core*%
X98222500Y-151330000D02*
X99970000Y-151330000D01*
X92900000Y-146482500D02*
X92900000Y-143860000D01*
X86900000Y-158134999D02*
X86665001Y-157900000D01*
X91300000Y-159200000D02*
X91300000Y-158307500D01*
X93500000Y-147082500D02*
X92900000Y-146482500D01*
X95900000Y-157842499D02*
X96534999Y-157842499D01*
X96900000Y-158207500D02*
X96900000Y-159200000D01*
X92900000Y-143860000D02*
X92900000Y-141742499D01*
X94250000Y-145557500D02*
X93700000Y-145007500D01*
X97300000Y-143860000D02*
X97300000Y-146407500D01*
X92500000Y-159200000D02*
X92500000Y-158207500D01*
X91300000Y-158307500D02*
X91600000Y-158007500D01*
X93700000Y-143860000D02*
X93700000Y-142542499D01*
X93700000Y-142542499D02*
X92900000Y-141742499D01*
X86665001Y-154872501D02*
X86665001Y-157900000D01*
X85522500Y-153730000D02*
X86665001Y-154872501D01*
X96534999Y-157842499D02*
X96900000Y-158207500D01*
X94900000Y-147072501D02*
X94250000Y-146422501D01*
X86900000Y-159200000D02*
X86900000Y-158134999D01*
X93700000Y-145007500D02*
X93700000Y-143860000D01*
X88900000Y-158207500D02*
X88900000Y-159200000D01*
X97400000Y-150507500D02*
X98222500Y-151330000D01*
X84630000Y-153730000D02*
X85522500Y-153730000D01*
X92500000Y-158207500D02*
X92300000Y-158007500D01*
X94250000Y-146422501D02*
X94250000Y-145557500D01*
X89100000Y-158007500D02*
X88900000Y-158207500D01*
D54*
%TO.N,Net-(D1-K)*%
X93725000Y-118707500D02*
X94225000Y-119207500D01*
X94225000Y-119207500D02*
X94965001Y-119207500D01*
%TO.N,Net-(D1-A)*%
X92075000Y-118707500D02*
X91800000Y-118707500D01*
X89959750Y-120147750D02*
X89737500Y-120147750D01*
X91800000Y-118707500D02*
X90800000Y-119707500D01*
X90800000Y-119707500D02*
X90400000Y-119707500D01*
X90400000Y-119707500D02*
X89959750Y-120147750D01*
D53*
%TO.N,Net-(D2-A)*%
X84925000Y-141107500D02*
X85500000Y-141107500D01*
X85500000Y-141107500D02*
X86000000Y-140607500D01*
%TO.N,Net-(D2-K)*%
X83275000Y-141107500D02*
X82700000Y-141107500D01*
X82100000Y-141707500D02*
X82100000Y-142772501D01*
X82700000Y-141107500D02*
X82100000Y-141707500D01*
%TO.N,Net-(D3-K)*%
X101300000Y-102007500D02*
X101200000Y-102107500D01*
X101200000Y-102107500D02*
X100525000Y-102107500D01*
X101200000Y-100807500D02*
X101300000Y-100907500D01*
X101300000Y-100907500D02*
X101300000Y-102007500D01*
X100334999Y-100807500D02*
X101200000Y-100807500D01*
%TO.N,Net-(D4-A)*%
X83100000Y-100507500D02*
X83100000Y-100007500D01*
X83100000Y-100007500D02*
X83500000Y-99607500D01*
X83500000Y-99607500D02*
X83900000Y-99607500D01*
X82900000Y-100707500D02*
X83100000Y-100507500D01*
X82200000Y-100707500D02*
X82900000Y-100707500D01*
%TO.N,Net-(D4-K)*%
X86750000Y-98862500D02*
X86830000Y-98942500D01*
X83850000Y-101657500D02*
X83850000Y-100707500D01*
X84100000Y-101907500D02*
X83850000Y-101657500D01*
X86830000Y-98942500D02*
X86830000Y-100077500D01*
X86830000Y-100077500D02*
X86700000Y-100207500D01*
X86700000Y-100207500D02*
X86700000Y-101707500D01*
X86700000Y-101707500D02*
X86500000Y-101907500D01*
X86500000Y-101907500D02*
X84100000Y-101907500D01*
D57*
%TO.N,+3V3*%
X87675000Y-100757500D02*
X88350000Y-100757500D01*
X91900000Y-101107500D02*
X92400000Y-100607500D01*
X88350000Y-100757500D02*
X88700000Y-101107500D01*
X88700000Y-101107500D02*
X91800000Y-101107500D01*
X92400000Y-100607500D02*
X92825000Y-100607500D01*
X91800000Y-101107500D02*
X91900000Y-101107500D01*
D55*
%TO.N,Net-(J1-CONFIG_0)*%
X97100000Y-162900000D02*
X97100000Y-161742499D01*
X96250000Y-164725000D02*
X96250000Y-163750000D01*
X96250000Y-163750000D02*
X97100000Y-162900000D01*
%TO.N,/pcie-usb-bridge/PERST_L*%
X95700000Y-145607500D02*
X96100000Y-146007500D01*
X96100000Y-146007500D02*
X96100000Y-146707500D01*
X96100000Y-146707500D02*
X96000000Y-146807500D01*
X95700000Y-143860000D02*
X95700000Y-145607500D01*
%TO.N,Net-(J1-CONFIG_3)*%
X101250000Y-164725000D02*
X101250000Y-163850000D01*
X101250000Y-163850000D02*
X101500000Y-163600000D01*
X101300000Y-161300000D02*
X101300000Y-160742499D01*
X101500000Y-161500000D02*
X101300000Y-161300000D01*
X101500000Y-163600000D02*
X101500000Y-161500000D01*
%TO.N,Net-(J1-CONFIG_2)*%
X82500000Y-163500000D02*
X82750000Y-163750000D01*
X82700000Y-160442500D02*
X82700000Y-160907500D01*
X82700000Y-160907500D02*
X82500000Y-161107500D01*
X82500000Y-161107500D02*
X82500000Y-163500000D01*
X82750000Y-163750000D02*
X82750000Y-164725000D01*
%TO.N,Net-(J1-CONFIG_1)*%
X84250000Y-163750000D02*
X84250000Y-164725000D01*
X84700000Y-161107500D02*
X84700000Y-163300000D01*
X84700000Y-163300000D02*
X84250000Y-163750000D01*
X84400000Y-160442500D02*
X84400000Y-160807500D01*
X84400000Y-160807500D02*
X84700000Y-161107500D01*
%TO.N,Net-(U3-TMS)*%
X83622500Y-155730000D02*
X84630000Y-155730000D01*
X82935000Y-155407500D02*
X83300000Y-155407500D01*
X83300000Y-155407500D02*
X83622500Y-155730000D01*
%TO.N,Net-(U3-TRST_L)*%
X82700000Y-157207500D02*
X82700000Y-157572501D01*
X84630000Y-156530000D02*
X83377500Y-156530000D01*
X83377500Y-156530000D02*
X82700000Y-157207500D01*
D54*
%TO.N,Net-(U8-SD_WP)*%
X91600000Y-124307500D02*
X91255250Y-123962750D01*
X91255250Y-123962750D02*
X90552500Y-123962750D01*
%TO.N,/emmc/SCK*%
X96010200Y-122397300D02*
X96010200Y-123529100D01*
X96800000Y-119907500D02*
X96800000Y-121607500D01*
X95400000Y-123807500D02*
X95678400Y-123529100D01*
X96800000Y-121607500D02*
X96010200Y-122397300D01*
X95400000Y-124107500D02*
X95400000Y-123807500D01*
X92600000Y-124907500D02*
X92800000Y-125107500D01*
X97550000Y-119422501D02*
X97284999Y-119422501D01*
X97284999Y-119422501D02*
X96800000Y-119907500D01*
D53*
X95400000Y-124207500D02*
X95400000Y-124107500D01*
X92800000Y-125107500D02*
X94500000Y-125107500D01*
D54*
X95678400Y-123529100D02*
X96010200Y-123529100D01*
X91355250Y-123462750D02*
X91600000Y-123707500D01*
X90552500Y-123462750D02*
X91355250Y-123462750D01*
D53*
X94500000Y-125107500D02*
X95400000Y-124207500D01*
D54*
X91600000Y-123707500D02*
X91800000Y-123707500D01*
X91800000Y-123707500D02*
X92600000Y-124507500D01*
X92600000Y-124507500D02*
X92600000Y-124907500D01*
%TO.N,/emmc/SDA*%
X91500000Y-126607500D02*
X92400000Y-126607500D01*
D53*
X92900000Y-125607500D02*
X94000000Y-125607500D01*
X97889800Y-124417700D02*
X97800000Y-124507500D01*
D54*
X89770250Y-125777750D02*
X89737500Y-125777750D01*
X97565001Y-123204301D02*
X97565001Y-122407500D01*
X92400000Y-126607500D02*
X92700000Y-126307500D01*
X90300000Y-126307500D02*
X89770250Y-125777750D01*
D53*
X92700000Y-125807500D02*
X92900000Y-125607500D01*
D54*
X97565001Y-122407500D02*
X97500000Y-122342499D01*
X91150000Y-126957500D02*
X91500000Y-126607500D01*
D53*
X97800000Y-124507500D02*
X95700000Y-124507500D01*
D54*
X97889800Y-123529100D02*
X97565001Y-123204301D01*
X92700000Y-126307500D02*
X92700000Y-125807500D01*
X97889800Y-124417700D02*
X97889800Y-123529100D01*
%TO.N,Net-(U8-RBIAS)*%
X90552500Y-121462750D02*
X91144750Y-121462750D01*
X91400000Y-121207500D02*
X91400000Y-120407500D01*
X91400000Y-120407500D02*
X91800000Y-120007500D01*
X91800000Y-120007500D02*
X92165001Y-120007500D01*
X91144750Y-121462750D02*
X91400000Y-121207500D01*
%TO.N,Net-(U8-SD_nCD)*%
X89237500Y-126345000D02*
X89237500Y-125777750D01*
X92000000Y-126042499D02*
X91834999Y-126207500D01*
X90350000Y-127007500D02*
X89900000Y-127007500D01*
X89900000Y-127007500D02*
X89237500Y-126345000D01*
X91834999Y-126207500D02*
X91150000Y-126207500D01*
X91150000Y-126207500D02*
X90350000Y-127007500D01*
D53*
%TO.N,Net-(U2-DAT0)*%
X91000000Y-128307500D02*
X91000000Y-128007500D01*
D54*
X86100000Y-128207500D02*
X88600000Y-128207500D01*
D53*
X87737500Y-118305000D02*
X87737500Y-120147750D01*
X86100000Y-128207500D02*
X84800000Y-129507500D01*
D54*
X84800000Y-129507500D02*
X84767500Y-129540000D01*
D53*
X88600000Y-128207500D02*
X88800000Y-128207500D01*
X88000000Y-118042500D02*
X87737500Y-118305000D01*
X91000000Y-128007500D02*
X90800000Y-127807500D01*
D54*
X84767500Y-129540000D02*
X84767500Y-130137500D01*
D53*
X91300000Y-128607500D02*
X91000000Y-128307500D01*
D54*
X90800000Y-127807500D02*
X89200000Y-127807500D01*
X89200000Y-127807500D02*
X88800000Y-128207500D01*
D53*
%TO.N,Net-(U2-DAT1)*%
X88237500Y-119035001D02*
X88237500Y-120147750D01*
D54*
X90300000Y-128107500D02*
X89400000Y-128107500D01*
D53*
X89565001Y-117707500D02*
X88237500Y-119035001D01*
D54*
X89000000Y-128507500D02*
X86300000Y-128507500D01*
X86300000Y-128507500D02*
X85267500Y-129540000D01*
D53*
X91200000Y-129507500D02*
X91300000Y-129507500D01*
X90500000Y-128807500D02*
X91200000Y-129507500D01*
D54*
X89400000Y-128107500D02*
X89000000Y-128507500D01*
D53*
X90500000Y-128307500D02*
X90500000Y-128807500D01*
X90300000Y-128107500D02*
X90500000Y-128307500D01*
D54*
X85267500Y-129540000D02*
X85267500Y-130137500D01*
D53*
%TO.N,Net-(U2-DAT2)*%
X85767500Y-129540000D02*
X85767500Y-130137500D01*
D54*
X87500000Y-129107500D02*
X87500000Y-128907500D01*
D53*
X86500000Y-128807500D02*
X85767500Y-129540000D01*
X89065001Y-127007500D02*
X88737500Y-126679999D01*
X87400000Y-128807500D02*
X86500000Y-128807500D01*
D54*
X87500000Y-128907500D02*
X87400000Y-128807500D01*
D53*
X88737500Y-126679999D02*
X88737500Y-125777750D01*
D54*
%TO.N,Net-(U2-DAT3)*%
X84267500Y-130635000D02*
X84267500Y-130637500D01*
D53*
X87737500Y-125777750D02*
X87737500Y-126879999D01*
X87737500Y-126879999D02*
X87900000Y-127042499D01*
D54*
X83700000Y-129607500D02*
X83700000Y-130067500D01*
D55*
X83700000Y-130067500D02*
X84267500Y-130635000D01*
D53*
%TO.N,Net-(U2-DAT4)*%
X83900000Y-128507500D02*
X84500000Y-129107500D01*
X84280000Y-130142500D02*
X84757500Y-130620000D01*
X84280000Y-129907500D02*
X84280000Y-130142500D01*
X84500000Y-129107500D02*
X84500000Y-129687500D01*
X84500000Y-129687500D02*
X84280000Y-129907500D01*
X86237500Y-126570000D02*
X86237500Y-125777750D01*
X85000000Y-127807500D02*
X83800000Y-127807500D01*
D54*
X85000000Y-127807500D02*
X86237500Y-126570000D01*
D53*
X84757500Y-130620000D02*
X84757500Y-130632500D01*
D54*
%TO.N,Net-(U2-DAT5)*%
X83800000Y-120742499D02*
X84702249Y-120742499D01*
X84702249Y-120742499D02*
X84922500Y-120962750D01*
D55*
%TO.N,Net-(U2-DAT6)*%
X86237500Y-120147750D02*
X86237500Y-119545000D01*
X85400000Y-118707500D02*
X85400000Y-118107500D01*
X86237500Y-119545000D02*
X85400000Y-118707500D01*
%TO.N,Net-(U2-DAT7)*%
X88300000Y-129107500D02*
X88100000Y-129307500D01*
X86737500Y-119045000D02*
X86737500Y-120147750D01*
X87100000Y-129807500D02*
X87098750Y-129806250D01*
X88100000Y-129307500D02*
X87600000Y-129807500D01*
X89000000Y-129107500D02*
X88300000Y-129107500D01*
X86500000Y-118107500D02*
X86500000Y-118807500D01*
X86500000Y-118807500D02*
X86737500Y-119045000D01*
X87098750Y-129806250D02*
X86291250Y-130613750D01*
X87600000Y-129807500D02*
X87100000Y-129807500D01*
X86291250Y-130613750D02*
X86291250Y-130638750D01*
D54*
%TO.N,Net-(U2-CLK)*%
X85190000Y-134637500D02*
X85760000Y-135207500D01*
X85900000Y-135207500D02*
X86267500Y-135575000D01*
D53*
X85737500Y-119445000D02*
X85737500Y-120147750D01*
X84300000Y-118137500D02*
X84300000Y-118807500D01*
D54*
X86267500Y-135575000D02*
X86267500Y-135637500D01*
D53*
X84300000Y-118807500D02*
X84800000Y-119307500D01*
D54*
X85760000Y-135207500D02*
X85900000Y-135207500D01*
D53*
X85600000Y-119307500D02*
X85737500Y-119445000D01*
D54*
X83530000Y-134637500D02*
X85190000Y-134637500D01*
X83400000Y-134507500D02*
X83530000Y-134637500D01*
D53*
X84800000Y-119307500D02*
X85600000Y-119307500D01*
D54*
%TO.N,Net-(U2-CMD)*%
X85283688Y-135137500D02*
X85767500Y-135621312D01*
X85767500Y-135621312D02*
X85767500Y-135637500D01*
D55*
%TO.N,/sd-card/uSD.D1*%
X92650000Y-131032500D02*
X92700000Y-130982500D01*
X84284999Y-114857500D02*
X83450000Y-114857500D01*
X82825000Y-114232500D02*
X81725000Y-114232500D01*
X83450000Y-114857500D02*
X82825000Y-114232500D01*
X84834999Y-114307500D02*
X84284999Y-114857500D01*
X92700000Y-130982500D02*
X94035000Y-130982500D01*
%TO.N,/sd-card/uSD.CLK*%
X93200000Y-133982500D02*
X93200000Y-133607500D01*
X84884999Y-110907500D02*
X84334999Y-111457500D01*
X83150000Y-111457500D02*
X82625000Y-110932500D01*
X93325000Y-133482500D02*
X94035000Y-133482500D01*
X84334999Y-111457500D02*
X83150000Y-111457500D01*
X93200000Y-133607500D02*
X93325000Y-133482500D01*
X82625000Y-110932500D02*
X81725000Y-110932500D01*
D53*
%TO.N,/sd-card/SDA*%
X101639800Y-124767700D02*
X101225000Y-125182500D01*
X99665000Y-129242500D02*
X99800000Y-129107500D01*
X101500000Y-128007500D02*
X101500000Y-125457500D01*
X100000000Y-129107500D02*
X100500000Y-128607500D01*
X99800000Y-129107500D02*
X100000000Y-129107500D01*
X99665000Y-129482500D02*
X99665000Y-129242500D01*
X101500000Y-125457500D02*
X101225000Y-125182500D01*
X101639800Y-123529100D02*
X101639800Y-124767700D01*
X101225000Y-125182500D02*
X100735000Y-125182500D01*
X100500000Y-128607500D02*
X100900000Y-128607500D01*
X100900000Y-128607500D02*
X101500000Y-128007500D01*
D55*
%TO.N,/sd-card/uSD.CMD*%
X94200000Y-135007500D02*
X94365000Y-135172500D01*
X94100000Y-134907500D02*
X94100000Y-134507500D01*
X94365000Y-135172500D02*
X95160000Y-135172500D01*
X94200000Y-135007500D02*
X94100000Y-134907500D01*
X82800000Y-108732500D02*
X82800000Y-108757500D01*
X95160000Y-135172500D02*
X95350000Y-134982500D01*
X82800000Y-108757500D02*
X83250000Y-109207500D01*
X95350000Y-134882500D02*
X95350000Y-134297500D01*
X95350000Y-134982500D02*
X95350000Y-134882500D01*
X83250000Y-109207500D02*
X84034998Y-109207500D01*
X81725000Y-108732500D02*
X82800000Y-108732500D01*
X84842499Y-108399999D02*
X84884999Y-108357500D01*
X84034998Y-109207500D02*
X84842499Y-108399999D01*
%TO.N,/sd-card/uSD.D0*%
X92650000Y-131782500D02*
X92950000Y-131482500D01*
X92950000Y-131482500D02*
X94035000Y-131482500D01*
X84884999Y-112557500D02*
X84884999Y-112622501D01*
X84884999Y-112622501D02*
X84375000Y-113132500D01*
X84375000Y-113132500D02*
X81725000Y-113132500D01*
X92650000Y-131982500D02*
X92650000Y-131782500D01*
D53*
%TO.N,/sd-card/SCK*%
X99200000Y-124607500D02*
X99200000Y-126332500D01*
X99200000Y-126332500D02*
X99250000Y-126382500D01*
X98100000Y-127232500D02*
X98650000Y-126682500D01*
X99760200Y-124047300D02*
X99200000Y-124607500D01*
X97350000Y-128057500D02*
X97600000Y-127807500D01*
X98650000Y-126682500D02*
X98950000Y-126682500D01*
X99760200Y-123529100D02*
X99760200Y-124047300D01*
X97802000Y-127807500D02*
X98100000Y-127509500D01*
X97600000Y-127807500D02*
X97802000Y-127807500D01*
X99250000Y-126382500D02*
X99665000Y-126382500D01*
X97350000Y-128667500D02*
X97350000Y-128057500D01*
X98100000Y-127509500D02*
X98100000Y-127232500D01*
D54*
X99665000Y-126382500D02*
X99300000Y-126382500D01*
D53*
X98950000Y-126682500D02*
X99250000Y-126382500D01*
%TO.N,Net-(U5-RSTB)*%
X92150000Y-93157500D02*
X92450000Y-93457500D01*
X92150000Y-92557500D02*
X92150000Y-93157500D01*
%TO.N,Net-(U5-VBUS)*%
X95350000Y-89107500D02*
X95700000Y-88757500D01*
X95950000Y-88507500D02*
X95950000Y-87842499D01*
X95350000Y-89372501D02*
X95350000Y-89107500D01*
X91650000Y-92557500D02*
X91650000Y-93507500D01*
X95700000Y-88757500D02*
X95950000Y-88507500D01*
D55*
%TO.N,/sd-card/uSD.D3*%
X84850000Y-107007500D02*
X84900000Y-106957500D01*
X84850000Y-107307500D02*
X84850000Y-107007500D01*
X84350000Y-107632500D02*
X84525000Y-107632500D01*
X84350000Y-107632500D02*
X81725000Y-107632500D01*
X100625000Y-131082500D02*
X100225000Y-131482500D01*
X84525000Y-107632500D02*
X84850000Y-107307500D01*
X100225000Y-131482500D02*
X99665000Y-131482500D01*
%TO.N,/sd-card/uSD.D2*%
X82950000Y-106107500D02*
X82525000Y-106532500D01*
X84934999Y-105507500D02*
X84934999Y-105572501D01*
X82525000Y-106532500D02*
X81725000Y-106532500D01*
X84400000Y-106107500D02*
X82950000Y-106107500D01*
X100450000Y-130482500D02*
X99665000Y-130482500D01*
X84934999Y-105572501D02*
X84400000Y-106107500D01*
X100650000Y-130282500D02*
X100450000Y-130482500D01*
D53*
%TO.N,Net-(U9-SD_WP)*%
X98000000Y-128003526D02*
X98110513Y-127893013D01*
X97850000Y-128667500D02*
X97850000Y-128182500D01*
X97850000Y-128153526D02*
X98000000Y-128003526D01*
X98110513Y-127893013D02*
X98521026Y-127482500D01*
X98521026Y-127482500D02*
X98700000Y-127482500D01*
X97850000Y-128667500D02*
X97850000Y-128153526D01*
%TO.N,Net-(U9-RBIAS)*%
X93700000Y-127582500D02*
X93700000Y-127317499D01*
X95350000Y-127957500D02*
X95200000Y-127807500D01*
X95350000Y-128667500D02*
X95350000Y-127957500D01*
X95200000Y-127807500D02*
X93925000Y-127807500D01*
X93925000Y-127807500D02*
X93700000Y-127582500D01*
%TO.N,/thread-or-zigbee/RESET*%
X100200000Y-97172501D02*
X99734999Y-97172501D01*
X100900000Y-97207500D02*
X101800000Y-98107500D01*
X99100000Y-97807500D02*
X98900000Y-97807500D01*
X99734999Y-97172501D02*
X99100000Y-97807500D01*
X98895000Y-93662500D02*
X98900000Y-93657500D01*
X98252500Y-93662500D02*
X98895000Y-93662500D01*
X100200000Y-97172501D02*
X100234999Y-97207500D01*
X100234999Y-97207500D02*
X100900000Y-97207500D01*
%TO.N,Net-(U1-RREF)*%
X83520000Y-96157500D02*
X83210000Y-95847500D01*
X82440000Y-95847500D02*
X82064999Y-95472499D01*
X82064999Y-95472499D02*
X81920000Y-95472499D01*
X84045000Y-96157500D02*
X83520000Y-96157500D01*
X83210000Y-95847500D02*
X82440000Y-95847500D01*
%TO.N,Net-(U1-CHIP_EN)*%
X85750000Y-94157500D02*
X85800000Y-94107500D01*
X85750000Y-94952500D02*
X85750000Y-94157500D01*
D55*
%TO.N,Net-(U3-REXT_GND)*%
X95300000Y-159200000D02*
X95300000Y-160672501D01*
X95300000Y-160672501D02*
X95065001Y-160907500D01*
%TO.N,Net-(U3-REXT)*%
X95700000Y-159200000D02*
X95700000Y-160672501D01*
X95700000Y-160672501D02*
X95934999Y-160907500D01*
%TO.N,Net-(U3-RREF[4])*%
X99970000Y-148930000D02*
X98412499Y-148930000D01*
X98412499Y-148930000D02*
X98400000Y-148942499D01*
%TO.N,Net-(U3-RREF[3])*%
X98100000Y-146407500D02*
X98777500Y-145730000D01*
X98777500Y-145730000D02*
X99970000Y-145730000D01*
%TO.N,Net-(U3-RREF[2])*%
X89700000Y-144707500D02*
X89935000Y-144942500D01*
X89935000Y-144942500D02*
X89935000Y-146107500D01*
X89700000Y-143860000D02*
X89700000Y-144707500D01*
%TO.N,Net-(U3-MAIN_DETECT)*%
X84630000Y-154530000D02*
X83622500Y-154530000D01*
X83622500Y-154530000D02*
X82534999Y-153442499D01*
X82534999Y-153442499D02*
X81800000Y-153442499D01*
%TO.N,Net-(U3-TEST4)*%
X99970000Y-152930000D02*
X100922500Y-152930000D01*
X100922500Y-152930000D02*
X101634999Y-153642499D01*
X101634999Y-153642499D02*
X102100000Y-153642499D01*
%TO.N,Net-(U3-TEST5)*%
X91700000Y-145872500D02*
X91935000Y-146107500D01*
X91700000Y-143860000D02*
X91700000Y-145872500D01*
D54*
%TO.N,/pcie-usb-bridge/EEPD*%
X98700000Y-145007500D02*
X98200000Y-145007500D01*
X99200000Y-144507500D02*
X98700000Y-145007500D01*
X100000000Y-143807500D02*
X99300000Y-144507500D01*
X98200000Y-145007500D02*
X98100000Y-144907500D01*
X99300000Y-144507500D02*
X99200000Y-144507500D01*
X98100000Y-144907500D02*
X98100000Y-143860000D01*
D53*
%TO.N,/pcie-usb-bridge/EECLK*%
X97700000Y-145282500D02*
X97875000Y-145457500D01*
X97700000Y-143860000D02*
X97700000Y-145282500D01*
%TO.N,/emmc/USB_1_DP*%
X89345564Y-118890000D02*
X89697076Y-118890000D01*
X89963076Y-119057931D02*
X89963076Y-118966000D01*
X89097500Y-119138064D02*
X89345564Y-118890000D01*
X89237500Y-120147750D02*
X89237500Y-119337749D01*
X89237500Y-119337749D02*
X89097500Y-119197749D01*
X97145564Y-117817500D02*
X97818064Y-117145000D01*
X91745564Y-117817500D02*
X97145564Y-117817500D01*
X91410000Y-118153064D02*
X91745564Y-117817500D01*
X89849076Y-119133931D02*
X89887076Y-119133931D01*
X89097500Y-119197749D02*
X89097500Y-119138064D01*
X89773076Y-118966000D02*
X89773076Y-119057931D01*
X99502500Y-117145000D02*
X99965000Y-117607500D01*
X90039076Y-118890000D02*
X90077076Y-118890000D01*
X90691578Y-118890000D02*
X90973064Y-118890000D01*
X90973064Y-118890000D02*
X91410000Y-118453064D01*
X90077076Y-118890000D02*
X90691578Y-118890000D01*
X91410000Y-118453064D02*
X91410000Y-118153064D01*
X97818064Y-117145000D02*
X99502500Y-117145000D01*
X89887076Y-119133931D02*
G75*
G03*
X89963131Y-119057931I24J76031D01*
G01*
X89773076Y-119057931D02*
G75*
G03*
X89849076Y-119133924I76024J31D01*
G01*
X89963076Y-118966000D02*
G75*
G02*
X90039076Y-118889976I76024J0D01*
G01*
X89697076Y-118890000D02*
G75*
G02*
X89773100Y-118966000I24J-76000D01*
G01*
%TO.N,/emmc/USB_1_DN*%
X88877500Y-119046936D02*
X89254436Y-118670000D01*
X90881936Y-118670000D02*
X91190000Y-118361936D01*
X91190000Y-118361936D02*
X91190000Y-118061936D01*
X97054436Y-117597500D02*
X97726936Y-116925000D01*
X88737500Y-120147750D02*
X88737500Y-119337749D01*
X89254436Y-118670000D02*
X90881936Y-118670000D01*
X91190000Y-118061936D02*
X91654436Y-117597500D01*
X88877500Y-119197749D02*
X88877500Y-119046936D01*
X88737500Y-119337749D02*
X88877500Y-119197749D01*
X91654436Y-117597500D02*
X97054436Y-117597500D01*
X97726936Y-116925000D02*
X99502500Y-116925000D01*
X99502500Y-116925000D02*
X99960000Y-116467500D01*
D54*
%TO.N,Net-(U2-RST_N)*%
X85767500Y-134637500D02*
X85760000Y-134637500D01*
D55*
%TO.N,Net-(U3-LEG_EMU_EN)*%
X84630000Y-152930000D02*
X85922500Y-152930000D01*
X85922500Y-152930000D02*
X86000000Y-153007500D01*
%TO.N,Net-(U3-PME_L)*%
X92100000Y-142507500D02*
X92100000Y-143860000D01*
X92100000Y-142507500D02*
X92200000Y-142407500D01*
X92200000Y-142407500D02*
X92200000Y-142307500D01*
%TO.N,Net-(U3-IRQ12_O)*%
X81750000Y-151057500D02*
X81750000Y-151007500D01*
X84630000Y-152530000D02*
X83222500Y-152530000D01*
X83222500Y-152530000D02*
X81750000Y-151057500D01*
X81750000Y-151007500D02*
X82000000Y-150757500D01*
%TO.N,Net-(U3-IRQ12_I)*%
X85722500Y-151730000D02*
X86000000Y-152007500D01*
X84630000Y-151730000D02*
X85722500Y-151730000D01*
%TO.N,Net-(U3-SMBDATA)*%
X99600000Y-158707500D02*
X99300000Y-158707500D01*
X99300000Y-158707500D02*
X98807500Y-159200000D01*
X98807500Y-159200000D02*
X98500000Y-159200000D01*
%TO.N,Net-(U3-SCAN_EN)*%
X86077500Y-150930000D02*
X86500000Y-150507500D01*
X84630000Y-150930000D02*
X86077500Y-150930000D01*
%TO.N,Net-(U3-SMBCLK)*%
X85537611Y-153330000D02*
X84630000Y-153330000D01*
X86517444Y-153524944D02*
X85732555Y-153524944D01*
X86900000Y-153907500D02*
X86517444Y-153524944D01*
X85732555Y-153524944D02*
X85537611Y-153330000D01*
%TO.N,Net-(U3-IRQ1_I)*%
X86927500Y-151330000D02*
X87250000Y-151007500D01*
X84630000Y-151330000D02*
X86927500Y-151330000D01*
%TO.N,Net-(U3-TDI)*%
X83303750Y-156130000D02*
X84630000Y-156130000D01*
X82926250Y-156507500D02*
X83303750Y-156130000D01*
X82250000Y-156507500D02*
X82926250Y-156507500D01*
%TO.N,Net-(U3-SMI_O)*%
X85727500Y-150530000D02*
X84630000Y-150530000D01*
X86000000Y-150257500D02*
X85727500Y-150530000D01*
X86000000Y-149707500D02*
X86000000Y-150257500D01*
%TO.N,Net-(U3-TDO)*%
X82850000Y-154257500D02*
X83522500Y-154930000D01*
X82250000Y-154257500D02*
X82850000Y-154257500D01*
X83522500Y-154930000D02*
X84630000Y-154930000D01*
%TO.N,Net-(U3-IRQ1_O)*%
X83372500Y-152130000D02*
X83000000Y-151757500D01*
X83000000Y-151757500D02*
X83000000Y-151257500D01*
X84630000Y-152130000D02*
X83372500Y-152130000D01*
%TO.N,Net-(U3-TCK)*%
X85900000Y-154907500D02*
X85477500Y-155330000D01*
X85477500Y-155330000D02*
X84630000Y-155330000D01*
D53*
%TO.N,/thread-or-zigbee/UART_TX*%
X94427630Y-96657500D02*
X94237500Y-96467370D01*
X93650000Y-89057500D02*
X93950000Y-89357500D01*
X93930000Y-96137500D02*
X93380000Y-96137500D01*
X94237500Y-96445000D02*
X93930000Y-96137500D01*
X92650000Y-89457500D02*
X93050000Y-89057500D01*
X94857500Y-96657500D02*
X94427630Y-96657500D01*
X93050000Y-89057500D02*
X93600000Y-89057500D01*
X94237500Y-96467370D02*
X94237500Y-96445000D01*
X93380000Y-96137500D02*
X93300000Y-96057500D01*
X93600000Y-89057500D02*
X93650000Y-89057500D01*
%TO.N,/thread-or-zigbee/UART_RX*%
X93999534Y-88657500D02*
X94550000Y-89207966D01*
X94550000Y-89207966D02*
X94550000Y-90107500D01*
X94000000Y-95829870D02*
X94000000Y-95607500D01*
X94550000Y-90107500D02*
X94400000Y-90257500D01*
X92150000Y-88857500D02*
X92350000Y-88657500D01*
X94857500Y-96257500D02*
X94427630Y-96257500D01*
X92350000Y-88657500D02*
X92800000Y-88657500D01*
X92800000Y-88657500D02*
X93999534Y-88657500D01*
X94427630Y-96257500D02*
X94000000Y-95829870D01*
X92150000Y-89457500D02*
X92150000Y-88857500D01*
%TO.N,/thread-or-zigbee/XTAL2*%
X101150000Y-93257500D02*
X100375000Y-93257500D01*
X101250000Y-94107500D02*
X101250000Y-93357500D01*
X101100000Y-94257500D02*
X101250000Y-94107500D01*
X101250000Y-93357500D02*
X101150000Y-93257500D01*
X98847500Y-94257500D02*
X101100000Y-94257500D01*
%TO.N,/thread-or-zigbee/SWDIO*%
X92650006Y-95057500D02*
X92600006Y-95007500D01*
X94857500Y-95057500D02*
X92650006Y-95057500D01*
%TO.N,/thread-or-zigbee/SWCLK*%
X93392919Y-94657500D02*
X92885218Y-94149799D01*
X94857500Y-94657500D02*
X93392919Y-94657500D01*
%TO.N,/thread-or-zigbee/XTAL1*%
X101225000Y-94657500D02*
X102125000Y-95557500D01*
X98847500Y-94657500D02*
X101225000Y-94657500D01*
D54*
%TO.N,Net-(J5-B)*%
X84550000Y-115457500D02*
X84275000Y-115182500D01*
X84275000Y-115182500D02*
X81725000Y-115182500D01*
D53*
%TO.N,/pcie-usb-bridge/USB_2_DP*%
X99784818Y-139292318D02*
X99784818Y-138634709D01*
X91590000Y-130861936D02*
X92329436Y-130122500D01*
X99467609Y-138317500D02*
X98254436Y-138317500D01*
X93084999Y-130122500D02*
X93224999Y-129982500D01*
X92554436Y-136917500D02*
X91590000Y-135953064D01*
X99784818Y-138634709D02*
X99467609Y-138317500D01*
X92329436Y-130122500D02*
X93084999Y-130122500D01*
X93224999Y-129982500D02*
X94035000Y-129982500D01*
X98254436Y-138317500D02*
X96854436Y-136917500D01*
X91590000Y-135953064D02*
X91590000Y-130861936D01*
X96854436Y-136917500D02*
X92554436Y-136917500D01*
%TO.N,/pcie-usb-bridge/USB_3_DP*%
X90050000Y-91257500D02*
X90350000Y-91257500D01*
X89454436Y-91397500D02*
X89910000Y-91397500D01*
X89254436Y-91597500D02*
X89454436Y-91397500D01*
X89910000Y-91397500D02*
X90050000Y-91257500D01*
X88400000Y-91307500D02*
X88690000Y-91597500D01*
X88690000Y-91597500D02*
X89254436Y-91597500D01*
%TO.N,/pcie-usb-bridge/USB_4_DP*%
X83770000Y-96657500D02*
X83630000Y-96797500D01*
X83630000Y-96797500D02*
X83390000Y-96797500D01*
X83390000Y-96797500D02*
X83100000Y-96507500D01*
X84045000Y-96657500D02*
X83770000Y-96657500D01*
%TO.N,/pcie-usb-bridge/USB_2_DN*%
X100597991Y-138479145D02*
X99940382Y-138479145D01*
X96945564Y-136697500D02*
X92645564Y-136697500D01*
X92420564Y-130342500D02*
X93084999Y-130342500D01*
X98345564Y-138097500D02*
X96945564Y-136697500D01*
X93084999Y-130342500D02*
X93224999Y-130482500D01*
X99558737Y-138097500D02*
X98345564Y-138097500D01*
X91810000Y-135861936D02*
X91810000Y-130953064D01*
X93224999Y-130482500D02*
X94035000Y-130482500D01*
X92645564Y-136697500D02*
X91810000Y-135861936D01*
X91810000Y-130953064D02*
X92420564Y-130342500D01*
X99940382Y-138479145D02*
X99558737Y-138097500D01*
%TO.N,/pcie-usb-bridge/USB_3_DN*%
X89345564Y-91817500D02*
X89545564Y-91617500D01*
X89545564Y-91617500D02*
X89910000Y-91617500D01*
X89910000Y-91617500D02*
X90050000Y-91757500D01*
X90050000Y-91757500D02*
X90350000Y-91757500D01*
X88690000Y-91817500D02*
X89345564Y-91817500D01*
X88400000Y-92107500D02*
X88690000Y-91817500D01*
%TO.N,/pcie-usb-bridge/USB_4_DN*%
X83390000Y-97017500D02*
X83100000Y-97307500D01*
X83770000Y-97157500D02*
X83630000Y-97017500D01*
X83630000Y-97017500D02*
X83390000Y-97017500D01*
X84045000Y-97157500D02*
X83770000Y-97157500D01*
%TO.N,/pcie-usb-bridge/R_USB_1_DP*%
X87790000Y-143150000D02*
X87700000Y-143240000D01*
X87320000Y-141717500D02*
X87320000Y-141737500D01*
X87700000Y-143240000D02*
X87700000Y-143860000D01*
X87320000Y-141737500D02*
X87790000Y-142207500D01*
X87790000Y-142207500D02*
X87790000Y-143150000D01*
%TO.N,/pcie-usb-bridge/R_USB_2_DP*%
X90590000Y-143150000D02*
X90500000Y-143240000D01*
X90120000Y-141737500D02*
X90590000Y-142207500D01*
X90500000Y-143240000D02*
X90500000Y-143860000D01*
X90120000Y-141717500D02*
X90120000Y-141737500D01*
X90590000Y-142207500D02*
X90590000Y-143150000D01*
%TO.N,/pcie-usb-bridge/R_USB_3_DP*%
X101494000Y-145374000D02*
X101466895Y-145374000D01*
X101590000Y-145038000D02*
X101590000Y-144990000D01*
X101590000Y-145518000D02*
X101590000Y-145470000D01*
X101162501Y-146620000D02*
X101431936Y-146620000D01*
X99970000Y-146530000D02*
X101072501Y-146530000D01*
X101590000Y-144600000D02*
X101590000Y-140439891D01*
X101590000Y-144990000D02*
X101590000Y-144600000D01*
X101431936Y-146620000D02*
X101590000Y-146461936D01*
X101466909Y-145614000D02*
X101494000Y-145614000D01*
X101370909Y-145758000D02*
X101370909Y-145710000D01*
X101057609Y-139907500D02*
X100400000Y-139907500D01*
X101590000Y-146461936D02*
X101590000Y-145950000D01*
X101466895Y-145134000D02*
X101494000Y-145134000D01*
X101370895Y-145278000D02*
X101370895Y-145230000D01*
X101494000Y-145854000D02*
X101466909Y-145854000D01*
X101072501Y-146530000D02*
X101162501Y-146620000D01*
X101590000Y-140439891D02*
X101057609Y-139907500D01*
X101370909Y-145710000D02*
G75*
G02*
X101466909Y-145614009I95991J0D01*
G01*
X101494000Y-145134000D02*
G75*
G03*
X101590000Y-145038000I0J96000D01*
G01*
X101590000Y-145470000D02*
G75*
G03*
X101494000Y-145374000I-96000J0D01*
G01*
X101466909Y-145854000D02*
G75*
G02*
X101370900Y-145758000I-9J96000D01*
G01*
X101590000Y-145950000D02*
G75*
G03*
X101494000Y-145854000I-96000J0D01*
G01*
X101494000Y-145614000D02*
G75*
G03*
X101590000Y-145518000I0J96000D01*
G01*
X101466895Y-145374000D02*
G75*
G02*
X101370900Y-145278000I5J96000D01*
G01*
X101370895Y-145230000D02*
G75*
G02*
X101466895Y-145133995I96005J0D01*
G01*
%TO.N,/pcie-usb-bridge/R_USB_4_DP*%
X102200000Y-118619664D02*
X102200000Y-118644049D01*
X102007995Y-117631664D02*
X102007995Y-117669664D01*
X102083995Y-118505664D02*
X102124000Y-118505664D01*
X101292500Y-117150000D02*
X102056936Y-117150000D01*
X102056936Y-117150000D02*
X102200000Y-117293064D01*
X102200000Y-149671936D02*
X102051936Y-149820000D01*
X102200000Y-117821664D02*
X102200000Y-117859664D01*
X101162501Y-149820000D02*
X101072501Y-149730000D01*
X102124000Y-117555664D02*
X102083995Y-117555664D01*
X102200000Y-118581664D02*
X102200000Y-118619664D01*
X102083995Y-118125664D02*
X102124000Y-118125664D01*
X102007995Y-118011664D02*
X102007995Y-118049664D01*
X102083995Y-117745664D02*
X102124000Y-117745664D01*
X102124000Y-118315664D02*
X102083995Y-118315664D01*
X102051936Y-149820000D02*
X101162501Y-149820000D01*
X102124000Y-117935664D02*
X102083995Y-117935664D01*
X102200000Y-117293064D02*
X102200000Y-117479664D01*
X102200000Y-118201664D02*
X102200000Y-118239664D01*
X100835000Y-117607500D02*
X101292500Y-117150000D01*
X102007995Y-118391664D02*
X102007995Y-118429664D01*
X101072501Y-149730000D02*
X99970000Y-149730000D01*
X102200000Y-118644049D02*
X102200000Y-149671936D01*
X102007995Y-118429664D02*
G75*
G03*
X102083995Y-118505705I76005J-36D01*
G01*
X102124000Y-118125664D02*
G75*
G02*
X102200036Y-118201664I0J-76036D01*
G01*
X102007995Y-117669664D02*
G75*
G03*
X102083995Y-117745705I76005J-36D01*
G01*
X102007995Y-118049664D02*
G75*
G03*
X102083995Y-118125705I76005J-36D01*
G01*
X102083995Y-117555664D02*
G75*
G03*
X102007964Y-117631664I5J-76036D01*
G01*
X102083995Y-117935664D02*
G75*
G03*
X102007964Y-118011664I5J-76036D01*
G01*
X102200000Y-117859664D02*
G75*
G02*
X102124000Y-117935700I-76000J-36D01*
G01*
X102200000Y-118239664D02*
G75*
G02*
X102124000Y-118315700I-76000J-36D01*
G01*
X102083995Y-118315664D02*
G75*
G03*
X102007964Y-118391664I5J-76036D01*
G01*
X102200000Y-117479664D02*
G75*
G02*
X102124000Y-117555700I-76000J-36D01*
G01*
X102124000Y-117745664D02*
G75*
G02*
X102200036Y-117821664I0J-76036D01*
G01*
X102124000Y-118505664D02*
G75*
G02*
X102200036Y-118581664I0J-76036D01*
G01*
%TO.N,/pcie-usb-bridge/R_USB_1_DN*%
X88480000Y-141717500D02*
X88480000Y-141737500D01*
X88010000Y-143150000D02*
X88100000Y-143240000D01*
X88010000Y-142207500D02*
X88010000Y-143150000D01*
X88480000Y-141737500D02*
X88010000Y-142207500D01*
X88100000Y-143240000D02*
X88100000Y-143860000D01*
%TO.N,/pcie-usb-bridge/R_USB_2_DN*%
X90900000Y-143240000D02*
X90900000Y-143860000D01*
X90810000Y-142207500D02*
X90810000Y-143150000D01*
X91280000Y-141717500D02*
X91280000Y-141737500D01*
X90810000Y-143150000D02*
X90900000Y-143240000D01*
X91280000Y-141737500D02*
X90810000Y-142207500D01*
%TO.N,/pcie-usb-bridge/R_USB_3_DN*%
X101810000Y-140348763D02*
X101810000Y-146553064D01*
X101523064Y-146840000D02*
X101162501Y-146840000D01*
X101072501Y-146930000D02*
X99970000Y-146930000D01*
X101162501Y-146840000D02*
X101072501Y-146930000D01*
X101213173Y-139094327D02*
X101213173Y-139751936D01*
X101213173Y-139751936D02*
X101810000Y-140348763D01*
X101810000Y-146553064D02*
X101523064Y-146840000D01*
%TO.N,/pcie-usb-bridge/R_USB_4_DN*%
X102450000Y-117231936D02*
X102148064Y-116930000D01*
X102143064Y-150040000D02*
X102450000Y-149733064D01*
X101292500Y-116930000D02*
X100830000Y-116467500D01*
X101162501Y-150040000D02*
X102143064Y-150040000D01*
X102450000Y-149733064D02*
X102450000Y-117231936D01*
X102148064Y-116930000D02*
X101292500Y-116930000D01*
X101072501Y-150130000D02*
X101162501Y-150040000D01*
X99970000Y-150130000D02*
X101072501Y-150130000D01*
D58*
%TO.N,/PCIE.REFCLKN*%
X85300001Y-160107501D02*
X85592500Y-160400000D01*
X86644528Y-161992500D02*
X87344528Y-161992500D01*
X85592500Y-160400000D02*
X85852028Y-160400000D01*
X85852028Y-160400000D02*
X86307500Y-160855472D01*
X86307500Y-161655472D02*
X86644528Y-161992500D01*
X88107500Y-163494999D02*
X88250000Y-163637499D01*
X85300000Y-160107501D02*
X85300001Y-160107501D01*
X88250000Y-163637499D02*
X88250000Y-164725000D01*
X86307500Y-160855472D02*
X86307500Y-161655472D01*
X88107500Y-162755472D02*
X88107500Y-163494999D01*
X87344528Y-161992500D02*
X88107500Y-162755472D01*
%TO.N,/PCIE.REFCLKP*%
X86092500Y-160944528D02*
X86092500Y-161744528D01*
X85592500Y-160615000D02*
X85762972Y-160615000D01*
X85300000Y-160907500D02*
X85592500Y-160615000D01*
X85762972Y-160615000D02*
X86092500Y-160944528D01*
X86092500Y-161744528D02*
X86555472Y-162207500D01*
X87892500Y-163494999D02*
X87750000Y-163637499D01*
X87750000Y-163637499D02*
X87750000Y-164725000D01*
X87892500Y-162844528D02*
X87892500Y-163494999D01*
X87255472Y-162207500D02*
X87892500Y-162844528D01*
X86555472Y-162207500D02*
X87255472Y-162207500D01*
%TO.N,/PCIE.PETP*%
X89392500Y-159912500D02*
X89300000Y-159820000D01*
X89300000Y-159820000D02*
X89300000Y-159200000D01*
X89392500Y-160352500D02*
X89392500Y-159912500D01*
X88900000Y-160845000D02*
X89392500Y-160352500D01*
X88900000Y-160865000D02*
X88900000Y-160845000D01*
%TO.N,/PCIE.PETN*%
X90100000Y-160865000D02*
X90100000Y-160845000D01*
X90100000Y-160845000D02*
X89607500Y-160352500D01*
X89700000Y-159820000D02*
X89700000Y-159200000D01*
X89607500Y-160352500D02*
X89607500Y-159912500D01*
X89607500Y-159912500D02*
X89700000Y-159820000D01*
%TO.N,/PCIE.PERP*%
X91347972Y-160800000D02*
X90892500Y-161255472D01*
X90892500Y-164032500D02*
X90750000Y-164175000D01*
X90750000Y-164175000D02*
X90750000Y-164725000D01*
X91807499Y-160800000D02*
X91347972Y-160800000D01*
X87700000Y-159820000D02*
X87700000Y-159200000D01*
X87792500Y-160372972D02*
X87792500Y-159912500D01*
X87670815Y-160494657D02*
X87792500Y-160372972D01*
X92100000Y-160507499D02*
X91807499Y-160800000D01*
X87792500Y-159912500D02*
X87700000Y-159820000D01*
X87257157Y-160494657D02*
X87670815Y-160494657D01*
X90892500Y-161255472D02*
X90892500Y-164032500D01*
%TO.N,/PCIE.PERN*%
X91107500Y-161932259D02*
X91107500Y-161990259D01*
X87822843Y-161060343D02*
X87822843Y-160646685D01*
X91223500Y-161526259D02*
X91269136Y-161526259D01*
X91107500Y-164032500D02*
X91250000Y-164175000D01*
X91385136Y-161642259D02*
X91385136Y-161700259D01*
X92100000Y-161307500D02*
X92099999Y-161307500D01*
X91107500Y-162960000D02*
X91107500Y-164032500D01*
X88100000Y-159820000D02*
X88100000Y-159200000D01*
X91807499Y-161015000D02*
X91437028Y-161015000D01*
X91269136Y-161816259D02*
X91223500Y-161816259D01*
X88007500Y-159912500D02*
X88100000Y-159820000D01*
X91250000Y-164175000D02*
X91250000Y-164725000D01*
X91107500Y-161344528D02*
X91107500Y-161410259D01*
X87822843Y-160646685D02*
X88007500Y-160462028D01*
X91437028Y-161015000D02*
X91107500Y-161344528D01*
X92099999Y-161307500D02*
X91807499Y-161015000D01*
X88007500Y-160462028D02*
X88007500Y-159912500D01*
X91107500Y-161990259D02*
X91107500Y-162960000D01*
X91107500Y-161410259D02*
G75*
G03*
X91223500Y-161526300I116000J-41D01*
G01*
X91269136Y-161526259D02*
G75*
G02*
X91385141Y-161642259I-36J-116041D01*
G01*
X91385136Y-161700259D02*
G75*
G02*
X91269136Y-161816336I-116036J-41D01*
G01*
X91223500Y-161816259D02*
G75*
G03*
X91107459Y-161932259I0J-116041D01*
G01*
%TO.N,/PCIE.CAP.PETP*%
X89392500Y-164032500D02*
X89250000Y-164175000D01*
X88900000Y-161755000D02*
X89392500Y-162247500D01*
X89392500Y-162247500D02*
X89392500Y-164032500D01*
X89250000Y-164175000D02*
X89250000Y-164725000D01*
X88900000Y-161735000D02*
X88900000Y-161755000D01*
%TO.N,/PCIE.CAP.PETN*%
X90100000Y-161755000D02*
X89607500Y-162247500D01*
X89750000Y-164175000D02*
X89750000Y-164725000D01*
X90100000Y-161735000D02*
X90100000Y-161755000D01*
X89607500Y-162247500D02*
X89607500Y-164032500D01*
X89607500Y-164032500D02*
X89750000Y-164175000D01*
%TO.N,/pcie-usb-bridge/PCIE.REFCLK2N*%
X93607500Y-158487500D02*
X93607500Y-156592500D01*
X93607500Y-156592500D02*
X93900000Y-156300000D01*
X93700000Y-159200000D02*
X93700000Y-158580000D01*
X93700000Y-158580000D02*
X93607500Y-158487500D01*
%TO.N,/pcie-usb-bridge/PCIE.REFCLK2P*%
X93392500Y-158487500D02*
X93392500Y-156592500D01*
X93392500Y-156592500D02*
X93100000Y-156300000D01*
X93300000Y-158580000D02*
X93392500Y-158487500D01*
X93300000Y-159200000D02*
X93300000Y-158580000D01*
D55*
%TO.N,+3V3_eMMC*%
X85767500Y-136875000D02*
X86100000Y-137207500D01*
X85767500Y-136637500D02*
X85767500Y-136875000D01*
%TO.N,GND*%
X86957500Y-137327500D02*
X86267500Y-136637500D01*
%TD*%
%TA.AperFunction,Conductor*%
%TO.N,GND*%
G36*
X83910428Y-160821674D02*
G01*
X83921556Y-160835927D01*
X84463954Y-161739923D01*
X84474500Y-161777996D01*
X84474500Y-163175942D01*
X84452826Y-163228268D01*
X84058829Y-163622264D01*
X84051092Y-163640943D01*
X84035052Y-163664947D01*
X84000000Y-163699998D01*
X84000000Y-163829555D01*
X83978326Y-163881881D01*
X83967116Y-163891081D01*
X83966498Y-163891493D01*
X83966495Y-163891496D01*
X83933233Y-163941277D01*
X83924500Y-163985180D01*
X83924500Y-165226000D01*
X83902826Y-165278326D01*
X83850500Y-165300000D01*
X83149500Y-165300000D01*
X83097174Y-165278326D01*
X83075500Y-165226000D01*
X83075500Y-163985180D01*
X83066767Y-163941278D01*
X83033504Y-163891496D01*
X83033501Y-163891493D01*
X83032884Y-163891081D01*
X83032471Y-163890463D01*
X83028351Y-163886343D01*
X83029170Y-163885523D01*
X83001421Y-163843987D01*
X83000000Y-163829555D01*
X83000000Y-163676296D01*
X83021674Y-163623970D01*
X83074000Y-163602296D01*
X83085567Y-163603206D01*
X83100000Y-163605492D01*
X83225304Y-163585646D01*
X83338342Y-163528050D01*
X83428050Y-163438342D01*
X83485646Y-163325304D01*
X83505492Y-163200000D01*
X83485646Y-163074696D01*
X83428050Y-162961658D01*
X83418718Y-162952326D01*
X83397044Y-162900000D01*
X83418718Y-162847674D01*
X83428050Y-162838342D01*
X83485646Y-162725304D01*
X83505492Y-162600000D01*
X83485646Y-162474696D01*
X83428050Y-162361658D01*
X83338342Y-162271950D01*
X83225304Y-162214354D01*
X83225302Y-162214353D01*
X83225301Y-162214353D01*
X83100000Y-162194508D01*
X83099997Y-162194508D01*
X83085574Y-162196792D01*
X83030502Y-162183569D01*
X83000911Y-162135277D01*
X83000000Y-162123703D01*
X83000000Y-160936677D01*
X83021674Y-160884351D01*
X83052359Y-160867951D01*
X83051989Y-160867056D01*
X83058718Y-160864267D01*
X83058722Y-160864267D01*
X83108504Y-160831004D01*
X83108506Y-160831000D01*
X83113658Y-160825850D01*
X83115308Y-160827500D01*
X83154334Y-160801423D01*
X83168774Y-160800000D01*
X83858102Y-160800000D01*
X83910428Y-160821674D01*
G37*
%TD.AperFunction*%
%TD*%
%TA.AperFunction,Conductor*%
%TO.N,+3V3_Thread*%
G36*
X96285039Y-97277185D02*
G01*
X96330794Y-97329989D01*
X96342000Y-97381500D01*
X96342000Y-98024402D01*
X96354780Y-98088654D01*
X96354781Y-98088656D01*
X96354782Y-98088657D01*
X96379102Y-98125054D01*
X96383549Y-98139258D01*
X96397001Y-98154175D01*
X96400092Y-98158145D01*
X96402819Y-98160872D01*
X96407231Y-98165518D01*
X96411540Y-98170296D01*
X96422527Y-98174259D01*
X96476343Y-98210218D01*
X96476344Y-98210219D01*
X96540597Y-98222999D01*
X96540600Y-98223000D01*
X96540602Y-98223000D01*
X96764399Y-98223000D01*
X96779925Y-98219911D01*
X96828310Y-98210287D01*
X96876690Y-98210287D01*
X96925074Y-98219911D01*
X96940601Y-98223000D01*
X97022356Y-98223000D01*
X97035203Y-98223667D01*
X98688848Y-98395921D01*
X98753486Y-98422446D01*
X98793524Y-98479706D01*
X98800000Y-98519254D01*
X98800000Y-99133500D01*
X98780315Y-99200539D01*
X98727511Y-99246294D01*
X98676000Y-99257500D01*
X95324000Y-99257500D01*
X95256961Y-99237815D01*
X95211206Y-99185011D01*
X95200000Y-99133500D01*
X95200000Y-98579985D01*
X95207895Y-98536446D01*
X95214342Y-98519254D01*
X95350000Y-98157500D01*
X95350000Y-97381500D01*
X95369685Y-97314461D01*
X95422489Y-97268706D01*
X95474000Y-97257500D01*
X96218000Y-97257500D01*
X96285039Y-97277185D01*
G37*
%TD.AperFunction*%
%TD*%
%TA.AperFunction,Conductor*%
%TO.N,+3V3_Bridge*%
G36*
X98878326Y-160229174D02*
G01*
X98900000Y-160281500D01*
X98900000Y-161066048D01*
X98878326Y-161118374D01*
X98870238Y-161125369D01*
X98861332Y-161132010D01*
X98861321Y-161132021D01*
X98811452Y-161195191D01*
X98780955Y-161266042D01*
X98780954Y-161266044D01*
X98769913Y-161305091D01*
X98769911Y-161305101D01*
X98766867Y-161325990D01*
X98760122Y-161347817D01*
X98744848Y-161379061D01*
X98744834Y-161379091D01*
X98741314Y-161386289D01*
X98727163Y-161406106D01*
X98698607Y-161434662D01*
X98678782Y-161448817D01*
X98640316Y-161467622D01*
X98618487Y-161474367D01*
X98602301Y-161476726D01*
X98591629Y-161477500D01*
X98158370Y-161477500D01*
X98147700Y-161476727D01*
X98131511Y-161474368D01*
X98109684Y-161467623D01*
X98071211Y-161448815D01*
X98051392Y-161434663D01*
X98016774Y-161400045D01*
X98006551Y-161387259D01*
X98001388Y-161379091D01*
X98000012Y-161376913D01*
X98000009Y-161376910D01*
X98000005Y-161376903D01*
X97959902Y-161326544D01*
X97959899Y-161326541D01*
X97901483Y-161281344D01*
X97901481Y-161281343D01*
X97901480Y-161281342D01*
X97874071Y-161269144D01*
X97870567Y-161267473D01*
X97845295Y-161254596D01*
X97837745Y-161250749D01*
X97837742Y-161250748D01*
X97836718Y-161250226D01*
X97836687Y-161250208D01*
X97833907Y-161248882D01*
X97825042Y-161246001D01*
X97822305Y-161245052D01*
X97803454Y-161238098D01*
X97803453Y-161238097D01*
X97803451Y-161238097D01*
X97767051Y-161229357D01*
X97735804Y-161221855D01*
X97735803Y-161221855D01*
X97674966Y-161222650D01*
X97622363Y-161201663D01*
X97600006Y-161149625D01*
X97600000Y-161148657D01*
X97600000Y-160281500D01*
X97621674Y-160229174D01*
X97674000Y-160207500D01*
X98826000Y-160207500D01*
X98878326Y-160229174D01*
G37*
%TD.AperFunction*%
%TD*%
%TA.AperFunction,Conductor*%
%TO.N,+3V3*%
G36*
X100778326Y-160229174D02*
G01*
X100800000Y-160281500D01*
X100800000Y-161407500D01*
X101057942Y-161407500D01*
X101110268Y-161429174D01*
X101182671Y-161501577D01*
X101182673Y-161501578D01*
X101252826Y-161571731D01*
X101274500Y-161624057D01*
X101274500Y-161744763D01*
X101252826Y-161797089D01*
X101200500Y-161818763D01*
X101177632Y-161815141D01*
X101106850Y-161792142D01*
X101080055Y-161790737D01*
X101026468Y-161787929D01*
X101026467Y-161787929D01*
X101026466Y-161787929D01*
X100983372Y-161797089D01*
X100951027Y-161803964D01*
X100936577Y-161809080D01*
X100912763Y-161817513D01*
X100874459Y-161837029D01*
X100860033Y-161842568D01*
X100858797Y-161842899D01*
X100858796Y-161842899D01*
X100807636Y-161867301D01*
X100745237Y-161912637D01*
X100745235Y-161912639D01*
X100694587Y-161975185D01*
X100694583Y-161975191D01*
X100663215Y-162045644D01*
X100663213Y-162045650D01*
X100651687Y-162084559D01*
X100651685Y-162084569D01*
X100637745Y-162172577D01*
X100630591Y-162194595D01*
X100606000Y-162242858D01*
X100592391Y-162261589D01*
X100554088Y-162299892D01*
X100535358Y-162313500D01*
X100502501Y-162330241D01*
X100488430Y-162338365D01*
X100488401Y-162338383D01*
X100462296Y-162355336D01*
X100462288Y-162355342D01*
X100437112Y-162379234D01*
X100430167Y-162385826D01*
X100428743Y-162387177D01*
X100377804Y-162407500D01*
X100210036Y-162407500D01*
X100157710Y-162385826D01*
X100136036Y-162333500D01*
X100140951Y-162306980D01*
X100152995Y-162275605D01*
X100154468Y-162261589D01*
X100161058Y-162198901D01*
X100159995Y-162158315D01*
X100157083Y-162139933D01*
X100153779Y-162119072D01*
X100153779Y-162095923D01*
X100162254Y-162042416D01*
X100169406Y-162020403D01*
X100205161Y-161950232D01*
X100209037Y-161943522D01*
X100209175Y-161943308D01*
X100210546Y-161941199D01*
X100230340Y-161896746D01*
X100250302Y-161822246D01*
X100250302Y-161741754D01*
X100250302Y-161741752D01*
X100250301Y-161741751D01*
X100228660Y-161660983D01*
X100222978Y-161654504D01*
X100190093Y-161597545D01*
X100190091Y-161597542D01*
X100135555Y-161543007D01*
X100135552Y-161543005D01*
X100065847Y-161502760D01*
X100065842Y-161502758D01*
X99991355Y-161482799D01*
X99991342Y-161482797D01*
X99951100Y-161477500D01*
X99808370Y-161477500D01*
X99797700Y-161476727D01*
X99781511Y-161474368D01*
X99759684Y-161467623D01*
X99721216Y-161448817D01*
X99701392Y-161434663D01*
X99672834Y-161406105D01*
X99658679Y-161386279D01*
X99639877Y-161347818D01*
X99633131Y-161325986D01*
X99630089Y-161305101D01*
X99623113Y-161276522D01*
X99604708Y-161223504D01*
X99567763Y-161164545D01*
X99567762Y-161164544D01*
X99567759Y-161164540D01*
X99513225Y-161110007D01*
X99513222Y-161110005D01*
X99439316Y-161067335D01*
X99440427Y-161065409D01*
X99405626Y-161030590D01*
X99400000Y-161002289D01*
X99400000Y-160281500D01*
X99421674Y-160229174D01*
X99474000Y-160207500D01*
X100726000Y-160207500D01*
X100778326Y-160229174D01*
G37*
%TD.AperFunction*%
%TD*%
%TA.AperFunction,Conductor*%
%TO.N,GND*%
G36*
X93445591Y-161219962D02*
G01*
X93479771Y-161251975D01*
X93481119Y-161250628D01*
X93491498Y-161261007D01*
X93541273Y-161294265D01*
X93541274Y-161294265D01*
X93541278Y-161294268D01*
X93585180Y-161303001D01*
X93585184Y-161303001D01*
X94214816Y-161303001D01*
X94214820Y-161303001D01*
X94258722Y-161294268D01*
X94308504Y-161261005D01*
X94308506Y-161261001D01*
X94318881Y-161250628D01*
X94320711Y-161252458D01*
X94363014Y-161215363D01*
X94428909Y-161200000D01*
X94519344Y-161200000D01*
X94593844Y-161219962D01*
X94643233Y-161266220D01*
X94643234Y-161266222D01*
X94671703Y-161308829D01*
X94676498Y-161316005D01*
X94676499Y-161316006D01*
X94726274Y-161349264D01*
X94726275Y-161349264D01*
X94726279Y-161349267D01*
X94770181Y-161358000D01*
X94770185Y-161358000D01*
X95359817Y-161358000D01*
X95359821Y-161358000D01*
X95403723Y-161349267D01*
X95417221Y-161340247D01*
X95490253Y-161315456D01*
X95565899Y-161330502D01*
X95582770Y-161340242D01*
X95596277Y-161349267D01*
X95640179Y-161358000D01*
X95640183Y-161358000D01*
X96229815Y-161358000D01*
X96229819Y-161358000D01*
X96273721Y-161349267D01*
X96323503Y-161316004D01*
X96356766Y-161266222D01*
X96356766Y-161266220D01*
X96414754Y-161215366D01*
X96480656Y-161200000D01*
X96519646Y-161200000D01*
X96594146Y-161219962D01*
X96648684Y-161274500D01*
X96668646Y-161349000D01*
X96660631Y-161389291D01*
X96661096Y-161389384D01*
X96649500Y-161447675D01*
X96649500Y-162037322D01*
X96658232Y-162081218D01*
X96658235Y-162081225D01*
X96691493Y-162131000D01*
X96691498Y-162131005D01*
X96741273Y-162164263D01*
X96741275Y-162164264D01*
X96741278Y-162164266D01*
X96754568Y-162166909D01*
X96823740Y-162201020D01*
X96866591Y-162265148D01*
X96874500Y-162313046D01*
X96874500Y-162744876D01*
X96854538Y-162819376D01*
X96830859Y-162850235D01*
X96058829Y-163622264D01*
X96052265Y-163638113D01*
X96052264Y-163638116D01*
X96024498Y-163705144D01*
X96021636Y-163719537D01*
X96019511Y-163719114D01*
X96004537Y-163775000D01*
X95949999Y-163829538D01*
X95875499Y-163849500D01*
X95560180Y-163849500D01*
X95560177Y-163849500D01*
X95560171Y-163849501D01*
X95529067Y-163855688D01*
X95470933Y-163855688D01*
X95439828Y-163849501D01*
X95439822Y-163849500D01*
X95439820Y-163849500D01*
X95060180Y-163849500D01*
X95060176Y-163849500D01*
X95016280Y-163858232D01*
X95016273Y-163858235D01*
X94966498Y-163891493D01*
X94966493Y-163891498D01*
X94933235Y-163941273D01*
X94933232Y-163941280D01*
X94924500Y-163985176D01*
X94924500Y-165151000D01*
X94904538Y-165225500D01*
X94850000Y-165280038D01*
X94775500Y-165300000D01*
X94724500Y-165300000D01*
X94650000Y-165280038D01*
X94595462Y-165225500D01*
X94575500Y-165151000D01*
X94575500Y-163985184D01*
X94575499Y-163985176D01*
X94566767Y-163941280D01*
X94566767Y-163941278D01*
X94566764Y-163941273D01*
X94533506Y-163891498D01*
X94533501Y-163891493D01*
X94483726Y-163858235D01*
X94483723Y-163858233D01*
X94483722Y-163858233D01*
X94483720Y-163858232D01*
X94483719Y-163858232D01*
X94439823Y-163849500D01*
X94439820Y-163849500D01*
X94060180Y-163849500D01*
X94060177Y-163849500D01*
X94060171Y-163849501D01*
X94029067Y-163855688D01*
X93970933Y-163855688D01*
X93939828Y-163849501D01*
X93939822Y-163849500D01*
X93939820Y-163849500D01*
X93560180Y-163849500D01*
X93560176Y-163849500D01*
X93516280Y-163858232D01*
X93516273Y-163858235D01*
X93466498Y-163891493D01*
X93466493Y-163891498D01*
X93433235Y-163941273D01*
X93433232Y-163941280D01*
X93424500Y-163985176D01*
X93424500Y-165151000D01*
X93404538Y-165225500D01*
X93350000Y-165280038D01*
X93275500Y-165300000D01*
X93224500Y-165300000D01*
X93150000Y-165280038D01*
X93095462Y-165225500D01*
X93075500Y-165151000D01*
X93075500Y-163985184D01*
X93075499Y-163985176D01*
X93066767Y-163941280D01*
X93066767Y-163941278D01*
X93066764Y-163941273D01*
X93033506Y-163891498D01*
X93033501Y-163891493D01*
X92983726Y-163858235D01*
X92983723Y-163858233D01*
X92983722Y-163858233D01*
X92983720Y-163858232D01*
X92983719Y-163858232D01*
X92939823Y-163849500D01*
X92939820Y-163849500D01*
X92560180Y-163849500D01*
X92560177Y-163849500D01*
X92560171Y-163849501D01*
X92529067Y-163855688D01*
X92470933Y-163855688D01*
X92439828Y-163849501D01*
X92439822Y-163849500D01*
X92439820Y-163849500D01*
X92060180Y-163849500D01*
X92060176Y-163849500D01*
X92016280Y-163858232D01*
X92016273Y-163858235D01*
X91966498Y-163891493D01*
X91966493Y-163891498D01*
X91933235Y-163941273D01*
X91933232Y-163941280D01*
X91924500Y-163985176D01*
X91924500Y-165151000D01*
X91904538Y-165225500D01*
X91850000Y-165280038D01*
X91775500Y-165300000D01*
X91724500Y-165300000D01*
X91650000Y-165280038D01*
X91595462Y-165225500D01*
X91575500Y-165151000D01*
X91575500Y-163985184D01*
X91575499Y-163985176D01*
X91566767Y-163941280D01*
X91566766Y-163941276D01*
X91525351Y-163879295D01*
X91529225Y-163876706D01*
X91504997Y-163834539D01*
X91500000Y-163796274D01*
X91500000Y-163179741D01*
X91519962Y-163105241D01*
X91566345Y-163055769D01*
X92700000Y-162300000D01*
X92700000Y-161349000D01*
X92719962Y-161274500D01*
X92774500Y-161219962D01*
X92849000Y-161200000D01*
X93371091Y-161200000D01*
X93445591Y-161219962D01*
G37*
%TD.AperFunction*%
%TA.AperFunction,Conductor*%
G36*
X99403270Y-161219962D02*
G01*
X99457808Y-161274500D01*
X99476213Y-161327518D01*
X99484426Y-161383893D01*
X99484426Y-161383894D01*
X99535800Y-161488981D01*
X99618518Y-161571699D01*
X99723605Y-161623073D01*
X99791731Y-161632999D01*
X99791737Y-161632999D01*
X99791740Y-161633000D01*
X99791741Y-161633000D01*
X99951100Y-161633000D01*
X100025600Y-161652962D01*
X100080138Y-161707500D01*
X100100100Y-161782000D01*
X100080138Y-161856500D01*
X100072070Y-161868922D01*
X100014354Y-161982194D01*
X99997465Y-162088827D01*
X99994508Y-162107500D01*
X100003498Y-162164263D01*
X100006410Y-162182645D01*
X99998347Y-162259350D01*
X99953012Y-162321748D01*
X99926889Y-162338713D01*
X99861657Y-162371950D01*
X99771950Y-162461657D01*
X99714354Y-162574694D01*
X99694508Y-162700000D01*
X99714354Y-162825305D01*
X99761398Y-162917632D01*
X99771950Y-162938342D01*
X99861658Y-163028050D01*
X99974696Y-163085646D01*
X100100000Y-163105492D01*
X100225304Y-163085646D01*
X100338342Y-163028050D01*
X100428050Y-162938342D01*
X100485646Y-162825304D01*
X100505492Y-162700000D01*
X100493590Y-162624854D01*
X100501651Y-162548150D01*
X100546985Y-162485752D01*
X100573101Y-162468791D01*
X100638342Y-162435550D01*
X100728050Y-162345842D01*
X100785646Y-162232804D01*
X100805271Y-162108894D01*
X100836641Y-162038437D01*
X100899039Y-161993102D01*
X100917941Y-161988038D01*
X100925302Y-161985646D01*
X100925304Y-161985646D01*
X100983356Y-161956066D01*
X101058797Y-161940031D01*
X101132150Y-161963865D01*
X101183760Y-162021182D01*
X101200000Y-162088827D01*
X101200000Y-163519376D01*
X101180038Y-163593876D01*
X101156359Y-163624735D01*
X101058830Y-163722263D01*
X101048773Y-163746542D01*
X101018883Y-163818703D01*
X101016616Y-163817764D01*
X100991503Y-163868683D01*
X100973667Y-163884324D01*
X100966493Y-163891498D01*
X100933235Y-163941273D01*
X100933232Y-163941280D01*
X100924500Y-163985176D01*
X100924500Y-165151000D01*
X100904538Y-165225500D01*
X100850000Y-165280038D01*
X100775500Y-165300000D01*
X100724500Y-165300000D01*
X100650000Y-165280038D01*
X100595462Y-165225500D01*
X100575500Y-165151000D01*
X100575500Y-163985184D01*
X100575499Y-163985176D01*
X100566767Y-163941280D01*
X100566767Y-163941278D01*
X100566764Y-163941273D01*
X100533506Y-163891498D01*
X100533501Y-163891493D01*
X100483726Y-163858235D01*
X100483723Y-163858233D01*
X100483722Y-163858233D01*
X100483720Y-163858232D01*
X100483719Y-163858232D01*
X100439823Y-163849500D01*
X100439820Y-163849500D01*
X100060180Y-163849500D01*
X100060177Y-163849500D01*
X100060171Y-163849501D01*
X100029067Y-163855688D01*
X99970933Y-163855688D01*
X99939828Y-163849501D01*
X99939822Y-163849500D01*
X99939820Y-163849500D01*
X99560180Y-163849500D01*
X99560176Y-163849500D01*
X99516280Y-163858232D01*
X99516273Y-163858235D01*
X99466498Y-163891493D01*
X99466493Y-163891498D01*
X99433235Y-163941273D01*
X99433232Y-163941280D01*
X99424500Y-163985176D01*
X99424500Y-165151000D01*
X99404538Y-165225500D01*
X99350000Y-165280038D01*
X99275500Y-165300000D01*
X99224500Y-165300000D01*
X99150000Y-165280038D01*
X99095462Y-165225500D01*
X99075500Y-165151000D01*
X99075500Y-163985184D01*
X99075499Y-163985176D01*
X99066767Y-163941280D01*
X99066767Y-163941278D01*
X99066764Y-163941273D01*
X99033506Y-163891498D01*
X99033501Y-163891493D01*
X98983726Y-163858235D01*
X98983723Y-163858233D01*
X98983722Y-163858233D01*
X98983720Y-163858232D01*
X98983719Y-163858232D01*
X98939823Y-163849500D01*
X98939820Y-163849500D01*
X98560180Y-163849500D01*
X98560177Y-163849500D01*
X98560171Y-163849501D01*
X98529067Y-163855688D01*
X98470933Y-163855688D01*
X98439828Y-163849501D01*
X98439822Y-163849500D01*
X98439820Y-163849500D01*
X98060180Y-163849500D01*
X98060176Y-163849500D01*
X98016280Y-163858232D01*
X98016273Y-163858235D01*
X97966498Y-163891493D01*
X97966493Y-163891498D01*
X97933235Y-163941273D01*
X97933232Y-163941280D01*
X97924500Y-163985176D01*
X97924500Y-165151000D01*
X97904538Y-165225500D01*
X97850000Y-165280038D01*
X97775500Y-165300000D01*
X97724500Y-165300000D01*
X97650000Y-165280038D01*
X97595462Y-165225500D01*
X97575500Y-165151000D01*
X97575500Y-163985184D01*
X97575499Y-163985176D01*
X97566767Y-163941280D01*
X97566767Y-163941278D01*
X97566764Y-163941273D01*
X97533506Y-163891498D01*
X97533501Y-163891493D01*
X97483726Y-163858235D01*
X97483723Y-163858233D01*
X97483722Y-163858233D01*
X97483720Y-163858232D01*
X97483719Y-163858232D01*
X97439823Y-163849500D01*
X97439820Y-163849500D01*
X97060180Y-163849500D01*
X97060177Y-163849500D01*
X97060171Y-163849501D01*
X97029067Y-163855688D01*
X96970933Y-163855688D01*
X96939828Y-163849501D01*
X96939822Y-163849500D01*
X96939820Y-163849500D01*
X96829123Y-163849500D01*
X96754623Y-163829538D01*
X96700085Y-163775000D01*
X96680123Y-163700500D01*
X96700085Y-163626000D01*
X96723764Y-163595141D01*
X97080562Y-163238342D01*
X97206778Y-163112125D01*
X97206782Y-163112123D01*
X97227735Y-163091170D01*
X97227736Y-163091170D01*
X97291170Y-163027736D01*
X97302659Y-163000000D01*
X98094508Y-163000000D01*
X98114354Y-163125305D01*
X98142091Y-163179741D01*
X98171950Y-163238342D01*
X98261658Y-163328050D01*
X98374696Y-163385646D01*
X98500000Y-163405492D01*
X98625304Y-163385646D01*
X98738342Y-163328050D01*
X98828050Y-163238342D01*
X98885646Y-163125304D01*
X98905492Y-163000000D01*
X98885646Y-162874696D01*
X98828050Y-162761658D01*
X98738342Y-162671950D01*
X98625305Y-162614354D01*
X98500000Y-162594508D01*
X98374694Y-162614354D01*
X98261657Y-162671950D01*
X98171950Y-162761657D01*
X98114354Y-162874694D01*
X98094508Y-163000000D01*
X97302659Y-163000000D01*
X97308004Y-162987095D01*
X97325501Y-162944854D01*
X97325501Y-162855145D01*
X97325501Y-162843141D01*
X97325500Y-162843127D01*
X97325500Y-162313046D01*
X97345462Y-162238546D01*
X97400000Y-162184008D01*
X97445429Y-162166910D01*
X97458722Y-162164266D01*
X97508504Y-162131003D01*
X97541767Y-162081221D01*
X97550500Y-162037319D01*
X97550500Y-161522058D01*
X97570462Y-161447558D01*
X97625000Y-161393020D01*
X97699500Y-161373058D01*
X97767148Y-161389300D01*
X97774698Y-161393147D01*
X97785851Y-161396771D01*
X97784909Y-161399669D01*
X97838258Y-161423410D01*
X97878370Y-161473781D01*
X97885801Y-161488982D01*
X97968514Y-161571696D01*
X97968518Y-161571699D01*
X98073605Y-161623073D01*
X98141731Y-161632999D01*
X98141737Y-161632999D01*
X98141740Y-161633000D01*
X98141741Y-161633000D01*
X98608259Y-161633000D01*
X98608260Y-161633000D01*
X98608263Y-161632999D01*
X98608268Y-161632999D01*
X98676393Y-161623073D01*
X98676394Y-161623073D01*
X98781481Y-161571699D01*
X98781481Y-161571698D01*
X98781483Y-161571698D01*
X98864198Y-161488983D01*
X98884392Y-161447675D01*
X98915573Y-161383894D01*
X98915573Y-161383893D01*
X98923787Y-161327518D01*
X98954281Y-161256674D01*
X99016112Y-161210569D01*
X99071230Y-161200000D01*
X99328770Y-161200000D01*
X99403270Y-161219962D01*
G37*
%TD.AperFunction*%
%TD*%
M02*
